<?xml version="1.0" standalone="no"?>
<!DOCTYPE svg PUBLIC "-//W3C//DTD SVG 1.1//EN" "http://www.w3.org/Graphics/SVG/1.1/DTD/svg11.dtd">
<svg xmlns="http://www.w3.org/2000/svg" xmlns:inkscape="http://www.inkscape.org/namespaces/inkscape" xmlns:xlink="http://www.w3.org/1999/xlink" viewBox = "0 0 1065 886" version = "1.1">
<!-- svg generated using QGIS www.qgis.org -->
<g id="achaia" inkscape:groupmode="layer" inkscape:label="achaia">
<g stroke="none" fill="rgb(52,64,154)" stroke-linejoin="round" stroke-width="0.26">
<g id="achaia_1" >
<path d="M 135,256 L 136,256 L 137,255 L 137,254 L 138,254 L 138,253 L 138,254 L 139,254 L 139,253 L 140,253 L 141,253 L 141,254 L 142,254 L 143,255 L 143,256 L 144,257 L 144,258 L 144,259 L 145,259 L 145,260 L 145,261 L 146,261 L 146,262 L 146,263 L 147,263 L 147,264 L 148,264 L 148,265 L 148,266 L 149,266 L 149,267 L 149,268 L 150,268 L 150,269 L 150,270 L 151,270 L 151,271 L 152,271 L 152,272 L 152,273 L 153,273 L 153,274 L 154,275 L 154,276 L 155,276 L 155,277 L 156,277 L 156,278 L 157,278 L 158,279 L 159,279 L 160,279 L 160,278 L 160,279 L 161,279 L 162,279 L 163,279 L 163,280 L 164,280 L 165,280 L 166,280 L 167,280 L 168,280 L 169,280 L 170,280 L 171,280 L 172,280 L 172,279 L 173,279 L 173,278 L 174,278 L 174,277 L 175,277 L 175,276 L 176,276 L 176,275 L 177,275 L 177,274 L 178,274 L 179,274 L 179,273 L 180,273 L 180,272 L 181,272 L 182,272 L 183,272 L 183,271 L 184,271 L 184,272 L 185,272 L 186,271 L 187,271 L 187,272 L 188,272 L 189,272 L 189,273 L 190,273 L 191,273 L 192,273 L 192,272 L 192,271 L 193,271 L 194,271 L 195,272 L 195,273 L 196,273 L 196,274 L 197,274 L 197,275 L 197,276 L 198,276 L 199,276 L 200,276 L 201,276 L 202,277 L 203,278 L 204,279 L 204,280 L 205,280 L 205,281 L 206,281 L 206,282 L 207,282 L 207,283 L 208,283 L 208,284 L 209,285 L 210,285 L 210,286 L 211,286 L 211,287 L 212,287 L 212,288 L 213,288 L 213,289 L 214,289 L 214,290 L 215,290 L 216,290 L 216,291 L 217,291 L 218,291 L 218,292 L 219,292 L 220,292 L 221,292 L 222,292 L 223,292 L 223,293 L 224,293 L 224,294 L 225,294 L 225,295 L 226,295 L 226,296 L 227,296 L 227,297 L 228,297 L 228,298 L 229,298 L 229,299 L 230,299 L 231,300 L 232,301 L 233,301 L 233,302 L 234,302 L 234,303 L 235,303 L 235,304 L 236,304 L 236,305 L 237,305 L 237,306 L 238,306 L 239,307 L 240,308 L 241,308 L 241,309 L 242,309 L 242,310 L 243,310 L 244,311 L 245,311 L 245,312 L 246,312 L 247,313 L 248,313 L 249,314 L 250,314 L 250,315 L 251,315 L 252,315 L 252,316 L 253,316 L 253,317 L 254,317 L 255,317 L 255,318 L 256,318 L 257,319 L 258,319 L 259,320 L 260,320 L 261,320 L 262,320 L 263,320 L 264,320 L 264,319 L 265,319 L 266,319 L 266,318 L 267,318 L 268,318 L 268,317 L 269,317 L 270,317 L 271,317 L 272,318 L 273,318 L 274,319 L 275,319 L 276,320 L 277,320 L 278,320 L 278,321 L 279,321 L 280,321 L 280,322 L 281,322 L 282,322 L 283,322 L 283,323 L 284,323 L 285,323 L 286,323 L 286,324 L 287,324 L 288,324 L 289,324 L 290,324 L 291,324 L 292,324 L 293,324 L 293,323 L 294,323 L 294,324 L 295,324 L 295,325 L 296,325 L 297,325 L 297,326 L 298,326 L 299,327 L 300,327 L 301,328 L 302,328 L 303,329 L 304,329 L 305,329 L 305,330 L 306,330 L 307,331 L 308,331 L 309,331 L 310,332 L 311,332 L 311,333 L 312,333 L 313,333 L 314,333 L 315,333 L 315,334 L 316,334 L 317,334 L 318,334 L 319,334 L 319,335 L 320,336 L 321,337 L 322,338 L 323,338 L 323,339 L 324,339 L 325,340 L 326,340 L 327,340 L 328,340 L 327,341 L 327,342 L 326,343 L 326,344 L 325,346 L 325,347 L 324,348 L 324,349 L 323,351 L 322,352 L 321,352 L 320,352 L 318,351 L 317,351 L 317,352 L 318,352 L 318,353 L 318,354 L 319,354 L 320,355 L 320,356 L 321,356 L 323,356 L 324,356 L 326,355 L 328,355 L 329,355 L 331,355 L 332,355 L 333,355 L 334,354 L 335,354 L 336,354 L 335,356 L 335,357 L 335,358 L 336,358 L 337,357 L 338,357 L 340,356 L 341,356 L 342,355 L 343,355 L 344,355 L 345,354 L 345,353 L 345,352 L 345,351 L 346,351 L 347,351 L 347,352 L 348,352 L 349,353 L 350,354 L 352,354 L 354,353 L 354,354 L 355,355 L 356,356 L 357,356 L 358,356 L 359,357 L 361,357 L 363,357 L 366,357 L 369,357 L 370,358 L 371,358 L 372,358 L 373,359 L 375,359 L 375,360 L 376,360 L 377,360 L 378,359 L 379,360 L 379,361 L 379,362 L 378,363 L 377,364 L 376,365 L 374,366 L 374,367 L 373,368 L 373,369 L 374,370 L 374,371 L 374,372 L 375,373 L 374,374 L 374,375 L 373,376 L 372,377 L 373,378 L 373,379 L 375,379 L 375,380 L 376,381 L 377,381 L 377,382 L 377,384 L 377,385 L 377,386 L 377,387 L 378,387 L 379,388 L 380,389 L 380,390 L 380,391 L 381,391 L 382,391 L 381,391 L 381,392 L 381,393 L 381,394 L 382,394 L 383,395 L 384,395 L 384,396 L 385,396 L 385,397 L 384,397 L 384,398 L 385,398 L 385,399 L 385,400 L 385,401 L 386,401 L 386,402 L 387,403 L 389,404 L 389,405 L 388,405 L 388,406 L 388,407 L 389,406 L 389,407 L 390,408 L 390,409 L 391,410 L 392,410 L 393,411 L 394,411 L 394,412 L 394,413 L 395,414 L 396,414 L 397,415 L 397,416 L 396,417 L 397,418 L 398,420 L 399,420 L 400,420 L 401,419 L 402,419 L 402,420 L 401,421 L 401,422 L 402,422 L 403,422 L 403,423 L 404,423 L 405,423 L 405,424 L 405,425 L 405,426 L 406,427 L 406,428 L 406,429 L 406,430 L 406,431 L 406,432 L 406,434 L 406,435 L 406,437 L 405,437 L 405,438 L 401,441 L 400,441 L 399,441 L 398,441 L 396,441 L 394,440 L 393,440 L 392,439 L 391,439 L 390,440 L 390,441 L 389,443 L 389,444 L 387,444 L 387,443 L 384,443 L 383,443 L 381,443 L 379,443 L 378,443 L 377,443 L 376,443 L 374,443 L 371,444 L 369,444 L 368,445 L 367,445 L 366,446 L 364,448 L 363,449 L 362,451 L 361,453 L 359,455 L 359,456 L 358,458 L 357,459 L 356,460 L 356,461 L 355,463 L 354,465 L 354,466 L 354,467 L 354,469 L 354,470 L 353,470 L 352,470 L 350,471 L 349,471 L 346,471 L 345,472 L 344,472 L 343,472 L 342,473 L 341,474 L 340,474 L 340,475 L 339,475 L 338,475 L 336,476 L 335,476 L 334,476 L 333,476 L 333,477 L 333,478 L 332,479 L 332,480 L 332,482 L 332,483 L 332,485 L 332,486 L 332,487 L 331,488 L 331,492 L 331,494 L 331,495 L 331,496 L 331,497 L 331,498 L 331,499 L 331,502 L 331,503 L 331,504 L 330,504 L 330,505 L 329,505 L 329,506 L 328,506 L 326,507 L 326,508 L 325,508 L 324,508 L 323,509 L 322,510 L 321,512 L 321,514 L 321,519 L 321,520 L 321,521 L 321,522 L 320,523 L 319,524 L 318,525 L 317,525 L 316,526 L 313,527 L 312,528 L 311,528 L 311,529 L 312,529 L 312,530 L 311,531 L 311,532 L 311,533 L 311,536 L 311,541 L 311,542 L 310,543 L 309,546 L 308,547 L 308,548 L 308,549 L 307,549 L 307,550 L 306,551 L 306,552 L 305,553 L 304,554 L 304,555 L 303,556 L 302,557 L 302,558 L 301,559 L 301,560 L 300,560 L 299,560 L 298,560 L 298,561 L 298,562 L 297,562 L 297,563 L 296,563 L 295,563 L 294,563 L 294,564 L 294,565 L 295,565 L 295,566 L 294,567 L 293,567 L 292,567 L 291,568 L 291,569 L 290,570 L 289,569 L 289,568 L 288,568 L 287,568 L 285,569 L 283,570 L 282,570 L 282,571 L 282,572 L 281,572 L 280,571 L 277,570 L 276,570 L 276,572 L 275,574 L 274,574 L 273,574 L 272,573 L 271,573 L 271,572 L 270,571 L 269,570 L 268,569 L 267,569 L 266,569 L 266,570 L 267,571 L 267,572 L 266,572 L 266,573 L 265,573 L 264,572 L 263,571 L 263,570 L 263,569 L 262,568 L 261,568 L 260,569 L 259,569 L 259,570 L 258,570 L 257,571 L 256,571 L 256,572 L 255,572 L 254,571 L 252,571 L 251,570 L 250,570 L 249,569 L 248,569 L 247,569 L 246,569 L 244,569 L 243,568 L 242,568 L 240,567 L 239,566 L 237,566 L 236,566 L 234,566 L 233,566 L 231,566 L 230,566 L 229,566 L 228,565 L 227,565 L 226,565 L 225,565 L 224,565 L 223,565 L 223,564 L 222,564 L 222,562 L 221,562 L 221,561 L 221,560 L 221,559 L 221,558 L 221,557 L 222,557 L 222,556 L 223,556 L 223,555 L 224,554 L 225,554 L 225,553 L 226,552 L 226,550 L 226,549 L 226,548 L 225,548 L 224,547 L 224,546 L 223,545 L 222,544 L 222,543 L 220,542 L 219,541 L 217,540 L 215,539 L 214,539 L 214,538 L 213,538 L 213,537 L 212,537 L 211,536 L 211,535 L 210,535 L 210,534 L 209,533 L 208,533 L 206,532 L 202,530 L 201,530 L 200,530 L 198,529 L 197,529 L 196,529 L 195,528 L 194,527 L 194,526 L 194,525 L 194,524 L 194,522 L 194,520 L 194,518 L 194,517 L 193,515 L 191,515 L 190,516 L 189,515 L 188,515 L 187,515 L 187,514 L 186,514 L 186,513 L 186,511 L 186,510 L 185,510 L 184,509 L 183,509 L 182,509 L 181,508 L 180,507 L 179,507 L 179,506 L 178,506 L 178,505 L 177,504 L 178,503 L 178,502 L 180,501 L 181,501 L 181,500 L 182,500 L 182,499 L 183,499 L 185,498 L 186,498 L 187,497 L 188,496 L 189,496 L 189,495 L 190,495 L 191,494 L 192,493 L 193,493 L 193,492 L 194,492 L 194,491 L 195,490 L 195,489 L 195,488 L 195,486 L 195,485 L 195,484 L 194,482 L 194,481 L 193,481 L 191,480 L 190,480 L 189,479 L 188,479 L 187,478 L 186,477 L 185,475 L 184,475 L 184,474 L 184,473 L 185,473 L 185,471 L 186,470 L 186,469 L 187,467 L 187,466 L 187,465 L 184,464 L 183,464 L 182,463 L 183,463 L 183,462 L 184,460 L 185,458 L 186,458 L 186,457 L 188,457 L 188,456 L 187,455 L 187,454 L 186,453 L 184,453 L 183,454 L 182,454 L 181,454 L 180,454 L 179,454 L 177,454 L 176,453 L 175,452 L 173,451 L 172,450 L 171,450 L 170,450 L 169,449 L 169,448 L 168,446 L 167,445 L 167,444 L 166,443 L 165,442 L 164,441 L 163,440 L 161,439 L 161,438 L 160,438 L 159,437 L 158,436 L 157,436 L 156,436 L 156,435 L 155,434 L 154,434 L 154,433 L 154,432 L 154,431 L 153,431 L 152,430 L 151,429 L 151,428 L 151,427 L 150,427 L 150,426 L 150,425 L 149,425 L 148,425 L 147,425 L 146,425 L 145,424 L 146,423 L 148,420 L 148,419 L 147,418 L 144,417 L 142,414 L 141,414 L 140,414 L 139,414 L 138,415 L 137,415 L 136,415 L 135,415 L 134,415 L 133,415 L 133,414 L 131,414 L 131,413 L 130,413 L 130,412 L 130,411 L 129,411 L 128,411 L 128,410 L 128,409 L 127,409 L 126,408 L 126,407 L 126,406 L 125,405 L 124,405 L 122,403 L 121,403 L 119,401 L 117,400 L 116,399 L 115,398 L 116,395 L 117,393 L 117,392 L 117,391 L 117,390 L 117,388 L 117,387 L 117,386 L 116,384 L 115,382 L 115,380 L 114,379 L 114,378 L 113,378 L 112,377 L 110,376 L 109,375 L 107,374 L 107,373 L 107,371 L 108,371 L 109,371 L 109,370 L 110,370 L 110,369 L 111,369 L 111,368 L 112,368 L 112,367 L 113,366 L 113,365 L 114,365 L 114,364 L 114,363 L 115,363 L 115,362 L 116,361 L 116,360 L 117,360 L 117,359 L 117,358 L 118,357 L 118,356 L 118,355 L 119,355 L 119,354 L 119,353 L 120,353 L 120,352 L 120,351 L 121,350 L 121,349 L 121,348 L 121,347 L 121,346 L 122,345 L 122,344 L 122,343 L 122,342 L 122,341 L 122,340 L 123,340 L 123,339 L 123,338 L 123,337 L 123,336 L 123,335 L 123,334 L 123,333 L 123,332 L 123,331 L 123,330 L 123,329 L 123,328 L 123,327 L 123,326 L 123,325 L 123,324 L 123,323 L 123,322 L 123,321 L 122,321 L 122,320 L 122,319 L 122,318 L 122,317 L 122,316 L 122,315 L 122,314 L 121,314 L 121,313 L 121,312 L 121,311 L 121,310 L 121,309 L 121,308 L 120,308 L 120,307 L 120,306 L 119,306 L 120,305 L 120,304 L 119,303 L 120,303 L 120,302 L 120,301 L 120,300 L 121,300 L 121,299 L 121,298 L 122,298 L 122,297 L 122,296 L 122,295 L 122,294 L 122,293 L 122,292 L 121,292 L 121,291 L 121,290 L 120,290 L 120,289 L 121,289 L 121,288 L 121,287 L 122,287 L 123,287 L 124,286 L 124,285 L 123,285 L 123,284 L 123,283 L 124,283 L 124,282 L 125,281 L 125,280 L 125,279 L 126,279 L 126,278 L 126,277 L 125,276 L 125,275 L 126,275 L 127,275 L 127,274 L 128,274 L 128,273 L 129,272 L 130,272 L 130,271 L 130,270 L 130,269 L 130,268 L 129,267 L 129,266 L 129,265 L 129,264 L 128,264 L 128,263 L 128,262 L 128,261 L 127,260 L 127,259 L 127,258 L 126,258 L 126,257 L 127,257 L 127,256 L 127,255 L 127,254 L 127,253 L 127,252 L 128,252 L 128,251 L 129,251 L 128,251 L 128,250 L 128,249 L 129,250 L 129,251 L 130,251 L 130,252 L 131,252 L 131,253 L 132,253 L 132,254 L 132,255 L 133,255 L 134,255 L 134,256 L 135,256 " />
</g>
<g id="achaia_2" >
<path d="M 530,134 L 531,134 L 532,134 L 533,134 L 534,134 L 535,134 L 535,135 L 536,135 L 537,135 L 538,135 L 539,136 L 540,136 L 541,136 L 541,137 L 542,137 L 542,138 L 543,138 L 544,138 L 544,139 L 545,139 L 546,140 L 546,141 L 546,142 L 547,142 L 547,143 L 548,143 L 548,144 L 548,145 L 548,146 L 548,147 L 549,147 L 549,148 L 549,149 L 550,149 L 551,149 L 551,148 L 552,148 L 553,148 L 553,147 L 554,147 L 555,147 L 556,148 L 555,149 L 554,150 L 552,153 L 551,155 L 550,155 L 550,156 L 549,157 L 549,158 L 548,159 L 548,160 L 548,161 L 547,162 L 547,164 L 548,165 L 548,166 L 549,168 L 550,168 L 551,168 L 552,169 L 553,170 L 554,171 L 554,172 L 556,174 L 556,175 L 557,176 L 558,176 L 558,177 L 561,179 L 562,180 L 563,181 L 564,181 L 565,182 L 566,182 L 566,183 L 567,183 L 568,183 L 569,183 L 569,182 L 571,181 L 572,180 L 573,180 L 574,180 L 575,180 L 577,180 L 580,181 L 582,181 L 584,182 L 586,183 L 587,183 L 591,184 L 592,185 L 592,186 L 592,187 L 593,188 L 593,189 L 594,189 L 595,189 L 595,190 L 595,191 L 595,192 L 595,193 L 595,194 L 596,194 L 596,196 L 597,197 L 598,198 L 599,199 L 600,200 L 597,203 L 596,203 L 594,204 L 591,204 L 590,205 L 589,205 L 588,205 L 587,206 L 586,206 L 585,207 L 582,206 L 579,207 L 578,207 L 578,208 L 577,209 L 576,210 L 574,212 L 573,214 L 572,215 L 571,216 L 571,217 L 572,219 L 573,220 L 574,222 L 575,224 L 576,224 L 576,225 L 576,226 L 576,227 L 576,229 L 576,230 L 575,230 L 574,231 L 573,231 L 573,232 L 571,232 L 571,233 L 570,233 L 569,234 L 568,234 L 568,235 L 567,237 L 567,238 L 566,238 L 566,239 L 564,241 L 562,243 L 561,244 L 559,245 L 557,246 L 555,246 L 554,246 L 553,246 L 552,246 L 552,247 L 551,247 L 551,249 L 551,250 L 551,251 L 550,251 L 549,252 L 547,253 L 546,254 L 545,254 L 544,255 L 544,257 L 543,259 L 543,261 L 543,262 L 543,263 L 543,264 L 543,265 L 544,266 L 544,267 L 544,268 L 543,270 L 542,271 L 542,272 L 540,274 L 539,275 L 539,276 L 538,277 L 536,278 L 536,279 L 535,280 L 534,280 L 534,282 L 536,283 L 537,283 L 538,284 L 539,285 L 540,286 L 540,287 L 541,290 L 541,292 L 541,294 L 541,295 L 541,297 L 542,300 L 543,301 L 543,302 L 543,303 L 544,305 L 545,305 L 545,306 L 546,307 L 546,308 L 547,309 L 548,310 L 548,311 L 549,311 L 549,312 L 550,312 L 550,313 L 551,313 L 552,314 L 553,315 L 554,315 L 554,316 L 554,317 L 554,318 L 555,318 L 554,320 L 555,321 L 555,322 L 555,324 L 555,326 L 555,327 L 555,328 L 554,331 L 555,332 L 554,334 L 553,334 L 552,334 L 552,335 L 551,335 L 550,335 L 549,336 L 548,337 L 547,338 L 546,340 L 545,341 L 543,342 L 542,343 L 541,343 L 539,344 L 538,345 L 537,346 L 536,346 L 535,347 L 534,348 L 534,349 L 534,351 L 534,353 L 534,354 L 533,355 L 534,356 L 534,358 L 534,360 L 534,361 L 534,362 L 535,363 L 536,363 L 537,362 L 537,361 L 538,361 L 539,361 L 540,361 L 541,361 L 542,360 L 542,361 L 542,362 L 542,363 L 542,364 L 541,365 L 541,366 L 541,367 L 541,368 L 540,368 L 539,368 L 536,368 L 535,368 L 534,368 L 532,368 L 529,368 L 528,368 L 527,368 L 526,368 L 525,367 L 524,367 L 523,366 L 522,365 L 520,364 L 519,363 L 518,362 L 517,362 L 516,361 L 514,362 L 513,362 L 512,362 L 511,362 L 510,362 L 509,362 L 508,362 L 506,361 L 505,360 L 504,359 L 503,359 L 502,358 L 500,356 L 499,355 L 498,354 L 497,353 L 497,352 L 496,352 L 495,350 L 494,350 L 494,349 L 491,348 L 490,348 L 490,347 L 489,347 L 489,348 L 488,348 L 487,348 L 486,348 L 485,348 L 484,348 L 483,348 L 482,348 L 481,349 L 480,350 L 479,351 L 478,351 L 477,351 L 475,350 L 474,349 L 473,347 L 472,345 L 469,344 L 468,344 L 468,343 L 467,343 L 467,342 L 466,341 L 466,340 L 466,339 L 465,338 L 465,335 L 464,334 L 464,333 L 463,329 L 462,329 L 459,329 L 457,329 L 455,329 L 453,329 L 452,329 L 450,328 L 449,329 L 448,329 L 447,329 L 446,329 L 445,329 L 442,329 L 441,329 L 440,329 L 439,330 L 438,330 L 437,331 L 436,331 L 435,332 L 434,332 L 432,332 L 431,332 L 431,331 L 431,330 L 430,330 L 429,330 L 428,330 L 425,330 L 424,330 L 423,330 L 423,331 L 422,333 L 422,334 L 423,336 L 423,337 L 424,338 L 424,339 L 425,339 L 425,340 L 426,340 L 425,340 L 424,341 L 423,342 L 422,342 L 420,343 L 418,343 L 417,343 L 416,343 L 415,343 L 414,343 L 413,342 L 411,339 L 410,339 L 410,338 L 409,336 L 407,336 L 406,335 L 405,334 L 405,333 L 404,333 L 403,332 L 402,332 L 400,331 L 398,330 L 397,330 L 396,329 L 395,328 L 394,327 L 394,326 L 393,327 L 393,328 L 394,329 L 393,330 L 393,331 L 393,332 L 394,333 L 394,334 L 394,335 L 393,336 L 393,338 L 393,339 L 393,340 L 393,341 L 392,342 L 392,343 L 392,344 L 393,345 L 394,345 L 394,346 L 393,348 L 392,349 L 390,351 L 388,353 L 387,354 L 386,354 L 385,354 L 384,354 L 384,355 L 384,356 L 383,356 L 383,359 L 383,360 L 382,360 L 381,360 L 379,360 L 378,359 L 377,360 L 376,360 L 375,360 L 375,359 L 373,359 L 372,358 L 371,358 L 370,358 L 369,357 L 366,357 L 363,357 L 361,357 L 359,357 L 358,356 L 357,356 L 356,356 L 355,355 L 354,354 L 354,353 L 352,354 L 350,354 L 349,353 L 348,352 L 347,352 L 347,351 L 346,351 L 345,351 L 345,352 L 345,353 L 345,354 L 344,355 L 343,355 L 342,355 L 341,356 L 340,356 L 338,357 L 337,357 L 336,358 L 335,358 L 335,357 L 335,356 L 336,354 L 335,354 L 334,354 L 333,355 L 332,355 L 331,355 L 329,355 L 328,355 L 326,355 L 324,356 L 323,356 L 321,356 L 320,356 L 320,355 L 319,354 L 318,354 L 318,353 L 318,352 L 317,352 L 317,351 L 318,351 L 320,352 L 321,352 L 322,352 L 323,351 L 324,349 L 324,348 L 325,347 L 325,346 L 326,344 L 326,343 L 327,342 L 327,341 L 328,340 L 327,340 L 326,340 L 325,340 L 324,339 L 323,339 L 323,338 L 322,338 L 321,337 L 320,336 L 319,335 L 319,334 L 320,334 L 320,333 L 321,333 L 322,333 L 322,332 L 323,332 L 324,332 L 324,331 L 325,331 L 326,331 L 327,331 L 328,331 L 328,330 L 329,330 L 330,330 L 330,329 L 331,328 L 331,327 L 332,327 L 332,326 L 333,326 L 334,326 L 334,325 L 335,325 L 335,324 L 336,324 L 337,323 L 337,322 L 338,322 L 339,322 L 340,322 L 340,321 L 341,321 L 342,321 L 343,321 L 344,321 L 345,321 L 346,321 L 347,321 L 348,321 L 349,321 L 350,321 L 350,320 L 351,320 L 352,319 L 353,319 L 353,318 L 354,318 L 355,318 L 356,318 L 356,317 L 357,317 L 358,317 L 358,316 L 359,316 L 359,315 L 360,314 L 361,313 L 361,312 L 362,312 L 363,312 L 363,311 L 364,311 L 365,311 L 366,311 L 367,312 L 368,312 L 368,311 L 369,311 L 370,311 L 371,311 L 372,311 L 373,311 L 373,310 L 374,310 L 374,309 L 375,309 L 375,308 L 376,308 L 376,307 L 377,307 L 377,306 L 377,305 L 378,305 L 378,304 L 378,303 L 379,302 L 379,301 L 379,300 L 379,299 L 379,298 L 380,298 L 380,297 L 380,296 L 379,296 L 379,295 L 379,294 L 380,294 L 380,293 L 380,292 L 381,292 L 381,291 L 382,291 L 383,290 L 383,291 L 384,291 L 385,291 L 385,290 L 386,290 L 387,290 L 388,290 L 388,289 L 389,289 L 389,288 L 390,288 L 390,287 L 390,286 L 391,286 L 391,285 L 391,284 L 391,283 L 392,282 L 393,282 L 394,282 L 394,281 L 395,281 L 395,280 L 396,279 L 396,278 L 396,277 L 397,277 L 397,276 L 398,276 L 399,276 L 399,275 L 400,275 L 400,274 L 401,274 L 401,273 L 402,273 L 403,273 L 403,272 L 404,272 L 405,272 L 406,272 L 406,271 L 407,271 L 407,270 L 408,270 L 408,269 L 409,268 L 409,267 L 410,267 L 410,266 L 411,266 L 411,265 L 412,265 L 412,264 L 412,263 L 412,262 L 413,262 L 412,261 L 413,261 L 413,260 L 414,260 L 415,260 L 415,259 L 415,258 L 415,257 L 416,257 L 416,256 L 416,255 L 416,254 L 416,253 L 417,252 L 417,251 L 417,250 L 418,250 L 418,249 L 418,248 L 419,247 L 419,246 L 419,245 L 419,244 L 420,244 L 420,243 L 420,242 L 420,241 L 420,240 L 420,239 L 421,239 L 421,238 L 421,237 L 421,236 L 421,235 L 421,234 L 421,233 L 421,232 L 421,231 L 421,230 L 421,229 L 422,229 L 422,230 L 423,230 L 424,229 L 424,228 L 423,227 L 424,227 L 425,228 L 425,227 L 426,227 L 426,226 L 427,226 L 427,225 L 428,224 L 427,223 L 429,224 L 429,223 L 429,222 L 430,222 L 430,221 L 429,220 L 430,220 L 431,220 L 430,220 L 430,219 L 431,219 L 431,218 L 431,217 L 431,216 L 432,216 L 432,215 L 432,214 L 432,213 L 432,214 L 432,213 L 432,212 L 432,211 L 433,211 L 433,210 L 432,210 L 433,210 L 433,209 L 433,208 L 432,208 L 433,208 L 433,207 L 433,206 L 433,205 L 433,204 L 433,203 L 433,202 L 433,201 L 434,201 L 434,200 L 435,200 L 435,199 L 436,198 L 436,197 L 437,197 L 437,196 L 438,195 L 438,194 L 438,193 L 438,192 L 438,191 L 439,191 L 439,190 L 440,190 L 441,190 L 441,191 L 442,191 L 442,192 L 443,192 L 444,192 L 445,192 L 446,192 L 446,191 L 447,191 L 447,190 L 448,190 L 448,189 L 449,189 L 450,189 L 450,188 L 451,188 L 451,187 L 452,187 L 452,186 L 453,185 L 454,184 L 454,183 L 455,183 L 455,182 L 456,182 L 456,181 L 457,181 L 457,180 L 458,180 L 458,179 L 458,178 L 458,177 L 458,176 L 459,176 L 459,175 L 460,174 L 461,173 L 461,172 L 462,171 L 462,170 L 462,169 L 463,169 L 464,169 L 464,168 L 465,168 L 465,167 L 466,167 L 466,166 L 467,166 L 467,165 L 467,164 L 468,164 L 468,163 L 468,162 L 468,161 L 468,160 L 468,159 L 469,159 L 469,160 L 470,160 L 470,161 L 471,161 L 471,162 L 472,162 L 472,163 L 473,163 L 473,164 L 474,164 L 475,164 L 476,163 L 476,162 L 477,162 L 477,161 L 478,161 L 479,161 L 480,161 L 480,162 L 481,162 L 482,162 L 482,161 L 483,161 L 483,160 L 484,160 L 485,160 L 486,160 L 486,159 L 487,159 L 488,158 L 489,158 L 490,158 L 490,157 L 491,157 L 492,157 L 493,157 L 493,156 L 494,156 L 495,156 L 495,155 L 496,155 L 496,154 L 496,153 L 497,153 L 498,153 L 498,154 L 499,154 L 499,155 L 500,155 L 501,155 L 502,156 L 503,156 L 504,156 L 504,157 L 505,157 L 506,157 L 506,156 L 507,156 L 507,155 L 508,155 L 508,154 L 509,154 L 509,153 L 510,153 L 510,152 L 511,152 L 511,151 L 512,151 L 512,150 L 513,150 L 513,149 L 514,149 L 514,148 L 515,148 L 515,147 L 516,147 L 516,146 L 516,145 L 517,145 L 517,144 L 518,144 L 518,143 L 519,143 L 520,142 L 520,141 L 521,141 L 521,140 L 521,139 L 522,139 L 522,138 L 522,137 L 523,137 L 523,136 L 524,136 L 525,136 L 525,135 L 526,135 L 526,134 L 526,133 L 525,132 L 524,132 L 524,131 L 525,132 L 526,132 L 526,133 L 527,134 L 528,134 L 529,134 L 530,134 " />
</g>
<g id="achaia_3" >
<path d="M 604,146 L 605,146 L 606,146 L 606,147 L 607,146 L 608,146 L 608,147 L 609,147 L 610,147 L 611,147 L 611,148 L 612,148 L 613,148 L 614,148 L 615,148 L 616,148 L 616,149 L 617,149 L 618,149 L 619,150 L 619,151 L 620,151 L 621,151 L 622,151 L 622,152 L 623,152 L 624,153 L 625,153 L 625,154 L 626,154 L 627,154 L 628,154 L 628,155 L 629,155 L 629,156 L 630,156 L 630,157 L 631,157 L 632,157 L 632,158 L 633,158 L 634,158 L 634,159 L 635,159 L 636,159 L 636,160 L 637,160 L 637,161 L 637,162 L 638,162 L 638,163 L 638,164 L 639,164 L 639,165 L 640,165 L 640,164 L 641,164 L 641,165 L 642,165 L 643,165 L 644,165 L 644,164 L 645,164 L 646,164 L 647,164 L 648,164 L 649,164 L 650,164 L 650,163 L 651,163 L 652,163 L 652,164 L 652,163 L 653,163 L 654,163 L 655,163 L 656,163 L 657,163 L 658,163 L 659,163 L 660,164 L 661,164 L 661,165 L 662,165 L 663,165 L 664,165 L 665,166 L 665,167 L 666,167 L 666,168 L 667,168 L 667,169 L 668,169 L 668,170 L 668,171 L 668,172 L 669,172 L 669,173 L 669,174 L 670,175 L 670,176 L 670,177 L 671,177 L 671,178 L 671,179 L 672,179 L 672,180 L 672,181 L 672,182 L 672,183 L 671,183 L 671,184 L 671,185 L 671,186 L 671,187 L 671,188 L 671,189 L 671,190 L 671,191 L 671,192 L 671,193 L 672,193 L 672,194 L 673,194 L 674,194 L 675,194 L 676,194 L 677,195 L 678,195 L 679,195 L 679,196 L 680,196 L 680,197 L 681,197 L 681,198 L 682,198 L 682,199 L 682,200 L 682,201 L 683,201 L 683,202 L 684,202 L 684,203 L 685,203 L 685,204 L 686,204 L 686,203 L 687,203 L 688,203 L 689,203 L 690,202 L 691,202 L 691,201 L 691,200 L 692,201 L 693,201 L 694,201 L 695,201 L 695,202 L 696,202 L 697,203 L 698,203 L 698,204 L 699,204 L 699,205 L 700,205 L 701,206 L 702,206 L 702,207 L 703,207 L 704,207 L 704,208 L 705,208 L 705,209 L 706,210 L 706,211 L 706,212 L 707,212 L 707,213 L 707,214 L 708,214 L 709,215 L 710,215 L 710,216 L 710,217 L 710,218 L 711,218 L 711,219 L 710,219 L 710,220 L 710,221 L 711,221 L 711,222 L 711,223 L 711,224 L 712,223 L 712,224 L 711,224 L 711,225 L 712,225 L 712,226 L 713,226 L 714,226 L 715,226 L 716,226 L 717,226 L 718,226 L 719,226 L 720,226 L 720,225 L 721,225 L 722,225 L 723,225 L 724,224 L 725,224 L 725,223 L 726,223 L 727,223 L 727,222 L 728,222 L 728,221 L 729,221 L 729,220 L 730,220 L 731,220 L 732,220 L 732,219 L 733,219 L 733,218 L 734,218 L 734,217 L 735,217 L 736,216 L 737,215 L 738,214 L 739,214 L 740,215 L 740,216 L 741,216 L 741,217 L 742,217 L 742,218 L 743,219 L 744,219 L 745,219 L 745,220 L 746,220 L 746,221 L 747,221 L 747,222 L 747,223 L 748,223 L 748,224 L 749,224 L 750,224 L 750,225 L 751,225 L 752,225 L 752,226 L 753,226 L 753,227 L 754,227 L 754,228 L 755,228 L 755,229 L 755,230 L 756,230 L 756,231 L 757,231 L 757,232 L 758,233 L 758,234 L 759,234 L 759,235 L 759,236 L 759,237 L 760,237 L 760,238 L 761,238 L 761,239 L 761,240 L 762,240 L 762,241 L 762,242 L 762,243 L 763,243 L 763,244 L 764,244 L 764,245 L 765,246 L 765,247 L 766,247 L 766,248 L 767,248 L 767,249 L 767,250 L 768,250 L 768,251 L 768,252 L 769,252 L 769,253 L 770,253 L 771,253 L 771,254 L 772,254 L 772,255 L 772,256 L 771,256 L 771,257 L 771,258 L 770,258 L 770,259 L 770,260 L 770,261 L 770,262 L 770,263 L 770,264 L 771,265 L 772,265 L 773,265 L 773,266 L 774,266 L 774,267 L 775,267 L 775,268 L 775,269 L 776,269 L 776,270 L 776,271 L 777,271 L 778,271 L 779,271 L 779,272 L 780,272 L 781,273 L 782,273 L 782,274 L 783,274 L 784,275 L 784,276 L 785,276 L 785,277 L 786,277 L 787,278 L 787,279 L 788,279 L 788,280 L 789,280 L 789,281 L 790,281 L 790,282 L 791,282 L 791,283 L 792,283 L 792,284 L 793,284 L 794,284 L 795,284 L 796,284 L 797,284 L 797,283 L 798,283 L 798,282 L 799,282 L 800,282 L 801,282 L 801,281 L 802,281 L 803,281 L 804,280 L 804,281 L 805,281 L 805,282 L 806,282 L 807,283 L 808,283 L 809,283 L 810,283 L 810,284 L 811,284 L 811,285 L 812,285 L 813,285 L 813,286 L 814,286 L 814,287 L 814,288 L 815,288 L 815,289 L 816,289 L 816,290 L 817,290 L 817,291 L 818,291 L 818,292 L 819,292 L 819,293 L 820,293 L 820,294 L 820,295 L 821,296 L 821,297 L 821,298 L 822,299 L 822,300 L 822,301 L 822,302 L 823,302 L 823,303 L 823,304 L 824,304 L 824,305 L 825,305 L 826,306 L 827,306 L 828,306 L 829,307 L 830,307 L 831,307 L 832,307 L 833,307 L 834,307 L 834,308 L 834,307 L 835,307 L 836,307 L 836,308 L 837,308 L 838,308 L 839,308 L 840,308 L 840,307 L 841,307 L 842,307 L 842,306 L 843,306 L 843,305 L 844,305 L 845,305 L 846,305 L 847,306 L 848,306 L 848,307 L 849,308 L 849,309 L 850,309 L 850,310 L 851,310 L 851,311 L 852,311 L 853,311 L 854,311 L 855,311 L 856,311 L 857,311 L 858,311 L 859,311 L 860,312 L 861,312 L 862,312 L 862,313 L 863,313 L 863,314 L 864,314 L 865,314 L 865,315 L 866,315 L 867,315 L 867,316 L 868,316 L 869,316 L 869,317 L 870,317 L 871,316 L 872,316 L 873,316 L 874,316 L 874,317 L 875,317 L 876,317 L 876,316 L 877,316 L 878,316 L 879,316 L 880,316 L 880,315 L 881,315 L 882,315 L 883,314 L 884,314 L 885,314 L 886,314 L 887,314 L 888,314 L 889,314 L 890,313 L 891,313 L 892,313 L 893,313 L 893,314 L 894,314 L 895,314 L 896,314 L 897,314 L 897,315 L 898,315 L 899,315 L 899,316 L 900,316 L 901,316 L 902,316 L 903,316 L 904,316 L 905,316 L 906,316 L 906,317 L 907,317 L 908,317 L 909,317 L 910,317 L 911,317 L 911,316 L 912,316 L 912,315 L 913,315 L 914,315 L 914,314 L 915,314 L 916,314 L 916,313 L 917,313 L 918,313 L 918,312 L 919,312 L 920,312 L 921,312 L 922,312 L 923,312 L 924,312 L 925,312 L 925,313 L 926,313 L 926,314 L 927,314 L 927,315 L 928,315 L 928,316 L 928,317 L 928,318 L 928,319 L 928,320 L 928,321 L 929,321 L 929,322 L 929,323 L 929,324 L 930,325 L 930,326 L 930,327 L 931,327 L 931,328 L 931,329 L 932,329 L 932,330 L 932,331 L 933,331 L 933,332 L 934,333 L 934,334 L 935,334 L 935,335 L 935,336 L 936,336 L 936,337 L 937,337 L 937,338 L 938,338 L 938,339 L 939,340 L 940,340 L 940,341 L 941,341 L 942,341 L 943,341 L 944,341 L 944,340 L 945,340 L 946,340 L 947,340 L 948,340 L 948,341 L 949,341 L 950,342 L 951,342 L 951,343 L 952,344 L 952,345 L 953,346 L 953,347 L 954,347 L 954,348 L 955,348 L 955,349 L 954,351 L 954,352 L 955,352 L 955,353 L 956,353 L 957,353 L 957,354 L 957,355 L 958,355 L 958,356 L 958,358 L 958,359 L 958,360 L 958,361 L 958,362 L 957,363 L 957,364 L 956,365 L 955,366 L 954,367 L 954,368 L 954,369 L 954,371 L 955,375 L 956,377 L 956,378 L 957,380 L 957,382 L 958,384 L 958,385 L 958,386 L 958,388 L 958,390 L 958,391 L 958,392 L 958,395 L 958,397 L 958,399 L 957,400 L 957,402 L 956,404 L 956,405 L 956,406 L 956,407 L 956,408 L 956,409 L 956,410 L 957,411 L 957,412 L 957,413 L 957,414 L 957,415 L 956,416 L 954,418 L 954,419 L 953,420 L 953,421 L 953,422 L 953,423 L 953,424 L 953,425 L 953,426 L 953,428 L 953,429 L 953,433 L 953,436 L 953,438 L 953,440 L 953,442 L 953,443 L 953,445 L 953,446 L 952,448 L 952,449 L 952,450 L 951,451 L 950,452 L 949,452 L 947,453 L 946,453 L 944,454 L 943,454 L 942,456 L 941,458 L 941,460 L 941,461 L 941,463 L 941,464 L 941,465 L 942,465 L 942,466 L 943,467 L 943,468 L 944,469 L 944,470 L 944,471 L 944,473 L 944,474 L 944,475 L 942,478 L 942,479 L 941,480 L 939,482 L 938,483 L 937,484 L 936,485 L 935,485 L 934,485 L 933,486 L 932,487 L 931,487 L 930,488 L 929,489 L 926,490 L 926,491 L 925,493 L 923,495 L 922,497 L 922,498 L 921,498 L 921,499 L 920,500 L 919,501 L 918,501 L 917,503 L 916,504 L 915,505 L 914,507 L 913,508 L 913,509 L 912,509 L 912,511 L 911,512 L 910,512 L 909,511 L 907,511 L 907,510 L 906,509 L 905,508 L 904,507 L 903,507 L 902,507 L 900,507 L 899,507 L 898,507 L 897,507 L 897,508 L 896,508 L 895,508 L 894,508 L 894,509 L 893,509 L 892,510 L 892,512 L 893,512 L 893,514 L 893,516 L 894,518 L 894,519 L 894,520 L 894,521 L 894,523 L 894,524 L 894,526 L 893,526 L 892,527 L 892,528 L 891,529 L 889,531 L 887,533 L 885,534 L 884,535 L 883,535 L 882,536 L 881,535 L 879,536 L 877,535 L 876,535 L 875,536 L 874,536 L 873,536 L 872,537 L 871,538 L 870,539 L 870,540 L 869,540 L 869,542 L 869,543 L 868,543 L 866,544 L 864,545 L 862,545 L 860,545 L 859,545 L 858,545 L 855,544 L 853,544 L 852,543 L 851,543 L 850,543 L 849,543 L 848,543 L 847,543 L 846,544 L 845,544 L 845,543 L 844,543 L 843,543 L 843,542 L 843,541 L 843,540 L 842,539 L 842,538 L 841,537 L 841,536 L 840,536 L 840,535 L 839,535 L 838,535 L 838,536 L 836,536 L 835,536 L 834,535 L 833,535 L 832,535 L 831,534 L 830,534 L 829,533 L 829,532 L 828,532 L 827,530 L 827,529 L 826,528 L 825,527 L 824,526 L 823,526 L 822,525 L 821,525 L 820,524 L 819,523 L 819,522 L 818,522 L 818,521 L 818,520 L 818,518 L 819,516 L 820,516 L 820,515 L 821,514 L 821,513 L 820,512 L 818,511 L 817,510 L 815,510 L 815,509 L 814,509 L 814,508 L 813,507 L 812,506 L 811,505 L 810,503 L 809,502 L 809,501 L 809,500 L 809,499 L 809,498 L 808,499 L 807,500 L 805,501 L 805,502 L 804,502 L 803,502 L 802,501 L 800,501 L 800,500 L 799,500 L 798,498 L 797,497 L 796,497 L 796,496 L 796,495 L 795,495 L 796,494 L 797,493 L 797,492 L 798,491 L 798,490 L 798,489 L 799,489 L 799,488 L 800,487 L 800,486 L 800,485 L 801,485 L 801,484 L 801,483 L 801,481 L 801,480 L 800,480 L 800,479 L 800,478 L 801,478 L 802,478 L 803,479 L 806,478 L 808,479 L 810,479 L 812,478 L 814,478 L 815,478 L 816,478 L 817,477 L 818,477 L 818,476 L 818,475 L 818,473 L 818,472 L 819,471 L 819,470 L 818,470 L 818,469 L 819,468 L 820,467 L 820,466 L 819,465 L 819,460 L 818,459 L 818,458 L 818,457 L 817,457 L 817,456 L 817,455 L 817,454 L 817,452 L 816,451 L 816,450 L 816,448 L 815,448 L 815,447 L 816,447 L 817,446 L 818,446 L 820,446 L 821,446 L 822,446 L 824,446 L 825,446 L 825,445 L 825,444 L 825,443 L 825,441 L 825,440 L 826,438 L 826,437 L 826,434 L 826,432 L 826,431 L 826,430 L 826,429 L 826,428 L 826,427 L 825,427 L 824,426 L 823,426 L 822,426 L 820,425 L 819,425 L 817,425 L 815,425 L 814,425 L 812,425 L 810,425 L 808,425 L 805,425 L 803,424 L 802,424 L 800,424 L 800,423 L 800,422 L 800,421 L 800,420 L 800,418 L 799,416 L 799,415 L 799,414 L 799,413 L 799,412 L 799,411 L 799,409 L 799,408 L 800,407 L 799,407 L 799,406 L 798,405 L 797,403 L 796,402 L 796,401 L 796,400 L 795,399 L 795,398 L 796,396 L 797,395 L 797,394 L 798,394 L 800,392 L 801,391 L 802,390 L 803,389 L 803,388 L 803,386 L 803,384 L 803,383 L 803,382 L 803,381 L 803,380 L 803,378 L 802,377 L 801,374 L 800,374 L 799,373 L 797,371 L 796,370 L 796,369 L 795,369 L 794,368 L 794,367 L 793,366 L 793,365 L 792,365 L 792,364 L 791,364 L 791,363 L 791,362 L 790,361 L 789,359 L 788,358 L 788,357 L 787,357 L 787,356 L 786,356 L 784,355 L 783,355 L 782,355 L 781,355 L 781,354 L 780,354 L 778,354 L 776,354 L 775,354 L 772,354 L 771,354 L 770,354 L 768,355 L 766,355 L 765,355 L 764,355 L 763,354 L 762,354 L 761,353 L 760,353 L 758,352 L 755,350 L 754,350 L 754,349 L 754,346 L 755,345 L 755,343 L 755,342 L 756,340 L 755,340 L 755,339 L 752,339 L 751,339 L 749,339 L 749,338 L 748,338 L 747,338 L 745,338 L 744,337 L 743,337 L 742,337 L 739,337 L 738,337 L 737,337 L 736,337 L 735,337 L 735,338 L 734,338 L 733,339 L 733,340 L 732,340 L 731,341 L 729,342 L 728,343 L 727,343 L 726,344 L 725,345 L 724,345 L 724,346 L 723,346 L 722,347 L 721,347 L 720,347 L 719,346 L 718,346 L 717,347 L 717,349 L 716,351 L 716,352 L 715,352 L 714,352 L 713,352 L 712,352 L 710,351 L 709,352 L 708,352 L 707,352 L 706,353 L 705,353 L 704,353 L 702,354 L 702,355 L 702,356 L 702,358 L 702,359 L 701,360 L 700,360 L 699,360 L 698,359 L 697,359 L 696,359 L 695,358 L 693,357 L 692,356 L 692,355 L 691,355 L 690,354 L 689,354 L 688,354 L 687,354 L 685,355 L 683,356 L 680,357 L 678,357 L 675,358 L 673,359 L 672,360 L 670,360 L 670,361 L 669,360 L 668,359 L 667,358 L 666,358 L 665,358 L 664,357 L 663,356 L 662,356 L 660,355 L 659,355 L 657,355 L 656,355 L 654,355 L 653,355 L 652,354 L 651,353 L 650,352 L 650,351 L 649,350 L 648,349 L 647,348 L 647,347 L 647,346 L 647,345 L 647,344 L 648,343 L 649,343 L 651,342 L 653,341 L 654,340 L 655,339 L 656,338 L 657,338 L 657,337 L 658,336 L 659,336 L 659,335 L 659,334 L 659,332 L 658,332 L 657,332 L 656,332 L 655,332 L 653,332 L 650,333 L 649,333 L 647,332 L 646,332 L 644,332 L 643,331 L 641,330 L 640,329 L 639,329 L 639,328 L 637,327 L 636,327 L 635,325 L 634,323 L 633,323 L 632,322 L 631,322 L 630,321 L 628,321 L 627,322 L 626,322 L 625,323 L 624,324 L 623,325 L 622,325 L 621,325 L 620,326 L 619,325 L 618,325 L 618,324 L 616,323 L 616,322 L 615,320 L 614,320 L 613,319 L 612,320 L 611,320 L 610,320 L 608,320 L 606,319 L 604,319 L 602,318 L 601,317 L 599,316 L 598,316 L 596,315 L 595,314 L 594,314 L 593,315 L 592,315 L 591,316 L 590,317 L 589,318 L 588,319 L 588,318 L 587,318 L 586,318 L 586,317 L 583,317 L 583,316 L 580,316 L 579,315 L 578,314 L 576,314 L 576,313 L 575,313 L 574,312 L 573,312 L 572,312 L 571,313 L 569,313 L 568,313 L 566,314 L 565,314 L 563,314 L 562,315 L 561,315 L 560,315 L 558,315 L 558,316 L 557,316 L 556,316 L 555,316 L 554,316 L 554,315 L 553,315 L 552,314 L 551,313 L 550,313 L 550,312 L 549,312 L 549,311 L 548,311 L 548,310 L 547,309 L 546,308 L 546,307 L 545,306 L 545,305 L 544,305 L 543,303 L 543,302 L 543,301 L 542,300 L 541,297 L 541,295 L 541,294 L 541,292 L 541,290 L 540,287 L 540,286 L 539,285 L 538,284 L 537,283 L 536,283 L 534,282 L 534,280 L 535,280 L 536,279 L 536,278 L 538,277 L 539,276 L 539,275 L 540,274 L 542,272 L 542,271 L 543,270 L 544,268 L 544,267 L 544,266 L 543,265 L 543,264 L 543,263 L 543,262 L 543,261 L 543,259 L 544,257 L 544,255 L 545,254 L 546,254 L 547,253 L 549,252 L 550,251 L 551,251 L 551,250 L 551,249 L 551,247 L 552,247 L 552,246 L 553,246 L 554,246 L 555,246 L 557,246 L 559,245 L 561,244 L 562,243 L 564,241 L 566,239 L 566,238 L 567,238 L 567,237 L 568,235 L 568,234 L 569,234 L 570,233 L 571,233 L 571,232 L 573,232 L 573,231 L 574,231 L 575,230 L 576,230 L 576,229 L 576,227 L 576,226 L 576,225 L 576,224 L 575,224 L 574,222 L 573,220 L 572,219 L 571,217 L 571,216 L 572,215 L 573,214 L 574,212 L 576,210 L 577,209 L 578,208 L 578,207 L 579,207 L 582,206 L 585,207 L 586,206 L 587,206 L 588,205 L 589,205 L 590,205 L 591,204 L 594,204 L 596,203 L 597,203 L 600,200 L 599,199 L 598,198 L 597,197 L 596,196 L 596,194 L 595,194 L 595,193 L 595,192 L 595,191 L 595,190 L 595,189 L 594,189 L 593,189 L 593,188 L 592,187 L 592,186 L 592,185 L 591,184 L 587,183 L 586,183 L 584,182 L 582,181 L 580,181 L 577,180 L 575,180 L 574,180 L 573,180 L 572,180 L 571,181 L 569,182 L 569,183 L 568,183 L 567,183 L 566,183 L 566,182 L 565,182 L 564,181 L 563,181 L 562,180 L 561,179 L 558,177 L 558,176 L 557,176 L 556,175 L 556,174 L 554,172 L 554,171 L 553,170 L 552,169 L 551,168 L 550,168 L 549,168 L 548,166 L 548,165 L 547,164 L 547,162 L 548,161 L 548,160 L 548,159 L 549,158 L 549,157 L 550,156 L 550,155 L 551,155 L 552,153 L 554,150 L 555,149 L 556,148 L 557,148 L 557,149 L 558,149 L 559,149 L 560,149 L 560,148 L 561,148 L 561,147 L 562,147 L 562,146 L 563,146 L 563,147 L 564,147 L 565,147 L 565,148 L 566,148 L 566,149 L 567,149 L 568,149 L 569,149 L 569,150 L 570,150 L 571,150 L 572,150 L 573,150 L 574,150 L 575,150 L 575,149 L 576,149 L 576,148 L 577,148 L 578,148 L 579,148 L 579,149 L 580,149 L 580,150 L 581,150 L 582,150 L 583,150 L 584,150 L 584,149 L 585,149 L 585,148 L 586,149 L 587,149 L 588,149 L 588,148 L 589,148 L 589,147 L 590,147 L 591,147 L 591,146 L 592,146 L 593,146 L 593,147 L 594,147 L 595,147 L 596,147 L 596,148 L 597,148 L 598,148 L 599,148 L 599,147 L 600,147 L 601,147 L 602,147 L 602,146 L 603,146 L 604,146 " />
</g>
<g id="achaia_4" >
<path d="M 580,316 L 583,316 L 583,317 L 586,317 L 586,318 L 587,318 L 588,318 L 588,319 L 589,318 L 590,317 L 591,316 L 592,315 L 593,315 L 594,314 L 595,314 L 596,315 L 598,316 L 599,316 L 601,317 L 602,318 L 604,319 L 606,319 L 608,320 L 610,320 L 611,320 L 612,320 L 613,319 L 614,320 L 615,320 L 616,322 L 616,323 L 618,324 L 618,325 L 619,325 L 620,326 L 621,325 L 622,325 L 623,325 L 624,324 L 625,323 L 626,322 L 627,322 L 628,321 L 630,321 L 631,322 L 632,322 L 633,323 L 634,323 L 635,325 L 636,327 L 637,327 L 639,328 L 639,329 L 640,329 L 641,330 L 643,331 L 644,332 L 646,332 L 647,332 L 649,333 L 650,333 L 653,332 L 655,332 L 656,332 L 657,332 L 658,332 L 659,332 L 659,334 L 659,335 L 659,336 L 658,336 L 657,337 L 657,338 L 656,338 L 655,339 L 654,340 L 653,341 L 651,342 L 649,343 L 648,343 L 647,344 L 647,345 L 647,346 L 647,347 L 647,348 L 648,349 L 649,350 L 650,351 L 650,352 L 651,353 L 652,354 L 653,355 L 654,356 L 656,357 L 656,358 L 657,359 L 657,360 L 657,361 L 656,362 L 655,361 L 654,361 L 651,361 L 650,361 L 649,361 L 648,362 L 647,363 L 646,363 L 645,363 L 644,363 L 643,364 L 642,364 L 641,364 L 640,364 L 639,364 L 638,364 L 637,363 L 636,363 L 635,363 L 634,362 L 633,361 L 631,360 L 630,360 L 629,360 L 626,360 L 625,360 L 625,359 L 623,359 L 622,358 L 621,358 L 619,358 L 618,357 L 617,357 L 614,357 L 611,356 L 610,356 L 609,355 L 607,355 L 606,355 L 605,354 L 604,354 L 603,354 L 603,356 L 602,358 L 602,359 L 602,360 L 603,361 L 603,364 L 604,364 L 603,364 L 603,365 L 602,367 L 602,368 L 602,369 L 603,371 L 603,373 L 603,375 L 602,376 L 601,376 L 601,377 L 600,378 L 599,379 L 599,380 L 599,382 L 599,383 L 599,384 L 600,387 L 600,388 L 600,389 L 600,390 L 600,391 L 600,393 L 599,394 L 598,394 L 597,395 L 596,395 L 595,395 L 594,395 L 594,396 L 593,396 L 592,396 L 591,396 L 590,396 L 589,396 L 588,396 L 587,396 L 586,396 L 586,397 L 585,397 L 584,397 L 583,397 L 583,396 L 582,395 L 581,395 L 579,395 L 577,396 L 576,396 L 575,396 L 575,397 L 574,399 L 573,400 L 573,402 L 572,403 L 572,404 L 572,405 L 572,406 L 571,408 L 571,409 L 570,410 L 569,410 L 568,411 L 567,411 L 566,412 L 565,412 L 563,412 L 562,412 L 561,412 L 560,412 L 559,412 L 557,411 L 556,410 L 555,410 L 554,410 L 553,409 L 553,410 L 552,411 L 552,412 L 551,413 L 551,415 L 550,416 L 550,419 L 550,420 L 549,421 L 548,423 L 548,424 L 547,424 L 547,425 L 546,427 L 545,429 L 544,429 L 544,430 L 544,431 L 544,432 L 544,434 L 544,435 L 545,437 L 545,438 L 545,439 L 546,439 L 546,440 L 547,440 L 547,441 L 549,441 L 550,441 L 552,442 L 553,442 L 554,443 L 557,443 L 558,444 L 560,444 L 561,444 L 562,445 L 563,445 L 564,446 L 565,446 L 566,446 L 567,445 L 568,444 L 569,442 L 569,441 L 570,441 L 570,440 L 571,440 L 571,441 L 572,441 L 573,441 L 573,443 L 573,444 L 573,445 L 573,446 L 572,447 L 572,448 L 571,449 L 570,453 L 570,454 L 569,455 L 569,456 L 567,458 L 567,459 L 566,460 L 566,461 L 566,462 L 566,463 L 565,464 L 565,465 L 564,466 L 563,468 L 562,469 L 561,470 L 560,471 L 560,472 L 559,472 L 559,473 L 558,473 L 558,474 L 557,475 L 557,476 L 556,476 L 555,477 L 554,478 L 554,479 L 553,479 L 552,480 L 551,480 L 549,481 L 548,482 L 547,482 L 547,483 L 546,483 L 544,484 L 543,485 L 542,485 L 541,486 L 540,487 L 539,488 L 538,488 L 537,489 L 537,490 L 536,490 L 536,491 L 534,492 L 533,493 L 532,494 L 531,494 L 530,495 L 528,496 L 528,497 L 527,498 L 526,499 L 525,499 L 523,500 L 523,501 L 522,501 L 521,502 L 520,503 L 519,504 L 518,505 L 518,506 L 518,507 L 517,507 L 517,508 L 516,510 L 515,511 L 515,512 L 515,513 L 515,514 L 514,515 L 514,517 L 514,518 L 513,519 L 513,521 L 512,522 L 512,523 L 511,523 L 509,524 L 507,524 L 505,525 L 505,526 L 504,526 L 503,526 L 502,527 L 502,528 L 501,528 L 500,529 L 499,530 L 497,530 L 496,530 L 494,530 L 493,531 L 491,532 L 490,532 L 487,533 L 486,533 L 485,533 L 484,534 L 483,534 L 482,534 L 481,534 L 480,535 L 479,536 L 478,536 L 478,537 L 477,537 L 476,537 L 475,537 L 475,538 L 475,539 L 475,540 L 475,541 L 475,542 L 475,543 L 475,546 L 475,547 L 474,547 L 474,548 L 474,549 L 474,550 L 473,551 L 473,552 L 472,552 L 471,552 L 470,553 L 470,554 L 469,554 L 468,554 L 467,555 L 466,555 L 465,556 L 464,556 L 464,557 L 463,558 L 463,559 L 462,559 L 461,559 L 460,560 L 459,561 L 458,562 L 458,563 L 457,563 L 456,564 L 455,564 L 454,564 L 453,565 L 452,565 L 450,565 L 449,565 L 448,566 L 447,566 L 445,567 L 444,567 L 443,567 L 442,567 L 442,568 L 441,569 L 441,570 L 440,571 L 440,572 L 439,573 L 438,574 L 437,575 L 436,577 L 435,578 L 435,579 L 435,580 L 434,581 L 433,582 L 433,583 L 432,583 L 431,584 L 430,584 L 429,585 L 429,587 L 428,589 L 428,590 L 427,590 L 426,591 L 425,591 L 424,590 L 424,591 L 423,591 L 422,592 L 421,592 L 420,593 L 419,595 L 418,595 L 418,596 L 417,597 L 416,597 L 415,598 L 414,599 L 414,600 L 413,601 L 413,602 L 412,604 L 411,606 L 410,607 L 410,608 L 409,608 L 408,609 L 408,610 L 407,610 L 407,611 L 406,611 L 405,612 L 404,612 L 403,612 L 402,612 L 401,613 L 401,614 L 400,614 L 399,615 L 398,616 L 397,617 L 397,618 L 396,618 L 395,619 L 394,620 L 393,620 L 392,621 L 391,621 L 389,622 L 388,623 L 386,624 L 386,625 L 385,626 L 386,627 L 386,628 L 385,629 L 386,631 L 385,632 L 385,633 L 383,634 L 382,636 L 382,637 L 382,638 L 382,639 L 382,640 L 382,641 L 382,642 L 383,643 L 383,645 L 383,646 L 383,647 L 382,648 L 381,649 L 380,650 L 380,651 L 379,653 L 379,655 L 379,656 L 378,657 L 376,657 L 375,657 L 374,657 L 372,656 L 371,656 L 370,656 L 369,655 L 368,655 L 368,654 L 367,654 L 367,653 L 366,653 L 367,652 L 367,651 L 366,650 L 365,650 L 364,649 L 363,649 L 363,648 L 363,647 L 363,646 L 362,646 L 361,645 L 360,644 L 360,643 L 359,643 L 359,642 L 358,642 L 358,641 L 357,640 L 357,639 L 357,638 L 356,637 L 357,637 L 356,637 L 356,636 L 357,635 L 356,635 L 356,634 L 355,634 L 355,633 L 356,633 L 356,632 L 355,631 L 354,631 L 354,630 L 355,630 L 355,628 L 354,628 L 354,627 L 353,626 L 354,625 L 354,624 L 353,624 L 353,625 L 352,625 L 351,625 L 351,624 L 351,623 L 351,622 L 351,621 L 350,621 L 350,620 L 350,619 L 349,619 L 349,618 L 348,617 L 348,616 L 348,615 L 348,614 L 348,613 L 347,612 L 347,611 L 347,610 L 347,609 L 347,608 L 348,607 L 347,607 L 347,606 L 346,606 L 345,605 L 344,605 L 343,605 L 343,604 L 343,603 L 343,602 L 343,601 L 343,600 L 342,600 L 341,600 L 341,601 L 340,601 L 340,600 L 341,599 L 340,598 L 341,598 L 341,597 L 340,597 L 339,596 L 338,596 L 337,596 L 336,596 L 336,595 L 335,594 L 335,595 L 334,596 L 333,597 L 332,597 L 332,598 L 332,599 L 331,598 L 330,597 L 329,597 L 329,596 L 328,596 L 327,596 L 326,596 L 325,596 L 324,595 L 324,594 L 323,594 L 322,594 L 322,593 L 322,592 L 321,591 L 320,591 L 320,592 L 320,593 L 319,593 L 318,593 L 314,591 L 314,590 L 313,590 L 313,589 L 314,589 L 314,588 L 314,587 L 313,587 L 312,588 L 312,589 L 311,589 L 310,589 L 309,589 L 309,588 L 308,587 L 307,587 L 306,586 L 305,586 L 304,585 L 303,585 L 303,586 L 302,586 L 301,586 L 300,586 L 300,585 L 301,585 L 302,585 L 303,584 L 304,584 L 305,582 L 305,581 L 303,581 L 303,580 L 302,580 L 302,579 L 301,579 L 300,580 L 299,580 L 298,580 L 297,579 L 296,579 L 295,579 L 294,580 L 293,579 L 292,579 L 291,579 L 291,578 L 291,577 L 291,576 L 290,575 L 289,575 L 289,574 L 290,573 L 290,572 L 289,572 L 289,571 L 289,570 L 289,569 L 290,570 L 291,569 L 291,568 L 292,567 L 293,567 L 294,567 L 295,566 L 295,565 L 294,565 L 294,564 L 294,563 L 295,563 L 296,563 L 297,563 L 297,562 L 298,562 L 298,561 L 298,560 L 299,560 L 300,560 L 301,560 L 301,559 L 302,558 L 302,557 L 303,556 L 304,555 L 304,554 L 305,553 L 306,552 L 306,551 L 307,550 L 307,549 L 308,549 L 308,548 L 308,547 L 309,546 L 310,543 L 311,542 L 311,541 L 311,536 L 311,533 L 311,532 L 311,531 L 312,530 L 312,529 L 311,529 L 311,528 L 312,528 L 313,527 L 316,526 L 317,525 L 318,525 L 319,524 L 320,523 L 321,522 L 321,521 L 321,520 L 321,519 L 321,514 L 321,512 L 322,510 L 323,509 L 324,508 L 325,508 L 326,508 L 326,507 L 328,506 L 329,506 L 329,505 L 330,505 L 330,504 L 331,504 L 331,503 L 331,502 L 331,499 L 331,498 L 331,497 L 331,496 L 331,495 L 331,494 L 331,492 L 331,488 L 332,487 L 332,486 L 332,485 L 332,483 L 332,482 L 332,480 L 332,479 L 333,478 L 333,477 L 333,476 L 334,476 L 335,476 L 336,476 L 338,475 L 339,475 L 340,475 L 340,474 L 341,474 L 342,473 L 343,472 L 344,472 L 345,472 L 346,471 L 349,471 L 350,471 L 352,470 L 353,470 L 354,470 L 354,469 L 354,467 L 354,466 L 354,465 L 355,463 L 356,461 L 356,460 L 357,459 L 358,458 L 359,456 L 359,455 L 361,453 L 362,451 L 363,449 L 364,448 L 366,446 L 367,445 L 368,445 L 369,444 L 371,444 L 374,443 L 376,443 L 377,443 L 378,443 L 379,443 L 381,443 L 383,443 L 384,443 L 387,443 L 387,444 L 389,444 L 389,443 L 390,441 L 390,440 L 391,439 L 392,439 L 393,440 L 394,440 L 396,441 L 398,441 L 399,441 L 400,441 L 401,441 L 405,438 L 405,437 L 406,437 L 406,435 L 406,434 L 406,432 L 406,431 L 406,430 L 406,429 L 406,428 L 406,427 L 405,426 L 405,425 L 405,424 L 405,423 L 404,423 L 403,423 L 403,422 L 402,422 L 401,422 L 401,421 L 402,420 L 402,419 L 401,419 L 400,420 L 399,420 L 398,420 L 397,418 L 396,417 L 397,416 L 397,415 L 396,414 L 395,414 L 394,413 L 394,412 L 394,411 L 393,411 L 392,410 L 391,410 L 390,409 L 390,408 L 389,407 L 389,406 L 388,407 L 388,406 L 388,405 L 389,405 L 389,404 L 387,403 L 386,402 L 386,401 L 385,401 L 385,400 L 385,399 L 385,398 L 384,398 L 384,397 L 385,397 L 385,396 L 384,396 L 384,395 L 383,395 L 382,394 L 381,394 L 381,393 L 381,392 L 381,391 L 382,391 L 381,391 L 380,391 L 380,390 L 380,389 L 379,388 L 378,387 L 377,387 L 377,386 L 377,385 L 377,384 L 377,382 L 377,381 L 376,381 L 375,380 L 375,379 L 373,379 L 373,378 L 372,377 L 373,376 L 374,375 L 374,374 L 375,373 L 374,372 L 374,371 L 374,370 L 373,369 L 373,368 L 374,367 L 374,366 L 376,365 L 377,364 L 378,363 L 379,362 L 379,361 L 379,360 L 381,360 L 382,360 L 383,360 L 383,359 L 383,356 L 384,356 L 384,355 L 384,354 L 385,354 L 386,354 L 387,354 L 388,353 L 390,351 L 392,349 L 393,348 L 394,346 L 394,345 L 393,345 L 392,344 L 392,343 L 392,342 L 393,341 L 393,340 L 393,339 L 393,338 L 393,336 L 394,335 L 394,334 L 394,333 L 393,332 L 393,331 L 393,330 L 394,329 L 393,328 L 393,327 L 394,326 L 394,327 L 395,328 L 396,329 L 397,330 L 398,330 L 400,331 L 402,332 L 403,332 L 404,333 L 405,333 L 405,334 L 406,335 L 407,336 L 409,336 L 410,338 L 410,339 L 411,339 L 413,342 L 414,343 L 415,343 L 416,343 L 417,343 L 418,343 L 420,343 L 422,342 L 423,342 L 424,341 L 425,340 L 426,340 L 425,340 L 425,339 L 424,339 L 424,338 L 423,337 L 423,336 L 422,334 L 422,333 L 423,331 L 423,330 L 424,330 L 425,330 L 428,330 L 429,330 L 430,330 L 431,330 L 431,331 L 431,332 L 432,332 L 434,332 L 435,332 L 436,331 L 437,331 L 438,330 L 439,330 L 440,329 L 441,329 L 442,329 L 445,329 L 446,329 L 447,329 L 448,329 L 449,329 L 450,328 L 452,329 L 453,329 L 455,329 L 457,329 L 459,329 L 462,329 L 463,329 L 464,333 L 464,334 L 465,335 L 465,338 L 466,339 L 466,340 L 466,341 L 467,342 L 467,343 L 468,343 L 468,344 L 469,344 L 472,345 L 473,347 L 474,349 L 475,350 L 477,351 L 478,351 L 479,351 L 480,350 L 481,349 L 482,348 L 483,348 L 484,348 L 485,348 L 486,348 L 487,348 L 488,348 L 489,348 L 489,347 L 490,347 L 490,348 L 491,348 L 494,349 L 494,350 L 495,350 L 496,352 L 497,352 L 497,353 L 498,354 L 499,355 L 500,356 L 502,358 L 503,359 L 504,359 L 505,360 L 506,361 L 508,362 L 509,362 L 510,362 L 511,362 L 512,362 L 513,362 L 514,362 L 516,361 L 517,362 L 518,362 L 519,363 L 520,364 L 522,365 L 523,366 L 524,367 L 525,367 L 526,368 L 527,368 L 528,368 L 529,368 L 532,368 L 534,368 L 535,368 L 536,368 L 539,368 L 540,368 L 541,368 L 541,367 L 541,366 L 541,365 L 542,364 L 542,363 L 542,362 L 542,361 L 542,360 L 541,361 L 540,361 L 539,361 L 538,361 L 537,361 L 537,362 L 536,363 L 535,363 L 534,362 L 534,361 L 534,360 L 534,358 L 534,356 L 533,355 L 534,354 L 534,353 L 534,351 L 534,349 L 534,348 L 535,347 L 536,346 L 537,346 L 538,345 L 539,344 L 541,343 L 542,343 L 543,342 L 545,341 L 546,340 L 547,338 L 548,337 L 549,336 L 550,335 L 551,335 L 552,335 L 552,334 L 553,334 L 554,334 L 555,332 L 554,331 L 555,328 L 555,327 L 555,326 L 555,324 L 555,322 L 555,321 L 554,320 L 555,318 L 554,318 L 554,317 L 554,316 L 555,316 L 556,316 L 557,316 L 558,316 L 558,315 L 560,315 L 561,315 L 562,315 L 563,314 L 565,314 L 566,314 L 568,313 L 569,313 L 571,313 L 572,312 L 573,312 L 574,312 L 575,313 L 576,313 L 576,314 L 578,314 L 579,315 L 580,316 " />
</g>
<g id="achaia_5" >
<path d="M 737,337 L 738,337 L 739,337 L 742,337 L 743,337 L 744,337 L 745,338 L 747,338 L 748,338 L 749,338 L 749,339 L 751,339 L 752,339 L 755,339 L 755,340 L 756,340 L 755,342 L 755,343 L 755,345 L 754,346 L 754,349 L 754,350 L 755,350 L 758,352 L 760,353 L 761,353 L 762,354 L 763,354 L 764,355 L 765,355 L 766,355 L 768,355 L 770,354 L 771,354 L 772,354 L 775,354 L 776,354 L 778,354 L 780,354 L 781,354 L 781,355 L 782,355 L 783,355 L 784,355 L 786,356 L 787,356 L 787,357 L 788,357 L 788,358 L 789,359 L 790,361 L 791,362 L 791,363 L 791,364 L 792,364 L 792,365 L 793,365 L 793,366 L 794,367 L 794,368 L 795,369 L 796,369 L 796,370 L 797,371 L 799,373 L 800,374 L 801,374 L 802,377 L 803,378 L 803,380 L 803,381 L 803,382 L 803,383 L 803,384 L 803,386 L 803,388 L 803,389 L 802,390 L 801,391 L 800,392 L 798,394 L 797,394 L 797,395 L 796,396 L 795,398 L 795,399 L 796,400 L 796,401 L 796,402 L 797,403 L 798,405 L 799,406 L 799,407 L 800,407 L 799,408 L 799,409 L 799,411 L 799,412 L 799,413 L 799,414 L 799,415 L 799,416 L 800,418 L 800,420 L 800,421 L 800,422 L 800,423 L 800,424 L 802,424 L 803,424 L 805,425 L 808,425 L 810,425 L 812,425 L 814,425 L 815,425 L 817,425 L 819,425 L 820,425 L 822,426 L 823,426 L 824,426 L 825,427 L 826,427 L 826,428 L 826,429 L 826,430 L 826,431 L 826,432 L 826,434 L 826,437 L 826,438 L 825,440 L 825,441 L 825,443 L 825,444 L 825,445 L 825,446 L 824,446 L 822,446 L 821,446 L 820,446 L 818,446 L 817,446 L 816,447 L 815,447 L 815,448 L 816,448 L 816,450 L 816,451 L 817,452 L 817,454 L 817,455 L 817,456 L 817,457 L 818,457 L 818,458 L 818,459 L 819,460 L 819,465 L 820,466 L 820,467 L 819,468 L 818,469 L 818,470 L 819,470 L 819,471 L 818,472 L 818,473 L 818,475 L 818,476 L 818,477 L 817,477 L 816,478 L 815,478 L 814,478 L 812,478 L 810,479 L 808,479 L 806,478 L 803,479 L 802,478 L 801,478 L 800,478 L 800,479 L 800,480 L 801,480 L 801,481 L 801,483 L 801,484 L 801,485 L 800,485 L 800,486 L 800,487 L 799,488 L 799,489 L 798,489 L 798,490 L 798,491 L 797,492 L 797,493 L 796,494 L 795,495 L 796,495 L 796,496 L 796,497 L 797,497 L 798,498 L 799,500 L 800,500 L 800,501 L 802,501 L 803,502 L 804,502 L 805,502 L 805,501 L 807,500 L 808,499 L 809,498 L 809,499 L 809,500 L 809,501 L 809,502 L 810,503 L 811,505 L 812,506 L 813,507 L 814,508 L 814,509 L 815,509 L 815,510 L 817,510 L 818,511 L 820,512 L 821,513 L 821,514 L 820,515 L 820,516 L 819,516 L 818,518 L 818,520 L 818,521 L 818,522 L 819,522 L 819,523 L 820,524 L 821,525 L 822,525 L 823,526 L 824,526 L 825,527 L 826,528 L 827,529 L 827,530 L 828,532 L 829,532 L 829,533 L 830,534 L 831,534 L 832,535 L 833,535 L 834,535 L 835,536 L 836,536 L 838,536 L 838,535 L 839,535 L 840,535 L 840,536 L 841,536 L 841,537 L 842,538 L 842,539 L 843,540 L 843,541 L 843,542 L 843,543 L 843,544 L 843,546 L 843,547 L 842,549 L 841,550 L 841,551 L 841,552 L 841,553 L 842,555 L 843,557 L 844,559 L 844,560 L 844,562 L 844,563 L 844,564 L 844,566 L 844,567 L 844,568 L 845,570 L 845,572 L 845,573 L 846,575 L 846,578 L 846,579 L 846,580 L 846,582 L 846,585 L 846,586 L 845,589 L 845,591 L 845,592 L 844,593 L 844,594 L 843,595 L 843,596 L 842,597 L 842,596 L 841,596 L 841,597 L 840,597 L 839,598 L 838,598 L 838,599 L 837,599 L 835,600 L 834,600 L 834,601 L 833,601 L 833,602 L 832,605 L 831,606 L 831,607 L 830,608 L 829,609 L 828,610 L 825,612 L 825,613 L 823,613 L 822,614 L 824,614 L 825,615 L 826,615 L 827,615 L 828,616 L 829,616 L 830,617 L 830,618 L 829,621 L 829,622 L 829,623 L 829,624 L 830,625 L 831,626 L 832,625 L 832,626 L 833,626 L 834,627 L 835,627 L 836,627 L 836,628 L 837,628 L 838,628 L 838,629 L 839,630 L 840,632 L 841,633 L 841,634 L 842,635 L 843,635 L 843,636 L 844,636 L 845,636 L 845,637 L 845,638 L 846,639 L 846,642 L 847,642 L 847,643 L 849,645 L 849,648 L 850,650 L 851,651 L 851,652 L 852,653 L 853,654 L 853,655 L 854,656 L 855,656 L 856,657 L 857,658 L 858,658 L 858,659 L 859,660 L 859,661 L 859,663 L 859,664 L 857,665 L 856,665 L 855,665 L 854,664 L 853,664 L 852,664 L 851,664 L 850,664 L 849,664 L 848,664 L 847,664 L 847,665 L 845,665 L 841,664 L 839,664 L 837,664 L 836,664 L 835,664 L 834,665 L 834,666 L 833,666 L 833,668 L 832,669 L 832,670 L 831,671 L 830,672 L 829,672 L 827,672 L 825,672 L 824,671 L 823,671 L 821,670 L 820,670 L 820,672 L 820,673 L 819,673 L 816,672 L 815,672 L 815,673 L 814,673 L 814,674 L 813,674 L 812,674 L 811,675 L 810,675 L 808,675 L 806,675 L 805,676 L 804,676 L 803,677 L 803,678 L 802,681 L 801,682 L 800,683 L 799,683 L 799,684 L 798,685 L 797,685 L 797,686 L 797,689 L 797,692 L 796,693 L 795,693 L 793,694 L 792,695 L 791,696 L 790,697 L 789,697 L 788,699 L 787,702 L 787,703 L 786,704 L 786,706 L 785,707 L 784,708 L 784,709 L 783,709 L 782,708 L 780,708 L 779,707 L 778,706 L 776,705 L 774,704 L 771,702 L 770,702 L 769,701 L 767,700 L 766,699 L 764,698 L 763,700 L 762,700 L 760,701 L 760,702 L 759,702 L 757,702 L 756,702 L 755,701 L 755,699 L 755,698 L 754,697 L 753,695 L 753,694 L 752,693 L 751,693 L 750,692 L 749,691 L 748,691 L 747,690 L 746,690 L 745,689 L 745,688 L 744,688 L 744,687 L 744,686 L 745,686 L 745,685 L 746,684 L 747,684 L 747,683 L 748,682 L 748,681 L 748,680 L 747,680 L 746,680 L 745,679 L 744,679 L 743,678 L 742,678 L 741,678 L 740,678 L 739,678 L 738,678 L 737,678 L 736,678 L 735,678 L 734,678 L 733,678 L 733,679 L 732,680 L 731,680 L 730,680 L 729,680 L 729,679 L 728,679 L 727,679 L 726,679 L 725,679 L 724,680 L 723,680 L 723,681 L 722,682 L 721,683 L 721,684 L 721,686 L 720,686 L 720,687 L 719,687 L 718,687 L 717,687 L 716,687 L 715,688 L 714,688 L 713,689 L 712,690 L 712,691 L 710,692 L 709,692 L 708,693 L 707,693 L 706,694 L 705,694 L 703,694 L 703,693 L 702,693 L 702,694 L 702,695 L 702,696 L 701,697 L 701,698 L 701,699 L 700,700 L 699,701 L 699,702 L 698,703 L 697,704 L 696,706 L 695,707 L 694,708 L 693,708 L 693,709 L 692,709 L 692,710 L 690,710 L 689,711 L 688,712 L 688,714 L 687,714 L 687,715 L 686,715 L 686,716 L 685,717 L 685,718 L 686,719 L 686,720 L 686,721 L 685,722 L 684,722 L 683,722 L 682,722 L 681,722 L 680,721 L 679,720 L 679,719 L 678,718 L 677,718 L 677,717 L 676,716 L 675,715 L 674,715 L 673,714 L 672,714 L 672,713 L 669,713 L 668,713 L 666,713 L 664,713 L 663,714 L 661,714 L 660,714 L 659,714 L 656,713 L 655,713 L 654,712 L 653,712 L 651,711 L 650,711 L 650,710 L 648,709 L 647,709 L 646,707 L 646,706 L 645,705 L 644,704 L 644,703 L 643,703 L 643,702 L 642,702 L 641,702 L 640,702 L 639,702 L 638,701 L 636,701 L 635,701 L 634,701 L 633,701 L 632,701 L 631,701 L 630,702 L 629,702 L 628,702 L 628,703 L 627,704 L 626,704 L 626,705 L 625,705 L 624,704 L 623,704 L 623,703 L 624,703 L 625,702 L 625,701 L 624,700 L 623,699 L 622,699 L 621,698 L 620,698 L 620,697 L 619,697 L 619,696 L 618,695 L 617,694 L 617,693 L 616,692 L 616,691 L 615,690 L 615,689 L 614,688 L 614,687 L 613,687 L 612,687 L 611,686 L 609,686 L 607,686 L 605,685 L 604,684 L 603,684 L 602,683 L 602,682 L 601,681 L 600,681 L 599,680 L 598,680 L 598,679 L 597,678 L 596,677 L 595,676 L 594,676 L 593,677 L 592,678 L 591,679 L 590,680 L 589,681 L 588,682 L 587,683 L 586,685 L 585,684 L 584,684 L 584,683 L 583,682 L 582,682 L 581,681 L 580,681 L 579,680 L 579,679 L 578,679 L 578,678 L 579,676 L 579,675 L 579,674 L 579,673 L 578,673 L 576,673 L 575,673 L 575,672 L 574,671 L 574,670 L 573,670 L 572,670 L 571,670 L 570,669 L 569,669 L 568,668 L 567,668 L 567,667 L 566,667 L 565,666 L 565,665 L 564,665 L 562,665 L 561,666 L 560,666 L 559,666 L 558,665 L 557,664 L 556,662 L 555,662 L 555,661 L 554,661 L 554,660 L 553,660 L 553,658 L 552,658 L 552,656 L 551,655 L 550,655 L 549,655 L 549,654 L 549,653 L 549,652 L 549,651 L 550,650 L 551,649 L 551,648 L 552,647 L 553,645 L 553,644 L 553,643 L 553,641 L 553,639 L 553,638 L 552,638 L 551,637 L 550,635 L 549,634 L 549,633 L 548,632 L 548,631 L 549,630 L 548,629 L 548,628 L 548,627 L 548,626 L 548,625 L 547,623 L 546,621 L 546,620 L 546,619 L 545,618 L 544,618 L 543,617 L 543,616 L 543,615 L 542,614 L 541,613 L 540,611 L 539,611 L 538,609 L 537,608 L 537,607 L 536,607 L 535,605 L 534,603 L 533,603 L 532,602 L 531,601 L 530,601 L 529,599 L 527,594 L 526,594 L 526,593 L 525,591 L 524,589 L 524,588 L 523,588 L 522,587 L 519,585 L 518,585 L 517,584 L 514,584 L 512,583 L 511,583 L 510,583 L 509,582 L 509,581 L 508,581 L 508,580 L 507,580 L 506,580 L 505,580 L 504,580 L 502,580 L 501,579 L 500,578 L 499,577 L 499,576 L 498,575 L 497,574 L 497,573 L 498,571 L 498,570 L 498,569 L 498,567 L 499,566 L 500,564 L 500,562 L 501,561 L 501,559 L 501,558 L 500,557 L 498,556 L 497,556 L 497,555 L 494,552 L 494,551 L 494,550 L 493,549 L 492,549 L 492,548 L 491,547 L 491,546 L 489,544 L 489,543 L 488,543 L 488,542 L 487,541 L 487,540 L 486,539 L 486,538 L 486,537 L 486,536 L 486,535 L 486,534 L 485,533 L 486,533 L 487,533 L 490,532 L 491,532 L 493,531 L 494,530 L 496,530 L 497,530 L 499,530 L 500,529 L 501,528 L 502,528 L 502,527 L 503,526 L 504,526 L 505,526 L 505,525 L 507,524 L 509,524 L 511,523 L 512,523 L 512,522 L 513,521 L 513,519 L 514,518 L 514,517 L 514,515 L 515,514 L 515,513 L 515,512 L 515,511 L 516,510 L 517,508 L 517,507 L 518,507 L 518,506 L 518,505 L 519,504 L 520,503 L 521,502 L 522,501 L 523,501 L 523,500 L 525,499 L 526,499 L 527,498 L 528,497 L 528,496 L 530,495 L 531,494 L 532,494 L 533,493 L 534,492 L 536,491 L 536,490 L 537,490 L 537,489 L 538,488 L 539,488 L 540,487 L 541,486 L 542,485 L 543,485 L 544,484 L 546,483 L 547,483 L 547,482 L 548,482 L 549,481 L 551,480 L 552,480 L 553,479 L 554,479 L 554,478 L 555,477 L 556,476 L 557,476 L 557,475 L 558,474 L 558,473 L 559,473 L 559,472 L 560,472 L 560,471 L 561,470 L 562,469 L 563,468 L 564,466 L 565,465 L 565,464 L 566,463 L 566,462 L 566,461 L 566,460 L 567,459 L 567,458 L 569,456 L 569,455 L 570,454 L 570,453 L 571,449 L 572,448 L 572,447 L 573,446 L 573,445 L 573,444 L 573,443 L 573,441 L 572,441 L 571,441 L 571,440 L 570,440 L 570,441 L 569,441 L 569,442 L 568,444 L 567,445 L 566,446 L 565,446 L 564,446 L 563,445 L 562,445 L 561,444 L 560,444 L 558,444 L 557,443 L 554,443 L 553,442 L 552,442 L 550,441 L 549,441 L 547,441 L 547,440 L 546,440 L 546,439 L 545,439 L 545,438 L 545,437 L 544,435 L 544,434 L 544,432 L 544,431 L 544,430 L 544,429 L 545,429 L 546,427 L 547,425 L 547,424 L 548,424 L 548,423 L 549,421 L 550,420 L 550,419 L 550,416 L 551,415 L 551,413 L 552,412 L 552,411 L 553,410 L 553,409 L 554,410 L 555,410 L 556,410 L 557,411 L 559,412 L 560,412 L 561,412 L 562,412 L 563,412 L 565,412 L 566,412 L 567,411 L 568,411 L 569,410 L 570,410 L 571,409 L 571,408 L 572,406 L 572,405 L 572,404 L 572,403 L 573,402 L 573,400 L 574,399 L 575,397 L 575,396 L 576,396 L 577,396 L 579,395 L 581,395 L 582,395 L 583,396 L 583,397 L 584,397 L 585,397 L 586,397 L 586,396 L 587,396 L 588,396 L 589,396 L 590,396 L 591,396 L 592,396 L 593,396 L 594,396 L 594,395 L 595,395 L 596,395 L 597,395 L 598,394 L 599,394 L 600,393 L 600,391 L 600,390 L 600,389 L 600,388 L 600,387 L 599,384 L 599,383 L 599,382 L 599,380 L 599,379 L 600,378 L 601,377 L 601,376 L 602,376 L 603,375 L 603,373 L 603,371 L 602,369 L 602,368 L 602,367 L 603,365 L 603,364 L 604,364 L 603,364 L 603,361 L 602,360 L 602,359 L 602,358 L 603,356 L 603,354 L 604,354 L 605,354 L 606,355 L 607,355 L 609,355 L 610,356 L 611,356 L 614,357 L 617,357 L 618,357 L 619,358 L 621,358 L 622,358 L 623,359 L 625,359 L 625,360 L 626,360 L 629,360 L 630,360 L 631,360 L 633,361 L 634,362 L 635,363 L 636,363 L 637,363 L 638,364 L 639,364 L 640,364 L 641,364 L 642,364 L 643,364 L 644,363 L 645,363 L 646,363 L 647,363 L 648,362 L 649,361 L 650,361 L 651,361 L 654,361 L 655,361 L 656,362 L 657,361 L 657,360 L 657,359 L 656,358 L 656,357 L 654,356 L 653,355 L 654,355 L 656,355 L 657,355 L 659,355 L 660,355 L 662,356 L 663,356 L 664,357 L 665,358 L 666,358 L 667,358 L 668,359 L 669,360 L 670,361 L 670,360 L 672,360 L 673,359 L 675,358 L 678,357 L 680,357 L 683,356 L 685,355 L 687,354 L 688,354 L 689,354 L 690,354 L 691,355 L 692,355 L 692,356 L 693,357 L 695,358 L 696,359 L 697,359 L 698,359 L 699,360 L 700,360 L 701,360 L 702,359 L 702,358 L 702,356 L 702,355 L 702,354 L 704,353 L 705,353 L 706,353 L 707,352 L 708,352 L 709,352 L 710,351 L 712,352 L 713,352 L 714,352 L 715,352 L 716,352 L 716,351 L 717,349 L 717,347 L 718,346 L 719,346 L 720,347 L 721,347 L 722,347 L 723,346 L 724,346 L 724,345 L 725,345 L 726,344 L 727,343 L 728,343 L 729,342 L 731,341 L 732,340 L 733,340 L 733,339 L 734,338 L 735,338 L 735,337 L 736,337 L 737,337 " />
</g>
</g>
</g>
<!-- QGIS extent for clipping, eg in Inkscape -->
<g id="qgisviewbox" inkscape:groupmode="layer" inkscape:label="qgisviewbox" stroke="rgb(255,0,0)" stroke-width="1" fill="none" >
<path d="M 0,882 L 1061,882 L 1061,0 L 0,0 L 0,882 " />
</g></svg>