<?xml version="1.0" standalone="no"?>
<!DOCTYPE svg PUBLIC "-//W3C//DTD SVG 1.1//EN" "http://www.w3.org/Graphics/SVG/1.1/DTD/svg11.dtd">
<svg xmlns="http://www.w3.org/2000/svg" xmlns:inkscape="http://www.inkscape.org/namespaces/inkscape" xmlns:xlink="http://www.w3.org/1999/xlink" viewBox = "0 0 1065 886" version = "1.1">
<!-- svg generated using QGIS www.qgis.org -->
<g id="anatoliki-attiki" inkscape:groupmode="layer" inkscape:label="anatoliki-attiki">
<g stroke="none" fill="rgb(194,205,131)" stroke-linejoin="round" stroke-width="0.26">
<g id="anatoliki-attiki_1" >
<path d="M 416,70 L 416,71 L 417,71 L 417,72 L 418,72 L 418,73 L 419,73 L 420,73 L 421,73 L 422,72 L 423,72 L 423,71 L 423,70 L 424,70 L 425,70 L 426,70 L 427,70 L 428,70 L 429,70 L 430,70 L 431,70 L 432,70 L 433,70 L 433,69 L 434,69 L 434,68 L 435,68 L 436,67 L 437,67 L 438,68 L 439,68 L 440,68 L 441,68 L 442,68 L 443,68 L 444,68 L 444,67 L 445,67 L 445,66 L 446,66 L 446,65 L 447,65 L 447,66 L 448,66 L 448,67 L 449,67 L 450,67 L 451,67 L 452,67 L 452,68 L 453,68 L 453,69 L 454,69 L 454,70 L 455,70 L 455,71 L 455,72 L 455,73 L 456,74 L 456,75 L 456,76 L 457,76 L 457,77 L 457,78 L 457,79 L 458,80 L 458,81 L 459,82 L 460,83 L 461,83 L 462,84 L 463,84 L 464,84 L 464,83 L 465,83 L 465,84 L 466,84 L 467,84 L 468,84 L 469,84 L 470,84 L 471,83 L 472,83 L 473,82 L 474,82 L 475,82 L 475,81 L 476,81 L 476,80 L 477,80 L 477,79 L 477,78 L 478,78 L 478,77 L 479,77 L 480,77 L 480,78 L 481,78 L 482,78 L 482,79 L 483,79 L 483,80 L 483,81 L 484,81 L 484,82 L 484,83 L 485,83 L 485,84 L 486,84 L 487,84 L 488,84 L 488,85 L 489,85 L 490,85 L 491,86 L 492,86 L 492,87 L 492,88 L 493,88 L 494,89 L 495,89 L 496,90 L 497,90 L 498,91 L 498,92 L 498,93 L 499,93 L 500,94 L 501,94 L 502,94 L 503,94 L 504,94 L 505,93 L 506,94 L 507,94 L 508,94 L 509,94 L 510,94 L 511,94 L 511,95 L 512,95 L 513,95 L 513,96 L 514,96 L 514,97 L 515,97 L 516,97 L 517,98 L 518,98 L 519,99 L 520,98 L 521,98 L 522,98 L 523,98 L 524,98 L 525,98 L 526,98 L 527,98 L 528,98 L 529,98 L 530,98 L 530,99 L 531,99 L 531,100 L 532,100 L 533,100 L 533,101 L 533,102 L 534,102 L 535,103 L 536,103 L 536,104 L 537,104 L 537,105 L 538,106 L 538,107 L 539,107 L 539,108 L 540,108 L 541,108 L 542,108 L 543,108 L 543,109 L 544,109 L 545,109 L 546,109 L 546,110 L 547,110 L 547,111 L 548,111 L 549,112 L 550,112 L 551,112 L 552,112 L 553,112 L 554,112 L 554,111 L 555,111 L 555,110 L 556,110 L 556,109 L 557,109 L 558,108 L 559,108 L 560,108 L 561,108 L 562,109 L 563,109 L 564,109 L 565,109 L 566,110 L 567,110 L 568,110 L 568,111 L 569,111 L 570,111 L 571,111 L 571,112 L 572,112 L 573,112 L 574,112 L 575,113 L 576,114 L 577,114 L 577,115 L 578,115 L 578,116 L 579,116 L 580,117 L 581,117 L 582,117 L 583,118 L 584,118 L 584,119 L 585,119 L 585,120 L 585,121 L 585,122 L 585,123 L 585,124 L 585,125 L 584,126 L 583,126 L 583,127 L 582,127 L 582,128 L 581,129 L 580,129 L 580,130 L 579,130 L 578,131 L 578,132 L 578,133 L 578,134 L 578,135 L 578,136 L 577,136 L 576,136 L 576,137 L 575,137 L 574,137 L 574,138 L 573,138 L 573,139 L 572,139 L 571,140 L 570,140 L 570,141 L 569,142 L 568,142 L 567,142 L 567,143 L 566,144 L 566,145 L 566,146 L 566,147 L 566,148 L 565,148 L 565,149 L 564,150 L 564,151 L 564,152 L 564,153 L 564,154 L 563,154 L 563,155 L 563,156 L 563,157 L 563,158 L 563,159 L 562,159 L 562,160 L 562,161 L 563,161 L 563,162 L 563,163 L 564,163 L 564,164 L 564,165 L 565,166 L 565,167 L 565,168 L 564,169 L 564,170 L 563,170 L 563,171 L 563,172 L 562,173 L 562,174 L 561,175 L 561,176 L 560,176 L 559,177 L 558,178 L 558,179 L 558,180 L 558,181 L 558,182 L 558,183 L 558,184 L 558,185 L 558,186 L 558,187 L 558,188 L 557,188 L 557,189 L 558,190 L 558,191 L 558,192 L 558,193 L 558,194 L 557,194 L 557,195 L 557,196 L 557,197 L 557,198 L 557,199 L 557,200 L 557,201 L 557,202 L 557,203 L 557,204 L 558,204 L 559,205 L 559,206 L 560,207 L 560,208 L 560,209 L 561,210 L 561,211 L 560,211 L 560,212 L 559,212 L 559,213 L 559,214 L 559,215 L 559,216 L 559,217 L 558,217 L 558,218 L 558,219 L 557,219 L 557,220 L 557,221 L 557,222 L 558,222 L 558,223 L 558,224 L 559,225 L 559,226 L 560,226 L 560,227 L 560,228 L 560,229 L 560,230 L 560,231 L 560,232 L 559,233 L 559,234 L 559,235 L 559,236 L 559,237 L 558,238 L 558,239 L 558,240 L 558,241 L 558,243 L 558,244 L 559,244 L 559,245 L 559,246 L 559,247 L 560,248 L 560,249 L 560,250 L 560,251 L 561,251 L 562,251 L 563,251 L 563,252 L 563,253 L 562,253 L 560,253 L 560,254 L 559,254 L 558,255 L 557,255 L 556,256 L 555,256 L 554,257 L 553,258 L 551,259 L 550,260 L 549,260 L 548,261 L 547,261 L 546,262 L 545,262 L 544,263 L 543,263 L 542,263 L 542,262 L 541,262 L 541,261 L 540,261 L 539,261 L 538,260 L 537,260 L 536,260 L 535,260 L 533,260 L 532,260 L 531,259 L 531,258 L 530,258 L 529,258 L 529,259 L 528,259 L 526,259 L 526,260 L 525,260 L 523,260 L 522,260 L 521,260 L 520,260 L 520,259 L 519,259 L 518,259 L 517,259 L 516,259 L 515,259 L 514,259 L 513,259 L 512,259 L 511,259 L 509,259 L 508,259 L 507,259 L 506,259 L 505,259 L 504,258 L 503,258 L 503,257 L 503,256 L 503,255 L 502,255 L 502,254 L 501,254 L 500,253 L 499,253 L 499,252 L 498,252 L 498,251 L 498,250 L 497,250 L 497,249 L 496,249 L 495,250 L 494,250 L 493,250 L 492,249 L 492,248 L 491,248 L 491,247 L 490,245 L 489,245 L 488,244 L 487,243 L 486,243 L 485,242 L 484,242 L 483,242 L 482,243 L 481,243 L 480,243 L 479,243 L 479,242 L 478,242 L 478,241 L 477,241 L 477,240 L 476,239 L 475,239 L 474,237 L 474,236 L 473,235 L 473,234 L 473,233 L 474,233 L 474,232 L 474,231 L 473,231 L 472,231 L 471,231 L 470,231 L 469,231 L 469,230 L 468,230 L 467,230 L 467,229 L 467,228 L 467,227 L 467,226 L 467,225 L 467,224 L 466,224 L 465,223 L 464,223 L 463,223 L 462,223 L 462,222 L 461,222 L 460,222 L 460,221 L 461,220 L 461,219 L 462,218 L 463,216 L 463,214 L 463,213 L 463,212 L 463,211 L 464,210 L 464,209 L 465,209 L 465,208 L 465,207 L 466,207 L 466,206 L 466,205 L 466,204 L 467,203 L 467,202 L 467,201 L 467,200 L 467,199 L 467,198 L 467,197 L 468,195 L 468,194 L 467,194 L 467,193 L 467,192 L 466,191 L 465,191 L 464,191 L 463,191 L 462,191 L 461,191 L 460,192 L 459,192 L 458,192 L 457,192 L 456,192 L 455,192 L 454,192 L 453,192 L 453,193 L 452,193 L 451,194 L 450,194 L 449,194 L 448,194 L 447,194 L 446,194 L 444,195 L 443,195 L 442,195 L 441,195 L 440,196 L 439,196 L 438,196 L 438,197 L 437,197 L 436,198 L 435,198 L 434,198 L 433,200 L 432,200 L 431,201 L 428,202 L 427,202 L 426,201 L 424,199 L 423,194 L 422,192 L 412,190 L 410,189 L 407,188 L 402,188 L 398,188 L 394,188 L 391,189 L 388,189 L 381,186 L 379,183 L 376,185 L 373,188 L 367,193 L 370,198 L 372,201 L 372,205 L 373,211 L 372,215 L 370,213 L 365,208 L 355,204 L 346,201 L 343,201 L 339,201 L 335,199 L 335,198 L 335,197 L 335,196 L 335,195 L 336,195 L 336,194 L 336,193 L 337,192 L 337,191 L 336,190 L 337,189 L 337,188 L 338,188 L 338,187 L 338,186 L 339,185 L 340,185 L 341,184 L 341,183 L 340,183 L 339,183 L 339,182 L 338,181 L 337,181 L 337,180 L 336,180 L 336,179 L 336,178 L 337,178 L 337,177 L 338,177 L 339,177 L 338,176 L 337,175 L 338,174 L 339,173 L 339,170 L 339,169 L 338,169 L 334,169 L 334,166 L 335,160 L 335,159 L 335,158 L 335,157 L 335,156 L 336,155 L 336,154 L 336,153 L 337,152 L 337,151 L 338,150 L 338,149 L 338,148 L 338,147 L 338,146 L 338,145 L 338,144 L 338,143 L 337,142 L 337,140 L 337,139 L 337,138 L 336,138 L 336,137 L 336,136 L 336,135 L 337,134 L 337,133 L 337,132 L 337,131 L 338,131 L 338,130 L 338,129 L 339,129 L 339,128 L 339,127 L 340,127 L 340,126 L 341,126 L 341,125 L 342,125 L 343,124 L 344,123 L 345,122 L 345,121 L 346,120 L 346,119 L 346,118 L 346,117 L 347,116 L 347,115 L 347,114 L 347,113 L 347,112 L 347,111 L 348,110 L 349,109 L 350,109 L 351,109 L 352,109 L 353,109 L 354,109 L 354,108 L 355,108 L 356,108 L 357,107 L 358,107 L 358,106 L 359,106 L 360,106 L 360,107 L 361,107 L 361,106 L 362,106 L 362,105 L 361,105 L 361,104 L 360,103 L 360,102 L 360,101 L 359,100 L 359,99 L 359,98 L 358,97 L 358,96 L 358,95 L 357,94 L 357,93 L 357,92 L 357,91 L 357,90 L 358,89 L 359,88 L 360,88 L 360,87 L 360,86 L 360,85 L 361,85 L 361,84 L 362,84 L 362,83 L 363,83 L 364,83 L 365,83 L 366,83 L 367,83 L 368,83 L 369,83 L 370,83 L 371,83 L 371,82 L 372,82 L 373,82 L 374,82 L 375,82 L 376,82 L 378,81 L 378,80 L 379,79 L 379,78 L 380,77 L 380,76 L 381,76 L 381,75 L 381,74 L 381,73 L 381,72 L 381,71 L 382,70 L 382,69 L 383,67 L 383,66 L 383,65 L 383,64 L 382,64 L 383,64 L 384,64 L 384,65 L 385,65 L 386,66 L 387,67 L 387,68 L 388,68 L 389,68 L 390,68 L 391,68 L 392,68 L 393,68 L 394,68 L 395,68 L 396,68 L 397,68 L 398,68 L 398,69 L 399,69 L 399,70 L 400,70 L 401,70 L 402,70 L 402,69 L 403,69 L 404,69 L 405,69 L 405,68 L 406,68 L 407,67 L 408,67 L 409,66 L 410,65 L 411,64 L 412,64 L 413,64 L 413,63 L 414,63 L 414,64 L 415,64 L 415,65 L 415,66 L 415,67 L 415,68 L 416,69 L 416,70 " />
</g>
<g id="anatoliki-attiki_2" >
<path d="M 734,303 L 733,303 L 733,302 L 733,301 L 734,301 L 734,302 L 734,303 L 735,303 L 734,303 " />
<path d="M 727,231 L 727,230 L 728,230 L 728,231 L 727,231 " />
<path d="M 725,230 L 724,230 L 723,230 L 722,230 L 722,229 L 722,228 L 723,228 L 723,229 L 724,229 L 725,229 L 725,230 " />
<path d="M 720,228 L 719,228 L 719,229 L 718,229 L 718,228 L 717,228 L 717,227 L 717,226 L 717,225 L 718,225 L 719,226 L 720,226 L 720,227 L 720,228 " />
<path d="M 715,224 L 715,223 L 714,223 L 714,222 L 715,222 L 715,223 L 715,224 " />
<path d="M 590,119 L 591,119 L 592,119 L 592,120 L 592,121 L 593,121 L 594,121 L 594,122 L 595,121 L 596,121 L 597,121 L 598,121 L 598,122 L 599,122 L 600,122 L 600,123 L 601,123 L 601,124 L 602,124 L 603,124 L 603,125 L 603,126 L 604,126 L 604,127 L 605,127 L 606,128 L 607,129 L 607,130 L 608,130 L 608,131 L 609,131 L 609,132 L 610,132 L 610,133 L 611,134 L 611,135 L 612,136 L 612,137 L 613,137 L 613,138 L 614,138 L 614,139 L 615,139 L 615,140 L 616,140 L 616,141 L 616,142 L 617,142 L 617,143 L 618,143 L 618,144 L 618,145 L 619,145 L 620,145 L 621,145 L 622,145 L 623,146 L 623,147 L 624,148 L 624,149 L 625,150 L 626,150 L 626,151 L 626,152 L 627,152 L 628,153 L 629,154 L 630,155 L 631,155 L 631,156 L 632,156 L 632,157 L 633,157 L 633,158 L 634,158 L 634,159 L 634,160 L 634,161 L 634,162 L 635,162 L 636,162 L 636,163 L 637,163 L 637,164 L 638,164 L 639,165 L 638,165 L 638,166 L 638,167 L 639,167 L 640,168 L 641,168 L 642,168 L 643,168 L 643,169 L 644,169 L 645,169 L 646,169 L 647,170 L 646,170 L 647,171 L 647,172 L 648,172 L 649,173 L 649,172 L 649,173 L 649,174 L 650,174 L 651,174 L 652,174 L 652,175 L 652,176 L 652,177 L 652,176 L 653,176 L 653,177 L 653,178 L 654,178 L 655,178 L 656,178 L 656,179 L 656,180 L 656,181 L 657,181 L 657,182 L 657,183 L 658,183 L 657,183 L 658,184 L 659,184 L 659,185 L 660,185 L 660,186 L 661,186 L 661,187 L 662,187 L 662,188 L 662,189 L 663,189 L 663,190 L 664,190 L 665,190 L 665,191 L 666,191 L 667,191 L 667,192 L 668,192 L 668,193 L 669,193 L 669,194 L 670,194 L 671,194 L 671,195 L 672,195 L 673,195 L 674,195 L 675,195 L 676,195 L 676,196 L 676,197 L 677,197 L 678,197 L 678,198 L 677,198 L 677,199 L 677,200 L 677,201 L 678,201 L 678,202 L 677,202 L 678,203 L 678,204 L 679,204 L 680,204 L 680,205 L 681,205 L 682,205 L 683,205 L 683,206 L 684,206 L 685,206 L 686,207 L 686,208 L 687,208 L 687,209 L 688,209 L 688,210 L 689,210 L 689,211 L 690,211 L 691,211 L 692,211 L 693,211 L 694,211 L 695,211 L 696,211 L 697,212 L 698,212 L 698,213 L 698,214 L 698,215 L 699,215 L 699,216 L 699,217 L 699,218 L 699,219 L 699,220 L 699,221 L 698,221 L 697,221 L 697,222 L 696,222 L 695,222 L 694,222 L 693,222 L 693,221 L 692,221 L 691,221 L 690,222 L 689,223 L 689,224 L 688,225 L 688,226 L 688,227 L 688,228 L 687,228 L 687,229 L 686,229 L 686,230 L 685,230 L 686,231 L 686,232 L 687,233 L 687,234 L 687,235 L 688,235 L 688,236 L 688,237 L 689,237 L 689,238 L 690,239 L 690,240 L 691,241 L 692,242 L 692,243 L 693,243 L 694,243 L 695,244 L 696,244 L 697,244 L 698,244 L 699,244 L 700,244 L 701,244 L 701,245 L 702,246 L 702,247 L 703,247 L 703,248 L 704,248 L 704,249 L 704,250 L 704,251 L 704,252 L 703,252 L 702,252 L 701,252 L 700,252 L 699,251 L 699,250 L 698,250 L 697,250 L 696,250 L 696,251 L 695,251 L 695,252 L 695,253 L 694,253 L 693,253 L 693,254 L 692,253 L 691,253 L 691,254 L 690,254 L 689,254 L 689,255 L 688,255 L 688,256 L 688,257 L 688,258 L 688,259 L 688,260 L 688,261 L 688,262 L 689,263 L 690,263 L 691,264 L 690,264 L 689,264 L 689,265 L 688,265 L 687,265 L 687,266 L 687,267 L 686,267 L 686,268 L 685,268 L 685,269 L 685,270 L 685,271 L 685,272 L 684,272 L 684,273 L 684,274 L 684,275 L 684,276 L 685,276 L 686,277 L 687,277 L 687,278 L 686,278 L 686,279 L 686,280 L 686,281 L 686,282 L 687,282 L 687,283 L 688,283 L 688,284 L 689,284 L 689,285 L 689,286 L 689,287 L 688,287 L 688,288 L 687,288 L 687,289 L 687,290 L 686,291 L 686,292 L 686,293 L 686,294 L 685,294 L 685,293 L 685,292 L 685,291 L 685,290 L 685,289 L 685,288 L 686,288 L 686,287 L 686,286 L 686,285 L 686,284 L 685,284 L 684,283 L 684,282 L 683,282 L 683,281 L 683,280 L 683,279 L 683,278 L 682,277 L 681,277 L 681,276 L 682,275 L 682,274 L 682,273 L 681,273 L 681,272 L 680,272 L 679,272 L 678,272 L 677,272 L 676,272 L 675,272 L 674,272 L 673,272 L 672,272 L 671,272 L 670,272 L 669,273 L 668,273 L 667,273 L 666,273 L 665,274 L 664,274 L 663,274 L 662,275 L 661,275 L 660,276 L 659,276 L 658,277 L 657,277 L 657,278 L 656,278 L 655,278 L 654,279 L 653,280 L 652,280 L 651,280 L 651,281 L 650,281 L 649,282 L 648,282 L 648,283 L 647,283 L 646,284 L 645,285 L 644,285 L 643,286 L 642,287 L 642,288 L 641,288 L 641,289 L 641,290 L 641,291 L 640,291 L 639,291 L 639,292 L 638,292 L 638,293 L 637,293 L 636,294 L 635,294 L 635,295 L 634,295 L 634,296 L 633,296 L 632,297 L 631,297 L 631,298 L 630,298 L 630,299 L 629,299 L 628,300 L 627,301 L 627,302 L 626,302 L 626,303 L 625,303 L 625,304 L 624,304 L 624,305 L 624,306 L 623,306 L 623,307 L 623,308 L 622,309 L 622,310 L 622,311 L 622,312 L 622,313 L 622,314 L 622,315 L 622,316 L 622,317 L 622,318 L 622,319 L 623,320 L 622,320 L 623,321 L 623,322 L 623,323 L 623,324 L 623,325 L 624,326 L 624,327 L 624,328 L 625,329 L 625,330 L 625,331 L 626,331 L 626,332 L 626,333 L 627,333 L 627,334 L 627,335 L 628,335 L 628,336 L 629,337 L 629,338 L 630,338 L 631,339 L 631,340 L 631,341 L 632,341 L 632,342 L 632,343 L 633,344 L 634,345 L 634,346 L 635,346 L 635,347 L 636,348 L 636,349 L 637,349 L 638,349 L 638,350 L 638,351 L 639,351 L 639,350 L 639,351 L 638,351 L 638,352 L 637,351 L 637,352 L 637,353 L 636,353 L 636,354 L 636,355 L 637,355 L 637,356 L 637,357 L 636,357 L 636,358 L 636,359 L 636,360 L 637,360 L 637,361 L 636,361 L 637,361 L 637,362 L 636,362 L 636,363 L 637,363 L 636,363 L 636,364 L 636,365 L 636,366 L 635,366 L 635,367 L 636,368 L 636,369 L 636,370 L 636,371 L 637,371 L 637,372 L 637,373 L 637,374 L 638,374 L 638,375 L 639,375 L 640,375 L 640,376 L 641,376 L 640,376 L 640,377 L 640,378 L 640,379 L 639,379 L 638,379 L 637,379 L 637,380 L 636,380 L 635,380 L 635,381 L 634,381 L 634,382 L 633,382 L 633,383 L 632,383 L 632,384 L 631,384 L 630,384 L 629,384 L 628,384 L 627,384 L 626,384 L 625,383 L 625,382 L 624,382 L 624,381 L 623,381 L 622,381 L 621,381 L 620,381 L 619,381 L 618,381 L 617,381 L 617,380 L 616,381 L 615,381 L 614,381 L 613,380 L 612,380 L 611,379 L 610,378 L 609,378 L 609,377 L 608,377 L 607,377 L 606,377 L 606,376 L 605,376 L 605,375 L 604,375 L 604,374 L 603,374 L 603,373 L 602,373 L 601,373 L 600,373 L 600,372 L 599,372 L 599,371 L 598,371 L 598,370 L 597,370 L 597,369 L 596,368 L 596,367 L 595,367 L 595,366 L 594,366 L 593,365 L 592,365 L 591,364 L 590,364 L 590,363 L 589,363 L 589,362 L 588,362 L 587,361 L 586,360 L 585,360 L 585,359 L 584,359 L 583,358 L 582,358 L 582,357 L 581,357 L 581,356 L 581,355 L 580,353 L 579,353 L 579,352 L 578,352 L 577,351 L 576,351 L 575,351 L 574,351 L 573,351 L 573,350 L 572,350 L 571,349 L 570,349 L 570,348 L 568,349 L 567,349 L 566,349 L 565,348 L 564,349 L 563,349 L 562,349 L 562,348 L 561,348 L 560,348 L 561,348 L 562,347 L 563,347 L 564,347 L 565,347 L 565,346 L 566,346 L 567,346 L 568,346 L 569,346 L 570,346 L 571,346 L 572,346 L 573,346 L 575,346 L 576,346 L 577,346 L 578,346 L 579,346 L 580,346 L 581,346 L 582,346 L 583,346 L 583,345 L 583,344 L 583,343 L 583,342 L 583,341 L 583,340 L 583,339 L 583,338 L 583,337 L 583,336 L 583,335 L 583,334 L 583,333 L 583,332 L 583,331 L 582,330 L 582,329 L 582,328 L 582,327 L 581,326 L 580,326 L 580,325 L 580,324 L 579,324 L 579,323 L 578,323 L 578,322 L 577,322 L 577,321 L 576,320 L 576,318 L 575,317 L 574,317 L 574,316 L 573,315 L 573,314 L 573,313 L 574,312 L 574,311 L 575,311 L 575,310 L 576,310 L 577,310 L 577,309 L 578,309 L 578,308 L 579,307 L 579,306 L 579,305 L 580,304 L 580,303 L 581,302 L 581,301 L 582,301 L 583,301 L 584,300 L 583,300 L 583,299 L 584,299 L 584,298 L 585,298 L 585,297 L 586,297 L 587,297 L 588,297 L 588,296 L 587,295 L 588,295 L 588,294 L 589,294 L 589,295 L 590,295 L 591,294 L 592,294 L 592,293 L 593,293 L 593,292 L 592,292 L 592,291 L 592,290 L 592,289 L 592,288 L 592,287 L 592,286 L 591,285 L 590,284 L 589,284 L 588,283 L 587,283 L 586,282 L 585,282 L 585,281 L 584,281 L 584,280 L 583,280 L 583,279 L 583,278 L 583,277 L 582,276 L 582,275 L 582,274 L 583,273 L 583,272 L 583,271 L 582,270 L 582,269 L 582,268 L 583,267 L 583,266 L 582,265 L 582,264 L 582,263 L 581,263 L 580,263 L 580,262 L 579,262 L 578,262 L 578,261 L 577,261 L 576,260 L 575,260 L 574,259 L 573,258 L 573,257 L 572,256 L 571,256 L 570,256 L 570,257 L 570,258 L 569,258 L 568,258 L 568,257 L 567,257 L 567,256 L 567,255 L 566,255 L 565,255 L 565,254 L 564,254 L 563,254 L 563,253 L 563,252 L 563,251 L 562,251 L 561,251 L 560,251 L 560,250 L 560,249 L 560,248 L 559,247 L 559,246 L 559,245 L 559,244 L 558,244 L 558,243 L 558,241 L 558,240 L 558,239 L 558,238 L 559,237 L 559,236 L 559,235 L 559,234 L 559,233 L 560,232 L 560,231 L 560,230 L 560,229 L 560,228 L 560,227 L 560,226 L 559,226 L 559,225 L 558,224 L 558,223 L 558,222 L 557,222 L 557,221 L 557,220 L 557,219 L 558,219 L 558,218 L 558,217 L 559,217 L 559,216 L 559,215 L 559,214 L 559,213 L 559,212 L 560,212 L 560,211 L 561,211 L 561,210 L 560,209 L 560,208 L 560,207 L 559,206 L 559,205 L 558,204 L 557,204 L 557,203 L 557,202 L 557,201 L 557,200 L 557,199 L 557,198 L 557,197 L 557,196 L 557,195 L 557,194 L 558,194 L 558,193 L 558,192 L 558,191 L 558,190 L 557,189 L 557,188 L 558,188 L 558,187 L 558,186 L 558,185 L 558,184 L 558,183 L 558,182 L 558,181 L 558,180 L 558,179 L 558,178 L 559,177 L 560,176 L 561,176 L 561,175 L 562,174 L 562,173 L 563,172 L 563,171 L 563,170 L 564,170 L 564,169 L 565,168 L 565,167 L 565,166 L 564,165 L 564,164 L 564,163 L 563,163 L 563,162 L 563,161 L 562,161 L 562,160 L 562,159 L 563,159 L 563,158 L 563,157 L 563,156 L 563,155 L 563,154 L 564,154 L 564,153 L 564,152 L 564,151 L 564,150 L 565,149 L 565,148 L 566,148 L 566,147 L 566,146 L 566,145 L 566,144 L 567,143 L 567,142 L 568,142 L 569,142 L 570,141 L 570,140 L 571,140 L 572,139 L 573,139 L 573,138 L 574,138 L 574,137 L 575,137 L 576,137 L 576,136 L 577,136 L 578,136 L 578,135 L 578,134 L 578,133 L 578,132 L 578,131 L 579,130 L 580,130 L 580,129 L 581,129 L 582,128 L 582,127 L 583,127 L 583,126 L 584,126 L 585,125 L 585,124 L 585,123 L 585,122 L 585,121 L 585,120 L 585,119 L 586,119 L 586,118 L 587,118 L 588,118 L 588,119 L 589,119 L 590,119 " />
</g>
<g id="anatoliki-attiki_3" >
<path d="M 559,720 L 559,721 L 560,721 L 560,722 L 561,722 L 561,723 L 560,724 L 559,724 L 559,725 L 559,726 L 559,727 L 558,727 L 558,728 L 557,728 L 556,729 L 555,729 L 554,729 L 553,729 L 552,729 L 552,728 L 551,727 L 550,727 L 550,726 L 549,726 L 549,725 L 550,725 L 550,724 L 551,723 L 551,722 L 552,722 L 553,721 L 554,721 L 555,721 L 556,721 L 557,721 L 557,720 L 558,721 L 559,720 " />
<path d="M 552,677 L 552,676 L 552,677 " />
<path d="M 554,676 L 553,676 L 554,676 L 554,675 L 554,676 " />
<path d="M 547,671 L 547,672 L 546,672 L 546,671 L 547,671 " />
<path d="M 532,669 L 533,669 L 532,669 L 531,669 L 532,669 " />
<path d="M 542,648 L 543,648 L 542,649 L 542,648 " />
<path d="M 545,560 L 546,560 L 547,560 L 548,560 L 549,560 L 550,561 L 551,562 L 552,562 L 552,563 L 553,563 L 554,563 L 554,564 L 555,564 L 556,565 L 557,565 L 557,566 L 558,566 L 559,567 L 560,567 L 561,567 L 562,568 L 563,568 L 564,569 L 565,569 L 566,569 L 567,569 L 568,569 L 568,570 L 569,570 L 570,570 L 571,570 L 572,571 L 573,571 L 574,571 L 575,571 L 576,572 L 577,572 L 578,572 L 579,572 L 580,572 L 581,572 L 582,573 L 583,573 L 584,573 L 585,573 L 586,573 L 587,573 L 588,573 L 589,573 L 590,573 L 591,573 L 592,573 L 593,573 L 594,573 L 595,573 L 596,573 L 597,573 L 598,573 L 599,573 L 599,574 L 600,574 L 601,574 L 601,575 L 602,575 L 603,575 L 603,576 L 604,576 L 605,577 L 606,577 L 607,578 L 608,578 L 608,579 L 609,579 L 610,579 L 611,579 L 611,578 L 612,578 L 612,577 L 612,576 L 613,576 L 613,575 L 614,575 L 614,574 L 615,574 L 616,574 L 616,573 L 617,573 L 618,573 L 619,573 L 619,572 L 620,572 L 621,572 L 622,572 L 623,572 L 624,572 L 625,572 L 626,572 L 627,572 L 628,572 L 628,571 L 629,571 L 630,571 L 631,571 L 632,571 L 633,571 L 633,570 L 634,570 L 635,569 L 636,569 L 637,569 L 637,570 L 638,570 L 640,571 L 641,571 L 642,571 L 643,572 L 644,572 L 645,572 L 646,572 L 647,572 L 648,572 L 649,572 L 649,571 L 650,571 L 651,571 L 651,570 L 652,570 L 653,570 L 653,571 L 654,571 L 655,571 L 656,571 L 657,572 L 658,572 L 659,572 L 660,572 L 661,572 L 662,572 L 663,572 L 663,573 L 664,574 L 664,575 L 664,576 L 664,577 L 665,577 L 665,578 L 666,578 L 666,579 L 667,579 L 668,579 L 669,579 L 670,579 L 671,579 L 671,580 L 672,580 L 673,580 L 674,580 L 675,580 L 674,580 L 674,581 L 673,581 L 672,582 L 671,582 L 671,583 L 670,583 L 669,583 L 668,584 L 667,584 L 667,585 L 666,585 L 665,586 L 664,586 L 663,586 L 663,587 L 662,587 L 662,588 L 661,588 L 661,589 L 660,589 L 660,590 L 659,591 L 658,592 L 657,593 L 656,594 L 655,595 L 655,596 L 654,596 L 654,597 L 653,597 L 653,598 L 652,598 L 652,599 L 651,599 L 650,600 L 649,600 L 649,599 L 648,599 L 647,598 L 646,598 L 646,597 L 645,597 L 644,597 L 643,597 L 642,597 L 642,598 L 641,598 L 640,599 L 639,599 L 638,599 L 637,600 L 637,601 L 636,601 L 636,602 L 635,602 L 635,603 L 634,604 L 633,605 L 633,606 L 632,606 L 632,607 L 631,608 L 631,609 L 630,609 L 630,610 L 629,611 L 629,612 L 628,612 L 627,612 L 627,611 L 626,611 L 626,610 L 625,610 L 624,609 L 623,609 L 623,608 L 622,608 L 621,607 L 620,607 L 619,607 L 618,607 L 617,607 L 616,607 L 616,608 L 616,609 L 615,609 L 615,610 L 615,611 L 615,612 L 614,612 L 614,613 L 614,614 L 613,613 L 612,613 L 612,612 L 611,612 L 611,611 L 610,611 L 609,611 L 608,611 L 608,610 L 607,610 L 607,611 L 606,611 L 606,610 L 605,610 L 605,609 L 604,609 L 603,610 L 603,611 L 602,612 L 602,613 L 601,613 L 600,613 L 599,613 L 598,613 L 597,612 L 596,612 L 596,611 L 595,611 L 595,610 L 594,610 L 593,609 L 592,609 L 591,608 L 591,609 L 590,609 L 589,610 L 588,610 L 587,610 L 586,610 L 586,611 L 585,611 L 585,612 L 585,613 L 584,614 L 584,615 L 583,616 L 583,617 L 583,618 L 582,618 L 582,619 L 583,619 L 583,620 L 584,620 L 585,620 L 586,620 L 586,621 L 587,621 L 588,621 L 588,622 L 589,622 L 590,623 L 591,623 L 592,624 L 592,625 L 593,625 L 594,626 L 595,627 L 596,628 L 596,629 L 597,629 L 597,630 L 598,630 L 598,631 L 599,631 L 600,632 L 601,633 L 602,634 L 603,634 L 603,635 L 604,636 L 605,636 L 605,637 L 606,637 L 607,638 L 608,638 L 608,639 L 609,639 L 610,639 L 610,640 L 611,640 L 612,641 L 613,641 L 613,642 L 613,643 L 614,644 L 614,645 L 613,645 L 613,646 L 613,647 L 613,648 L 613,649 L 613,650 L 612,651 L 612,652 L 612,653 L 612,654 L 611,654 L 611,655 L 611,656 L 611,657 L 611,658 L 610,659 L 610,660 L 610,661 L 610,662 L 610,663 L 610,664 L 609,664 L 609,665 L 609,666 L 608,666 L 608,667 L 608,668 L 607,668 L 607,669 L 606,670 L 606,671 L 605,671 L 605,672 L 605,673 L 604,673 L 604,674 L 604,675 L 604,676 L 603,676 L 603,677 L 603,678 L 604,678 L 604,679 L 604,680 L 605,680 L 605,681 L 606,681 L 606,682 L 607,682 L 607,683 L 608,683 L 608,684 L 609,684 L 609,685 L 610,685 L 610,686 L 611,686 L 611,687 L 611,688 L 610,688 L 610,689 L 609,689 L 608,689 L 607,689 L 608,690 L 608,691 L 609,691 L 609,692 L 610,692 L 610,693 L 611,693 L 613,695 L 613,696 L 614,697 L 615,698 L 616,698 L 616,699 L 617,699 L 618,699 L 619,699 L 620,699 L 621,700 L 621,701 L 622,701 L 622,702 L 622,703 L 623,703 L 623,704 L 623,705 L 624,705 L 624,706 L 624,707 L 624,708 L 624,709 L 624,710 L 625,711 L 625,712 L 626,712 L 626,713 L 627,713 L 627,714 L 627,715 L 627,716 L 626,717 L 626,718 L 626,719 L 625,720 L 625,721 L 625,722 L 624,722 L 624,723 L 624,724 L 624,725 L 624,726 L 624,727 L 624,728 L 624,729 L 623,730 L 623,731 L 623,732 L 623,733 L 622,733 L 621,733 L 621,734 L 620,734 L 620,735 L 620,736 L 619,736 L 619,737 L 618,737 L 617,738 L 616,738 L 616,739 L 615,740 L 615,741 L 614,741 L 614,742 L 614,743 L 613,744 L 613,745 L 612,746 L 612,747 L 611,747 L 611,748 L 611,749 L 610,749 L 610,750 L 610,751 L 610,752 L 609,753 L 609,754 L 609,755 L 609,756 L 609,757 L 609,758 L 609,759 L 609,760 L 609,761 L 609,762 L 609,763 L 609,764 L 609,765 L 609,766 L 609,767 L 609,768 L 609,769 L 609,770 L 609,771 L 608,772 L 607,772 L 607,771 L 606,771 L 605,771 L 605,770 L 604,770 L 603,770 L 602,770 L 601,770 L 600,770 L 600,769 L 599,769 L 598,769 L 598,768 L 597,768 L 597,767 L 596,767 L 595,767 L 595,768 L 594,768 L 594,769 L 593,769 L 592,768 L 591,768 L 591,767 L 590,767 L 589,767 L 588,766 L 587,766 L 587,765 L 586,765 L 586,764 L 586,763 L 587,763 L 587,762 L 588,762 L 588,761 L 589,761 L 589,760 L 589,759 L 589,758 L 590,757 L 590,756 L 589,756 L 589,755 L 588,755 L 588,754 L 587,754 L 587,753 L 587,752 L 586,752 L 585,752 L 585,751 L 585,750 L 586,750 L 586,749 L 586,748 L 587,748 L 587,747 L 587,746 L 587,745 L 586,745 L 586,744 L 586,743 L 586,742 L 586,741 L 587,741 L 587,740 L 586,740 L 586,739 L 586,738 L 586,737 L 586,736 L 587,736 L 587,735 L 588,735 L 588,734 L 588,733 L 587,732 L 587,731 L 587,730 L 586,730 L 585,730 L 585,729 L 585,728 L 585,727 L 584,727 L 585,726 L 586,725 L 587,725 L 588,725 L 588,724 L 589,723 L 590,723 L 590,722 L 591,722 L 591,721 L 592,721 L 591,720 L 592,720 L 592,721 L 592,720 L 593,720 L 593,719 L 593,718 L 592,718 L 593,718 L 592,718 L 593,717 L 593,716 L 593,715 L 593,714 L 593,713 L 592,712 L 591,712 L 591,711 L 590,711 L 590,710 L 589,710 L 588,709 L 587,709 L 586,709 L 586,710 L 587,709 L 587,710 L 586,710 L 586,709 L 585,709 L 584,709 L 583,709 L 583,710 L 582,710 L 582,711 L 582,712 L 583,712 L 583,713 L 583,714 L 583,715 L 582,715 L 581,715 L 580,715 L 579,715 L 578,715 L 577,715 L 576,715 L 576,716 L 575,716 L 574,716 L 574,717 L 575,717 L 575,718 L 576,718 L 576,719 L 576,720 L 575,721 L 574,721 L 573,721 L 573,720 L 573,719 L 574,719 L 574,718 L 574,717 L 573,717 L 573,716 L 572,716 L 572,717 L 571,717 L 570,717 L 570,716 L 569,716 L 569,717 L 569,718 L 568,718 L 568,717 L 568,716 L 567,716 L 566,716 L 566,715 L 565,715 L 564,715 L 564,716 L 564,715 L 563,715 L 563,714 L 562,713 L 562,712 L 562,711 L 561,711 L 561,710 L 561,709 L 561,708 L 561,707 L 561,706 L 560,706 L 559,705 L 559,704 L 559,703 L 558,703 L 557,703 L 557,702 L 558,702 L 558,701 L 558,700 L 557,700 L 556,700 L 557,699 L 558,699 L 559,698 L 559,697 L 559,696 L 559,695 L 558,695 L 558,694 L 558,693 L 558,692 L 558,691 L 557,690 L 557,689 L 557,688 L 557,687 L 557,686 L 558,686 L 559,686 L 559,685 L 559,684 L 558,684 L 558,683 L 558,682 L 557,682 L 557,681 L 557,680 L 557,679 L 556,679 L 557,679 L 556,679 L 556,678 L 557,678 L 557,677 L 557,676 L 557,675 L 557,674 L 556,675 L 556,674 L 557,674 L 556,674 L 556,673 L 557,673 L 557,672 L 557,671 L 556,670 L 555,670 L 555,669 L 556,668 L 555,668 L 555,667 L 555,666 L 556,666 L 556,665 L 556,664 L 557,664 L 557,663 L 557,662 L 557,661 L 556,661 L 556,660 L 556,659 L 556,658 L 555,658 L 555,657 L 554,657 L 553,656 L 552,656 L 552,655 L 552,654 L 551,654 L 550,654 L 549,653 L 548,653 L 547,653 L 547,654 L 547,655 L 546,655 L 545,655 L 546,656 L 545,656 L 545,657 L 545,658 L 544,658 L 544,659 L 543,659 L 543,658 L 542,658 L 543,657 L 543,656 L 544,656 L 544,655 L 544,654 L 544,653 L 544,652 L 543,652 L 544,652 L 544,651 L 545,651 L 546,651 L 546,650 L 546,649 L 545,649 L 545,648 L 545,647 L 544,647 L 543,646 L 543,645 L 542,645 L 542,644 L 541,644 L 541,643 L 540,642 L 539,642 L 538,642 L 537,641 L 537,640 L 536,640 L 536,639 L 535,639 L 534,638 L 534,637 L 533,637 L 533,638 L 532,638 L 531,638 L 530,638 L 530,637 L 529,637 L 529,636 L 530,636 L 531,636 L 531,635 L 531,634 L 530,634 L 530,633 L 530,632 L 530,631 L 529,631 L 528,630 L 527,630 L 526,629 L 527,628 L 527,627 L 528,627 L 528,626 L 528,625 L 529,625 L 529,624 L 530,623 L 530,622 L 531,622 L 531,621 L 532,620 L 532,619 L 533,619 L 533,618 L 534,617 L 534,616 L 535,615 L 535,614 L 536,613 L 536,612 L 537,611 L 537,610 L 538,609 L 538,608 L 538,607 L 539,606 L 539,605 L 540,605 L 540,604 L 540,603 L 541,603 L 542,602 L 543,602 L 544,602 L 544,601 L 545,601 L 546,601 L 547,600 L 547,599 L 548,598 L 548,597 L 548,596 L 548,595 L 548,594 L 548,593 L 548,592 L 549,592 L 549,591 L 549,590 L 549,589 L 549,588 L 549,587 L 549,586 L 549,585 L 549,584 L 549,583 L 548,582 L 548,581 L 548,580 L 548,579 L 547,579 L 546,579 L 545,579 L 544,579 L 543,579 L 542,579 L 542,578 L 542,577 L 543,577 L 543,576 L 543,575 L 543,574 L 543,573 L 543,572 L 543,571 L 543,570 L 543,569 L 543,568 L 543,567 L 543,566 L 543,565 L 543,564 L 543,563 L 543,562 L 542,562 L 543,561 L 543,560 L 544,560 L 545,560 " />
</g>
<g id="anatoliki-attiki_4" >
<path d="M 517,375 L 518,375 L 519,375 L 519,376 L 520,376 L 521,376 L 522,377 L 523,377 L 524,377 L 525,377 L 526,376 L 527,376 L 528,376 L 529,376 L 529,377 L 530,377 L 530,378 L 531,378 L 532,378 L 533,378 L 534,378 L 535,379 L 536,379 L 539,379 L 541,378 L 543,378 L 544,378 L 545,378 L 547,378 L 548,377 L 549,377 L 550,378 L 550,379 L 550,380 L 550,382 L 549,383 L 549,384 L 549,385 L 549,386 L 549,388 L 549,389 L 549,390 L 549,392 L 549,393 L 550,394 L 550,395 L 550,396 L 551,396 L 551,397 L 551,398 L 551,399 L 552,400 L 552,401 L 553,402 L 553,403 L 553,404 L 554,404 L 554,405 L 555,405 L 556,405 L 556,404 L 558,404 L 559,404 L 560,403 L 561,403 L 561,402 L 562,402 L 563,401 L 564,401 L 564,400 L 565,400 L 566,401 L 566,402 L 567,402 L 567,403 L 566,405 L 566,406 L 566,407 L 566,408 L 566,409 L 567,410 L 568,411 L 568,412 L 569,413 L 570,414 L 571,415 L 571,416 L 572,416 L 573,418 L 574,419 L 575,419 L 575,420 L 576,420 L 577,421 L 578,421 L 578,422 L 579,422 L 579,423 L 579,422 L 578,422 L 578,423 L 577,422 L 576,422 L 576,423 L 575,423 L 575,424 L 574,424 L 574,425 L 573,425 L 573,426 L 572,426 L 572,427 L 572,428 L 572,429 L 571,429 L 571,430 L 570,431 L 569,431 L 568,431 L 567,431 L 567,430 L 566,430 L 566,431 L 565,431 L 564,432 L 563,432 L 562,432 L 562,433 L 561,433 L 560,433 L 559,433 L 558,433 L 557,433 L 556,433 L 555,433 L 554,433 L 553,434 L 552,434 L 551,434 L 550,434 L 549,434 L 548,435 L 547,436 L 546,437 L 545,437 L 545,436 L 544,436 L 544,435 L 543,435 L 542,434 L 541,434 L 540,433 L 539,433 L 539,432 L 538,432 L 537,432 L 536,431 L 535,430 L 534,430 L 534,429 L 533,429 L 533,430 L 532,431 L 532,432 L 533,433 L 532,433 L 532,434 L 531,434 L 531,433 L 531,434 L 530,435 L 530,436 L 530,437 L 529,438 L 529,439 L 529,440 L 529,441 L 529,442 L 528,442 L 528,443 L 527,443 L 527,444 L 526,445 L 526,446 L 525,446 L 524,446 L 523,446 L 522,446 L 521,446 L 520,446 L 520,445 L 519,445 L 518,445 L 517,445 L 517,446 L 517,445 L 517,444 L 516,444 L 516,443 L 516,442 L 516,441 L 515,441 L 515,440 L 515,439 L 515,438 L 515,437 L 514,437 L 514,436 L 514,435 L 514,434 L 514,433 L 514,432 L 514,431 L 514,430 L 513,430 L 513,429 L 514,429 L 515,430 L 516,430 L 516,431 L 517,431 L 518,432 L 519,432 L 519,431 L 520,430 L 520,429 L 520,428 L 520,427 L 519,426 L 519,425 L 520,425 L 521,425 L 522,425 L 522,426 L 523,427 L 523,428 L 523,429 L 524,429 L 525,429 L 526,429 L 526,428 L 527,428 L 527,427 L 527,426 L 527,425 L 527,424 L 527,423 L 526,423 L 526,422 L 526,421 L 526,420 L 526,419 L 526,418 L 527,418 L 527,417 L 527,416 L 528,415 L 527,414 L 526,414 L 525,414 L 524,414 L 524,413 L 523,413 L 522,413 L 521,413 L 520,412 L 519,412 L 518,412 L 517,411 L 516,411 L 514,411 L 513,411 L 512,410 L 511,410 L 510,410 L 509,410 L 509,409 L 509,408 L 508,408 L 508,407 L 508,406 L 509,406 L 509,405 L 509,404 L 509,403 L 510,403 L 510,402 L 510,401 L 511,401 L 511,400 L 511,399 L 512,398 L 512,397 L 511,397 L 510,397 L 509,397 L 508,396 L 507,396 L 506,396 L 505,396 L 506,396 L 506,395 L 506,394 L 507,394 L 507,393 L 508,392 L 508,391 L 509,390 L 510,389 L 510,388 L 511,387 L 511,386 L 512,386 L 512,385 L 512,384 L 513,384 L 513,383 L 513,382 L 514,381 L 514,380 L 515,380 L 515,379 L 514,379 L 514,378 L 513,378 L 513,377 L 513,376 L 514,375 L 515,374 L 515,373 L 515,372 L 516,372 L 516,371 L 517,371 L 517,372 L 517,373 L 517,374 L 517,375 " />
</g>
<g id="anatoliki-attiki_5" >
<path d="M 646,494 L 646,495 L 645,495 L 645,496 L 644,496 L 643,496 L 642,496 L 642,497 L 641,497 L 641,498 L 640,498 L 640,499 L 639,499 L 638,500 L 639,500 L 640,500 L 641,500 L 642,500 L 643,500 L 644,500 L 644,501 L 645,501 L 646,501 L 647,501 L 648,501 L 648,502 L 649,502 L 649,503 L 650,503 L 651,503 L 652,503 L 653,503 L 654,503 L 654,502 L 655,502 L 654,502 L 654,501 L 655,501 L 656,501 L 656,502 L 656,503 L 657,503 L 658,503 L 659,503 L 659,504 L 660,503 L 661,503 L 661,502 L 662,501 L 662,502 L 663,502 L 664,502 L 664,503 L 664,504 L 665,504 L 664,504 L 664,505 L 664,506 L 665,506 L 665,507 L 666,507 L 666,508 L 667,508 L 667,509 L 668,508 L 668,509 L 668,510 L 669,510 L 669,511 L 669,512 L 670,512 L 670,513 L 670,514 L 671,515 L 672,515 L 672,516 L 671,516 L 671,517 L 671,518 L 672,518 L 672,519 L 672,518 L 673,518 L 674,519 L 675,520 L 675,521 L 675,522 L 676,523 L 676,524 L 677,524 L 677,525 L 676,525 L 676,524 L 676,523 L 675,523 L 675,524 L 675,525 L 675,526 L 675,527 L 674,527 L 675,528 L 674,528 L 675,529 L 674,529 L 674,530 L 673,530 L 673,531 L 674,531 L 673,531 L 672,531 L 671,531 L 670,531 L 670,532 L 669,532 L 668,532 L 668,533 L 668,532 L 667,532 L 667,533 L 666,533 L 665,533 L 665,534 L 664,534 L 664,535 L 664,536 L 663,536 L 663,535 L 662,535 L 661,535 L 661,534 L 660,534 L 660,535 L 659,535 L 658,535 L 658,536 L 657,536 L 657,535 L 656,535 L 655,535 L 654,535 L 654,534 L 653,534 L 653,533 L 652,533 L 651,533 L 650,533 L 649,533 L 648,533 L 647,533 L 646,534 L 646,535 L 645,535 L 645,536 L 645,537 L 645,538 L 645,539 L 646,539 L 647,539 L 648,539 L 648,540 L 649,540 L 648,540 L 648,541 L 649,541 L 650,541 L 650,540 L 651,540 L 652,540 L 652,541 L 653,541 L 654,541 L 654,542 L 655,542 L 656,542 L 656,543 L 655,543 L 654,543 L 653,543 L 652,543 L 652,542 L 651,542 L 650,543 L 650,544 L 650,545 L 650,546 L 650,547 L 651,548 L 651,549 L 652,549 L 651,549 L 651,550 L 652,550 L 651,550 L 652,550 L 652,551 L 652,552 L 653,552 L 653,553 L 654,553 L 654,554 L 655,554 L 655,555 L 656,555 L 656,556 L 657,556 L 657,557 L 658,557 L 659,557 L 660,558 L 660,557 L 661,557 L 661,558 L 662,558 L 663,558 L 663,559 L 664,559 L 665,559 L 665,560 L 666,560 L 667,560 L 667,559 L 668,559 L 668,560 L 669,560 L 669,559 L 668,559 L 667,559 L 666,559 L 666,558 L 666,557 L 667,557 L 667,556 L 667,555 L 668,554 L 668,553 L 669,553 L 669,552 L 670,552 L 671,552 L 672,551 L 673,551 L 674,552 L 675,552 L 675,553 L 675,554 L 674,554 L 675,554 L 675,555 L 676,555 L 676,556 L 676,557 L 676,558 L 676,559 L 676,560 L 675,560 L 675,561 L 674,561 L 673,561 L 672,561 L 671,561 L 671,562 L 671,563 L 671,564 L 672,565 L 673,565 L 673,566 L 674,566 L 675,566 L 675,567 L 676,567 L 677,567 L 678,567 L 678,568 L 679,568 L 680,568 L 681,568 L 682,569 L 683,569 L 683,570 L 684,570 L 685,571 L 686,571 L 685,572 L 684,572 L 684,573 L 683,573 L 682,574 L 681,574 L 681,575 L 680,575 L 679,575 L 679,576 L 678,577 L 677,578 L 676,579 L 675,579 L 675,580 L 674,580 L 673,580 L 672,580 L 671,580 L 671,579 L 670,579 L 669,579 L 668,579 L 667,579 L 666,579 L 666,578 L 665,578 L 665,577 L 664,577 L 664,576 L 664,575 L 664,574 L 663,573 L 663,572 L 662,572 L 661,572 L 660,572 L 659,572 L 658,572 L 657,572 L 656,571 L 655,571 L 654,571 L 653,571 L 653,570 L 652,570 L 651,570 L 651,571 L 650,571 L 649,571 L 649,572 L 648,572 L 647,572 L 646,572 L 645,572 L 644,572 L 643,572 L 642,571 L 641,571 L 640,571 L 638,570 L 637,570 L 637,569 L 636,569 L 635,569 L 634,570 L 633,570 L 633,571 L 632,571 L 631,571 L 630,571 L 629,571 L 628,571 L 628,572 L 627,572 L 626,572 L 625,572 L 624,572 L 623,572 L 622,572 L 621,572 L 620,572 L 619,572 L 619,573 L 618,573 L 617,573 L 616,573 L 616,574 L 615,574 L 614,574 L 614,575 L 613,575 L 613,576 L 612,576 L 612,577 L 612,578 L 611,578 L 611,579 L 610,579 L 609,579 L 608,579 L 608,578 L 607,578 L 606,577 L 605,577 L 604,576 L 603,576 L 603,575 L 602,575 L 601,575 L 601,574 L 600,574 L 599,574 L 599,573 L 598,573 L 597,573 L 596,573 L 595,573 L 594,573 L 593,573 L 592,573 L 591,573 L 590,573 L 589,573 L 588,573 L 587,573 L 586,573 L 585,573 L 584,573 L 583,573 L 582,573 L 581,572 L 580,572 L 579,572 L 578,572 L 577,572 L 576,572 L 575,571 L 574,571 L 573,571 L 572,571 L 571,570 L 570,570 L 569,570 L 568,570 L 568,569 L 567,569 L 566,569 L 565,569 L 564,569 L 563,568 L 562,568 L 561,567 L 560,567 L 559,567 L 558,566 L 557,566 L 557,565 L 556,565 L 555,564 L 554,564 L 554,563 L 553,563 L 552,563 L 552,562 L 551,562 L 550,561 L 549,560 L 548,560 L 549,560 L 550,560 L 551,560 L 551,559 L 552,559 L 553,559 L 553,558 L 554,558 L 555,558 L 556,558 L 556,557 L 557,557 L 558,557 L 559,557 L 560,556 L 561,555 L 562,555 L 563,554 L 564,554 L 564,553 L 565,553 L 565,552 L 566,552 L 566,551 L 567,551 L 567,550 L 568,550 L 568,549 L 568,548 L 568,547 L 568,546 L 568,545 L 568,544 L 568,543 L 568,542 L 568,541 L 568,540 L 567,540 L 567,539 L 567,538 L 568,538 L 568,537 L 567,536 L 567,535 L 566,534 L 565,533 L 566,533 L 566,532 L 567,532 L 567,531 L 567,530 L 568,530 L 568,529 L 569,528 L 569,527 L 570,526 L 570,525 L 571,524 L 571,523 L 572,523 L 572,522 L 573,521 L 573,520 L 572,520 L 572,519 L 573,519 L 573,518 L 574,518 L 574,517 L 575,516 L 576,516 L 576,515 L 577,515 L 578,514 L 579,513 L 580,513 L 581,512 L 582,512 L 583,512 L 584,513 L 585,513 L 586,513 L 587,513 L 587,512 L 587,511 L 588,511 L 588,510 L 588,509 L 588,508 L 589,507 L 589,506 L 589,505 L 590,504 L 590,503 L 591,502 L 591,501 L 591,500 L 591,499 L 592,499 L 592,498 L 592,497 L 593,497 L 593,496 L 593,495 L 594,495 L 594,494 L 594,493 L 595,493 L 595,492 L 595,491 L 596,491 L 596,490 L 597,490 L 597,489 L 598,489 L 599,488 L 600,488 L 600,489 L 601,489 L 602,489 L 602,490 L 603,490 L 603,491 L 604,491 L 605,491 L 606,491 L 607,491 L 608,491 L 609,491 L 610,492 L 611,492 L 611,493 L 612,493 L 612,494 L 613,494 L 614,495 L 615,495 L 616,495 L 617,495 L 618,494 L 619,494 L 619,495 L 620,495 L 620,496 L 621,496 L 621,495 L 622,495 L 623,495 L 623,494 L 624,494 L 625,494 L 626,494 L 627,494 L 627,493 L 628,493 L 629,493 L 630,493 L 631,493 L 632,493 L 633,493 L 634,493 L 635,493 L 636,493 L 637,493 L 638,493 L 639,493 L 640,493 L 641,493 L 642,493 L 642,494 L 643,494 L 644,494 L 645,494 L 646,494 " />
<path d="M 675,545 L 674,545 L 673,545 L 673,544 L 672,544 L 672,543 L 673,543 L 674,543 L 675,542 L 676,542 L 676,543 L 676,544 L 676,545 L 675,545 " />
<path d="M 670,506 L 669,506 L 670,505 L 670,506 " />
<path d="M 667,540 L 667,541 L 666,541 L 666,540 L 667,540 " />
<path d="M 674,509 L 674,508 L 673,508 L 672,508 L 672,507 L 671,507 L 671,506 L 672,506 L 673,506 L 673,507 L 674,507 L 674,508 L 675,508 L 674,508 L 675,508 L 674,508 L 674,509 " />
<path d="M 681,558 L 680,559 L 679,559 L 679,560 L 678,560 L 678,559 L 679,559 L 679,558 L 679,557 L 680,557 L 680,558 L 681,558 " />
<path d="M 669,507 L 668,507 L 668,506 L 669,506 L 669,507 " />
<path d="M 657,547 L 656,547 L 656,546 L 655,546 L 655,545 L 656,545 L 657,545 L 658,545 L 658,546 L 658,547 L 657,547 " />
</g>
<g id="anatoliki-attiki_6" >
<path d="M 388,189 L 391,189 L 394,188 L 398,188 L 402,188 L 407,188 L 410,189 L 412,190 L 422,192 L 423,194 L 424,199 L 426,201 L 427,202 L 428,202 L 431,201 L 432,200 L 433,200 L 434,198 L 435,198 L 436,198 L 437,197 L 438,197 L 438,196 L 439,196 L 440,196 L 441,195 L 442,195 L 443,195 L 444,195 L 446,194 L 447,194 L 448,194 L 449,194 L 450,194 L 451,194 L 452,193 L 453,193 L 453,192 L 454,192 L 455,192 L 456,192 L 457,192 L 458,192 L 459,192 L 460,192 L 461,191 L 462,191 L 463,191 L 464,191 L 465,191 L 466,191 L 467,192 L 467,193 L 467,194 L 468,194 L 468,195 L 467,197 L 467,198 L 467,199 L 467,200 L 467,201 L 467,202 L 467,203 L 466,204 L 466,205 L 466,206 L 466,207 L 465,207 L 465,208 L 465,209 L 464,209 L 464,210 L 463,211 L 463,212 L 463,213 L 463,214 L 463,216 L 462,218 L 461,219 L 461,220 L 460,221 L 460,222 L 461,222 L 462,222 L 462,223 L 463,223 L 464,223 L 465,223 L 466,224 L 467,224 L 467,225 L 467,226 L 467,227 L 467,228 L 467,229 L 467,230 L 468,230 L 469,230 L 469,231 L 470,231 L 471,231 L 472,231 L 473,231 L 474,231 L 474,232 L 474,233 L 473,233 L 473,234 L 473,235 L 474,236 L 474,237 L 475,239 L 476,239 L 477,240 L 477,241 L 478,241 L 478,242 L 479,242 L 479,243 L 480,243 L 481,243 L 482,243 L 483,242 L 484,242 L 485,242 L 486,243 L 487,243 L 488,244 L 489,245 L 490,245 L 491,247 L 491,248 L 492,248 L 492,249 L 493,250 L 494,250 L 495,250 L 496,249 L 497,249 L 497,250 L 498,250 L 498,251 L 498,252 L 499,252 L 499,253 L 500,253 L 501,254 L 502,254 L 502,255 L 503,255 L 503,256 L 503,257 L 503,258 L 503,259 L 503,260 L 504,261 L 503,262 L 503,263 L 504,263 L 503,263 L 503,264 L 502,264 L 502,265 L 501,265 L 501,266 L 500,266 L 499,267 L 498,267 L 498,268 L 498,269 L 498,270 L 497,271 L 496,271 L 495,272 L 494,272 L 494,273 L 493,273 L 493,274 L 492,275 L 491,275 L 491,276 L 491,277 L 491,278 L 491,279 L 491,280 L 491,281 L 491,282 L 491,283 L 492,284 L 492,285 L 492,286 L 492,287 L 492,288 L 492,289 L 492,290 L 491,291 L 491,292 L 491,293 L 491,294 L 491,295 L 491,296 L 491,297 L 491,298 L 492,299 L 492,300 L 492,301 L 491,301 L 490,301 L 490,302 L 489,302 L 489,303 L 488,303 L 487,303 L 487,304 L 486,304 L 486,305 L 485,306 L 484,307 L 483,307 L 483,308 L 482,308 L 481,308 L 480,309 L 479,311 L 478,311 L 477,311 L 476,311 L 475,311 L 474,311 L 473,312 L 472,313 L 471,313 L 470,313 L 470,314 L 469,314 L 468,314 L 467,314 L 467,315 L 466,315 L 465,315 L 464,315 L 464,316 L 463,316 L 462,316 L 461,317 L 461,318 L 460,319 L 460,320 L 459,321 L 458,322 L 458,323 L 458,324 L 457,325 L 456,325 L 456,326 L 455,326 L 455,327 L 454,327 L 453,327 L 452,328 L 451,328 L 450,329 L 449,330 L 449,331 L 448,332 L 448,333 L 448,334 L 447,334 L 447,335 L 446,335 L 446,336 L 446,337 L 446,338 L 445,338 L 444,338 L 443,338 L 443,339 L 442,340 L 441,341 L 440,341 L 440,342 L 439,342 L 439,343 L 438,343 L 438,344 L 437,344 L 437,345 L 436,345 L 436,346 L 435,347 L 435,348 L 434,349 L 433,350 L 433,351 L 432,351 L 431,352 L 430,352 L 429,355 L 429,356 L 428,357 L 428,359 L 427,360 L 426,361 L 425,363 L 424,363 L 424,364 L 424,365 L 423,366 L 421,367 L 419,369 L 414,366 L 413,365 L 410,358 L 406,355 L 407,350 L 408,347 L 409,341 L 409,339 L 407,340 L 404,341 L 403,339 L 402,337 L 403,336 L 404,334 L 404,330 L 404,326 L 400,318 L 400,314 L 401,311 L 400,310 L 400,309 L 401,307 L 403,306 L 405,305 L 406,303 L 410,300 L 413,299 L 414,298 L 415,296 L 415,293 L 414,288 L 414,286 L 413,285 L 406,283 L 404,281 L 403,280 L 399,279 L 397,276 L 393,276 L 393,274 L 390,269 L 388,268 L 386,267 L 384,264 L 386,263 L 387,262 L 386,261 L 389,259 L 389,258 L 389,255 L 389,253 L 389,252 L 389,250 L 387,245 L 384,240 L 380,236 L 380,234 L 379,233 L 378,227 L 378,224 L 379,222 L 378,218 L 373,215 L 372,215 L 373,211 L 372,205 L 372,201 L 370,198 L 367,193 L 373,188 L 376,185 L 379,183 L 381,186 L 388,189 " />
</g>
<g id="anatoliki-attiki_7" >
<path d="M 650,786 L 651,786 L 650,786 L 649,786 L 650,786 " />
<path d="M 600,781 L 601,781 L 602,781 L 603,781 L 604,781 L 603,782 L 603,783 L 604,783 L 604,784 L 604,785 L 604,786 L 604,787 L 605,787 L 606,787 L 606,788 L 607,788 L 608,788 L 608,789 L 609,789 L 609,790 L 609,791 L 609,792 L 608,793 L 608,794 L 607,794 L 606,794 L 605,794 L 604,794 L 603,794 L 603,795 L 602,795 L 601,795 L 601,794 L 600,794 L 599,794 L 598,794 L 597,794 L 596,794 L 596,793 L 595,793 L 595,794 L 594,794 L 593,794 L 592,794 L 591,794 L 591,793 L 590,793 L 589,793 L 588,793 L 588,792 L 587,791 L 586,791 L 586,790 L 585,789 L 585,788 L 585,787 L 586,787 L 586,786 L 586,785 L 586,784 L 587,784 L 588,783 L 589,783 L 590,783 L 590,782 L 589,782 L 589,781 L 590,781 L 591,781 L 592,782 L 593,782 L 594,782 L 594,781 L 595,781 L 596,781 L 597,781 L 598,781 L 599,781 L 600,781 " />
<path d="M 680,605 L 679,605 L 680,604 L 680,605 " />
<path d="M 681,591 L 680,591 L 681,591 " />
<path d="M 680,587 L 680,588 L 680,589 L 679,589 L 679,590 L 679,591 L 678,591 L 678,592 L 678,593 L 679,593 L 680,594 L 679,594 L 679,595 L 680,595 L 680,596 L 681,595 L 681,596 L 682,596 L 683,596 L 683,595 L 684,596 L 684,595 L 684,596 L 685,595 L 686,595 L 686,596 L 687,596 L 687,597 L 687,598 L 687,599 L 688,600 L 688,601 L 687,601 L 686,601 L 685,601 L 684,601 L 683,601 L 682,602 L 681,602 L 680,602 L 679,602 L 679,603 L 679,604 L 678,604 L 678,605 L 678,606 L 677,606 L 677,607 L 676,607 L 676,608 L 677,608 L 678,608 L 678,609 L 678,610 L 678,611 L 679,611 L 680,611 L 680,610 L 681,610 L 682,611 L 682,612 L 682,613 L 683,613 L 684,613 L 685,613 L 686,614 L 685,614 L 685,615 L 686,615 L 687,615 L 688,615 L 689,615 L 690,615 L 691,615 L 691,616 L 691,617 L 691,618 L 691,619 L 691,620 L 690,621 L 690,622 L 690,623 L 689,623 L 689,624 L 689,625 L 690,625 L 690,626 L 691,626 L 692,626 L 693,626 L 694,626 L 694,625 L 695,624 L 695,625 L 695,626 L 696,626 L 697,626 L 698,626 L 699,626 L 699,627 L 700,627 L 699,627 L 699,628 L 700,628 L 700,629 L 701,629 L 701,630 L 701,631 L 701,632 L 701,631 L 702,631 L 703,631 L 704,631 L 705,631 L 705,632 L 706,632 L 706,633 L 707,633 L 707,634 L 708,634 L 708,635 L 708,636 L 708,637 L 709,637 L 709,638 L 709,639 L 708,639 L 707,639 L 707,640 L 707,641 L 706,641 L 705,641 L 705,642 L 706,642 L 707,642 L 707,643 L 708,643 L 709,643 L 709,644 L 709,645 L 709,646 L 709,647 L 708,647 L 708,648 L 709,648 L 709,649 L 708,649 L 709,649 L 709,650 L 709,651 L 709,652 L 709,653 L 709,654 L 709,655 L 708,655 L 708,654 L 707,654 L 706,654 L 706,655 L 706,656 L 706,657 L 706,658 L 705,658 L 706,658 L 706,659 L 706,660 L 705,660 L 704,660 L 704,661 L 704,662 L 704,663 L 704,664 L 703,664 L 702,664 L 703,664 L 703,665 L 704,665 L 704,666 L 705,666 L 706,667 L 706,668 L 705,668 L 705,669 L 705,670 L 704,670 L 703,670 L 702,670 L 702,671 L 702,672 L 702,673 L 703,673 L 704,673 L 704,674 L 704,675 L 703,675 L 702,675 L 702,674 L 701,673 L 701,674 L 700,674 L 700,675 L 700,676 L 699,676 L 699,677 L 700,677 L 701,677 L 702,677 L 702,678 L 701,678 L 700,678 L 700,679 L 701,679 L 701,680 L 702,680 L 702,681 L 703,681 L 703,682 L 702,682 L 702,683 L 703,683 L 704,683 L 705,684 L 705,685 L 704,685 L 705,685 L 705,686 L 705,687 L 705,688 L 706,688 L 706,689 L 705,689 L 705,690 L 704,690 L 704,691 L 703,690 L 702,690 L 701,690 L 701,689 L 700,689 L 699,689 L 699,688 L 698,688 L 698,689 L 697,689 L 696,689 L 697,690 L 697,691 L 697,690 L 698,691 L 697,691 L 696,691 L 696,690 L 695,690 L 695,689 L 694,689 L 693,689 L 692,689 L 692,690 L 692,691 L 693,691 L 693,692 L 692,692 L 692,693 L 692,694 L 693,694 L 694,693 L 695,693 L 695,694 L 696,694 L 696,695 L 697,695 L 696,696 L 697,696 L 697,697 L 697,698 L 697,699 L 697,700 L 696,700 L 695,699 L 695,698 L 695,697 L 694,696 L 693,696 L 692,696 L 691,696 L 690,696 L 689,696 L 688,696 L 687,697 L 686,698 L 685,698 L 684,698 L 684,699 L 683,700 L 683,701 L 683,702 L 683,701 L 682,702 L 683,703 L 683,702 L 683,703 L 683,704 L 683,705 L 683,706 L 682,706 L 682,707 L 683,707 L 682,707 L 682,708 L 682,709 L 683,709 L 683,710 L 684,711 L 684,712 L 685,712 L 686,712 L 686,713 L 687,713 L 688,713 L 689,713 L 689,712 L 689,711 L 690,711 L 690,712 L 691,712 L 691,713 L 692,714 L 692,715 L 691,715 L 690,715 L 690,716 L 691,717 L 691,718 L 691,719 L 692,719 L 692,720 L 693,720 L 693,721 L 694,722 L 693,722 L 693,723 L 693,722 L 692,722 L 691,722 L 691,721 L 690,721 L 690,722 L 689,722 L 688,722 L 687,722 L 687,723 L 686,722 L 685,722 L 685,723 L 686,724 L 686,723 L 686,724 L 685,724 L 685,725 L 685,726 L 686,727 L 687,727 L 688,727 L 689,728 L 690,729 L 690,730 L 691,730 L 690,730 L 691,730 L 691,731 L 692,732 L 691,732 L 691,733 L 690,733 L 690,734 L 691,734 L 692,734 L 692,735 L 693,735 L 693,736 L 694,736 L 694,737 L 694,738 L 693,738 L 693,739 L 692,739 L 691,739 L 691,738 L 690,738 L 690,737 L 689,736 L 688,736 L 687,736 L 687,737 L 688,737 L 689,738 L 688,739 L 687,739 L 686,739 L 685,739 L 685,740 L 685,741 L 686,741 L 687,741 L 688,741 L 688,742 L 689,743 L 689,744 L 690,744 L 690,745 L 690,746 L 691,746 L 691,747 L 692,747 L 693,747 L 694,747 L 694,748 L 695,748 L 695,749 L 696,749 L 697,748 L 698,748 L 698,749 L 699,749 L 699,750 L 699,751 L 699,752 L 698,752 L 698,753 L 698,754 L 698,755 L 697,754 L 697,755 L 697,756 L 697,757 L 696,757 L 695,757 L 695,756 L 694,756 L 694,755 L 693,755 L 692,755 L 692,756 L 691,756 L 691,757 L 691,758 L 692,758 L 692,759 L 693,759 L 694,759 L 694,760 L 695,760 L 695,761 L 694,761 L 693,761 L 693,760 L 692,760 L 692,761 L 691,761 L 691,760 L 690,760 L 690,761 L 689,761 L 690,762 L 689,762 L 689,761 L 688,761 L 688,762 L 687,762 L 687,763 L 686,763 L 686,762 L 686,761 L 685,760 L 685,759 L 684,759 L 685,759 L 684,759 L 684,758 L 683,758 L 682,758 L 682,759 L 682,760 L 681,760 L 681,761 L 681,762 L 680,763 L 680,764 L 680,765 L 681,765 L 682,766 L 681,766 L 681,767 L 682,767 L 681,768 L 680,768 L 680,767 L 679,767 L 679,768 L 678,768 L 678,769 L 677,769 L 676,769 L 676,768 L 675,768 L 675,769 L 674,769 L 673,769 L 673,770 L 673,771 L 672,771 L 672,772 L 671,772 L 670,772 L 670,773 L 669,773 L 669,774 L 670,774 L 670,775 L 669,776 L 668,776 L 668,777 L 667,777 L 667,778 L 666,778 L 666,779 L 666,780 L 667,780 L 667,781 L 668,781 L 667,781 L 666,782 L 666,783 L 667,783 L 667,784 L 666,784 L 665,784 L 665,783 L 664,784 L 664,785 L 663,785 L 664,786 L 663,786 L 662,786 L 662,787 L 663,787 L 663,788 L 664,789 L 664,790 L 663,790 L 663,789 L 662,789 L 661,789 L 660,789 L 659,789 L 658,789 L 657,789 L 657,788 L 657,787 L 656,787 L 656,786 L 657,786 L 657,785 L 658,785 L 659,785 L 659,784 L 658,784 L 658,783 L 657,783 L 657,782 L 656,782 L 656,781 L 656,780 L 655,780 L 655,781 L 654,780 L 653,780 L 652,780 L 651,780 L 651,781 L 650,781 L 650,782 L 649,782 L 649,783 L 648,783 L 647,783 L 646,783 L 646,782 L 645,782 L 644,782 L 643,782 L 642,782 L 642,781 L 641,781 L 641,780 L 640,780 L 640,779 L 639,779 L 639,778 L 638,778 L 638,777 L 637,777 L 637,776 L 636,776 L 635,776 L 634,776 L 633,776 L 633,775 L 632,775 L 631,775 L 630,775 L 629,775 L 628,775 L 627,775 L 626,775 L 626,776 L 625,776 L 624,777 L 623,778 L 624,779 L 624,780 L 623,780 L 623,781 L 622,782 L 622,781 L 622,780 L 621,780 L 622,780 L 621,779 L 621,778 L 620,778 L 619,778 L 619,777 L 618,776 L 617,776 L 616,776 L 615,776 L 615,775 L 616,774 L 616,773 L 616,772 L 615,772 L 615,771 L 614,771 L 613,771 L 612,771 L 611,771 L 610,771 L 610,772 L 609,772 L 608,772 L 609,771 L 609,770 L 609,769 L 609,768 L 609,767 L 609,766 L 609,765 L 609,764 L 609,763 L 609,762 L 609,761 L 609,760 L 609,759 L 609,758 L 609,757 L 609,756 L 609,755 L 609,754 L 609,753 L 610,752 L 610,751 L 610,750 L 610,749 L 611,749 L 611,748 L 611,747 L 612,747 L 612,746 L 613,745 L 613,744 L 614,743 L 614,742 L 614,741 L 615,741 L 615,740 L 616,739 L 616,738 L 617,738 L 618,737 L 619,737 L 619,736 L 620,736 L 620,735 L 620,734 L 621,734 L 621,733 L 622,733 L 623,733 L 623,732 L 623,731 L 623,730 L 624,729 L 624,728 L 624,727 L 624,726 L 624,725 L 624,724 L 624,723 L 624,722 L 625,722 L 625,721 L 625,720 L 626,719 L 626,718 L 626,717 L 627,716 L 627,715 L 627,714 L 627,713 L 626,713 L 626,712 L 625,712 L 625,711 L 624,710 L 624,709 L 624,708 L 624,707 L 624,706 L 624,705 L 623,705 L 623,704 L 623,703 L 622,703 L 622,702 L 622,701 L 621,701 L 621,700 L 620,699 L 619,699 L 618,699 L 617,699 L 616,699 L 616,698 L 615,698 L 614,697 L 613,696 L 613,695 L 611,693 L 610,693 L 610,692 L 609,692 L 609,691 L 608,691 L 608,690 L 607,689 L 608,689 L 609,689 L 610,689 L 610,688 L 611,688 L 611,687 L 611,686 L 610,686 L 610,685 L 609,685 L 609,684 L 608,684 L 608,683 L 607,683 L 607,682 L 606,682 L 606,681 L 605,681 L 605,680 L 604,680 L 604,679 L 604,678 L 603,678 L 603,677 L 603,676 L 604,676 L 604,675 L 604,674 L 604,673 L 605,673 L 605,672 L 605,671 L 606,671 L 606,670 L 607,669 L 607,668 L 608,668 L 608,667 L 608,666 L 609,666 L 609,665 L 609,664 L 610,664 L 610,663 L 610,662 L 610,661 L 610,660 L 610,659 L 611,658 L 611,657 L 611,656 L 611,655 L 611,654 L 612,654 L 612,653 L 612,652 L 612,651 L 613,650 L 613,649 L 613,648 L 613,647 L 613,646 L 613,645 L 614,645 L 614,644 L 613,643 L 613,642 L 613,641 L 612,641 L 611,640 L 610,640 L 610,639 L 609,639 L 608,639 L 608,638 L 607,638 L 606,637 L 605,637 L 605,636 L 604,636 L 603,635 L 603,634 L 602,634 L 601,633 L 600,632 L 599,631 L 598,631 L 598,630 L 597,630 L 597,629 L 596,629 L 596,628 L 595,627 L 594,626 L 593,625 L 592,625 L 592,624 L 591,623 L 590,623 L 589,622 L 588,622 L 588,621 L 587,621 L 586,621 L 586,620 L 585,620 L 584,620 L 583,620 L 583,619 L 582,619 L 582,618 L 583,618 L 583,617 L 583,616 L 584,615 L 584,614 L 585,613 L 585,612 L 585,611 L 586,611 L 586,610 L 587,610 L 588,610 L 589,610 L 590,609 L 591,609 L 591,608 L 592,609 L 593,609 L 594,610 L 595,610 L 595,611 L 596,611 L 596,612 L 597,612 L 598,613 L 599,613 L 600,613 L 601,613 L 602,613 L 602,612 L 603,611 L 603,610 L 604,609 L 605,609 L 605,610 L 606,610 L 606,611 L 607,611 L 607,610 L 608,610 L 608,611 L 609,611 L 610,611 L 611,611 L 611,612 L 612,612 L 612,613 L 613,613 L 614,614 L 614,613 L 614,612 L 615,612 L 615,611 L 615,610 L 615,609 L 616,609 L 616,608 L 616,607 L 617,607 L 618,607 L 619,607 L 620,607 L 621,607 L 622,608 L 623,608 L 623,609 L 624,609 L 625,610 L 626,610 L 626,611 L 627,611 L 627,612 L 628,612 L 629,612 L 629,611 L 630,610 L 630,609 L 631,609 L 631,608 L 632,607 L 632,606 L 633,606 L 633,605 L 634,604 L 635,603 L 635,602 L 636,602 L 636,601 L 637,601 L 637,600 L 638,599 L 639,599 L 640,599 L 641,598 L 642,598 L 642,597 L 643,597 L 644,597 L 645,597 L 646,597 L 646,598 L 647,598 L 648,599 L 649,599 L 649,600 L 650,600 L 651,599 L 652,599 L 652,598 L 653,598 L 653,597 L 654,597 L 654,596 L 655,596 L 655,595 L 656,594 L 657,593 L 658,592 L 659,591 L 660,590 L 660,589 L 661,589 L 661,588 L 662,588 L 662,587 L 663,587 L 663,586 L 664,586 L 665,586 L 666,585 L 667,585 L 667,584 L 668,584 L 669,583 L 670,583 L 671,583 L 671,582 L 672,582 L 673,581 L 674,581 L 674,580 L 675,580 L 675,579 L 676,579 L 677,578 L 678,577 L 679,576 L 679,575 L 680,575 L 681,575 L 681,574 L 682,574 L 683,573 L 684,573 L 684,572 L 685,572 L 686,571 L 686,572 L 685,573 L 685,574 L 685,575 L 684,575 L 683,576 L 683,577 L 683,578 L 684,578 L 683,579 L 684,579 L 683,580 L 683,581 L 683,582 L 682,582 L 682,583 L 682,584 L 681,584 L 681,585 L 680,585 L 680,586 L 679,586 L 680,586 L 680,587 " />
</g>
<g id="anatoliki-attiki_8" >
<path d="M 444,655 L 444,656 L 444,657 L 445,657 L 445,656 L 445,657 L 446,657 L 446,658 L 445,658 L 445,659 L 444,659 L 443,659 L 442,659 L 443,659 L 443,660 L 444,660 L 444,661 L 444,662 L 445,662 L 445,663 L 444,663 L 444,664 L 444,665 L 443,665 L 444,665 L 444,666 L 445,666 L 445,667 L 444,667 L 444,666 L 443,666 L 443,667 L 442,667 L 442,668 L 441,668 L 441,669 L 440,669 L 440,668 L 439,668 L 439,669 L 438,669 L 437,669 L 438,669 L 437,670 L 436,670 L 436,669 L 435,669 L 436,669 L 435,669 L 435,668 L 435,667 L 436,667 L 435,667 L 435,666 L 435,667 L 434,667 L 433,667 L 433,666 L 433,665 L 434,665 L 434,664 L 435,664 L 434,664 L 433,663 L 432,663 L 432,662 L 431,662 L 432,662 L 433,662 L 434,662 L 435,662 L 434,662 L 435,662 L 435,663 L 436,663 L 437,663 L 438,663 L 437,662 L 437,661 L 437,660 L 436,660 L 435,660 L 434,660 L 434,659 L 435,659 L 435,658 L 435,657 L 435,656 L 436,656 L 437,656 L 438,656 L 439,656 L 440,656 L 440,655 L 441,655 L 442,655 L 442,656 L 442,655 L 443,655 L 444,655 " />
<path d="M 445,653 L 445,654 L 445,653 L 444,653 L 444,652 L 445,651 L 445,652 L 445,653 " />
<path d="M 491,641 L 492,641 L 492,642 L 491,642 L 491,641 L 491,640 L 492,640 L 491,641 " />
<path d="M 446,637 L 445,637 L 445,636 L 446,637 " />
<path d="M 478,637 L 478,636 L 478,637 " />
<path d="M 480,634 L 479,634 L 479,633 L 480,633 L 480,634 " />
<path d="M 433,616 L 434,616 L 433,616 " />
<path d="M 440,612 L 439,612 L 440,612 " />
<path d="M 446,597 L 445,597 L 446,597 " />
<path d="M 446,596 L 445,596 L 446,596 " />
<path d="M 424,593 L 423,593 L 424,593 " />
<path d="M 427,592 L 428,592 L 429,592 L 429,593 L 428,593 L 427,593 L 427,594 L 426,594 L 427,594 L 426,594 L 425,594 L 425,593 L 426,592 L 426,591 L 427,591 L 427,592 " />
<path d="M 415,589 L 415,588 L 415,589 " />
<path d="M 473,554 L 473,555 L 474,556 L 474,557 L 475,558 L 475,559 L 476,560 L 476,561 L 476,562 L 476,563 L 476,564 L 476,565 L 476,566 L 476,567 L 477,567 L 478,567 L 479,567 L 479,568 L 480,568 L 481,568 L 481,569 L 482,569 L 482,570 L 483,570 L 483,571 L 484,571 L 484,572 L 485,572 L 485,573 L 485,574 L 484,574 L 484,575 L 483,575 L 483,576 L 482,576 L 482,577 L 481,577 L 481,578 L 481,579 L 481,580 L 482,580 L 482,581 L 482,582 L 483,583 L 483,584 L 484,584 L 485,584 L 486,584 L 486,585 L 487,585 L 488,585 L 488,586 L 489,586 L 490,586 L 490,585 L 491,585 L 492,585 L 492,584 L 493,584 L 494,584 L 494,583 L 495,583 L 495,582 L 496,582 L 497,582 L 497,581 L 498,581 L 499,581 L 500,580 L 501,580 L 502,580 L 503,580 L 504,580 L 504,581 L 505,581 L 505,582 L 505,583 L 506,584 L 506,585 L 507,585 L 507,586 L 507,587 L 506,587 L 506,588 L 505,589 L 504,590 L 503,591 L 503,592 L 502,592 L 502,593 L 501,593 L 501,594 L 501,595 L 500,595 L 500,596 L 499,596 L 498,597 L 498,598 L 497,598 L 497,599 L 496,599 L 496,600 L 496,601 L 495,601 L 495,602 L 495,603 L 494,604 L 494,605 L 494,606 L 493,607 L 493,608 L 493,609 L 493,610 L 493,611 L 493,612 L 493,613 L 493,614 L 493,615 L 493,616 L 493,617 L 493,618 L 494,618 L 494,619 L 494,620 L 494,621 L 494,620 L 493,620 L 492,620 L 492,619 L 491,619 L 491,618 L 490,618 L 490,617 L 490,616 L 490,617 L 489,616 L 489,615 L 488,615 L 488,614 L 488,613 L 487,613 L 487,612 L 486,611 L 485,611 L 485,610 L 484,610 L 484,609 L 483,609 L 483,610 L 482,610 L 481,610 L 480,610 L 479,610 L 478,610 L 477,610 L 476,611 L 475,611 L 475,612 L 474,612 L 474,613 L 473,613 L 473,614 L 473,615 L 473,616 L 473,617 L 473,618 L 472,618 L 472,619 L 472,620 L 472,621 L 473,622 L 473,623 L 472,623 L 472,624 L 472,625 L 471,625 L 471,626 L 471,627 L 470,627 L 470,628 L 470,629 L 470,630 L 469,631 L 468,631 L 468,630 L 467,630 L 467,631 L 466,631 L 465,630 L 465,631 L 464,632 L 463,632 L 463,631 L 462,631 L 462,630 L 462,631 L 462,632 L 463,632 L 463,633 L 462,633 L 462,634 L 462,635 L 462,634 L 461,634 L 460,634 L 460,633 L 460,632 L 459,631 L 459,630 L 460,629 L 461,629 L 461,628 L 460,628 L 460,629 L 459,628 L 459,627 L 459,626 L 458,626 L 458,625 L 459,625 L 459,624 L 458,624 L 458,623 L 457,623 L 457,622 L 456,622 L 456,621 L 456,620 L 456,619 L 457,619 L 456,618 L 456,619 L 456,618 L 455,617 L 454,617 L 453,617 L 452,617 L 452,618 L 451,618 L 451,619 L 450,619 L 450,620 L 450,621 L 451,621 L 452,621 L 452,622 L 451,623 L 451,624 L 450,623 L 450,624 L 450,625 L 450,626 L 449,626 L 450,626 L 450,627 L 449,627 L 449,628 L 450,628 L 450,627 L 451,627 L 451,628 L 450,628 L 450,629 L 449,629 L 448,629 L 449,629 L 449,630 L 449,629 L 449,630 L 450,631 L 449,631 L 450,631 L 450,632 L 450,633 L 451,633 L 450,633 L 450,634 L 450,633 L 449,633 L 448,633 L 447,633 L 447,632 L 448,632 L 448,631 L 447,631 L 446,630 L 445,629 L 444,629 L 444,628 L 444,627 L 443,627 L 443,626 L 444,626 L 445,626 L 445,625 L 446,625 L 447,625 L 448,625 L 449,624 L 448,624 L 448,623 L 449,623 L 449,622 L 449,621 L 449,620 L 449,619 L 448,619 L 447,619 L 447,618 L 447,617 L 446,617 L 446,616 L 445,616 L 445,617 L 444,617 L 444,616 L 443,616 L 443,617 L 442,617 L 441,617 L 441,616 L 440,616 L 440,617 L 439,617 L 438,617 L 437,617 L 436,617 L 435,617 L 435,616 L 436,616 L 436,615 L 436,614 L 437,614 L 437,613 L 438,613 L 439,613 L 440,613 L 441,613 L 441,612 L 441,613 L 442,613 L 443,613 L 444,613 L 444,612 L 445,612 L 445,611 L 446,610 L 446,609 L 446,608 L 446,607 L 446,606 L 446,605 L 447,604 L 447,603 L 447,602 L 447,601 L 447,600 L 447,599 L 446,599 L 447,599 L 447,598 L 446,598 L 446,597 L 446,596 L 446,595 L 445,594 L 445,593 L 444,593 L 444,594 L 443,593 L 443,592 L 442,592 L 442,591 L 441,591 L 441,590 L 440,590 L 440,589 L 439,589 L 439,590 L 438,590 L 438,589 L 438,588 L 437,587 L 436,587 L 436,586 L 435,586 L 435,585 L 435,584 L 434,584 L 434,583 L 433,582 L 433,581 L 432,581 L 432,580 L 431,579 L 430,579 L 430,578 L 429,578 L 428,578 L 427,578 L 426,578 L 425,578 L 425,579 L 424,579 L 423,579 L 423,580 L 422,580 L 421,579 L 422,579 L 422,578 L 423,578 L 423,577 L 424,576 L 424,575 L 425,575 L 425,574 L 430,574 L 431,574 L 432,574 L 433,574 L 434,574 L 435,574 L 436,574 L 437,574 L 438,574 L 439,574 L 440,574 L 441,574 L 442,574 L 443,574 L 444,574 L 445,574 L 446,574 L 447,574 L 448,574 L 449,574 L 450,574 L 450,573 L 451,572 L 451,571 L 452,571 L 452,570 L 453,570 L 453,569 L 454,569 L 455,568 L 456,568 L 456,567 L 457,566 L 458,565 L 459,565 L 460,565 L 461,564 L 462,564 L 462,563 L 463,563 L 463,562 L 463,561 L 464,560 L 464,559 L 465,558 L 465,557 L 466,556 L 466,555 L 467,555 L 467,554 L 468,554 L 468,553 L 469,553 L 469,552 L 470,552 L 471,552 L 472,552 L 472,553 L 473,554 " />
</g>
<g id="anatoliki-attiki_9" >
<path d="M 484,478 L 484,479 L 484,480 L 485,481 L 485,482 L 485,483 L 486,484 L 486,485 L 486,486 L 487,487 L 487,488 L 488,488 L 488,489 L 489,490 L 489,491 L 490,491 L 490,492 L 490,493 L 491,493 L 491,494 L 492,494 L 492,495 L 493,495 L 494,496 L 495,496 L 496,496 L 497,496 L 498,496 L 498,495 L 499,495 L 500,495 L 500,494 L 501,494 L 502,494 L 503,494 L 503,493 L 504,493 L 504,492 L 505,492 L 505,491 L 506,491 L 506,490 L 507,489 L 508,489 L 509,488 L 510,488 L 510,487 L 511,487 L 512,486 L 513,485 L 513,484 L 514,484 L 514,483 L 514,482 L 515,481 L 515,480 L 515,479 L 516,479 L 516,478 L 516,477 L 516,476 L 517,476 L 518,476 L 519,476 L 520,476 L 521,476 L 522,476 L 523,476 L 524,476 L 525,476 L 526,476 L 527,477 L 528,478 L 528,479 L 529,479 L 530,480 L 530,481 L 531,481 L 531,482 L 532,483 L 533,484 L 534,484 L 534,485 L 535,486 L 536,486 L 536,487 L 537,487 L 537,488 L 538,489 L 539,490 L 539,491 L 540,492 L 541,493 L 542,494 L 543,495 L 543,496 L 544,497 L 544,498 L 544,499 L 545,500 L 545,501 L 545,502 L 546,502 L 546,503 L 547,503 L 548,503 L 549,504 L 550,504 L 551,504 L 552,504 L 553,504 L 554,504 L 555,504 L 556,504 L 556,505 L 557,505 L 558,505 L 559,505 L 560,505 L 561,505 L 562,504 L 563,504 L 564,504 L 564,505 L 565,505 L 566,505 L 567,505 L 568,505 L 569,505 L 570,506 L 571,506 L 572,506 L 573,506 L 574,506 L 574,505 L 575,505 L 575,506 L 576,506 L 577,506 L 577,507 L 578,507 L 579,508 L 579,509 L 580,509 L 580,510 L 581,510 L 581,511 L 581,512 L 582,512 L 581,512 L 580,513 L 579,513 L 578,514 L 577,515 L 576,515 L 576,516 L 575,516 L 574,517 L 574,518 L 573,518 L 573,519 L 572,519 L 572,520 L 573,520 L 573,521 L 572,522 L 572,523 L 571,523 L 571,524 L 570,525 L 570,526 L 569,527 L 569,528 L 568,529 L 568,530 L 567,530 L 567,531 L 567,532 L 566,532 L 566,533 L 565,533 L 566,534 L 567,535 L 567,536 L 568,537 L 568,538 L 567,538 L 567,539 L 567,540 L 568,540 L 568,541 L 568,542 L 568,543 L 568,544 L 568,545 L 568,546 L 568,547 L 568,548 L 568,549 L 568,550 L 567,550 L 567,551 L 566,551 L 566,552 L 565,552 L 565,553 L 564,553 L 564,554 L 563,554 L 562,555 L 561,555 L 560,556 L 559,557 L 558,557 L 557,557 L 556,557 L 556,558 L 555,558 L 554,558 L 553,558 L 553,559 L 552,559 L 551,559 L 551,560 L 550,560 L 549,560 L 548,560 L 547,560 L 546,560 L 545,560 L 544,560 L 543,560 L 543,561 L 542,562 L 543,562 L 543,563 L 543,564 L 543,565 L 543,566 L 543,567 L 543,568 L 543,569 L 543,570 L 543,571 L 543,572 L 543,573 L 543,574 L 543,575 L 543,576 L 543,577 L 542,577 L 542,578 L 542,579 L 543,579 L 544,579 L 545,579 L 546,579 L 547,579 L 548,579 L 548,580 L 548,581 L 548,582 L 549,583 L 549,584 L 549,585 L 549,586 L 549,587 L 549,588 L 549,589 L 549,590 L 549,591 L 549,592 L 548,592 L 548,593 L 548,594 L 548,595 L 548,596 L 548,597 L 548,598 L 547,599 L 547,600 L 546,601 L 545,601 L 544,601 L 544,602 L 543,602 L 542,602 L 541,603 L 540,603 L 540,604 L 540,605 L 539,605 L 539,606 L 538,607 L 538,608 L 538,609 L 537,610 L 537,611 L 536,612 L 536,613 L 535,614 L 535,615 L 534,616 L 534,617 L 533,618 L 533,619 L 532,619 L 532,620 L 531,621 L 531,622 L 530,622 L 530,623 L 529,624 L 529,625 L 528,625 L 528,626 L 528,627 L 527,627 L 527,628 L 526,629 L 525,629 L 524,629 L 523,629 L 523,628 L 522,628 L 521,628 L 520,628 L 519,628 L 518,628 L 518,627 L 517,627 L 516,627 L 516,626 L 515,626 L 515,625 L 514,625 L 514,626 L 513,626 L 513,625 L 512,625 L 512,624 L 512,623 L 511,623 L 510,623 L 510,622 L 510,621 L 509,621 L 509,620 L 509,619 L 508,619 L 508,618 L 508,617 L 507,617 L 507,616 L 506,616 L 504,616 L 503,616 L 502,616 L 501,615 L 501,614 L 502,614 L 502,613 L 502,612 L 501,611 L 500,612 L 500,613 L 500,614 L 500,615 L 500,616 L 499,617 L 498,617 L 499,617 L 499,618 L 500,619 L 499,620 L 498,621 L 497,621 L 496,621 L 495,621 L 494,621 L 494,620 L 494,619 L 494,618 L 493,618 L 493,617 L 493,616 L 493,615 L 493,614 L 493,613 L 493,612 L 493,611 L 493,610 L 493,609 L 493,608 L 493,607 L 494,606 L 494,605 L 494,604 L 495,603 L 495,602 L 495,601 L 496,601 L 496,600 L 496,599 L 497,599 L 497,598 L 498,598 L 498,597 L 499,596 L 500,596 L 500,595 L 501,595 L 501,594 L 501,593 L 502,593 L 502,592 L 503,592 L 503,591 L 504,590 L 505,589 L 506,588 L 506,587 L 507,587 L 507,586 L 507,585 L 506,585 L 506,584 L 505,583 L 505,582 L 505,581 L 504,581 L 504,580 L 503,580 L 502,580 L 501,580 L 500,580 L 499,581 L 498,581 L 497,581 L 497,582 L 496,582 L 495,582 L 495,583 L 494,583 L 494,584 L 493,584 L 492,584 L 492,585 L 491,585 L 490,585 L 490,586 L 489,586 L 488,586 L 488,585 L 487,585 L 486,585 L 486,584 L 485,584 L 484,584 L 483,584 L 483,583 L 482,582 L 482,581 L 482,580 L 481,580 L 481,579 L 481,578 L 481,577 L 482,577 L 482,576 L 483,576 L 483,575 L 484,575 L 484,574 L 485,574 L 485,573 L 485,572 L 484,572 L 484,571 L 483,571 L 483,570 L 482,570 L 482,569 L 481,569 L 481,568 L 480,568 L 479,568 L 479,567 L 478,567 L 477,567 L 476,567 L 476,566 L 476,565 L 476,564 L 476,563 L 476,562 L 476,561 L 476,560 L 475,559 L 475,558 L 474,557 L 474,556 L 473,555 L 473,554 L 472,553 L 472,552 L 471,552 L 470,552 L 469,552 L 469,553 L 468,553 L 468,554 L 467,554 L 467,553 L 466,553 L 466,552 L 466,551 L 465,551 L 465,550 L 465,549 L 465,548 L 464,548 L 464,547 L 464,546 L 465,546 L 465,545 L 466,545 L 466,544 L 467,543 L 468,543 L 468,542 L 469,542 L 470,541 L 471,541 L 471,540 L 472,540 L 472,539 L 473,539 L 474,538 L 475,538 L 475,537 L 476,537 L 477,536 L 478,536 L 478,535 L 479,535 L 479,534 L 480,534 L 481,533 L 480,532 L 480,531 L 480,530 L 479,530 L 479,529 L 479,528 L 478,528 L 478,527 L 477,526 L 476,526 L 475,526 L 475,525 L 475,524 L 474,524 L 474,523 L 474,522 L 474,521 L 473,520 L 473,519 L 473,518 L 473,517 L 472,516 L 473,516 L 473,515 L 474,514 L 474,513 L 475,513 L 475,512 L 476,511 L 476,510 L 477,509 L 477,508 L 477,507 L 477,506 L 478,506 L 478,505 L 477,505 L 477,504 L 476,503 L 476,502 L 475,502 L 475,501 L 475,500 L 475,499 L 475,498 L 475,497 L 475,496 L 475,495 L 474,494 L 474,493 L 473,493 L 473,492 L 473,491 L 472,490 L 472,489 L 472,488 L 473,488 L 473,487 L 473,486 L 474,486 L 475,486 L 475,485 L 476,485 L 476,484 L 477,484 L 478,483 L 479,483 L 479,482 L 480,482 L 481,481 L 482,480 L 483,479 L 483,478 L 484,478 " />
<path d="M 508,625 L 508,624 L 509,624 L 509,623 L 510,623 L 510,624 L 509,624 L 509,625 L 508,625 " />
</g>
<g id="anatoliki-attiki_10" >
<path d="M 562,379 L 563,379 L 564,379 L 565,379 L 567,379 L 567,380 L 568,380 L 569,380 L 570,380 L 571,380 L 572,380 L 573,380 L 574,380 L 575,381 L 576,381 L 576,382 L 577,382 L 578,382 L 579,382 L 579,383 L 580,383 L 581,383 L 583,382 L 584,382 L 585,382 L 586,382 L 586,381 L 587,381 L 588,382 L 589,382 L 590,383 L 591,384 L 592,384 L 592,385 L 593,385 L 594,386 L 594,385 L 595,385 L 596,384 L 597,383 L 598,383 L 599,383 L 599,382 L 600,382 L 601,382 L 601,381 L 602,381 L 603,381 L 604,380 L 605,380 L 605,379 L 606,379 L 607,379 L 607,378 L 608,378 L 609,378 L 609,377 L 609,378 L 610,378 L 611,379 L 612,380 L 613,380 L 614,381 L 615,381 L 616,381 L 617,380 L 617,381 L 618,381 L 619,381 L 620,381 L 621,381 L 622,381 L 623,381 L 624,381 L 624,382 L 625,382 L 625,383 L 626,384 L 627,384 L 628,384 L 629,384 L 630,384 L 631,384 L 632,384 L 632,383 L 633,383 L 633,382 L 634,382 L 634,381 L 635,381 L 635,380 L 636,380 L 637,380 L 637,379 L 638,379 L 639,379 L 640,379 L 639,379 L 639,380 L 639,381 L 639,382 L 640,382 L 640,383 L 639,384 L 639,385 L 638,385 L 638,386 L 638,387 L 639,387 L 639,388 L 640,388 L 641,389 L 641,390 L 642,390 L 642,391 L 643,391 L 643,392 L 644,392 L 645,393 L 645,394 L 646,394 L 646,395 L 646,396 L 646,397 L 647,398 L 646,398 L 645,398 L 645,399 L 646,399 L 646,400 L 647,400 L 647,401 L 648,401 L 648,402 L 649,402 L 650,403 L 651,403 L 651,402 L 652,403 L 653,403 L 653,404 L 654,404 L 654,405 L 654,406 L 654,407 L 654,408 L 653,409 L 654,409 L 654,410 L 654,411 L 655,411 L 655,412 L 656,412 L 657,412 L 657,411 L 658,411 L 658,412 L 659,412 L 658,412 L 658,413 L 658,414 L 658,415 L 659,415 L 659,416 L 659,417 L 659,418 L 658,418 L 658,419 L 658,420 L 658,421 L 657,421 L 656,421 L 655,421 L 654,421 L 653,421 L 652,421 L 651,421 L 650,421 L 649,421 L 648,421 L 647,421 L 646,421 L 645,421 L 644,421 L 644,422 L 643,422 L 642,422 L 638,422 L 635,423 L 635,422 L 634,422 L 633,421 L 631,421 L 630,421 L 630,420 L 629,420 L 628,420 L 626,419 L 625,419 L 624,418 L 623,417 L 622,416 L 621,415 L 620,415 L 620,414 L 619,414 L 619,413 L 618,413 L 617,413 L 617,412 L 616,412 L 615,411 L 614,411 L 614,410 L 613,410 L 612,411 L 611,411 L 611,412 L 610,413 L 609,413 L 609,414 L 608,414 L 607,414 L 606,414 L 605,414 L 604,414 L 603,414 L 602,414 L 602,415 L 602,416 L 602,417 L 602,418 L 601,418 L 600,418 L 600,419 L 599,419 L 599,420 L 598,421 L 598,422 L 597,422 L 597,423 L 596,423 L 595,423 L 595,424 L 594,424 L 593,424 L 592,425 L 591,425 L 590,425 L 589,425 L 588,425 L 587,425 L 587,424 L 586,424 L 586,423 L 585,423 L 584,423 L 583,423 L 582,423 L 581,423 L 580,422 L 580,423 L 579,423 L 579,422 L 578,422 L 578,421 L 577,421 L 576,420 L 575,420 L 575,419 L 574,419 L 573,418 L 572,416 L 571,416 L 571,415 L 570,414 L 569,413 L 568,412 L 568,411 L 567,410 L 566,409 L 566,408 L 566,407 L 566,406 L 566,405 L 567,403 L 567,402 L 566,402 L 566,401 L 565,400 L 564,400 L 564,401 L 563,401 L 562,402 L 561,402 L 561,403 L 560,403 L 559,404 L 558,404 L 556,404 L 556,405 L 555,405 L 554,405 L 554,404 L 553,404 L 553,403 L 553,402 L 552,401 L 552,400 L 551,399 L 551,398 L 551,397 L 551,396 L 550,396 L 550,395 L 550,394 L 549,393 L 549,392 L 549,390 L 549,389 L 549,388 L 549,386 L 549,385 L 549,384 L 549,383 L 550,382 L 550,380 L 550,379 L 550,378 L 549,377 L 551,377 L 551,376 L 552,376 L 553,376 L 554,376 L 555,376 L 556,375 L 556,376 L 558,376 L 559,376 L 560,377 L 560,378 L 561,378 L 561,379 L 562,379 " />
</g>
<g id="anatoliki-attiki_11" >
<path d="M 509,410 L 510,410 L 511,410 L 512,410 L 513,411 L 514,411 L 516,411 L 517,411 L 518,412 L 519,412 L 520,412 L 521,413 L 522,413 L 523,413 L 524,413 L 524,414 L 525,414 L 526,414 L 527,414 L 528,415 L 527,416 L 527,417 L 527,418 L 526,418 L 526,419 L 526,420 L 526,421 L 526,422 L 526,423 L 527,423 L 527,424 L 527,425 L 527,426 L 527,427 L 527,428 L 526,428 L 526,429 L 525,429 L 524,429 L 523,429 L 523,428 L 523,427 L 522,426 L 522,425 L 521,425 L 520,425 L 519,425 L 519,426 L 520,427 L 520,428 L 520,429 L 520,430 L 519,431 L 519,432 L 518,432 L 517,431 L 516,431 L 516,430 L 515,430 L 514,429 L 513,429 L 513,430 L 514,430 L 514,431 L 514,432 L 514,433 L 514,434 L 514,435 L 514,436 L 514,437 L 515,437 L 515,438 L 515,439 L 515,440 L 515,441 L 516,441 L 516,442 L 516,443 L 516,444 L 517,444 L 517,445 L 517,446 L 517,445 L 518,445 L 519,445 L 520,445 L 520,446 L 521,446 L 522,446 L 523,446 L 524,446 L 525,446 L 526,446 L 526,445 L 527,444 L 527,443 L 528,443 L 528,442 L 529,442 L 529,441 L 529,440 L 529,439 L 529,438 L 530,437 L 530,436 L 530,435 L 531,434 L 531,433 L 531,434 L 532,434 L 532,433 L 533,433 L 532,432 L 532,431 L 533,430 L 533,429 L 534,429 L 534,430 L 535,430 L 536,431 L 537,432 L 538,432 L 539,432 L 539,433 L 540,433 L 541,434 L 542,434 L 543,435 L 544,435 L 544,436 L 545,436 L 545,437 L 546,437 L 547,436 L 548,435 L 549,434 L 550,434 L 551,434 L 552,434 L 553,434 L 553,435 L 554,435 L 554,436 L 554,437 L 554,438 L 554,439 L 554,440 L 553,440 L 553,439 L 552,439 L 551,439 L 551,440 L 550,440 L 550,441 L 551,441 L 551,442 L 552,442 L 552,443 L 553,443 L 553,444 L 552,445 L 552,446 L 551,446 L 551,447 L 550,447 L 550,448 L 549,448 L 548,449 L 547,449 L 547,450 L 546,450 L 545,450 L 544,450 L 543,451 L 543,452 L 542,452 L 542,453 L 541,454 L 541,455 L 541,456 L 542,456 L 542,457 L 543,457 L 544,457 L 545,458 L 546,458 L 546,459 L 547,459 L 547,460 L 547,461 L 547,462 L 547,463 L 547,464 L 547,465 L 548,465 L 548,466 L 549,466 L 550,466 L 551,466 L 552,467 L 553,467 L 554,467 L 555,468 L 556,468 L 557,468 L 557,469 L 558,469 L 559,469 L 559,470 L 560,470 L 561,470 L 561,471 L 562,471 L 563,471 L 563,472 L 564,472 L 565,473 L 566,473 L 566,474 L 567,474 L 567,475 L 568,475 L 568,476 L 569,477 L 569,478 L 569,479 L 570,479 L 570,480 L 571,481 L 572,482 L 573,483 L 574,484 L 575,485 L 576,486 L 577,486 L 577,487 L 578,488 L 579,488 L 579,489 L 580,490 L 581,490 L 581,491 L 582,492 L 583,493 L 584,494 L 585,495 L 586,495 L 586,496 L 587,496 L 587,497 L 588,497 L 589,497 L 590,498 L 591,498 L 592,499 L 591,499 L 591,500 L 591,501 L 591,502 L 590,503 L 590,504 L 589,505 L 589,506 L 589,507 L 588,508 L 588,509 L 588,510 L 588,511 L 587,511 L 587,512 L 587,513 L 586,513 L 585,513 L 584,513 L 583,512 L 582,512 L 581,512 L 581,511 L 581,510 L 580,510 L 580,509 L 579,509 L 579,508 L 578,507 L 577,507 L 577,506 L 576,506 L 575,506 L 575,505 L 574,505 L 574,506 L 573,506 L 572,506 L 571,506 L 570,506 L 569,505 L 568,505 L 567,505 L 566,505 L 565,505 L 564,505 L 564,504 L 563,504 L 562,504 L 561,505 L 560,505 L 559,505 L 558,505 L 557,505 L 556,505 L 556,504 L 555,504 L 554,504 L 553,504 L 552,504 L 551,504 L 550,504 L 549,504 L 548,503 L 547,503 L 546,503 L 546,502 L 545,502 L 545,501 L 545,500 L 544,499 L 544,498 L 544,497 L 543,496 L 543,495 L 542,494 L 541,493 L 540,492 L 539,491 L 539,490 L 538,489 L 537,488 L 537,487 L 536,487 L 536,486 L 535,486 L 534,485 L 534,484 L 533,484 L 532,483 L 531,482 L 531,481 L 530,481 L 530,480 L 529,479 L 528,479 L 528,478 L 527,477 L 526,476 L 525,476 L 524,476 L 523,476 L 522,476 L 521,476 L 520,476 L 519,476 L 518,476 L 517,476 L 516,476 L 516,477 L 516,478 L 516,479 L 515,479 L 515,480 L 515,481 L 514,482 L 514,483 L 514,484 L 513,484 L 513,485 L 512,486 L 511,487 L 510,487 L 510,488 L 509,488 L 508,489 L 507,489 L 506,490 L 506,491 L 505,491 L 505,492 L 504,492 L 504,493 L 503,493 L 503,494 L 502,494 L 501,494 L 500,494 L 500,495 L 499,495 L 498,495 L 498,496 L 497,496 L 496,496 L 495,496 L 494,496 L 493,495 L 492,495 L 492,494 L 491,494 L 491,493 L 490,493 L 490,492 L 490,491 L 489,491 L 489,490 L 488,489 L 488,488 L 487,488 L 487,487 L 486,486 L 486,485 L 486,484 L 485,483 L 485,482 L 485,481 L 484,480 L 484,479 L 484,478 L 484,477 L 484,476 L 485,476 L 485,475 L 485,474 L 486,474 L 486,473 L 486,472 L 486,471 L 487,471 L 487,470 L 487,469 L 487,468 L 487,467 L 488,466 L 488,465 L 488,464 L 488,463 L 488,462 L 488,461 L 488,460 L 488,459 L 488,458 L 488,457 L 488,456 L 488,455 L 488,454 L 489,454 L 489,453 L 489,452 L 489,451 L 490,450 L 490,449 L 490,448 L 491,448 L 491,447 L 492,447 L 492,446 L 492,445 L 493,445 L 493,444 L 493,443 L 493,442 L 493,441 L 494,440 L 494,439 L 494,438 L 494,437 L 494,436 L 494,435 L 495,434 L 495,433 L 495,432 L 495,431 L 495,430 L 496,430 L 496,429 L 496,428 L 497,427 L 497,426 L 498,426 L 499,425 L 500,424 L 501,424 L 501,423 L 502,423 L 502,422 L 502,421 L 502,420 L 502,419 L 502,418 L 503,417 L 504,416 L 505,416 L 506,416 L 506,415 L 506,414 L 506,413 L 506,412 L 506,411 L 506,410 L 505,410 L 504,410 L 504,409 L 505,409 L 506,409 L 507,410 L 508,410 L 509,410 " />
</g>
<g id="anatoliki-attiki_12" >
<path d="M 563,254 L 564,254 L 565,254 L 565,255 L 566,255 L 567,255 L 567,256 L 567,257 L 568,257 L 568,258 L 569,258 L 570,258 L 570,257 L 570,256 L 571,256 L 572,256 L 573,257 L 573,258 L 574,259 L 575,260 L 576,260 L 577,261 L 578,261 L 578,262 L 579,262 L 580,262 L 580,263 L 581,263 L 582,263 L 582,264 L 582,265 L 583,266 L 583,267 L 582,268 L 582,269 L 582,270 L 583,271 L 583,272 L 583,273 L 582,274 L 582,275 L 582,276 L 583,277 L 583,278 L 583,279 L 583,280 L 584,280 L 584,281 L 585,281 L 585,282 L 586,282 L 587,283 L 588,283 L 589,284 L 590,284 L 591,285 L 592,286 L 592,287 L 592,288 L 592,289 L 592,290 L 592,291 L 592,292 L 593,292 L 593,293 L 592,293 L 592,294 L 591,294 L 590,295 L 589,295 L 589,294 L 588,294 L 588,295 L 587,295 L 588,296 L 588,297 L 587,297 L 586,297 L 585,297 L 585,298 L 584,298 L 584,299 L 583,299 L 583,300 L 584,300 L 583,301 L 582,301 L 581,301 L 581,302 L 580,303 L 580,304 L 579,305 L 579,306 L 579,307 L 578,308 L 578,309 L 577,309 L 577,310 L 576,310 L 575,310 L 575,311 L 574,311 L 574,312 L 573,313 L 573,314 L 573,315 L 574,316 L 574,317 L 575,317 L 576,318 L 576,320 L 577,321 L 577,322 L 578,322 L 578,323 L 579,323 L 579,324 L 580,324 L 580,325 L 580,326 L 581,326 L 582,327 L 582,328 L 582,329 L 582,330 L 583,331 L 583,332 L 583,333 L 583,334 L 583,335 L 583,336 L 583,337 L 583,338 L 583,339 L 583,340 L 583,341 L 583,342 L 583,343 L 583,344 L 583,345 L 583,346 L 582,346 L 581,346 L 580,346 L 579,346 L 578,346 L 577,346 L 576,346 L 575,346 L 573,346 L 572,346 L 571,346 L 570,346 L 569,346 L 568,346 L 567,346 L 566,346 L 565,346 L 565,347 L 564,347 L 563,347 L 562,347 L 561,348 L 560,348 L 559,347 L 558,347 L 557,347 L 556,346 L 555,346 L 554,347 L 553,347 L 552,346 L 551,346 L 550,345 L 550,344 L 549,344 L 549,343 L 549,342 L 548,342 L 548,341 L 547,341 L 546,341 L 545,341 L 544,340 L 543,339 L 543,338 L 542,338 L 542,337 L 541,336 L 540,336 L 540,335 L 539,334 L 538,334 L 537,333 L 536,333 L 536,332 L 535,332 L 534,331 L 533,331 L 533,330 L 531,330 L 530,329 L 529,329 L 529,328 L 528,328 L 527,327 L 526,327 L 525,326 L 524,326 L 524,325 L 523,325 L 523,324 L 522,324 L 521,323 L 520,323 L 520,322 L 519,322 L 518,321 L 517,321 L 516,320 L 515,319 L 514,319 L 513,318 L 512,318 L 512,317 L 511,317 L 511,316 L 510,316 L 510,315 L 510,314 L 510,313 L 511,313 L 511,312 L 512,312 L 512,311 L 513,310 L 515,309 L 515,308 L 516,308 L 516,307 L 517,307 L 517,306 L 518,306 L 518,305 L 519,305 L 519,304 L 520,304 L 521,304 L 521,303 L 521,302 L 521,301 L 521,300 L 520,300 L 520,299 L 519,299 L 519,298 L 518,298 L 518,297 L 519,297 L 519,296 L 520,295 L 520,294 L 520,293 L 521,293 L 520,293 L 519,293 L 518,293 L 517,294 L 516,295 L 515,296 L 514,297 L 513,297 L 513,298 L 512,298 L 511,299 L 510,299 L 509,300 L 508,300 L 508,299 L 507,299 L 506,299 L 506,298 L 505,298 L 505,297 L 504,296 L 503,296 L 503,295 L 502,295 L 501,295 L 500,295 L 499,295 L 498,295 L 497,295 L 497,296 L 496,296 L 495,297 L 494,297 L 494,298 L 493,299 L 492,299 L 491,298 L 491,297 L 491,296 L 491,295 L 491,294 L 491,293 L 491,292 L 491,291 L 492,290 L 492,289 L 492,288 L 492,287 L 492,286 L 492,285 L 492,284 L 491,283 L 491,282 L 491,281 L 491,280 L 491,279 L 491,278 L 491,277 L 491,276 L 491,275 L 492,275 L 493,274 L 493,273 L 494,273 L 494,272 L 495,272 L 496,271 L 497,271 L 498,270 L 498,269 L 498,268 L 498,267 L 499,267 L 500,266 L 501,266 L 501,265 L 502,265 L 502,264 L 503,264 L 503,263 L 504,263 L 503,263 L 503,262 L 504,261 L 503,260 L 503,259 L 503,258 L 504,258 L 505,259 L 506,259 L 507,259 L 508,259 L 509,259 L 511,259 L 512,259 L 513,259 L 514,259 L 515,259 L 516,259 L 517,259 L 518,259 L 519,259 L 520,259 L 520,260 L 521,260 L 522,260 L 523,260 L 525,260 L 526,260 L 526,259 L 528,259 L 529,259 L 529,258 L 530,258 L 531,258 L 531,259 L 532,260 L 533,260 L 535,260 L 536,260 L 537,260 L 538,260 L 539,261 L 540,261 L 541,261 L 541,262 L 542,262 L 542,263 L 543,263 L 544,263 L 545,262 L 546,262 L 547,261 L 548,261 L 549,260 L 550,260 L 551,259 L 553,258 L 554,257 L 555,256 L 556,256 L 557,255 L 558,255 L 559,254 L 560,254 L 560,253 L 562,253 L 563,253 L 563,254 " />
</g>
<g id="anatoliki-attiki_13" >
<path d="M 650,494 L 651,494 L 651,495 L 650,495 L 649,495 L 649,494 L 650,494 " />
<path d="M 666,435 L 665,435 L 665,434 L 665,433 L 666,433 L 666,434 L 666,435 " />
<path d="M 668,434 L 667,434 L 667,433 L 668,433 L 668,434 L 669,434 L 668,434 " />
<path d="M 620,414 L 620,415 L 621,415 L 622,416 L 623,417 L 624,418 L 625,419 L 626,419 L 628,420 L 629,420 L 630,420 L 630,421 L 631,421 L 633,421 L 634,422 L 635,422 L 635,423 L 638,422 L 642,422 L 643,422 L 644,422 L 644,421 L 645,421 L 646,421 L 647,421 L 648,421 L 649,421 L 650,421 L 651,421 L 652,421 L 653,421 L 654,421 L 655,421 L 656,421 L 657,421 L 658,421 L 659,422 L 660,422 L 660,423 L 661,423 L 661,424 L 661,425 L 661,426 L 662,426 L 662,427 L 663,427 L 664,428 L 664,429 L 663,430 L 663,431 L 662,431 L 661,431 L 660,431 L 659,431 L 658,431 L 657,431 L 657,432 L 656,432 L 655,432 L 655,433 L 654,433 L 653,434 L 652,435 L 651,435 L 650,435 L 650,436 L 649,436 L 648,437 L 648,438 L 647,439 L 647,440 L 646,440 L 646,441 L 646,442 L 646,443 L 645,443 L 645,444 L 645,445 L 646,445 L 646,446 L 647,446 L 647,447 L 647,448 L 648,448 L 647,448 L 647,449 L 646,450 L 646,451 L 645,451 L 645,452 L 645,453 L 644,453 L 644,454 L 644,455 L 643,455 L 643,456 L 644,457 L 643,458 L 644,458 L 644,459 L 644,460 L 645,460 L 645,461 L 646,461 L 645,462 L 645,463 L 644,463 L 645,464 L 646,464 L 646,465 L 646,466 L 646,467 L 647,467 L 647,468 L 647,469 L 648,469 L 648,470 L 648,471 L 649,471 L 648,471 L 649,471 L 649,472 L 650,472 L 650,473 L 649,473 L 650,473 L 650,474 L 649,474 L 649,475 L 649,476 L 650,476 L 650,477 L 650,478 L 651,478 L 652,478 L 652,479 L 651,479 L 652,479 L 652,480 L 652,481 L 653,481 L 652,482 L 652,483 L 652,484 L 652,485 L 651,485 L 651,486 L 650,486 L 649,486 L 649,487 L 649,488 L 649,489 L 649,490 L 649,491 L 648,491 L 648,492 L 647,492 L 647,493 L 647,494 L 646,494 L 645,494 L 644,494 L 643,494 L 642,494 L 642,493 L 641,493 L 640,493 L 639,493 L 638,493 L 637,493 L 636,493 L 635,493 L 634,493 L 633,493 L 632,493 L 631,493 L 630,493 L 629,493 L 628,493 L 627,493 L 627,494 L 626,494 L 625,494 L 624,494 L 623,494 L 623,495 L 622,495 L 621,495 L 621,496 L 620,496 L 620,495 L 619,495 L 619,494 L 618,494 L 617,495 L 616,495 L 615,495 L 614,495 L 613,494 L 612,494 L 612,493 L 611,493 L 611,492 L 610,492 L 609,491 L 608,491 L 607,491 L 606,491 L 605,491 L 604,491 L 603,491 L 603,490 L 602,490 L 602,489 L 601,489 L 600,489 L 600,488 L 599,488 L 598,489 L 597,489 L 597,490 L 596,490 L 596,491 L 595,491 L 595,492 L 595,493 L 594,493 L 594,494 L 594,495 L 593,495 L 593,496 L 593,497 L 592,497 L 592,498 L 592,499 L 591,498 L 590,498 L 589,497 L 588,497 L 587,497 L 587,496 L 586,496 L 586,495 L 585,495 L 584,494 L 583,493 L 582,492 L 581,491 L 581,490 L 580,490 L 579,489 L 579,488 L 578,488 L 577,487 L 577,486 L 576,486 L 575,485 L 574,484 L 573,483 L 572,482 L 571,481 L 570,480 L 570,479 L 569,479 L 569,478 L 569,477 L 568,476 L 568,475 L 567,475 L 567,474 L 566,474 L 566,473 L 565,473 L 564,472 L 563,472 L 563,471 L 562,471 L 561,471 L 561,470 L 560,470 L 559,470 L 559,469 L 558,469 L 557,469 L 557,468 L 556,468 L 555,468 L 554,467 L 553,467 L 552,467 L 551,466 L 550,466 L 549,466 L 548,466 L 548,465 L 547,465 L 547,464 L 547,463 L 547,462 L 547,461 L 547,460 L 547,459 L 546,459 L 546,458 L 545,458 L 544,457 L 543,457 L 542,457 L 542,456 L 541,456 L 541,455 L 541,454 L 542,453 L 542,452 L 543,452 L 543,451 L 544,450 L 545,450 L 546,450 L 547,450 L 547,449 L 548,449 L 549,448 L 550,448 L 550,447 L 551,447 L 551,446 L 552,446 L 552,445 L 553,444 L 553,443 L 552,443 L 552,442 L 551,442 L 551,441 L 550,441 L 550,440 L 551,440 L 551,439 L 552,439 L 553,439 L 553,440 L 554,440 L 554,439 L 554,438 L 554,437 L 554,436 L 554,435 L 553,435 L 553,434 L 554,433 L 555,433 L 556,433 L 557,433 L 558,433 L 559,433 L 560,433 L 561,433 L 562,433 L 562,432 L 563,432 L 564,432 L 565,431 L 566,431 L 566,430 L 567,430 L 567,431 L 568,431 L 569,431 L 570,431 L 571,430 L 571,429 L 572,429 L 572,428 L 572,427 L 572,426 L 573,426 L 573,425 L 574,425 L 574,424 L 575,424 L 575,423 L 576,423 L 576,422 L 577,422 L 578,423 L 578,422 L 579,422 L 579,423 L 580,423 L 580,422 L 581,423 L 582,423 L 583,423 L 584,423 L 585,423 L 586,423 L 586,424 L 587,424 L 587,425 L 588,425 L 589,425 L 590,425 L 591,425 L 592,425 L 593,424 L 594,424 L 595,424 L 595,423 L 596,423 L 597,423 L 597,422 L 598,422 L 598,421 L 599,420 L 599,419 L 600,419 L 600,418 L 601,418 L 602,418 L 602,417 L 602,416 L 602,415 L 602,414 L 603,414 L 604,414 L 605,414 L 606,414 L 607,414 L 608,414 L 609,414 L 609,413 L 610,413 L 611,412 L 611,411 L 612,411 L 613,410 L 614,410 L 614,411 L 615,411 L 616,412 L 617,412 L 617,413 L 618,413 L 619,413 L 619,414 L 620,414 " />
</g>
</g>
</g>
<!-- QGIS extent for clipping, eg in Inkscape -->
<g id="qgisviewbox" inkscape:groupmode="layer" inkscape:label="qgisviewbox" stroke="rgb(255,0,0)" stroke-width="1" fill="none" >
<path d="M 0,882 L 1060,882 L 1060,0 L 0,0 L 0,882 " />
</g></svg>