<?xml version="1.0" standalone="no"?>
<!DOCTYPE svg PUBLIC "-//W3C//DTD SVG 1.1//EN" "http://www.w3.org/Graphics/SVG/1.1/DTD/svg11.dtd">
<svg xmlns="http://www.w3.org/2000/svg" xmlns:inkscape="http://www.inkscape.org/namespaces/inkscape" xmlns:xlink="http://www.w3.org/1999/xlink" viewBox = "0 0 1065 886" version = "1.1">
<!-- svg generated using QGIS www.qgis.org -->
<g id="evias" inkscape:groupmode="layer" inkscape:label="evias">
<g stroke="none" fill="rgb(164,73,129)" stroke-linejoin="round" stroke-width="0.26">
<g id="evias_1" >
<path d="M 59,267 L 58,267 L 58,266 L 58,265 L 59,266 L 59,267 " />
<path d="M 58,262 L 57,262 L 58,262 " />
<path d="M 58,261 L 57,261 L 58,261 " />
<path d="M 57,259 L 58,259 L 59,259 L 59,260 L 58,260 L 57,259 " />
<path d="M 57,255 L 58,255 L 57,255 L 57,256 L 58,256 L 58,257 L 59,258 L 59,257 L 59,258 L 60,258 L 59,259 L 58,258 L 57,258 L 56,258 L 56,257 L 55,257 L 55,256 L 54,256 L 54,255 L 55,255 L 56,255 L 57,255 L 57,254 L 57,255 " />
<path d="M 55,255 L 54,254 L 55,254 L 55,255 " />
<path d="M 303,144 L 304,144 L 303,144 " />
<path d="M 286,131 L 287,131 L 288,131 L 289,131 L 290,131 L 291,131 L 292,131 L 293,131 L 293,132 L 294,132 L 294,133 L 295,133 L 295,134 L 295,135 L 296,135 L 296,136 L 297,136 L 297,137 L 297,138 L 298,138 L 298,139 L 298,140 L 299,140 L 299,141 L 299,140 L 299,141 L 299,142 L 300,142 L 300,143 L 301,143 L 301,144 L 301,145 L 302,145 L 303,145 L 304,145 L 304,146 L 304,145 L 305,145 L 305,144 L 306,144 L 306,145 L 305,145 L 305,146 L 306,146 L 307,146 L 307,147 L 307,148 L 308,148 L 309,148 L 309,149 L 310,149 L 311,149 L 311,148 L 312,148 L 313,148 L 313,149 L 314,149 L 314,150 L 314,149 L 315,149 L 315,150 L 316,150 L 316,149 L 317,149 L 317,150 L 318,150 L 319,150 L 320,150 L 320,151 L 320,152 L 320,153 L 320,154 L 321,155 L 321,156 L 321,157 L 320,157 L 320,158 L 320,159 L 319,160 L 320,160 L 320,161 L 320,162 L 319,162 L 318,163 L 317,163 L 317,164 L 317,165 L 318,165 L 318,166 L 318,167 L 318,168 L 318,169 L 319,169 L 319,170 L 319,171 L 320,172 L 320,173 L 321,173 L 321,174 L 321,175 L 322,175 L 322,176 L 323,176 L 323,177 L 324,177 L 324,178 L 325,178 L 326,178 L 326,179 L 325,179 L 324,179 L 323,179 L 322,179 L 321,179 L 321,180 L 320,180 L 319,180 L 318,180 L 316,181 L 315,181 L 314,182 L 313,182 L 312,182 L 311,182 L 310,182 L 308,183 L 307,184 L 304,185 L 303,185 L 303,186 L 302,186 L 301,187 L 300,188 L 299,188 L 298,189 L 297,190 L 296,191 L 295,192 L 294,193 L 294,194 L 293,194 L 293,195 L 292,195 L 291,194 L 290,193 L 290,192 L 289,192 L 289,191 L 288,191 L 288,190 L 288,189 L 287,188 L 287,186 L 286,186 L 285,186 L 284,186 L 283,186 L 283,187 L 282,188 L 282,189 L 281,189 L 281,190 L 281,191 L 281,192 L 282,192 L 282,193 L 283,193 L 283,194 L 284,194 L 284,195 L 284,196 L 285,197 L 285,198 L 285,199 L 284,200 L 285,200 L 284,201 L 284,202 L 284,203 L 284,204 L 283,204 L 283,205 L 282,206 L 282,207 L 281,207 L 281,208 L 280,208 L 280,209 L 279,209 L 280,209 L 281,210 L 282,210 L 283,210 L 283,211 L 284,212 L 285,213 L 285,214 L 285,215 L 284,215 L 283,216 L 282,217 L 281,218 L 281,219 L 282,219 L 283,219 L 284,220 L 285,220 L 286,220 L 286,221 L 287,221 L 287,222 L 287,223 L 287,224 L 286,225 L 286,226 L 285,226 L 285,227 L 284,227 L 283,228 L 282,228 L 282,229 L 281,229 L 281,230 L 280,231 L 280,232 L 280,233 L 279,233 L 278,233 L 277,233 L 277,232 L 276,232 L 275,233 L 275,232 L 274,232 L 273,231 L 272,231 L 271,231 L 271,232 L 270,233 L 269,233 L 269,232 L 269,231 L 269,230 L 268,230 L 267,230 L 266,230 L 265,231 L 265,230 L 264,230 L 264,229 L 263,228 L 262,227 L 262,226 L 261,226 L 261,225 L 260,225 L 259,225 L 258,225 L 257,224 L 258,223 L 257,223 L 256,223 L 255,223 L 254,223 L 254,224 L 253,225 L 252,226 L 252,227 L 252,228 L 252,229 L 252,230 L 252,231 L 253,231 L 252,231 L 252,232 L 252,233 L 252,234 L 253,236 L 253,237 L 253,238 L 253,239 L 252,239 L 252,240 L 253,240 L 252,240 L 252,241 L 252,242 L 252,243 L 252,244 L 252,245 L 251,245 L 251,246 L 250,246 L 250,247 L 249,247 L 248,247 L 247,247 L 247,246 L 246,246 L 245,246 L 244,246 L 243,245 L 242,245 L 241,245 L 240,245 L 239,245 L 238,245 L 237,246 L 236,246 L 235,246 L 235,247 L 235,248 L 235,249 L 235,250 L 235,252 L 235,253 L 234,253 L 234,252 L 233,253 L 232,253 L 231,252 L 230,251 L 229,251 L 228,251 L 228,252 L 227,251 L 226,250 L 225,250 L 224,250 L 224,249 L 223,249 L 222,249 L 222,248 L 221,247 L 220,247 L 219,246 L 218,246 L 217,246 L 216,245 L 215,245 L 214,245 L 213,245 L 212,244 L 211,244 L 211,243 L 210,243 L 209,243 L 209,242 L 208,242 L 207,242 L 206,242 L 205,242 L 204,242 L 203,242 L 201,244 L 200,244 L 200,245 L 199,245 L 198,245 L 198,246 L 197,247 L 196,247 L 195,247 L 194,247 L 193,247 L 192,247 L 191,247 L 191,248 L 190,248 L 189,248 L 188,248 L 187,248 L 186,248 L 185,248 L 184,248 L 184,249 L 183,249 L 182,249 L 182,250 L 181,250 L 180,249 L 179,249 L 179,248 L 178,248 L 177,248 L 177,247 L 176,246 L 175,246 L 174,245 L 173,245 L 173,244 L 172,244 L 171,243 L 170,243 L 169,243 L 169,242 L 168,242 L 168,241 L 167,241 L 166,241 L 167,241 L 166,241 L 165,241 L 164,241 L 163,241 L 163,240 L 162,240 L 162,239 L 162,238 L 162,237 L 162,236 L 161,236 L 161,235 L 161,234 L 161,233 L 160,232 L 160,231 L 160,230 L 160,229 L 160,228 L 159,228 L 159,227 L 159,226 L 159,225 L 158,225 L 158,224 L 158,223 L 157,223 L 156,223 L 155,223 L 154,223 L 153,223 L 152,223 L 151,223 L 151,224 L 150,224 L 150,223 L 149,223 L 148,223 L 147,224 L 147,223 L 146,223 L 145,224 L 144,224 L 143,224 L 142,224 L 142,223 L 141,223 L 141,224 L 140,224 L 139,224 L 138,224 L 137,223 L 136,223 L 135,223 L 135,222 L 134,222 L 133,221 L 132,221 L 131,221 L 131,220 L 130,220 L 129,220 L 129,219 L 128,219 L 127,219 L 127,218 L 126,218 L 125,218 L 125,219 L 124,220 L 124,221 L 123,221 L 123,222 L 122,222 L 121,222 L 120,222 L 120,223 L 119,223 L 119,224 L 119,225 L 119,226 L 119,227 L 119,228 L 120,228 L 121,228 L 122,228 L 122,227 L 123,227 L 124,227 L 125,227 L 126,227 L 127,227 L 128,227 L 128,228 L 129,228 L 130,228 L 130,229 L 131,229 L 131,230 L 131,229 L 132,229 L 133,229 L 133,228 L 134,229 L 135,230 L 136,230 L 136,231 L 137,232 L 137,233 L 138,233 L 138,234 L 139,234 L 139,235 L 140,235 L 140,236 L 140,237 L 139,237 L 139,238 L 139,239 L 139,240 L 139,241 L 139,242 L 138,242 L 137,242 L 137,243 L 136,243 L 136,244 L 135,244 L 134,244 L 134,245 L 133,245 L 132,245 L 132,246 L 131,246 L 130,246 L 130,247 L 129,247 L 128,247 L 128,248 L 127,248 L 126,248 L 125,248 L 125,249 L 125,250 L 124,250 L 124,251 L 123,251 L 122,251 L 122,250 L 122,251 L 121,251 L 120,251 L 119,251 L 118,251 L 117,251 L 116,251 L 115,251 L 114,251 L 114,252 L 113,252 L 112,252 L 112,251 L 111,250 L 110,250 L 109,250 L 108,250 L 107,250 L 106,250 L 105,250 L 104,250 L 104,251 L 104,250 L 103,250 L 102,250 L 101,251 L 100,251 L 99,251 L 99,250 L 98,250 L 98,249 L 97,249 L 97,248 L 96,248 L 95,248 L 94,248 L 94,249 L 93,249 L 92,250 L 91,250 L 91,249 L 90,249 L 89,249 L 89,248 L 88,249 L 87,249 L 86,249 L 86,250 L 85,251 L 84,251 L 83,251 L 82,251 L 82,252 L 81,252 L 80,252 L 80,253 L 79,253 L 79,252 L 78,252 L 77,252 L 76,252 L 75,252 L 74,252 L 74,253 L 73,253 L 72,253 L 71,253 L 70,253 L 70,254 L 69,254 L 69,255 L 68,255 L 67,255 L 67,256 L 66,256 L 65,256 L 64,256 L 63,256 L 62,256 L 62,257 L 62,256 L 63,255 L 63,254 L 63,253 L 64,253 L 64,252 L 64,251 L 64,250 L 64,249 L 65,248 L 65,247 L 65,246 L 64,245 L 64,244 L 64,243 L 65,243 L 65,242 L 65,241 L 66,241 L 66,240 L 66,239 L 67,239 L 67,238 L 68,238 L 69,237 L 69,236 L 70,236 L 70,235 L 71,235 L 71,234 L 71,233 L 71,232 L 72,231 L 72,230 L 72,229 L 73,229 L 73,230 L 74,230 L 75,230 L 76,231 L 77,231 L 78,230 L 79,230 L 80,230 L 80,229 L 81,229 L 82,229 L 83,229 L 83,228 L 84,228 L 84,227 L 84,226 L 84,225 L 85,225 L 86,225 L 87,225 L 88,225 L 89,225 L 90,226 L 91,226 L 92,226 L 92,225 L 93,225 L 93,226 L 94,226 L 94,225 L 95,225 L 96,226 L 97,226 L 98,225 L 98,224 L 97,224 L 97,223 L 98,223 L 98,222 L 99,222 L 99,221 L 100,221 L 101,221 L 102,221 L 102,220 L 103,220 L 103,221 L 104,221 L 104,220 L 104,219 L 105,219 L 105,218 L 106,218 L 106,217 L 107,217 L 108,217 L 109,217 L 110,217 L 110,218 L 111,218 L 111,217 L 112,218 L 113,218 L 114,218 L 114,217 L 114,216 L 114,215 L 113,215 L 114,215 L 114,214 L 115,214 L 116,214 L 117,214 L 117,213 L 118,214 L 118,213 L 119,213 L 119,214 L 119,213 L 120,213 L 121,213 L 122,213 L 122,212 L 123,213 L 124,212 L 124,211 L 125,211 L 126,212 L 126,211 L 127,211 L 128,211 L 129,211 L 130,211 L 131,210 L 132,210 L 133,209 L 133,210 L 134,210 L 134,209 L 135,209 L 136,209 L 137,209 L 137,208 L 137,207 L 137,206 L 138,206 L 139,206 L 139,205 L 140,205 L 140,206 L 141,206 L 141,207 L 142,207 L 143,207 L 144,207 L 145,207 L 146,207 L 147,207 L 147,206 L 147,205 L 147,204 L 147,203 L 148,203 L 148,202 L 149,202 L 150,202 L 150,201 L 151,201 L 152,201 L 153,201 L 154,201 L 155,201 L 155,200 L 156,199 L 157,199 L 157,198 L 158,198 L 159,198 L 159,197 L 160,196 L 160,195 L 160,194 L 160,193 L 160,192 L 159,192 L 159,191 L 160,191 L 160,190 L 161,190 L 162,190 L 163,189 L 164,189 L 164,188 L 165,188 L 165,187 L 166,187 L 167,187 L 168,187 L 169,187 L 169,188 L 170,188 L 171,188 L 172,188 L 173,188 L 174,189 L 175,189 L 175,190 L 176,190 L 177,190 L 178,190 L 179,190 L 179,189 L 180,189 L 181,189 L 181,188 L 182,188 L 182,187 L 182,186 L 183,186 L 183,185 L 184,185 L 184,184 L 184,183 L 184,182 L 184,181 L 184,180 L 184,179 L 184,178 L 184,177 L 185,177 L 185,176 L 185,175 L 186,174 L 186,173 L 186,172 L 186,171 L 187,171 L 187,170 L 187,169 L 187,168 L 187,167 L 187,166 L 186,166 L 186,165 L 186,164 L 186,163 L 187,163 L 188,163 L 188,162 L 189,162 L 190,162 L 190,161 L 191,161 L 192,160 L 193,159 L 194,159 L 194,158 L 195,158 L 196,158 L 196,157 L 197,157 L 197,156 L 198,156 L 199,155 L 200,155 L 200,154 L 200,153 L 201,153 L 201,152 L 202,152 L 202,151 L 203,151 L 203,150 L 203,149 L 204,149 L 205,148 L 206,148 L 206,149 L 207,149 L 208,149 L 209,149 L 210,149 L 211,149 L 212,149 L 213,149 L 214,149 L 215,148 L 216,148 L 217,148 L 218,148 L 219,148 L 220,148 L 221,148 L 221,149 L 222,149 L 223,149 L 224,149 L 225,149 L 225,150 L 226,150 L 227,151 L 228,151 L 228,152 L 229,152 L 230,151 L 231,151 L 232,151 L 233,151 L 234,151 L 235,151 L 236,151 L 237,151 L 238,151 L 239,151 L 240,151 L 240,150 L 241,150 L 241,149 L 242,149 L 242,148 L 242,147 L 242,146 L 243,146 L 243,145 L 244,145 L 245,144 L 246,144 L 246,143 L 247,143 L 248,142 L 249,142 L 249,141 L 250,141 L 251,141 L 251,140 L 252,140 L 253,140 L 254,140 L 255,140 L 256,140 L 257,140 L 258,140 L 258,139 L 259,139 L 259,140 L 260,140 L 261,140 L 262,140 L 263,140 L 263,139 L 264,139 L 265,139 L 265,138 L 265,137 L 266,137 L 267,137 L 267,136 L 268,136 L 269,135 L 269,134 L 270,134 L 271,134 L 272,134 L 273,134 L 273,133 L 274,133 L 274,132 L 274,131 L 275,131 L 276,131 L 277,132 L 278,132 L 279,132 L 279,131 L 280,131 L 281,131 L 282,131 L 283,131 L 284,131 L 284,130 L 284,131 L 285,131 L 286,131 " />
<path d="M 306,129 L 305,129 L 305,128 L 306,128 L 306,129 " />
<path d="M 303,124 L 303,125 L 303,126 L 302,126 L 302,127 L 302,126 L 301,126 L 301,127 L 301,128 L 300,127 L 299,127 L 299,128 L 298,128 L 298,127 L 298,126 L 299,126 L 299,125 L 300,125 L 300,124 L 301,124 L 302,124 L 303,124 " />
</g>
<g id="evias_2" >
<path d="M 857,789 L 858,789 L 858,790 L 859,790 L 859,791 L 859,792 L 859,793 L 860,793 L 861,793 L 861,794 L 860,794 L 860,795 L 861,795 L 860,795 L 860,794 L 859,794 L 859,793 L 858,793 L 857,793 L 857,792 L 856,792 L 856,791 L 856,790 L 856,789 L 856,788 L 857,788 L 857,789 " />
<path d="M 800,756 L 801,756 L 800,756 L 800,755 L 800,756 " />
<path d="M 747,752 L 746,752 L 746,751 L 747,751 L 747,752 " />
<path d="M 741,742 L 742,742 L 741,742 " />
<path d="M 733,740 L 734,740 L 734,741 L 734,742 L 734,743 L 735,743 L 736,743 L 736,744 L 737,744 L 738,744 L 739,745 L 740,745 L 740,746 L 741,746 L 742,746 L 742,747 L 743,748 L 743,747 L 744,748 L 744,749 L 744,750 L 744,751 L 745,752 L 745,753 L 745,754 L 746,754 L 746,755 L 746,756 L 746,757 L 746,758 L 746,759 L 746,760 L 745,760 L 745,761 L 745,762 L 745,763 L 745,762 L 744,762 L 743,762 L 743,763 L 744,763 L 744,764 L 744,765 L 743,765 L 743,766 L 743,767 L 742,768 L 741,768 L 740,768 L 739,768 L 738,768 L 737,768 L 737,767 L 736,767 L 735,767 L 735,766 L 734,766 L 734,767 L 733,767 L 733,766 L 733,765 L 732,765 L 731,764 L 730,764 L 730,765 L 730,766 L 730,767 L 731,767 L 730,767 L 730,768 L 730,769 L 729,769 L 728,769 L 727,769 L 726,769 L 725,768 L 724,768 L 724,767 L 724,768 L 723,768 L 723,767 L 722,767 L 722,766 L 721,766 L 721,765 L 721,764 L 720,764 L 720,763 L 720,762 L 720,761 L 721,761 L 721,760 L 722,760 L 722,759 L 721,759 L 721,758 L 721,757 L 721,756 L 722,756 L 723,756 L 723,755 L 723,754 L 724,754 L 724,753 L 724,752 L 724,751 L 725,751 L 725,750 L 725,749 L 726,749 L 726,748 L 726,747 L 726,746 L 727,746 L 726,746 L 726,745 L 726,744 L 726,743 L 727,743 L 727,744 L 727,743 L 728,743 L 728,744 L 729,744 L 730,744 L 731,744 L 731,743 L 732,743 L 731,743 L 731,742 L 731,741 L 732,741 L 732,740 L 733,740 " />
<path d="M 741,738 L 741,739 L 740,739 L 739,739 L 738,739 L 738,738 L 738,739 L 737,739 L 737,738 L 737,737 L 738,737 L 739,737 L 740,737 L 740,736 L 741,736 L 741,737 L 741,738 " />
<path d="M 730,734 L 730,735 L 730,736 L 730,737 L 729,737 L 729,736 L 728,736 L 728,735 L 729,735 L 729,734 L 730,734 " />
<path d="M 733,733 L 733,732 L 733,733 L 734,733 L 733,733 " />
<path d="M 747,732 L 748,732 L 748,731 L 748,732 L 749,732 L 750,732 L 750,733 L 751,733 L 751,734 L 751,735 L 752,735 L 752,736 L 752,737 L 751,737 L 752,737 L 752,738 L 752,739 L 751,739 L 751,740 L 752,740 L 752,741 L 752,742 L 752,743 L 751,743 L 751,744 L 751,745 L 751,746 L 751,747 L 751,748 L 750,748 L 750,747 L 749,747 L 748,747 L 747,747 L 746,747 L 746,746 L 745,746 L 744,746 L 744,745 L 744,744 L 744,743 L 743,743 L 743,742 L 744,742 L 744,741 L 743,741 L 743,740 L 743,739 L 743,738 L 743,737 L 744,737 L 745,738 L 745,737 L 746,737 L 746,736 L 745,736 L 745,735 L 744,735 L 744,734 L 744,733 L 745,733 L 745,732 L 745,733 L 746,733 L 746,732 L 747,732 L 747,731 L 747,732 " />
<path d="M 735,726 L 736,726 L 737,727 L 736,727 L 736,726 L 735,726 L 734,726 L 734,725 L 735,725 L 735,726 " />
<path d="M 743,726 L 743,727 L 743,728 L 743,729 L 743,728 L 742,728 L 742,727 L 741,727 L 740,727 L 739,727 L 739,726 L 740,726 L 740,725 L 740,724 L 741,724 L 741,725 L 742,725 L 743,725 L 743,726 " />
<path d="M 738,724 L 738,725 L 737,725 L 737,724 L 738,724 " />
<path d="M 686,701 L 687,701 L 687,702 L 687,703 L 686,703 L 686,704 L 685,704 L 684,704 L 684,703 L 684,702 L 685,702 L 685,701 L 686,701 L 686,700 L 686,701 " />
<path d="M 688,664 L 687,664 L 687,663 L 686,663 L 686,662 L 686,661 L 686,660 L 686,659 L 687,659 L 687,660 L 686,660 L 686,661 L 686,662 L 687,662 L 687,663 L 688,664 " />
<path d="M 683,653 L 683,652 L 682,652 L 682,651 L 683,651 L 683,650 L 683,651 L 684,651 L 684,652 L 683,652 L 683,653 " />
<path d="M 695,646 L 695,647 L 695,648 L 694,648 L 694,649 L 694,650 L 693,650 L 693,651 L 693,652 L 692,652 L 691,652 L 691,651 L 690,651 L 689,651 L 689,652 L 689,653 L 690,653 L 690,654 L 691,655 L 690,655 L 689,655 L 689,656 L 689,657 L 690,658 L 690,659 L 691,659 L 691,660 L 691,661 L 690,661 L 689,661 L 689,660 L 688,660 L 689,660 L 688,660 L 688,659 L 687,659 L 687,658 L 687,657 L 686,657 L 686,656 L 685,655 L 685,654 L 685,653 L 684,653 L 684,652 L 684,651 L 684,650 L 683,650 L 683,649 L 683,650 L 682,649 L 682,648 L 682,647 L 682,646 L 683,646 L 683,647 L 684,647 L 685,647 L 686,647 L 687,647 L 687,648 L 688,647 L 689,647 L 689,646 L 690,646 L 691,646 L 691,647 L 691,648 L 691,647 L 692,647 L 692,646 L 693,646 L 694,646 L 694,645 L 695,645 L 695,646 " />
<path d="M 691,643 L 690,643 L 690,642 L 691,642 L 691,643 " />
<path d="M 679,640 L 679,641 L 680,641 L 680,642 L 679,642 L 679,641 L 678,641 L 679,641 L 679,640 L 679,641 L 678,640 L 679,640 " />
<path d="M 681,629 L 680,629 L 680,628 L 679,628 L 680,628 L 681,629 " />
<path d="M 661,614 L 662,615 L 662,616 L 661,616 L 662,616 L 662,617 L 662,618 L 662,619 L 662,620 L 662,621 L 662,622 L 662,623 L 663,623 L 663,624 L 662,624 L 661,625 L 660,625 L 660,626 L 659,626 L 658,626 L 658,627 L 657,627 L 656,627 L 656,626 L 657,626 L 657,625 L 657,624 L 657,623 L 658,623 L 659,623 L 659,622 L 658,622 L 658,621 L 657,621 L 657,620 L 656,619 L 657,618 L 658,617 L 658,616 L 657,615 L 658,615 L 658,614 L 659,614 L 660,613 L 661,613 L 661,612 L 661,613 L 661,614 " />
<path d="M 673,613 L 673,612 L 672,612 L 672,611 L 673,611 L 673,612 L 674,612 L 673,612 L 673,613 " />
<path d="M 662,611 L 661,611 L 661,610 L 662,610 L 662,611 " />
<path d="M 726,573 L 725,574 L 724,574 L 724,575 L 724,576 L 724,577 L 725,577 L 725,578 L 726,578 L 727,578 L 727,577 L 728,577 L 729,577 L 729,578 L 730,579 L 730,580 L 730,581 L 731,581 L 731,582 L 732,582 L 732,583 L 732,584 L 731,584 L 732,584 L 732,585 L 732,586 L 733,586 L 733,587 L 732,587 L 732,588 L 731,588 L 730,588 L 731,588 L 731,589 L 731,590 L 730,590 L 731,590 L 732,590 L 732,591 L 731,591 L 731,592 L 731,593 L 731,594 L 730,594 L 730,595 L 730,596 L 731,596 L 731,597 L 730,597 L 730,598 L 731,598 L 732,598 L 732,599 L 731,599 L 730,600 L 730,601 L 730,602 L 730,603 L 731,603 L 731,604 L 732,604 L 733,604 L 733,605 L 733,606 L 732,607 L 732,608 L 731,608 L 731,609 L 730,608 L 729,608 L 729,609 L 728,609 L 727,610 L 728,610 L 728,611 L 727,611 L 728,612 L 727,612 L 728,612 L 728,613 L 728,614 L 728,615 L 728,616 L 728,617 L 728,618 L 729,618 L 730,618 L 731,618 L 731,619 L 732,619 L 732,620 L 732,621 L 733,621 L 733,622 L 734,622 L 734,623 L 734,624 L 734,625 L 734,626 L 734,625 L 735,625 L 735,626 L 734,627 L 734,628 L 734,627 L 735,627 L 735,628 L 736,628 L 737,628 L 737,629 L 738,629 L 738,630 L 737,630 L 737,631 L 738,631 L 738,632 L 738,633 L 739,633 L 740,633 L 740,634 L 740,635 L 741,635 L 742,635 L 742,634 L 743,634 L 743,635 L 744,635 L 745,635 L 745,636 L 745,637 L 746,637 L 747,637 L 747,636 L 748,636 L 748,637 L 749,637 L 750,637 L 750,638 L 749,638 L 750,638 L 750,637 L 751,637 L 751,638 L 752,638 L 752,639 L 753,639 L 752,639 L 752,640 L 751,640 L 752,640 L 751,640 L 752,640 L 752,641 L 752,640 L 752,641 L 752,642 L 753,642 L 753,643 L 754,643 L 755,643 L 755,644 L 756,644 L 757,644 L 758,644 L 759,644 L 760,644 L 760,645 L 760,646 L 761,646 L 761,645 L 762,645 L 763,645 L 763,644 L 763,643 L 764,643 L 765,642 L 766,642 L 766,643 L 767,643 L 766,643 L 767,643 L 767,644 L 768,644 L 767,644 L 767,645 L 766,645 L 767,645 L 766,645 L 766,646 L 767,646 L 766,646 L 767,646 L 768,646 L 768,647 L 769,647 L 769,648 L 769,649 L 768,649 L 767,649 L 767,650 L 768,650 L 767,650 L 767,651 L 767,652 L 766,652 L 766,653 L 767,653 L 767,654 L 768,654 L 768,655 L 769,654 L 769,655 L 770,655 L 769,656 L 770,656 L 770,657 L 771,657 L 771,658 L 772,658 L 772,659 L 773,659 L 773,658 L 774,658 L 774,657 L 774,658 L 775,658 L 776,658 L 776,659 L 775,659 L 775,660 L 776,661 L 777,661 L 778,661 L 779,661 L 780,661 L 780,660 L 781,660 L 782,660 L 783,659 L 783,658 L 784,658 L 785,658 L 785,657 L 786,657 L 787,657 L 787,656 L 788,656 L 788,655 L 789,656 L 789,655 L 790,655 L 790,656 L 791,656 L 792,656 L 792,655 L 793,655 L 793,656 L 794,656 L 794,655 L 795,655 L 796,655 L 797,655 L 797,654 L 798,654 L 799,654 L 799,655 L 799,656 L 799,657 L 799,658 L 799,659 L 800,659 L 801,659 L 801,660 L 801,661 L 802,661 L 803,661 L 804,661 L 805,661 L 805,662 L 805,661 L 806,661 L 806,662 L 806,663 L 807,663 L 807,664 L 808,664 L 809,664 L 810,664 L 811,664 L 811,665 L 811,666 L 812,666 L 812,667 L 813,667 L 814,667 L 814,666 L 815,667 L 816,667 L 816,668 L 816,667 L 817,667 L 818,667 L 819,667 L 820,666 L 821,666 L 822,666 L 823,666 L 824,666 L 824,667 L 823,667 L 823,668 L 824,668 L 825,668 L 825,669 L 826,669 L 827,669 L 828,669 L 829,669 L 830,669 L 831,669 L 832,668 L 833,668 L 834,668 L 835,668 L 836,668 L 837,668 L 837,669 L 838,669 L 839,669 L 839,668 L 839,667 L 840,667 L 840,666 L 841,666 L 842,666 L 842,665 L 842,666 L 842,665 L 843,665 L 844,665 L 844,666 L 845,666 L 846,666 L 847,666 L 847,665 L 847,666 L 848,666 L 848,665 L 849,665 L 849,666 L 850,666 L 851,666 L 852,666 L 853,666 L 853,667 L 854,667 L 854,668 L 855,668 L 856,668 L 856,667 L 857,668 L 857,667 L 858,667 L 859,667 L 860,667 L 861,667 L 862,667 L 863,667 L 864,667 L 864,668 L 865,668 L 866,668 L 867,668 L 867,667 L 868,667 L 868,668 L 868,667 L 869,667 L 869,668 L 870,668 L 869,668 L 870,668 L 870,669 L 871,669 L 872,669 L 873,669 L 874,669 L 875,669 L 875,668 L 874,668 L 875,668 L 876,668 L 877,668 L 877,667 L 878,667 L 878,666 L 878,665 L 878,666 L 879,665 L 880,665 L 880,664 L 881,664 L 881,663 L 881,662 L 882,662 L 883,662 L 883,661 L 884,661 L 883,661 L 884,661 L 884,660 L 885,660 L 886,660 L 886,659 L 887,659 L 888,659 L 887,659 L 888,659 L 888,658 L 887,658 L 888,658 L 889,658 L 889,659 L 890,659 L 890,660 L 891,660 L 891,661 L 891,662 L 891,663 L 892,663 L 892,664 L 891,664 L 891,665 L 891,666 L 890,666 L 890,667 L 891,667 L 891,666 L 891,667 L 891,668 L 890,668 L 891,668 L 890,668 L 891,668 L 890,668 L 890,669 L 890,670 L 891,670 L 890,671 L 890,672 L 889,672 L 889,673 L 888,673 L 888,674 L 887,674 L 888,674 L 888,675 L 888,676 L 887,676 L 887,677 L 887,678 L 887,679 L 886,679 L 886,680 L 886,681 L 885,681 L 885,682 L 886,682 L 886,683 L 886,684 L 885,684 L 885,685 L 884,685 L 884,686 L 883,686 L 883,687 L 884,687 L 883,687 L 883,688 L 883,689 L 883,690 L 883,691 L 883,692 L 884,692 L 884,693 L 883,693 L 883,694 L 884,694 L 884,695 L 885,695 L 885,696 L 886,696 L 886,697 L 885,697 L 885,698 L 886,698 L 887,698 L 887,699 L 886,699 L 886,700 L 885,700 L 885,701 L 884,701 L 884,702 L 884,703 L 884,704 L 885,704 L 885,705 L 884,705 L 884,706 L 884,707 L 885,707 L 885,708 L 885,709 L 886,709 L 887,709 L 887,710 L 886,710 L 886,711 L 886,712 L 887,712 L 888,712 L 889,713 L 890,713 L 889,713 L 889,714 L 888,714 L 889,714 L 890,715 L 889,715 L 889,716 L 890,716 L 890,717 L 890,718 L 889,718 L 889,719 L 889,720 L 888,720 L 888,721 L 888,722 L 887,722 L 887,723 L 888,723 L 889,723 L 889,724 L 888,724 L 888,725 L 887,725 L 887,726 L 888,726 L 888,727 L 887,728 L 887,729 L 888,729 L 888,730 L 887,730 L 888,730 L 888,731 L 888,732 L 887,732 L 887,733 L 888,733 L 887,733 L 887,734 L 886,733 L 886,734 L 886,735 L 887,735 L 886,735 L 887,735 L 887,736 L 886,737 L 887,737 L 886,737 L 885,737 L 885,738 L 885,739 L 886,739 L 887,739 L 887,738 L 887,739 L 888,739 L 887,739 L 887,740 L 886,740 L 886,741 L 885,741 L 885,742 L 884,742 L 884,743 L 883,743 L 883,744 L 882,745 L 882,746 L 881,746 L 881,747 L 880,747 L 880,748 L 880,749 L 880,750 L 880,751 L 881,751 L 882,751 L 883,751 L 883,752 L 882,752 L 881,752 L 880,752 L 880,753 L 879,753 L 879,754 L 879,755 L 878,755 L 878,756 L 878,757 L 878,758 L 877,758 L 878,758 L 878,759 L 878,760 L 877,760 L 877,761 L 877,760 L 876,760 L 876,761 L 876,760 L 875,760 L 875,761 L 875,762 L 875,763 L 875,764 L 876,764 L 877,764 L 877,765 L 876,765 L 876,766 L 875,766 L 874,767 L 873,767 L 872,767 L 871,767 L 871,768 L 871,767 L 870,767 L 870,768 L 870,769 L 870,770 L 869,770 L 869,769 L 868,769 L 867,769 L 867,768 L 866,768 L 866,769 L 866,770 L 865,770 L 866,770 L 867,770 L 867,771 L 866,771 L 867,772 L 866,772 L 867,772 L 867,773 L 866,773 L 866,772 L 865,772 L 864,772 L 864,773 L 863,773 L 862,773 L 862,774 L 861,774 L 861,775 L 861,776 L 862,776 L 862,777 L 861,777 L 861,778 L 860,778 L 860,779 L 860,780 L 859,779 L 858,779 L 857,779 L 857,780 L 858,781 L 857,781 L 857,782 L 856,782 L 856,781 L 856,782 L 855,782 L 855,783 L 854,783 L 854,784 L 853,784 L 852,784 L 852,783 L 851,783 L 851,784 L 850,784 L 849,784 L 848,784 L 848,785 L 848,784 L 847,784 L 846,784 L 846,783 L 846,784 L 845,784 L 844,784 L 844,783 L 844,782 L 843,782 L 843,783 L 842,782 L 841,782 L 841,781 L 841,782 L 840,782 L 840,781 L 839,781 L 838,781 L 837,781 L 837,780 L 836,780 L 836,779 L 836,778 L 836,779 L 835,779 L 835,778 L 835,777 L 835,776 L 836,776 L 836,775 L 837,775 L 838,775 L 838,774 L 837,774 L 837,773 L 837,772 L 837,771 L 836,771 L 836,770 L 835,770 L 835,769 L 835,768 L 835,767 L 835,766 L 834,765 L 834,764 L 834,763 L 833,763 L 833,762 L 833,761 L 832,761 L 832,760 L 832,759 L 831,759 L 831,758 L 830,758 L 830,757 L 830,756 L 830,755 L 829,755 L 828,754 L 827,754 L 827,753 L 827,752 L 826,752 L 825,751 L 824,751 L 823,751 L 823,750 L 822,750 L 821,750 L 820,750 L 820,749 L 819,749 L 818,749 L 817,749 L 816,749 L 816,748 L 815,748 L 815,747 L 814,747 L 814,746 L 813,746 L 812,746 L 812,747 L 812,746 L 811,746 L 810,746 L 809,747 L 808,747 L 809,747 L 809,746 L 810,746 L 811,746 L 810,746 L 809,746 L 809,745 L 809,746 L 808,746 L 807,746 L 806,746 L 806,747 L 805,747 L 804,747 L 803,747 L 803,748 L 802,748 L 801,748 L 801,749 L 800,749 L 800,750 L 799,750 L 798,750 L 797,750 L 797,751 L 797,752 L 797,753 L 798,753 L 798,754 L 798,755 L 799,755 L 799,756 L 798,756 L 798,755 L 797,755 L 797,756 L 797,755 L 796,755 L 796,756 L 795,756 L 795,757 L 794,757 L 794,758 L 795,758 L 795,759 L 795,760 L 794,760 L 794,761 L 794,762 L 794,763 L 794,764 L 795,764 L 795,765 L 796,765 L 796,766 L 797,766 L 797,767 L 797,768 L 798,768 L 799,768 L 800,768 L 800,767 L 801,767 L 802,767 L 802,768 L 802,769 L 801,769 L 800,769 L 800,770 L 800,771 L 799,770 L 798,770 L 798,771 L 798,772 L 797,772 L 797,771 L 796,771 L 796,772 L 795,771 L 795,772 L 794,772 L 794,773 L 795,773 L 794,773 L 794,774 L 795,774 L 795,775 L 794,776 L 795,776 L 795,777 L 795,776 L 796,776 L 796,777 L 795,777 L 795,778 L 794,778 L 793,778 L 793,777 L 792,777 L 791,777 L 791,776 L 790,776 L 790,777 L 789,777 L 789,776 L 789,777 L 788,777 L 788,776 L 788,775 L 789,775 L 789,774 L 788,774 L 788,773 L 788,772 L 788,773 L 787,773 L 786,773 L 786,772 L 785,772 L 784,772 L 785,772 L 785,771 L 784,771 L 783,771 L 782,771 L 782,770 L 781,770 L 781,769 L 780,769 L 780,768 L 781,767 L 780,767 L 780,766 L 779,766 L 779,767 L 778,767 L 777,767 L 776,767 L 776,766 L 776,765 L 776,764 L 776,763 L 775,763 L 774,763 L 773,763 L 773,762 L 772,762 L 771,761 L 772,761 L 772,760 L 771,760 L 772,760 L 772,759 L 771,759 L 771,758 L 771,757 L 770,757 L 770,756 L 769,756 L 769,755 L 769,754 L 769,753 L 769,752 L 770,752 L 769,752 L 769,751 L 769,750 L 769,749 L 769,748 L 769,747 L 768,747 L 768,746 L 767,746 L 766,746 L 766,745 L 765,745 L 765,744 L 764,744 L 763,744 L 762,744 L 762,745 L 762,746 L 761,747 L 761,746 L 761,745 L 760,745 L 760,744 L 760,745 L 760,744 L 759,744 L 759,743 L 758,743 L 758,742 L 758,741 L 757,741 L 757,740 L 757,739 L 756,739 L 756,738 L 756,737 L 756,736 L 756,735 L 755,735 L 756,734 L 757,734 L 757,733 L 758,733 L 758,732 L 759,732 L 760,732 L 760,731 L 761,731 L 762,731 L 762,730 L 763,730 L 763,729 L 763,728 L 763,727 L 763,726 L 763,725 L 762,725 L 763,725 L 762,725 L 762,724 L 761,724 L 761,723 L 761,722 L 761,721 L 760,721 L 760,720 L 759,720 L 759,719 L 759,718 L 759,717 L 759,716 L 759,715 L 758,715 L 757,715 L 757,714 L 757,713 L 756,713 L 756,712 L 755,712 L 754,711 L 753,711 L 752,711 L 751,711 L 751,712 L 750,712 L 749,713 L 748,714 L 747,714 L 747,713 L 746,713 L 746,712 L 747,712 L 747,711 L 747,710 L 747,709 L 747,708 L 747,707 L 746,706 L 746,705 L 746,704 L 745,704 L 745,703 L 744,703 L 744,702 L 743,702 L 742,702 L 742,701 L 741,701 L 741,702 L 740,702 L 739,702 L 739,701 L 738,701 L 737,701 L 737,700 L 736,700 L 736,699 L 735,699 L 735,698 L 734,698 L 733,698 L 733,699 L 732,699 L 731,699 L 730,699 L 730,698 L 729,698 L 729,697 L 728,697 L 727,697 L 726,697 L 725,698 L 724,698 L 724,699 L 724,700 L 725,700 L 725,701 L 724,701 L 723,701 L 722,701 L 722,700 L 721,700 L 721,701 L 720,701 L 719,701 L 718,701 L 718,702 L 717,702 L 716,702 L 716,701 L 715,701 L 714,701 L 713,701 L 713,700 L 712,700 L 711,700 L 710,700 L 710,701 L 709,701 L 709,702 L 708,702 L 708,703 L 707,703 L 707,702 L 706,702 L 706,701 L 706,700 L 707,700 L 707,699 L 708,698 L 708,697 L 709,697 L 709,696 L 710,696 L 709,696 L 709,695 L 709,694 L 709,693 L 709,692 L 708,691 L 708,690 L 708,689 L 709,689 L 709,688 L 709,687 L 709,686 L 709,685 L 710,685 L 710,684 L 711,684 L 712,684 L 712,683 L 712,682 L 712,681 L 711,681 L 712,681 L 712,680 L 711,680 L 711,679 L 710,679 L 709,679 L 709,678 L 708,678 L 708,679 L 707,679 L 706,679 L 706,678 L 706,679 L 705,679 L 704,679 L 703,679 L 702,679 L 701,679 L 701,678 L 701,679 L 700,679 L 699,679 L 699,680 L 698,680 L 697,680 L 696,679 L 696,678 L 696,677 L 696,676 L 696,675 L 697,675 L 697,674 L 696,674 L 696,673 L 697,673 L 698,673 L 698,672 L 698,671 L 699,671 L 698,671 L 698,670 L 699,670 L 699,669 L 700,669 L 701,669 L 701,668 L 702,668 L 702,667 L 703,667 L 702,667 L 702,666 L 701,666 L 702,665 L 703,664 L 704,664 L 704,665 L 704,666 L 705,666 L 706,666 L 706,665 L 706,664 L 707,664 L 708,664 L 708,663 L 709,663 L 709,662 L 709,661 L 709,660 L 709,659 L 710,659 L 710,658 L 711,658 L 711,657 L 710,657 L 710,656 L 711,656 L 711,655 L 710,655 L 710,654 L 710,653 L 709,653 L 710,652 L 709,651 L 709,650 L 709,649 L 709,648 L 709,647 L 709,646 L 708,646 L 708,645 L 707,645 L 707,644 L 706,644 L 706,643 L 705,643 L 704,643 L 705,643 L 704,643 L 705,643 L 704,643 L 704,642 L 703,642 L 703,641 L 702,641 L 702,640 L 702,639 L 702,638 L 702,637 L 701,637 L 701,636 L 701,635 L 701,634 L 701,633 L 700,633 L 700,632 L 700,631 L 700,630 L 700,629 L 699,629 L 699,628 L 699,627 L 699,626 L 699,625 L 698,625 L 698,624 L 697,624 L 696,624 L 695,624 L 695,623 L 694,623 L 693,623 L 693,622 L 692,622 L 692,621 L 691,621 L 691,620 L 690,620 L 690,619 L 689,619 L 688,619 L 688,618 L 687,618 L 686,617 L 686,618 L 685,618 L 684,618 L 684,619 L 684,620 L 683,620 L 682,620 L 682,619 L 681,619 L 680,619 L 679,619 L 678,619 L 677,619 L 676,619 L 676,620 L 677,620 L 677,621 L 677,622 L 677,623 L 678,623 L 678,624 L 679,624 L 679,625 L 680,625 L 680,626 L 681,626 L 682,627 L 682,628 L 682,627 L 681,627 L 680,626 L 679,625 L 678,625 L 677,624 L 676,624 L 675,624 L 675,623 L 674,623 L 674,624 L 673,624 L 673,625 L 673,626 L 673,627 L 672,627 L 672,628 L 672,629 L 671,629 L 671,630 L 671,631 L 671,630 L 670,630 L 670,629 L 671,629 L 671,628 L 670,628 L 670,627 L 670,626 L 669,625 L 669,624 L 668,624 L 667,624 L 666,624 L 666,623 L 666,622 L 667,622 L 668,621 L 668,620 L 669,620 L 669,619 L 670,619 L 670,618 L 671,618 L 671,617 L 671,616 L 672,616 L 672,615 L 673,615 L 674,614 L 674,613 L 674,612 L 675,612 L 676,612 L 676,611 L 677,611 L 677,610 L 677,609 L 677,608 L 676,608 L 676,607 L 676,606 L 677,606 L 677,605 L 677,604 L 678,604 L 678,603 L 678,602 L 679,602 L 680,602 L 680,601 L 680,600 L 681,599 L 681,598 L 681,597 L 682,597 L 682,596 L 683,596 L 683,595 L 684,595 L 684,594 L 685,594 L 685,595 L 686,595 L 686,594 L 686,593 L 685,592 L 684,592 L 684,591 L 685,591 L 685,590 L 685,589 L 686,588 L 686,587 L 686,586 L 687,586 L 688,585 L 689,584 L 690,584 L 691,584 L 692,585 L 693,584 L 696,583 L 697,583 L 698,583 L 698,584 L 700,585 L 700,586 L 701,586 L 702,586 L 703,587 L 704,587 L 705,587 L 705,586 L 706,586 L 707,585 L 707,584 L 708,584 L 709,584 L 709,585 L 709,586 L 710,586 L 711,585 L 712,586 L 713,586 L 714,586 L 715,586 L 716,586 L 716,585 L 717,584 L 717,583 L 718,582 L 718,581 L 718,580 L 719,580 L 720,578 L 724,573 L 725,573 L 726,573 " />
</g>
<g id="evias_3" >
<path d="M 572,350 L 571,350 L 572,349 L 572,350 " />
<path d="M 561,346 L 561,347 L 561,346 " />
<path d="M 482,308 L 483,308 L 484,308 L 484,309 L 484,310 L 485,310 L 485,311 L 486,311 L 486,312 L 486,313 L 487,313 L 487,314 L 488,314 L 488,315 L 489,316 L 488,316 L 488,317 L 489,317 L 489,318 L 490,318 L 490,319 L 491,319 L 492,319 L 492,320 L 492,319 L 493,319 L 494,320 L 494,321 L 495,322 L 495,323 L 495,324 L 494,324 L 494,325 L 494,326 L 494,327 L 495,328 L 496,328 L 496,327 L 496,328 L 495,328 L 495,329 L 496,329 L 496,330 L 496,331 L 497,331 L 497,332 L 498,332 L 499,332 L 499,333 L 500,333 L 500,334 L 501,334 L 502,334 L 502,333 L 503,333 L 503,334 L 504,334 L 504,335 L 504,336 L 505,336 L 506,336 L 507,335 L 508,335 L 509,335 L 510,335 L 511,335 L 512,336 L 512,335 L 513,335 L 513,336 L 514,336 L 514,337 L 515,337 L 515,338 L 516,338 L 517,338 L 518,338 L 518,337 L 519,337 L 520,338 L 521,338 L 522,338 L 522,339 L 523,339 L 523,340 L 524,340 L 524,339 L 524,340 L 525,340 L 525,341 L 526,341 L 526,342 L 527,342 L 527,343 L 527,342 L 528,343 L 529,344 L 530,344 L 530,345 L 531,345 L 532,344 L 533,344 L 534,344 L 534,345 L 534,346 L 535,346 L 536,346 L 536,347 L 537,347 L 538,347 L 538,348 L 538,347 L 539,347 L 540,347 L 540,348 L 541,348 L 541,349 L 541,350 L 542,350 L 542,351 L 543,351 L 544,351 L 544,352 L 545,352 L 546,352 L 547,352 L 548,352 L 549,352 L 550,352 L 550,351 L 551,351 L 552,351 L 553,352 L 553,351 L 554,351 L 555,351 L 555,350 L 556,350 L 557,350 L 557,349 L 558,349 L 559,349 L 560,349 L 560,348 L 561,348 L 562,348 L 562,349 L 562,350 L 563,350 L 563,351 L 564,351 L 565,351 L 566,351 L 566,352 L 567,352 L 568,352 L 569,352 L 570,352 L 571,352 L 572,352 L 573,352 L 573,353 L 574,353 L 575,354 L 576,354 L 576,355 L 577,355 L 578,355 L 577,356 L 576,357 L 576,358 L 576,359 L 576,360 L 576,361 L 576,362 L 576,363 L 575,364 L 575,365 L 574,365 L 574,366 L 573,367 L 573,368 L 573,369 L 573,370 L 573,371 L 573,372 L 572,372 L 571,373 L 570,374 L 570,375 L 570,376 L 571,376 L 572,377 L 574,378 L 575,378 L 576,379 L 576,380 L 576,381 L 575,383 L 574,384 L 574,385 L 573,385 L 573,386 L 573,387 L 573,388 L 573,389 L 574,389 L 573,389 L 573,390 L 573,391 L 573,392 L 572,392 L 571,393 L 571,394 L 572,394 L 573,395 L 574,395 L 574,396 L 575,396 L 575,397 L 576,397 L 576,398 L 576,399 L 576,400 L 575,400 L 573,401 L 571,402 L 571,403 L 570,404 L 569,404 L 567,406 L 566,407 L 565,408 L 564,408 L 564,409 L 563,409 L 563,410 L 564,410 L 564,411 L 565,411 L 566,412 L 566,413 L 567,413 L 567,414 L 568,414 L 568,415 L 568,416 L 567,416 L 566,416 L 566,417 L 566,418 L 567,418 L 568,418 L 569,418 L 569,417 L 571,417 L 572,417 L 573,417 L 573,418 L 574,418 L 574,419 L 573,419 L 573,420 L 572,420 L 572,421 L 571,421 L 570,422 L 569,423 L 568,424 L 568,425 L 567,426 L 567,427 L 567,428 L 567,429 L 567,430 L 568,431 L 568,432 L 568,433 L 568,434 L 568,435 L 568,436 L 568,437 L 569,437 L 569,438 L 569,439 L 570,439 L 571,440 L 572,441 L 572,442 L 572,443 L 572,444 L 571,444 L 571,445 L 570,445 L 570,446 L 569,446 L 568,447 L 568,448 L 566,449 L 566,450 L 565,450 L 564,451 L 563,451 L 561,451 L 561,452 L 561,453 L 562,453 L 562,454 L 563,454 L 563,455 L 563,456 L 563,457 L 564,457 L 564,458 L 564,459 L 565,459 L 565,460 L 565,461 L 565,462 L 565,463 L 564,464 L 564,465 L 565,466 L 564,467 L 564,468 L 563,468 L 562,468 L 561,468 L 560,468 L 559,468 L 558,468 L 557,469 L 556,468 L 555,468 L 554,468 L 553,468 L 553,469 L 552,469 L 550,468 L 549,468 L 548,468 L 547,468 L 546,469 L 546,470 L 546,471 L 546,472 L 546,473 L 546,474 L 545,474 L 544,475 L 543,475 L 542,476 L 541,477 L 540,478 L 540,477 L 540,476 L 540,475 L 540,474 L 540,473 L 539,473 L 538,473 L 537,473 L 536,472 L 536,473 L 535,473 L 534,473 L 534,474 L 533,474 L 532,474 L 531,474 L 529,474 L 528,474 L 527,475 L 526,475 L 525,475 L 524,475 L 523,476 L 522,476 L 521,476 L 520,475 L 519,475 L 518,474 L 517,474 L 516,475 L 514,475 L 513,475 L 513,476 L 513,475 L 512,474 L 512,473 L 511,473 L 511,472 L 510,472 L 509,472 L 508,472 L 508,471 L 507,471 L 507,470 L 507,469 L 507,468 L 506,467 L 507,467 L 507,466 L 507,465 L 506,465 L 505,465 L 504,465 L 503,465 L 502,465 L 501,465 L 500,466 L 499,465 L 498,465 L 497,465 L 496,465 L 496,464 L 495,464 L 495,463 L 494,463 L 494,462 L 494,461 L 493,461 L 493,460 L 492,460 L 492,459 L 491,459 L 490,459 L 489,459 L 489,458 L 488,458 L 487,457 L 486,456 L 485,456 L 484,456 L 483,456 L 483,455 L 482,453 L 481,452 L 480,451 L 479,450 L 478,450 L 478,449 L 478,448 L 478,447 L 478,446 L 477,446 L 476,446 L 475,446 L 475,447 L 474,448 L 474,449 L 473,449 L 472,449 L 472,450 L 472,451 L 472,450 L 471,450 L 471,449 L 470,449 L 470,448 L 469,447 L 468,446 L 467,445 L 466,444 L 466,443 L 465,443 L 465,442 L 465,441 L 465,440 L 465,439 L 465,438 L 465,437 L 465,436 L 466,436 L 466,435 L 466,434 L 467,434 L 466,434 L 466,433 L 465,433 L 464,433 L 463,433 L 462,433 L 461,433 L 461,432 L 460,432 L 459,432 L 459,431 L 458,431 L 457,430 L 456,430 L 456,429 L 455,429 L 455,428 L 454,428 L 454,427 L 453,427 L 453,426 L 452,426 L 451,426 L 451,427 L 450,427 L 450,428 L 449,428 L 449,429 L 448,429 L 447,429 L 446,430 L 445,430 L 445,429 L 446,428 L 446,427 L 446,426 L 446,425 L 445,425 L 444,425 L 444,424 L 445,424 L 445,423 L 445,422 L 444,422 L 444,423 L 443,423 L 442,423 L 441,424 L 440,424 L 439,425 L 438,426 L 437,426 L 436,426 L 436,427 L 435,428 L 435,429 L 435,428 L 434,428 L 433,428 L 433,427 L 432,427 L 432,428 L 432,427 L 432,426 L 431,426 L 431,425 L 430,425 L 430,424 L 429,424 L 429,423 L 428,423 L 428,422 L 428,421 L 428,420 L 427,420 L 427,419 L 426,419 L 426,418 L 425,418 L 425,417 L 424,417 L 424,416 L 424,415 L 424,414 L 423,414 L 424,413 L 423,413 L 423,412 L 422,412 L 423,412 L 422,412 L 422,411 L 421,411 L 421,410 L 420,410 L 420,411 L 420,410 L 419,410 L 418,410 L 417,411 L 416,411 L 415,411 L 414,411 L 413,411 L 412,411 L 412,410 L 411,410 L 411,411 L 410,411 L 409,411 L 409,410 L 408,410 L 408,409 L 407,409 L 407,408 L 406,408 L 406,407 L 405,407 L 405,406 L 404,406 L 404,405 L 403,405 L 402,405 L 401,405 L 400,405 L 399,405 L 398,405 L 398,406 L 398,405 L 397,405 L 396,405 L 395,405 L 395,406 L 394,406 L 393,406 L 392,407 L 391,407 L 391,408 L 390,408 L 389,408 L 388,407 L 387,407 L 387,406 L 386,406 L 386,405 L 385,405 L 385,404 L 384,404 L 384,403 L 383,403 L 382,403 L 382,402 L 381,402 L 381,401 L 380,401 L 380,400 L 380,399 L 380,398 L 379,398 L 379,397 L 379,396 L 379,395 L 378,395 L 378,394 L 378,393 L 377,393 L 377,392 L 377,391 L 376,391 L 376,390 L 376,389 L 375,389 L 375,388 L 375,387 L 375,386 L 374,386 L 374,385 L 374,384 L 374,383 L 374,382 L 374,381 L 374,380 L 374,379 L 373,378 L 373,377 L 373,376 L 372,376 L 372,375 L 372,374 L 372,373 L 371,373 L 370,373 L 370,372 L 369,372 L 368,372 L 367,372 L 367,371 L 366,371 L 366,370 L 365,370 L 364,369 L 363,368 L 362,368 L 362,367 L 361,367 L 360,366 L 359,365 L 358,365 L 357,365 L 356,365 L 356,364 L 355,364 L 355,365 L 354,365 L 353,365 L 352,365 L 352,364 L 351,364 L 351,363 L 352,363 L 352,362 L 351,362 L 351,361 L 350,361 L 350,360 L 351,360 L 351,359 L 351,358 L 350,358 L 350,357 L 350,356 L 349,356 L 349,355 L 349,354 L 349,353 L 349,352 L 348,352 L 348,351 L 348,350 L 347,350 L 347,349 L 346,349 L 347,348 L 348,348 L 348,347 L 350,347 L 351,346 L 352,346 L 353,345 L 354,345 L 356,344 L 356,343 L 357,343 L 357,342 L 358,341 L 359,341 L 359,340 L 360,339 L 361,338 L 361,337 L 361,336 L 361,335 L 362,334 L 362,333 L 363,333 L 364,332 L 364,331 L 365,331 L 366,331 L 367,331 L 368,331 L 369,332 L 369,333 L 370,333 L 370,334 L 371,335 L 372,335 L 372,336 L 373,336 L 374,337 L 375,338 L 376,338 L 376,339 L 377,339 L 377,338 L 378,338 L 378,337 L 379,337 L 380,337 L 381,336 L 382,336 L 383,336 L 383,335 L 384,334 L 385,334 L 386,334 L 387,333 L 387,332 L 387,331 L 388,331 L 389,330 L 389,329 L 390,329 L 390,328 L 389,327 L 389,326 L 390,325 L 390,324 L 391,324 L 392,323 L 392,322 L 393,322 L 396,320 L 397,320 L 398,320 L 398,321 L 399,321 L 400,321 L 402,322 L 402,323 L 403,323 L 403,324 L 404,324 L 405,323 L 406,323 L 407,322 L 408,323 L 409,323 L 410,323 L 411,323 L 412,323 L 413,323 L 414,324 L 415,324 L 416,324 L 417,324 L 418,324 L 418,323 L 419,322 L 420,321 L 421,320 L 422,320 L 423,319 L 424,319 L 426,318 L 427,318 L 428,318 L 429,317 L 431,316 L 432,316 L 433,316 L 433,315 L 434,315 L 435,315 L 436,316 L 436,317 L 437,317 L 438,317 L 438,318 L 439,318 L 439,319 L 440,321 L 441,321 L 441,322 L 442,323 L 443,323 L 443,324 L 443,325 L 444,326 L 445,327 L 446,328 L 447,330 L 447,331 L 448,331 L 448,332 L 449,331 L 450,331 L 451,331 L 453,330 L 454,330 L 455,330 L 456,330 L 457,330 L 458,330 L 460,329 L 461,329 L 462,329 L 463,329 L 464,328 L 466,328 L 466,327 L 467,327 L 468,327 L 469,326 L 469,325 L 470,325 L 471,325 L 471,324 L 471,323 L 472,323 L 473,323 L 474,322 L 474,321 L 474,320 L 474,319 L 474,318 L 474,317 L 474,316 L 475,316 L 476,316 L 477,315 L 477,314 L 477,313 L 477,312 L 478,312 L 478,311 L 478,310 L 479,310 L 479,309 L 480,309 L 482,307 L 482,308 " />
</g>
<g id="evias_4" >
<path d="M 788,254 L 789,254 L 788,254 " />
<path d="M 815,257 L 815,258 L 815,259 L 814,259 L 814,260 L 815,260 L 815,261 L 815,262 L 814,262 L 814,261 L 814,260 L 813,259 L 813,258 L 812,258 L 812,257 L 812,256 L 813,256 L 813,255 L 813,254 L 814,254 L 814,253 L 814,252 L 815,252 L 815,253 L 815,254 L 815,255 L 815,256 L 815,257 " />
<path d="M 849,254 L 849,255 L 849,256 L 849,257 L 848,257 L 848,258 L 848,259 L 848,260 L 848,261 L 847,261 L 846,261 L 846,260 L 846,261 L 846,262 L 845,262 L 846,262 L 845,263 L 845,264 L 844,264 L 843,264 L 843,265 L 843,266 L 843,267 L 842,267 L 843,267 L 844,267 L 844,268 L 844,269 L 843,269 L 843,270 L 842,270 L 842,271 L 842,272 L 842,273 L 842,274 L 842,275 L 841,275 L 841,274 L 840,274 L 840,273 L 839,273 L 839,272 L 838,272 L 838,271 L 838,270 L 837,270 L 837,271 L 836,271 L 836,270 L 836,269 L 836,268 L 836,267 L 837,267 L 837,266 L 837,265 L 838,264 L 839,264 L 839,263 L 840,263 L 840,262 L 840,261 L 841,261 L 841,260 L 842,260 L 842,259 L 842,258 L 842,257 L 842,256 L 843,256 L 844,256 L 844,255 L 845,255 L 845,254 L 845,253 L 845,252 L 845,251 L 846,251 L 847,251 L 848,251 L 849,251 L 849,252 L 849,253 L 849,254 " />
<path d="M 784,249 L 785,249 L 784,249 " />
<path d="M 834,245 L 833,245 L 834,244 L 834,245 " />
<path d="M 777,245 L 778,245 L 778,246 L 779,245 L 779,246 L 779,247 L 780,248 L 781,248 L 781,249 L 782,249 L 782,250 L 783,250 L 784,250 L 785,250 L 786,250 L 786,251 L 785,251 L 785,252 L 786,253 L 786,254 L 785,254 L 785,255 L 784,255 L 783,255 L 783,254 L 782,254 L 783,254 L 783,255 L 782,255 L 782,256 L 781,256 L 780,256 L 779,256 L 780,256 L 780,257 L 780,258 L 779,258 L 778,259 L 777,259 L 777,258 L 776,258 L 776,257 L 776,256 L 775,256 L 775,257 L 774,257 L 773,256 L 772,256 L 772,255 L 772,254 L 773,254 L 773,253 L 772,253 L 771,253 L 772,252 L 772,251 L 773,251 L 774,251 L 774,250 L 774,249 L 773,249 L 773,248 L 774,248 L 774,249 L 775,249 L 775,248 L 775,247 L 774,247 L 775,247 L 776,246 L 776,245 L 777,245 " />
<path d="M 827,207 L 827,208 L 827,207 " />
<path d="M 830,142 L 830,143 L 830,144 L 830,145 L 831,145 L 830,145 L 831,145 L 831,146 L 830,146 L 830,145 L 829,145 L 829,144 L 829,143 L 829,142 L 830,142 " />
<path d="M 829,206 L 828,206 L 828,205 L 829,205 L 829,206 " />
<path d="M 885,200 L 885,201 L 885,200 " />
<path d="M 886,199 L 886,200 L 886,199 " />
<path d="M 884,199 L 884,200 L 884,199 " />
<path d="M 886,199 L 886,198 L 886,199 " />
<path d="M 825,197 L 824,197 L 823,197 L 823,196 L 824,196 L 825,196 L 826,197 L 825,197 " />
<path d="M 838,151 L 839,152 L 840,152 L 839,152 L 839,153 L 838,153 L 838,154 L 837,154 L 837,153 L 836,153 L 836,152 L 837,152 L 838,152 L 838,151 " />
<path d="M 818,219 L 818,218 L 817,218 L 818,218 L 818,219 " />
<path d="M 837,157 L 838,158 L 837,158 L 837,157 " />
<path d="M 880,194 L 880,193 L 880,194 " />
<path d="M 838,163 L 838,164 L 839,164 L 838,164 L 838,163 " />
<path d="M 829,174 L 830,174 L 831,174 L 831,173 L 832,173 L 832,172 L 832,171 L 831,171 L 831,170 L 832,170 L 832,171 L 833,171 L 833,170 L 832,170 L 832,169 L 833,169 L 834,169 L 833,169 L 834,169 L 834,168 L 835,168 L 835,169 L 835,170 L 836,170 L 836,169 L 837,169 L 838,169 L 838,168 L 838,167 L 838,166 L 839,166 L 839,167 L 840,167 L 840,168 L 839,168 L 839,169 L 840,169 L 840,168 L 841,168 L 842,168 L 842,169 L 842,170 L 842,169 L 842,170 L 843,170 L 843,169 L 843,170 L 843,171 L 842,171 L 843,172 L 844,172 L 844,171 L 845,171 L 846,171 L 847,172 L 848,172 L 848,173 L 849,173 L 849,174 L 850,174 L 850,175 L 850,176 L 850,177 L 850,178 L 851,178 L 852,178 L 853,178 L 853,179 L 853,180 L 853,179 L 854,179 L 855,179 L 855,180 L 856,180 L 857,180 L 857,181 L 856,181 L 857,181 L 857,182 L 857,181 L 858,181 L 858,182 L 858,183 L 859,183 L 859,184 L 860,184 L 861,184 L 862,184 L 862,185 L 861,185 L 862,186 L 863,186 L 864,186 L 864,187 L 865,187 L 866,187 L 866,188 L 867,187 L 868,187 L 867,187 L 867,188 L 868,188 L 868,189 L 869,189 L 870,189 L 871,189 L 871,190 L 871,191 L 872,191 L 873,191 L 873,192 L 874,192 L 875,192 L 875,193 L 876,193 L 877,193 L 877,194 L 877,195 L 877,196 L 878,196 L 878,197 L 879,197 L 880,198 L 881,198 L 882,198 L 882,199 L 883,199 L 884,199 L 884,200 L 883,200 L 883,201 L 882,201 L 882,202 L 882,203 L 882,204 L 881,204 L 880,205 L 879,206 L 879,207 L 879,208 L 878,208 L 878,209 L 879,210 L 878,210 L 878,211 L 878,212 L 878,213 L 878,214 L 878,215 L 879,215 L 879,216 L 879,217 L 879,218 L 880,218 L 880,219 L 880,220 L 880,221 L 881,221 L 880,221 L 880,222 L 881,222 L 881,223 L 881,224 L 882,224 L 882,225 L 882,226 L 881,226 L 881,227 L 880,227 L 879,227 L 878,227 L 878,228 L 878,229 L 878,230 L 879,230 L 880,230 L 881,230 L 880,231 L 879,232 L 879,233 L 880,233 L 881,233 L 882,233 L 882,232 L 883,232 L 883,231 L 884,231 L 885,231 L 885,232 L 884,232 L 884,233 L 885,233 L 886,233 L 887,233 L 887,232 L 888,232 L 888,233 L 888,232 L 888,233 L 889,233 L 890,233 L 891,233 L 891,234 L 890,234 L 890,235 L 890,236 L 890,237 L 891,237 L 891,238 L 892,238 L 893,238 L 893,239 L 893,240 L 893,241 L 893,240 L 894,240 L 894,241 L 895,241 L 895,242 L 896,242 L 896,243 L 897,243 L 898,243 L 898,242 L 899,242 L 900,242 L 901,242 L 901,243 L 902,243 L 903,243 L 903,244 L 903,245 L 904,245 L 904,246 L 905,246 L 905,247 L 906,247 L 907,247 L 908,247 L 907,247 L 907,248 L 908,248 L 908,249 L 909,249 L 910,248 L 910,249 L 911,249 L 911,250 L 912,251 L 911,251 L 911,252 L 912,252 L 912,251 L 913,251 L 914,251 L 914,252 L 914,253 L 915,253 L 915,252 L 916,252 L 915,252 L 915,253 L 916,253 L 916,254 L 917,254 L 917,255 L 918,255 L 919,255 L 919,256 L 920,256 L 920,257 L 921,257 L 921,258 L 920,258 L 920,259 L 921,259 L 922,259 L 923,259 L 923,260 L 924,260 L 924,261 L 924,262 L 924,263 L 924,264 L 925,264 L 926,264 L 926,265 L 926,266 L 926,267 L 927,267 L 927,268 L 927,267 L 928,267 L 929,267 L 929,268 L 930,268 L 930,269 L 931,269 L 930,269 L 931,269 L 931,270 L 930,270 L 931,270 L 931,271 L 930,271 L 930,272 L 931,272 L 931,273 L 931,274 L 932,274 L 932,275 L 932,276 L 932,277 L 932,278 L 933,278 L 932,278 L 932,279 L 931,279 L 930,279 L 930,280 L 929,280 L 928,280 L 928,281 L 929,281 L 929,282 L 928,282 L 928,283 L 929,283 L 929,284 L 930,284 L 931,284 L 931,285 L 932,285 L 931,285 L 931,286 L 931,287 L 931,288 L 931,289 L 931,290 L 931,289 L 930,289 L 929,289 L 928,289 L 928,288 L 928,289 L 927,289 L 926,289 L 925,289 L 924,289 L 925,289 L 924,289 L 924,290 L 924,291 L 923,291 L 922,291 L 921,291 L 921,292 L 920,292 L 920,293 L 919,293 L 919,294 L 918,294 L 918,293 L 917,294 L 917,295 L 917,294 L 916,294 L 916,293 L 916,292 L 916,293 L 915,293 L 915,294 L 914,293 L 913,293 L 912,293 L 911,293 L 911,294 L 910,294 L 911,294 L 911,295 L 910,295 L 910,294 L 910,293 L 910,292 L 910,291 L 911,291 L 911,290 L 911,289 L 911,288 L 910,288 L 910,289 L 910,290 L 910,289 L 909,289 L 909,288 L 909,289 L 908,289 L 907,289 L 907,290 L 908,290 L 908,291 L 908,292 L 908,293 L 907,293 L 906,293 L 906,294 L 905,294 L 905,295 L 904,295 L 903,295 L 903,296 L 902,296 L 902,295 L 901,295 L 900,295 L 899,295 L 899,294 L 899,293 L 899,292 L 898,292 L 897,292 L 896,292 L 896,291 L 896,290 L 896,289 L 896,288 L 895,288 L 895,287 L 895,286 L 895,285 L 894,285 L 894,284 L 893,284 L 893,283 L 892,283 L 892,282 L 891,282 L 891,281 L 890,281 L 890,280 L 889,280 L 888,280 L 887,280 L 887,281 L 887,280 L 886,280 L 885,280 L 885,281 L 884,281 L 883,282 L 883,283 L 882,283 L 882,282 L 881,282 L 880,282 L 880,283 L 880,284 L 879,284 L 879,285 L 878,285 L 877,285 L 877,284 L 876,283 L 876,284 L 876,285 L 877,285 L 877,286 L 877,287 L 877,288 L 878,289 L 878,290 L 878,291 L 879,291 L 879,292 L 879,293 L 879,294 L 879,295 L 879,296 L 879,297 L 879,298 L 878,298 L 878,297 L 877,297 L 876,297 L 876,296 L 875,296 L 875,295 L 874,294 L 874,293 L 874,292 L 873,292 L 873,293 L 872,293 L 871,293 L 871,292 L 870,292 L 870,291 L 870,290 L 870,289 L 870,288 L 871,288 L 871,287 L 871,286 L 871,285 L 871,286 L 870,286 L 869,286 L 868,286 L 867,286 L 866,286 L 866,285 L 866,284 L 867,284 L 867,283 L 867,282 L 867,281 L 866,281 L 866,282 L 865,282 L 865,281 L 865,282 L 864,282 L 864,283 L 863,283 L 863,284 L 862,284 L 861,284 L 861,283 L 860,283 L 860,282 L 860,281 L 860,280 L 860,279 L 861,279 L 861,278 L 861,277 L 860,277 L 860,276 L 860,275 L 861,275 L 862,275 L 863,275 L 863,276 L 863,277 L 864,277 L 865,277 L 865,276 L 865,275 L 866,275 L 866,274 L 866,273 L 867,273 L 868,273 L 868,272 L 868,271 L 869,271 L 869,272 L 870,272 L 871,272 L 872,272 L 873,272 L 874,272 L 875,272 L 875,271 L 876,271 L 876,270 L 877,270 L 878,270 L 878,269 L 878,268 L 878,267 L 877,267 L 877,266 L 878,266 L 877,266 L 877,265 L 877,264 L 877,263 L 877,262 L 877,261 L 877,260 L 877,259 L 877,258 L 877,257 L 876,257 L 876,256 L 876,255 L 877,255 L 877,254 L 878,254 L 878,253 L 877,253 L 877,252 L 877,251 L 876,250 L 876,249 L 875,249 L 874,249 L 874,248 L 873,248 L 872,248 L 871,248 L 871,249 L 870,249 L 870,250 L 870,251 L 869,251 L 868,251 L 868,252 L 867,252 L 867,253 L 866,253 L 865,253 L 864,253 L 864,252 L 863,252 L 863,251 L 862,251 L 862,250 L 862,249 L 863,249 L 863,248 L 862,248 L 862,247 L 862,246 L 862,245 L 862,244 L 861,244 L 860,244 L 860,245 L 859,245 L 859,246 L 858,246 L 858,247 L 857,247 L 856,247 L 856,246 L 855,246 L 854,246 L 854,245 L 853,245 L 852,245 L 852,246 L 852,247 L 851,247 L 850,247 L 850,248 L 850,249 L 849,249 L 849,250 L 848,250 L 847,250 L 847,249 L 848,248 L 849,248 L 848,247 L 849,247 L 848,247 L 848,246 L 849,246 L 849,245 L 848,245 L 848,244 L 848,243 L 849,243 L 849,242 L 850,242 L 850,241 L 851,241 L 851,240 L 850,240 L 849,240 L 848,240 L 848,241 L 847,241 L 847,240 L 846,240 L 846,241 L 847,241 L 846,241 L 845,241 L 844,241 L 843,241 L 843,242 L 842,242 L 841,243 L 840,243 L 840,242 L 839,242 L 839,241 L 838,241 L 837,241 L 837,242 L 836,242 L 836,241 L 836,240 L 836,239 L 837,239 L 838,239 L 838,238 L 838,237 L 838,236 L 837,236 L 838,236 L 838,235 L 837,235 L 837,234 L 836,234 L 836,233 L 836,232 L 836,231 L 835,231 L 835,230 L 834,230 L 833,230 L 833,231 L 833,232 L 832,232 L 832,233 L 831,233 L 831,234 L 830,234 L 829,234 L 829,233 L 829,232 L 829,231 L 828,231 L 828,230 L 828,229 L 828,228 L 827,228 L 828,228 L 827,228 L 827,227 L 826,227 L 826,226 L 825,226 L 825,227 L 824,227 L 824,228 L 823,228 L 822,228 L 822,229 L 821,229 L 820,229 L 819,229 L 818,229 L 817,229 L 816,229 L 815,229 L 814,229 L 814,228 L 813,228 L 813,227 L 813,226 L 813,225 L 814,225 L 814,224 L 815,224 L 816,224 L 816,223 L 816,222 L 817,222 L 817,221 L 818,221 L 819,221 L 819,220 L 820,220 L 820,219 L 821,219 L 822,219 L 822,218 L 823,218 L 823,217 L 824,217 L 824,216 L 823,216 L 823,215 L 823,214 L 823,213 L 823,212 L 823,211 L 823,210 L 824,210 L 824,209 L 825,209 L 826,209 L 826,208 L 827,208 L 827,209 L 827,208 L 828,208 L 828,207 L 829,207 L 829,206 L 830,206 L 830,205 L 831,205 L 830,204 L 830,203 L 830,202 L 829,202 L 830,202 L 830,201 L 829,201 L 829,200 L 829,199 L 829,198 L 830,197 L 829,197 L 829,196 L 828,196 L 827,196 L 826,196 L 826,195 L 825,195 L 824,195 L 824,194 L 823,194 L 824,194 L 824,193 L 825,193 L 826,193 L 826,192 L 825,192 L 825,191 L 824,191 L 823,191 L 824,191 L 824,190 L 823,190 L 823,189 L 822,189 L 822,188 L 821,188 L 822,188 L 822,187 L 822,188 L 823,188 L 823,187 L 822,187 L 822,186 L 822,185 L 821,185 L 822,185 L 822,184 L 822,183 L 822,184 L 823,184 L 824,184 L 824,183 L 825,183 L 825,182 L 825,181 L 825,180 L 825,179 L 826,179 L 827,179 L 827,178 L 827,177 L 826,177 L 825,177 L 825,176 L 826,176 L 826,177 L 826,176 L 827,176 L 827,175 L 828,175 L 829,174 " />
<path d="M 896,295 L 897,296 L 898,296 L 898,297 L 898,298 L 899,298 L 900,298 L 900,299 L 901,299 L 902,298 L 903,298 L 904,298 L 904,299 L 905,299 L 905,300 L 904,300 L 904,301 L 905,301 L 905,302 L 904,302 L 904,303 L 905,303 L 905,304 L 905,305 L 904,305 L 903,305 L 903,306 L 903,305 L 902,305 L 901,305 L 900,305 L 900,304 L 900,303 L 900,302 L 899,302 L 900,302 L 899,303 L 898,303 L 898,304 L 899,304 L 898,304 L 897,304 L 896,304 L 895,304 L 894,304 L 893,304 L 892,304 L 891,304 L 891,303 L 891,302 L 890,302 L 890,301 L 891,301 L 891,300 L 892,300 L 892,299 L 893,299 L 893,298 L 892,298 L 893,298 L 893,297 L 892,297 L 892,296 L 892,295 L 893,295 L 894,295 L 895,295 L 896,295 " />
<path d="M 889,294 L 889,295 L 888,295 L 888,296 L 889,296 L 889,297 L 890,298 L 889,298 L 888,298 L 888,297 L 887,297 L 888,296 L 887,296 L 887,295 L 886,295 L 885,295 L 884,295 L 883,295 L 883,294 L 883,293 L 884,293 L 885,292 L 885,293 L 886,293 L 887,293 L 888,293 L 889,294 " />
<path d="M 831,172 L 830,172 L 831,172 " />
<path d="M 852,281 L 851,281 L 851,280 L 852,280 L 852,281 " />
<path d="M 816,221 L 815,221 L 816,221 " />
<path d="M 858,275 L 858,276 L 857,276 L 857,275 L 858,275 " />
<path d="M 836,158 L 835,158 L 836,158 L 837,158 L 836,158 L 836,159 L 836,158 " />
<path d="M 881,232 L 881,233 L 881,232 " />
<path d="M 881,230 L 881,229 L 881,230 " />
<path d="M 882,195 L 882,194 L 882,195 " />
<path d="M 818,232 L 817,232 L 817,233 L 817,232 L 817,233 L 816,233 L 816,232 L 816,233 L 815,233 L 815,232 L 814,232 L 814,231 L 815,231 L 815,230 L 816,230 L 817,230 L 818,230 L 818,231 L 818,232 " />
</g>
<g id="evias_5" >
<path d="M 678,591 L 677,591 L 677,590 L 678,590 L 678,591 " />
<path d="M 661,577 L 660,577 L 660,576 L 661,576 L 661,575 L 661,576 L 661,577 " />
<path d="M 638,563 L 637,563 L 638,562 L 638,563 " />
<path d="M 706,520 L 706,519 L 707,519 L 707,520 L 706,520 " />
<path d="M 719,445 L 719,444 L 720,444 L 720,445 L 719,445 " />
<path d="M 716,389 L 715,389 L 715,388 L 716,388 L 716,389 " />
<path d="M 683,359 L 683,360 L 682,360 L 682,359 L 683,359 " />
<path d="M 728,355 L 729,355 L 729,356 L 728,356 L 727,355 L 728,355 " />
<path d="M 672,353 L 673,353 L 674,353 L 674,354 L 674,355 L 674,356 L 675,356 L 675,357 L 674,357 L 673,357 L 673,356 L 674,356 L 673,356 L 673,355 L 672,355 L 672,354 L 672,353 " />
<path d="M 633,343 L 633,344 L 634,344 L 633,344 L 633,345 L 633,346 L 634,346 L 635,346 L 635,345 L 636,345 L 636,344 L 637,344 L 637,345 L 638,345 L 638,346 L 638,345 L 638,346 L 639,346 L 639,347 L 640,347 L 640,348 L 641,348 L 642,348 L 642,349 L 642,348 L 643,348 L 643,347 L 644,347 L 645,347 L 646,347 L 647,347 L 648,347 L 648,348 L 649,348 L 649,349 L 650,349 L 651,349 L 651,350 L 651,351 L 652,351 L 653,351 L 654,351 L 654,352 L 655,352 L 655,353 L 656,352 L 657,352 L 657,353 L 658,353 L 659,353 L 659,354 L 660,354 L 660,355 L 661,355 L 662,355 L 662,354 L 663,354 L 664,354 L 665,354 L 666,354 L 667,354 L 667,355 L 668,355 L 669,355 L 670,355 L 671,355 L 671,356 L 672,356 L 672,357 L 672,358 L 673,358 L 673,359 L 674,359 L 675,359 L 676,359 L 676,360 L 677,360 L 678,360 L 678,361 L 679,361 L 679,362 L 680,362 L 681,362 L 681,363 L 682,363 L 683,363 L 683,364 L 684,364 L 684,365 L 684,366 L 684,367 L 684,368 L 683,368 L 683,367 L 682,367 L 681,367 L 680,367 L 680,368 L 679,368 L 678,368 L 678,367 L 677,367 L 677,368 L 676,368 L 676,369 L 675,369 L 675,370 L 674,370 L 674,371 L 673,371 L 673,372 L 673,373 L 672,373 L 672,374 L 671,374 L 671,375 L 670,375 L 670,376 L 670,377 L 671,377 L 671,378 L 671,380 L 671,377 L 670,377 L 669,377 L 668,377 L 668,378 L 668,379 L 669,379 L 670,379 L 669,379 L 668,379 L 668,380 L 668,381 L 668,382 L 668,383 L 668,384 L 668,385 L 668,386 L 668,387 L 668,388 L 667,388 L 667,389 L 667,390 L 668,390 L 668,391 L 668,392 L 668,393 L 668,394 L 668,395 L 668,396 L 669,396 L 669,397 L 669,398 L 670,398 L 670,399 L 670,400 L 671,400 L 671,401 L 672,401 L 672,402 L 672,403 L 673,403 L 673,404 L 674,404 L 674,405 L 675,405 L 675,406 L 676,406 L 677,406 L 677,407 L 678,407 L 678,408 L 679,408 L 679,409 L 680,409 L 680,410 L 681,410 L 682,410 L 682,411 L 683,411 L 683,412 L 684,412 L 684,413 L 684,414 L 685,414 L 686,414 L 686,415 L 687,415 L 687,416 L 688,416 L 689,416 L 689,417 L 690,417 L 690,418 L 691,418 L 692,418 L 692,419 L 693,419 L 693,420 L 694,420 L 695,420 L 695,421 L 696,421 L 696,422 L 697,422 L 697,423 L 698,423 L 699,423 L 699,424 L 700,424 L 700,425 L 701,425 L 701,426 L 702,426 L 703,426 L 704,426 L 704,427 L 704,428 L 705,428 L 705,429 L 706,429 L 705,429 L 706,430 L 707,430 L 707,431 L 708,431 L 708,430 L 708,431 L 709,431 L 709,432 L 708,432 L 709,432 L 708,432 L 709,433 L 710,433 L 710,434 L 711,434 L 711,435 L 712,435 L 713,435 L 713,436 L 713,437 L 714,437 L 715,437 L 715,438 L 716,438 L 717,439 L 717,438 L 717,439 L 718,439 L 718,438 L 719,438 L 719,439 L 719,440 L 720,440 L 719,440 L 719,441 L 719,442 L 718,442 L 717,443 L 717,444 L 717,445 L 716,445 L 716,446 L 716,447 L 715,446 L 715,447 L 714,447 L 713,447 L 713,448 L 713,449 L 712,449 L 712,450 L 712,449 L 712,450 L 711,449 L 711,450 L 711,449 L 710,449 L 710,450 L 710,451 L 709,451 L 709,452 L 709,453 L 708,453 L 708,454 L 707,454 L 706,454 L 705,454 L 705,455 L 705,456 L 704,456 L 704,457 L 703,457 L 703,458 L 702,459 L 702,460 L 701,460 L 702,460 L 702,461 L 701,461 L 700,461 L 700,462 L 700,463 L 699,463 L 699,464 L 699,465 L 699,466 L 699,467 L 700,468 L 700,469 L 700,470 L 700,471 L 700,472 L 701,472 L 700,472 L 700,473 L 700,474 L 700,475 L 700,476 L 701,476 L 701,477 L 700,477 L 700,478 L 700,479 L 700,480 L 700,481 L 701,481 L 701,482 L 701,483 L 700,483 L 700,484 L 699,484 L 699,485 L 698,485 L 697,485 L 697,486 L 697,487 L 697,488 L 698,488 L 699,488 L 698,488 L 699,488 L 699,489 L 699,490 L 699,491 L 698,492 L 698,493 L 697,493 L 696,494 L 697,494 L 697,495 L 697,496 L 698,496 L 698,497 L 698,498 L 699,498 L 700,498 L 700,497 L 701,497 L 701,498 L 702,499 L 703,499 L 703,500 L 704,499 L 705,499 L 704,499 L 704,500 L 704,501 L 705,501 L 705,502 L 705,501 L 706,502 L 707,502 L 707,503 L 707,504 L 707,505 L 707,506 L 708,506 L 707,506 L 706,506 L 706,507 L 707,507 L 708,507 L 708,508 L 709,508 L 708,508 L 708,509 L 708,510 L 709,510 L 708,510 L 708,511 L 707,510 L 707,511 L 706,511 L 705,511 L 705,510 L 705,509 L 704,509 L 704,508 L 703,508 L 702,508 L 701,508 L 701,509 L 700,509 L 700,510 L 700,511 L 699,511 L 699,512 L 698,512 L 698,513 L 699,513 L 699,514 L 700,514 L 700,515 L 699,515 L 699,516 L 698,516 L 697,516 L 697,517 L 697,518 L 697,519 L 698,519 L 699,519 L 700,519 L 699,520 L 699,521 L 700,521 L 700,520 L 701,520 L 702,520 L 702,521 L 701,522 L 702,522 L 702,523 L 703,523 L 704,523 L 704,524 L 705,524 L 706,524 L 706,525 L 707,525 L 707,526 L 708,526 L 709,526 L 709,525 L 709,526 L 710,526 L 711,526 L 711,527 L 711,528 L 711,529 L 711,530 L 712,530 L 712,531 L 712,532 L 711,532 L 710,533 L 711,533 L 711,534 L 712,534 L 712,535 L 712,534 L 713,534 L 713,535 L 714,535 L 714,536 L 714,537 L 713,537 L 713,538 L 712,538 L 712,539 L 712,540 L 712,541 L 712,542 L 712,543 L 712,544 L 713,544 L 713,545 L 712,545 L 712,546 L 713,546 L 712,546 L 712,547 L 711,547 L 710,547 L 710,548 L 710,549 L 709,549 L 708,549 L 708,550 L 707,550 L 708,550 L 709,550 L 709,551 L 708,551 L 708,552 L 709,552 L 709,553 L 710,553 L 710,554 L 711,554 L 712,554 L 713,555 L 714,555 L 715,555 L 715,556 L 714,556 L 714,557 L 714,558 L 713,558 L 713,559 L 714,558 L 714,559 L 715,559 L 715,560 L 716,560 L 716,561 L 717,561 L 718,561 L 718,562 L 718,563 L 718,564 L 718,565 L 719,565 L 719,564 L 720,564 L 720,563 L 721,563 L 722,564 L 721,564 L 721,565 L 722,565 L 723,565 L 724,565 L 724,566 L 723,566 L 722,566 L 722,567 L 722,568 L 723,568 L 724,568 L 724,569 L 725,569 L 724,569 L 723,569 L 723,570 L 722,571 L 721,571 L 721,572 L 722,572 L 722,573 L 723,572 L 723,573 L 724,573 L 720,578 L 719,580 L 718,580 L 718,581 L 718,582 L 717,583 L 717,584 L 716,585 L 716,586 L 715,586 L 714,586 L 713,586 L 712,586 L 711,585 L 710,586 L 709,586 L 709,585 L 709,584 L 708,584 L 707,584 L 707,585 L 706,586 L 705,586 L 705,587 L 704,587 L 703,587 L 702,586 L 701,586 L 700,586 L 700,585 L 698,584 L 698,583 L 697,583 L 696,583 L 693,584 L 692,585 L 691,584 L 690,584 L 689,584 L 688,585 L 687,586 L 686,586 L 686,587 L 686,588 L 685,589 L 685,590 L 685,591 L 684,591 L 684,592 L 684,591 L 684,590 L 684,589 L 684,588 L 684,587 L 683,587 L 683,586 L 682,586 L 681,586 L 681,585 L 680,585 L 679,585 L 678,585 L 678,586 L 677,586 L 676,586 L 676,587 L 677,587 L 677,588 L 677,589 L 677,590 L 677,589 L 676,589 L 675,589 L 675,590 L 674,590 L 673,590 L 673,591 L 672,591 L 672,592 L 672,593 L 672,594 L 671,594 L 671,595 L 671,596 L 671,597 L 671,598 L 670,598 L 670,599 L 670,600 L 669,600 L 669,601 L 668,601 L 667,601 L 667,602 L 667,603 L 666,603 L 665,603 L 665,604 L 664,604 L 664,603 L 664,602 L 664,601 L 663,601 L 663,600 L 662,600 L 662,599 L 661,599 L 660,599 L 660,598 L 660,599 L 659,599 L 659,598 L 660,598 L 660,597 L 661,597 L 662,597 L 662,596 L 663,596 L 662,596 L 662,595 L 663,595 L 662,595 L 661,595 L 661,594 L 660,594 L 659,594 L 659,593 L 660,593 L 660,592 L 660,591 L 661,591 L 662,591 L 662,590 L 662,589 L 661,589 L 661,590 L 660,590 L 659,590 L 658,590 L 658,589 L 658,588 L 657,588 L 657,587 L 656,587 L 656,586 L 657,585 L 657,584 L 658,584 L 658,585 L 659,585 L 659,584 L 660,584 L 660,583 L 661,582 L 662,582 L 662,581 L 663,581 L 663,582 L 663,583 L 663,584 L 664,583 L 665,583 L 665,582 L 666,582 L 665,582 L 665,581 L 664,581 L 664,580 L 664,579 L 664,578 L 665,578 L 665,577 L 666,577 L 666,576 L 667,575 L 667,574 L 667,573 L 667,574 L 668,574 L 668,573 L 668,572 L 667,572 L 666,572 L 666,573 L 666,574 L 665,574 L 665,575 L 664,575 L 663,575 L 663,574 L 662,574 L 662,573 L 663,573 L 663,572 L 663,571 L 663,570 L 662,570 L 662,569 L 663,569 L 663,568 L 664,567 L 664,566 L 664,567 L 663,567 L 663,566 L 663,565 L 663,564 L 662,564 L 662,565 L 661,565 L 660,564 L 659,563 L 658,563 L 657,563 L 657,562 L 658,562 L 657,562 L 657,561 L 656,561 L 655,561 L 655,560 L 654,560 L 653,560 L 652,560 L 652,561 L 652,562 L 651,562 L 650,562 L 650,561 L 649,561 L 649,562 L 648,562 L 648,563 L 647,563 L 647,562 L 647,561 L 647,560 L 647,559 L 646,559 L 646,558 L 645,558 L 644,558 L 644,559 L 644,560 L 643,560 L 642,560 L 642,561 L 642,560 L 641,560 L 640,560 L 640,561 L 639,561 L 638,561 L 637,561 L 637,560 L 636,560 L 636,561 L 635,561 L 634,561 L 634,560 L 634,561 L 633,561 L 632,561 L 632,560 L 631,560 L 631,561 L 630,561 L 630,560 L 629,560 L 628,560 L 628,561 L 627,561 L 627,560 L 628,559 L 627,559 L 626,559 L 625,559 L 624,559 L 624,560 L 623,559 L 623,558 L 622,558 L 622,557 L 622,556 L 623,555 L 623,554 L 623,553 L 623,552 L 624,552 L 625,552 L 625,553 L 626,553 L 626,554 L 626,555 L 627,555 L 628,555 L 628,554 L 627,554 L 627,553 L 628,553 L 629,553 L 630,553 L 631,553 L 632,553 L 633,553 L 634,553 L 635,552 L 636,552 L 636,551 L 637,551 L 638,551 L 639,551 L 639,550 L 639,549 L 639,548 L 639,547 L 639,546 L 639,545 L 639,544 L 638,544 L 638,543 L 637,543 L 637,542 L 636,542 L 636,541 L 636,540 L 637,540 L 637,539 L 636,539 L 636,538 L 635,538 L 635,537 L 635,536 L 635,535 L 635,534 L 635,533 L 634,533 L 634,532 L 635,532 L 636,531 L 637,531 L 638,530 L 638,529 L 639,529 L 639,528 L 639,527 L 638,527 L 638,526 L 638,525 L 638,524 L 637,524 L 637,523 L 636,523 L 636,522 L 635,522 L 635,521 L 634,521 L 635,521 L 635,520 L 636,520 L 636,519 L 635,519 L 635,518 L 634,518 L 634,517 L 633,517 L 632,517 L 632,518 L 631,518 L 632,518 L 631,518 L 630,518 L 630,519 L 629,520 L 628,520 L 628,521 L 627,521 L 626,521 L 625,521 L 624,521 L 623,521 L 622,521 L 621,521 L 620,521 L 619,521 L 618,520 L 618,519 L 617,518 L 616,518 L 616,517 L 616,516 L 615,516 L 615,515 L 614,515 L 613,515 L 612,515 L 611,515 L 610,515 L 610,514 L 610,513 L 610,512 L 609,512 L 608,512 L 608,513 L 607,513 L 607,514 L 606,514 L 605,514 L 605,515 L 604,515 L 604,516 L 603,516 L 603,517 L 602,517 L 602,518 L 601,518 L 601,519 L 600,519 L 599,519 L 598,519 L 597,519 L 597,520 L 596,520 L 595,520 L 595,521 L 595,522 L 595,523 L 594,523 L 593,523 L 592,523 L 592,522 L 591,522 L 591,521 L 590,521 L 590,522 L 589,522 L 588,522 L 587,522 L 586,522 L 585,522 L 585,521 L 584,521 L 584,522 L 584,521 L 584,520 L 584,518 L 584,517 L 584,516 L 584,515 L 584,514 L 585,514 L 585,513 L 585,512 L 586,511 L 586,510 L 586,509 L 585,509 L 585,507 L 585,506 L 584,506 L 584,505 L 584,504 L 583,503 L 583,502 L 583,501 L 582,500 L 582,499 L 581,499 L 581,498 L 581,497 L 582,497 L 582,496 L 583,496 L 583,495 L 584,494 L 585,494 L 585,493 L 586,492 L 586,491 L 586,490 L 585,490 L 584,489 L 583,489 L 582,489 L 582,488 L 582,487 L 583,486 L 583,485 L 583,484 L 582,483 L 581,482 L 580,481 L 580,480 L 579,480 L 580,480 L 580,479 L 581,478 L 582,477 L 582,476 L 582,475 L 583,475 L 583,474 L 582,473 L 583,472 L 583,471 L 583,470 L 582,470 L 582,469 L 582,468 L 582,467 L 582,466 L 582,465 L 581,464 L 580,463 L 579,462 L 578,461 L 578,460 L 578,459 L 578,458 L 579,457 L 579,456 L 578,456 L 578,455 L 577,455 L 577,454 L 577,453 L 577,452 L 577,451 L 577,450 L 577,449 L 577,448 L 578,448 L 579,447 L 580,447 L 581,446 L 582,445 L 583,445 L 583,444 L 584,444 L 584,443 L 584,442 L 584,440 L 585,439 L 585,438 L 585,437 L 585,436 L 585,435 L 586,434 L 586,433 L 585,432 L 585,431 L 585,430 L 585,429 L 585,428 L 584,427 L 584,426 L 584,424 L 584,423 L 584,422 L 583,422 L 582,421 L 582,420 L 583,419 L 584,419 L 584,418 L 585,418 L 586,417 L 587,416 L 587,415 L 587,413 L 587,412 L 586,411 L 586,409 L 585,409 L 585,408 L 585,407 L 586,407 L 587,406 L 587,405 L 588,405 L 589,404 L 590,404 L 591,403 L 592,403 L 593,403 L 594,403 L 595,403 L 596,403 L 596,402 L 596,401 L 596,400 L 595,400 L 594,400 L 592,400 L 591,400 L 590,400 L 588,400 L 586,400 L 585,400 L 585,399 L 584,399 L 583,399 L 582,399 L 582,398 L 581,398 L 581,397 L 580,397 L 579,398 L 579,397 L 578,397 L 578,396 L 577,396 L 576,396 L 575,396 L 574,396 L 574,395 L 573,395 L 572,394 L 571,394 L 571,393 L 572,392 L 573,392 L 573,391 L 573,390 L 573,389 L 574,389 L 573,389 L 573,388 L 573,387 L 573,386 L 573,385 L 574,385 L 574,384 L 575,383 L 576,381 L 576,380 L 576,379 L 575,378 L 574,378 L 572,377 L 571,376 L 570,376 L 570,375 L 570,374 L 571,373 L 572,372 L 573,372 L 573,371 L 573,370 L 573,369 L 573,368 L 573,367 L 574,366 L 574,365 L 575,365 L 575,364 L 576,363 L 576,362 L 576,361 L 576,360 L 576,359 L 576,358 L 576,357 L 577,356 L 578,355 L 579,356 L 580,356 L 581,357 L 582,357 L 583,357 L 583,358 L 584,358 L 585,358 L 586,358 L 587,358 L 588,359 L 589,359 L 590,359 L 590,358 L 591,358 L 592,357 L 593,357 L 593,356 L 594,356 L 595,356 L 596,356 L 596,355 L 597,355 L 597,354 L 598,354 L 598,353 L 599,353 L 600,353 L 600,352 L 601,352 L 602,351 L 602,350 L 602,349 L 601,349 L 601,348 L 602,348 L 602,347 L 602,346 L 603,346 L 604,346 L 604,347 L 605,347 L 605,346 L 606,346 L 606,347 L 605,347 L 605,348 L 605,349 L 606,349 L 607,349 L 608,349 L 608,348 L 609,348 L 610,348 L 611,348 L 611,349 L 612,349 L 612,350 L 613,350 L 613,351 L 613,350 L 613,351 L 614,351 L 615,351 L 616,351 L 617,351 L 617,350 L 617,349 L 616,349 L 616,348 L 615,348 L 615,347 L 616,347 L 617,347 L 618,347 L 619,347 L 620,347 L 621,347 L 622,347 L 622,346 L 623,346 L 624,346 L 624,347 L 623,347 L 623,348 L 624,348 L 624,349 L 625,349 L 626,349 L 626,348 L 627,348 L 626,348 L 627,348 L 627,347 L 627,346 L 628,346 L 629,346 L 629,345 L 629,344 L 630,344 L 631,344 L 631,343 L 632,343 L 633,343 " />
</g>
<g id="evias_6" >
<path d="M 377,457 L 377,458 L 377,459 L 378,459 L 378,460 L 378,461 L 378,462 L 377,462 L 377,461 L 377,460 L 376,460 L 376,459 L 376,458 L 376,457 L 377,457 " />
<path d="M 316,448 L 317,448 L 318,448 L 319,448 L 319,449 L 320,449 L 321,449 L 322,449 L 323,449 L 324,449 L 325,449 L 326,448 L 326,449 L 327,449 L 328,449 L 328,448 L 329,448 L 330,448 L 331,448 L 331,449 L 332,449 L 332,450 L 332,451 L 332,452 L 333,453 L 333,454 L 333,455 L 333,456 L 334,456 L 335,456 L 336,456 L 337,456 L 338,456 L 339,456 L 340,456 L 341,456 L 342,456 L 343,456 L 343,455 L 344,455 L 345,455 L 346,455 L 346,454 L 347,454 L 348,454 L 348,453 L 349,453 L 350,453 L 349,453 L 349,454 L 350,454 L 351,454 L 352,454 L 352,455 L 353,455 L 354,455 L 355,455 L 355,454 L 356,454 L 357,454 L 358,454 L 359,454 L 359,455 L 359,456 L 360,456 L 360,457 L 361,457 L 361,458 L 362,458 L 362,459 L 362,460 L 363,460 L 363,461 L 364,461 L 364,462 L 365,462 L 365,463 L 366,463 L 367,463 L 368,463 L 368,462 L 369,462 L 370,462 L 371,462 L 372,463 L 373,463 L 374,463 L 375,463 L 376,464 L 377,464 L 378,464 L 378,465 L 379,465 L 380,465 L 380,466 L 381,466 L 382,467 L 382,466 L 383,466 L 384,466 L 384,465 L 385,464 L 386,464 L 386,463 L 386,462 L 386,461 L 386,460 L 386,459 L 387,459 L 387,458 L 388,458 L 388,457 L 388,458 L 389,458 L 389,457 L 390,457 L 390,456 L 391,456 L 391,455 L 392,454 L 392,453 L 392,452 L 392,451 L 392,450 L 393,449 L 393,448 L 394,448 L 394,447 L 394,448 L 395,448 L 395,449 L 396,449 L 397,449 L 397,450 L 398,449 L 398,450 L 399,450 L 400,450 L 400,451 L 401,451 L 402,451 L 402,452 L 403,452 L 403,453 L 404,453 L 404,454 L 403,454 L 403,455 L 402,455 L 403,455 L 403,456 L 404,456 L 405,456 L 405,457 L 406,457 L 406,458 L 406,457 L 407,457 L 407,458 L 407,459 L 407,460 L 408,460 L 409,460 L 410,460 L 411,461 L 411,462 L 410,462 L 410,463 L 410,464 L 411,464 L 411,465 L 412,465 L 413,465 L 414,465 L 414,466 L 415,466 L 415,467 L 415,468 L 415,469 L 416,469 L 417,469 L 418,469 L 418,470 L 419,470 L 419,471 L 419,472 L 418,473 L 418,474 L 417,474 L 417,475 L 417,476 L 417,475 L 418,475 L 418,476 L 417,476 L 417,477 L 416,477 L 415,477 L 414,477 L 413,477 L 412,477 L 411,477 L 411,478 L 410,478 L 410,479 L 409,479 L 409,480 L 409,481 L 409,482 L 408,482 L 408,483 L 408,484 L 408,485 L 408,486 L 409,487 L 410,487 L 411,487 L 412,487 L 412,486 L 413,486 L 414,486 L 414,487 L 415,487 L 416,487 L 417,487 L 417,488 L 418,488 L 418,489 L 419,489 L 420,489 L 421,489 L 422,489 L 422,490 L 422,491 L 422,492 L 422,493 L 422,492 L 421,492 L 420,492 L 421,492 L 420,492 L 420,491 L 420,492 L 419,492 L 420,492 L 419,492 L 419,493 L 420,493 L 419,494 L 420,494 L 420,493 L 421,493 L 421,494 L 421,495 L 421,496 L 422,496 L 422,497 L 423,497 L 424,497 L 424,498 L 424,499 L 424,500 L 423,500 L 422,500 L 422,501 L 421,501 L 421,502 L 420,502 L 420,501 L 419,501 L 419,502 L 418,502 L 419,502 L 419,503 L 419,504 L 420,504 L 420,505 L 421,505 L 422,505 L 422,504 L 423,504 L 424,504 L 424,503 L 425,504 L 426,504 L 427,504 L 428,504 L 429,504 L 430,504 L 430,505 L 431,505 L 431,506 L 432,506 L 433,506 L 433,507 L 434,507 L 435,507 L 436,508 L 437,508 L 438,508 L 438,509 L 437,509 L 437,510 L 437,511 L 436,511 L 436,512 L 436,513 L 436,514 L 436,515 L 435,515 L 435,516 L 435,517 L 435,518 L 435,519 L 435,520 L 436,520 L 436,521 L 436,522 L 437,522 L 437,523 L 437,524 L 437,525 L 437,526 L 437,527 L 437,528 L 438,529 L 439,529 L 439,530 L 440,530 L 441,530 L 441,531 L 441,532 L 441,533 L 441,534 L 441,535 L 442,535 L 442,536 L 443,536 L 443,537 L 444,537 L 444,538 L 444,539 L 445,539 L 445,540 L 446,540 L 447,541 L 447,542 L 448,542 L 448,543 L 447,543 L 447,544 L 446,544 L 445,545 L 444,545 L 443,545 L 442,545 L 441,545 L 440,545 L 439,545 L 438,545 L 437,544 L 436,544 L 435,544 L 434,543 L 433,543 L 432,543 L 431,543 L 430,543 L 430,542 L 429,542 L 428,542 L 428,541 L 428,540 L 428,539 L 427,539 L 426,538 L 425,538 L 424,537 L 423,537 L 422,536 L 421,536 L 421,535 L 420,535 L 419,535 L 418,535 L 418,534 L 417,534 L 416,534 L 415,534 L 414,534 L 412,534 L 410,534 L 409,534 L 408,534 L 407,534 L 404,533 L 403,533 L 402,533 L 401,533 L 400,533 L 399,533 L 398,533 L 398,534 L 398,535 L 398,536 L 397,536 L 396,536 L 396,535 L 395,535 L 395,534 L 394,534 L 394,533 L 393,533 L 392,533 L 391,533 L 390,532 L 388,532 L 387,531 L 386,531 L 385,531 L 384,531 L 383,531 L 382,530 L 381,530 L 380,529 L 379,529 L 378,528 L 377,527 L 376,527 L 375,526 L 374,526 L 373,526 L 373,525 L 373,524 L 372,524 L 372,523 L 371,523 L 370,522 L 370,521 L 369,521 L 369,520 L 368,519 L 368,518 L 368,517 L 367,516 L 366,516 L 365,515 L 364,514 L 363,514 L 362,513 L 361,513 L 360,513 L 360,512 L 357,511 L 356,510 L 355,509 L 354,509 L 354,508 L 353,508 L 353,507 L 352,506 L 350,506 L 349,506 L 348,506 L 348,505 L 347,504 L 347,503 L 346,501 L 346,500 L 345,499 L 345,498 L 344,497 L 344,496 L 344,495 L 344,494 L 345,493 L 346,493 L 347,493 L 348,493 L 349,493 L 349,492 L 350,492 L 350,491 L 351,490 L 351,489 L 352,488 L 354,487 L 355,487 L 356,487 L 356,486 L 356,485 L 357,484 L 358,484 L 359,483 L 360,482 L 360,481 L 360,480 L 358,480 L 356,480 L 355,480 L 354,480 L 353,481 L 352,481 L 351,481 L 350,482 L 349,482 L 348,482 L 347,481 L 346,481 L 345,480 L 344,479 L 343,479 L 343,478 L 342,478 L 341,478 L 340,478 L 339,479 L 338,479 L 338,480 L 337,480 L 336,480 L 335,480 L 334,480 L 333,480 L 332,479 L 331,478 L 330,477 L 330,476 L 329,476 L 329,475 L 329,474 L 328,474 L 328,473 L 328,472 L 327,472 L 327,471 L 326,472 L 324,472 L 324,473 L 323,473 L 322,473 L 321,474 L 320,474 L 319,474 L 319,475 L 318,475 L 317,475 L 316,475 L 315,475 L 315,476 L 314,476 L 313,477 L 312,477 L 311,477 L 310,478 L 309,478 L 308,479 L 307,479 L 306,480 L 305,480 L 304,481 L 303,481 L 302,481 L 302,482 L 301,482 L 300,483 L 299,483 L 298,484 L 297,484 L 296,485 L 294,486 L 293,486 L 293,487 L 292,487 L 291,487 L 291,488 L 290,488 L 290,489 L 291,490 L 292,491 L 292,492 L 292,493 L 292,494 L 292,495 L 292,496 L 291,497 L 291,498 L 290,498 L 289,499 L 288,499 L 288,500 L 287,500 L 286,500 L 286,501 L 285,501 L 284,501 L 284,502 L 283,502 L 282,503 L 281,503 L 280,504 L 279,504 L 279,505 L 278,505 L 277,506 L 276,506 L 276,505 L 275,504 L 275,503 L 275,502 L 275,501 L 275,500 L 275,498 L 275,497 L 274,497 L 272,496 L 270,496 L 268,496 L 267,496 L 267,495 L 267,494 L 267,493 L 267,492 L 267,491 L 267,490 L 267,489 L 267,488 L 268,487 L 269,487 L 269,486 L 270,486 L 270,485 L 270,484 L 271,484 L 271,483 L 271,482 L 271,481 L 272,480 L 273,480 L 274,479 L 275,478 L 276,478 L 276,477 L 277,477 L 277,476 L 278,476 L 278,475 L 279,474 L 279,473 L 280,473 L 280,471 L 279,470 L 279,469 L 279,468 L 280,467 L 280,466 L 281,466 L 281,465 L 281,464 L 281,463 L 281,462 L 281,461 L 282,461 L 283,461 L 283,460 L 284,460 L 285,460 L 285,459 L 286,459 L 287,459 L 287,458 L 288,458 L 289,457 L 290,457 L 291,456 L 292,456 L 293,455 L 294,455 L 294,454 L 295,453 L 295,454 L 295,455 L 296,455 L 296,456 L 297,456 L 297,455 L 298,455 L 299,455 L 299,456 L 300,456 L 300,455 L 301,455 L 302,455 L 302,454 L 303,454 L 304,453 L 305,453 L 306,452 L 306,451 L 307,451 L 307,450 L 306,449 L 307,449 L 307,448 L 308,448 L 308,449 L 307,449 L 307,450 L 307,451 L 308,451 L 309,450 L 310,450 L 311,450 L 312,449 L 312,448 L 313,448 L 313,447 L 314,447 L 315,448 L 315,447 L 316,447 L 316,448 " />
<path d="M 324,441 L 323,441 L 323,442 L 322,442 L 321,442 L 321,441 L 322,441 L 323,441 L 324,441 " />
<path d="M 444,425 L 445,425 L 446,425 L 446,426 L 446,427 L 446,428 L 445,429 L 445,430 L 446,430 L 447,429 L 448,429 L 449,429 L 449,428 L 450,428 L 450,427 L 451,427 L 451,426 L 452,426 L 453,426 L 453,427 L 454,427 L 454,428 L 455,428 L 455,429 L 456,429 L 456,430 L 457,430 L 458,431 L 459,431 L 459,432 L 460,432 L 461,432 L 461,433 L 462,433 L 463,433 L 464,433 L 465,433 L 466,433 L 466,434 L 467,434 L 466,434 L 466,435 L 466,436 L 465,436 L 465,437 L 465,438 L 465,439 L 465,440 L 465,441 L 465,442 L 465,443 L 466,443 L 466,444 L 467,445 L 468,446 L 469,447 L 470,448 L 470,449 L 471,449 L 471,450 L 472,450 L 472,451 L 472,450 L 472,449 L 473,449 L 474,449 L 474,448 L 475,447 L 475,446 L 476,446 L 477,446 L 478,446 L 478,447 L 478,448 L 478,449 L 478,450 L 479,450 L 480,451 L 481,452 L 482,453 L 483,455 L 483,456 L 484,456 L 485,456 L 486,456 L 487,457 L 488,458 L 489,458 L 489,459 L 490,459 L 491,459 L 492,459 L 492,460 L 493,460 L 493,461 L 494,461 L 494,462 L 494,463 L 495,463 L 495,464 L 496,464 L 496,465 L 497,465 L 498,465 L 499,465 L 500,466 L 501,465 L 502,465 L 503,465 L 504,465 L 505,465 L 506,465 L 507,465 L 507,466 L 507,467 L 506,467 L 507,468 L 507,469 L 507,470 L 507,471 L 508,471 L 508,472 L 509,472 L 510,472 L 511,472 L 511,473 L 512,473 L 512,474 L 513,475 L 513,476 L 513,477 L 514,478 L 514,479 L 514,480 L 514,481 L 514,482 L 513,482 L 513,483 L 513,484 L 513,485 L 514,487 L 515,487 L 516,489 L 516,490 L 515,490 L 514,490 L 513,490 L 512,490 L 511,491 L 510,491 L 509,491 L 509,492 L 508,492 L 507,493 L 507,494 L 506,495 L 506,496 L 506,497 L 505,497 L 505,498 L 505,499 L 504,500 L 504,501 L 503,501 L 502,501 L 502,502 L 501,502 L 501,503 L 500,503 L 500,504 L 499,504 L 498,504 L 497,504 L 496,504 L 495,505 L 494,505 L 493,505 L 492,505 L 491,505 L 490,506 L 489,506 L 488,506 L 488,507 L 487,507 L 486,507 L 485,507 L 483,507 L 482,508 L 481,508 L 481,509 L 480,509 L 479,509 L 478,509 L 477,509 L 477,508 L 476,508 L 475,508 L 474,508 L 473,508 L 472,508 L 471,508 L 470,507 L 469,507 L 468,507 L 467,507 L 466,507 L 466,506 L 465,507 L 464,507 L 464,508 L 465,508 L 465,509 L 464,509 L 463,509 L 462,509 L 462,510 L 461,510 L 461,509 L 460,509 L 460,508 L 459,508 L 458,508 L 457,508 L 457,509 L 456,509 L 456,510 L 456,511 L 455,511 L 455,512 L 455,513 L 454,513 L 454,514 L 453,514 L 453,515 L 452,515 L 451,515 L 450,515 L 449,515 L 449,514 L 448,514 L 448,513 L 447,513 L 447,514 L 446,514 L 446,515 L 445,515 L 444,515 L 444,514 L 443,513 L 443,512 L 442,512 L 442,511 L 441,511 L 441,510 L 441,511 L 441,510 L 441,509 L 442,509 L 442,508 L 442,507 L 441,506 L 441,505 L 441,504 L 440,504 L 440,503 L 439,503 L 439,502 L 438,502 L 438,501 L 438,500 L 437,500 L 437,499 L 437,498 L 436,498 L 436,497 L 435,497 L 434,497 L 434,498 L 433,498 L 433,497 L 433,496 L 432,496 L 432,495 L 432,494 L 432,493 L 433,492 L 433,491 L 432,490 L 432,489 L 432,488 L 433,488 L 433,487 L 433,486 L 432,486 L 432,485 L 431,485 L 430,485 L 430,484 L 429,484 L 429,483 L 428,482 L 428,481 L 427,481 L 427,480 L 426,480 L 425,480 L 425,481 L 425,482 L 425,483 L 425,484 L 425,485 L 424,485 L 424,484 L 423,484 L 423,483 L 422,483 L 422,482 L 421,482 L 421,483 L 420,483 L 420,484 L 420,485 L 421,485 L 420,486 L 420,487 L 419,487 L 418,487 L 417,486 L 417,485 L 417,484 L 418,484 L 418,483 L 419,483 L 418,483 L 418,482 L 419,481 L 420,481 L 421,481 L 421,480 L 420,480 L 419,480 L 418,480 L 418,481 L 418,480 L 418,479 L 418,478 L 417,478 L 418,478 L 418,477 L 418,476 L 419,476 L 419,475 L 419,474 L 420,474 L 420,473 L 420,474 L 421,474 L 421,473 L 421,472 L 421,473 L 421,472 L 422,472 L 422,473 L 422,472 L 422,471 L 422,472 L 423,472 L 424,472 L 424,471 L 424,470 L 424,469 L 425,469 L 425,470 L 426,470 L 426,471 L 427,471 L 428,471 L 428,472 L 428,473 L 429,473 L 430,473 L 430,472 L 431,472 L 432,472 L 432,471 L 433,471 L 433,470 L 434,470 L 434,469 L 434,468 L 434,467 L 435,467 L 435,466 L 435,465 L 435,464 L 435,463 L 434,463 L 434,462 L 435,462 L 435,461 L 435,460 L 435,459 L 435,458 L 435,457 L 436,457 L 435,457 L 435,456 L 434,456 L 433,456 L 434,456 L 435,456 L 436,456 L 436,455 L 437,455 L 437,454 L 438,454 L 438,453 L 438,452 L 439,452 L 439,451 L 439,450 L 439,449 L 439,448 L 439,447 L 439,446 L 438,446 L 438,447 L 437,447 L 436,447 L 436,446 L 436,445 L 436,444 L 436,443 L 437,443 L 437,442 L 437,441 L 437,440 L 437,439 L 437,438 L 437,437 L 436,437 L 436,436 L 435,436 L 435,435 L 434,435 L 434,434 L 434,433 L 435,433 L 435,434 L 435,433 L 435,432 L 435,431 L 435,430 L 435,429 L 435,428 L 436,427 L 436,426 L 437,426 L 438,426 L 439,425 L 440,424 L 441,424 L 442,423 L 443,423 L 444,423 L 444,422 L 445,422 L 445,423 L 445,424 L 444,424 L 444,425 " />
</g>
<g id="evias_7" >
<path d="M 520,528 L 520,527 L 521,527 L 521,528 L 520,528 " />
<path d="M 527,527 L 527,526 L 527,527 L 527,526 L 527,527 " />
<path d="M 523,523 L 524,523 L 524,524 L 524,525 L 524,526 L 524,525 L 523,525 L 523,524 L 523,523 " />
<path d="M 579,397 L 579,398 L 580,397 L 581,397 L 581,398 L 582,398 L 582,399 L 583,399 L 584,399 L 585,399 L 585,400 L 586,400 L 588,400 L 590,400 L 591,400 L 592,400 L 594,400 L 595,400 L 596,400 L 596,401 L 596,402 L 596,403 L 595,403 L 594,403 L 593,403 L 592,403 L 591,403 L 590,404 L 589,404 L 588,405 L 587,405 L 587,406 L 586,407 L 585,407 L 585,408 L 585,409 L 586,409 L 586,411 L 587,412 L 587,413 L 587,415 L 587,416 L 586,417 L 585,418 L 584,418 L 584,419 L 583,419 L 582,420 L 582,421 L 583,422 L 584,422 L 584,423 L 584,424 L 584,426 L 584,427 L 585,428 L 585,429 L 585,430 L 585,431 L 585,432 L 586,433 L 586,434 L 585,435 L 585,436 L 585,437 L 585,438 L 585,439 L 584,440 L 584,442 L 584,443 L 584,444 L 583,444 L 583,445 L 582,445 L 581,446 L 580,447 L 579,447 L 578,448 L 577,448 L 577,449 L 577,450 L 577,451 L 577,452 L 577,453 L 577,454 L 577,455 L 578,455 L 578,456 L 579,456 L 579,457 L 578,458 L 578,459 L 578,460 L 578,461 L 579,462 L 580,463 L 581,464 L 582,465 L 582,466 L 582,467 L 582,468 L 582,469 L 582,470 L 583,470 L 583,471 L 583,472 L 582,473 L 583,474 L 583,475 L 582,475 L 582,476 L 582,477 L 581,478 L 580,479 L 580,480 L 579,480 L 580,480 L 580,481 L 581,482 L 582,483 L 583,484 L 583,485 L 583,486 L 582,487 L 582,488 L 582,489 L 583,489 L 584,489 L 585,490 L 586,490 L 586,491 L 586,492 L 585,493 L 585,494 L 584,494 L 583,495 L 583,496 L 582,496 L 582,497 L 581,497 L 581,498 L 581,499 L 582,499 L 582,500 L 583,501 L 583,502 L 583,503 L 584,504 L 584,505 L 584,506 L 585,506 L 585,507 L 585,509 L 586,509 L 586,510 L 586,511 L 585,512 L 585,513 L 585,514 L 584,514 L 584,515 L 584,516 L 584,517 L 584,518 L 584,520 L 584,521 L 584,522 L 583,522 L 583,523 L 582,523 L 582,524 L 581,524 L 580,524 L 579,524 L 579,523 L 578,523 L 577,523 L 577,524 L 576,524 L 575,524 L 574,524 L 573,524 L 572,524 L 572,523 L 571,523 L 571,524 L 571,523 L 570,523 L 569,523 L 568,523 L 567,523 L 566,523 L 566,524 L 565,524 L 564,524 L 563,524 L 562,524 L 561,524 L 560,524 L 560,523 L 559,523 L 559,522 L 558,522 L 557,521 L 557,520 L 556,520 L 555,520 L 554,520 L 553,520 L 552,520 L 551,520 L 551,521 L 550,521 L 550,520 L 549,520 L 548,520 L 548,519 L 547,519 L 547,518 L 547,517 L 546,517 L 546,516 L 545,516 L 545,515 L 544,515 L 543,515 L 542,515 L 541,514 L 540,514 L 539,514 L 538,514 L 538,513 L 537,513 L 536,513 L 535,513 L 534,513 L 533,513 L 532,513 L 532,512 L 531,512 L 530,512 L 529,512 L 528,512 L 527,512 L 526,512 L 525,512 L 525,513 L 524,513 L 524,514 L 523,515 L 523,516 L 522,516 L 522,517 L 521,517 L 521,518 L 520,518 L 519,519 L 519,520 L 518,520 L 518,521 L 518,522 L 517,522 L 517,523 L 518,523 L 518,524 L 517,524 L 517,525 L 517,526 L 516,526 L 516,525 L 517,525 L 517,524 L 517,523 L 517,522 L 517,521 L 516,521 L 515,520 L 514,520 L 514,521 L 513,521 L 513,522 L 512,522 L 512,521 L 511,521 L 511,520 L 510,520 L 509,519 L 508,519 L 507,519 L 507,520 L 506,520 L 505,520 L 505,521 L 505,520 L 504,520 L 503,520 L 503,519 L 502,519 L 501,519 L 500,519 L 500,518 L 499,518 L 499,519 L 499,518 L 498,518 L 499,517 L 498,517 L 497,517 L 496,517 L 496,516 L 495,515 L 494,515 L 493,514 L 492,514 L 491,514 L 490,514 L 490,515 L 489,515 L 488,515 L 487,515 L 486,515 L 486,514 L 485,513 L 484,513 L 483,513 L 483,512 L 482,511 L 482,510 L 481,509 L 481,508 L 482,508 L 483,507 L 485,507 L 486,507 L 487,507 L 488,507 L 488,506 L 489,506 L 490,506 L 491,505 L 492,505 L 493,505 L 494,505 L 495,505 L 496,504 L 497,504 L 498,504 L 499,504 L 500,504 L 500,503 L 501,503 L 501,502 L 502,502 L 502,501 L 503,501 L 504,501 L 504,500 L 505,499 L 505,498 L 505,497 L 506,497 L 506,496 L 506,495 L 507,494 L 507,493 L 508,492 L 509,492 L 509,491 L 510,491 L 511,491 L 512,490 L 513,490 L 514,490 L 515,490 L 516,490 L 516,489 L 515,487 L 514,487 L 513,485 L 513,484 L 513,483 L 513,482 L 514,482 L 514,481 L 514,480 L 514,479 L 514,478 L 513,477 L 513,476 L 513,475 L 514,475 L 516,475 L 517,474 L 518,474 L 519,475 L 520,475 L 521,476 L 522,476 L 523,476 L 524,475 L 525,475 L 526,475 L 527,475 L 528,474 L 529,474 L 531,474 L 532,474 L 533,474 L 534,474 L 534,473 L 535,473 L 536,473 L 536,472 L 537,473 L 538,473 L 539,473 L 540,473 L 540,474 L 540,475 L 540,476 L 540,477 L 540,478 L 541,477 L 542,476 L 543,475 L 544,475 L 545,474 L 546,474 L 546,473 L 546,472 L 546,471 L 546,470 L 546,469 L 547,468 L 548,468 L 549,468 L 550,468 L 552,469 L 553,469 L 553,468 L 554,468 L 555,468 L 556,468 L 557,469 L 558,468 L 559,468 L 560,468 L 561,468 L 562,468 L 563,468 L 564,468 L 564,467 L 565,466 L 564,465 L 564,464 L 565,463 L 565,462 L 565,461 L 565,460 L 565,459 L 564,459 L 564,458 L 564,457 L 563,457 L 563,456 L 563,455 L 563,454 L 562,454 L 562,453 L 561,453 L 561,452 L 561,451 L 563,451 L 564,451 L 565,450 L 566,450 L 566,449 L 568,448 L 568,447 L 569,446 L 570,446 L 570,445 L 571,445 L 571,444 L 572,444 L 572,443 L 572,442 L 572,441 L 571,440 L 570,439 L 569,439 L 569,438 L 569,437 L 568,437 L 568,436 L 568,435 L 568,434 L 568,433 L 568,432 L 568,431 L 567,430 L 567,429 L 567,428 L 567,427 L 567,426 L 568,425 L 568,424 L 569,423 L 570,422 L 571,421 L 572,421 L 572,420 L 573,420 L 573,419 L 574,419 L 574,418 L 573,418 L 573,417 L 572,417 L 571,417 L 569,417 L 569,418 L 568,418 L 567,418 L 566,418 L 566,417 L 566,416 L 567,416 L 568,416 L 568,415 L 568,414 L 567,414 L 567,413 L 566,413 L 566,412 L 565,411 L 564,411 L 564,410 L 563,410 L 563,409 L 564,409 L 564,408 L 565,408 L 566,407 L 567,406 L 569,404 L 570,404 L 571,403 L 571,402 L 573,401 L 575,400 L 576,400 L 576,399 L 576,398 L 576,397 L 575,397 L 575,396 L 576,396 L 577,396 L 578,396 L 578,397 L 579,397 " />
</g>
<g id="evias_8" >
<path d="M 470,297 L 469,297 L 469,296 L 469,295 L 470,295 L 470,296 L 470,297 " />
<path d="M 348,220 L 347,220 L 348,220 " />
<path d="M 345,186 L 345,185 L 346,185 L 346,186 L 345,186 " />
<path d="M 346,185 L 345,185 L 346,185 " />
<path d="M 346,184 L 347,184 L 346,184 " />
<path d="M 351,182 L 350,182 L 351,181 L 351,182 " />
<path d="M 354,181 L 353,181 L 354,181 " />
<path d="M 355,181 L 355,180 L 355,181 " />
<path d="M 327,179 L 326,179 L 327,179 L 328,179 L 329,179 L 330,179 L 330,178 L 330,179 L 331,179 L 332,179 L 332,180 L 333,180 L 334,180 L 334,181 L 334,180 L 335,180 L 336,180 L 336,181 L 335,181 L 335,182 L 336,182 L 337,182 L 337,181 L 338,181 L 338,182 L 339,182 L 339,181 L 340,181 L 340,182 L 340,183 L 341,183 L 341,182 L 342,182 L 342,181 L 342,180 L 343,180 L 343,181 L 344,182 L 344,183 L 345,183 L 345,184 L 344,184 L 344,185 L 344,186 L 345,186 L 344,186 L 345,186 L 345,187 L 345,188 L 345,189 L 345,190 L 346,190 L 346,191 L 345,191 L 346,191 L 346,192 L 345,192 L 344,192 L 344,193 L 345,193 L 344,193 L 343,193 L 343,194 L 344,194 L 344,195 L 344,196 L 343,196 L 343,197 L 343,198 L 343,199 L 342,199 L 342,200 L 342,201 L 342,202 L 341,202 L 341,203 L 342,203 L 342,204 L 342,205 L 342,206 L 342,207 L 342,208 L 342,209 L 342,210 L 342,211 L 343,211 L 343,212 L 343,213 L 343,214 L 344,215 L 344,216 L 345,217 L 345,216 L 345,217 L 345,218 L 346,218 L 346,219 L 345,219 L 346,219 L 346,220 L 347,220 L 346,220 L 347,220 L 347,221 L 347,220 L 347,221 L 348,222 L 348,223 L 349,223 L 349,222 L 349,223 L 350,223 L 350,224 L 350,225 L 351,225 L 351,224 L 352,224 L 353,224 L 353,225 L 352,225 L 351,225 L 351,226 L 351,225 L 350,225 L 350,226 L 349,226 L 348,226 L 348,227 L 348,228 L 348,229 L 348,230 L 348,231 L 349,231 L 349,232 L 349,233 L 349,234 L 350,234 L 350,235 L 350,236 L 351,236 L 351,237 L 351,238 L 352,238 L 352,239 L 353,240 L 353,241 L 354,241 L 354,242 L 355,243 L 355,244 L 356,244 L 356,245 L 357,245 L 357,246 L 357,247 L 358,247 L 358,248 L 359,248 L 359,249 L 360,249 L 360,250 L 361,250 L 361,251 L 362,252 L 363,253 L 364,253 L 365,253 L 365,254 L 365,253 L 366,253 L 366,254 L 367,254 L 367,255 L 368,255 L 368,256 L 369,256 L 370,256 L 371,256 L 371,257 L 372,257 L 373,257 L 373,258 L 374,258 L 375,258 L 375,259 L 376,259 L 377,259 L 378,259 L 378,260 L 379,260 L 380,260 L 380,261 L 381,261 L 382,261 L 383,261 L 384,261 L 385,261 L 385,262 L 385,263 L 385,264 L 385,265 L 385,266 L 384,266 L 384,267 L 385,267 L 385,268 L 384,268 L 385,268 L 385,267 L 385,268 L 385,269 L 386,269 L 387,269 L 387,270 L 388,270 L 388,269 L 389,269 L 390,269 L 391,269 L 391,270 L 391,271 L 391,272 L 391,273 L 392,273 L 392,272 L 393,272 L 393,273 L 394,273 L 395,273 L 395,274 L 395,275 L 395,276 L 395,275 L 396,275 L 397,275 L 397,276 L 398,276 L 399,276 L 399,275 L 400,275 L 400,276 L 401,276 L 401,275 L 402,275 L 402,276 L 403,276 L 403,277 L 404,277 L 404,278 L 405,278 L 406,278 L 406,279 L 407,280 L 408,280 L 408,281 L 409,280 L 409,281 L 410,281 L 410,282 L 409,283 L 410,283 L 410,284 L 411,284 L 411,285 L 411,284 L 412,284 L 412,285 L 411,285 L 412,285 L 411,285 L 411,286 L 411,287 L 412,287 L 413,286 L 413,285 L 413,284 L 414,284 L 414,283 L 415,282 L 416,282 L 416,283 L 417,283 L 417,284 L 418,284 L 419,284 L 419,285 L 419,286 L 418,286 L 418,287 L 417,287 L 418,287 L 417,287 L 417,288 L 417,289 L 416,289 L 416,290 L 417,290 L 417,291 L 418,291 L 418,292 L 418,293 L 418,294 L 418,295 L 418,296 L 419,296 L 420,296 L 421,296 L 421,295 L 422,295 L 422,294 L 422,295 L 423,295 L 423,294 L 424,294 L 425,294 L 425,293 L 425,292 L 426,292 L 427,292 L 427,293 L 427,294 L 427,295 L 427,296 L 428,296 L 428,295 L 428,296 L 429,296 L 430,296 L 431,296 L 431,297 L 432,297 L 432,298 L 433,298 L 433,299 L 434,299 L 434,300 L 435,300 L 435,301 L 436,301 L 437,301 L 437,302 L 438,302 L 439,302 L 440,302 L 441,303 L 442,303 L 443,303 L 444,303 L 444,302 L 444,301 L 445,301 L 445,300 L 445,301 L 445,300 L 445,299 L 446,299 L 445,299 L 445,298 L 446,298 L 446,299 L 447,299 L 446,300 L 446,301 L 447,301 L 448,301 L 449,301 L 449,302 L 450,302 L 451,302 L 451,301 L 451,300 L 452,301 L 453,301 L 453,302 L 453,303 L 454,303 L 455,303 L 455,304 L 456,304 L 456,303 L 457,303 L 457,302 L 458,302 L 459,302 L 459,303 L 460,303 L 460,302 L 461,302 L 461,303 L 462,303 L 463,303 L 464,303 L 464,302 L 464,301 L 464,302 L 464,301 L 465,301 L 465,300 L 466,300 L 466,299 L 466,298 L 467,298 L 468,297 L 469,297 L 468,297 L 469,297 L 470,297 L 471,297 L 471,296 L 470,296 L 470,295 L 471,295 L 471,294 L 472,294 L 472,293 L 473,293 L 473,294 L 472,294 L 472,295 L 473,295 L 473,296 L 474,296 L 474,297 L 475,296 L 476,296 L 476,297 L 476,298 L 477,298 L 478,299 L 479,299 L 479,300 L 479,301 L 479,302 L 479,303 L 480,303 L 480,304 L 481,304 L 481,305 L 481,306 L 481,307 L 482,307 L 480,309 L 479,309 L 479,310 L 478,310 L 478,311 L 478,312 L 477,312 L 477,313 L 477,314 L 477,315 L 476,316 L 475,316 L 474,316 L 474,317 L 474,318 L 474,319 L 474,320 L 474,321 L 474,322 L 473,323 L 472,323 L 471,323 L 471,324 L 471,325 L 470,325 L 469,325 L 469,326 L 468,327 L 467,327 L 466,327 L 466,328 L 464,328 L 463,329 L 462,329 L 461,329 L 460,329 L 458,330 L 457,330 L 456,330 L 455,330 L 454,330 L 453,330 L 451,331 L 450,331 L 449,331 L 448,332 L 448,331 L 447,331 L 447,330 L 446,328 L 445,327 L 444,326 L 443,325 L 443,324 L 443,323 L 442,323 L 441,322 L 441,321 L 440,321 L 439,319 L 439,318 L 438,318 L 438,317 L 437,317 L 436,317 L 436,316 L 435,315 L 434,315 L 433,315 L 433,316 L 432,316 L 431,316 L 429,317 L 428,318 L 427,318 L 426,318 L 424,319 L 423,319 L 422,320 L 421,320 L 420,321 L 419,322 L 418,323 L 418,324 L 417,324 L 416,324 L 415,324 L 414,324 L 413,323 L 412,323 L 411,323 L 410,323 L 409,323 L 408,323 L 407,322 L 406,323 L 405,323 L 404,324 L 403,324 L 403,323 L 402,323 L 402,322 L 400,321 L 399,321 L 398,321 L 398,320 L 397,320 L 396,320 L 393,322 L 392,322 L 392,323 L 391,324 L 390,324 L 390,325 L 389,326 L 389,327 L 390,328 L 390,329 L 389,329 L 389,330 L 388,331 L 387,331 L 387,332 L 387,333 L 386,334 L 385,334 L 384,334 L 383,335 L 383,336 L 382,336 L 381,336 L 380,337 L 379,337 L 378,337 L 378,338 L 377,338 L 377,339 L 376,339 L 376,338 L 375,338 L 374,337 L 373,336 L 372,336 L 372,335 L 371,335 L 370,334 L 370,333 L 369,333 L 369,332 L 368,331 L 367,331 L 366,331 L 365,331 L 364,331 L 364,332 L 363,333 L 362,333 L 362,334 L 361,335 L 361,336 L 361,337 L 361,338 L 360,339 L 359,340 L 359,341 L 358,341 L 357,342 L 357,343 L 356,343 L 356,344 L 354,345 L 353,345 L 352,346 L 351,346 L 350,347 L 348,347 L 348,348 L 347,348 L 346,349 L 346,348 L 345,348 L 345,347 L 344,347 L 344,346 L 344,345 L 343,345 L 343,344 L 342,344 L 342,343 L 341,343 L 340,343 L 340,342 L 339,342 L 339,341 L 338,341 L 338,340 L 337,340 L 336,340 L 336,339 L 335,339 L 334,338 L 333,338 L 332,338 L 331,338 L 331,339 L 330,339 L 329,339 L 329,338 L 328,338 L 328,337 L 327,337 L 326,337 L 325,337 L 324,337 L 324,336 L 323,336 L 323,335 L 322,335 L 322,334 L 321,333 L 320,333 L 320,332 L 320,331 L 319,331 L 319,330 L 319,329 L 318,329 L 318,328 L 317,328 L 316,327 L 315,327 L 314,327 L 314,326 L 314,325 L 313,324 L 312,324 L 312,323 L 311,323 L 311,322 L 310,322 L 310,321 L 309,321 L 309,320 L 309,319 L 308,319 L 307,319 L 306,319 L 306,318 L 305,317 L 305,316 L 304,316 L 304,315 L 304,314 L 303,314 L 303,313 L 303,312 L 302,312 L 302,311 L 301,311 L 301,310 L 300,310 L 300,309 L 299,309 L 299,308 L 298,307 L 298,306 L 298,305 L 297,305 L 297,304 L 297,303 L 296,303 L 296,302 L 295,302 L 295,301 L 295,300 L 295,299 L 294,299 L 294,298 L 294,297 L 294,296 L 293,296 L 292,296 L 292,295 L 292,296 L 291,296 L 290,296 L 289,296 L 288,296 L 288,295 L 287,295 L 286,295 L 286,294 L 285,293 L 285,292 L 284,292 L 283,292 L 283,291 L 282,291 L 282,292 L 281,292 L 280,292 L 280,293 L 279,293 L 278,293 L 278,294 L 277,294 L 276,294 L 276,293 L 275,293 L 275,294 L 275,293 L 274,293 L 274,292 L 274,291 L 274,290 L 273,290 L 273,289 L 273,288 L 273,287 L 272,287 L 271,287 L 270,287 L 270,286 L 269,286 L 268,286 L 268,285 L 267,285 L 266,285 L 266,284 L 265,284 L 265,283 L 265,282 L 264,282 L 264,281 L 263,280 L 262,279 L 262,278 L 261,278 L 261,277 L 260,277 L 260,276 L 259,276 L 258,276 L 258,275 L 257,275 L 256,275 L 256,274 L 255,274 L 255,273 L 254,273 L 253,273 L 252,274 L 252,273 L 251,272 L 251,271 L 251,270 L 250,270 L 249,269 L 249,268 L 249,267 L 248,266 L 248,265 L 247,265 L 247,264 L 246,263 L 245,262 L 244,262 L 243,262 L 243,261 L 242,261 L 241,260 L 240,259 L 240,258 L 239,258 L 239,257 L 239,256 L 238,255 L 237,255 L 236,255 L 236,254 L 235,254 L 235,253 L 235,252 L 235,250 L 235,249 L 235,248 L 235,247 L 235,246 L 236,246 L 237,246 L 238,245 L 239,245 L 240,245 L 241,245 L 242,245 L 243,245 L 244,246 L 245,246 L 246,246 L 247,246 L 247,247 L 248,247 L 249,247 L 250,247 L 250,246 L 251,246 L 251,245 L 252,245 L 252,244 L 252,243 L 252,242 L 252,241 L 252,240 L 253,240 L 252,240 L 252,239 L 253,239 L 253,238 L 253,237 L 253,236 L 252,234 L 252,233 L 252,232 L 252,231 L 253,231 L 252,231 L 252,230 L 252,229 L 252,228 L 252,227 L 252,226 L 253,225 L 254,224 L 254,223 L 255,223 L 256,223 L 257,223 L 258,223 L 257,224 L 258,225 L 259,225 L 260,225 L 261,225 L 261,226 L 262,226 L 262,227 L 263,228 L 264,229 L 264,230 L 265,230 L 265,231 L 266,230 L 267,230 L 268,230 L 269,230 L 269,231 L 269,232 L 269,233 L 270,233 L 271,232 L 271,231 L 272,231 L 273,231 L 274,232 L 275,232 L 275,233 L 276,232 L 277,232 L 277,233 L 278,233 L 279,233 L 280,233 L 280,232 L 280,231 L 281,230 L 281,229 L 282,229 L 282,228 L 283,228 L 284,227 L 285,227 L 285,226 L 286,226 L 286,225 L 287,224 L 287,223 L 287,222 L 287,221 L 286,221 L 286,220 L 285,220 L 284,220 L 283,219 L 282,219 L 281,219 L 281,218 L 282,217 L 283,216 L 284,215 L 285,215 L 285,214 L 285,213 L 284,212 L 283,211 L 283,210 L 282,210 L 281,210 L 280,209 L 279,209 L 280,209 L 280,208 L 281,208 L 281,207 L 282,207 L 282,206 L 283,205 L 283,204 L 284,204 L 284,203 L 284,202 L 284,201 L 285,200 L 284,200 L 285,199 L 285,198 L 285,197 L 284,196 L 284,195 L 284,194 L 283,194 L 283,193 L 282,193 L 282,192 L 281,192 L 281,191 L 281,190 L 281,189 L 282,189 L 282,188 L 283,187 L 283,186 L 284,186 L 285,186 L 286,186 L 287,186 L 287,188 L 288,189 L 288,190 L 288,191 L 289,191 L 289,192 L 290,192 L 290,193 L 291,194 L 292,195 L 293,195 L 293,194 L 294,194 L 294,193 L 295,192 L 296,191 L 297,190 L 298,189 L 299,188 L 300,188 L 301,187 L 302,186 L 303,186 L 303,185 L 304,185 L 307,184 L 308,183 L 310,182 L 311,182 L 312,182 L 313,182 L 314,182 L 315,181 L 316,181 L 318,180 L 319,180 L 320,180 L 321,180 L 321,179 L 322,179 L 323,179 L 324,179 L 325,179 L 326,179 L 326,178 L 327,178 L 327,179 " />
</g>
</g>
</g>
<!-- QGIS extent for clipping, eg in Inkscape -->
<g id="qgisviewbox" inkscape:groupmode="layer" inkscape:label="qgisviewbox" stroke="rgb(255,0,0)" stroke-width="1" fill="none" >
<path d="M 0,882 L 1061,882 L 1061,0 L 0,0 L 0,882 " />
</g></svg>