<?xml version="1.0" standalone="no"?>
<!DOCTYPE svg PUBLIC "-//W3C//DTD SVG 1.1//EN" "http://www.w3.org/Graphics/SVG/1.1/DTD/svg11.dtd">
<svg xmlns="http://www.w3.org/2000/svg" xmlns:inkscape="http://www.inkscape.org/namespaces/inkscape" xmlns:xlink="http://www.w3.org/1999/xlink" viewBox = "0 0 1065 886" version = "1.1">
<!-- svg generated using QGIS www.qgis.org -->
<g id="karditsa" inkscape:groupmode="layer" inkscape:label="karditsa">
<g stroke="none" fill="rgb(39,254,100)" stroke-linejoin="round" stroke-width="0.26">
<g id="karditsa_1" >
<path d="M 678,215 L 679,215 L 680,215 L 683,216 L 684,216 L 685,216 L 686,217 L 687,217 L 687,218 L 690,221 L 691,222 L 692,223 L 693,224 L 694,225 L 695,226 L 697,228 L 698,229 L 699,230 L 701,231 L 702,233 L 703,234 L 704,234 L 705,235 L 706,235 L 707,235 L 708,235 L 709,234 L 710,234 L 711,234 L 711,233 L 712,232 L 714,230 L 714,229 L 715,229 L 716,230 L 716,231 L 717,231 L 717,230 L 718,230 L 720,228 L 721,227 L 722,227 L 722,226 L 723,226 L 724,225 L 729,223 L 730,223 L 730,222 L 730,221 L 730,220 L 731,220 L 732,219 L 731,219 L 731,218 L 731,217 L 731,216 L 733,216 L 734,216 L 735,215 L 736,215 L 737,215 L 737,216 L 738,216 L 739,216 L 740,216 L 741,216 L 742,216 L 743,217 L 745,218 L 746,218 L 747,219 L 750,220 L 751,220 L 751,221 L 754,221 L 755,221 L 756,221 L 757,221 L 759,221 L 760,221 L 761,221 L 762,223 L 764,225 L 765,225 L 765,226 L 766,226 L 767,226 L 768,227 L 769,226 L 770,225 L 771,224 L 772,224 L 773,223 L 774,222 L 775,222 L 777,221 L 778,221 L 779,221 L 781,220 L 782,220 L 783,220 L 785,220 L 788,221 L 789,221 L 790,221 L 791,221 L 791,222 L 791,223 L 791,225 L 791,226 L 791,227 L 790,228 L 790,230 L 790,233 L 790,235 L 790,236 L 790,237 L 790,238 L 791,239 L 791,240 L 792,240 L 792,241 L 793,242 L 793,243 L 794,245 L 794,246 L 795,247 L 795,248 L 795,250 L 795,251 L 796,254 L 796,255 L 796,256 L 796,257 L 797,258 L 797,259 L 798,259 L 799,259 L 799,260 L 800,260 L 801,260 L 803,261 L 804,261 L 807,261 L 809,261 L 811,260 L 812,260 L 813,260 L 814,260 L 814,259 L 815,259 L 816,259 L 816,258 L 817,257 L 818,257 L 819,256 L 819,255 L 820,255 L 820,254 L 821,254 L 821,253 L 822,253 L 822,252 L 823,252 L 824,251 L 825,250 L 826,250 L 827,250 L 828,249 L 829,249 L 828,250 L 828,251 L 828,253 L 828,254 L 828,256 L 828,257 L 829,261 L 829,263 L 829,264 L 829,265 L 830,266 L 831,268 L 831,269 L 831,270 L 832,272 L 832,273 L 833,274 L 833,276 L 834,278 L 834,279 L 834,280 L 834,282 L 834,283 L 833,284 L 833,285 L 832,286 L 831,286 L 831,287 L 830,288 L 830,289 L 830,290 L 829,290 L 829,291 L 828,291 L 828,292 L 827,292 L 826,293 L 826,294 L 825,294 L 824,295 L 823,296 L 822,296 L 822,297 L 821,297 L 819,298 L 819,299 L 818,299 L 819,299 L 819,300 L 820,301 L 821,302 L 821,303 L 821,304 L 822,306 L 822,307 L 822,308 L 822,309 L 822,310 L 822,312 L 822,313 L 821,314 L 821,315 L 821,316 L 820,316 L 820,317 L 819,319 L 819,320 L 819,321 L 819,322 L 819,323 L 819,324 L 819,325 L 818,327 L 817,328 L 818,328 L 819,328 L 820,328 L 821,329 L 822,329 L 823,329 L 824,329 L 824,330 L 825,330 L 827,330 L 828,331 L 829,331 L 830,331 L 831,332 L 833,332 L 835,332 L 836,332 L 838,331 L 839,331 L 840,331 L 841,331 L 842,331 L 842,332 L 841,333 L 840,334 L 840,335 L 840,336 L 841,336 L 841,337 L 841,338 L 840,339 L 840,340 L 839,340 L 839,341 L 838,342 L 837,343 L 836,343 L 835,344 L 835,345 L 834,347 L 833,347 L 831,346 L 830,346 L 829,347 L 828,348 L 827,349 L 828,349 L 829,350 L 830,351 L 830,352 L 831,352 L 832,353 L 833,353 L 834,354 L 835,354 L 836,355 L 837,355 L 838,355 L 839,356 L 839,357 L 840,357 L 840,358 L 841,358 L 841,359 L 842,359 L 842,360 L 843,361 L 844,363 L 844,365 L 844,366 L 845,368 L 844,368 L 844,369 L 843,369 L 842,369 L 841,369 L 840,370 L 839,370 L 838,370 L 837,371 L 836,372 L 835,372 L 834,373 L 833,373 L 832,373 L 831,374 L 830,374 L 828,374 L 826,374 L 825,374 L 824,375 L 823,375 L 821,375 L 821,376 L 820,376 L 819,376 L 819,377 L 818,377 L 817,376 L 816,375 L 815,375 L 815,374 L 814,374 L 813,374 L 813,373 L 811,372 L 810,372 L 810,371 L 809,371 L 808,371 L 807,370 L 807,369 L 806,368 L 806,367 L 806,366 L 805,365 L 804,364 L 803,364 L 802,363 L 801,363 L 801,362 L 800,362 L 799,362 L 798,362 L 798,363 L 797,363 L 796,363 L 795,363 L 794,363 L 793,362 L 792,361 L 792,360 L 791,359 L 790,359 L 789,359 L 788,359 L 786,359 L 785,359 L 784,358 L 782,358 L 781,358 L 780,357 L 779,357 L 778,356 L 776,355 L 775,354 L 775,351 L 775,350 L 775,344 L 775,342 L 775,341 L 775,340 L 774,339 L 773,338 L 773,337 L 772,336 L 771,335 L 771,334 L 771,333 L 771,332 L 771,331 L 772,330 L 773,329 L 774,327 L 775,326 L 776,325 L 775,324 L 774,322 L 774,321 L 773,321 L 773,320 L 771,319 L 770,318 L 768,316 L 767,315 L 766,315 L 765,315 L 763,315 L 762,315 L 760,314 L 759,314 L 759,313 L 758,313 L 758,312 L 757,312 L 757,310 L 756,310 L 756,309 L 756,308 L 756,307 L 755,306 L 754,306 L 753,307 L 752,307 L 751,308 L 750,308 L 749,308 L 748,308 L 747,308 L 746,308 L 745,308 L 743,307 L 744,308 L 744,309 L 743,310 L 743,311 L 742,311 L 741,311 L 741,312 L 740,312 L 739,313 L 738,314 L 737,314 L 736,313 L 735,313 L 734,314 L 733,315 L 732,315 L 731,316 L 730,316 L 730,317 L 730,318 L 730,319 L 730,320 L 728,320 L 726,319 L 724,319 L 723,319 L 723,320 L 722,320 L 722,321 L 722,322 L 722,323 L 722,325 L 721,326 L 720,326 L 719,326 L 717,326 L 716,326 L 715,326 L 714,326 L 713,326 L 713,325 L 712,325 L 712,324 L 711,325 L 711,326 L 710,327 L 710,328 L 710,329 L 710,330 L 710,331 L 709,332 L 709,333 L 708,333 L 707,334 L 706,334 L 706,335 L 706,336 L 705,336 L 704,336 L 704,337 L 702,337 L 701,337 L 702,338 L 701,338 L 701,339 L 702,339 L 702,340 L 701,340 L 700,340 L 701,341 L 700,342 L 700,343 L 700,344 L 700,345 L 700,346 L 699,345 L 698,345 L 698,346 L 697,347 L 678,349 L 678,348 L 678,347 L 677,344 L 677,343 L 677,342 L 678,338 L 678,337 L 678,335 L 678,334 L 678,330 L 678,328 L 678,327 L 678,324 L 679,321 L 679,320 L 680,319 L 680,318 L 680,316 L 680,315 L 680,313 L 680,312 L 680,311 L 680,310 L 680,308 L 680,307 L 681,304 L 681,302 L 680,302 L 680,301 L 681,301 L 680,300 L 680,299 L 679,299 L 679,298 L 677,297 L 677,296 L 676,295 L 676,294 L 676,293 L 675,292 L 674,291 L 672,291 L 670,291 L 669,291 L 666,290 L 665,290 L 664,290 L 663,290 L 662,290 L 662,291 L 661,291 L 659,292 L 658,292 L 657,292 L 655,293 L 654,293 L 651,294 L 650,294 L 649,293 L 648,292 L 647,293 L 645,293 L 644,294 L 643,294 L 643,295 L 642,295 L 642,296 L 641,296 L 641,297 L 640,298 L 640,299 L 639,299 L 639,300 L 637,301 L 636,301 L 636,302 L 635,302 L 634,302 L 632,302 L 631,302 L 629,302 L 628,303 L 627,303 L 625,304 L 623,305 L 622,305 L 619,306 L 615,307 L 614,307 L 613,307 L 611,307 L 610,308 L 609,308 L 608,307 L 606,307 L 605,307 L 604,306 L 603,306 L 603,305 L 602,304 L 602,303 L 602,302 L 601,302 L 600,301 L 599,300 L 597,299 L 596,300 L 595,300 L 593,301 L 593,302 L 591,303 L 590,303 L 589,302 L 588,301 L 587,301 L 586,301 L 585,301 L 584,301 L 583,301 L 582,301 L 580,301 L 579,300 L 578,299 L 577,298 L 576,298 L 576,297 L 575,297 L 574,297 L 574,296 L 575,296 L 576,296 L 577,296 L 578,295 L 579,295 L 580,295 L 580,294 L 579,293 L 579,292 L 579,291 L 578,289 L 578,288 L 579,288 L 579,287 L 580,287 L 580,286 L 581,286 L 581,285 L 582,283 L 583,282 L 584,281 L 584,280 L 584,279 L 584,278 L 584,277 L 584,276 L 584,275 L 584,274 L 585,274 L 585,273 L 586,273 L 586,272 L 587,271 L 588,270 L 589,270 L 589,269 L 590,269 L 591,268 L 591,267 L 592,267 L 593,267 L 593,266 L 594,265 L 595,264 L 596,263 L 597,262 L 599,261 L 599,260 L 600,260 L 601,259 L 600,259 L 599,258 L 598,257 L 597,257 L 597,256 L 597,255 L 597,254 L 597,253 L 598,253 L 598,252 L 598,251 L 598,250 L 599,249 L 599,248 L 599,247 L 598,246 L 598,245 L 599,244 L 600,244 L 601,244 L 602,244 L 603,244 L 604,243 L 605,244 L 607,245 L 608,246 L 609,247 L 610,247 L 611,248 L 610,248 L 610,249 L 609,249 L 608,251 L 607,252 L 607,253 L 607,254 L 607,255 L 607,256 L 607,257 L 608,257 L 608,258 L 609,259 L 610,260 L 611,260 L 611,261 L 611,262 L 611,263 L 611,264 L 612,264 L 612,265 L 613,265 L 614,266 L 615,266 L 616,266 L 617,266 L 618,266 L 619,265 L 620,264 L 623,264 L 624,263 L 625,263 L 626,263 L 627,263 L 628,263 L 629,264 L 630,264 L 631,265 L 632,265 L 633,265 L 634,265 L 634,264 L 634,263 L 633,261 L 633,260 L 633,259 L 633,258 L 632,257 L 632,255 L 632,254 L 632,253 L 632,251 L 631,250 L 630,248 L 629,246 L 628,244 L 627,244 L 626,242 L 626,241 L 625,240 L 623,239 L 623,238 L 623,237 L 623,236 L 623,235 L 624,235 L 624,236 L 625,236 L 626,236 L 627,236 L 628,236 L 629,236 L 630,237 L 631,237 L 632,238 L 633,238 L 634,238 L 635,239 L 636,239 L 636,238 L 636,237 L 636,236 L 637,236 L 637,235 L 638,235 L 638,236 L 639,236 L 639,237 L 640,237 L 640,236 L 640,235 L 641,234 L 641,233 L 642,233 L 643,233 L 644,233 L 645,233 L 646,232 L 647,232 L 648,232 L 650,232 L 651,231 L 652,231 L 653,231 L 654,231 L 654,230 L 655,230 L 656,229 L 657,228 L 658,227 L 659,226 L 659,225 L 660,224 L 661,223 L 662,222 L 663,222 L 664,221 L 665,220 L 666,220 L 668,219 L 668,218 L 669,218 L 670,218 L 670,217 L 671,216 L 672,215 L 673,215 L 674,214 L 675,214 L 675,215 L 676,215 L 677,215 L 678,215 " />
</g>
<g id="karditsa_2" >
<path d="M 515,364 L 517,365 L 519,366 L 520,366 L 521,367 L 522,367 L 523,368 L 524,369 L 524,370 L 525,370 L 526,370 L 527,370 L 527,369 L 528,368 L 529,367 L 530,367 L 530,366 L 531,366 L 532,365 L 533,365 L 534,365 L 535,365 L 535,366 L 536,366 L 536,367 L 537,368 L 537,369 L 538,369 L 538,370 L 539,369 L 539,367 L 539,366 L 540,365 L 541,365 L 542,366 L 544,367 L 545,368 L 548,370 L 549,371 L 550,372 L 551,374 L 552,375 L 553,376 L 555,377 L 556,378 L 557,378 L 558,378 L 559,378 L 561,378 L 561,379 L 560,380 L 559,380 L 558,380 L 557,380 L 556,380 L 556,381 L 555,381 L 554,381 L 553,382 L 552,382 L 552,383 L 551,383 L 551,384 L 550,384 L 550,385 L 549,385 L 549,386 L 548,387 L 548,388 L 547,388 L 547,389 L 547,390 L 548,390 L 548,391 L 549,391 L 550,392 L 551,392 L 552,393 L 553,394 L 554,394 L 554,395 L 555,396 L 555,397 L 556,397 L 556,398 L 557,398 L 560,398 L 561,398 L 562,398 L 563,399 L 564,400 L 564,401 L 565,402 L 564,402 L 563,402 L 562,402 L 561,402 L 560,402 L 560,403 L 559,403 L 559,404 L 558,404 L 556,404 L 555,404 L 554,405 L 553,405 L 553,406 L 552,406 L 552,407 L 551,408 L 551,409 L 550,409 L 550,410 L 548,412 L 548,413 L 547,413 L 547,414 L 546,415 L 546,416 L 546,417 L 546,418 L 546,419 L 546,420 L 545,421 L 545,422 L 544,422 L 544,423 L 544,422 L 543,423 L 542,423 L 542,422 L 541,422 L 540,423 L 539,423 L 538,423 L 537,423 L 537,422 L 536,422 L 535,422 L 535,423 L 535,424 L 535,425 L 534,425 L 533,425 L 532,425 L 531,425 L 531,426 L 531,427 L 532,427 L 533,427 L 533,428 L 533,429 L 534,430 L 534,431 L 535,432 L 536,433 L 537,434 L 537,435 L 538,435 L 538,436 L 539,436 L 540,437 L 541,438 L 542,439 L 542,440 L 543,441 L 543,442 L 544,442 L 544,443 L 544,444 L 544,445 L 545,445 L 545,446 L 544,446 L 544,447 L 543,448 L 543,449 L 543,450 L 544,451 L 544,452 L 545,453 L 546,453 L 546,454 L 547,454 L 547,455 L 548,456 L 548,457 L 547,458 L 546,458 L 545,459 L 544,459 L 544,460 L 543,460 L 542,460 L 542,461 L 540,461 L 540,462 L 539,462 L 538,462 L 537,463 L 536,464 L 535,464 L 535,465 L 534,465 L 534,466 L 533,466 L 532,467 L 531,468 L 530,468 L 530,469 L 529,469 L 529,468 L 528,468 L 527,467 L 527,466 L 526,465 L 526,464 L 525,463 L 525,462 L 525,461 L 524,461 L 523,461 L 522,462 L 522,463 L 521,463 L 520,463 L 518,463 L 517,463 L 516,463 L 515,463 L 514,464 L 513,464 L 513,465 L 512,465 L 511,466 L 512,467 L 513,468 L 513,469 L 513,470 L 512,471 L 510,472 L 510,473 L 508,474 L 507,474 L 506,475 L 505,476 L 505,477 L 505,478 L 504,479 L 503,480 L 503,481 L 502,483 L 502,484 L 502,485 L 502,486 L 501,487 L 499,487 L 497,487 L 495,488 L 494,488 L 493,488 L 492,488 L 491,488 L 490,487 L 488,487 L 487,486 L 486,485 L 485,485 L 484,485 L 482,485 L 480,485 L 477,486 L 478,485 L 477,485 L 477,484 L 476,483 L 476,482 L 475,482 L 474,482 L 473,482 L 473,483 L 472,483 L 471,483 L 471,482 L 470,482 L 469,481 L 469,480 L 468,480 L 468,479 L 468,478 L 468,477 L 468,476 L 467,475 L 467,474 L 467,473 L 467,471 L 467,470 L 466,469 L 466,467 L 466,466 L 465,465 L 466,465 L 465,465 L 464,465 L 463,465 L 462,465 L 461,466 L 460,466 L 459,467 L 458,467 L 457,468 L 456,468 L 455,468 L 454,467 L 453,466 L 452,466 L 451,466 L 451,467 L 450,467 L 449,467 L 448,467 L 447,467 L 447,468 L 446,468 L 445,469 L 444,469 L 443,469 L 441,470 L 440,470 L 439,470 L 438,470 L 437,470 L 437,469 L 436,468 L 436,467 L 435,466 L 435,465 L 435,464 L 434,463 L 434,462 L 433,462 L 433,461 L 433,460 L 432,460 L 431,461 L 430,462 L 429,462 L 428,462 L 428,461 L 428,460 L 428,459 L 428,458 L 427,458 L 427,457 L 427,456 L 426,456 L 426,455 L 425,453 L 424,451 L 424,450 L 423,449 L 423,448 L 424,448 L 424,447 L 425,447 L 426,446 L 427,446 L 428,445 L 428,444 L 429,443 L 430,442 L 430,441 L 430,440 L 431,439 L 431,438 L 432,438 L 432,437 L 433,437 L 434,437 L 435,436 L 436,437 L 435,436 L 435,434 L 434,434 L 434,433 L 433,432 L 431,431 L 431,430 L 432,430 L 432,429 L 433,428 L 434,427 L 435,427 L 436,425 L 437,424 L 437,423 L 437,422 L 437,420 L 437,418 L 438,417 L 438,415 L 437,414 L 439,413 L 439,412 L 440,412 L 441,411 L 442,411 L 443,411 L 444,410 L 446,410 L 447,409 L 446,407 L 445,406 L 445,405 L 445,404 L 444,404 L 444,403 L 444,402 L 445,401 L 446,400 L 447,399 L 448,399 L 449,399 L 448,398 L 448,396 L 448,395 L 448,394 L 449,393 L 449,392 L 450,392 L 451,390 L 451,389 L 452,388 L 452,387 L 452,386 L 452,385 L 452,384 L 451,384 L 451,383 L 451,382 L 452,382 L 453,382 L 454,382 L 456,382 L 457,382 L 457,381 L 458,381 L 458,380 L 459,380 L 459,379 L 459,378 L 459,377 L 459,375 L 459,374 L 459,373 L 459,372 L 460,371 L 460,370 L 461,369 L 461,368 L 462,367 L 464,367 L 465,367 L 468,367 L 469,367 L 470,367 L 471,368 L 473,368 L 474,368 L 475,369 L 476,369 L 477,370 L 478,371 L 479,372 L 480,372 L 481,373 L 483,373 L 484,373 L 484,372 L 486,372 L 487,372 L 489,371 L 491,370 L 492,369 L 493,368 L 494,368 L 494,367 L 495,367 L 495,366 L 496,366 L 497,365 L 499,365 L 500,365 L 501,365 L 504,365 L 504,364 L 505,364 L 506,364 L 507,363 L 508,362 L 509,361 L 510,362 L 511,362 L 512,363 L 513,363 L 514,364 L 515,364 " />
</g>
<g id="karditsa_3" >
<path d="M 665,290 L 666,290 L 669,291 L 670,291 L 672,291 L 674,291 L 675,292 L 676,293 L 676,294 L 676,295 L 677,296 L 677,297 L 679,298 L 679,299 L 680,299 L 680,300 L 681,301 L 680,301 L 680,302 L 681,302 L 681,304 L 680,307 L 680,308 L 680,310 L 680,311 L 680,312 L 680,313 L 680,315 L 680,316 L 680,318 L 680,319 L 679,320 L 679,321 L 678,324 L 678,327 L 678,328 L 678,330 L 678,334 L 678,335 L 678,337 L 678,338 L 677,342 L 677,343 L 677,344 L 678,347 L 678,348 L 678,349 L 697,347 L 697,348 L 697,349 L 696,349 L 696,350 L 695,351 L 695,352 L 696,352 L 697,353 L 696,353 L 696,354 L 696,355 L 696,356 L 695,356 L 696,356 L 696,357 L 697,357 L 698,357 L 699,358 L 698,358 L 698,359 L 697,359 L 697,360 L 697,361 L 697,363 L 697,364 L 697,365 L 697,366 L 697,367 L 697,369 L 697,370 L 697,371 L 697,372 L 698,372 L 698,373 L 700,375 L 701,377 L 702,379 L 703,380 L 703,381 L 704,381 L 704,383 L 705,383 L 705,384 L 706,384 L 707,385 L 706,385 L 705,385 L 703,385 L 702,385 L 700,385 L 698,385 L 697,384 L 696,384 L 693,384 L 692,383 L 690,383 L 689,382 L 688,382 L 687,382 L 687,381 L 686,381 L 685,382 L 684,382 L 684,383 L 683,383 L 682,383 L 681,383 L 680,383 L 680,384 L 679,385 L 679,386 L 678,386 L 677,387 L 676,387 L 677,388 L 678,388 L 678,389 L 679,389 L 679,390 L 679,391 L 678,391 L 677,392 L 677,393 L 677,394 L 676,394 L 677,395 L 676,395 L 676,396 L 675,396 L 674,396 L 673,396 L 672,395 L 672,396 L 671,397 L 671,396 L 670,396 L 670,397 L 669,397 L 668,397 L 669,397 L 669,398 L 668,398 L 667,398 L 666,399 L 666,400 L 666,401 L 666,402 L 666,403 L 666,404 L 666,405 L 666,406 L 665,407 L 665,408 L 664,408 L 664,409 L 663,409 L 663,410 L 662,410 L 662,411 L 661,411 L 660,411 L 659,410 L 658,409 L 657,409 L 657,410 L 656,410 L 656,411 L 656,412 L 655,413 L 655,414 L 655,415 L 655,416 L 654,417 L 654,418 L 654,419 L 655,419 L 656,419 L 656,420 L 657,420 L 658,420 L 659,420 L 659,421 L 660,421 L 661,422 L 662,423 L 663,424 L 664,424 L 665,424 L 666,424 L 666,423 L 667,423 L 667,424 L 668,424 L 668,425 L 669,425 L 669,426 L 669,427 L 669,428 L 669,429 L 669,430 L 668,431 L 668,432 L 668,433 L 668,434 L 668,435 L 668,436 L 668,437 L 668,438 L 669,439 L 670,440 L 669,442 L 669,443 L 669,444 L 669,445 L 668,446 L 668,447 L 668,448 L 667,449 L 667,450 L 666,451 L 666,452 L 665,453 L 666,454 L 666,455 L 667,456 L 667,457 L 667,458 L 667,460 L 667,461 L 667,462 L 666,463 L 666,464 L 666,465 L 666,466 L 667,467 L 668,468 L 669,470 L 669,471 L 670,471 L 671,472 L 671,473 L 672,474 L 673,474 L 674,475 L 675,475 L 678,477 L 679,477 L 680,477 L 679,478 L 677,480 L 677,481 L 677,482 L 677,483 L 677,484 L 676,484 L 675,484 L 675,485 L 674,485 L 674,486 L 673,486 L 672,487 L 672,488 L 672,489 L 671,489 L 671,490 L 671,491 L 671,492 L 671,494 L 670,494 L 671,495 L 672,496 L 672,498 L 673,499 L 673,500 L 673,501 L 673,502 L 672,503 L 672,504 L 671,504 L 671,505 L 672,506 L 672,507 L 672,508 L 672,509 L 671,509 L 671,510 L 670,511 L 671,511 L 671,512 L 671,513 L 671,514 L 671,516 L 671,517 L 671,518 L 671,519 L 671,520 L 672,521 L 671,521 L 671,522 L 670,523 L 668,524 L 668,525 L 667,525 L 667,526 L 666,526 L 665,526 L 664,526 L 662,525 L 661,525 L 660,525 L 659,524 L 658,524 L 657,525 L 656,525 L 654,526 L 652,526 L 653,527 L 653,529 L 653,530 L 653,531 L 653,532 L 654,533 L 655,534 L 656,535 L 656,536 L 655,537 L 654,538 L 654,539 L 653,540 L 652,541 L 652,542 L 651,542 L 651,543 L 650,544 L 650,545 L 650,547 L 649,548 L 649,549 L 650,550 L 650,551 L 650,552 L 649,552 L 648,553 L 646,554 L 644,555 L 644,556 L 642,556 L 641,557 L 640,557 L 639,557 L 638,557 L 638,558 L 637,559 L 636,559 L 635,560 L 634,560 L 633,559 L 632,559 L 631,559 L 630,559 L 629,559 L 628,559 L 627,559 L 625,561 L 624,561 L 623,561 L 622,562 L 620,562 L 619,562 L 618,561 L 618,562 L 617,564 L 617,565 L 616,566 L 616,567 L 615,567 L 614,568 L 613,569 L 612,569 L 612,570 L 611,570 L 610,571 L 610,572 L 610,573 L 611,574 L 611,575 L 611,576 L 610,577 L 609,578 L 609,579 L 608,581 L 608,582 L 608,583 L 607,584 L 607,585 L 607,587 L 606,588 L 606,589 L 607,590 L 605,590 L 603,590 L 602,589 L 602,586 L 602,585 L 603,585 L 603,584 L 603,583 L 603,582 L 602,581 L 602,580 L 602,579 L 601,577 L 600,577 L 599,576 L 598,576 L 597,576 L 596,576 L 595,576 L 593,576 L 592,577 L 589,577 L 587,577 L 587,576 L 586,576 L 585,576 L 585,575 L 585,574 L 585,572 L 586,571 L 586,569 L 585,567 L 585,566 L 584,566 L 583,565 L 582,564 L 581,564 L 581,563 L 580,563 L 580,562 L 579,561 L 578,559 L 578,558 L 577,556 L 577,555 L 576,553 L 576,552 L 575,551 L 574,551 L 573,551 L 572,551 L 571,551 L 571,550 L 570,550 L 569,550 L 568,550 L 567,550 L 566,550 L 565,550 L 564,550 L 563,550 L 563,549 L 562,549 L 561,549 L 560,550 L 559,551 L 558,551 L 558,552 L 557,553 L 557,554 L 556,555 L 556,556 L 556,557 L 556,558 L 555,558 L 554,559 L 554,560 L 552,560 L 551,561 L 550,561 L 549,562 L 548,562 L 547,563 L 546,563 L 545,564 L 546,566 L 546,567 L 547,568 L 547,569 L 548,569 L 549,570 L 549,571 L 549,572 L 549,573 L 548,573 L 547,574 L 546,576 L 545,577 L 544,578 L 543,579 L 542,579 L 542,580 L 541,580 L 540,580 L 538,580 L 537,580 L 536,580 L 535,580 L 534,581 L 534,582 L 533,583 L 532,584 L 531,584 L 530,585 L 528,585 L 528,586 L 526,586 L 525,587 L 524,587 L 523,589 L 522,589 L 520,590 L 520,591 L 519,592 L 518,592 L 517,592 L 517,591 L 517,590 L 517,588 L 517,587 L 517,586 L 516,586 L 515,586 L 515,585 L 515,584 L 516,583 L 515,583 L 515,582 L 514,582 L 513,582 L 512,582 L 511,582 L 510,582 L 509,582 L 508,583 L 507,583 L 506,583 L 505,582 L 504,582 L 503,582 L 502,582 L 501,582 L 500,582 L 499,581 L 498,581 L 497,581 L 496,581 L 495,581 L 494,582 L 493,582 L 492,582 L 491,581 L 490,580 L 490,579 L 490,578 L 490,576 L 490,575 L 491,574 L 492,574 L 492,573 L 492,572 L 491,572 L 491,571 L 490,571 L 490,570 L 490,569 L 490,567 L 490,566 L 490,565 L 489,565 L 489,564 L 489,563 L 490,562 L 490,561 L 489,560 L 489,559 L 489,558 L 488,557 L 488,556 L 488,555 L 488,554 L 487,554 L 487,553 L 487,552 L 487,551 L 488,551 L 489,551 L 492,550 L 493,550 L 494,549 L 494,548 L 494,547 L 494,546 L 494,545 L 494,544 L 494,542 L 494,539 L 494,538 L 495,537 L 495,536 L 496,535 L 496,534 L 497,533 L 498,533 L 499,532 L 500,531 L 501,530 L 502,529 L 502,528 L 502,527 L 501,527 L 500,526 L 499,526 L 498,526 L 498,525 L 497,525 L 495,525 L 494,524 L 492,524 L 491,524 L 490,524 L 489,524 L 488,524 L 488,523 L 485,523 L 484,523 L 482,523 L 481,524 L 479,524 L 478,524 L 477,525 L 476,525 L 475,525 L 474,525 L 473,524 L 472,523 L 472,522 L 472,520 L 472,519 L 472,518 L 471,516 L 471,515 L 471,513 L 471,511 L 471,510 L 471,509 L 471,508 L 470,508 L 470,506 L 469,506 L 469,505 L 468,504 L 467,503 L 467,502 L 467,501 L 467,500 L 467,499 L 467,498 L 467,496 L 467,495 L 467,493 L 467,492 L 467,491 L 467,490 L 468,490 L 469,490 L 469,489 L 471,489 L 472,489 L 473,489 L 475,488 L 476,488 L 477,487 L 477,486 L 480,485 L 482,485 L 484,485 L 485,485 L 486,485 L 487,486 L 488,487 L 490,487 L 491,488 L 492,488 L 493,488 L 494,488 L 495,488 L 497,487 L 499,487 L 501,487 L 502,486 L 502,485 L 502,484 L 502,483 L 503,481 L 503,480 L 504,479 L 505,478 L 505,477 L 505,476 L 506,475 L 507,474 L 508,474 L 510,473 L 510,472 L 512,471 L 513,470 L 513,469 L 513,468 L 512,467 L 511,466 L 512,465 L 513,465 L 513,464 L 514,464 L 515,463 L 516,463 L 517,463 L 518,463 L 520,463 L 521,463 L 522,463 L 522,462 L 523,461 L 524,461 L 525,461 L 525,462 L 525,463 L 526,464 L 526,465 L 527,466 L 527,467 L 528,468 L 529,468 L 529,469 L 530,469 L 530,468 L 531,468 L 532,467 L 533,466 L 534,466 L 534,465 L 535,465 L 535,464 L 536,464 L 537,463 L 538,462 L 539,462 L 540,462 L 540,461 L 542,461 L 542,460 L 543,460 L 544,460 L 544,459 L 545,459 L 546,458 L 547,458 L 548,457 L 548,456 L 547,455 L 547,454 L 546,454 L 546,453 L 545,453 L 544,452 L 544,451 L 543,450 L 543,449 L 543,448 L 544,447 L 544,446 L 545,446 L 545,445 L 544,445 L 544,444 L 544,443 L 544,442 L 543,442 L 543,441 L 542,440 L 542,439 L 541,438 L 540,437 L 539,436 L 538,436 L 538,435 L 537,435 L 537,434 L 536,433 L 535,432 L 534,431 L 534,430 L 533,429 L 533,428 L 533,427 L 532,427 L 531,427 L 531,426 L 531,425 L 532,425 L 533,425 L 534,425 L 535,425 L 535,424 L 535,423 L 535,422 L 536,422 L 537,422 L 537,423 L 538,423 L 539,423 L 540,423 L 541,422 L 542,422 L 542,423 L 543,423 L 544,422 L 544,423 L 544,422 L 545,422 L 545,421 L 546,420 L 546,419 L 546,418 L 546,417 L 546,416 L 546,415 L 547,414 L 547,413 L 548,413 L 548,412 L 550,410 L 550,409 L 551,409 L 551,408 L 552,407 L 552,406 L 553,406 L 553,405 L 554,405 L 555,404 L 556,404 L 558,404 L 559,404 L 559,403 L 560,403 L 560,402 L 561,402 L 562,402 L 563,402 L 564,402 L 565,402 L 564,401 L 564,400 L 563,399 L 562,398 L 561,398 L 560,398 L 557,398 L 556,398 L 556,397 L 555,397 L 555,396 L 554,395 L 554,394 L 553,394 L 552,393 L 551,392 L 550,392 L 549,391 L 548,391 L 548,390 L 547,390 L 547,389 L 547,388 L 548,388 L 548,387 L 549,386 L 549,385 L 550,385 L 550,384 L 551,384 L 551,383 L 552,383 L 552,382 L 553,382 L 554,381 L 555,381 L 556,381 L 556,380 L 557,380 L 558,380 L 559,380 L 560,380 L 561,379 L 561,378 L 562,378 L 563,377 L 564,377 L 565,376 L 567,374 L 568,374 L 569,373 L 571,372 L 573,370 L 574,370 L 575,369 L 575,368 L 576,368 L 576,367 L 576,366 L 576,365 L 577,364 L 577,363 L 577,362 L 577,361 L 576,360 L 576,359 L 575,358 L 574,357 L 574,356 L 573,356 L 573,355 L 572,355 L 573,355 L 573,354 L 573,353 L 574,353 L 575,352 L 576,351 L 577,351 L 578,350 L 578,349 L 578,347 L 578,346 L 579,346 L 579,345 L 580,345 L 581,344 L 580,344 L 580,343 L 580,342 L 579,340 L 579,339 L 579,338 L 579,337 L 578,336 L 578,335 L 578,334 L 577,333 L 577,332 L 577,331 L 577,330 L 577,329 L 578,329 L 579,329 L 580,327 L 581,327 L 582,327 L 583,326 L 584,325 L 585,325 L 586,324 L 587,324 L 587,323 L 588,323 L 591,322 L 592,322 L 593,322 L 594,322 L 595,322 L 595,321 L 596,321 L 596,320 L 596,319 L 597,319 L 597,318 L 598,317 L 599,316 L 600,316 L 600,315 L 601,315 L 602,314 L 603,314 L 603,313 L 604,313 L 605,313 L 605,312 L 606,312 L 607,312 L 608,311 L 609,311 L 610,311 L 611,310 L 612,310 L 613,310 L 614,310 L 614,309 L 614,308 L 614,307 L 615,307 L 619,306 L 622,305 L 623,305 L 625,304 L 627,303 L 628,303 L 629,302 L 631,302 L 632,302 L 634,302 L 635,302 L 636,302 L 636,301 L 637,301 L 639,300 L 639,299 L 640,299 L 640,298 L 641,297 L 641,296 L 642,296 L 642,295 L 643,295 L 643,294 L 644,294 L 645,293 L 647,293 L 648,292 L 649,293 L 650,294 L 651,294 L 654,293 L 655,293 L 657,292 L 658,292 L 659,292 L 661,291 L 662,291 L 662,290 L 663,290 L 664,290 L 665,290 " />
</g>
<g id="karditsa_4" >
<path d="M 579,250 L 580,250 L 581,250 L 582,250 L 585,251 L 586,252 L 587,252 L 588,252 L 589,252 L 590,252 L 591,251 L 592,252 L 593,252 L 593,253 L 594,253 L 595,254 L 596,253 L 597,253 L 597,254 L 597,255 L 597,256 L 597,257 L 598,257 L 599,258 L 600,259 L 601,259 L 600,260 L 599,260 L 599,261 L 597,262 L 596,263 L 595,264 L 594,265 L 593,266 L 593,267 L 592,267 L 591,267 L 591,268 L 590,269 L 589,269 L 589,270 L 588,270 L 587,271 L 586,272 L 586,273 L 585,273 L 585,274 L 584,274 L 584,275 L 584,276 L 584,277 L 584,278 L 584,279 L 584,280 L 584,281 L 583,282 L 582,283 L 581,285 L 581,286 L 580,286 L 580,287 L 579,287 L 579,288 L 578,288 L 578,289 L 579,291 L 579,292 L 579,293 L 580,294 L 580,295 L 579,295 L 578,295 L 577,296 L 576,296 L 575,296 L 574,296 L 574,297 L 575,297 L 576,297 L 576,298 L 577,298 L 578,299 L 579,300 L 580,301 L 582,301 L 583,301 L 584,301 L 585,301 L 586,301 L 587,301 L 588,301 L 589,302 L 590,303 L 591,303 L 593,302 L 593,301 L 595,300 L 596,300 L 597,299 L 599,300 L 600,301 L 601,302 L 602,302 L 602,303 L 602,304 L 603,305 L 603,306 L 604,306 L 605,307 L 606,307 L 608,307 L 609,308 L 610,308 L 611,307 L 613,307 L 614,307 L 614,308 L 614,309 L 614,310 L 613,310 L 612,310 L 611,310 L 610,311 L 609,311 L 608,311 L 607,312 L 606,312 L 605,312 L 605,313 L 604,313 L 603,313 L 603,314 L 602,314 L 601,315 L 600,315 L 600,316 L 599,316 L 598,317 L 597,318 L 597,319 L 596,319 L 596,320 L 596,321 L 595,321 L 595,322 L 594,322 L 593,322 L 592,322 L 591,322 L 588,323 L 587,323 L 587,324 L 586,324 L 585,325 L 584,325 L 583,326 L 582,327 L 581,327 L 580,327 L 579,329 L 578,329 L 577,329 L 577,330 L 577,331 L 577,332 L 577,333 L 578,334 L 578,335 L 578,336 L 579,337 L 579,338 L 579,339 L 579,340 L 580,342 L 580,343 L 580,344 L 581,344 L 580,345 L 579,345 L 579,346 L 578,346 L 578,347 L 578,349 L 578,350 L 577,351 L 576,351 L 575,352 L 574,353 L 573,353 L 573,354 L 573,355 L 572,355 L 573,355 L 573,356 L 574,356 L 574,357 L 575,358 L 576,359 L 576,360 L 577,361 L 577,362 L 577,363 L 577,364 L 576,365 L 576,366 L 576,367 L 576,368 L 575,368 L 575,369 L 574,370 L 573,370 L 571,372 L 569,373 L 568,374 L 567,374 L 565,376 L 564,377 L 563,377 L 562,378 L 561,378 L 559,378 L 558,378 L 557,378 L 556,378 L 555,377 L 553,376 L 552,375 L 551,374 L 550,372 L 549,371 L 548,370 L 545,368 L 544,367 L 542,366 L 541,365 L 540,365 L 539,366 L 539,367 L 539,369 L 538,370 L 538,369 L 537,369 L 537,368 L 536,367 L 536,366 L 535,366 L 535,365 L 534,365 L 533,365 L 532,365 L 531,366 L 530,366 L 530,367 L 529,367 L 528,368 L 527,369 L 527,370 L 526,370 L 525,370 L 524,370 L 524,369 L 523,368 L 522,367 L 521,367 L 520,366 L 519,366 L 517,365 L 515,364 L 514,364 L 513,363 L 512,363 L 511,362 L 510,362 L 509,361 L 508,362 L 507,363 L 506,364 L 505,364 L 504,364 L 504,365 L 501,365 L 500,365 L 499,365 L 497,365 L 496,366 L 495,366 L 495,367 L 494,367 L 494,368 L 493,368 L 492,369 L 491,370 L 489,371 L 487,372 L 486,372 L 484,372 L 484,373 L 483,373 L 481,373 L 480,372 L 479,372 L 478,371 L 477,370 L 476,369 L 475,369 L 474,368 L 473,368 L 471,368 L 470,367 L 469,367 L 468,367 L 465,367 L 464,367 L 462,367 L 461,368 L 461,369 L 460,370 L 460,371 L 459,372 L 459,373 L 459,374 L 459,375 L 459,377 L 459,378 L 459,379 L 459,380 L 458,380 L 458,381 L 457,381 L 457,382 L 456,382 L 454,382 L 453,382 L 452,382 L 451,382 L 451,383 L 451,384 L 452,384 L 452,385 L 452,386 L 452,387 L 452,388 L 451,389 L 451,390 L 450,392 L 449,392 L 449,393 L 448,394 L 448,395 L 448,396 L 448,398 L 449,399 L 448,399 L 447,399 L 446,400 L 445,401 L 444,402 L 444,403 L 444,404 L 445,404 L 445,405 L 445,406 L 446,407 L 447,409 L 446,410 L 444,410 L 443,411 L 442,411 L 441,411 L 440,412 L 439,412 L 439,413 L 437,414 L 437,413 L 436,413 L 435,412 L 434,412 L 433,411 L 432,411 L 432,410 L 431,409 L 431,408 L 431,407 L 431,406 L 431,405 L 430,405 L 430,404 L 428,404 L 427,404 L 426,403 L 425,403 L 424,403 L 422,403 L 421,403 L 419,404 L 418,404 L 416,404 L 414,405 L 413,405 L 412,405 L 411,405 L 410,405 L 409,405 L 408,406 L 407,406 L 406,407 L 405,407 L 404,406 L 403,406 L 402,405 L 401,405 L 400,404 L 399,404 L 398,404 L 397,404 L 396,404 L 396,403 L 395,403 L 395,402 L 395,401 L 394,400 L 393,399 L 392,398 L 391,398 L 391,397 L 390,396 L 389,395 L 389,394 L 389,393 L 389,392 L 390,390 L 390,389 L 390,388 L 390,386 L 391,383 L 391,382 L 391,380 L 392,380 L 392,379 L 393,378 L 394,378 L 394,377 L 394,376 L 394,374 L 393,371 L 392,370 L 392,369 L 392,368 L 393,368 L 394,368 L 393,367 L 393,366 L 392,366 L 392,365 L 391,365 L 390,365 L 389,365 L 388,365 L 387,366 L 386,366 L 386,367 L 385,367 L 384,367 L 383,366 L 382,365 L 381,363 L 381,362 L 380,361 L 380,360 L 380,359 L 381,359 L 382,357 L 382,356 L 383,354 L 383,353 L 384,352 L 385,352 L 386,352 L 386,351 L 387,351 L 388,351 L 388,350 L 389,350 L 389,349 L 388,349 L 387,349 L 385,349 L 384,349 L 383,349 L 381,349 L 380,349 L 379,349 L 376,349 L 375,348 L 374,348 L 373,347 L 372,347 L 371,346 L 368,345 L 370,344 L 371,344 L 372,343 L 373,342 L 374,342 L 374,341 L 376,339 L 378,337 L 379,336 L 380,335 L 381,335 L 381,334 L 383,334 L 384,334 L 385,333 L 386,333 L 386,332 L 387,332 L 388,331 L 388,329 L 389,327 L 389,326 L 390,324 L 390,323 L 392,319 L 393,318 L 394,316 L 395,315 L 396,314 L 397,314 L 398,314 L 399,314 L 401,314 L 402,314 L 403,313 L 404,313 L 405,313 L 407,313 L 408,313 L 409,313 L 410,312 L 409,311 L 408,310 L 408,309 L 408,308 L 408,307 L 408,305 L 408,304 L 407,304 L 407,303 L 407,302 L 406,302 L 406,301 L 405,301 L 406,300 L 406,299 L 407,298 L 407,297 L 408,297 L 409,296 L 409,295 L 410,294 L 410,293 L 411,292 L 412,292 L 412,293 L 413,293 L 414,294 L 414,295 L 414,296 L 415,297 L 416,298 L 417,299 L 418,300 L 419,300 L 420,301 L 421,301 L 421,302 L 421,303 L 421,304 L 420,305 L 420,306 L 421,307 L 422,308 L 423,308 L 423,309 L 424,309 L 425,310 L 425,311 L 426,311 L 426,312 L 427,312 L 428,312 L 428,313 L 429,313 L 430,314 L 431,314 L 432,314 L 432,315 L 434,315 L 435,316 L 436,315 L 436,314 L 436,313 L 436,312 L 437,312 L 438,311 L 440,310 L 440,309 L 441,309 L 441,308 L 441,307 L 442,306 L 442,305 L 443,305 L 443,304 L 444,304 L 445,304 L 446,304 L 448,305 L 449,305 L 449,304 L 449,303 L 450,303 L 451,302 L 451,301 L 452,301 L 453,301 L 454,300 L 455,300 L 455,301 L 456,301 L 458,301 L 458,302 L 459,302 L 460,302 L 461,302 L 462,302 L 463,301 L 464,300 L 465,300 L 466,300 L 466,301 L 467,301 L 468,301 L 469,301 L 469,302 L 470,302 L 471,302 L 472,303 L 473,303 L 474,303 L 475,303 L 476,303 L 477,303 L 478,303 L 479,303 L 480,302 L 482,301 L 483,300 L 485,299 L 486,298 L 488,296 L 488,295 L 489,294 L 491,292 L 491,291 L 492,290 L 494,289 L 495,288 L 496,286 L 497,285 L 497,284 L 499,282 L 499,281 L 500,281 L 500,280 L 501,280 L 503,279 L 505,278 L 506,278 L 507,278 L 507,277 L 507,275 L 506,274 L 506,273 L 507,272 L 508,272 L 509,272 L 510,272 L 511,273 L 512,273 L 512,274 L 512,275 L 512,276 L 513,276 L 514,276 L 515,276 L 516,277 L 516,279 L 516,280 L 516,281 L 515,283 L 516,283 L 516,284 L 517,285 L 517,286 L 516,286 L 516,287 L 515,287 L 514,288 L 513,290 L 513,291 L 512,291 L 511,292 L 511,293 L 511,294 L 511,297 L 511,298 L 511,299 L 512,299 L 512,300 L 513,299 L 514,299 L 515,299 L 515,298 L 516,297 L 517,297 L 518,297 L 518,298 L 518,297 L 519,297 L 519,296 L 520,295 L 520,294 L 521,294 L 521,293 L 522,293 L 523,293 L 524,292 L 524,291 L 524,292 L 525,292 L 526,292 L 526,291 L 526,290 L 527,290 L 527,291 L 527,292 L 528,292 L 528,291 L 529,291 L 529,290 L 530,290 L 531,290 L 532,290 L 534,289 L 535,289 L 536,289 L 537,289 L 537,290 L 538,290 L 539,290 L 541,290 L 542,290 L 542,291 L 543,291 L 544,290 L 545,290 L 545,289 L 545,288 L 546,288 L 546,287 L 547,286 L 547,285 L 548,284 L 549,283 L 549,282 L 550,280 L 551,279 L 551,278 L 552,277 L 552,276 L 553,275 L 554,274 L 554,273 L 555,272 L 555,271 L 556,270 L 556,269 L 557,267 L 558,266 L 559,265 L 559,264 L 560,264 L 562,263 L 563,262 L 564,261 L 565,261 L 566,260 L 566,259 L 567,258 L 567,257 L 568,256 L 569,255 L 569,254 L 570,254 L 571,253 L 571,252 L 572,252 L 572,251 L 571,249 L 571,248 L 572,248 L 573,248 L 574,249 L 575,249 L 576,249 L 577,250 L 578,250 L 579,250 " />
</g>
<g id="karditsa_5" >
<path d="M 306,323 L 308,324 L 308,325 L 309,325 L 310,326 L 311,327 L 312,329 L 312,330 L 313,331 L 314,331 L 315,331 L 317,331 L 317,332 L 318,332 L 318,333 L 319,334 L 319,333 L 320,333 L 320,332 L 321,332 L 322,332 L 323,332 L 324,333 L 326,333 L 327,334 L 329,335 L 331,335 L 332,336 L 333,336 L 333,337 L 334,338 L 334,339 L 335,340 L 335,342 L 336,343 L 336,344 L 337,345 L 338,347 L 339,348 L 340,348 L 340,349 L 341,349 L 341,350 L 342,350 L 343,350 L 344,350 L 344,351 L 345,351 L 346,351 L 346,352 L 347,352 L 348,352 L 349,353 L 350,354 L 351,355 L 352,356 L 353,356 L 353,357 L 354,357 L 355,357 L 356,357 L 357,358 L 357,357 L 358,357 L 358,356 L 359,356 L 360,355 L 361,355 L 361,354 L 362,353 L 363,353 L 363,352 L 364,352 L 364,351 L 365,351 L 365,350 L 365,349 L 365,348 L 366,347 L 366,346 L 367,345 L 368,345 L 371,346 L 372,347 L 373,347 L 374,348 L 375,348 L 376,349 L 379,349 L 380,349 L 381,349 L 383,349 L 384,349 L 385,349 L 387,349 L 388,349 L 389,349 L 389,350 L 388,350 L 388,351 L 387,351 L 386,351 L 386,352 L 385,352 L 384,352 L 383,353 L 383,354 L 382,356 L 382,357 L 381,359 L 380,359 L 380,360 L 380,361 L 381,362 L 381,363 L 382,365 L 383,366 L 384,367 L 385,367 L 386,367 L 386,366 L 387,366 L 388,365 L 389,365 L 390,365 L 391,365 L 392,365 L 392,366 L 393,366 L 393,367 L 394,368 L 393,368 L 392,368 L 392,369 L 392,370 L 393,371 L 394,374 L 394,376 L 394,377 L 394,378 L 393,378 L 392,379 L 392,380 L 391,380 L 391,382 L 391,383 L 390,386 L 390,388 L 390,389 L 390,390 L 389,392 L 389,393 L 389,394 L 389,395 L 390,396 L 391,397 L 391,398 L 392,398 L 393,399 L 394,400 L 395,401 L 395,402 L 395,403 L 396,403 L 396,404 L 397,404 L 398,404 L 399,404 L 400,404 L 401,405 L 402,405 L 403,406 L 404,406 L 405,407 L 406,407 L 407,406 L 408,406 L 409,405 L 410,405 L 411,405 L 412,405 L 413,405 L 414,405 L 416,404 L 418,404 L 419,404 L 421,403 L 422,403 L 424,403 L 425,403 L 426,403 L 427,404 L 428,404 L 430,404 L 430,405 L 431,405 L 431,406 L 431,407 L 431,408 L 431,409 L 432,410 L 432,411 L 433,411 L 434,412 L 435,412 L 436,413 L 437,413 L 437,414 L 438,415 L 438,417 L 437,418 L 437,420 L 437,422 L 437,423 L 437,424 L 436,425 L 435,427 L 434,427 L 433,428 L 432,429 L 432,430 L 431,430 L 431,431 L 433,432 L 434,433 L 434,434 L 435,434 L 435,436 L 436,437 L 435,436 L 434,437 L 433,437 L 432,437 L 432,438 L 431,438 L 431,439 L 430,440 L 430,441 L 430,442 L 429,443 L 428,444 L 428,445 L 427,446 L 426,446 L 425,447 L 424,447 L 424,448 L 423,448 L 423,449 L 424,450 L 424,451 L 425,453 L 426,455 L 426,456 L 427,456 L 427,457 L 427,458 L 428,458 L 428,459 L 428,460 L 428,461 L 428,462 L 427,462 L 426,462 L 426,463 L 425,464 L 425,465 L 424,466 L 423,466 L 422,467 L 420,468 L 419,469 L 418,469 L 417,470 L 416,471 L 416,472 L 415,473 L 414,473 L 413,472 L 412,472 L 411,472 L 410,472 L 409,473 L 408,473 L 408,472 L 407,472 L 406,472 L 405,471 L 404,471 L 404,470 L 403,470 L 402,470 L 401,471 L 400,471 L 399,472 L 398,472 L 397,472 L 396,473 L 395,473 L 394,474 L 392,475 L 391,476 L 390,476 L 390,477 L 389,477 L 388,478 L 387,479 L 386,480 L 385,481 L 384,483 L 383,485 L 383,487 L 383,488 L 383,490 L 383,491 L 382,491 L 381,491 L 380,491 L 378,491 L 377,492 L 375,492 L 374,492 L 372,492 L 371,492 L 369,492 L 368,492 L 368,491 L 367,490 L 367,489 L 366,489 L 366,488 L 364,487 L 361,485 L 360,485 L 359,485 L 358,485 L 357,485 L 357,484 L 356,484 L 356,483 L 355,482 L 354,481 L 354,480 L 353,480 L 353,479 L 352,479 L 351,478 L 350,477 L 349,476 L 349,475 L 348,475 L 347,475 L 346,479 L 346,480 L 345,481 L 345,482 L 344,483 L 343,484 L 341,485 L 340,485 L 340,486 L 339,487 L 338,487 L 337,487 L 336,487 L 335,487 L 334,488 L 333,489 L 332,489 L 331,489 L 331,490 L 330,490 L 329,491 L 328,491 L 327,492 L 326,492 L 325,492 L 324,493 L 323,493 L 322,494 L 321,495 L 318,499 L 318,500 L 318,502 L 317,503 L 316,502 L 315,501 L 314,501 L 313,500 L 312,500 L 311,499 L 310,499 L 310,500 L 309,500 L 308,500 L 307,500 L 307,502 L 307,503 L 308,507 L 308,508 L 309,509 L 309,510 L 309,511 L 309,512 L 309,513 L 308,513 L 307,515 L 304,516 L 303,517 L 302,518 L 301,518 L 299,519 L 298,519 L 297,520 L 296,520 L 295,522 L 294,523 L 293,523 L 292,523 L 291,523 L 290,523 L 289,523 L 288,524 L 287,525 L 286,525 L 286,526 L 285,527 L 284,527 L 284,528 L 283,528 L 282,528 L 281,528 L 281,529 L 280,529 L 279,530 L 276,531 L 275,531 L 275,532 L 275,533 L 274,533 L 272,533 L 272,532 L 271,532 L 270,532 L 270,531 L 269,531 L 268,531 L 267,531 L 266,531 L 266,530 L 265,531 L 264,531 L 263,530 L 262,529 L 262,528 L 261,528 L 261,527 L 260,527 L 260,526 L 259,526 L 260,524 L 260,523 L 260,522 L 260,521 L 259,521 L 259,520 L 258,519 L 257,519 L 256,519 L 255,520 L 254,520 L 254,519 L 253,519 L 253,518 L 253,517 L 253,515 L 253,514 L 252,513 L 251,513 L 250,513 L 250,512 L 249,512 L 248,512 L 247,511 L 247,510 L 247,509 L 247,508 L 248,508 L 249,507 L 248,507 L 248,506 L 247,506 L 247,505 L 246,505 L 245,504 L 245,503 L 245,502 L 245,501 L 245,499 L 245,497 L 245,496 L 245,495 L 245,494 L 245,492 L 246,492 L 246,491 L 247,490 L 247,489 L 247,488 L 248,488 L 249,487 L 249,486 L 250,485 L 251,485 L 252,484 L 253,484 L 254,484 L 254,483 L 255,483 L 255,482 L 256,482 L 256,481 L 256,480 L 256,479 L 256,478 L 256,476 L 256,475 L 257,474 L 257,473 L 258,473 L 259,473 L 260,472 L 261,472 L 263,472 L 263,471 L 264,471 L 265,471 L 265,470 L 265,468 L 266,467 L 266,466 L 267,465 L 268,465 L 269,465 L 271,465 L 273,465 L 274,465 L 275,464 L 276,463 L 276,462 L 276,461 L 276,460 L 277,458 L 278,457 L 279,456 L 280,456 L 282,455 L 282,454 L 284,454 L 285,453 L 286,452 L 287,451 L 288,450 L 288,449 L 289,448 L 290,447 L 290,446 L 290,444 L 291,444 L 291,443 L 292,442 L 293,441 L 294,440 L 294,439 L 295,438 L 295,437 L 296,435 L 297,434 L 297,433 L 297,431 L 298,431 L 298,430 L 298,429 L 298,428 L 299,426 L 299,425 L 298,423 L 298,422 L 297,422 L 296,422 L 295,421 L 294,421 L 293,421 L 292,421 L 291,421 L 290,421 L 290,420 L 289,420 L 289,419 L 289,418 L 288,417 L 288,416 L 288,415 L 288,414 L 288,413 L 289,412 L 289,411 L 289,410 L 289,409 L 289,408 L 289,407 L 290,406 L 290,405 L 290,404 L 289,404 L 288,403 L 288,401 L 287,400 L 287,399 L 287,398 L 287,397 L 287,396 L 286,396 L 285,396 L 283,395 L 282,395 L 281,395 L 281,394 L 281,393 L 282,393 L 282,392 L 282,391 L 280,390 L 279,390 L 279,389 L 279,388 L 279,387 L 278,387 L 278,386 L 278,385 L 279,384 L 279,383 L 280,382 L 280,381 L 279,381 L 279,380 L 277,380 L 276,379 L 275,378 L 275,377 L 275,375 L 276,375 L 275,375 L 275,374 L 274,373 L 273,373 L 272,373 L 271,373 L 270,373 L 270,372 L 269,371 L 269,370 L 269,369 L 269,368 L 268,367 L 269,367 L 269,366 L 269,365 L 269,364 L 269,363 L 269,362 L 269,361 L 269,360 L 268,359 L 268,358 L 267,357 L 267,356 L 268,355 L 269,355 L 269,354 L 270,354 L 271,353 L 271,352 L 271,351 L 271,350 L 270,350 L 270,349 L 270,348 L 271,348 L 272,348 L 273,347 L 274,346 L 275,346 L 275,345 L 276,343 L 277,342 L 278,342 L 279,341 L 280,341 L 281,340 L 281,339 L 281,338 L 282,337 L 282,336 L 283,335 L 284,334 L 286,333 L 287,333 L 288,333 L 288,332 L 289,332 L 289,331 L 289,330 L 290,330 L 290,329 L 291,329 L 292,329 L 292,328 L 293,328 L 294,327 L 295,326 L 297,325 L 298,325 L 299,325 L 300,325 L 301,324 L 302,324 L 303,324 L 304,324 L 305,324 L 305,323 L 306,323 " />
</g>
<g id="karditsa_6" >
<path d="M 756,308 L 756,309 L 756,310 L 757,310 L 757,312 L 758,312 L 758,313 L 759,313 L 759,314 L 760,314 L 762,315 L 763,315 L 765,315 L 766,315 L 767,315 L 768,316 L 770,318 L 771,319 L 773,320 L 773,321 L 774,321 L 774,322 L 775,324 L 776,325 L 775,326 L 774,327 L 773,329 L 772,330 L 771,331 L 771,332 L 771,333 L 771,334 L 771,335 L 772,336 L 773,337 L 773,338 L 774,339 L 775,340 L 775,341 L 775,342 L 775,344 L 775,350 L 775,351 L 775,354 L 776,355 L 778,356 L 779,357 L 780,357 L 781,358 L 782,358 L 784,358 L 785,359 L 786,359 L 788,359 L 789,359 L 790,359 L 791,359 L 792,360 L 792,361 L 793,362 L 794,363 L 795,363 L 796,363 L 797,363 L 798,363 L 798,362 L 799,362 L 800,362 L 801,362 L 801,363 L 802,363 L 803,364 L 804,364 L 805,365 L 806,366 L 806,367 L 806,368 L 807,369 L 807,370 L 808,371 L 809,371 L 810,371 L 810,372 L 811,372 L 813,373 L 813,374 L 814,374 L 815,374 L 815,375 L 816,375 L 817,376 L 818,377 L 819,377 L 818,378 L 818,379 L 818,380 L 818,381 L 818,383 L 818,384 L 819,384 L 819,385 L 820,386 L 821,387 L 821,388 L 823,390 L 824,392 L 825,395 L 825,396 L 825,397 L 825,398 L 825,399 L 826,400 L 826,401 L 825,401 L 824,401 L 822,401 L 820,401 L 819,401 L 818,402 L 815,402 L 813,402 L 812,402 L 812,403 L 811,403 L 811,404 L 810,405 L 810,407 L 810,408 L 810,409 L 811,410 L 811,411 L 811,415 L 811,416 L 810,419 L 810,421 L 810,422 L 810,424 L 810,425 L 811,425 L 812,425 L 812,426 L 812,427 L 813,428 L 814,427 L 814,428 L 815,428 L 815,429 L 815,430 L 816,431 L 816,433 L 816,435 L 817,436 L 817,437 L 817,438 L 817,439 L 817,440 L 817,441 L 818,441 L 819,442 L 820,442 L 822,443 L 823,444 L 824,444 L 825,445 L 826,445 L 827,446 L 828,446 L 828,448 L 829,449 L 830,449 L 830,450 L 831,450 L 831,451 L 831,452 L 831,453 L 832,454 L 833,455 L 833,456 L 834,456 L 835,456 L 836,456 L 837,456 L 838,456 L 839,456 L 839,457 L 839,458 L 838,459 L 838,460 L 838,461 L 837,462 L 837,463 L 836,463 L 836,464 L 835,464 L 835,465 L 836,465 L 837,465 L 836,466 L 835,467 L 836,467 L 836,468 L 837,468 L 836,469 L 835,469 L 834,468 L 833,468 L 832,468 L 832,469 L 831,469 L 832,470 L 832,471 L 832,472 L 831,473 L 830,474 L 831,474 L 832,474 L 831,475 L 830,475 L 831,475 L 831,476 L 832,476 L 831,476 L 831,477 L 830,477 L 829,477 L 828,477 L 828,478 L 828,479 L 828,480 L 828,481 L 827,481 L 827,480 L 826,480 L 825,481 L 824,482 L 823,481 L 823,482 L 822,482 L 822,483 L 821,483 L 821,484 L 820,484 L 820,485 L 820,486 L 820,487 L 819,487 L 818,487 L 818,488 L 818,489 L 818,491 L 817,492 L 817,493 L 816,494 L 815,495 L 815,496 L 814,496 L 814,497 L 815,497 L 815,498 L 814,498 L 813,499 L 812,500 L 812,501 L 811,502 L 811,503 L 810,504 L 809,505 L 809,506 L 809,507 L 809,508 L 808,508 L 808,509 L 807,510 L 806,511 L 806,512 L 806,514 L 805,514 L 805,515 L 804,515 L 803,515 L 802,516 L 801,516 L 800,516 L 799,516 L 799,517 L 798,517 L 797,519 L 796,520 L 795,521 L 793,523 L 792,524 L 792,525 L 791,526 L 791,527 L 790,528 L 790,529 L 790,531 L 790,532 L 790,533 L 790,534 L 789,536 L 789,537 L 788,538 L 788,539 L 787,539 L 786,540 L 785,540 L 784,540 L 783,540 L 783,541 L 781,541 L 780,542 L 779,542 L 779,543 L 779,544 L 778,545 L 778,546 L 777,547 L 776,547 L 775,547 L 774,547 L 773,547 L 772,547 L 771,547 L 769,547 L 768,547 L 768,548 L 768,549 L 767,550 L 766,550 L 766,551 L 766,552 L 766,553 L 765,554 L 765,555 L 766,555 L 766,556 L 767,557 L 767,558 L 767,559 L 768,559 L 768,560 L 769,561 L 769,562 L 769,564 L 770,565 L 770,566 L 771,567 L 771,568 L 771,569 L 773,571 L 773,572 L 773,574 L 774,574 L 774,575 L 775,576 L 776,577 L 777,578 L 777,579 L 775,579 L 774,580 L 773,580 L 773,581 L 771,582 L 769,583 L 768,583 L 761,586 L 759,587 L 758,587 L 757,588 L 756,588 L 755,588 L 755,589 L 753,592 L 753,593 L 752,593 L 751,594 L 749,597 L 747,598 L 747,599 L 746,599 L 745,600 L 744,600 L 743,600 L 743,601 L 742,601 L 741,600 L 740,600 L 739,599 L 738,599 L 737,599 L 736,600 L 733,602 L 732,602 L 731,603 L 730,604 L 729,605 L 728,605 L 728,604 L 727,603 L 726,602 L 726,601 L 725,600 L 725,599 L 724,599 L 723,597 L 722,597 L 722,596 L 722,595 L 721,594 L 720,593 L 720,592 L 719,592 L 719,591 L 718,592 L 718,593 L 718,594 L 717,596 L 717,597 L 716,598 L 716,601 L 714,604 L 714,605 L 712,608 L 711,609 L 711,610 L 710,610 L 710,611 L 708,612 L 707,612 L 706,612 L 705,612 L 705,611 L 703,611 L 703,612 L 702,612 L 702,613 L 701,613 L 700,613 L 699,613 L 698,613 L 697,612 L 696,611 L 696,612 L 695,612 L 695,613 L 695,614 L 695,617 L 694,618 L 694,619 L 695,620 L 695,621 L 696,623 L 696,625 L 697,626 L 697,627 L 698,627 L 699,628 L 700,629 L 699,630 L 699,631 L 699,632 L 700,632 L 701,634 L 701,635 L 702,635 L 703,636 L 705,637 L 706,637 L 707,637 L 708,637 L 708,638 L 707,638 L 707,639 L 706,639 L 705,639 L 704,639 L 702,639 L 701,639 L 700,639 L 699,640 L 697,642 L 695,643 L 694,643 L 693,643 L 692,643 L 691,643 L 690,643 L 689,643 L 688,644 L 687,645 L 686,646 L 685,646 L 684,645 L 683,644 L 682,643 L 681,643 L 680,643 L 679,644 L 678,645 L 678,646 L 677,647 L 676,648 L 676,649 L 675,650 L 674,651 L 674,652 L 673,653 L 673,654 L 672,655 L 672,656 L 671,656 L 670,656 L 669,655 L 668,655 L 668,654 L 667,654 L 666,654 L 666,653 L 665,653 L 664,653 L 663,652 L 662,652 L 662,651 L 661,650 L 660,650 L 660,649 L 659,649 L 658,650 L 657,650 L 657,651 L 656,651 L 656,652 L 655,653 L 654,654 L 653,654 L 652,654 L 650,655 L 648,655 L 647,655 L 646,655 L 644,655 L 642,656 L 641,656 L 639,656 L 639,657 L 638,657 L 638,658 L 637,659 L 636,660 L 635,660 L 634,659 L 633,658 L 632,656 L 631,654 L 630,651 L 630,649 L 629,646 L 629,644 L 629,643 L 629,642 L 628,640 L 628,638 L 628,636 L 627,635 L 627,633 L 627,630 L 627,629 L 627,628 L 627,627 L 627,625 L 627,624 L 627,623 L 627,622 L 627,621 L 627,620 L 627,619 L 627,618 L 627,617 L 627,615 L 627,614 L 629,611 L 628,610 L 627,608 L 627,607 L 626,607 L 626,606 L 625,606 L 625,605 L 624,604 L 624,603 L 624,602 L 623,601 L 623,600 L 622,599 L 622,598 L 622,597 L 622,595 L 621,595 L 617,593 L 616,593 L 615,593 L 613,592 L 611,591 L 610,590 L 609,590 L 607,590 L 606,589 L 606,588 L 607,587 L 607,585 L 607,584 L 608,583 L 608,582 L 608,581 L 609,579 L 609,578 L 610,577 L 611,576 L 611,575 L 611,574 L 610,573 L 610,572 L 610,571 L 611,570 L 612,570 L 612,569 L 613,569 L 614,568 L 615,567 L 616,567 L 616,566 L 617,565 L 617,564 L 618,562 L 618,561 L 619,562 L 620,562 L 622,562 L 623,561 L 624,561 L 625,561 L 627,559 L 628,559 L 629,559 L 630,559 L 631,559 L 632,559 L 633,559 L 634,560 L 635,560 L 636,559 L 637,559 L 638,558 L 638,557 L 639,557 L 640,557 L 641,557 L 642,556 L 644,556 L 644,555 L 646,554 L 648,553 L 649,552 L 650,552 L 650,551 L 650,550 L 649,549 L 649,548 L 650,547 L 650,545 L 650,544 L 651,543 L 651,542 L 652,542 L 652,541 L 653,540 L 654,539 L 654,538 L 655,537 L 656,536 L 656,535 L 655,534 L 654,533 L 653,532 L 653,531 L 653,530 L 653,529 L 653,527 L 652,526 L 654,526 L 656,525 L 657,525 L 658,524 L 659,524 L 660,525 L 661,525 L 662,525 L 664,526 L 665,526 L 666,526 L 667,526 L 667,525 L 668,525 L 668,524 L 670,523 L 671,522 L 671,521 L 672,521 L 671,520 L 671,519 L 671,518 L 671,517 L 671,516 L 671,514 L 671,513 L 671,512 L 671,511 L 670,511 L 671,510 L 671,509 L 672,509 L 672,508 L 672,507 L 672,506 L 671,505 L 671,504 L 672,504 L 672,503 L 673,502 L 673,501 L 673,500 L 673,499 L 672,498 L 672,496 L 671,495 L 670,494 L 671,494 L 671,492 L 671,491 L 671,490 L 671,489 L 672,489 L 672,488 L 672,487 L 673,486 L 674,486 L 674,485 L 675,485 L 675,484 L 676,484 L 677,484 L 677,483 L 677,482 L 677,481 L 677,480 L 679,478 L 680,477 L 679,477 L 678,477 L 675,475 L 674,475 L 673,474 L 672,474 L 671,473 L 671,472 L 670,471 L 669,471 L 669,470 L 668,468 L 667,467 L 666,466 L 666,465 L 666,464 L 666,463 L 667,462 L 667,461 L 667,460 L 667,458 L 667,457 L 667,456 L 666,455 L 666,454 L 665,453 L 666,452 L 666,451 L 667,450 L 667,449 L 668,448 L 668,447 L 668,446 L 669,445 L 669,444 L 669,443 L 669,442 L 670,440 L 669,439 L 668,438 L 668,437 L 668,436 L 668,435 L 668,434 L 668,433 L 668,432 L 668,431 L 669,430 L 669,429 L 669,428 L 669,427 L 669,426 L 669,425 L 668,425 L 668,424 L 667,424 L 667,423 L 666,423 L 666,424 L 665,424 L 664,424 L 663,424 L 662,423 L 661,422 L 660,421 L 659,421 L 659,420 L 658,420 L 657,420 L 656,420 L 656,419 L 655,419 L 654,419 L 654,418 L 654,417 L 655,416 L 655,415 L 655,414 L 655,413 L 656,412 L 656,411 L 656,410 L 657,410 L 657,409 L 658,409 L 659,410 L 660,411 L 661,411 L 662,411 L 662,410 L 663,410 L 663,409 L 664,409 L 664,408 L 665,408 L 665,407 L 666,406 L 666,405 L 666,404 L 666,403 L 666,402 L 666,401 L 666,400 L 666,399 L 667,398 L 668,398 L 669,398 L 669,397 L 668,397 L 669,397 L 670,397 L 670,396 L 671,396 L 671,397 L 672,396 L 672,395 L 673,396 L 674,396 L 675,396 L 676,396 L 676,395 L 677,395 L 676,394 L 677,394 L 677,393 L 677,392 L 678,391 L 679,391 L 679,390 L 679,389 L 678,389 L 678,388 L 677,388 L 676,387 L 677,387 L 678,386 L 679,386 L 679,385 L 680,384 L 680,383 L 681,383 L 682,383 L 683,383 L 684,383 L 684,382 L 685,382 L 686,381 L 687,381 L 687,382 L 688,382 L 689,382 L 690,383 L 692,383 L 693,384 L 696,384 L 697,384 L 698,385 L 700,385 L 702,385 L 703,385 L 705,385 L 706,385 L 707,385 L 706,384 L 705,384 L 705,383 L 704,383 L 704,381 L 703,381 L 703,380 L 702,379 L 701,377 L 700,375 L 698,373 L 698,372 L 697,372 L 697,371 L 697,370 L 697,369 L 697,367 L 697,366 L 697,365 L 697,364 L 697,363 L 697,361 L 697,360 L 697,359 L 698,359 L 698,358 L 699,358 L 698,357 L 697,357 L 696,357 L 696,356 L 695,356 L 696,356 L 696,355 L 696,354 L 696,353 L 697,353 L 696,352 L 695,352 L 695,351 L 696,350 L 696,349 L 697,349 L 697,348 L 697,347 L 698,346 L 698,345 L 699,345 L 700,346 L 700,345 L 700,344 L 700,343 L 700,342 L 701,341 L 700,340 L 701,340 L 702,340 L 702,339 L 701,339 L 701,338 L 702,338 L 701,337 L 702,337 L 704,337 L 704,336 L 705,336 L 706,336 L 706,335 L 706,334 L 707,334 L 708,333 L 709,333 L 709,332 L 710,331 L 710,330 L 710,329 L 710,328 L 710,327 L 711,326 L 711,325 L 712,324 L 712,325 L 713,325 L 713,326 L 714,326 L 715,326 L 716,326 L 717,326 L 719,326 L 720,326 L 721,326 L 722,325 L 722,323 L 722,322 L 722,321 L 722,320 L 723,320 L 723,319 L 724,319 L 726,319 L 728,320 L 730,320 L 730,319 L 730,318 L 730,317 L 730,316 L 731,316 L 732,315 L 733,315 L 734,314 L 735,313 L 736,313 L 737,314 L 738,314 L 739,313 L 740,312 L 741,312 L 741,311 L 742,311 L 743,311 L 743,310 L 744,309 L 744,308 L 743,307 L 745,308 L 746,308 L 747,308 L 748,308 L 749,308 L 750,308 L 751,308 L 752,307 L 753,307 L 754,306 L 755,306 L 756,307 L 756,308 " />
</g>
</g>
</g>
<!-- QGIS extent for clipping, eg in Inkscape -->
<g id="qgisviewbox" inkscape:groupmode="layer" inkscape:label="qgisviewbox" stroke="rgb(255,0,0)" stroke-width="1" fill="none" >
<path d="M 0,882 L 1061,882 L 1061,0 L 0,0 L 0,882 " />
</g></svg>