<?xml version="1.0" standalone="no"?>
<!DOCTYPE svg PUBLIC "-//W3C//DTD SVG 1.1//EN" "http://www.w3.org/Graphics/SVG/1.1/DTD/svg11.dtd">
<svg xmlns="http://www.w3.org/2000/svg" xmlns:inkscape="http://www.inkscape.org/namespaces/inkscape" xmlns:xlink="http://www.w3.org/1999/xlink" viewBox = "0 0 1065 886" version = "1.1">
<!-- svg generated using QGIS www.qgis.org -->
<g id="kos" inkscape:groupmode="layer" inkscape:label="kos">
<g stroke="none" fill="rgb(66,198,121)" stroke-linejoin="round" stroke-width="0.26">
<g id="kos_1" >
<path d="M 402,398 L 402,399 L 403,399 L 402,399 L 401,399 L 401,398 L 402,398 " />
<path d="M 404,398 L 403,398 L 404,397 L 405,397 L 404,398 " />
<path d="M 382,373 L 381,373 L 382,373 " />
<path d="M 562,246 L 561,246 L 562,246 " />
<path d="M 654,238 L 654,239 L 655,239 L 655,240 L 656,240 L 657,240 L 658,240 L 659,240 L 660,240 L 660,241 L 661,241 L 661,242 L 662,242 L 662,243 L 663,243 L 663,244 L 664,244 L 664,245 L 665,245 L 666,245 L 666,246 L 667,246 L 668,246 L 669,246 L 670,246 L 671,246 L 672,246 L 673,246 L 674,246 L 674,247 L 675,247 L 676,247 L 677,247 L 678,247 L 679,247 L 680,247 L 681,247 L 682,247 L 683,247 L 684,247 L 684,246 L 685,246 L 686,245 L 687,245 L 687,244 L 688,244 L 688,243 L 689,243 L 689,242 L 690,242 L 691,241 L 692,241 L 692,240 L 693,240 L 693,241 L 694,242 L 694,243 L 695,243 L 695,244 L 696,245 L 697,246 L 697,247 L 698,248 L 699,249 L 699,250 L 700,250 L 700,251 L 701,252 L 701,253 L 702,253 L 702,254 L 702,255 L 703,256 L 703,257 L 704,257 L 704,258 L 704,259 L 704,260 L 704,261 L 705,262 L 705,263 L 705,264 L 706,265 L 706,266 L 706,267 L 706,268 L 706,269 L 706,270 L 707,271 L 707,272 L 708,272 L 708,273 L 708,274 L 707,274 L 706,274 L 705,274 L 704,274 L 704,275 L 703,275 L 703,276 L 702,276 L 701,276 L 701,277 L 700,277 L 699,278 L 698,278 L 698,279 L 697,279 L 697,280 L 696,281 L 695,281 L 694,281 L 694,282 L 693,282 L 692,283 L 691,283 L 691,284 L 690,284 L 689,285 L 688,285 L 688,286 L 687,286 L 686,286 L 686,287 L 685,287 L 684,287 L 684,288 L 683,288 L 682,289 L 681,289 L 680,289 L 679,289 L 678,289 L 678,290 L 677,290 L 676,290 L 675,290 L 674,290 L 673,290 L 672,291 L 671,291 L 671,292 L 670,292 L 669,292 L 668,293 L 667,293 L 667,294 L 666,294 L 665,294 L 665,295 L 664,295 L 663,295 L 662,295 L 661,295 L 660,295 L 659,296 L 658,296 L 657,296 L 656,296 L 655,296 L 654,296 L 653,296 L 652,297 L 651,297 L 650,298 L 649,299 L 648,300 L 647,300 L 646,300 L 646,301 L 645,301 L 644,301 L 644,302 L 643,302 L 642,302 L 642,303 L 641,303 L 640,303 L 640,304 L 639,304 L 638,304 L 637,304 L 636,304 L 636,305 L 635,305 L 634,305 L 633,305 L 633,306 L 632,306 L 631,306 L 630,306 L 629,306 L 628,306 L 627,306 L 626,306 L 625,306 L 624,306 L 623,307 L 622,307 L 621,307 L 620,307 L 620,308 L 619,308 L 618,308 L 617,308 L 617,309 L 616,308 L 616,309 L 615,309 L 614,309 L 613,309 L 612,309 L 612,310 L 611,310 L 610,310 L 609,310 L 608,310 L 607,311 L 606,311 L 605,311 L 604,312 L 603,312 L 603,313 L 602,313 L 602,314 L 601,313 L 600,313 L 599,313 L 598,314 L 597,314 L 596,314 L 595,315 L 594,316 L 593,316 L 592,316 L 591,316 L 590,317 L 589,317 L 588,317 L 588,318 L 587,318 L 587,319 L 586,320 L 585,320 L 584,320 L 583,320 L 582,320 L 581,320 L 580,320 L 580,321 L 579,321 L 578,322 L 577,322 L 577,323 L 576,323 L 575,324 L 574,324 L 573,325 L 572,325 L 572,326 L 571,326 L 570,326 L 570,327 L 569,327 L 568,328 L 568,327 L 567,327 L 567,328 L 566,328 L 565,328 L 564,328 L 563,328 L 562,329 L 561,329 L 561,330 L 560,330 L 559,330 L 559,331 L 558,331 L 557,331 L 556,332 L 555,332 L 555,333 L 554,333 L 553,333 L 553,334 L 552,334 L 552,335 L 551,335 L 550,335 L 550,336 L 549,337 L 548,338 L 547,339 L 547,340 L 546,341 L 546,342 L 545,342 L 545,343 L 545,344 L 544,344 L 544,345 L 543,345 L 543,346 L 542,347 L 541,348 L 541,349 L 540,349 L 540,350 L 539,350 L 539,351 L 539,352 L 539,353 L 538,353 L 538,354 L 537,355 L 536,356 L 536,357 L 535,357 L 535,358 L 534,358 L 534,359 L 533,359 L 533,360 L 533,361 L 532,361 L 532,362 L 531,362 L 531,363 L 530,364 L 529,365 L 529,366 L 528,366 L 527,367 L 527,368 L 526,368 L 526,369 L 525,369 L 525,370 L 524,370 L 523,371 L 523,372 L 522,372 L 522,373 L 521,373 L 521,374 L 520,374 L 519,375 L 519,376 L 518,376 L 518,377 L 517,377 L 517,378 L 516,378 L 515,379 L 514,379 L 514,380 L 513,380 L 513,381 L 512,381 L 511,382 L 510,383 L 509,383 L 509,384 L 508,384 L 508,385 L 507,385 L 507,386 L 507,387 L 506,387 L 505,387 L 504,387 L 503,387 L 502,387 L 501,388 L 500,388 L 499,388 L 498,388 L 498,389 L 497,388 L 496,388 L 495,388 L 494,388 L 493,387 L 492,387 L 491,387 L 490,387 L 490,386 L 489,386 L 488,386 L 488,385 L 487,385 L 486,385 L 485,385 L 485,384 L 484,384 L 483,384 L 482,384 L 481,383 L 480,383 L 479,383 L 478,383 L 477,382 L 476,382 L 475,382 L 475,381 L 474,381 L 473,381 L 472,381 L 471,380 L 470,380 L 469,380 L 468,380 L 467,380 L 466,380 L 466,379 L 465,379 L 464,379 L 463,378 L 462,378 L 461,378 L 460,378 L 459,378 L 458,378 L 457,378 L 456,378 L 455,378 L 454,378 L 453,378 L 452,378 L 451,378 L 450,378 L 449,378 L 448,378 L 447,378 L 446,378 L 446,379 L 445,379 L 444,379 L 443,379 L 442,379 L 441,379 L 440,379 L 439,379 L 438,380 L 437,380 L 436,380 L 435,380 L 434,380 L 433,380 L 433,381 L 432,381 L 431,381 L 430,381 L 429,381 L 429,382 L 428,382 L 427,382 L 426,382 L 426,383 L 425,383 L 424,383 L 423,384 L 422,384 L 422,385 L 421,385 L 420,385 L 420,386 L 419,386 L 418,387 L 417,387 L 417,388 L 417,389 L 416,389 L 416,390 L 417,390 L 417,391 L 418,391 L 418,392 L 418,391 L 417,391 L 416,391 L 415,391 L 414,391 L 413,391 L 412,391 L 411,392 L 411,393 L 410,393 L 410,392 L 409,392 L 408,393 L 407,393 L 407,394 L 406,394 L 405,394 L 404,394 L 404,395 L 403,395 L 403,396 L 402,396 L 401,396 L 400,396 L 399,396 L 399,397 L 398,397 L 397,397 L 396,397 L 396,398 L 395,398 L 395,399 L 394,399 L 394,400 L 393,400 L 392,401 L 391,401 L 391,402 L 390,403 L 390,404 L 389,404 L 389,405 L 389,406 L 388,406 L 388,407 L 388,408 L 388,409 L 387,409 L 387,410 L 387,411 L 387,412 L 388,412 L 388,413 L 389,413 L 389,412 L 390,412 L 389,413 L 389,414 L 389,415 L 389,416 L 390,416 L 391,416 L 391,417 L 392,417 L 393,418 L 394,418 L 394,419 L 395,419 L 395,420 L 396,420 L 396,421 L 396,422 L 397,422 L 397,423 L 397,424 L 398,424 L 398,425 L 398,426 L 398,427 L 398,428 L 399,428 L 399,429 L 399,428 L 399,429 L 399,430 L 399,431 L 398,432 L 399,432 L 399,433 L 399,434 L 399,435 L 399,436 L 398,436 L 398,435 L 397,435 L 396,435 L 395,435 L 395,436 L 394,436 L 394,437 L 393,437 L 392,437 L 392,438 L 391,438 L 390,439 L 390,438 L 390,439 L 389,439 L 389,440 L 389,441 L 388,441 L 388,442 L 387,443 L 387,444 L 386,444 L 386,445 L 385,445 L 385,446 L 386,446 L 386,447 L 386,448 L 386,449 L 386,450 L 385,450 L 386,450 L 386,451 L 386,452 L 386,453 L 386,454 L 386,455 L 386,456 L 386,457 L 385,457 L 385,458 L 385,459 L 386,459 L 386,460 L 386,461 L 387,461 L 387,462 L 387,463 L 387,464 L 387,465 L 387,466 L 386,466 L 386,467 L 386,468 L 386,469 L 386,470 L 387,470 L 387,471 L 388,471 L 388,472 L 388,473 L 389,474 L 389,475 L 390,475 L 390,476 L 391,477 L 392,478 L 392,479 L 392,480 L 391,480 L 390,480 L 389,480 L 389,481 L 388,481 L 388,480 L 387,480 L 387,479 L 386,479 L 385,479 L 384,479 L 383,478 L 382,478 L 382,477 L 381,477 L 381,476 L 380,476 L 380,475 L 379,475 L 379,476 L 378,476 L 377,476 L 377,477 L 376,477 L 376,476 L 375,476 L 375,475 L 375,474 L 376,474 L 376,473 L 375,473 L 375,472 L 374,471 L 373,470 L 372,470 L 372,469 L 371,469 L 371,468 L 370,468 L 370,467 L 369,467 L 368,467 L 367,467 L 366,467 L 365,467 L 365,466 L 364,466 L 364,465 L 364,464 L 364,463 L 363,463 L 363,462 L 362,462 L 362,461 L 362,460 L 361,460 L 361,459 L 361,458 L 360,458 L 360,457 L 360,456 L 359,456 L 359,455 L 358,454 L 357,453 L 356,452 L 355,452 L 355,451 L 354,451 L 354,450 L 353,450 L 353,449 L 352,449 L 351,449 L 351,448 L 350,448 L 349,448 L 349,447 L 349,446 L 349,445 L 348,445 L 348,444 L 347,444 L 347,443 L 347,442 L 347,441 L 347,440 L 347,439 L 347,438 L 347,437 L 346,437 L 346,436 L 345,435 L 344,435 L 344,434 L 344,433 L 343,434 L 343,433 L 343,432 L 343,431 L 343,430 L 343,429 L 344,428 L 344,427 L 345,426 L 345,425 L 345,424 L 345,423 L 345,422 L 345,421 L 345,420 L 346,420 L 346,419 L 346,418 L 346,417 L 346,416 L 347,416 L 346,416 L 346,415 L 346,414 L 346,413 L 347,413 L 347,412 L 347,411 L 347,410 L 347,409 L 348,409 L 348,408 L 347,408 L 347,407 L 346,407 L 346,406 L 346,405 L 345,405 L 345,404 L 345,403 L 344,403 L 344,402 L 343,402 L 343,401 L 342,401 L 342,400 L 343,399 L 343,398 L 344,398 L 344,397 L 345,397 L 345,396 L 345,395 L 345,394 L 345,393 L 346,393 L 346,392 L 346,391 L 346,390 L 346,389 L 346,388 L 346,387 L 346,386 L 345,386 L 345,385 L 346,385 L 347,385 L 347,386 L 348,386 L 348,387 L 349,387 L 350,387 L 350,386 L 351,386 L 351,385 L 351,384 L 352,384 L 351,383 L 352,383 L 352,382 L 352,383 L 353,383 L 353,382 L 353,381 L 354,381 L 355,381 L 356,381 L 357,381 L 358,381 L 358,382 L 359,382 L 360,382 L 360,383 L 361,382 L 362,382 L 362,381 L 363,381 L 364,381 L 364,380 L 365,380 L 365,379 L 366,379 L 367,379 L 367,380 L 368,380 L 368,379 L 369,379 L 369,378 L 370,378 L 370,377 L 371,377 L 371,376 L 372,376 L 373,376 L 374,376 L 374,375 L 375,375 L 375,374 L 376,374 L 376,373 L 377,373 L 378,373 L 378,374 L 378,373 L 379,373 L 380,373 L 380,374 L 381,374 L 382,374 L 383,375 L 384,375 L 384,374 L 385,374 L 386,374 L 387,374 L 388,374 L 389,374 L 390,375 L 391,375 L 392,375 L 392,374 L 393,374 L 393,375 L 394,375 L 395,375 L 396,375 L 396,376 L 397,376 L 398,376 L 399,376 L 400,376 L 400,377 L 401,377 L 402,378 L 403,378 L 404,377 L 405,377 L 405,376 L 406,376 L 407,376 L 407,375 L 408,375 L 408,374 L 409,374 L 409,373 L 410,373 L 410,372 L 410,371 L 411,371 L 411,370 L 412,370 L 412,369 L 412,368 L 413,368 L 413,367 L 414,367 L 414,366 L 415,365 L 415,364 L 416,364 L 416,363 L 416,362 L 417,362 L 417,361 L 418,360 L 418,359 L 419,358 L 420,357 L 420,356 L 421,355 L 421,354 L 422,354 L 422,353 L 423,352 L 423,351 L 424,351 L 424,350 L 425,350 L 425,349 L 426,349 L 426,348 L 426,347 L 426,346 L 427,346 L 427,345 L 428,344 L 429,343 L 429,342 L 430,342 L 430,341 L 430,340 L 431,339 L 431,338 L 432,337 L 432,336 L 433,336 L 433,335 L 433,334 L 433,333 L 434,333 L 434,332 L 435,332 L 436,332 L 437,332 L 437,331 L 437,330 L 438,330 L 438,329 L 439,329 L 439,328 L 440,327 L 441,327 L 442,327 L 443,327 L 443,326 L 444,326 L 445,325 L 445,324 L 446,324 L 446,323 L 447,322 L 447,321 L 448,320 L 448,319 L 449,319 L 449,318 L 450,318 L 450,317 L 450,316 L 451,316 L 451,315 L 451,314 L 452,314 L 453,313 L 454,313 L 454,312 L 454,311 L 454,310 L 455,310 L 455,309 L 456,309 L 456,308 L 457,308 L 457,307 L 458,307 L 458,306 L 459,306 L 459,305 L 459,304 L 460,304 L 461,303 L 461,302 L 462,302 L 462,301 L 463,301 L 464,301 L 465,301 L 466,301 L 466,300 L 467,299 L 468,298 L 468,297 L 469,297 L 469,296 L 470,295 L 470,294 L 471,294 L 471,293 L 471,292 L 472,292 L 472,291 L 473,291 L 474,291 L 475,291 L 475,290 L 476,290 L 477,290 L 477,289 L 478,289 L 478,288 L 478,289 L 479,288 L 480,288 L 480,287 L 481,287 L 482,287 L 483,287 L 484,287 L 485,287 L 486,286 L 487,286 L 488,286 L 489,286 L 490,285 L 491,285 L 492,285 L 492,284 L 493,284 L 494,284 L 495,283 L 496,283 L 497,282 L 498,282 L 498,281 L 499,281 L 500,281 L 500,280 L 501,280 L 501,279 L 502,279 L 503,279 L 503,278 L 504,278 L 505,278 L 505,277 L 506,277 L 507,276 L 508,276 L 508,275 L 509,274 L 510,273 L 511,272 L 512,272 L 512,271 L 513,271 L 514,270 L 515,270 L 515,269 L 516,269 L 517,268 L 518,267 L 519,266 L 520,266 L 520,265 L 521,265 L 522,264 L 523,264 L 523,263 L 524,263 L 524,262 L 525,261 L 526,260 L 527,259 L 528,259 L 528,258 L 529,258 L 529,257 L 530,257 L 531,257 L 531,256 L 532,256 L 533,256 L 533,255 L 534,255 L 535,255 L 535,254 L 536,254 L 537,254 L 538,253 L 539,252 L 540,252 L 541,252 L 541,251 L 542,251 L 543,251 L 543,250 L 544,250 L 545,249 L 546,249 L 547,248 L 548,248 L 549,248 L 549,247 L 550,247 L 551,247 L 552,246 L 553,246 L 554,246 L 555,246 L 556,246 L 557,246 L 558,246 L 559,246 L 560,246 L 561,246 L 562,246 L 563,246 L 563,247 L 564,247 L 565,247 L 566,247 L 566,246 L 567,246 L 568,246 L 569,246 L 570,246 L 571,246 L 572,246 L 573,246 L 574,246 L 575,246 L 576,246 L 577,245 L 578,245 L 579,245 L 580,245 L 581,245 L 582,245 L 583,244 L 584,244 L 585,244 L 586,244 L 587,244 L 588,244 L 589,244 L 590,244 L 591,243 L 592,243 L 593,243 L 594,242 L 595,242 L 596,242 L 596,241 L 597,241 L 598,241 L 599,241 L 600,241 L 601,241 L 602,241 L 603,241 L 604,240 L 605,240 L 605,239 L 606,239 L 607,239 L 607,238 L 608,238 L 609,238 L 610,237 L 611,237 L 612,236 L 613,235 L 614,235 L 615,234 L 616,234 L 616,233 L 617,233 L 618,233 L 618,232 L 619,232 L 620,231 L 621,231 L 621,230 L 622,230 L 623,229 L 624,229 L 624,228 L 625,228 L 625,227 L 626,227 L 626,226 L 627,226 L 627,225 L 628,225 L 629,224 L 630,224 L 630,223 L 631,223 L 632,222 L 633,221 L 634,221 L 635,221 L 635,220 L 636,220 L 636,219 L 637,219 L 638,219 L 638,218 L 639,217 L 640,216 L 641,216 L 642,215 L 643,216 L 644,216 L 644,217 L 644,218 L 645,218 L 645,219 L 645,220 L 645,221 L 645,222 L 645,223 L 646,223 L 646,224 L 646,225 L 646,226 L 646,227 L 647,227 L 647,228 L 647,229 L 647,230 L 647,231 L 647,232 L 647,233 L 648,233 L 648,234 L 649,234 L 649,235 L 650,235 L 650,234 L 650,235 L 649,235 L 649,236 L 648,236 L 648,237 L 648,238 L 649,238 L 650,238 L 651,238 L 651,237 L 650,236 L 650,235 L 651,235 L 651,234 L 651,235 L 652,235 L 652,236 L 652,237 L 653,237 L 653,238 L 654,238 " />
</g>
<g id="kos_2" >
<path d="M 566,463 L 566,464 L 567,464 L 568,465 L 568,466 L 568,467 L 567,467 L 567,468 L 566,468 L 565,468 L 564,468 L 564,467 L 563,466 L 563,465 L 563,464 L 564,463 L 565,463 L 566,463 " />
<path d="M 529,487 L 529,486 L 528,486 L 528,485 L 528,484 L 529,484 L 530,484 L 530,483 L 530,484 L 531,484 L 531,485 L 531,486 L 531,487 L 530,487 L 529,487 " />
<path d="M 473,590 L 472,590 L 472,589 L 471,589 L 470,589 L 470,588 L 470,587 L 471,587 L 471,586 L 472,586 L 472,585 L 473,585 L 473,584 L 474,584 L 474,583 L 475,583 L 475,582 L 476,582 L 476,581 L 477,581 L 478,581 L 479,581 L 480,581 L 481,581 L 482,581 L 483,581 L 483,582 L 484,581 L 484,582 L 485,582 L 486,581 L 487,581 L 487,582 L 488,582 L 487,582 L 487,583 L 488,583 L 488,584 L 487,584 L 487,585 L 486,585 L 486,586 L 485,586 L 485,587 L 484,587 L 484,588 L 483,588 L 482,588 L 481,588 L 480,588 L 479,588 L 479,589 L 478,589 L 477,589 L 476,589 L 476,590 L 475,590 L 474,590 L 473,590 " />
<path d="M 443,561 L 443,560 L 443,559 L 444,559 L 444,560 L 444,561 L 445,561 L 446,561 L 447,561 L 448,561 L 449,561 L 450,561 L 451,561 L 452,561 L 453,561 L 454,561 L 454,562 L 454,563 L 453,563 L 453,564 L 453,565 L 452,566 L 452,567 L 452,568 L 452,569 L 452,570 L 453,570 L 454,570 L 454,571 L 455,571 L 455,572 L 455,573 L 454,573 L 454,574 L 453,574 L 453,575 L 452,575 L 452,574 L 451,574 L 450,574 L 451,574 L 450,573 L 449,573 L 450,573 L 450,572 L 449,572 L 449,571 L 448,571 L 447,570 L 447,569 L 446,569 L 446,568 L 446,567 L 446,566 L 445,566 L 444,566 L 444,565 L 443,565 L 443,564 L 443,565 L 442,565 L 442,564 L 442,563 L 442,562 L 443,562 L 443,561 " />
<path d="M 396,653 L 397,653 L 398,653 L 399,653 L 400,653 L 400,652 L 401,652 L 402,652 L 403,652 L 403,651 L 404,651 L 404,652 L 405,652 L 405,653 L 404,653 L 404,654 L 404,655 L 403,655 L 403,656 L 402,656 L 402,657 L 401,657 L 401,658 L 400,658 L 400,659 L 399,660 L 399,661 L 398,661 L 397,661 L 396,662 L 396,663 L 395,663 L 394,664 L 393,664 L 392,664 L 391,664 L 390,664 L 389,664 L 388,664 L 387,664 L 386,664 L 386,663 L 387,663 L 387,662 L 387,661 L 388,661 L 388,660 L 388,659 L 389,659 L 390,659 L 390,658 L 391,657 L 391,656 L 391,655 L 392,655 L 392,654 L 393,654 L 393,653 L 394,654 L 395,654 L 395,653 L 396,653 " />
<path d="M 517,481 L 518,481 L 518,480 L 518,479 L 518,478 L 518,477 L 518,476 L 518,475 L 519,475 L 519,474 L 520,474 L 520,473 L 521,473 L 521,474 L 522,473 L 522,472 L 522,471 L 523,471 L 524,470 L 524,469 L 524,468 L 525,468 L 525,467 L 525,466 L 526,466 L 527,466 L 527,465 L 528,465 L 528,466 L 529,466 L 530,466 L 530,467 L 531,467 L 531,468 L 531,469 L 531,470 L 532,470 L 532,471 L 533,471 L 533,472 L 533,473 L 533,474 L 533,475 L 534,475 L 535,475 L 535,476 L 535,475 L 535,476 L 536,476 L 535,476 L 536,476 L 536,477 L 537,478 L 537,479 L 536,479 L 536,480 L 535,480 L 534,480 L 534,481 L 533,481 L 532,481 L 532,480 L 531,480 L 530,480 L 529,480 L 528,481 L 527,481 L 526,481 L 525,481 L 524,481 L 523,481 L 522,481 L 521,480 L 521,481 L 520,481 L 520,482 L 519,482 L 519,483 L 518,484 L 518,485 L 517,485 L 517,486 L 517,487 L 518,487 L 517,487 L 517,486 L 516,487 L 516,488 L 515,489 L 515,490 L 516,490 L 515,490 L 514,490 L 514,491 L 514,492 L 514,493 L 513,493 L 513,494 L 513,495 L 513,496 L 513,497 L 512,497 L 512,498 L 512,499 L 512,500 L 512,501 L 513,501 L 513,502 L 513,503 L 512,503 L 512,504 L 513,504 L 512,504 L 512,505 L 511,505 L 511,506 L 511,507 L 511,508 L 511,509 L 511,510 L 511,511 L 511,510 L 510,510 L 510,509 L 510,508 L 509,509 L 509,508 L 509,507 L 510,506 L 510,505 L 511,505 L 510,504 L 510,503 L 509,503 L 509,502 L 508,501 L 507,501 L 507,500 L 506,500 L 506,499 L 505,498 L 504,498 L 504,497 L 503,497 L 503,496 L 503,495 L 503,494 L 502,493 L 503,493 L 503,492 L 502,492 L 503,492 L 503,491 L 502,491 L 503,491 L 503,490 L 503,489 L 503,488 L 502,488 L 502,487 L 503,487 L 503,486 L 502,486 L 503,485 L 502,485 L 502,484 L 503,484 L 503,483 L 504,482 L 505,482 L 506,482 L 506,483 L 507,483 L 508,483 L 508,484 L 509,484 L 509,483 L 510,483 L 510,484 L 511,484 L 512,484 L 512,483 L 513,483 L 514,483 L 515,483 L 515,482 L 516,482 L 517,481 " />
<path d="M 560,530 L 560,531 L 561,531 L 561,530 L 562,530 L 562,531 L 563,531 L 564,531 L 565,531 L 566,531 L 567,531 L 568,531 L 568,530 L 569,530 L 570,530 L 570,529 L 571,529 L 572,529 L 573,529 L 574,529 L 575,529 L 576,530 L 576,531 L 577,531 L 577,532 L 578,533 L 578,534 L 578,535 L 579,535 L 579,536 L 580,536 L 580,537 L 581,537 L 581,538 L 581,539 L 582,539 L 582,540 L 583,540 L 583,541 L 584,541 L 584,542 L 585,542 L 585,543 L 585,544 L 586,545 L 586,546 L 586,547 L 587,548 L 587,549 L 588,549 L 588,550 L 588,551 L 588,552 L 589,552 L 590,553 L 590,554 L 590,555 L 591,555 L 591,556 L 592,556 L 592,557 L 592,558 L 592,559 L 592,560 L 593,560 L 593,561 L 594,561 L 595,561 L 595,562 L 596,562 L 597,562 L 597,563 L 598,563 L 598,564 L 598,565 L 598,566 L 598,567 L 598,568 L 598,569 L 597,569 L 597,570 L 597,571 L 597,572 L 596,573 L 595,574 L 595,575 L 594,575 L 594,576 L 593,576 L 593,577 L 593,578 L 593,579 L 592,579 L 592,580 L 592,581 L 591,581 L 591,582 L 590,583 L 589,583 L 589,584 L 588,584 L 588,585 L 587,585 L 587,584 L 587,585 L 586,585 L 586,584 L 585,585 L 585,586 L 585,587 L 584,588 L 584,589 L 583,589 L 583,590 L 583,591 L 582,592 L 582,593 L 582,594 L 581,594 L 581,595 L 580,595 L 579,595 L 578,595 L 578,594 L 577,594 L 577,593 L 576,593 L 575,593 L 574,593 L 573,593 L 573,592 L 572,592 L 571,592 L 570,592 L 570,593 L 569,593 L 569,594 L 568,594 L 567,594 L 567,595 L 567,594 L 566,594 L 565,594 L 564,594 L 564,595 L 563,595 L 562,595 L 562,594 L 561,594 L 561,593 L 560,594 L 559,594 L 559,595 L 558,595 L 558,594 L 557,594 L 557,593 L 556,593 L 556,592 L 555,592 L 554,592 L 554,593 L 553,593 L 553,592 L 552,592 L 552,591 L 551,591 L 550,591 L 550,592 L 550,591 L 549,591 L 548,591 L 547,591 L 547,592 L 546,591 L 546,590 L 545,590 L 545,589 L 544,589 L 544,588 L 543,588 L 542,588 L 541,588 L 541,587 L 540,587 L 539,587 L 539,588 L 538,588 L 537,588 L 537,589 L 536,589 L 536,590 L 535,590 L 534,590 L 533,590 L 532,590 L 531,590 L 531,589 L 531,588 L 530,588 L 530,587 L 530,586 L 531,586 L 531,585 L 531,584 L 531,583 L 532,583 L 532,582 L 532,581 L 531,581 L 531,580 L 530,580 L 530,581 L 529,581 L 528,581 L 528,582 L 527,582 L 526,582 L 525,582 L 524,582 L 523,582 L 522,582 L 522,581 L 521,581 L 521,580 L 521,579 L 522,579 L 522,578 L 523,578 L 524,577 L 525,577 L 526,577 L 526,576 L 526,575 L 526,574 L 525,574 L 525,573 L 524,573 L 524,572 L 524,571 L 525,571 L 525,570 L 526,570 L 526,569 L 525,569 L 525,568 L 526,568 L 526,567 L 526,566 L 526,565 L 527,565 L 526,565 L 526,564 L 526,563 L 526,562 L 526,561 L 526,560 L 526,559 L 525,559 L 525,558 L 524,558 L 524,557 L 524,556 L 524,555 L 523,555 L 523,554 L 523,553 L 523,552 L 524,552 L 524,551 L 524,550 L 524,549 L 524,548 L 524,547 L 524,546 L 524,545 L 524,544 L 524,543 L 525,543 L 526,543 L 526,542 L 526,541 L 526,540 L 527,540 L 528,539 L 528,538 L 529,538 L 530,538 L 531,538 L 531,537 L 532,537 L 533,537 L 533,536 L 534,536 L 534,537 L 533,537 L 534,537 L 535,537 L 535,538 L 536,538 L 536,537 L 537,537 L 538,537 L 539,537 L 539,538 L 540,538 L 541,538 L 542,538 L 543,538 L 544,538 L 545,538 L 546,538 L 547,538 L 548,537 L 549,537 L 549,536 L 550,536 L 551,535 L 552,535 L 552,534 L 553,534 L 554,534 L 554,533 L 554,532 L 554,533 L 555,532 L 556,532 L 557,532 L 557,531 L 557,530 L 558,530 L 558,529 L 559,529 L 560,529 L 560,530 L 561,530 L 560,530 " />
</g>
</g>
</g>
<!-- QGIS extent for clipping, eg in Inkscape -->
<g id="qgisviewbox" inkscape:groupmode="layer" inkscape:label="qgisviewbox" stroke="rgb(255,0,0)" stroke-width="1" fill="none" >
<path d="M 0,882 L 1061,882 L 1061,0 L 0,0 L 0,882 " />
</g></svg>