<?xml version="1.0" standalone="no"?>
<!DOCTYPE svg PUBLIC "-//W3C//DTD SVG 1.1//EN" "http://www.w3.org/Graphics/SVG/1.1/DTD/svg11.dtd">
<svg xmlns="http://www.w3.org/2000/svg" xmlns:inkscape="http://www.inkscape.org/namespaces/inkscape" xmlns:xlink="http://www.w3.org/1999/xlink" viewBox = "0 0 1065 886" version = "1.1">
<!-- svg generated using QGIS www.qgis.org -->
<g id="lakonia" inkscape:groupmode="layer" inkscape:label="lakonia">
<g stroke="none" fill="rgb(64,198,109)" stroke-linejoin="round" stroke-width="0.26">
<g id="lakonia_1" >
<path d="M 382,414 L 384,414 L 385,415 L 386,415 L 386,416 L 386,417 L 387,418 L 388,418 L 389,418 L 390,418 L 392,419 L 394,419 L 395,420 L 396,420 L 397,420 L 398,421 L 399,421 L 400,421 L 400,422 L 401,422 L 401,423 L 402,423 L 402,424 L 403,425 L 403,426 L 404,427 L 404,428 L 404,430 L 405,431 L 405,432 L 405,431 L 406,431 L 406,430 L 407,430 L 408,430 L 409,430 L 410,431 L 411,431 L 411,432 L 412,432 L 413,433 L 414,433 L 416,433 L 417,434 L 418,434 L 421,434 L 423,434 L 424,434 L 427,435 L 427,436 L 429,437 L 430,437 L 430,438 L 432,438 L 433,438 L 435,439 L 435,440 L 436,440 L 436,442 L 437,444 L 438,445 L 438,446 L 439,446 L 439,447 L 440,448 L 441,450 L 443,452 L 443,453 L 445,456 L 447,459 L 447,460 L 448,461 L 448,462 L 448,463 L 448,464 L 448,465 L 448,468 L 448,470 L 448,472 L 448,473 L 449,473 L 450,474 L 451,475 L 453,475 L 454,476 L 455,476 L 455,477 L 455,478 L 456,478 L 456,479 L 455,479 L 455,480 L 454,480 L 454,481 L 454,482 L 453,482 L 452,483 L 451,484 L 451,485 L 451,486 L 450,486 L 449,486 L 449,487 L 450,487 L 450,488 L 449,488 L 449,489 L 450,489 L 451,489 L 452,488 L 453,488 L 453,489 L 453,490 L 454,490 L 454,491 L 455,492 L 454,493 L 454,494 L 454,495 L 455,495 L 456,495 L 457,494 L 459,494 L 460,494 L 462,494 L 463,494 L 464,494 L 464,495 L 465,495 L 465,496 L 466,498 L 467,499 L 467,500 L 468,500 L 469,501 L 468,501 L 469,502 L 468,502 L 468,503 L 467,503 L 466,503 L 466,504 L 465,504 L 464,505 L 463,505 L 462,506 L 461,506 L 461,507 L 460,507 L 460,508 L 459,508 L 458,509 L 458,510 L 457,511 L 457,512 L 457,513 L 457,514 L 456,514 L 456,515 L 457,515 L 457,516 L 457,517 L 457,518 L 458,518 L 459,518 L 459,519 L 459,520 L 459,521 L 459,523 L 460,524 L 461,524 L 461,525 L 461,526 L 461,527 L 461,528 L 462,528 L 462,527 L 463,527 L 463,526 L 464,526 L 465,526 L 465,527 L 464,527 L 464,528 L 463,528 L 462,528 L 461,528 L 461,529 L 461,530 L 462,530 L 462,531 L 462,532 L 462,533 L 461,534 L 461,535 L 461,536 L 461,537 L 461,538 L 461,539 L 462,539 L 462,540 L 463,540 L 463,541 L 463,542 L 464,542 L 464,543 L 465,543 L 465,544 L 465,545 L 465,546 L 464,546 L 463,545 L 462,545 L 462,546 L 461,546 L 460,546 L 459,546 L 458,547 L 457,547 L 456,547 L 455,547 L 455,548 L 454,548 L 453,548 L 452,549 L 451,549 L 450,549 L 450,550 L 449,550 L 448,550 L 447,550 L 447,551 L 446,551 L 445,551 L 445,552 L 444,552 L 443,552 L 443,553 L 442,553 L 441,554 L 440,554 L 439,555 L 438,555 L 438,556 L 437,556 L 436,556 L 436,557 L 435,557 L 435,558 L 436,558 L 436,559 L 436,560 L 435,560 L 435,561 L 434,561 L 433,561 L 432,562 L 431,563 L 430,563 L 430,564 L 429,564 L 429,565 L 428,566 L 428,567 L 427,567 L 427,568 L 427,569 L 427,570 L 427,571 L 427,572 L 428,572 L 428,573 L 429,573 L 429,574 L 430,574 L 430,575 L 431,575 L 432,575 L 432,574 L 433,575 L 433,576 L 433,577 L 432,577 L 432,578 L 431,578 L 431,579 L 430,579 L 430,580 L 429,580 L 429,581 L 428,581 L 427,581 L 426,581 L 426,582 L 426,583 L 426,584 L 426,585 L 426,586 L 426,587 L 426,588 L 426,589 L 427,589 L 427,590 L 427,591 L 428,591 L 428,592 L 428,593 L 429,593 L 430,593 L 431,593 L 431,592 L 432,592 L 433,592 L 434,592 L 435,592 L 436,591 L 437,592 L 438,592 L 439,592 L 439,593 L 439,594 L 439,595 L 438,595 L 438,596 L 439,596 L 440,596 L 441,596 L 442,596 L 443,597 L 444,597 L 445,597 L 445,598 L 445,599 L 445,600 L 445,601 L 445,602 L 444,602 L 444,603 L 443,603 L 443,604 L 443,605 L 444,605 L 443,606 L 442,605 L 441,605 L 442,606 L 443,606 L 444,606 L 443,607 L 443,608 L 444,608 L 444,609 L 444,610 L 443,610 L 444,610 L 445,610 L 446,610 L 446,609 L 447,610 L 447,611 L 447,612 L 447,613 L 447,614 L 447,615 L 447,616 L 446,616 L 446,617 L 445,617 L 444,617 L 443,617 L 442,618 L 441,618 L 440,618 L 439,618 L 438,618 L 438,617 L 438,616 L 437,616 L 437,615 L 437,614 L 437,613 L 436,613 L 436,612 L 437,612 L 438,612 L 437,611 L 436,611 L 435,611 L 434,611 L 434,610 L 435,610 L 435,609 L 436,609 L 436,610 L 436,609 L 435,608 L 435,607 L 435,606 L 434,605 L 433,605 L 433,604 L 432,604 L 431,603 L 430,603 L 429,603 L 428,603 L 427,603 L 426,603 L 426,602 L 425,602 L 424,601 L 423,601 L 423,600 L 422,600 L 421,600 L 420,600 L 419,600 L 419,601 L 418,601 L 417,601 L 416,601 L 416,602 L 415,602 L 415,603 L 414,603 L 414,604 L 413,604 L 413,605 L 412,605 L 412,606 L 411,606 L 411,607 L 411,608 L 412,608 L 412,609 L 411,609 L 412,609 L 412,610 L 411,611 L 412,612 L 412,613 L 413,613 L 413,614 L 414,615 L 415,616 L 416,616 L 416,617 L 416,618 L 417,619 L 417,620 L 418,621 L 419,622 L 419,623 L 420,623 L 420,624 L 420,625 L 421,625 L 421,626 L 421,627 L 421,628 L 422,628 L 422,629 L 423,629 L 423,630 L 424,630 L 424,631 L 425,631 L 426,631 L 426,632 L 427,632 L 428,633 L 428,634 L 429,634 L 429,635 L 429,636 L 428,636 L 429,637 L 429,638 L 430,638 L 430,639 L 430,640 L 430,641 L 431,641 L 431,642 L 431,643 L 431,644 L 431,645 L 430,645 L 429,645 L 429,646 L 428,646 L 428,647 L 427,647 L 427,648 L 426,649 L 425,649 L 426,649 L 426,650 L 427,650 L 426,651 L 426,652 L 425,652 L 424,652 L 424,653 L 423,653 L 423,654 L 422,654 L 421,654 L 421,655 L 420,655 L 420,656 L 419,656 L 418,656 L 417,656 L 416,656 L 416,655 L 415,655 L 415,654 L 414,654 L 414,653 L 414,652 L 413,652 L 413,651 L 413,650 L 413,649 L 413,648 L 413,647 L 412,647 L 413,647 L 413,646 L 413,645 L 413,644 L 412,644 L 411,643 L 411,644 L 410,644 L 410,643 L 409,643 L 409,642 L 408,642 L 407,642 L 407,643 L 406,643 L 405,643 L 404,643 L 404,644 L 403,644 L 402,644 L 403,644 L 403,645 L 403,646 L 403,647 L 403,646 L 402,646 L 402,645 L 402,644 L 401,644 L 401,643 L 401,644 L 400,644 L 400,645 L 400,644 L 399,644 L 399,643 L 398,643 L 397,643 L 397,644 L 396,644 L 395,645 L 395,646 L 395,647 L 394,647 L 394,648 L 394,649 L 395,649 L 395,650 L 394,650 L 394,651 L 394,652 L 394,653 L 395,654 L 395,655 L 395,656 L 394,656 L 394,657 L 394,658 L 393,658 L 393,659 L 393,660 L 392,660 L 392,661 L 392,662 L 392,663 L 392,664 L 392,665 L 391,665 L 392,665 L 392,666 L 391,666 L 391,667 L 392,667 L 392,668 L 393,668 L 394,668 L 394,669 L 394,670 L 393,670 L 394,671 L 394,672 L 394,673 L 395,674 L 395,675 L 395,676 L 394,676 L 394,677 L 394,678 L 394,679 L 394,680 L 395,681 L 395,682 L 395,683 L 396,683 L 396,684 L 396,685 L 396,686 L 395,686 L 394,686 L 394,687 L 395,687 L 396,687 L 397,687 L 397,688 L 397,689 L 397,690 L 397,691 L 397,692 L 397,693 L 398,694 L 398,695 L 398,696 L 398,697 L 398,698 L 397,698 L 397,699 L 397,700 L 396,700 L 396,701 L 396,702 L 396,703 L 395,703 L 396,703 L 396,704 L 396,705 L 395,705 L 395,706 L 394,706 L 394,707 L 394,708 L 394,709 L 394,710 L 394,711 L 393,712 L 393,713 L 392,713 L 392,714 L 392,715 L 391,715 L 391,716 L 391,717 L 390,717 L 391,717 L 391,718 L 391,719 L 391,720 L 391,721 L 392,721 L 393,721 L 393,722 L 394,722 L 394,723 L 394,724 L 394,725 L 394,726 L 394,727 L 395,727 L 395,728 L 395,729 L 396,729 L 396,730 L 397,731 L 397,732 L 398,732 L 399,732 L 399,733 L 399,734 L 398,734 L 399,734 L 400,734 L 401,734 L 402,734 L 402,735 L 402,736 L 403,736 L 403,737 L 403,738 L 402,738 L 402,739 L 401,739 L 401,740 L 400,740 L 401,740 L 401,741 L 402,742 L 403,742 L 403,743 L 404,744 L 404,743 L 405,744 L 405,745 L 405,746 L 405,747 L 406,747 L 407,747 L 407,746 L 408,746 L 409,747 L 410,747 L 410,748 L 411,748 L 411,749 L 411,750 L 411,751 L 411,752 L 412,752 L 412,753 L 412,754 L 411,754 L 411,755 L 412,755 L 412,756 L 412,757 L 411,757 L 411,758 L 411,759 L 412,759 L 412,760 L 412,761 L 412,762 L 412,763 L 412,764 L 412,765 L 411,766 L 411,767 L 412,767 L 412,768 L 412,769 L 412,770 L 412,771 L 411,771 L 411,772 L 411,773 L 410,773 L 410,774 L 411,774 L 411,775 L 411,776 L 411,777 L 411,778 L 411,779 L 410,779 L 409,779 L 408,779 L 407,779 L 406,779 L 406,778 L 405,778 L 405,779 L 405,780 L 406,780 L 406,781 L 407,781 L 407,782 L 408,782 L 408,781 L 408,782 L 409,782 L 409,783 L 409,784 L 408,784 L 408,785 L 407,785 L 407,786 L 408,786 L 409,786 L 409,785 L 409,786 L 410,786 L 410,787 L 410,788 L 411,788 L 411,789 L 410,789 L 410,790 L 410,791 L 410,792 L 410,793 L 409,794 L 409,795 L 409,796 L 408,796 L 407,797 L 406,797 L 406,798 L 405,798 L 405,799 L 405,798 L 404,798 L 403,799 L 402,799 L 402,798 L 402,797 L 402,796 L 402,797 L 401,797 L 401,798 L 400,798 L 399,799 L 398,799 L 398,800 L 397,800 L 397,801 L 396,801 L 396,802 L 397,802 L 397,803 L 398,804 L 398,805 L 399,805 L 400,805 L 400,804 L 401,804 L 401,803 L 402,803 L 402,804 L 402,805 L 402,806 L 402,807 L 403,807 L 404,807 L 405,807 L 405,808 L 406,808 L 406,809 L 406,810 L 406,811 L 406,812 L 406,813 L 405,814 L 406,814 L 405,814 L 405,815 L 405,816 L 404,816 L 405,817 L 405,818 L 405,819 L 406,819 L 406,820 L 406,821 L 406,822 L 405,822 L 405,821 L 404,821 L 404,820 L 403,820 L 403,819 L 403,818 L 402,818 L 402,819 L 401,818 L 401,819 L 402,819 L 402,820 L 403,821 L 403,822 L 403,823 L 404,823 L 404,824 L 403,824 L 403,825 L 404,825 L 404,826 L 405,826 L 405,827 L 406,827 L 407,827 L 408,827 L 409,827 L 409,828 L 409,829 L 408,829 L 408,830 L 407,830 L 406,831 L 406,830 L 405,830 L 404,830 L 404,829 L 403,829 L 403,830 L 403,831 L 402,831 L 401,831 L 401,830 L 401,829 L 400,829 L 400,828 L 400,829 L 399,829 L 399,828 L 398,828 L 398,829 L 399,829 L 399,830 L 398,830 L 398,831 L 399,831 L 399,832 L 399,833 L 400,833 L 400,834 L 400,835 L 400,836 L 399,836 L 399,837 L 398,837 L 398,838 L 397,838 L 397,839 L 397,840 L 397,841 L 397,842 L 396,842 L 396,841 L 396,840 L 396,839 L 395,839 L 395,838 L 395,837 L 395,836 L 395,835 L 395,834 L 395,833 L 395,832 L 394,832 L 394,831 L 393,831 L 393,830 L 392,830 L 392,829 L 392,828 L 391,828 L 390,828 L 390,827 L 389,827 L 388,827 L 388,826 L 387,826 L 387,825 L 387,824 L 387,823 L 388,823 L 387,822 L 387,821 L 387,820 L 386,820 L 386,819 L 386,818 L 386,817 L 387,817 L 387,816 L 388,816 L 388,815 L 387,814 L 387,813 L 387,812 L 387,811 L 387,810 L 387,809 L 387,808 L 388,808 L 388,809 L 389,809 L 390,809 L 390,810 L 391,810 L 391,809 L 391,808 L 392,808 L 392,807 L 392,806 L 392,805 L 391,805 L 392,805 L 392,804 L 392,803 L 391,803 L 390,803 L 389,803 L 388,803 L 387,803 L 387,802 L 386,802 L 385,802 L 385,801 L 384,801 L 384,800 L 383,800 L 383,799 L 382,799 L 382,798 L 382,797 L 381,797 L 381,796 L 381,795 L 381,794 L 380,794 L 379,794 L 379,795 L 379,794 L 379,793 L 379,792 L 380,792 L 380,791 L 380,790 L 380,789 L 381,789 L 381,788 L 380,788 L 380,787 L 380,786 L 380,785 L 379,785 L 379,784 L 378,784 L 377,784 L 377,783 L 376,783 L 375,783 L 375,784 L 375,783 L 374,783 L 375,783 L 374,783 L 374,782 L 373,782 L 372,782 L 372,781 L 371,781 L 371,780 L 371,779 L 371,778 L 370,778 L 370,779 L 369,779 L 369,778 L 368,778 L 368,779 L 367,779 L 367,780 L 366,780 L 366,779 L 365,779 L 365,778 L 365,777 L 364,777 L 364,776 L 363,777 L 363,778 L 362,778 L 362,777 L 361,777 L 360,777 L 360,776 L 359,776 L 359,775 L 358,775 L 357,775 L 356,775 L 355,775 L 354,775 L 354,774 L 353,774 L 353,773 L 352,773 L 352,772 L 351,772 L 351,771 L 350,771 L 350,770 L 350,769 L 349,769 L 349,768 L 349,767 L 348,767 L 349,767 L 349,766 L 350,766 L 350,765 L 349,765 L 349,766 L 348,766 L 347,766 L 347,765 L 346,765 L 346,764 L 345,764 L 344,764 L 343,764 L 343,763 L 343,762 L 342,762 L 341,762 L 341,761 L 341,760 L 341,759 L 340,759 L 340,760 L 339,760 L 339,761 L 339,762 L 338,762 L 338,763 L 338,764 L 337,765 L 337,766 L 337,767 L 337,768 L 337,769 L 337,770 L 336,770 L 336,771 L 336,772 L 335,772 L 334,772 L 334,771 L 333,771 L 333,770 L 334,770 L 334,769 L 334,768 L 333,768 L 333,769 L 332,769 L 332,768 L 331,768 L 330,767 L 329,767 L 328,767 L 328,766 L 328,765 L 327,765 L 327,766 L 326,766 L 326,765 L 326,764 L 325,764 L 325,765 L 325,766 L 324,766 L 324,765 L 324,764 L 323,764 L 323,763 L 322,763 L 322,762 L 321,762 L 321,763 L 321,762 L 320,762 L 320,763 L 319,763 L 319,762 L 318,762 L 318,761 L 318,760 L 317,760 L 317,759 L 316,759 L 316,758 L 316,757 L 316,756 L 316,755 L 315,755 L 315,754 L 314,754 L 314,753 L 314,752 L 314,751 L 314,750 L 313,750 L 312,750 L 312,749 L 312,748 L 311,748 L 311,747 L 310,746 L 310,745 L 309,744 L 310,744 L 309,744 L 309,743 L 308,743 L 308,742 L 308,741 L 308,740 L 307,740 L 307,739 L 307,738 L 307,737 L 306,737 L 306,736 L 305,736 L 305,735 L 305,734 L 305,733 L 305,732 L 304,732 L 304,731 L 304,730 L 304,729 L 304,728 L 304,727 L 304,726 L 304,725 L 304,724 L 304,723 L 304,722 L 304,721 L 304,720 L 304,719 L 305,719 L 306,719 L 306,720 L 307,720 L 307,721 L 308,721 L 308,722 L 309,722 L 310,722 L 311,721 L 311,720 L 312,720 L 312,719 L 313,719 L 313,718 L 314,718 L 315,717 L 315,716 L 316,716 L 316,715 L 316,714 L 317,714 L 318,714 L 318,713 L 318,712 L 318,711 L 318,710 L 318,709 L 318,708 L 318,707 L 317,707 L 317,706 L 317,705 L 316,705 L 316,704 L 316,703 L 317,703 L 317,702 L 317,703 L 318,703 L 318,704 L 318,705 L 319,705 L 319,706 L 319,707 L 320,707 L 320,708 L 321,709 L 321,710 L 321,711 L 322,711 L 322,712 L 323,713 L 324,713 L 325,713 L 325,712 L 326,712 L 327,712 L 327,711 L 328,711 L 329,711 L 330,711 L 330,710 L 331,710 L 332,710 L 332,709 L 333,709 L 333,708 L 334,708 L 335,708 L 335,707 L 334,707 L 334,706 L 335,706 L 334,706 L 333,706 L 333,705 L 332,705 L 333,705 L 332,705 L 332,704 L 331,704 L 330,704 L 330,703 L 329,703 L 329,702 L 329,701 L 330,701 L 330,700 L 330,699 L 329,699 L 329,698 L 329,697 L 329,696 L 328,696 L 329,695 L 329,694 L 329,693 L 330,693 L 331,693 L 331,692 L 332,692 L 332,691 L 331,691 L 331,690 L 330,690 L 330,689 L 329,689 L 329,688 L 329,687 L 328,687 L 328,686 L 328,685 L 328,684 L 328,683 L 329,683 L 330,683 L 331,683 L 332,683 L 332,682 L 332,681 L 332,680 L 332,679 L 332,678 L 331,678 L 330,678 L 329,678 L 328,678 L 328,677 L 327,677 L 326,677 L 325,677 L 324,677 L 323,677 L 322,677 L 322,676 L 322,675 L 323,674 L 323,673 L 323,672 L 323,671 L 323,670 L 323,669 L 323,668 L 324,668 L 325,668 L 325,667 L 326,667 L 326,666 L 327,666 L 328,666 L 329,667 L 330,667 L 331,667 L 331,666 L 332,666 L 332,665 L 333,665 L 332,665 L 332,664 L 333,664 L 332,664 L 332,663 L 331,663 L 331,662 L 331,661 L 331,660 L 330,660 L 330,659 L 329,659 L 328,659 L 327,659 L 327,658 L 326,658 L 325,658 L 325,657 L 324,657 L 324,658 L 324,657 L 323,657 L 322,657 L 322,658 L 321,657 L 320,657 L 319,657 L 318,657 L 317,657 L 317,656 L 317,655 L 317,654 L 317,653 L 317,652 L 317,651 L 317,650 L 317,649 L 317,648 L 318,648 L 319,648 L 319,647 L 320,647 L 321,647 L 322,647 L 323,647 L 324,646 L 325,645 L 325,644 L 326,644 L 326,643 L 326,642 L 325,641 L 324,641 L 323,641 L 322,641 L 321,641 L 321,640 L 320,640 L 320,639 L 319,639 L 319,638 L 319,637 L 319,636 L 319,635 L 319,634 L 319,633 L 319,632 L 318,632 L 318,631 L 318,630 L 318,629 L 318,628 L 318,627 L 318,626 L 318,625 L 317,625 L 317,624 L 317,623 L 318,623 L 319,623 L 320,624 L 321,624 L 322,624 L 323,624 L 324,624 L 325,624 L 326,624 L 327,624 L 328,624 L 329,624 L 330,624 L 330,623 L 331,622 L 331,621 L 331,620 L 330,620 L 331,619 L 331,618 L 330,618 L 330,617 L 329,617 L 328,617 L 327,617 L 326,617 L 325,617 L 325,616 L 324,616 L 323,616 L 323,615 L 322,615 L 322,614 L 321,614 L 320,613 L 320,612 L 319,612 L 319,611 L 318,610 L 318,609 L 318,608 L 319,608 L 319,607 L 319,606 L 318,606 L 318,605 L 317,605 L 317,604 L 317,603 L 316,603 L 316,602 L 316,601 L 317,601 L 317,600 L 316,600 L 316,599 L 316,598 L 317,598 L 317,597 L 317,596 L 317,595 L 318,595 L 318,594 L 318,593 L 318,592 L 319,592 L 319,591 L 319,590 L 320,590 L 320,589 L 321,589 L 322,589 L 323,589 L 323,588 L 324,588 L 325,588 L 325,589 L 326,589 L 327,589 L 328,589 L 328,588 L 328,587 L 328,586 L 328,585 L 329,585 L 329,584 L 330,584 L 330,583 L 331,583 L 331,582 L 332,582 L 333,582 L 334,582 L 335,582 L 335,581 L 336,581 L 336,580 L 336,579 L 336,578 L 335,577 L 335,576 L 334,576 L 333,576 L 333,575 L 332,575 L 332,574 L 331,574 L 330,574 L 330,575 L 329,575 L 328,575 L 328,576 L 327,576 L 326,576 L 325,576 L 325,577 L 324,577 L 323,577 L 323,578 L 322,578 L 321,578 L 320,578 L 319,578 L 318,578 L 317,578 L 316,578 L 316,577 L 315,577 L 314,577 L 313,577 L 312,577 L 312,576 L 311,576 L 311,575 L 310,575 L 309,575 L 309,574 L 309,573 L 308,573 L 308,572 L 307,572 L 307,571 L 307,570 L 307,569 L 307,568 L 307,567 L 308,567 L 307,566 L 307,565 L 308,565 L 308,564 L 307,564 L 307,563 L 306,563 L 305,563 L 305,562 L 304,562 L 303,562 L 303,563 L 302,563 L 302,562 L 301,562 L 301,561 L 302,560 L 301,560 L 301,559 L 301,558 L 301,557 L 301,556 L 300,556 L 300,555 L 300,554 L 299,554 L 299,553 L 299,552 L 300,552 L 299,552 L 299,551 L 298,551 L 298,550 L 298,549 L 298,548 L 298,547 L 298,546 L 298,545 L 299,545 L 298,545 L 297,544 L 298,544 L 297,544 L 297,543 L 297,542 L 297,541 L 298,541 L 297,540 L 297,539 L 296,539 L 297,539 L 298,538 L 299,538 L 301,537 L 302,537 L 303,536 L 304,536 L 305,536 L 306,535 L 308,535 L 309,535 L 310,535 L 311,534 L 313,534 L 315,533 L 317,533 L 318,533 L 319,532 L 320,532 L 321,531 L 321,530 L 322,530 L 322,529 L 323,529 L 323,528 L 324,528 L 324,527 L 324,526 L 324,525 L 324,524 L 325,522 L 325,520 L 325,519 L 327,519 L 328,519 L 328,518 L 328,517 L 328,516 L 328,514 L 328,513 L 328,511 L 327,510 L 328,508 L 329,507 L 330,506 L 331,505 L 332,504 L 332,503 L 332,502 L 332,501 L 332,500 L 332,499 L 333,498 L 333,497 L 334,496 L 335,496 L 336,495 L 337,495 L 338,495 L 340,495 L 341,495 L 342,495 L 343,495 L 343,494 L 343,493 L 343,492 L 342,491 L 342,490 L 342,489 L 342,488 L 342,487 L 342,486 L 342,485 L 342,483 L 343,482 L 343,480 L 343,479 L 342,478 L 342,477 L 342,476 L 341,475 L 341,474 L 341,473 L 341,472 L 342,472 L 342,471 L 343,471 L 343,470 L 344,471 L 345,470 L 346,469 L 346,468 L 346,467 L 346,465 L 346,464 L 345,463 L 345,462 L 344,461 L 344,460 L 343,460 L 342,459 L 342,458 L 341,457 L 341,456 L 340,455 L 340,454 L 339,454 L 339,453 L 338,453 L 338,452 L 338,451 L 337,450 L 336,450 L 336,449 L 336,448 L 336,447 L 336,446 L 336,445 L 336,444 L 337,443 L 336,442 L 336,441 L 336,440 L 336,439 L 335,439 L 334,439 L 333,438 L 332,438 L 330,437 L 329,437 L 328,436 L 328,435 L 328,433 L 327,431 L 327,430 L 326,430 L 325,429 L 325,428 L 324,427 L 323,426 L 322,425 L 321,424 L 320,424 L 320,423 L 320,422 L 320,421 L 320,420 L 320,419 L 320,418 L 320,417 L 319,415 L 318,414 L 319,414 L 320,414 L 322,415 L 323,416 L 323,417 L 324,417 L 324,418 L 325,419 L 326,420 L 328,421 L 329,422 L 329,423 L 330,424 L 330,425 L 331,426 L 332,426 L 333,426 L 335,426 L 336,426 L 337,426 L 338,427 L 339,427 L 339,428 L 341,427 L 341,428 L 342,428 L 343,429 L 344,429 L 345,429 L 345,430 L 346,431 L 347,431 L 348,431 L 349,431 L 350,431 L 351,431 L 353,431 L 353,432 L 354,432 L 356,432 L 356,433 L 357,433 L 358,434 L 359,435 L 361,438 L 361,439 L 362,440 L 363,440 L 365,440 L 365,439 L 366,438 L 367,437 L 368,436 L 369,435 L 370,434 L 371,433 L 372,432 L 374,430 L 375,429 L 376,428 L 377,428 L 378,428 L 379,428 L 380,427 L 380,426 L 380,425 L 380,424 L 380,422 L 380,421 L 380,419 L 380,418 L 380,417 L 381,416 L 381,415 L 381,414 L 382,414 " />
</g>
<g id="lakonia_2" >
<path d="M 747,735 L 747,736 L 747,737 L 746,737 L 746,736 L 746,735 L 747,735 " />
<path d="M 741,739 L 740,739 L 740,740 L 741,740 L 741,741 L 741,740 L 742,740 L 741,740 L 741,741 L 741,742 L 742,742 L 742,743 L 742,744 L 742,745 L 742,746 L 743,746 L 743,747 L 743,748 L 743,749 L 743,750 L 743,751 L 743,752 L 744,752 L 744,753 L 744,754 L 744,755 L 744,756 L 744,757 L 744,758 L 744,759 L 744,760 L 744,761 L 745,761 L 745,762 L 745,763 L 745,764 L 744,764 L 743,764 L 743,763 L 743,764 L 742,764 L 742,765 L 742,766 L 742,767 L 742,768 L 742,769 L 743,769 L 744,770 L 745,770 L 745,771 L 746,771 L 746,772 L 747,772 L 747,773 L 748,773 L 748,774 L 749,775 L 748,775 L 748,776 L 747,776 L 747,777 L 747,778 L 746,778 L 747,779 L 747,780 L 747,781 L 746,781 L 745,782 L 745,783 L 745,784 L 746,784 L 746,785 L 746,786 L 746,787 L 745,787 L 745,786 L 744,786 L 743,786 L 743,785 L 742,785 L 742,784 L 742,783 L 742,782 L 743,782 L 743,781 L 743,780 L 743,779 L 742,779 L 742,778 L 742,777 L 741,777 L 740,777 L 739,777 L 739,778 L 739,779 L 739,780 L 738,780 L 737,780 L 736,780 L 735,781 L 735,780 L 734,780 L 735,779 L 736,779 L 736,778 L 737,778 L 737,777 L 738,777 L 739,777 L 739,776 L 739,775 L 739,774 L 738,774 L 738,773 L 737,772 L 737,771 L 736,771 L 735,770 L 734,769 L 733,769 L 732,769 L 731,769 L 730,769 L 730,768 L 730,769 L 729,769 L 728,769 L 727,769 L 726,769 L 726,768 L 725,768 L 725,769 L 725,770 L 724,770 L 723,770 L 723,771 L 722,770 L 721,770 L 720,770 L 720,771 L 719,770 L 719,771 L 718,771 L 718,772 L 717,772 L 717,773 L 716,773 L 716,774 L 715,774 L 715,775 L 714,775 L 714,776 L 713,776 L 713,777 L 713,778 L 712,778 L 712,779 L 711,779 L 710,779 L 710,780 L 709,780 L 709,781 L 708,781 L 707,781 L 707,780 L 706,780 L 706,779 L 705,779 L 705,778 L 704,777 L 703,777 L 703,776 L 703,775 L 703,774 L 703,773 L 704,772 L 704,771 L 704,770 L 703,770 L 703,769 L 704,769 L 704,768 L 704,767 L 704,766 L 704,765 L 704,764 L 705,764 L 705,763 L 706,763 L 706,762 L 707,762 L 707,761 L 708,761 L 708,760 L 708,759 L 709,758 L 709,759 L 710,759 L 711,759 L 712,759 L 713,758 L 714,758 L 715,757 L 715,756 L 716,756 L 716,755 L 717,754 L 717,753 L 717,752 L 717,751 L 718,751 L 718,750 L 717,749 L 717,748 L 718,748 L 717,748 L 717,747 L 718,747 L 718,746 L 719,746 L 719,747 L 720,747 L 721,747 L 722,747 L 722,746 L 723,746 L 723,745 L 724,745 L 725,744 L 725,743 L 725,742 L 725,741 L 726,741 L 727,741 L 727,742 L 728,742 L 729,742 L 730,742 L 731,742 L 732,742 L 732,741 L 733,741 L 733,740 L 734,740 L 734,739 L 734,738 L 735,738 L 735,739 L 736,739 L 736,740 L 737,740 L 738,740 L 739,740 L 740,739 L 741,739 L 741,738 L 741,739 " />
<path d="M 755,722 L 755,721 L 756,721 L 758,722 L 759,722 L 760,722 L 760,723 L 760,724 L 761,725 L 760,725 L 760,726 L 759,726 L 758,726 L 757,726 L 757,727 L 756,727 L 755,727 L 754,727 L 754,728 L 753,728 L 752,729 L 751,729 L 751,730 L 750,730 L 749,730 L 749,731 L 748,731 L 747,731 L 747,732 L 747,733 L 746,733 L 746,734 L 745,734 L 745,735 L 744,735 L 743,735 L 743,734 L 743,733 L 743,732 L 742,732 L 742,731 L 743,730 L 744,729 L 745,728 L 745,727 L 747,726 L 747,725 L 749,724 L 750,723 L 751,723 L 753,722 L 754,722 L 755,722 " />
<path d="M 712,751 L 713,751 L 713,752 L 712,752 L 711,752 L 711,751 L 712,751 L 711,751 L 711,750 L 712,750 L 712,751 " />
<path d="M 702,773 L 702,774 L 701,774 L 701,773 L 701,772 L 702,772 L 702,773 " />
<path d="M 705,759 L 704,758 L 704,757 L 705,757 L 705,756 L 705,757 L 706,757 L 707,758 L 706,758 L 706,759 L 705,759 " />
<path d="M 742,738 L 742,737 L 742,738 " />
</g>
<g id="lakonia_3" >
<path d="M 684,664 L 683,664 L 684,663 L 685,663 L 685,662 L 686,662 L 686,663 L 685,663 L 685,664 L 684,664 " />
<path d="M 789,650 L 788,650 L 789,650 L 789,649 L 789,648 L 789,649 L 790,649 L 790,650 L 789,650 " />
<path d="M 819,534 L 818,534 L 818,533 L 819,533 L 819,534 " />
<path d="M 748,281 L 749,281 L 749,280 L 750,280 L 751,280 L 751,281 L 752,281 L 753,281 L 753,282 L 754,282 L 754,283 L 755,283 L 755,284 L 755,285 L 754,285 L 754,286 L 754,287 L 755,287 L 755,288 L 756,288 L 756,289 L 756,290 L 756,291 L 757,291 L 757,292 L 757,293 L 756,293 L 756,294 L 757,294 L 758,294 L 759,294 L 760,294 L 760,295 L 760,296 L 760,297 L 760,298 L 760,299 L 761,299 L 762,299 L 762,300 L 762,301 L 762,302 L 762,303 L 761,303 L 761,302 L 760,303 L 760,304 L 760,305 L 759,305 L 758,305 L 758,304 L 757,304 L 756,304 L 756,305 L 757,305 L 757,306 L 757,307 L 758,307 L 758,308 L 759,308 L 759,309 L 758,309 L 759,310 L 758,310 L 759,311 L 760,310 L 760,311 L 761,311 L 761,312 L 762,312 L 762,313 L 762,314 L 761,314 L 761,315 L 760,315 L 760,316 L 759,316 L 759,317 L 759,318 L 759,319 L 759,320 L 759,321 L 760,321 L 760,322 L 761,322 L 761,323 L 762,324 L 763,324 L 763,325 L 762,325 L 762,326 L 762,327 L 762,328 L 763,328 L 763,329 L 763,330 L 763,331 L 764,331 L 764,332 L 764,333 L 764,334 L 763,334 L 763,335 L 763,336 L 762,336 L 761,336 L 761,335 L 760,335 L 759,335 L 759,334 L 758,334 L 757,334 L 756,335 L 756,336 L 755,336 L 754,337 L 754,338 L 755,338 L 754,338 L 754,339 L 754,340 L 753,340 L 753,341 L 753,342 L 752,342 L 752,343 L 753,344 L 753,345 L 754,345 L 754,346 L 755,346 L 756,346 L 756,347 L 756,348 L 756,349 L 757,349 L 757,348 L 758,349 L 759,349 L 759,350 L 760,350 L 761,350 L 761,349 L 762,349 L 762,348 L 761,348 L 762,347 L 763,347 L 764,346 L 764,347 L 765,347 L 766,348 L 766,349 L 765,349 L 765,350 L 764,350 L 764,351 L 764,352 L 764,353 L 764,354 L 764,355 L 764,356 L 764,357 L 763,357 L 763,358 L 762,358 L 763,358 L 764,358 L 765,358 L 766,358 L 766,359 L 767,359 L 767,360 L 768,360 L 768,361 L 767,361 L 767,362 L 766,362 L 766,363 L 766,364 L 766,363 L 767,363 L 767,364 L 767,365 L 768,365 L 769,366 L 770,366 L 771,366 L 772,366 L 772,367 L 773,367 L 773,368 L 772,368 L 772,369 L 771,369 L 770,369 L 770,370 L 769,370 L 769,371 L 768,371 L 767,371 L 767,372 L 766,372 L 766,373 L 767,373 L 767,374 L 768,374 L 768,375 L 768,376 L 769,376 L 769,377 L 769,378 L 770,379 L 770,380 L 770,381 L 771,382 L 771,383 L 772,383 L 772,384 L 772,385 L 772,386 L 773,386 L 773,387 L 773,388 L 773,389 L 774,389 L 774,390 L 775,390 L 775,391 L 776,391 L 776,392 L 777,392 L 777,393 L 777,394 L 778,394 L 778,395 L 778,396 L 779,396 L 779,397 L 779,398 L 780,398 L 780,399 L 781,400 L 781,401 L 781,402 L 782,402 L 782,403 L 782,404 L 782,405 L 782,406 L 782,407 L 782,408 L 782,409 L 782,410 L 783,410 L 783,411 L 783,412 L 784,412 L 784,413 L 784,414 L 784,415 L 785,415 L 785,416 L 785,417 L 785,418 L 785,419 L 786,419 L 785,419 L 785,420 L 784,420 L 784,421 L 784,422 L 785,422 L 784,423 L 785,423 L 786,423 L 786,424 L 786,425 L 787,425 L 787,426 L 788,427 L 789,427 L 789,428 L 789,429 L 790,429 L 790,430 L 790,431 L 791,431 L 790,432 L 791,432 L 791,433 L 791,434 L 791,435 L 792,435 L 792,436 L 793,436 L 793,437 L 793,438 L 792,438 L 793,438 L 793,439 L 794,439 L 793,440 L 792,440 L 791,440 L 790,440 L 789,440 L 789,441 L 788,441 L 787,441 L 786,441 L 785,441 L 785,442 L 785,443 L 786,443 L 787,443 L 788,443 L 789,443 L 789,444 L 790,444 L 791,444 L 791,445 L 791,446 L 791,447 L 790,447 L 790,448 L 789,448 L 788,448 L 788,449 L 789,449 L 790,449 L 790,450 L 790,451 L 791,451 L 792,451 L 793,451 L 793,452 L 793,453 L 794,452 L 794,453 L 795,453 L 795,454 L 796,454 L 796,455 L 797,455 L 798,455 L 798,456 L 798,457 L 797,457 L 796,457 L 795,457 L 794,457 L 794,458 L 794,459 L 794,460 L 795,460 L 795,459 L 796,460 L 796,461 L 797,461 L 797,460 L 798,460 L 798,461 L 799,461 L 799,462 L 799,463 L 798,463 L 799,463 L 800,463 L 800,464 L 801,464 L 801,465 L 802,465 L 802,464 L 803,464 L 804,464 L 804,465 L 805,465 L 806,465 L 807,465 L 808,466 L 808,467 L 808,468 L 807,468 L 808,468 L 808,469 L 809,469 L 810,469 L 809,469 L 810,469 L 810,470 L 811,470 L 811,471 L 811,472 L 811,473 L 811,474 L 810,474 L 811,474 L 811,475 L 812,476 L 813,476 L 813,475 L 814,475 L 815,475 L 816,475 L 817,475 L 818,475 L 819,475 L 819,476 L 820,476 L 820,477 L 819,477 L 819,478 L 818,478 L 818,479 L 819,479 L 819,480 L 818,480 L 818,481 L 819,481 L 819,482 L 818,482 L 817,482 L 816,482 L 816,483 L 815,483 L 815,484 L 816,484 L 816,485 L 816,486 L 815,486 L 815,487 L 816,487 L 816,488 L 816,489 L 817,489 L 817,490 L 818,491 L 819,492 L 819,493 L 819,494 L 819,495 L 820,495 L 820,496 L 820,497 L 819,497 L 819,496 L 818,496 L 818,497 L 819,497 L 819,498 L 819,499 L 820,499 L 820,500 L 819,501 L 819,502 L 818,502 L 819,502 L 819,503 L 820,503 L 819,503 L 819,504 L 819,505 L 818,505 L 817,504 L 816,504 L 815,504 L 814,504 L 814,503 L 814,502 L 813,501 L 812,501 L 811,501 L 810,501 L 810,502 L 810,503 L 809,504 L 810,504 L 810,505 L 811,504 L 811,505 L 812,505 L 812,506 L 813,506 L 813,507 L 813,506 L 814,506 L 814,505 L 815,505 L 815,504 L 816,504 L 816,505 L 817,505 L 817,506 L 818,506 L 818,507 L 819,507 L 820,507 L 821,507 L 821,506 L 821,505 L 822,504 L 823,504 L 823,503 L 824,503 L 825,503 L 825,504 L 825,505 L 826,505 L 825,505 L 825,506 L 825,507 L 826,507 L 826,508 L 825,508 L 825,509 L 826,509 L 826,510 L 825,510 L 825,511 L 826,511 L 826,512 L 827,512 L 827,511 L 828,511 L 829,511 L 830,511 L 830,512 L 831,512 L 831,513 L 832,513 L 833,513 L 833,514 L 833,515 L 834,515 L 834,516 L 833,516 L 833,517 L 832,518 L 831,518 L 830,519 L 829,519 L 828,520 L 827,520 L 827,521 L 827,522 L 826,522 L 825,522 L 825,523 L 824,522 L 823,522 L 823,523 L 822,523 L 822,522 L 822,523 L 821,523 L 821,524 L 820,524 L 820,525 L 820,524 L 819,524 L 819,523 L 818,523 L 818,524 L 817,525 L 817,526 L 816,526 L 815,526 L 815,527 L 815,528 L 815,529 L 815,530 L 816,531 L 815,531 L 815,532 L 815,533 L 815,534 L 816,534 L 816,535 L 816,536 L 816,537 L 816,538 L 816,539 L 816,540 L 816,541 L 815,541 L 816,541 L 817,541 L 817,542 L 818,542 L 818,543 L 819,544 L 819,545 L 819,546 L 820,546 L 820,547 L 819,547 L 819,546 L 819,547 L 818,547 L 818,546 L 817,547 L 817,546 L 817,547 L 817,548 L 818,548 L 818,549 L 818,550 L 817,551 L 818,551 L 817,552 L 817,553 L 816,553 L 815,553 L 815,552 L 814,552 L 813,552 L 813,551 L 812,551 L 812,552 L 811,552 L 811,551 L 810,551 L 810,550 L 809,550 L 809,549 L 809,548 L 808,548 L 807,548 L 807,549 L 806,548 L 805,548 L 805,549 L 804,549 L 804,548 L 803,548 L 803,547 L 803,546 L 803,545 L 802,545 L 802,544 L 801,544 L 801,543 L 801,542 L 801,541 L 800,540 L 799,540 L 798,540 L 798,539 L 797,539 L 796,539 L 796,540 L 795,540 L 795,541 L 794,541 L 793,541 L 792,541 L 791,541 L 790,541 L 790,542 L 789,542 L 789,543 L 789,544 L 789,545 L 789,546 L 790,546 L 790,547 L 791,547 L 791,548 L 791,549 L 790,549 L 790,550 L 790,551 L 789,551 L 789,552 L 788,552 L 787,552 L 787,551 L 786,551 L 786,552 L 785,552 L 785,551 L 785,550 L 786,550 L 786,549 L 785,549 L 784,549 L 783,549 L 782,549 L 781,549 L 780,549 L 779,549 L 779,550 L 778,550 L 778,551 L 777,551 L 777,552 L 776,552 L 776,553 L 776,554 L 776,555 L 775,555 L 775,556 L 775,557 L 774,557 L 774,558 L 774,559 L 774,560 L 774,561 L 773,562 L 773,563 L 773,564 L 773,565 L 774,565 L 774,566 L 773,566 L 773,567 L 774,567 L 774,568 L 774,569 L 775,570 L 776,570 L 777,571 L 778,571 L 779,571 L 779,572 L 780,572 L 780,573 L 781,573 L 781,574 L 782,574 L 782,575 L 782,576 L 781,576 L 781,577 L 780,577 L 780,578 L 780,579 L 780,580 L 780,581 L 779,581 L 779,582 L 779,583 L 780,584 L 779,584 L 780,584 L 780,585 L 781,586 L 782,586 L 782,587 L 783,587 L 783,588 L 784,588 L 784,589 L 785,588 L 786,588 L 787,588 L 787,587 L 788,587 L 789,587 L 790,586 L 791,586 L 792,586 L 793,586 L 794,586 L 795,586 L 796,586 L 797,586 L 798,586 L 798,587 L 797,587 L 797,588 L 796,588 L 796,589 L 795,589 L 794,589 L 794,590 L 793,590 L 792,590 L 791,590 L 790,590 L 789,590 L 789,589 L 788,589 L 787,589 L 786,589 L 785,589 L 784,589 L 783,589 L 783,590 L 783,591 L 783,592 L 783,593 L 783,594 L 783,595 L 783,596 L 783,597 L 783,598 L 783,599 L 782,599 L 782,600 L 781,600 L 781,601 L 780,602 L 779,602 L 778,602 L 778,603 L 777,603 L 777,604 L 777,605 L 776,606 L 776,607 L 776,608 L 775,608 L 775,609 L 775,610 L 774,610 L 774,611 L 775,611 L 775,612 L 775,613 L 775,614 L 774,614 L 774,615 L 774,616 L 775,616 L 775,617 L 775,618 L 775,619 L 775,620 L 776,620 L 776,621 L 776,622 L 776,623 L 777,623 L 777,624 L 777,625 L 777,626 L 778,626 L 778,627 L 778,628 L 779,628 L 779,629 L 778,629 L 777,629 L 777,630 L 776,631 L 777,632 L 777,633 L 777,634 L 778,634 L 778,635 L 779,636 L 779,637 L 779,638 L 778,639 L 778,640 L 778,641 L 779,641 L 779,642 L 780,642 L 781,642 L 781,643 L 782,643 L 782,644 L 782,645 L 783,645 L 783,646 L 784,646 L 784,647 L 785,647 L 785,646 L 786,646 L 787,646 L 787,647 L 787,648 L 787,649 L 788,649 L 788,650 L 787,651 L 787,652 L 788,652 L 787,652 L 788,653 L 788,654 L 788,655 L 789,655 L 789,656 L 789,655 L 790,655 L 791,655 L 791,656 L 792,656 L 792,655 L 793,655 L 793,654 L 793,655 L 793,656 L 794,656 L 794,657 L 795,657 L 795,658 L 796,658 L 795,658 L 795,659 L 794,659 L 794,660 L 795,660 L 795,661 L 795,662 L 796,662 L 796,663 L 795,664 L 796,664 L 796,665 L 797,665 L 797,666 L 796,666 L 796,667 L 797,667 L 798,666 L 798,667 L 798,668 L 797,668 L 798,668 L 797,669 L 798,669 L 799,669 L 799,670 L 800,670 L 801,670 L 801,671 L 802,672 L 802,673 L 801,673 L 801,674 L 801,675 L 801,676 L 802,676 L 803,676 L 803,677 L 804,677 L 804,678 L 805,678 L 805,679 L 806,679 L 806,680 L 807,680 L 807,681 L 808,681 L 809,681 L 809,682 L 809,683 L 810,683 L 811,683 L 811,684 L 812,684 L 812,685 L 813,685 L 814,685 L 814,686 L 815,686 L 815,687 L 816,687 L 816,688 L 817,688 L 818,688 L 818,689 L 819,689 L 820,690 L 821,690 L 821,691 L 822,691 L 822,692 L 823,692 L 823,693 L 824,693 L 824,694 L 825,694 L 825,695 L 826,695 L 827,695 L 827,696 L 828,696 L 829,696 L 829,697 L 830,697 L 830,698 L 831,698 L 832,698 L 833,698 L 834,698 L 835,698 L 835,697 L 836,697 L 837,697 L 837,698 L 837,697 L 838,697 L 839,697 L 840,697 L 840,698 L 841,698 L 842,698 L 842,699 L 843,699 L 844,699 L 844,700 L 844,701 L 845,701 L 845,702 L 845,703 L 846,703 L 846,704 L 845,704 L 845,705 L 845,706 L 846,706 L 846,707 L 847,707 L 848,707 L 848,708 L 848,709 L 847,709 L 847,710 L 847,711 L 847,712 L 846,712 L 846,713 L 847,713 L 847,714 L 848,714 L 849,714 L 849,713 L 850,713 L 851,713 L 852,713 L 853,714 L 853,715 L 853,716 L 854,716 L 855,716 L 855,717 L 856,717 L 857,717 L 857,718 L 858,718 L 859,718 L 860,718 L 860,719 L 861,719 L 860,719 L 859,720 L 858,720 L 857,720 L 857,721 L 856,721 L 856,722 L 855,722 L 855,723 L 854,723 L 854,724 L 853,724 L 852,724 L 852,725 L 851,725 L 851,726 L 850,726 L 850,727 L 851,727 L 851,728 L 852,728 L 852,729 L 851,729 L 851,730 L 851,731 L 851,732 L 851,733 L 852,733 L 852,734 L 853,734 L 853,735 L 853,736 L 853,737 L 853,738 L 853,739 L 853,740 L 852,740 L 852,741 L 851,741 L 850,742 L 850,743 L 849,743 L 849,744 L 848,744 L 847,744 L 847,745 L 846,745 L 847,745 L 847,746 L 846,746 L 847,746 L 846,746 L 846,747 L 845,747 L 844,747 L 844,748 L 844,749 L 844,750 L 844,751 L 844,752 L 844,753 L 845,753 L 846,753 L 846,754 L 847,754 L 848,754 L 848,755 L 849,755 L 850,755 L 851,755 L 852,755 L 852,756 L 851,756 L 851,757 L 852,758 L 852,759 L 852,760 L 853,761 L 854,761 L 854,762 L 855,762 L 856,762 L 857,762 L 857,761 L 858,761 L 859,761 L 860,761 L 860,762 L 861,763 L 862,763 L 863,763 L 863,762 L 864,762 L 865,762 L 865,763 L 866,763 L 867,764 L 866,764 L 867,764 L 867,765 L 868,765 L 868,764 L 868,765 L 868,766 L 867,766 L 867,767 L 868,767 L 868,768 L 869,768 L 870,768 L 870,769 L 871,769 L 871,770 L 871,771 L 871,772 L 870,772 L 869,772 L 868,772 L 868,773 L 868,774 L 868,775 L 868,776 L 869,776 L 869,777 L 868,777 L 869,777 L 869,778 L 869,779 L 870,779 L 871,779 L 871,780 L 872,780 L 872,779 L 873,779 L 873,778 L 874,778 L 875,778 L 876,778 L 877,777 L 878,777 L 878,778 L 877,779 L 878,779 L 878,780 L 879,780 L 879,781 L 880,781 L 881,781 L 881,782 L 882,782 L 883,782 L 883,783 L 884,783 L 885,783 L 886,783 L 886,784 L 887,784 L 888,784 L 888,785 L 889,785 L 889,786 L 890,786 L 890,787 L 890,788 L 890,789 L 891,789 L 892,790 L 892,791 L 893,791 L 893,792 L 894,793 L 894,794 L 893,794 L 893,795 L 893,796 L 892,796 L 892,797 L 892,798 L 893,798 L 893,799 L 893,800 L 893,801 L 892,802 L 892,803 L 891,804 L 892,804 L 892,805 L 891,805 L 891,806 L 890,806 L 890,805 L 889,805 L 888,805 L 887,805 L 887,804 L 886,804 L 886,803 L 885,803 L 884,803 L 883,803 L 882,803 L 881,803 L 880,803 L 879,803 L 879,802 L 878,802 L 878,803 L 877,803 L 876,804 L 875,804 L 874,804 L 874,803 L 873,803 L 872,803 L 871,803 L 870,803 L 869,802 L 868,802 L 867,802 L 866,802 L 865,802 L 864,801 L 863,801 L 862,801 L 861,801 L 860,801 L 860,800 L 860,801 L 859,800 L 858,800 L 858,801 L 857,801 L 856,801 L 856,800 L 855,800 L 854,800 L 853,801 L 853,802 L 852,802 L 851,803 L 851,804 L 851,805 L 851,806 L 851,807 L 850,807 L 850,808 L 850,809 L 849,809 L 849,810 L 848,810 L 848,811 L 847,811 L 846,811 L 845,811 L 844,811 L 843,811 L 842,811 L 841,810 L 840,810 L 840,809 L 839,809 L 839,808 L 838,808 L 837,808 L 837,807 L 836,807 L 835,807 L 834,807 L 833,806 L 833,805 L 832,806 L 831,805 L 832,805 L 831,804 L 831,803 L 831,802 L 830,802 L 830,801 L 829,801 L 828,801 L 828,800 L 827,800 L 826,800 L 825,799 L 824,799 L 823,799 L 822,800 L 821,801 L 821,802 L 821,803 L 820,803 L 819,802 L 818,801 L 819,801 L 819,800 L 818,800 L 818,801 L 818,800 L 818,799 L 817,799 L 816,799 L 815,799 L 815,800 L 814,800 L 814,801 L 813,801 L 813,800 L 814,800 L 814,799 L 815,798 L 814,798 L 815,798 L 815,797 L 814,797 L 813,797 L 812,797 L 812,796 L 812,795 L 813,795 L 813,794 L 812,794 L 811,794 L 811,793 L 811,792 L 811,791 L 810,790 L 809,790 L 809,789 L 808,789 L 808,788 L 808,787 L 807,787 L 807,786 L 807,785 L 806,785 L 807,785 L 807,784 L 806,784 L 807,783 L 806,783 L 806,782 L 806,781 L 805,781 L 805,780 L 804,780 L 803,780 L 802,780 L 802,779 L 801,779 L 801,778 L 800,778 L 800,777 L 800,776 L 800,775 L 800,774 L 799,774 L 799,773 L 798,772 L 797,771 L 798,771 L 798,770 L 799,770 L 799,769 L 800,769 L 801,769 L 801,768 L 802,768 L 802,767 L 802,766 L 802,765 L 803,765 L 802,764 L 803,764 L 802,764 L 802,763 L 803,763 L 803,762 L 802,762 L 802,761 L 801,760 L 801,759 L 800,759 L 799,759 L 799,760 L 798,760 L 798,759 L 799,759 L 799,758 L 800,758 L 801,758 L 801,757 L 801,756 L 802,756 L 802,755 L 802,754 L 802,753 L 802,752 L 802,751 L 802,750 L 802,749 L 802,748 L 801,748 L 801,747 L 801,746 L 800,746 L 800,745 L 799,745 L 799,744 L 798,744 L 798,743 L 797,743 L 797,742 L 796,741 L 795,741 L 795,740 L 794,740 L 794,739 L 793,739 L 793,738 L 792,738 L 792,737 L 791,737 L 791,736 L 790,736 L 789,736 L 789,735 L 788,735 L 788,734 L 787,734 L 787,733 L 786,733 L 786,732 L 785,732 L 785,731 L 785,730 L 784,730 L 783,730 L 783,729 L 782,729 L 782,728 L 781,728 L 781,727 L 780,727 L 779,726 L 778,726 L 777,726 L 777,725 L 776,725 L 775,725 L 774,725 L 773,725 L 773,724 L 773,725 L 772,725 L 772,724 L 771,724 L 770,724 L 769,724 L 768,724 L 767,724 L 766,724 L 765,724 L 764,724 L 764,725 L 763,725 L 762,725 L 761,725 L 760,724 L 760,723 L 760,722 L 759,722 L 758,722 L 756,721 L 755,721 L 755,722 L 754,722 L 753,722 L 751,723 L 750,723 L 749,724 L 747,725 L 747,726 L 745,727 L 745,728 L 744,729 L 743,730 L 742,731 L 741,731 L 740,731 L 739,731 L 738,731 L 737,731 L 737,730 L 736,730 L 736,731 L 735,731 L 734,731 L 733,732 L 733,731 L 733,730 L 733,729 L 733,728 L 733,727 L 732,727 L 732,726 L 731,726 L 731,725 L 730,725 L 730,724 L 729,724 L 729,723 L 729,722 L 729,721 L 729,720 L 728,720 L 728,719 L 727,719 L 727,718 L 727,717 L 727,716 L 727,715 L 726,715 L 726,714 L 725,714 L 726,713 L 726,712 L 726,711 L 726,710 L 725,709 L 725,708 L 724,708 L 724,707 L 723,706 L 724,706 L 724,705 L 723,705 L 723,704 L 722,704 L 722,703 L 721,702 L 721,701 L 720,701 L 719,700 L 718,700 L 718,699 L 717,699 L 716,699 L 716,698 L 715,698 L 715,697 L 715,696 L 715,697 L 714,697 L 713,697 L 712,697 L 712,696 L 712,695 L 712,694 L 713,694 L 714,694 L 714,693 L 714,692 L 715,692 L 715,691 L 716,691 L 716,690 L 716,689 L 717,689 L 717,688 L 717,687 L 717,686 L 717,685 L 716,685 L 716,684 L 716,683 L 715,683 L 715,682 L 714,682 L 714,681 L 713,681 L 713,680 L 713,679 L 713,678 L 712,678 L 712,677 L 711,677 L 711,676 L 710,676 L 710,675 L 709,675 L 708,675 L 707,675 L 707,674 L 706,674 L 706,673 L 706,672 L 706,671 L 706,670 L 705,670 L 705,669 L 704,668 L 703,668 L 703,667 L 702,667 L 701,666 L 700,666 L 700,665 L 700,666 L 699,666 L 699,667 L 698,667 L 697,667 L 696,667 L 696,666 L 697,666 L 697,665 L 697,664 L 696,663 L 695,663 L 695,662 L 694,662 L 694,661 L 693,661 L 692,661 L 691,661 L 691,660 L 691,661 L 690,660 L 689,660 L 688,660 L 688,659 L 687,659 L 687,658 L 687,657 L 686,657 L 686,656 L 685,656 L 685,655 L 684,655 L 683,655 L 683,654 L 682,654 L 682,655 L 681,655 L 680,655 L 679,655 L 679,654 L 679,655 L 679,654 L 678,654 L 677,654 L 676,654 L 676,653 L 676,652 L 677,652 L 677,651 L 678,651 L 678,650 L 677,650 L 676,650 L 675,650 L 674,649 L 675,648 L 674,648 L 674,647 L 673,647 L 673,646 L 672,646 L 672,645 L 671,645 L 671,644 L 670,644 L 670,643 L 670,642 L 670,641 L 670,640 L 669,640 L 669,639 L 668,639 L 667,639 L 667,638 L 666,638 L 666,637 L 666,636 L 666,637 L 667,637 L 668,637 L 669,638 L 670,638 L 670,637 L 671,637 L 672,637 L 672,638 L 673,638 L 673,637 L 674,637 L 674,636 L 674,635 L 675,635 L 675,634 L 675,633 L 675,632 L 675,631 L 675,630 L 676,630 L 676,629 L 676,628 L 676,627 L 675,627 L 675,626 L 675,625 L 675,624 L 674,624 L 674,623 L 675,623 L 676,623 L 676,622 L 675,622 L 675,621 L 676,621 L 675,621 L 675,620 L 674,620 L 674,621 L 673,621 L 673,620 L 674,620 L 674,619 L 674,618 L 674,617 L 674,616 L 673,616 L 673,615 L 672,615 L 672,614 L 671,614 L 670,613 L 669,612 L 668,612 L 668,611 L 667,611 L 667,610 L 667,611 L 666,610 L 666,609 L 667,609 L 667,608 L 666,608 L 665,608 L 665,607 L 665,606 L 664,606 L 664,607 L 664,606 L 664,605 L 663,605 L 663,604 L 662,604 L 661,603 L 660,603 L 660,602 L 659,602 L 659,601 L 658,601 L 658,602 L 657,602 L 657,601 L 656,601 L 656,600 L 655,600 L 654,600 L 654,599 L 654,598 L 655,598 L 654,598 L 654,597 L 654,596 L 654,595 L 654,594 L 654,595 L 653,595 L 653,594 L 652,594 L 651,594 L 651,593 L 651,592 L 652,592 L 652,591 L 651,591 L 651,590 L 651,589 L 650,589 L 649,589 L 648,589 L 648,590 L 647,590 L 647,589 L 646,588 L 645,589 L 644,589 L 646,588 L 646,587 L 645,587 L 645,586 L 644,586 L 644,587 L 644,586 L 643,586 L 642,586 L 641,586 L 640,586 L 639,586 L 639,587 L 638,587 L 638,588 L 638,589 L 638,590 L 638,591 L 638,592 L 638,593 L 638,594 L 639,594 L 639,595 L 639,596 L 638,596 L 638,597 L 638,598 L 638,599 L 638,600 L 638,601 L 638,602 L 637,602 L 637,603 L 637,604 L 637,605 L 636,605 L 636,606 L 635,606 L 634,606 L 634,607 L 633,607 L 633,608 L 633,609 L 633,610 L 633,611 L 634,612 L 634,613 L 635,613 L 635,614 L 634,614 L 634,615 L 633,615 L 632,615 L 631,615 L 631,614 L 631,613 L 631,612 L 630,612 L 630,611 L 630,610 L 630,609 L 631,609 L 632,608 L 632,607 L 631,607 L 631,606 L 630,606 L 630,605 L 630,604 L 629,604 L 629,603 L 628,603 L 627,603 L 627,604 L 626,603 L 626,602 L 625,601 L 625,602 L 624,601 L 624,600 L 624,601 L 623,600 L 623,599 L 623,598 L 622,597 L 622,596 L 622,595 L 622,594 L 622,593 L 622,592 L 621,592 L 621,591 L 622,591 L 622,590 L 623,590 L 623,589 L 624,589 L 624,588 L 624,587 L 625,587 L 625,586 L 626,586 L 627,586 L 627,585 L 627,584 L 626,584 L 626,583 L 627,583 L 626,583 L 626,582 L 626,581 L 625,581 L 625,580 L 625,579 L 626,579 L 625,579 L 625,578 L 626,578 L 626,577 L 627,577 L 627,578 L 628,578 L 629,578 L 629,577 L 630,577 L 630,578 L 630,577 L 631,577 L 631,576 L 631,575 L 632,575 L 632,574 L 633,574 L 633,573 L 633,572 L 632,572 L 632,571 L 633,571 L 633,570 L 633,569 L 633,568 L 633,567 L 633,566 L 633,565 L 633,564 L 633,563 L 633,562 L 632,562 L 632,561 L 632,560 L 632,559 L 632,558 L 632,557 L 632,556 L 631,556 L 631,555 L 631,554 L 630,554 L 630,553 L 630,552 L 629,552 L 629,551 L 629,550 L 629,549 L 629,548 L 628,548 L 628,547 L 628,546 L 627,546 L 627,545 L 627,544 L 626,543 L 625,542 L 624,542 L 624,541 L 623,541 L 623,540 L 622,540 L 621,539 L 621,538 L 621,537 L 620,536 L 621,536 L 620,536 L 620,535 L 620,536 L 619,536 L 619,535 L 618,534 L 618,533 L 618,532 L 619,532 L 619,531 L 619,530 L 619,531 L 620,531 L 620,530 L 620,529 L 620,528 L 620,527 L 619,527 L 618,526 L 617,526 L 617,525 L 617,524 L 616,524 L 615,523 L 616,523 L 616,522 L 617,522 L 617,521 L 617,520 L 618,520 L 618,519 L 618,518 L 617,517 L 617,516 L 616,516 L 616,515 L 615,515 L 615,514 L 614,514 L 614,513 L 614,512 L 614,511 L 615,511 L 615,510 L 615,509 L 615,508 L 616,508 L 616,507 L 615,507 L 615,506 L 615,505 L 615,504 L 614,504 L 613,503 L 613,502 L 613,501 L 612,500 L 612,499 L 611,499 L 611,498 L 610,497 L 610,496 L 611,496 L 612,497 L 613,496 L 614,496 L 615,495 L 616,494 L 618,493 L 618,492 L 620,490 L 621,489 L 622,488 L 622,487 L 623,486 L 624,485 L 625,484 L 625,483 L 626,482 L 627,482 L 627,481 L 628,481 L 629,480 L 630,479 L 631,479 L 632,479 L 632,478 L 635,477 L 636,477 L 637,477 L 638,477 L 638,473 L 637,471 L 637,470 L 636,469 L 635,467 L 635,466 L 634,465 L 634,464 L 633,462 L 632,460 L 631,458 L 630,457 L 630,456 L 629,456 L 629,455 L 628,453 L 628,451 L 626,448 L 625,446 L 625,445 L 624,444 L 623,443 L 624,442 L 624,441 L 625,441 L 625,440 L 626,439 L 627,439 L 627,438 L 628,438 L 628,437 L 629,436 L 630,435 L 631,436 L 631,437 L 632,437 L 632,438 L 632,439 L 633,439 L 633,440 L 633,441 L 634,442 L 637,441 L 638,440 L 640,440 L 642,440 L 644,440 L 645,440 L 646,440 L 648,440 L 649,440 L 651,440 L 653,440 L 654,441 L 655,441 L 655,442 L 656,442 L 656,443 L 657,444 L 657,446 L 657,447 L 658,448 L 658,449 L 659,450 L 660,450 L 661,451 L 662,451 L 662,452 L 663,452 L 663,451 L 664,450 L 664,449 L 664,447 L 664,446 L 664,445 L 664,444 L 664,443 L 664,441 L 664,440 L 664,436 L 665,435 L 665,434 L 665,433 L 666,432 L 667,431 L 668,430 L 668,429 L 669,427 L 670,426 L 671,426 L 671,425 L 673,423 L 674,423 L 677,421 L 678,420 L 679,419 L 680,419 L 682,418 L 684,417 L 684,416 L 685,415 L 686,414 L 686,413 L 686,412 L 685,412 L 684,411 L 683,411 L 683,410 L 685,409 L 686,408 L 686,407 L 686,406 L 687,405 L 688,404 L 689,404 L 691,403 L 692,403 L 694,402 L 695,402 L 695,401 L 695,400 L 694,399 L 693,398 L 693,397 L 693,396 L 693,395 L 693,394 L 693,391 L 694,391 L 694,389 L 695,388 L 696,388 L 696,389 L 696,390 L 697,390 L 697,391 L 699,392 L 700,393 L 701,395 L 702,396 L 703,397 L 704,399 L 705,400 L 706,401 L 707,403 L 709,405 L 710,406 L 710,405 L 711,404 L 712,403 L 712,402 L 714,398 L 715,397 L 715,396 L 716,395 L 716,394 L 718,392 L 719,390 L 720,390 L 721,389 L 722,389 L 722,388 L 724,386 L 725,386 L 725,385 L 727,385 L 728,384 L 729,383 L 731,382 L 732,382 L 731,381 L 731,380 L 730,380 L 729,379 L 727,377 L 726,376 L 725,375 L 725,374 L 724,374 L 723,373 L 722,372 L 722,371 L 721,371 L 721,370 L 720,370 L 720,369 L 719,369 L 719,368 L 718,368 L 717,367 L 716,366 L 717,365 L 717,364 L 718,363 L 719,363 L 720,362 L 719,361 L 718,360 L 717,359 L 715,357 L 714,355 L 713,354 L 712,353 L 711,351 L 711,350 L 710,349 L 710,348 L 709,347 L 709,346 L 709,345 L 709,344 L 708,344 L 708,343 L 708,342 L 708,341 L 708,340 L 709,340 L 710,339 L 711,339 L 711,338 L 711,337 L 711,336 L 710,335 L 710,334 L 710,333 L 710,332 L 710,331 L 710,330 L 709,329 L 709,328 L 709,327 L 710,326 L 710,325 L 710,324 L 711,324 L 712,324 L 713,324 L 714,324 L 715,324 L 716,324 L 716,323 L 717,322 L 717,321 L 717,320 L 717,319 L 716,318 L 715,316 L 715,315 L 713,313 L 712,312 L 711,310 L 710,310 L 709,309 L 709,308 L 708,308 L 708,307 L 708,306 L 710,305 L 712,304 L 713,304 L 714,303 L 717,302 L 718,302 L 719,302 L 721,302 L 723,302 L 724,302 L 725,302 L 726,302 L 727,301 L 728,301 L 729,301 L 729,300 L 730,300 L 731,298 L 731,297 L 732,296 L 732,295 L 732,294 L 733,293 L 733,292 L 733,291 L 733,290 L 734,290 L 735,290 L 736,290 L 737,290 L 738,290 L 738,289 L 739,289 L 740,288 L 741,287 L 743,285 L 743,284 L 744,283 L 745,281 L 746,280 L 747,280 L 748,280 L 748,281 " />
</g>
<g id="lakonia_4" >
<path d="M 376,40 L 377,40 L 378,39 L 380,37 L 381,35 L 382,34 L 383,34 L 386,34 L 387,35 L 389,36 L 391,37 L 391,38 L 392,39 L 393,41 L 393,42 L 394,42 L 395,43 L 396,44 L 397,44 L 399,44 L 402,45 L 403,45 L 404,45 L 405,46 L 406,46 L 406,47 L 407,47 L 407,48 L 408,48 L 409,48 L 410,48 L 412,45 L 413,44 L 414,44 L 414,43 L 416,43 L 417,42 L 418,42 L 420,43 L 421,43 L 422,42 L 423,42 L 425,42 L 426,42 L 429,41 L 430,41 L 431,41 L 432,41 L 434,42 L 435,43 L 437,44 L 438,44 L 439,45 L 440,46 L 440,48 L 441,49 L 442,49 L 443,50 L 443,51 L 444,52 L 444,53 L 446,54 L 446,55 L 447,55 L 448,55 L 450,55 L 450,56 L 451,56 L 451,57 L 450,57 L 450,58 L 449,58 L 449,59 L 449,60 L 448,61 L 448,62 L 449,62 L 450,63 L 450,64 L 451,64 L 452,64 L 452,65 L 453,65 L 453,66 L 453,67 L 453,68 L 453,69 L 454,70 L 455,71 L 456,73 L 457,74 L 458,74 L 459,74 L 460,74 L 460,73 L 461,73 L 462,72 L 463,72 L 465,71 L 467,70 L 468,69 L 469,69 L 472,67 L 473,67 L 474,67 L 475,67 L 478,66 L 480,66 L 481,66 L 482,65 L 485,64 L 486,64 L 487,63 L 488,63 L 489,63 L 491,63 L 492,63 L 492,64 L 492,65 L 493,66 L 494,69 L 495,70 L 495,71 L 495,72 L 496,75 L 496,77 L 496,79 L 496,81 L 495,83 L 495,84 L 495,85 L 494,85 L 494,86 L 494,88 L 494,89 L 494,91 L 494,94 L 494,97 L 494,99 L 494,100 L 492,104 L 492,105 L 493,106 L 493,107 L 493,108 L 493,109 L 493,110 L 493,111 L 494,112 L 493,113 L 493,115 L 493,116 L 493,117 L 493,118 L 493,119 L 493,120 L 494,121 L 495,123 L 496,124 L 497,125 L 498,125 L 499,126 L 499,127 L 499,130 L 499,131 L 499,132 L 500,133 L 501,134 L 502,135 L 502,136 L 503,136 L 503,137 L 504,137 L 504,138 L 505,139 L 506,139 L 506,140 L 507,140 L 507,141 L 508,141 L 508,142 L 509,143 L 509,145 L 508,146 L 508,147 L 508,148 L 508,149 L 509,149 L 509,150 L 510,151 L 511,152 L 512,153 L 512,154 L 512,156 L 512,157 L 512,158 L 511,159 L 511,160 L 511,161 L 512,163 L 512,164 L 513,164 L 513,165 L 513,166 L 513,167 L 513,168 L 513,169 L 512,170 L 512,171 L 511,172 L 511,173 L 512,175 L 512,176 L 513,177 L 513,178 L 514,178 L 515,179 L 516,180 L 517,181 L 518,182 L 518,183 L 518,184 L 518,185 L 518,187 L 519,188 L 521,190 L 521,191 L 521,192 L 521,193 L 521,194 L 521,195 L 522,195 L 522,196 L 523,196 L 523,197 L 522,197 L 521,198 L 520,199 L 519,200 L 518,201 L 517,202 L 516,202 L 516,203 L 515,203 L 514,203 L 515,205 L 515,206 L 515,207 L 515,208 L 515,212 L 515,213 L 515,214 L 515,215 L 514,216 L 513,217 L 512,217 L 512,218 L 511,218 L 511,219 L 510,219 L 509,220 L 508,220 L 507,221 L 506,221 L 505,222 L 503,222 L 502,223 L 501,223 L 500,223 L 499,224 L 498,224 L 496,225 L 495,225 L 494,226 L 493,226 L 493,228 L 492,229 L 492,230 L 492,231 L 492,232 L 493,234 L 493,237 L 493,239 L 493,240 L 493,241 L 494,243 L 495,245 L 495,246 L 496,248 L 496,250 L 495,254 L 496,256 L 496,258 L 496,259 L 496,260 L 495,261 L 495,262 L 494,264 L 494,265 L 494,266 L 494,267 L 494,268 L 494,269 L 494,270 L 493,271 L 494,272 L 495,273 L 496,275 L 498,276 L 499,277 L 499,278 L 500,279 L 501,280 L 502,280 L 504,281 L 506,282 L 507,283 L 508,283 L 509,283 L 510,284 L 511,285 L 511,286 L 512,286 L 511,287 L 512,287 L 512,288 L 512,289 L 513,290 L 513,291 L 514,292 L 514,293 L 513,295 L 513,296 L 513,297 L 513,298 L 513,299 L 514,300 L 513,301 L 513,302 L 513,303 L 512,304 L 512,305 L 512,306 L 511,308 L 511,309 L 510,311 L 510,312 L 509,312 L 509,313 L 508,314 L 508,315 L 508,316 L 508,317 L 508,318 L 508,319 L 507,320 L 506,321 L 505,320 L 505,321 L 504,322 L 503,322 L 502,324 L 501,325 L 500,326 L 499,326 L 498,326 L 498,327 L 498,328 L 498,329 L 497,330 L 496,330 L 495,331 L 494,332 L 493,332 L 492,332 L 491,332 L 491,333 L 491,334 L 492,335 L 492,336 L 492,337 L 491,337 L 490,337 L 490,338 L 490,339 L 489,339 L 489,340 L 490,341 L 491,341 L 491,342 L 490,342 L 490,343 L 490,344 L 489,345 L 489,348 L 489,349 L 488,349 L 488,348 L 487,347 L 486,346 L 485,346 L 484,346 L 483,346 L 481,346 L 480,345 L 478,345 L 477,345 L 476,345 L 474,344 L 473,344 L 472,344 L 472,343 L 471,343 L 471,342 L 470,341 L 470,340 L 470,338 L 470,337 L 470,336 L 469,336 L 468,336 L 467,336 L 466,336 L 465,337 L 465,338 L 464,338 L 463,338 L 463,337 L 462,336 L 462,335 L 461,334 L 461,333 L 460,333 L 460,332 L 459,332 L 459,331 L 460,330 L 460,329 L 461,329 L 461,328 L 460,328 L 459,328 L 458,328 L 458,329 L 457,330 L 457,331 L 456,331 L 455,331 L 455,332 L 454,332 L 453,332 L 452,331 L 452,330 L 451,330 L 450,329 L 449,329 L 447,328 L 446,327 L 445,327 L 445,328 L 445,329 L 444,330 L 443,330 L 441,331 L 439,332 L 437,334 L 436,334 L 435,335 L 435,336 L 434,336 L 433,337 L 432,337 L 432,338 L 431,338 L 430,340 L 430,341 L 429,341 L 428,342 L 426,343 L 426,344 L 426,345 L 425,345 L 424,346 L 424,347 L 423,348 L 423,349 L 423,350 L 422,351 L 421,351 L 420,352 L 420,353 L 419,353 L 420,353 L 421,354 L 421,355 L 421,358 L 421,359 L 421,360 L 421,361 L 422,361 L 423,362 L 423,363 L 424,363 L 424,364 L 423,365 L 422,367 L 421,368 L 420,369 L 420,370 L 420,371 L 420,372 L 420,374 L 420,375 L 420,376 L 421,376 L 421,377 L 422,378 L 422,379 L 421,382 L 421,384 L 421,385 L 421,386 L 421,387 L 421,388 L 421,389 L 420,389 L 420,390 L 420,391 L 419,390 L 418,390 L 418,389 L 417,389 L 416,389 L 416,388 L 415,388 L 414,388 L 413,388 L 412,388 L 411,388 L 410,388 L 407,388 L 404,389 L 402,389 L 401,390 L 399,391 L 398,391 L 396,392 L 395,392 L 394,393 L 394,394 L 394,395 L 394,396 L 393,397 L 392,398 L 391,399 L 391,400 L 392,400 L 393,401 L 393,402 L 392,402 L 391,403 L 391,406 L 390,407 L 390,408 L 390,409 L 390,410 L 390,411 L 390,412 L 390,413 L 390,414 L 390,415 L 391,416 L 392,417 L 392,419 L 390,418 L 389,418 L 388,418 L 387,418 L 386,417 L 386,416 L 386,415 L 385,415 L 384,414 L 382,414 L 381,414 L 381,415 L 381,416 L 380,417 L 380,418 L 380,419 L 380,421 L 380,422 L 380,424 L 380,425 L 380,426 L 380,427 L 379,428 L 378,428 L 377,428 L 376,428 L 375,429 L 374,430 L 372,432 L 371,433 L 370,434 L 369,435 L 368,436 L 367,437 L 366,438 L 365,439 L 365,440 L 363,440 L 362,440 L 361,439 L 361,438 L 359,435 L 358,434 L 357,433 L 356,433 L 356,432 L 354,432 L 353,432 L 353,431 L 351,431 L 350,431 L 349,431 L 348,431 L 347,431 L 346,431 L 345,430 L 345,429 L 344,429 L 343,429 L 342,428 L 341,428 L 341,427 L 339,428 L 339,427 L 338,427 L 337,426 L 336,426 L 335,426 L 333,426 L 332,426 L 331,426 L 330,425 L 330,424 L 329,423 L 329,422 L 328,421 L 326,420 L 325,419 L 324,418 L 324,417 L 323,417 L 323,416 L 322,415 L 320,414 L 319,414 L 318,414 L 318,413 L 317,412 L 317,411 L 316,411 L 316,410 L 316,409 L 316,407 L 316,406 L 317,406 L 318,405 L 319,405 L 319,404 L 320,404 L 321,403 L 321,402 L 322,401 L 322,400 L 321,398 L 321,397 L 321,396 L 320,395 L 320,393 L 321,392 L 321,390 L 321,388 L 321,387 L 321,386 L 321,385 L 320,384 L 320,383 L 320,382 L 319,382 L 319,381 L 318,381 L 317,380 L 316,380 L 316,379 L 315,379 L 315,378 L 315,377 L 314,375 L 314,374 L 314,373 L 313,373 L 313,372 L 311,371 L 310,370 L 309,370 L 309,369 L 309,368 L 310,367 L 310,366 L 310,365 L 310,364 L 310,362 L 310,361 L 310,360 L 310,359 L 310,358 L 310,357 L 311,357 L 311,356 L 312,355 L 313,354 L 313,353 L 314,352 L 314,351 L 314,349 L 313,349 L 313,347 L 313,346 L 313,345 L 314,344 L 314,343 L 315,342 L 316,341 L 316,340 L 316,339 L 316,338 L 315,338 L 315,337 L 315,336 L 314,336 L 314,335 L 314,334 L 313,333 L 313,332 L 314,329 L 314,327 L 313,325 L 314,324 L 314,323 L 314,322 L 313,322 L 313,321 L 313,320 L 312,320 L 312,319 L 311,318 L 310,318 L 310,317 L 309,317 L 308,316 L 308,315 L 307,314 L 307,313 L 307,312 L 306,312 L 306,310 L 306,309 L 305,309 L 305,308 L 305,307 L 305,306 L 304,305 L 303,305 L 302,304 L 301,304 L 300,304 L 299,304 L 298,303 L 297,303 L 297,302 L 297,301 L 297,300 L 297,299 L 296,299 L 296,298 L 296,297 L 295,297 L 295,296 L 295,294 L 295,293 L 294,290 L 294,287 L 294,286 L 294,284 L 294,282 L 294,281 L 293,280 L 293,279 L 292,279 L 292,278 L 291,278 L 290,278 L 289,277 L 286,277 L 284,277 L 282,277 L 276,277 L 275,277 L 272,277 L 271,277 L 270,277 L 269,277 L 267,277 L 266,277 L 265,277 L 263,276 L 262,276 L 260,276 L 260,275 L 259,275 L 258,274 L 258,272 L 258,271 L 259,270 L 259,269 L 259,268 L 259,266 L 260,265 L 260,264 L 261,264 L 261,263 L 262,263 L 263,262 L 264,262 L 265,261 L 266,261 L 266,260 L 267,260 L 268,259 L 269,259 L 270,258 L 271,257 L 272,257 L 273,256 L 274,255 L 275,254 L 276,253 L 276,252 L 277,251 L 277,250 L 278,248 L 278,247 L 278,246 L 279,245 L 279,244 L 280,243 L 280,242 L 280,241 L 280,240 L 281,238 L 281,237 L 282,236 L 282,234 L 281,233 L 281,232 L 282,231 L 282,229 L 282,228 L 282,227 L 282,226 L 282,225 L 281,223 L 280,221 L 280,220 L 279,220 L 279,219 L 278,219 L 277,219 L 276,220 L 275,220 L 274,220 L 272,220 L 271,220 L 270,220 L 269,219 L 268,218 L 267,218 L 267,217 L 266,216 L 266,215 L 267,215 L 267,214 L 267,213 L 267,212 L 267,211 L 267,209 L 266,209 L 266,208 L 266,207 L 265,207 L 265,206 L 264,205 L 264,203 L 264,202 L 264,201 L 263,201 L 263,200 L 263,199 L 263,198 L 264,197 L 264,196 L 264,195 L 263,195 L 262,194 L 261,193 L 261,192 L 260,191 L 259,189 L 259,188 L 258,187 L 258,186 L 257,184 L 255,181 L 254,180 L 254,179 L 253,179 L 253,178 L 252,178 L 252,176 L 252,175 L 252,174 L 251,172 L 251,171 L 250,170 L 249,170 L 249,169 L 249,168 L 248,168 L 248,166 L 248,165 L 248,164 L 248,163 L 247,163 L 248,162 L 248,161 L 248,160 L 248,158 L 248,156 L 248,155 L 248,154 L 248,152 L 247,152 L 247,151 L 246,150 L 245,150 L 245,149 L 244,147 L 243,145 L 242,144 L 241,142 L 240,141 L 239,139 L 238,137 L 237,135 L 237,134 L 237,133 L 238,130 L 238,129 L 239,127 L 239,125 L 239,124 L 239,123 L 238,122 L 238,121 L 237,120 L 236,118 L 235,116 L 234,114 L 233,113 L 233,112 L 233,111 L 234,110 L 234,109 L 234,108 L 233,107 L 233,106 L 232,106 L 232,105 L 232,104 L 231,103 L 231,102 L 231,101 L 231,100 L 231,99 L 231,98 L 231,97 L 231,96 L 231,95 L 230,94 L 230,93 L 230,92 L 229,91 L 229,90 L 229,89 L 229,88 L 229,87 L 229,86 L 229,85 L 229,84 L 229,83 L 229,82 L 229,81 L 230,80 L 230,79 L 230,78 L 231,78 L 232,77 L 233,77 L 235,77 L 236,77 L 237,77 L 238,78 L 239,79 L 240,79 L 241,79 L 243,79 L 244,80 L 245,80 L 246,81 L 247,81 L 247,82 L 248,83 L 248,84 L 250,84 L 251,83 L 252,83 L 253,82 L 255,80 L 255,79 L 257,78 L 259,77 L 260,76 L 262,74 L 264,74 L 265,73 L 266,73 L 270,71 L 271,71 L 272,71 L 273,71 L 274,71 L 275,72 L 276,72 L 276,73 L 277,75 L 277,77 L 278,78 L 279,80 L 280,84 L 280,85 L 280,87 L 280,88 L 280,89 L 280,91 L 280,92 L 280,93 L 280,94 L 280,95 L 280,96 L 280,97 L 280,99 L 280,100 L 281,101 L 283,102 L 284,103 L 285,103 L 286,103 L 287,104 L 288,104 L 289,104 L 290,104 L 293,105 L 296,105 L 297,105 L 299,106 L 300,106 L 301,107 L 302,108 L 303,109 L 304,109 L 304,110 L 305,111 L 305,112 L 305,113 L 306,113 L 307,114 L 308,114 L 309,114 L 310,115 L 311,115 L 311,116 L 311,117 L 311,118 L 310,118 L 310,119 L 311,120 L 311,121 L 310,122 L 310,123 L 309,124 L 308,125 L 307,127 L 307,128 L 308,128 L 308,129 L 309,130 L 310,130 L 311,130 L 312,130 L 313,130 L 315,130 L 317,130 L 319,131 L 320,131 L 322,132 L 324,133 L 325,133 L 326,133 L 328,133 L 329,133 L 330,133 L 331,132 L 332,132 L 333,131 L 334,131 L 335,131 L 336,130 L 337,129 L 338,128 L 339,128 L 339,127 L 340,126 L 340,125 L 340,124 L 340,123 L 340,121 L 340,120 L 340,118 L 340,117 L 341,116 L 341,114 L 342,112 L 342,111 L 343,111 L 344,112 L 344,113 L 345,114 L 346,115 L 346,117 L 346,118 L 346,120 L 346,121 L 347,122 L 348,124 L 348,125 L 348,126 L 349,127 L 350,129 L 351,130 L 351,131 L 352,132 L 353,133 L 354,133 L 355,134 L 356,134 L 357,134 L 358,133 L 359,133 L 360,133 L 362,133 L 363,133 L 365,131 L 366,130 L 367,128 L 367,127 L 367,124 L 367,123 L 367,122 L 367,120 L 367,119 L 367,117 L 367,116 L 367,115 L 366,114 L 366,113 L 365,112 L 364,111 L 364,110 L 365,109 L 365,108 L 366,108 L 366,107 L 367,106 L 367,105 L 368,104 L 369,103 L 370,103 L 370,102 L 371,102 L 371,101 L 372,100 L 373,98 L 373,97 L 373,96 L 373,95 L 373,94 L 373,92 L 373,91 L 372,90 L 372,89 L 372,88 L 371,88 L 371,87 L 370,87 L 369,86 L 368,85 L 368,84 L 367,83 L 366,81 L 365,80 L 364,79 L 364,78 L 364,77 L 364,76 L 363,76 L 363,75 L 362,74 L 361,73 L 361,72 L 360,71 L 360,70 L 359,69 L 359,68 L 359,67 L 358,66 L 358,65 L 358,63 L 358,62 L 358,60 L 358,59 L 357,58 L 357,57 L 357,56 L 357,55 L 356,55 L 356,54 L 355,53 L 355,52 L 355,51 L 355,50 L 355,48 L 355,47 L 355,46 L 355,45 L 355,44 L 354,42 L 354,41 L 353,40 L 353,39 L 353,38 L 353,37 L 354,36 L 355,35 L 356,35 L 356,34 L 357,33 L 358,33 L 358,32 L 359,32 L 360,31 L 361,31 L 361,30 L 362,30 L 363,29 L 364,29 L 364,28 L 365,28 L 366,28 L 367,29 L 368,30 L 369,31 L 370,34 L 372,36 L 372,38 L 373,38 L 374,39 L 376,40 " />
</g>
<g id="lakonia_5" >
<path d="M 489,496 L 488,496 L 489,496 " />
<path d="M 485,495 L 484,495 L 484,494 L 485,494 L 485,495 " />
<path d="M 488,495 L 487,495 L 487,494 L 488,494 L 488,495 " />
<path d="M 527,201 L 528,200 L 529,200 L 529,201 L 530,201 L 531,201 L 531,202 L 531,203 L 531,204 L 531,205 L 532,206 L 532,207 L 533,208 L 534,209 L 534,210 L 535,211 L 535,212 L 536,212 L 537,212 L 537,213 L 538,213 L 538,214 L 539,214 L 540,214 L 540,215 L 541,215 L 541,216 L 542,216 L 542,217 L 542,218 L 543,218 L 543,219 L 544,220 L 545,221 L 545,222 L 546,223 L 546,224 L 546,225 L 546,226 L 546,227 L 546,228 L 547,229 L 548,229 L 549,229 L 550,230 L 550,231 L 550,232 L 551,232 L 551,233 L 551,234 L 552,234 L 557,237 L 558,238 L 559,238 L 559,239 L 559,240 L 559,241 L 558,242 L 557,243 L 557,244 L 556,244 L 556,245 L 555,246 L 554,246 L 553,246 L 551,247 L 550,248 L 549,248 L 548,249 L 548,250 L 548,251 L 547,251 L 547,252 L 547,253 L 547,254 L 547,255 L 547,256 L 546,257 L 545,257 L 544,257 L 544,258 L 543,259 L 543,260 L 543,262 L 544,262 L 544,263 L 545,265 L 545,266 L 545,267 L 546,268 L 546,269 L 547,269 L 549,271 L 550,272 L 551,273 L 551,274 L 552,275 L 552,276 L 553,278 L 554,280 L 555,281 L 555,282 L 556,283 L 557,284 L 557,285 L 558,285 L 559,286 L 560,287 L 560,288 L 561,288 L 562,289 L 563,290 L 564,290 L 565,290 L 566,290 L 567,289 L 568,288 L 570,287 L 571,287 L 572,286 L 573,286 L 573,285 L 574,285 L 575,285 L 576,284 L 576,282 L 577,281 L 577,280 L 577,278 L 577,277 L 578,277 L 578,276 L 579,275 L 579,274 L 580,274 L 581,273 L 581,272 L 582,272 L 583,271 L 584,271 L 585,270 L 586,270 L 587,269 L 588,269 L 589,269 L 590,269 L 591,269 L 592,270 L 594,270 L 595,270 L 596,271 L 597,271 L 597,272 L 598,272 L 598,273 L 599,273 L 599,274 L 599,275 L 600,276 L 601,277 L 601,278 L 602,279 L 603,279 L 603,280 L 604,280 L 604,281 L 605,282 L 606,282 L 606,283 L 607,284 L 608,285 L 608,286 L 609,286 L 610,287 L 611,287 L 613,287 L 614,287 L 615,288 L 616,288 L 616,289 L 617,289 L 618,290 L 618,291 L 619,291 L 619,292 L 620,293 L 620,294 L 621,295 L 621,296 L 621,297 L 622,301 L 622,302 L 623,303 L 623,304 L 623,305 L 624,305 L 624,306 L 625,307 L 626,307 L 627,308 L 628,308 L 629,308 L 630,308 L 631,308 L 632,307 L 633,307 L 634,308 L 635,309 L 635,310 L 636,310 L 636,311 L 637,311 L 638,312 L 639,312 L 639,313 L 640,313 L 642,314 L 643,314 L 644,314 L 645,313 L 646,313 L 648,313 L 649,313 L 650,313 L 652,313 L 653,314 L 654,314 L 654,315 L 655,316 L 655,317 L 656,319 L 656,320 L 656,321 L 656,322 L 656,323 L 656,324 L 656,325 L 657,325 L 657,324 L 658,324 L 660,322 L 661,321 L 662,321 L 663,321 L 664,321 L 665,322 L 666,322 L 667,322 L 668,322 L 669,322 L 670,321 L 671,321 L 670,319 L 670,318 L 669,316 L 669,315 L 669,314 L 669,313 L 670,312 L 670,311 L 671,310 L 672,309 L 673,308 L 674,306 L 675,305 L 675,304 L 675,303 L 675,301 L 676,301 L 677,300 L 679,300 L 679,299 L 681,298 L 685,297 L 686,296 L 687,296 L 689,295 L 690,295 L 692,295 L 694,296 L 695,297 L 696,298 L 697,299 L 698,299 L 698,300 L 699,301 L 699,303 L 700,303 L 700,304 L 701,305 L 702,306 L 703,306 L 703,307 L 704,307 L 705,307 L 707,307 L 708,306 L 708,307 L 708,308 L 709,308 L 709,309 L 710,310 L 711,310 L 712,312 L 713,313 L 715,315 L 715,316 L 716,318 L 717,319 L 717,320 L 717,321 L 717,322 L 716,323 L 716,324 L 715,324 L 714,324 L 713,324 L 712,324 L 711,324 L 710,324 L 710,325 L 710,326 L 709,327 L 709,328 L 709,329 L 710,330 L 710,331 L 710,332 L 710,333 L 710,334 L 710,335 L 711,336 L 711,337 L 711,338 L 711,339 L 710,339 L 709,340 L 708,340 L 708,341 L 708,342 L 708,343 L 708,344 L 709,344 L 709,345 L 709,346 L 709,347 L 710,348 L 710,349 L 711,350 L 711,351 L 712,353 L 713,354 L 714,355 L 715,357 L 717,359 L 718,360 L 719,361 L 720,362 L 719,363 L 718,363 L 717,364 L 717,365 L 716,366 L 717,367 L 718,368 L 719,368 L 719,369 L 720,369 L 720,370 L 721,370 L 721,371 L 722,371 L 722,372 L 723,373 L 724,374 L 725,374 L 725,375 L 726,376 L 727,377 L 729,379 L 730,380 L 731,380 L 731,381 L 732,382 L 731,382 L 729,383 L 728,384 L 727,385 L 725,385 L 725,386 L 724,386 L 722,388 L 722,389 L 721,389 L 720,390 L 719,390 L 718,392 L 716,394 L 716,395 L 715,396 L 715,397 L 714,398 L 712,402 L 712,403 L 711,404 L 710,405 L 710,406 L 709,405 L 707,403 L 706,401 L 705,400 L 704,399 L 703,397 L 702,396 L 701,395 L 700,393 L 699,392 L 697,391 L 697,390 L 696,390 L 696,389 L 696,388 L 695,388 L 694,389 L 694,391 L 693,391 L 693,394 L 693,395 L 693,396 L 693,397 L 693,398 L 694,399 L 695,400 L 695,401 L 695,402 L 694,402 L 692,403 L 691,403 L 689,404 L 688,404 L 687,405 L 686,406 L 686,407 L 686,408 L 685,409 L 683,410 L 683,411 L 684,411 L 685,412 L 686,412 L 686,413 L 686,414 L 685,415 L 684,416 L 684,417 L 682,418 L 680,419 L 679,419 L 678,420 L 677,421 L 674,423 L 673,423 L 671,425 L 671,426 L 670,426 L 669,427 L 668,429 L 668,430 L 667,431 L 666,432 L 665,433 L 665,434 L 665,435 L 664,436 L 664,440 L 664,441 L 664,443 L 664,444 L 664,445 L 664,446 L 664,447 L 664,449 L 664,450 L 663,451 L 663,452 L 662,452 L 662,451 L 661,451 L 660,450 L 659,450 L 658,449 L 658,448 L 657,447 L 657,446 L 657,444 L 656,443 L 656,442 L 655,442 L 655,441 L 654,441 L 653,440 L 651,440 L 649,440 L 648,440 L 646,440 L 645,440 L 644,440 L 642,440 L 640,440 L 638,440 L 637,441 L 634,442 L 633,441 L 633,440 L 633,439 L 632,439 L 632,438 L 632,437 L 631,437 L 631,436 L 630,435 L 629,436 L 628,437 L 628,438 L 627,438 L 627,439 L 626,439 L 625,440 L 625,441 L 624,441 L 624,442 L 623,443 L 624,444 L 625,445 L 625,446 L 626,448 L 628,451 L 628,453 L 629,455 L 629,456 L 630,456 L 630,457 L 631,458 L 632,460 L 633,462 L 634,464 L 634,465 L 635,466 L 635,467 L 636,469 L 637,470 L 637,471 L 638,473 L 638,477 L 637,477 L 636,477 L 635,477 L 632,478 L 632,479 L 631,479 L 630,479 L 629,480 L 628,481 L 627,481 L 627,482 L 626,482 L 625,483 L 625,484 L 624,485 L 623,486 L 622,487 L 622,488 L 621,489 L 620,490 L 618,492 L 618,493 L 616,494 L 615,495 L 614,496 L 613,496 L 612,497 L 611,496 L 610,496 L 610,495 L 610,494 L 610,493 L 609,492 L 609,491 L 608,491 L 607,490 L 606,490 L 605,490 L 605,489 L 604,489 L 603,489 L 602,488 L 601,488 L 600,488 L 599,488 L 598,488 L 598,487 L 597,487 L 596,487 L 595,487 L 594,487 L 593,487 L 593,486 L 592,486 L 591,486 L 590,486 L 589,486 L 588,486 L 587,486 L 586,486 L 585,486 L 584,486 L 584,485 L 583,485 L 582,485 L 581,485 L 580,485 L 579,485 L 578,485 L 577,485 L 576,485 L 575,485 L 574,485 L 573,485 L 572,485 L 571,485 L 570,485 L 569,485 L 568,485 L 567,485 L 566,485 L 565,485 L 564,485 L 563,485 L 562,485 L 561,485 L 560,485 L 559,485 L 558,485 L 557,485 L 556,485 L 555,485 L 554,485 L 553,485 L 552,485 L 551,485 L 550,485 L 549,485 L 548,486 L 547,486 L 546,486 L 545,486 L 544,486 L 543,486 L 542,486 L 541,486 L 540,486 L 539,486 L 538,486 L 537,486 L 536,486 L 535,486 L 535,485 L 534,485 L 533,485 L 532,485 L 531,485 L 530,485 L 529,485 L 528,485 L 527,485 L 527,484 L 526,484 L 525,484 L 524,484 L 523,484 L 522,484 L 522,483 L 521,483 L 520,483 L 519,483 L 518,483 L 517,483 L 516,483 L 515,483 L 514,483 L 513,483 L 512,483 L 511,483 L 510,483 L 509,483 L 508,483 L 507,483 L 506,483 L 505,483 L 504,483 L 503,483 L 502,483 L 501,483 L 500,483 L 499,483 L 498,483 L 497,484 L 496,484 L 495,485 L 495,486 L 495,487 L 495,488 L 495,489 L 494,489 L 493,489 L 493,488 L 492,488 L 492,489 L 493,489 L 493,490 L 493,491 L 492,491 L 491,491 L 490,491 L 490,490 L 490,491 L 490,490 L 490,491 L 489,491 L 488,491 L 487,492 L 486,492 L 485,492 L 484,492 L 484,493 L 483,493 L 482,493 L 482,494 L 481,494 L 481,495 L 480,495 L 480,496 L 480,495 L 479,495 L 479,496 L 478,496 L 477,496 L 476,496 L 475,496 L 475,497 L 474,497 L 473,497 L 472,497 L 471,497 L 471,498 L 470,498 L 469,498 L 469,499 L 469,500 L 469,501 L 468,500 L 467,500 L 467,499 L 466,498 L 465,496 L 465,495 L 464,495 L 464,494 L 463,494 L 462,494 L 460,494 L 459,494 L 457,494 L 456,495 L 455,495 L 454,495 L 454,494 L 454,493 L 455,492 L 454,491 L 454,490 L 453,490 L 453,489 L 453,488 L 452,488 L 451,489 L 450,489 L 449,489 L 449,488 L 450,488 L 450,487 L 449,487 L 449,486 L 450,486 L 451,486 L 451,485 L 451,484 L 452,483 L 453,482 L 454,482 L 454,481 L 454,480 L 455,480 L 455,479 L 456,479 L 456,478 L 455,478 L 455,477 L 455,476 L 454,476 L 453,475 L 451,475 L 450,474 L 449,473 L 448,473 L 448,472 L 448,470 L 448,468 L 448,465 L 448,464 L 448,463 L 448,462 L 448,461 L 447,460 L 447,459 L 445,456 L 443,453 L 443,452 L 441,450 L 440,448 L 439,447 L 439,446 L 438,446 L 438,445 L 437,444 L 436,442 L 436,440 L 435,440 L 435,439 L 433,438 L 432,438 L 430,438 L 430,437 L 429,437 L 427,436 L 427,435 L 424,434 L 423,434 L 421,434 L 418,434 L 417,434 L 416,433 L 414,433 L 413,433 L 412,432 L 411,432 L 411,431 L 410,431 L 409,430 L 408,430 L 407,430 L 406,430 L 406,431 L 405,431 L 405,432 L 405,431 L 404,430 L 404,428 L 404,427 L 403,426 L 403,425 L 402,424 L 402,423 L 401,423 L 401,422 L 400,422 L 400,421 L 399,421 L 398,421 L 397,420 L 396,420 L 395,420 L 394,419 L 392,419 L 392,417 L 391,416 L 390,415 L 390,414 L 390,413 L 390,412 L 390,411 L 390,410 L 390,409 L 390,408 L 390,407 L 391,406 L 391,403 L 392,402 L 393,402 L 393,401 L 392,400 L 391,400 L 391,399 L 392,398 L 393,397 L 394,396 L 394,395 L 394,394 L 394,393 L 395,392 L 396,392 L 398,391 L 399,391 L 401,390 L 402,389 L 404,389 L 407,388 L 410,388 L 411,388 L 412,388 L 413,388 L 414,388 L 415,388 L 416,388 L 416,389 L 417,389 L 418,389 L 418,390 L 419,390 L 420,391 L 420,390 L 420,389 L 421,389 L 421,388 L 421,387 L 421,386 L 421,385 L 421,384 L 421,382 L 422,379 L 422,378 L 421,377 L 421,376 L 420,376 L 420,375 L 420,374 L 420,372 L 420,371 L 420,370 L 420,369 L 421,368 L 422,367 L 423,365 L 424,364 L 424,363 L 423,363 L 423,362 L 422,361 L 421,361 L 421,360 L 421,359 L 421,358 L 421,355 L 421,354 L 420,353 L 419,353 L 420,353 L 420,352 L 421,351 L 422,351 L 423,350 L 423,349 L 423,348 L 424,347 L 424,346 L 425,345 L 426,345 L 426,344 L 426,343 L 428,342 L 429,341 L 430,341 L 430,340 L 431,338 L 432,338 L 432,337 L 433,337 L 434,336 L 435,336 L 435,335 L 436,334 L 437,334 L 439,332 L 441,331 L 443,330 L 444,330 L 445,329 L 445,328 L 445,327 L 446,327 L 447,328 L 449,329 L 450,329 L 451,330 L 452,330 L 452,331 L 453,332 L 454,332 L 455,332 L 455,331 L 456,331 L 457,331 L 457,330 L 458,329 L 458,328 L 459,328 L 460,328 L 461,328 L 461,329 L 460,329 L 460,330 L 459,331 L 459,332 L 460,332 L 460,333 L 461,333 L 461,334 L 462,335 L 462,336 L 463,337 L 463,338 L 464,338 L 465,338 L 465,337 L 466,336 L 467,336 L 468,336 L 469,336 L 470,336 L 470,337 L 470,338 L 470,340 L 470,341 L 471,342 L 471,343 L 472,343 L 472,344 L 473,344 L 474,344 L 476,345 L 477,345 L 478,345 L 480,345 L 481,346 L 483,346 L 484,346 L 485,346 L 486,346 L 487,347 L 488,348 L 488,349 L 489,349 L 489,348 L 489,345 L 490,344 L 490,343 L 490,342 L 491,342 L 491,341 L 490,341 L 489,340 L 489,339 L 490,339 L 490,338 L 490,337 L 491,337 L 492,337 L 492,336 L 492,335 L 491,334 L 491,333 L 491,332 L 492,332 L 493,332 L 494,332 L 495,331 L 496,330 L 497,330 L 498,329 L 498,328 L 498,327 L 498,326 L 499,326 L 500,326 L 501,325 L 502,324 L 503,322 L 504,322 L 505,321 L 505,320 L 506,321 L 507,320 L 508,319 L 508,318 L 508,317 L 508,316 L 508,315 L 508,314 L 509,313 L 509,312 L 510,312 L 510,311 L 511,309 L 511,308 L 512,306 L 512,305 L 512,304 L 513,303 L 513,302 L 513,301 L 514,300 L 513,299 L 513,298 L 513,297 L 513,296 L 513,295 L 514,293 L 514,292 L 513,291 L 513,290 L 512,289 L 512,288 L 512,287 L 511,287 L 512,286 L 511,286 L 511,285 L 510,284 L 509,283 L 508,283 L 507,283 L 506,282 L 504,281 L 502,280 L 501,280 L 500,279 L 499,278 L 499,277 L 498,276 L 496,275 L 495,273 L 494,272 L 493,271 L 494,270 L 494,269 L 494,268 L 494,267 L 494,266 L 494,265 L 494,264 L 495,262 L 495,261 L 496,260 L 496,259 L 496,258 L 496,256 L 495,254 L 496,250 L 496,248 L 495,246 L 495,245 L 494,243 L 493,241 L 493,240 L 493,239 L 493,237 L 493,234 L 492,232 L 492,231 L 492,230 L 492,229 L 493,228 L 493,226 L 494,226 L 495,225 L 496,225 L 498,224 L 499,224 L 500,223 L 501,223 L 502,223 L 503,222 L 505,222 L 506,221 L 507,221 L 508,220 L 509,220 L 510,219 L 511,219 L 511,218 L 512,218 L 512,217 L 513,217 L 514,216 L 515,215 L 515,214 L 515,213 L 515,212 L 515,208 L 515,207 L 515,206 L 515,205 L 514,203 L 515,203 L 516,203 L 516,202 L 517,202 L 518,201 L 519,200 L 520,199 L 521,198 L 522,197 L 523,197 L 523,196 L 524,196 L 524,197 L 525,198 L 526,200 L 526,201 L 527,201 " />
</g>
</g>
</g>
<!-- QGIS extent for clipping, eg in Inkscape -->
<g id="qgisviewbox" inkscape:groupmode="layer" inkscape:label="qgisviewbox" stroke="rgb(255,0,0)" stroke-width="1" fill="none" >
<path d="M 0,882 L 1060,882 L 1060,0 L 0,0 L 0,882 " />
</g></svg>