<?xml version="1.0" standalone="no"?>
<!DOCTYPE svg PUBLIC "-//W3C//DTD SVG 1.1//EN" "http://www.w3.org/Graphics/SVG/1.1/DTD/svg11.dtd">
<svg xmlns="http://www.w3.org/2000/svg" xmlns:inkscape="http://www.inkscape.org/namespaces/inkscape" xmlns:xlink="http://www.w3.org/1999/xlink" viewBox = "0 0 1065 886" version = "1.1">
<!-- svg generated using QGIS www.qgis.org -->
<g id="lasithi" inkscape:groupmode="layer" inkscape:label="lasithi">
<g stroke="none" fill="rgb(166,43,39)" stroke-linejoin="round" stroke-width="0.26">
<g id="lasithi_1" >
<path d="M 450,710 L 450,711 L 451,711 L 451,710 L 452,710 L 452,711 L 452,712 L 452,713 L 451,713 L 450,713 L 449,713 L 449,712 L 449,711 L 450,711 L 450,710 " />
<path d="M 441,708 L 441,709 L 442,709 L 442,710 L 441,710 L 441,711 L 441,712 L 442,712 L 442,713 L 443,713 L 443,714 L 442,714 L 443,714 L 443,715 L 442,715 L 442,716 L 441,715 L 441,714 L 440,714 L 439,714 L 439,715 L 438,715 L 437,715 L 437,716 L 436,716 L 436,715 L 435,715 L 435,716 L 434,716 L 433,716 L 433,717 L 433,718 L 433,719 L 432,719 L 432,718 L 432,719 L 431,719 L 430,719 L 429,719 L 428,719 L 427,719 L 427,720 L 427,721 L 426,721 L 425,722 L 424,722 L 423,722 L 422,722 L 421,722 L 420,722 L 419,722 L 418,722 L 417,722 L 416,722 L 415,722 L 415,721 L 414,721 L 413,721 L 412,721 L 411,721 L 411,720 L 410,720 L 409,720 L 408,720 L 407,720 L 406,720 L 406,719 L 405,720 L 405,719 L 405,720 L 405,719 L 404,719 L 403,718 L 403,717 L 402,717 L 402,716 L 403,716 L 403,715 L 403,714 L 404,714 L 404,713 L 404,712 L 405,712 L 405,711 L 404,711 L 405,711 L 406,711 L 407,711 L 407,710 L 408,709 L 409,709 L 409,708 L 410,708 L 410,709 L 411,709 L 412,709 L 412,708 L 413,708 L 413,709 L 413,710 L 414,710 L 414,709 L 414,710 L 415,710 L 416,710 L 417,710 L 418,710 L 417,710 L 417,711 L 418,711 L 417,711 L 418,711 L 418,712 L 419,712 L 419,713 L 420,713 L 421,713 L 422,713 L 423,713 L 424,713 L 425,713 L 425,712 L 425,713 L 426,713 L 427,713 L 427,712 L 428,712 L 429,712 L 430,712 L 430,711 L 431,711 L 431,712 L 432,712 L 433,712 L 434,712 L 434,711 L 435,711 L 436,711 L 436,710 L 435,710 L 436,710 L 436,709 L 436,710 L 437,709 L 437,708 L 438,708 L 439,708 L 440,708 L 440,707 L 440,708 L 441,708 " />
<path d="M 522,586 L 522,585 L 522,586 " />
<path d="M 538,579 L 538,578 L 538,579 " />
<path d="M 546,579 L 546,578 L 546,579 " />
<path d="M 547,578 L 546,578 L 547,578 " />
<path d="M 575,568 L 575,567 L 576,567 L 575,567 L 575,568 " />
<path d="M 493,491 L 492,491 L 492,490 L 493,490 L 493,491 " />
<path d="M 491,488 L 491,489 L 491,488 " />
<path d="M 471,482 L 470,482 L 471,482 " />
<path d="M 499,477 L 499,478 L 499,479 L 498,479 L 498,478 L 498,477 L 499,477 " />
<path d="M 513,472 L 513,473 L 514,472 L 514,473 L 513,473 L 513,472 " />
<path d="M 526,449 L 525,449 L 525,448 L 526,449 " />
<path d="M 532,446 L 533,446 L 533,447 L 534,447 L 535,448 L 534,448 L 534,449 L 534,450 L 535,450 L 536,450 L 536,451 L 536,452 L 536,453 L 537,453 L 538,453 L 538,452 L 539,452 L 539,451 L 539,450 L 540,450 L 540,449 L 541,449 L 541,448 L 542,448 L 542,447 L 543,447 L 544,447 L 545,447 L 546,447 L 547,447 L 548,447 L 550,448 L 551,448 L 553,450 L 554,452 L 555,452 L 555,453 L 555,455 L 555,456 L 553,459 L 552,462 L 551,464 L 550,465 L 549,469 L 549,470 L 549,471 L 549,472 L 549,473 L 550,474 L 551,475 L 553,475 L 557,476 L 559,476 L 561,477 L 563,477 L 564,478 L 565,478 L 566,479 L 567,480 L 572,483 L 574,483 L 576,483 L 577,483 L 579,482 L 581,482 L 585,483 L 588,483 L 591,483 L 595,484 L 598,483 L 601,483 L 604,483 L 605,483 L 606,483 L 610,483 L 616,483 L 617,483 L 618,483 L 619,482 L 620,481 L 621,478 L 621,477 L 622,477 L 623,477 L 624,477 L 625,476 L 626,477 L 627,477 L 628,479 L 629,480 L 629,481 L 629,484 L 629,486 L 630,487 L 631,491 L 632,492 L 632,493 L 632,494 L 631,495 L 630,495 L 630,498 L 632,498 L 633,499 L 635,500 L 636,500 L 637,500 L 639,500 L 642,498 L 643,498 L 644,498 L 645,498 L 645,499 L 647,503 L 648,504 L 649,505 L 651,506 L 652,507 L 653,508 L 653,509 L 654,510 L 655,514 L 657,515 L 657,514 L 658,513 L 659,512 L 660,512 L 660,511 L 660,510 L 660,508 L 660,507 L 661,505 L 663,501 L 666,502 L 667,502 L 668,503 L 669,504 L 671,506 L 672,507 L 673,508 L 674,508 L 676,509 L 677,510 L 679,510 L 682,510 L 683,510 L 683,511 L 685,513 L 689,517 L 690,518 L 690,519 L 689,520 L 686,522 L 685,523 L 685,524 L 685,525 L 686,525 L 687,526 L 689,526 L 695,527 L 697,528 L 698,529 L 698,530 L 699,532 L 700,533 L 701,534 L 701,535 L 701,537 L 702,537 L 702,538 L 703,538 L 704,539 L 706,539 L 708,539 L 708,540 L 708,541 L 708,542 L 707,544 L 706,547 L 706,548 L 705,548 L 703,550 L 702,552 L 702,553 L 703,554 L 705,556 L 706,557 L 706,558 L 707,561 L 708,562 L 708,563 L 707,564 L 707,565 L 706,566 L 705,567 L 705,568 L 706,568 L 707,571 L 707,572 L 707,573 L 707,574 L 706,574 L 706,573 L 705,573 L 704,573 L 703,573 L 702,573 L 701,573 L 700,573 L 700,572 L 699,572 L 698,572 L 698,571 L 697,571 L 697,572 L 696,572 L 695,572 L 694,572 L 693,572 L 692,572 L 691,572 L 690,572 L 689,572 L 689,573 L 688,573 L 687,573 L 686,573 L 685,574 L 684,574 L 684,575 L 683,575 L 682,575 L 682,574 L 681,574 L 680,575 L 679,575 L 678,575 L 677,575 L 676,576 L 675,576 L 674,575 L 673,575 L 672,575 L 672,574 L 671,574 L 671,575 L 670,575 L 671,575 L 671,576 L 670,576 L 669,576 L 669,577 L 668,577 L 668,578 L 667,578 L 667,579 L 666,579 L 666,580 L 665,580 L 664,580 L 664,579 L 663,579 L 663,578 L 664,578 L 663,578 L 662,578 L 662,577 L 661,577 L 661,576 L 661,575 L 660,575 L 660,574 L 659,574 L 658,574 L 658,573 L 657,573 L 656,573 L 655,573 L 655,574 L 655,573 L 654,573 L 653,573 L 652,573 L 652,574 L 651,574 L 651,575 L 650,575 L 649,575 L 648,574 L 647,574 L 646,574 L 646,573 L 645,573 L 644,573 L 644,572 L 645,572 L 646,571 L 646,570 L 646,569 L 645,569 L 645,568 L 644,568 L 644,567 L 643,566 L 642,565 L 641,564 L 640,563 L 639,563 L 639,562 L 638,562 L 637,562 L 637,561 L 636,561 L 635,561 L 635,560 L 635,559 L 635,558 L 634,558 L 633,558 L 632,558 L 632,557 L 631,557 L 630,557 L 629,557 L 628,557 L 627,557 L 626,557 L 625,557 L 624,557 L 624,558 L 623,558 L 623,559 L 624,559 L 624,560 L 624,561 L 623,561 L 622,561 L 621,561 L 621,560 L 620,560 L 620,561 L 619,561 L 618,561 L 617,561 L 617,562 L 616,562 L 615,562 L 615,563 L 615,564 L 614,564 L 613,564 L 612,564 L 611,564 L 610,565 L 609,565 L 608,565 L 607,565 L 606,565 L 606,564 L 605,564 L 604,563 L 603,563 L 602,563 L 601,563 L 600,563 L 599,562 L 598,562 L 597,562 L 596,562 L 595,562 L 594,562 L 593,562 L 592,562 L 591,562 L 590,563 L 589,563 L 588,563 L 587,563 L 586,563 L 585,563 L 584,563 L 583,563 L 583,564 L 582,564 L 582,565 L 581,565 L 580,565 L 580,566 L 579,566 L 578,566 L 578,567 L 577,567 L 577,566 L 576,566 L 576,567 L 575,567 L 574,567 L 573,567 L 572,567 L 571,567 L 570,567 L 569,567 L 569,568 L 568,568 L 567,568 L 566,568 L 566,569 L 565,570 L 565,571 L 564,571 L 564,570 L 563,570 L 562,570 L 561,570 L 560,570 L 560,571 L 559,571 L 559,572 L 558,572 L 558,571 L 558,572 L 557,572 L 556,572 L 555,572 L 554,572 L 554,573 L 553,573 L 552,573 L 552,574 L 551,574 L 550,574 L 549,574 L 549,575 L 548,575 L 548,576 L 547,576 L 547,577 L 546,577 L 546,578 L 545,578 L 544,578 L 544,577 L 543,577 L 543,576 L 543,577 L 542,577 L 541,577 L 541,576 L 540,576 L 540,577 L 539,577 L 539,578 L 538,578 L 537,578 L 537,577 L 536,577 L 536,578 L 535,578 L 534,578 L 534,579 L 534,580 L 534,581 L 533,581 L 532,581 L 531,581 L 530,581 L 529,581 L 528,581 L 527,581 L 526,581 L 525,581 L 525,582 L 524,582 L 523,582 L 523,583 L 523,584 L 524,584 L 524,585 L 523,585 L 522,585 L 522,584 L 522,585 L 521,585 L 520,585 L 519,586 L 518,586 L 518,587 L 517,587 L 516,587 L 515,587 L 515,588 L 514,588 L 513,588 L 513,589 L 512,589 L 511,589 L 510,589 L 510,590 L 509,590 L 508,590 L 508,591 L 507,591 L 506,592 L 505,592 L 504,593 L 504,594 L 503,594 L 503,595 L 503,596 L 502,596 L 502,595 L 501,595 L 501,596 L 500,596 L 499,596 L 499,595 L 498,596 L 497,596 L 497,595 L 496,595 L 496,596 L 495,596 L 494,596 L 493,596 L 492,596 L 491,596 L 490,597 L 489,597 L 488,598 L 487,597 L 486,598 L 485,598 L 485,597 L 484,597 L 483,597 L 482,597 L 481,597 L 480,596 L 479,596 L 478,596 L 477,596 L 477,595 L 476,595 L 476,596 L 475,596 L 474,596 L 473,596 L 472,596 L 471,596 L 470,596 L 469,595 L 468,595 L 467,594 L 466,594 L 466,593 L 465,593 L 464,592 L 463,592 L 462,591 L 461,591 L 461,590 L 460,590 L 459,590 L 459,589 L 458,589 L 457,589 L 456,589 L 456,588 L 455,588 L 454,588 L 453,588 L 452,588 L 452,587 L 451,587 L 450,587 L 449,587 L 449,588 L 448,588 L 447,588 L 446,588 L 446,589 L 445,589 L 445,590 L 446,590 L 446,591 L 445,591 L 444,591 L 444,592 L 444,593 L 444,594 L 443,593 L 442,593 L 442,594 L 443,594 L 444,594 L 444,593 L 445,593 L 445,594 L 444,594 L 443,595 L 442,595 L 442,594 L 442,593 L 441,592 L 440,592 L 439,592 L 439,591 L 438,591 L 437,591 L 437,590 L 436,590 L 435,590 L 434,590 L 433,590 L 432,590 L 432,589 L 431,589 L 430,588 L 429,588 L 428,588 L 427,588 L 427,587 L 426,587 L 425,587 L 424,587 L 423,586 L 422,586 L 421,585 L 421,586 L 420,586 L 420,587 L 419,587 L 418,587 L 418,586 L 417,586 L 416,586 L 416,585 L 415,585 L 414,585 L 413,585 L 413,584 L 412,584 L 411,584 L 410,584 L 409,584 L 408,584 L 407,584 L 406,584 L 405,584 L 404,584 L 403,584 L 403,585 L 402,585 L 401,585 L 400,585 L 399,585 L 398,586 L 397,586 L 396,586 L 395,587 L 394,587 L 394,588 L 393,588 L 393,589 L 393,590 L 392,590 L 392,591 L 391,591 L 390,591 L 389,591 L 389,592 L 388,592 L 387,593 L 386,594 L 385,594 L 385,593 L 384,593 L 383,593 L 382,593 L 381,593 L 381,592 L 380,592 L 380,593 L 379,593 L 378,593 L 377,593 L 376,592 L 375,592 L 375,593 L 374,593 L 374,592 L 373,592 L 372,592 L 371,593 L 370,593 L 369,593 L 368,593 L 368,594 L 367,594 L 366,594 L 366,593 L 365,593 L 364,593 L 363,593 L 362,593 L 361,593 L 361,594 L 360,594 L 359,594 L 358,594 L 358,593 L 357,593 L 356,593 L 355,593 L 354,593 L 353,593 L 352,593 L 351,593 L 350,593 L 349,593 L 348,593 L 347,593 L 346,593 L 345,593 L 344,593 L 343,593 L 342,593 L 341,593 L 340,592 L 339,592 L 338,592 L 337,592 L 336,592 L 335,592 L 334,592 L 333,593 L 332,593 L 332,594 L 331,594 L 330,595 L 329,596 L 328,596 L 327,596 L 326,596 L 325,596 L 324,596 L 323,596 L 323,597 L 322,597 L 322,598 L 321,598 L 321,599 L 321,600 L 320,600 L 320,601 L 319,601 L 318,601 L 317,601 L 317,602 L 317,601 L 316,601 L 315,601 L 314,601 L 313,601 L 312,601 L 311,601 L 311,602 L 310,602 L 309,602 L 308,602 L 307,602 L 306,603 L 305,603 L 304,603 L 304,604 L 304,605 L 303,605 L 303,606 L 302,606 L 302,607 L 301,607 L 301,608 L 299,604 L 298,602 L 298,600 L 298,599 L 297,597 L 298,595 L 298,594 L 298,593 L 299,591 L 299,589 L 299,587 L 299,585 L 299,584 L 298,581 L 296,581 L 296,580 L 295,580 L 295,579 L 294,579 L 290,576 L 289,576 L 288,575 L 288,574 L 287,574 L 286,575 L 284,577 L 284,574 L 284,573 L 284,572 L 283,570 L 282,565 L 280,565 L 279,565 L 277,565 L 275,565 L 272,565 L 267,564 L 261,562 L 260,562 L 259,559 L 258,557 L 257,555 L 257,554 L 257,553 L 258,553 L 258,552 L 259,552 L 260,552 L 261,552 L 262,552 L 263,552 L 264,550 L 266,549 L 268,547 L 269,547 L 269,546 L 270,544 L 270,543 L 271,542 L 273,541 L 276,539 L 274,538 L 273,537 L 271,536 L 270,535 L 269,534 L 268,533 L 268,532 L 267,531 L 266,530 L 265,530 L 265,529 L 264,527 L 263,526 L 263,525 L 262,525 L 261,525 L 260,525 L 255,522 L 253,522 L 251,522 L 250,522 L 246,521 L 244,521 L 243,520 L 240,519 L 239,518 L 239,516 L 239,514 L 239,513 L 240,513 L 244,512 L 245,512 L 245,511 L 247,509 L 248,508 L 249,507 L 250,507 L 250,506 L 256,504 L 257,503 L 257,502 L 257,501 L 256,498 L 256,496 L 256,495 L 257,493 L 259,490 L 260,489 L 261,489 L 264,489 L 276,489 L 277,489 L 280,489 L 282,490 L 285,490 L 291,490 L 301,489 L 305,488 L 306,488 L 306,489 L 307,490 L 308,491 L 309,491 L 311,491 L 316,491 L 317,490 L 319,490 L 321,489 L 323,489 L 323,488 L 324,488 L 324,491 L 324,492 L 324,493 L 325,494 L 327,496 L 328,496 L 330,497 L 331,497 L 332,496 L 333,496 L 333,497 L 335,498 L 336,498 L 338,499 L 339,499 L 340,500 L 341,501 L 342,501 L 344,500 L 346,500 L 348,500 L 350,500 L 355,501 L 356,501 L 357,501 L 358,501 L 360,499 L 361,498 L 362,498 L 364,498 L 367,498 L 371,498 L 374,498 L 378,499 L 378,500 L 378,501 L 376,503 L 375,503 L 375,504 L 374,505 L 374,506 L 375,508 L 376,510 L 377,511 L 377,513 L 377,514 L 377,516 L 377,517 L 379,518 L 380,518 L 382,518 L 383,518 L 385,515 L 387,515 L 388,514 L 389,514 L 390,514 L 390,515 L 391,515 L 392,516 L 393,518 L 394,521 L 394,522 L 395,522 L 395,523 L 397,523 L 401,525 L 402,526 L 405,528 L 407,530 L 407,531 L 408,533 L 409,532 L 409,531 L 408,529 L 408,528 L 408,527 L 408,526 L 407,525 L 407,524 L 407,521 L 407,520 L 407,519 L 407,518 L 407,517 L 409,513 L 410,512 L 411,506 L 412,505 L 416,507 L 418,508 L 419,509 L 420,509 L 420,508 L 423,506 L 424,506 L 425,505 L 425,504 L 425,503 L 426,501 L 427,500 L 428,498 L 428,497 L 429,497 L 430,497 L 431,500 L 431,501 L 432,501 L 433,503 L 434,503 L 434,504 L 434,505 L 435,505 L 436,505 L 440,507 L 441,507 L 442,507 L 442,508 L 443,508 L 443,509 L 443,510 L 444,510 L 445,511 L 446,512 L 447,512 L 447,513 L 447,515 L 448,517 L 449,519 L 449,520 L 451,520 L 452,520 L 453,519 L 454,518 L 455,516 L 455,515 L 456,513 L 456,510 L 456,509 L 457,508 L 457,507 L 458,506 L 460,503 L 461,502 L 461,501 L 460,500 L 458,498 L 457,497 L 457,496 L 457,495 L 458,495 L 459,495 L 460,495 L 462,495 L 465,496 L 471,497 L 471,493 L 471,491 L 471,490 L 470,488 L 469,487 L 469,486 L 469,483 L 469,484 L 470,484 L 470,483 L 471,483 L 472,483 L 472,484 L 473,484 L 474,484 L 474,485 L 474,486 L 475,486 L 475,485 L 474,485 L 474,484 L 475,484 L 476,484 L 476,483 L 475,483 L 476,483 L 476,484 L 477,484 L 477,485 L 477,486 L 478,486 L 478,487 L 479,487 L 479,488 L 480,488 L 480,489 L 481,489 L 481,490 L 482,490 L 482,489 L 483,489 L 484,489 L 485,489 L 485,488 L 486,488 L 487,488 L 487,489 L 487,490 L 488,490 L 489,490 L 489,489 L 490,489 L 491,489 L 492,489 L 492,490 L 492,491 L 493,491 L 493,492 L 493,493 L 494,493 L 495,493 L 496,493 L 497,493 L 498,493 L 499,493 L 500,493 L 501,492 L 502,492 L 502,491 L 503,490 L 504,490 L 504,489 L 505,489 L 505,488 L 506,488 L 506,487 L 507,487 L 507,486 L 507,485 L 508,485 L 508,484 L 509,484 L 509,483 L 510,483 L 510,482 L 510,481 L 511,481 L 511,480 L 511,479 L 511,478 L 512,477 L 512,476 L 513,476 L 513,475 L 513,474 L 514,474 L 514,473 L 514,472 L 515,472 L 516,471 L 517,471 L 518,471 L 518,470 L 518,469 L 517,469 L 517,468 L 516,468 L 516,467 L 517,467 L 518,467 L 518,466 L 519,466 L 520,466 L 521,466 L 522,466 L 522,465 L 523,465 L 523,464 L 523,463 L 523,462 L 522,462 L 522,461 L 522,460 L 523,460 L 523,459 L 524,459 L 524,458 L 523,458 L 523,457 L 523,456 L 523,455 L 523,454 L 524,454 L 524,453 L 524,452 L 525,451 L 526,451 L 526,450 L 526,449 L 527,449 L 528,449 L 529,449 L 529,448 L 530,447 L 531,447 L 531,446 L 532,446 " />
</g>
<g id="lasithi_2" >
<path d="M 748,663 L 749,663 L 749,664 L 748,664 L 748,665 L 748,666 L 748,667 L 747,667 L 747,668 L 747,669 L 746,669 L 745,669 L 745,668 L 746,668 L 745,668 L 746,668 L 746,667 L 746,666 L 746,665 L 745,665 L 746,665 L 747,665 L 747,664 L 748,663 " />
<path d="M 743,640 L 742,640 L 743,640 " />
<path d="M 751,642 L 752,642 L 753,642 L 753,643 L 754,643 L 754,642 L 754,643 L 755,643 L 756,643 L 757,643 L 758,643 L 759,643 L 760,643 L 761,643 L 761,644 L 762,644 L 762,645 L 763,645 L 764,645 L 765,645 L 765,646 L 766,646 L 766,647 L 765,647 L 765,648 L 765,649 L 764,649 L 764,650 L 764,651 L 763,651 L 763,652 L 762,652 L 762,653 L 761,653 L 760,653 L 760,654 L 759,654 L 758,654 L 757,654 L 756,654 L 756,655 L 755,655 L 755,656 L 754,657 L 754,658 L 753,658 L 753,659 L 752,659 L 752,660 L 751,660 L 751,661 L 750,661 L 750,662 L 750,661 L 749,661 L 749,662 L 748,662 L 748,661 L 749,661 L 749,660 L 750,660 L 751,659 L 750,659 L 751,659 L 750,659 L 750,658 L 749,658 L 750,658 L 750,657 L 751,657 L 750,657 L 750,656 L 750,655 L 749,655 L 749,656 L 749,655 L 748,655 L 747,655 L 747,656 L 747,655 L 747,654 L 747,653 L 746,653 L 745,653 L 745,654 L 744,654 L 744,655 L 743,655 L 742,655 L 741,655 L 742,655 L 741,655 L 741,654 L 741,653 L 742,653 L 742,652 L 741,652 L 741,651 L 742,651 L 742,650 L 743,650 L 743,649 L 742,649 L 742,648 L 743,648 L 742,648 L 741,648 L 741,647 L 742,647 L 743,647 L 743,646 L 742,646 L 742,645 L 743,645 L 743,644 L 742,644 L 743,644 L 743,643 L 742,643 L 742,644 L 742,643 L 741,643 L 741,642 L 742,642 L 743,642 L 743,641 L 744,641 L 744,640 L 745,640 L 746,639 L 746,638 L 747,638 L 748,638 L 748,639 L 748,640 L 749,640 L 750,641 L 751,641 L 751,642 " />
<path d="M 745,634 L 746,634 L 746,635 L 745,635 L 744,635 L 743,635 L 743,636 L 742,636 L 742,635 L 743,635 L 743,634 L 744,634 L 745,633 L 745,634 " />
<path d="M 747,627 L 747,628 L 748,628 L 748,629 L 749,629 L 749,630 L 749,631 L 748,631 L 748,632 L 747,632 L 746,632 L 745,632 L 746,632 L 746,631 L 746,630 L 746,629 L 746,628 L 746,627 L 747,627 " />
<path d="M 735,596 L 734,596 L 734,597 L 734,596 L 734,595 L 735,595 L 735,596 " />
<path d="M 734,595 L 733,595 L 734,595 " />
<path d="M 798,577 L 797,577 L 797,576 L 797,575 L 798,575 L 798,576 L 798,577 " />
<path d="M 820,565 L 819,564 L 819,563 L 820,563 L 820,564 L 820,565 " />
<path d="M 819,562 L 818,562 L 818,561 L 819,561 L 819,562 " />
<path d="M 826,561 L 825,561 L 824,560 L 825,560 L 826,561 " />
<path d="M 570,419 L 571,419 L 571,420 L 571,421 L 570,421 L 569,421 L 569,420 L 569,419 L 570,419 " />
<path d="M 543,411 L 543,412 L 543,413 L 543,414 L 543,415 L 542,415 L 542,416 L 541,417 L 541,416 L 540,416 L 540,417 L 539,417 L 539,418 L 538,418 L 538,419 L 538,420 L 537,420 L 537,421 L 538,421 L 538,422 L 538,423 L 538,422 L 537,422 L 537,423 L 537,424 L 537,425 L 536,425 L 535,425 L 535,426 L 534,426 L 533,426 L 533,427 L 532,427 L 532,426 L 531,426 L 531,425 L 530,425 L 529,425 L 528,425 L 528,424 L 528,423 L 529,423 L 529,422 L 529,421 L 530,421 L 530,420 L 530,419 L 531,418 L 531,417 L 532,417 L 532,416 L 533,416 L 534,416 L 534,415 L 535,415 L 536,415 L 537,415 L 538,415 L 538,414 L 537,414 L 537,413 L 538,413 L 538,412 L 539,412 L 539,411 L 540,411 L 541,411 L 541,410 L 542,410 L 542,411 L 543,411 " />
<path d="M 637,407 L 636,407 L 637,407 " />
<path d="M 635,406 L 635,407 L 635,406 " />
<path d="M 864,402 L 864,401 L 864,400 L 865,400 L 865,401 L 865,402 L 864,402 " />
<path d="M 873,392 L 874,392 L 874,393 L 874,394 L 873,394 L 873,393 L 873,394 L 873,395 L 872,395 L 872,396 L 871,396 L 871,397 L 870,397 L 869,397 L 869,398 L 868,398 L 868,399 L 867,400 L 866,400 L 866,399 L 866,398 L 867,398 L 867,397 L 868,397 L 868,396 L 868,395 L 868,394 L 869,394 L 870,393 L 871,393 L 872,393 L 872,392 L 873,392 " />
<path d="M 662,378 L 662,377 L 662,378 " />
<path d="M 894,324 L 895,324 L 896,324 L 896,325 L 897,325 L 897,326 L 897,327 L 898,327 L 898,328 L 899,328 L 899,329 L 899,328 L 900,328 L 900,329 L 901,329 L 902,329 L 903,330 L 904,330 L 905,330 L 905,331 L 906,331 L 907,331 L 907,332 L 907,331 L 908,332 L 908,333 L 909,333 L 909,334 L 910,334 L 910,335 L 909,335 L 909,336 L 908,336 L 907,336 L 906,336 L 907,336 L 906,336 L 905,336 L 905,337 L 904,337 L 904,336 L 904,337 L 903,337 L 903,338 L 902,338 L 902,337 L 901,336 L 901,337 L 901,338 L 900,338 L 900,337 L 899,337 L 899,336 L 899,337 L 898,337 L 897,337 L 897,336 L 896,336 L 895,336 L 895,335 L 896,335 L 896,334 L 895,334 L 895,335 L 894,335 L 894,334 L 894,333 L 894,332 L 894,331 L 893,331 L 893,330 L 893,329 L 894,329 L 894,328 L 893,328 L 893,327 L 892,327 L 892,326 L 893,326 L 893,325 L 893,324 L 894,324 " />
<path d="M 876,292 L 877,292 L 878,292 L 878,293 L 879,294 L 879,295 L 879,296 L 878,296 L 878,295 L 877,295 L 877,296 L 878,296 L 878,297 L 877,297 L 877,298 L 878,298 L 878,297 L 879,297 L 879,298 L 880,298 L 879,298 L 879,299 L 878,299 L 878,300 L 877,300 L 877,301 L 878,301 L 879,301 L 879,302 L 879,303 L 878,303 L 877,303 L 877,304 L 876,304 L 875,304 L 874,303 L 874,304 L 873,305 L 873,304 L 872,304 L 872,305 L 871,305 L 872,305 L 872,306 L 871,306 L 870,306 L 870,307 L 871,307 L 872,307 L 872,308 L 873,308 L 874,308 L 874,309 L 873,309 L 874,309 L 874,310 L 874,311 L 874,312 L 874,313 L 875,313 L 874,314 L 873,314 L 873,313 L 872,313 L 872,314 L 872,315 L 871,315 L 870,315 L 869,316 L 868,316 L 868,315 L 867,315 L 867,316 L 866,316 L 865,316 L 864,316 L 863,316 L 863,317 L 864,317 L 865,317 L 865,318 L 866,318 L 866,319 L 866,320 L 866,321 L 866,320 L 865,320 L 864,320 L 863,320 L 863,319 L 862,318 L 862,319 L 862,320 L 862,321 L 862,322 L 863,322 L 863,323 L 864,322 L 864,323 L 864,324 L 864,325 L 863,325 L 863,326 L 862,326 L 862,327 L 862,328 L 861,328 L 861,329 L 860,329 L 860,330 L 860,331 L 859,331 L 858,331 L 857,331 L 857,332 L 856,332 L 855,332 L 854,332 L 854,333 L 853,333 L 852,333 L 851,333 L 850,333 L 849,333 L 849,334 L 848,334 L 847,334 L 847,335 L 846,335 L 846,336 L 845,336 L 845,337 L 844,337 L 844,338 L 845,338 L 845,339 L 844,339 L 844,338 L 843,338 L 843,339 L 842,339 L 842,340 L 841,340 L 841,341 L 841,342 L 842,342 L 842,343 L 843,343 L 843,344 L 842,344 L 842,345 L 843,345 L 843,346 L 843,347 L 843,348 L 843,349 L 843,350 L 843,351 L 843,352 L 844,352 L 844,353 L 845,354 L 845,353 L 846,353 L 846,354 L 847,354 L 847,355 L 846,355 L 846,356 L 847,356 L 846,356 L 846,357 L 846,358 L 847,358 L 847,359 L 847,360 L 847,361 L 846,361 L 846,362 L 846,363 L 847,363 L 848,363 L 848,364 L 849,364 L 849,365 L 849,366 L 848,366 L 848,367 L 849,367 L 849,368 L 848,368 L 848,369 L 848,370 L 849,370 L 850,370 L 850,371 L 851,372 L 851,373 L 852,373 L 852,374 L 851,374 L 850,374 L 850,375 L 850,376 L 850,377 L 850,378 L 850,379 L 851,379 L 851,380 L 852,380 L 853,380 L 853,381 L 853,382 L 852,382 L 851,382 L 850,382 L 850,383 L 851,383 L 851,384 L 851,385 L 851,386 L 851,387 L 851,386 L 851,387 L 850,387 L 850,388 L 849,388 L 849,387 L 848,387 L 847,387 L 847,388 L 846,389 L 846,390 L 846,391 L 846,392 L 846,393 L 847,393 L 847,394 L 848,395 L 848,396 L 849,397 L 850,397 L 850,398 L 851,398 L 851,399 L 852,399 L 853,399 L 854,399 L 855,400 L 855,401 L 855,402 L 854,402 L 854,403 L 854,404 L 854,405 L 855,405 L 855,406 L 855,407 L 856,407 L 857,407 L 857,408 L 858,408 L 859,408 L 860,408 L 860,409 L 861,409 L 862,409 L 862,410 L 863,410 L 863,411 L 864,411 L 865,411 L 866,411 L 866,412 L 867,412 L 867,411 L 868,411 L 868,412 L 869,412 L 870,412 L 870,413 L 871,413 L 872,413 L 873,413 L 874,413 L 875,413 L 875,412 L 875,411 L 876,411 L 876,410 L 877,410 L 877,409 L 878,408 L 879,408 L 879,407 L 879,406 L 879,405 L 879,404 L 880,404 L 880,403 L 881,403 L 882,403 L 883,402 L 883,403 L 884,403 L 884,404 L 885,404 L 884,404 L 884,405 L 885,405 L 884,406 L 885,406 L 885,407 L 884,407 L 883,407 L 883,408 L 884,408 L 884,409 L 883,409 L 883,410 L 884,410 L 884,411 L 885,411 L 885,412 L 885,413 L 884,413 L 884,414 L 884,415 L 883,415 L 883,416 L 884,416 L 884,417 L 885,417 L 885,418 L 885,419 L 884,419 L 884,420 L 883,420 L 883,421 L 882,421 L 882,422 L 881,422 L 881,423 L 881,424 L 880,424 L 879,425 L 878,425 L 877,425 L 877,426 L 876,426 L 876,425 L 876,426 L 876,427 L 875,427 L 875,428 L 874,428 L 873,428 L 872,428 L 871,428 L 871,429 L 870,429 L 870,428 L 869,428 L 868,428 L 868,427 L 867,427 L 866,427 L 865,427 L 865,426 L 864,426 L 863,426 L 863,427 L 864,427 L 864,428 L 864,429 L 863,429 L 863,430 L 862,430 L 861,430 L 861,429 L 860,429 L 860,430 L 859,430 L 859,431 L 858,431 L 858,430 L 858,431 L 857,431 L 857,432 L 857,433 L 856,433 L 857,433 L 857,434 L 856,434 L 856,435 L 856,436 L 857,436 L 857,437 L 856,437 L 856,438 L 856,439 L 856,440 L 857,440 L 857,441 L 857,442 L 858,443 L 858,444 L 857,444 L 857,445 L 856,445 L 855,445 L 855,446 L 855,447 L 854,447 L 853,448 L 854,448 L 855,448 L 855,449 L 855,450 L 855,451 L 855,452 L 855,451 L 855,452 L 854,452 L 854,453 L 855,453 L 855,454 L 856,454 L 856,455 L 856,456 L 857,457 L 857,458 L 858,458 L 858,459 L 859,459 L 859,460 L 860,460 L 861,460 L 861,461 L 861,462 L 861,463 L 861,464 L 860,464 L 860,465 L 860,466 L 860,467 L 859,467 L 859,468 L 859,469 L 858,469 L 858,470 L 858,471 L 858,472 L 858,473 L 857,473 L 857,474 L 857,475 L 858,475 L 858,476 L 858,477 L 858,478 L 858,479 L 859,479 L 859,480 L 859,481 L 858,481 L 858,482 L 858,483 L 858,484 L 858,485 L 857,486 L 857,487 L 856,487 L 856,488 L 855,488 L 854,488 L 854,489 L 853,489 L 853,490 L 853,491 L 853,492 L 852,492 L 852,493 L 851,493 L 851,494 L 850,494 L 850,495 L 849,495 L 848,495 L 847,494 L 847,495 L 846,495 L 846,496 L 846,497 L 846,498 L 846,499 L 846,500 L 847,500 L 848,500 L 848,501 L 849,501 L 849,502 L 850,502 L 850,503 L 849,503 L 849,504 L 850,504 L 851,504 L 851,505 L 852,505 L 852,506 L 852,507 L 851,507 L 851,508 L 850,508 L 850,509 L 849,509 L 849,510 L 848,510 L 848,511 L 847,511 L 847,512 L 846,512 L 846,513 L 846,514 L 845,515 L 844,515 L 844,514 L 844,515 L 843,515 L 842,515 L 842,516 L 843,516 L 843,517 L 842,517 L 841,517 L 841,518 L 840,518 L 841,518 L 840,518 L 840,519 L 840,520 L 840,521 L 839,521 L 839,522 L 839,523 L 839,524 L 838,524 L 838,525 L 837,525 L 837,526 L 837,527 L 836,527 L 836,528 L 835,528 L 835,529 L 834,529 L 833,529 L 833,528 L 833,529 L 833,530 L 833,531 L 832,531 L 832,532 L 832,533 L 831,533 L 831,534 L 830,534 L 830,535 L 831,535 L 831,536 L 832,536 L 832,537 L 831,538 L 830,539 L 830,540 L 830,541 L 829,541 L 829,542 L 828,543 L 827,544 L 827,545 L 827,546 L 826,546 L 826,547 L 825,547 L 825,548 L 824,548 L 824,549 L 824,550 L 824,551 L 823,551 L 823,552 L 823,553 L 822,553 L 822,554 L 821,554 L 821,555 L 822,555 L 822,556 L 822,557 L 822,558 L 821,558 L 820,558 L 820,557 L 819,557 L 819,556 L 818,556 L 817,556 L 816,556 L 816,555 L 815,555 L 814,556 L 813,556 L 812,556 L 811,556 L 811,557 L 811,558 L 810,558 L 810,559 L 809,560 L 808,560 L 808,561 L 807,561 L 806,561 L 806,562 L 805,562 L 805,563 L 805,564 L 806,564 L 806,563 L 807,564 L 807,565 L 807,566 L 806,566 L 806,567 L 805,567 L 805,566 L 805,567 L 805,568 L 805,569 L 804,569 L 803,569 L 803,568 L 802,568 L 801,567 L 800,567 L 800,568 L 800,567 L 799,567 L 799,568 L 798,568 L 798,569 L 797,569 L 796,569 L 795,569 L 794,569 L 794,570 L 794,571 L 794,572 L 794,573 L 794,574 L 794,575 L 794,576 L 793,576 L 792,576 L 792,575 L 791,575 L 791,576 L 790,576 L 790,577 L 789,577 L 788,577 L 787,577 L 786,577 L 786,576 L 785,576 L 784,576 L 783,575 L 782,575 L 781,575 L 780,575 L 779,575 L 779,576 L 778,576 L 777,576 L 776,576 L 775,576 L 774,577 L 774,578 L 773,578 L 772,578 L 772,579 L 771,579 L 770,579 L 770,578 L 769,578 L 769,577 L 768,577 L 767,577 L 767,576 L 766,576 L 765,576 L 765,577 L 765,578 L 765,579 L 765,580 L 764,580 L 763,580 L 762,580 L 761,580 L 760,580 L 759,580 L 758,581 L 758,582 L 757,582 L 756,582 L 755,582 L 755,583 L 754,583 L 753,583 L 753,584 L 753,585 L 753,586 L 753,587 L 754,587 L 755,587 L 755,588 L 754,588 L 753,588 L 752,589 L 752,590 L 751,590 L 751,589 L 750,589 L 749,590 L 748,590 L 748,591 L 747,591 L 746,591 L 745,591 L 744,591 L 743,591 L 742,591 L 741,591 L 741,592 L 740,592 L 740,593 L 739,593 L 738,593 L 738,592 L 737,592 L 736,592 L 736,593 L 735,593 L 735,594 L 734,594 L 733,594 L 732,594 L 731,594 L 731,595 L 730,595 L 729,595 L 728,595 L 728,594 L 727,594 L 727,593 L 726,593 L 725,593 L 725,594 L 725,593 L 724,593 L 724,594 L 723,594 L 722,594 L 722,593 L 721,593 L 721,594 L 720,593 L 720,594 L 719,594 L 719,595 L 718,595 L 718,594 L 717,594 L 717,593 L 717,592 L 716,591 L 717,590 L 717,589 L 718,589 L 718,588 L 718,587 L 719,587 L 719,586 L 719,585 L 719,584 L 718,584 L 718,583 L 718,582 L 717,582 L 717,581 L 716,581 L 716,580 L 715,580 L 715,579 L 715,578 L 714,578 L 714,577 L 713,577 L 712,577 L 712,576 L 712,575 L 711,575 L 711,574 L 710,574 L 709,574 L 708,574 L 708,575 L 708,574 L 707,574 L 707,573 L 707,572 L 707,571 L 706,568 L 705,568 L 705,567 L 706,566 L 707,565 L 707,564 L 708,563 L 708,562 L 707,561 L 706,558 L 706,557 L 705,556 L 703,554 L 702,553 L 702,552 L 703,550 L 705,548 L 706,548 L 706,547 L 707,544 L 708,542 L 708,541 L 708,540 L 708,539 L 706,539 L 704,539 L 703,538 L 702,538 L 702,537 L 701,537 L 701,535 L 701,534 L 700,533 L 699,532 L 698,530 L 698,529 L 697,528 L 695,527 L 689,526 L 687,526 L 686,525 L 685,525 L 685,524 L 685,523 L 686,522 L 689,520 L 690,519 L 690,518 L 689,517 L 685,513 L 683,511 L 683,510 L 682,510 L 679,510 L 677,510 L 676,509 L 674,508 L 673,508 L 672,507 L 671,506 L 669,504 L 668,503 L 667,502 L 666,502 L 663,501 L 661,505 L 660,507 L 660,508 L 660,510 L 660,511 L 660,512 L 659,512 L 658,513 L 657,514 L 657,515 L 655,514 L 654,510 L 653,509 L 653,508 L 652,507 L 651,506 L 649,505 L 648,504 L 647,503 L 645,499 L 645,498 L 644,498 L 643,498 L 642,498 L 639,500 L 637,500 L 636,500 L 635,500 L 633,499 L 632,498 L 630,498 L 630,495 L 631,495 L 632,494 L 632,493 L 632,492 L 631,491 L 630,487 L 629,486 L 629,484 L 629,481 L 629,480 L 628,479 L 627,477 L 626,477 L 625,476 L 624,477 L 623,477 L 622,477 L 621,477 L 621,478 L 620,481 L 619,482 L 618,483 L 617,483 L 616,483 L 610,483 L 606,483 L 605,483 L 604,483 L 601,483 L 598,483 L 595,484 L 591,483 L 588,483 L 585,483 L 581,482 L 579,482 L 577,483 L 576,483 L 574,483 L 572,483 L 567,480 L 566,479 L 565,478 L 564,478 L 563,477 L 561,477 L 559,476 L 557,476 L 553,475 L 551,475 L 550,474 L 549,473 L 549,472 L 549,471 L 549,470 L 549,469 L 550,465 L 551,464 L 552,462 L 553,459 L 555,456 L 555,455 L 555,453 L 555,452 L 554,452 L 553,450 L 551,448 L 550,448 L 548,447 L 549,446 L 549,445 L 550,445 L 550,444 L 551,444 L 551,443 L 551,442 L 552,442 L 552,441 L 553,440 L 553,439 L 553,438 L 553,437 L 554,437 L 554,436 L 555,436 L 556,436 L 556,435 L 557,435 L 557,434 L 558,434 L 558,435 L 559,435 L 560,435 L 561,435 L 561,434 L 562,434 L 562,433 L 561,432 L 561,431 L 561,430 L 561,429 L 560,429 L 560,428 L 559,428 L 559,427 L 559,428 L 558,427 L 558,426 L 559,426 L 559,425 L 559,424 L 560,424 L 560,423 L 560,422 L 561,422 L 561,421 L 562,420 L 562,419 L 563,420 L 564,421 L 564,422 L 563,422 L 564,422 L 564,423 L 564,424 L 565,424 L 566,424 L 566,423 L 567,423 L 567,422 L 568,422 L 569,422 L 569,423 L 570,423 L 570,424 L 571,424 L 571,425 L 572,425 L 572,426 L 573,426 L 574,426 L 575,426 L 576,426 L 577,426 L 577,427 L 578,427 L 579,427 L 580,427 L 581,427 L 582,427 L 583,427 L 583,426 L 584,426 L 585,426 L 586,426 L 587,426 L 587,427 L 588,427 L 589,427 L 589,426 L 590,426 L 591,426 L 592,425 L 592,426 L 593,426 L 594,426 L 595,426 L 596,426 L 596,425 L 597,425 L 598,425 L 599,425 L 600,425 L 601,425 L 601,424 L 601,425 L 602,425 L 602,424 L 602,423 L 602,422 L 603,422 L 604,422 L 605,422 L 606,422 L 606,421 L 606,420 L 606,419 L 606,418 L 606,417 L 607,417 L 607,416 L 608,416 L 608,415 L 609,415 L 608,415 L 608,414 L 608,413 L 609,413 L 609,412 L 609,411 L 610,411 L 610,410 L 610,409 L 611,409 L 611,408 L 611,407 L 612,407 L 613,407 L 613,406 L 614,406 L 615,406 L 616,406 L 617,406 L 618,406 L 618,407 L 619,407 L 619,408 L 620,408 L 620,409 L 620,410 L 620,411 L 621,411 L 622,411 L 622,412 L 622,411 L 623,411 L 624,411 L 625,411 L 625,410 L 626,410 L 627,410 L 628,410 L 629,410 L 629,409 L 630,409 L 630,408 L 630,407 L 631,407 L 632,407 L 633,407 L 634,407 L 635,407 L 636,407 L 636,408 L 637,408 L 638,408 L 639,408 L 639,407 L 640,407 L 640,406 L 641,405 L 641,404 L 641,405 L 642,405 L 642,404 L 643,404 L 644,404 L 644,403 L 645,403 L 646,402 L 646,401 L 646,400 L 646,399 L 645,399 L 645,398 L 644,398 L 643,397 L 643,396 L 644,396 L 644,395 L 644,394 L 645,394 L 645,393 L 646,393 L 646,392 L 647,392 L 648,391 L 648,392 L 649,392 L 649,391 L 650,391 L 650,390 L 650,389 L 651,389 L 651,388 L 652,388 L 652,387 L 653,387 L 653,386 L 654,386 L 654,385 L 655,385 L 655,384 L 656,384 L 657,383 L 658,382 L 658,381 L 659,381 L 659,380 L 659,379 L 660,379 L 660,378 L 661,378 L 662,378 L 663,378 L 663,379 L 664,378 L 665,378 L 666,378 L 666,377 L 667,377 L 668,377 L 668,378 L 669,378 L 669,379 L 670,379 L 670,380 L 670,381 L 671,381 L 671,382 L 672,382 L 673,382 L 674,382 L 675,382 L 676,382 L 677,382 L 678,382 L 679,382 L 680,382 L 680,381 L 681,381 L 682,381 L 682,380 L 681,380 L 681,379 L 681,378 L 682,378 L 682,377 L 683,377 L 683,376 L 683,375 L 683,374 L 684,374 L 685,374 L 686,374 L 686,373 L 686,372 L 686,371 L 687,371 L 688,371 L 688,372 L 689,372 L 690,372 L 691,372 L 691,371 L 691,372 L 691,373 L 691,374 L 690,374 L 690,375 L 689,375 L 688,376 L 687,376 L 687,377 L 686,377 L 686,378 L 687,378 L 687,379 L 687,380 L 688,380 L 688,381 L 688,382 L 689,382 L 690,382 L 690,383 L 691,383 L 691,384 L 692,384 L 692,385 L 692,386 L 693,386 L 694,386 L 694,387 L 694,386 L 695,386 L 696,386 L 697,386 L 697,385 L 698,385 L 699,385 L 699,384 L 700,385 L 701,385 L 702,385 L 702,386 L 702,387 L 703,387 L 704,387 L 705,387 L 705,388 L 705,389 L 706,389 L 705,388 L 705,387 L 706,387 L 707,387 L 707,386 L 708,386 L 709,386 L 710,386 L 711,385 L 712,385 L 713,385 L 713,384 L 714,384 L 715,384 L 716,384 L 716,383 L 717,383 L 718,383 L 719,383 L 719,382 L 720,381 L 720,380 L 721,379 L 721,378 L 721,379 L 722,379 L 723,379 L 723,378 L 724,378 L 725,378 L 726,378 L 726,379 L 727,379 L 727,380 L 728,380 L 728,381 L 729,381 L 730,381 L 730,382 L 730,383 L 730,384 L 730,385 L 729,385 L 729,386 L 729,387 L 728,387 L 728,388 L 728,389 L 728,390 L 728,391 L 727,391 L 727,392 L 727,393 L 726,393 L 726,394 L 725,394 L 725,395 L 724,395 L 724,396 L 723,396 L 723,397 L 723,398 L 724,398 L 724,399 L 725,399 L 725,400 L 726,400 L 726,401 L 727,401 L 727,402 L 728,402 L 729,402 L 729,403 L 730,403 L 731,403 L 732,404 L 733,404 L 734,404 L 735,404 L 736,404 L 737,404 L 737,405 L 738,405 L 739,405 L 740,405 L 740,404 L 741,404 L 741,405 L 741,406 L 742,406 L 743,406 L 743,407 L 744,407 L 745,407 L 745,408 L 746,408 L 747,408 L 748,408 L 749,408 L 749,407 L 750,407 L 750,408 L 751,408 L 752,408 L 753,408 L 753,407 L 754,407 L 755,407 L 756,407 L 757,407 L 758,407 L 758,406 L 759,406 L 759,405 L 760,405 L 760,406 L 761,406 L 762,406 L 763,406 L 764,406 L 764,405 L 765,405 L 766,405 L 766,404 L 767,404 L 767,403 L 767,402 L 768,402 L 768,403 L 769,403 L 769,402 L 770,402 L 771,402 L 771,401 L 772,401 L 772,400 L 772,399 L 773,399 L 773,398 L 773,397 L 774,398 L 774,397 L 774,396 L 775,396 L 775,395 L 776,395 L 776,396 L 776,395 L 777,395 L 777,394 L 778,394 L 778,393 L 778,392 L 779,392 L 780,392 L 781,392 L 781,391 L 782,391 L 782,392 L 783,392 L 784,392 L 784,391 L 783,391 L 783,390 L 783,389 L 783,388 L 783,387 L 783,386 L 783,385 L 782,385 L 782,384 L 781,384 L 781,383 L 780,383 L 780,382 L 779,382 L 779,381 L 779,380 L 780,380 L 781,380 L 781,379 L 782,379 L 782,380 L 783,380 L 783,379 L 783,378 L 784,378 L 784,379 L 785,379 L 786,379 L 786,380 L 787,379 L 788,379 L 789,379 L 790,379 L 790,378 L 791,378 L 792,378 L 792,377 L 793,377 L 794,377 L 794,376 L 794,375 L 794,374 L 794,373 L 795,373 L 795,372 L 796,372 L 796,371 L 797,371 L 798,371 L 798,370 L 799,370 L 800,370 L 800,369 L 800,368 L 799,368 L 799,367 L 799,366 L 798,366 L 798,365 L 797,365 L 797,364 L 796,364 L 797,364 L 798,364 L 798,363 L 799,363 L 800,363 L 800,364 L 801,365 L 802,366 L 803,366 L 804,366 L 804,367 L 805,367 L 805,366 L 804,366 L 804,365 L 805,365 L 805,364 L 806,364 L 806,363 L 807,363 L 807,362 L 807,361 L 808,361 L 808,360 L 809,360 L 809,359 L 809,358 L 810,358 L 811,358 L 811,357 L 812,356 L 812,355 L 813,355 L 813,354 L 813,353 L 812,353 L 812,352 L 813,352 L 813,351 L 813,350 L 813,349 L 812,349 L 811,349 L 811,350 L 810,350 L 809,350 L 809,351 L 809,350 L 810,350 L 810,349 L 809,349 L 809,348 L 810,348 L 809,348 L 810,347 L 809,347 L 809,346 L 810,346 L 809,346 L 809,345 L 810,345 L 810,344 L 811,344 L 811,343 L 810,343 L 810,342 L 810,341 L 809,341 L 810,341 L 810,340 L 809,340 L 810,340 L 810,339 L 810,340 L 810,341 L 811,341 L 812,341 L 813,341 L 814,341 L 814,340 L 815,340 L 816,340 L 816,339 L 817,339 L 817,338 L 818,338 L 818,337 L 819,337 L 819,338 L 819,337 L 819,338 L 820,338 L 821,338 L 821,337 L 821,336 L 820,336 L 820,335 L 819,334 L 818,334 L 817,334 L 817,333 L 816,333 L 817,332 L 816,332 L 816,331 L 817,331 L 817,330 L 818,330 L 818,329 L 819,329 L 820,329 L 820,328 L 821,329 L 821,328 L 822,328 L 823,328 L 824,328 L 824,327 L 825,327 L 825,326 L 826,326 L 827,326 L 827,325 L 827,326 L 828,326 L 828,327 L 828,328 L 828,329 L 828,330 L 828,331 L 829,331 L 829,332 L 828,332 L 828,333 L 829,333 L 829,334 L 830,334 L 831,334 L 832,334 L 833,334 L 833,333 L 833,334 L 834,334 L 833,334 L 834,334 L 834,335 L 835,335 L 836,334 L 835,333 L 836,333 L 836,332 L 836,331 L 835,331 L 836,331 L 836,330 L 836,329 L 837,329 L 837,328 L 838,328 L 839,328 L 839,327 L 840,327 L 841,327 L 841,326 L 842,326 L 843,326 L 843,327 L 844,326 L 845,326 L 845,325 L 845,326 L 846,326 L 846,327 L 847,327 L 847,326 L 848,326 L 848,327 L 849,327 L 848,326 L 849,326 L 849,325 L 849,326 L 849,325 L 850,325 L 850,324 L 851,323 L 852,323 L 852,322 L 853,322 L 853,323 L 854,323 L 854,322 L 854,323 L 855,323 L 856,323 L 856,322 L 856,321 L 857,321 L 857,322 L 858,322 L 859,322 L 860,322 L 860,321 L 861,321 L 860,321 L 860,320 L 861,320 L 861,319 L 860,319 L 860,318 L 859,317 L 858,317 L 858,318 L 857,318 L 857,317 L 856,317 L 855,317 L 855,316 L 855,317 L 854,317 L 854,316 L 853,316 L 852,316 L 852,317 L 852,316 L 851,316 L 850,316 L 850,315 L 849,315 L 849,314 L 849,313 L 850,313 L 851,313 L 850,313 L 850,312 L 851,312 L 851,311 L 852,311 L 853,311 L 853,310 L 854,310 L 855,310 L 856,310 L 857,310 L 858,310 L 858,309 L 859,309 L 860,309 L 860,310 L 860,309 L 861,309 L 862,309 L 863,309 L 864,309 L 865,309 L 865,308 L 866,308 L 867,308 L 868,308 L 869,308 L 869,307 L 869,306 L 868,306 L 867,306 L 867,307 L 867,306 L 867,305 L 867,304 L 866,303 L 866,304 L 866,305 L 865,305 L 864,305 L 863,305 L 863,304 L 863,305 L 862,305 L 861,305 L 860,305 L 859,305 L 859,304 L 858,304 L 857,304 L 856,304 L 855,304 L 855,303 L 856,302 L 856,301 L 857,301 L 857,300 L 856,300 L 855,300 L 855,299 L 855,298 L 856,298 L 856,299 L 857,299 L 857,300 L 857,299 L 858,299 L 859,299 L 860,298 L 861,298 L 862,298 L 861,298 L 861,297 L 860,297 L 860,296 L 861,296 L 861,297 L 862,297 L 862,296 L 863,296 L 863,297 L 864,297 L 865,297 L 865,296 L 866,296 L 867,296 L 868,296 L 869,296 L 869,297 L 869,296 L 870,296 L 870,295 L 869,295 L 870,294 L 871,293 L 871,294 L 871,293 L 872,294 L 873,294 L 873,293 L 874,293 L 875,293 L 876,292 " />
<path d="M 782,280 L 782,281 L 783,281 L 783,282 L 782,283 L 781,283 L 781,284 L 781,285 L 781,286 L 782,286 L 781,287 L 781,286 L 780,286 L 780,285 L 780,286 L 780,287 L 780,288 L 779,288 L 778,288 L 777,288 L 777,287 L 776,287 L 775,288 L 774,288 L 773,288 L 773,289 L 772,289 L 771,289 L 771,288 L 770,288 L 770,289 L 769,289 L 769,288 L 768,288 L 768,289 L 767,288 L 767,289 L 766,288 L 767,288 L 766,288 L 766,287 L 766,288 L 765,288 L 764,288 L 764,287 L 763,287 L 763,288 L 762,288 L 761,288 L 760,288 L 759,288 L 759,287 L 759,288 L 758,288 L 757,288 L 757,287 L 757,286 L 758,286 L 758,285 L 757,285 L 757,284 L 758,284 L 759,284 L 760,284 L 760,283 L 761,283 L 761,284 L 762,284 L 763,284 L 764,284 L 765,284 L 765,283 L 766,283 L 767,282 L 768,282 L 769,282 L 770,282 L 771,282 L 771,281 L 772,281 L 773,281 L 774,280 L 774,281 L 774,280 L 775,280 L 776,280 L 777,280 L 778,280 L 779,280 L 780,280 L 781,279 L 782,279 L 782,280 " />
<path d="M 780,258 L 780,259 L 781,259 L 780,259 L 780,260 L 780,261 L 780,262 L 781,262 L 781,261 L 781,262 L 781,263 L 780,263 L 781,263 L 782,263 L 782,264 L 781,264 L 782,264 L 783,264 L 783,265 L 784,265 L 784,264 L 785,264 L 785,265 L 784,265 L 783,266 L 782,266 L 782,267 L 781,267 L 781,268 L 780,268 L 780,269 L 779,269 L 779,270 L 780,270 L 781,270 L 782,270 L 782,271 L 782,272 L 781,273 L 780,273 L 779,273 L 779,274 L 779,273 L 778,273 L 777,273 L 777,274 L 776,274 L 775,274 L 774,275 L 774,274 L 774,275 L 773,275 L 772,275 L 771,276 L 770,276 L 770,277 L 769,277 L 768,277 L 768,278 L 767,278 L 766,278 L 765,278 L 764,278 L 763,278 L 762,279 L 761,279 L 760,279 L 760,278 L 761,278 L 761,277 L 762,277 L 762,278 L 763,277 L 764,277 L 765,277 L 765,276 L 766,276 L 767,276 L 766,275 L 766,274 L 767,274 L 768,274 L 768,273 L 767,273 L 768,273 L 768,272 L 768,271 L 769,271 L 768,270 L 767,270 L 767,269 L 768,269 L 768,268 L 769,267 L 769,266 L 768,266 L 768,265 L 767,265 L 767,264 L 767,263 L 768,263 L 769,263 L 770,263 L 771,263 L 771,262 L 771,261 L 772,261 L 773,260 L 774,260 L 775,260 L 775,259 L 774,259 L 774,258 L 775,258 L 775,259 L 776,259 L 777,259 L 777,260 L 778,260 L 779,259 L 780,258 " />
<path d="M 774,257 L 774,256 L 774,255 L 775,255 L 775,256 L 775,257 L 774,257 " />
<path d="M 772,233 L 772,234 L 772,235 L 772,236 L 772,237 L 772,238 L 772,239 L 772,238 L 773,238 L 773,239 L 773,240 L 773,241 L 772,241 L 771,241 L 770,241 L 769,241 L 769,242 L 768,242 L 767,242 L 767,241 L 768,241 L 768,240 L 769,239 L 770,239 L 770,238 L 770,237 L 771,237 L 771,236 L 771,235 L 770,235 L 770,234 L 770,233 L 770,232 L 771,232 L 771,233 L 772,233 " />
</g>
<g id="lasithi_3" >
<path d="M 194,454 L 192,455 L 191,456 L 190,456 L 189,456 L 189,455 L 188,454 L 188,452 L 188,451 L 187,451 L 187,450 L 187,449 L 186,449 L 185,448 L 184,447 L 183,447 L 183,446 L 182,444 L 183,442 L 189,437 L 193,433 L 194,432 L 195,430 L 196,429 L 197,427 L 197,426 L 197,425 L 196,424 L 195,423 L 194,422 L 193,421 L 193,420 L 193,419 L 192,416 L 192,411 L 193,409 L 195,408 L 196,407 L 197,407 L 197,405 L 198,405 L 199,404 L 200,404 L 201,404 L 203,405 L 204,406 L 205,407 L 206,407 L 209,409 L 210,410 L 211,410 L 212,411 L 213,412 L 214,412 L 215,412 L 216,412 L 218,413 L 220,412 L 222,412 L 223,411 L 224,411 L 226,408 L 227,408 L 230,407 L 231,406 L 232,406 L 233,405 L 234,404 L 235,403 L 236,402 L 237,400 L 237,399 L 239,394 L 240,392 L 240,391 L 241,391 L 243,390 L 245,389 L 247,387 L 248,387 L 250,387 L 252,386 L 257,386 L 258,386 L 259,386 L 264,387 L 267,386 L 268,386 L 268,388 L 267,389 L 267,391 L 265,394 L 265,395 L 265,396 L 264,399 L 264,400 L 265,403 L 265,404 L 265,405 L 268,408 L 269,409 L 271,411 L 272,411 L 273,413 L 275,416 L 283,415 L 286,414 L 288,414 L 290,413 L 291,412 L 291,413 L 291,416 L 292,418 L 292,419 L 293,419 L 294,420 L 296,420 L 298,420 L 299,420 L 300,420 L 301,420 L 302,419 L 303,416 L 304,415 L 305,415 L 309,413 L 310,413 L 311,414 L 312,414 L 312,415 L 314,417 L 314,418 L 315,419 L 316,424 L 317,426 L 317,427 L 319,428 L 317,429 L 312,432 L 308,434 L 305,436 L 302,437 L 300,438 L 291,440 L 284,445 L 281,447 L 280,451 L 280,453 L 280,454 L 279,456 L 277,462 L 276,463 L 276,468 L 276,473 L 276,474 L 276,477 L 277,481 L 277,483 L 277,484 L 277,489 L 276,489 L 264,489 L 261,489 L 260,489 L 259,490 L 257,493 L 256,495 L 256,496 L 256,498 L 257,501 L 257,502 L 257,503 L 256,504 L 250,506 L 250,507 L 249,507 L 248,508 L 247,509 L 245,511 L 245,512 L 244,512 L 240,513 L 239,513 L 239,514 L 239,516 L 239,518 L 237,517 L 237,516 L 233,514 L 232,514 L 232,513 L 231,513 L 231,512 L 231,511 L 231,510 L 230,509 L 228,508 L 225,504 L 223,502 L 221,498 L 220,497 L 219,496 L 218,496 L 217,496 L 216,496 L 215,497 L 214,497 L 212,498 L 211,498 L 210,498 L 209,498 L 209,497 L 208,496 L 207,496 L 206,496 L 206,495 L 204,496 L 203,495 L 202,495 L 201,494 L 199,493 L 199,492 L 198,491 L 198,490 L 199,489 L 199,488 L 201,486 L 201,485 L 200,485 L 199,484 L 199,483 L 202,482 L 201,481 L 199,479 L 196,476 L 195,475 L 194,475 L 193,475 L 192,475 L 191,476 L 190,475 L 190,474 L 190,473 L 191,472 L 192,471 L 192,470 L 193,468 L 193,467 L 193,466 L 193,465 L 192,463 L 192,462 L 192,461 L 192,460 L 192,459 L 192,458 L 193,456 L 194,456 L 194,455 L 194,454 " />
</g>
<g id="lasithi_4" >
<path d="M 462,476 L 461,476 L 461,475 L 462,475 L 462,476 " />
<path d="M 438,411 L 438,412 L 438,413 L 437,413 L 436,413 L 437,413 L 437,414 L 437,415 L 436,415 L 435,415 L 434,415 L 434,414 L 433,414 L 432,414 L 432,413 L 433,413 L 433,412 L 433,411 L 434,411 L 435,411 L 435,410 L 435,409 L 436,409 L 437,409 L 437,410 L 438,410 L 438,411 " />
<path d="M 437,407 L 437,408 L 436,408 L 436,407 L 435,407 L 436,406 L 437,406 L 437,407 " />
<path d="M 457,346 L 458,346 L 458,347 L 458,348 L 458,349 L 458,350 L 457,350 L 457,351 L 457,352 L 457,353 L 456,353 L 456,352 L 456,351 L 456,350 L 456,349 L 456,348 L 457,348 L 457,347 L 457,346 " />
<path d="M 443,322 L 444,322 L 445,322 L 445,323 L 446,323 L 447,322 L 447,323 L 448,323 L 449,323 L 449,324 L 450,324 L 450,325 L 450,326 L 451,326 L 452,326 L 452,327 L 452,328 L 453,328 L 453,329 L 454,329 L 455,329 L 455,330 L 455,331 L 455,332 L 454,333 L 453,333 L 453,334 L 452,334 L 451,334 L 450,334 L 450,335 L 450,336 L 449,336 L 448,337 L 448,338 L 448,339 L 448,340 L 448,341 L 449,341 L 449,340 L 450,340 L 450,339 L 451,339 L 451,338 L 452,337 L 452,338 L 453,338 L 454,338 L 454,339 L 454,340 L 454,341 L 454,342 L 454,341 L 455,341 L 455,342 L 454,342 L 454,343 L 455,343 L 456,343 L 456,344 L 455,344 L 455,343 L 454,343 L 454,344 L 453,344 L 453,343 L 452,344 L 452,345 L 452,346 L 452,347 L 451,347 L 451,348 L 451,349 L 451,350 L 451,351 L 450,351 L 450,352 L 450,353 L 450,354 L 451,354 L 452,354 L 453,354 L 453,355 L 452,355 L 452,356 L 453,356 L 453,357 L 454,357 L 454,356 L 455,356 L 456,356 L 456,357 L 456,358 L 456,359 L 455,359 L 456,359 L 456,360 L 456,361 L 455,361 L 455,362 L 456,362 L 456,363 L 455,363 L 454,363 L 454,362 L 453,362 L 452,361 L 452,360 L 451,359 L 450,359 L 449,359 L 449,358 L 448,358 L 447,358 L 446,358 L 446,357 L 446,356 L 445,356 L 444,356 L 444,357 L 443,357 L 442,357 L 441,357 L 441,358 L 440,358 L 439,358 L 438,358 L 438,357 L 438,356 L 438,355 L 439,355 L 439,354 L 439,353 L 439,352 L 440,352 L 440,351 L 440,350 L 439,350 L 439,349 L 440,349 L 441,349 L 441,348 L 442,348 L 442,347 L 442,346 L 443,346 L 442,346 L 442,345 L 441,345 L 441,344 L 440,344 L 439,344 L 438,344 L 438,343 L 438,342 L 439,342 L 439,341 L 440,340 L 440,339 L 441,339 L 441,338 L 442,338 L 442,337 L 443,337 L 443,336 L 443,335 L 443,334 L 442,334 L 441,334 L 440,334 L 440,335 L 439,335 L 438,335 L 438,334 L 438,333 L 438,332 L 438,331 L 438,330 L 439,330 L 439,329 L 439,328 L 439,327 L 439,326 L 439,325 L 439,324 L 440,323 L 440,322 L 441,322 L 442,322 L 442,321 L 443,321 L 443,322 " />
<path d="M 440,317 L 440,318 L 440,319 L 440,320 L 440,321 L 439,321 L 438,321 L 438,320 L 438,319 L 438,318 L 438,317 L 439,317 L 440,317 " />
<path d="M 380,273 L 381,273 L 381,274 L 382,274 L 382,273 L 383,273 L 383,274 L 384,274 L 384,275 L 384,276 L 385,277 L 386,276 L 387,277 L 387,276 L 388,276 L 389,277 L 389,278 L 390,278 L 390,279 L 391,279 L 392,279 L 393,279 L 393,280 L 394,280 L 394,281 L 395,281 L 396,282 L 397,281 L 398,282 L 398,283 L 399,283 L 400,283 L 401,283 L 401,284 L 401,283 L 402,283 L 403,283 L 404,283 L 405,283 L 405,282 L 406,283 L 406,282 L 406,283 L 407,283 L 407,284 L 408,284 L 409,284 L 409,283 L 410,283 L 411,283 L 411,284 L 412,283 L 412,284 L 412,283 L 413,283 L 414,283 L 414,282 L 415,282 L 416,282 L 417,281 L 418,281 L 419,281 L 420,281 L 420,280 L 420,281 L 420,280 L 420,281 L 420,280 L 421,280 L 422,280 L 422,281 L 422,280 L 422,281 L 423,281 L 424,281 L 424,282 L 425,281 L 425,280 L 426,280 L 427,280 L 428,281 L 428,280 L 429,280 L 430,280 L 431,280 L 431,279 L 432,279 L 432,280 L 433,281 L 432,281 L 432,282 L 433,282 L 434,283 L 435,283 L 436,283 L 437,283 L 437,282 L 438,282 L 439,282 L 440,282 L 441,282 L 442,281 L 443,281 L 443,280 L 444,280 L 445,280 L 445,281 L 446,281 L 447,281 L 447,282 L 448,282 L 448,283 L 449,283 L 450,282 L 450,283 L 451,283 L 452,283 L 452,282 L 453,282 L 454,281 L 455,281 L 455,280 L 456,280 L 456,279 L 457,279 L 458,279 L 458,278 L 458,279 L 459,279 L 460,279 L 461,279 L 462,279 L 463,279 L 463,278 L 464,278 L 465,278 L 465,279 L 465,280 L 465,281 L 464,281 L 463,282 L 463,281 L 463,282 L 462,282 L 462,283 L 461,283 L 462,283 L 462,284 L 463,284 L 463,285 L 463,286 L 463,287 L 462,287 L 462,288 L 462,289 L 462,290 L 462,291 L 461,291 L 461,292 L 461,293 L 460,293 L 460,294 L 460,295 L 459,296 L 459,297 L 458,297 L 458,298 L 457,298 L 457,299 L 456,299 L 456,300 L 455,300 L 454,300 L 454,301 L 453,301 L 452,301 L 452,302 L 451,302 L 451,303 L 450,303 L 450,304 L 449,304 L 449,305 L 448,305 L 448,306 L 447,306 L 446,306 L 446,307 L 445,307 L 444,307 L 444,308 L 443,308 L 442,309 L 441,309 L 440,310 L 439,310 L 438,310 L 437,310 L 437,311 L 436,311 L 436,312 L 435,312 L 434,312 L 433,312 L 433,313 L 432,313 L 431,313 L 431,314 L 431,315 L 431,316 L 431,317 L 432,317 L 432,318 L 432,319 L 431,319 L 432,320 L 431,320 L 431,321 L 431,322 L 432,322 L 433,323 L 433,324 L 434,324 L 433,324 L 434,325 L 433,325 L 434,325 L 434,326 L 433,327 L 433,328 L 433,329 L 433,330 L 432,330 L 432,331 L 432,332 L 431,332 L 431,333 L 430,333 L 430,334 L 429,334 L 429,335 L 429,336 L 429,337 L 430,337 L 429,337 L 430,337 L 430,338 L 430,339 L 429,339 L 429,340 L 429,341 L 429,342 L 429,343 L 429,344 L 429,345 L 428,345 L 428,346 L 427,346 L 427,347 L 427,348 L 428,349 L 428,350 L 428,351 L 427,351 L 428,351 L 427,351 L 427,352 L 428,352 L 429,352 L 429,353 L 430,353 L 431,353 L 431,354 L 432,354 L 433,355 L 434,355 L 434,356 L 435,356 L 436,356 L 437,356 L 437,357 L 438,357 L 437,357 L 437,358 L 437,359 L 436,359 L 436,360 L 435,360 L 435,361 L 434,361 L 434,362 L 435,362 L 435,363 L 435,364 L 436,364 L 436,365 L 436,366 L 435,366 L 435,367 L 435,368 L 435,369 L 435,370 L 436,371 L 437,371 L 437,372 L 438,372 L 438,373 L 438,374 L 438,375 L 438,376 L 439,377 L 439,378 L 439,379 L 440,379 L 441,379 L 441,380 L 442,380 L 441,380 L 441,381 L 440,381 L 440,382 L 439,382 L 439,383 L 438,383 L 438,384 L 437,384 L 437,385 L 437,386 L 436,386 L 436,387 L 435,387 L 434,387 L 433,387 L 432,387 L 431,387 L 430,387 L 430,388 L 429,388 L 429,389 L 428,389 L 427,389 L 426,389 L 426,390 L 425,390 L 424,390 L 424,391 L 423,391 L 423,392 L 422,392 L 422,393 L 422,394 L 422,395 L 422,396 L 422,397 L 421,397 L 421,398 L 422,398 L 422,399 L 422,400 L 421,400 L 421,401 L 422,401 L 423,401 L 424,401 L 424,402 L 425,402 L 425,403 L 425,404 L 426,404 L 426,405 L 426,406 L 427,406 L 426,406 L 427,407 L 427,408 L 427,409 L 426,409 L 425,409 L 425,408 L 425,407 L 424,407 L 424,406 L 424,405 L 423,405 L 423,406 L 423,407 L 424,407 L 424,408 L 423,409 L 423,410 L 424,410 L 424,411 L 423,412 L 422,412 L 422,413 L 423,413 L 423,414 L 424,414 L 425,415 L 425,416 L 426,416 L 426,417 L 427,417 L 427,418 L 427,419 L 426,419 L 425,419 L 426,419 L 427,419 L 427,418 L 428,418 L 429,418 L 429,419 L 429,420 L 428,420 L 428,421 L 429,421 L 428,421 L 428,422 L 428,421 L 427,422 L 426,422 L 425,422 L 424,422 L 424,423 L 424,424 L 423,424 L 423,425 L 423,426 L 422,427 L 422,428 L 422,429 L 421,429 L 421,430 L 421,431 L 420,431 L 420,432 L 420,433 L 420,434 L 420,435 L 420,436 L 421,436 L 421,437 L 421,438 L 422,438 L 422,439 L 422,438 L 423,438 L 423,439 L 424,439 L 423,439 L 423,440 L 422,441 L 421,441 L 421,442 L 421,443 L 421,442 L 422,442 L 422,443 L 423,443 L 424,443 L 424,444 L 424,445 L 425,445 L 425,446 L 426,446 L 426,447 L 426,448 L 427,448 L 427,449 L 427,450 L 428,450 L 429,451 L 429,452 L 430,452 L 431,452 L 430,452 L 430,453 L 430,454 L 429,454 L 430,454 L 430,455 L 431,455 L 431,456 L 432,456 L 432,457 L 431,457 L 431,458 L 430,458 L 429,458 L 429,459 L 430,459 L 431,459 L 432,459 L 433,458 L 434,458 L 434,457 L 435,457 L 435,458 L 436,458 L 435,458 L 436,459 L 436,460 L 435,460 L 435,461 L 435,462 L 435,463 L 434,463 L 434,464 L 435,464 L 435,465 L 435,466 L 434,466 L 434,467 L 435,467 L 435,468 L 435,469 L 435,470 L 435,471 L 434,471 L 434,472 L 433,472 L 433,473 L 433,474 L 433,475 L 434,475 L 434,476 L 435,476 L 436,476 L 437,476 L 437,477 L 438,477 L 439,478 L 440,478 L 441,478 L 440,478 L 440,477 L 441,477 L 441,476 L 441,475 L 442,475 L 442,474 L 442,473 L 443,473 L 444,473 L 445,473 L 445,474 L 445,475 L 445,476 L 446,476 L 446,477 L 445,477 L 445,478 L 446,479 L 447,479 L 448,479 L 449,479 L 449,478 L 449,477 L 449,476 L 449,475 L 450,475 L 451,475 L 451,476 L 452,477 L 452,476 L 452,475 L 453,475 L 454,476 L 453,477 L 453,478 L 453,479 L 454,479 L 455,479 L 456,478 L 456,477 L 457,477 L 457,476 L 458,476 L 458,475 L 459,475 L 460,475 L 460,476 L 460,477 L 460,478 L 460,479 L 461,479 L 462,479 L 462,480 L 462,479 L 462,480 L 463,480 L 464,480 L 464,481 L 464,482 L 465,482 L 466,482 L 466,483 L 467,483 L 468,483 L 467,483 L 468,483 L 469,483 L 469,486 L 469,487 L 470,488 L 471,490 L 471,491 L 471,493 L 471,497 L 465,496 L 462,495 L 460,495 L 459,495 L 458,495 L 457,495 L 457,496 L 457,497 L 458,498 L 460,500 L 461,501 L 461,502 L 460,503 L 458,506 L 457,507 L 457,508 L 456,509 L 456,510 L 456,513 L 455,515 L 455,516 L 454,518 L 453,519 L 452,520 L 451,520 L 449,520 L 449,519 L 448,517 L 447,515 L 447,513 L 447,512 L 446,512 L 445,511 L 444,510 L 443,510 L 443,509 L 443,508 L 442,508 L 442,507 L 441,507 L 440,507 L 436,505 L 435,505 L 434,505 L 434,504 L 434,503 L 433,503 L 432,501 L 431,501 L 431,500 L 430,497 L 429,497 L 428,497 L 428,498 L 427,500 L 426,501 L 425,503 L 425,504 L 425,505 L 424,506 L 423,506 L 420,508 L 420,509 L 419,509 L 418,508 L 416,507 L 412,505 L 411,506 L 410,512 L 409,513 L 407,517 L 407,518 L 407,519 L 407,520 L 407,521 L 407,524 L 407,525 L 408,526 L 408,527 L 408,528 L 408,529 L 409,531 L 409,532 L 408,533 L 407,531 L 407,530 L 405,528 L 402,526 L 401,525 L 397,523 L 395,523 L 395,522 L 394,522 L 394,521 L 393,518 L 392,516 L 391,515 L 390,515 L 390,514 L 389,514 L 388,514 L 387,515 L 385,515 L 383,518 L 382,518 L 380,518 L 379,518 L 377,517 L 377,516 L 377,514 L 377,513 L 377,511 L 376,510 L 375,508 L 374,506 L 374,505 L 375,504 L 375,503 L 376,503 L 378,501 L 378,500 L 378,499 L 374,498 L 371,498 L 367,498 L 364,498 L 362,498 L 361,498 L 360,499 L 358,501 L 357,501 L 356,501 L 355,501 L 350,500 L 348,500 L 346,500 L 344,500 L 342,501 L 341,501 L 340,500 L 339,499 L 338,499 L 336,498 L 335,498 L 333,497 L 333,496 L 332,496 L 331,497 L 330,497 L 328,496 L 327,496 L 325,494 L 324,493 L 324,492 L 324,491 L 324,488 L 323,488 L 323,489 L 321,489 L 319,490 L 317,490 L 316,491 L 311,491 L 309,491 L 308,491 L 307,490 L 306,489 L 306,488 L 305,488 L 301,489 L 291,490 L 285,490 L 282,490 L 280,489 L 277,489 L 277,484 L 277,483 L 277,481 L 276,477 L 276,474 L 276,473 L 276,468 L 276,463 L 277,462 L 279,456 L 280,454 L 280,453 L 280,451 L 281,447 L 284,445 L 291,440 L 300,438 L 302,437 L 305,436 L 308,434 L 312,432 L 317,429 L 319,428 L 317,427 L 317,426 L 316,424 L 315,419 L 314,418 L 314,417 L 312,415 L 312,414 L 311,414 L 310,413 L 309,413 L 305,415 L 304,415 L 303,416 L 302,419 L 301,420 L 300,420 L 299,420 L 298,420 L 296,420 L 294,420 L 293,419 L 292,419 L 292,418 L 291,416 L 291,413 L 291,412 L 290,413 L 288,414 L 286,414 L 283,415 L 275,416 L 273,413 L 272,411 L 271,411 L 269,409 L 268,408 L 265,405 L 265,404 L 265,403 L 264,400 L 264,399 L 265,396 L 265,395 L 265,394 L 267,391 L 267,389 L 268,388 L 268,386 L 268,384 L 267,383 L 266,381 L 265,380 L 263,378 L 261,376 L 260,375 L 259,375 L 258,374 L 257,374 L 256,374 L 256,373 L 255,372 L 254,368 L 253,368 L 254,367 L 255,363 L 255,361 L 255,360 L 255,356 L 256,354 L 258,349 L 258,348 L 261,347 L 262,346 L 263,346 L 263,345 L 262,344 L 262,343 L 261,341 L 259,338 L 259,337 L 259,336 L 259,335 L 260,334 L 260,333 L 260,332 L 259,332 L 259,331 L 258,331 L 258,332 L 257,332 L 256,332 L 254,332 L 253,331 L 252,331 L 251,330 L 251,329 L 250,328 L 250,326 L 250,325 L 250,322 L 251,322 L 252,321 L 253,320 L 254,321 L 255,321 L 256,321 L 257,321 L 257,320 L 257,319 L 258,319 L 257,319 L 257,318 L 258,318 L 259,318 L 259,317 L 260,317 L 261,317 L 261,316 L 262,316 L 263,316 L 263,315 L 264,315 L 265,314 L 265,313 L 266,313 L 267,313 L 267,312 L 268,312 L 269,312 L 270,312 L 270,311 L 271,311 L 272,311 L 271,312 L 272,312 L 271,312 L 271,311 L 272,311 L 273,311 L 274,311 L 275,311 L 275,310 L 276,310 L 277,310 L 278,311 L 279,311 L 279,310 L 280,310 L 280,309 L 280,308 L 280,307 L 281,307 L 282,307 L 283,307 L 283,306 L 284,306 L 284,305 L 284,304 L 285,304 L 285,303 L 286,303 L 287,303 L 287,302 L 288,302 L 289,302 L 289,301 L 290,301 L 290,300 L 291,300 L 292,300 L 292,299 L 293,299 L 294,299 L 295,299 L 295,298 L 295,299 L 296,298 L 297,298 L 298,298 L 299,298 L 299,297 L 300,297 L 300,298 L 301,298 L 301,299 L 302,299 L 302,300 L 303,300 L 304,300 L 304,301 L 305,301 L 304,301 L 305,301 L 306,301 L 306,300 L 307,300 L 307,301 L 308,301 L 308,300 L 309,300 L 310,300 L 311,300 L 312,300 L 313,300 L 312,299 L 313,299 L 314,299 L 314,298 L 315,298 L 316,298 L 316,297 L 317,297 L 317,296 L 318,296 L 318,295 L 319,295 L 320,295 L 320,294 L 321,294 L 322,294 L 323,294 L 323,293 L 322,293 L 322,292 L 323,292 L 322,292 L 323,292 L 322,292 L 322,291 L 323,291 L 323,290 L 324,290 L 324,289 L 325,289 L 325,288 L 326,288 L 327,289 L 328,289 L 328,288 L 328,289 L 329,289 L 330,289 L 331,289 L 332,289 L 333,289 L 333,288 L 334,288 L 335,288 L 335,287 L 335,288 L 335,287 L 336,287 L 337,287 L 338,287 L 339,287 L 339,286 L 340,286 L 341,286 L 342,286 L 342,285 L 343,285 L 344,285 L 345,285 L 346,285 L 346,284 L 347,284 L 347,283 L 348,283 L 349,283 L 350,283 L 350,282 L 351,282 L 351,283 L 352,283 L 352,282 L 353,282 L 353,283 L 354,283 L 354,282 L 355,282 L 355,283 L 355,282 L 356,282 L 357,282 L 358,282 L 359,282 L 359,281 L 360,281 L 361,281 L 362,281 L 363,281 L 363,280 L 364,280 L 365,280 L 365,279 L 365,280 L 365,279 L 366,279 L 366,280 L 367,280 L 368,280 L 369,279 L 370,279 L 371,279 L 371,278 L 372,278 L 372,277 L 373,277 L 373,276 L 374,276 L 375,276 L 375,275 L 375,274 L 376,274 L 377,274 L 378,274 L 378,273 L 379,273 L 380,273 " />
<path d="M 311,36 L 312,36 L 313,37 L 312,37 L 312,38 L 311,38 L 311,37 L 310,37 L 311,37 L 311,36 " />
</g>
</g>
</g>
<!-- QGIS extent for clipping, eg in Inkscape -->
<g id="qgisviewbox" inkscape:groupmode="layer" inkscape:label="qgisviewbox" stroke="rgb(255,0,0)" stroke-width="1" fill="none" >
<path d="M 0,882 L 1061,882 L 1061,0 L 0,0 L 0,882 " />
</g></svg>