<?xml version="1.0" standalone="no"?>
<!DOCTYPE svg PUBLIC "-//W3C//DTD SVG 1.1//EN" "http://www.w3.org/Graphics/SVG/1.1/DTD/svg11.dtd">
<svg xmlns="http://www.w3.org/2000/svg" xmlns:inkscape="http://www.inkscape.org/namespaces/inkscape" xmlns:xlink="http://www.w3.org/1999/xlink" viewBox = "0 0 1065 886" version = "1.1">
<!-- svg generated using QGIS www.qgis.org -->
<g id="lefkada" inkscape:groupmode="layer" inkscape:label="lefkada">
<g stroke="none" fill="rgb(56,179,22)" stroke-linejoin="round" stroke-width="0.26">
<g id="lefkada_1" >
<path d="M 530,408 L 529,408 L 529,409 L 528,410 L 528,411 L 527,411 L 527,412 L 527,413 L 526,413 L 525,413 L 524,413 L 524,414 L 524,415 L 523,415 L 522,415 L 521,415 L 520,415 L 520,414 L 521,413 L 521,412 L 522,411 L 522,410 L 523,410 L 523,409 L 524,409 L 524,408 L 525,408 L 526,408 L 527,408 L 528,408 L 528,407 L 527,407 L 527,406 L 528,406 L 528,405 L 528,404 L 529,404 L 530,404 L 531,404 L 531,405 L 531,406 L 530,406 L 530,407 L 530,408 " />
<path d="M 516,470 L 516,469 L 515,468 L 516,468 L 516,467 L 517,468 L 517,467 L 518,466 L 519,466 L 519,467 L 519,468 L 518,468 L 518,469 L 519,469 L 519,470 L 519,471 L 518,471 L 518,472 L 517,472 L 517,471 L 516,470 " />
<path d="M 532,433 L 531,433 L 530,433 L 529,434 L 529,435 L 529,436 L 529,437 L 530,437 L 530,438 L 529,438 L 529,437 L 528,437 L 528,436 L 528,437 L 527,437 L 527,438 L 526,438 L 525,438 L 525,437 L 524,437 L 524,438 L 524,439 L 523,439 L 523,438 L 522,438 L 522,437 L 522,436 L 522,435 L 522,434 L 522,433 L 522,432 L 522,431 L 523,431 L 522,431 L 522,430 L 523,430 L 523,429 L 523,428 L 523,429 L 524,429 L 524,428 L 525,428 L 525,429 L 525,430 L 526,430 L 526,431 L 527,431 L 527,432 L 528,432 L 529,432 L 529,431 L 529,430 L 529,429 L 529,428 L 530,428 L 531,428 L 532,428 L 533,429 L 534,429 L 535,429 L 536,429 L 536,430 L 535,430 L 535,431 L 535,432 L 534,432 L 534,433 L 533,433 L 532,433 " />
<path d="M 521,432 L 521,433 L 521,434 L 521,433 L 520,433 L 520,432 L 521,432 " />
<path d="M 529,425 L 528,425 L 528,426 L 527,427 L 526,427 L 526,426 L 526,425 L 526,424 L 527,423 L 528,423 L 528,422 L 528,423 L 529,423 L 529,424 L 529,423 L 530,423 L 530,422 L 530,423 L 530,424 L 529,424 L 529,425 " />
<path d="M 545,539 L 546,539 L 546,540 L 545,540 L 545,539 " />
<path d="M 568,551 L 567,551 L 566,551 L 566,550 L 565,550 L 565,549 L 564,549 L 563,549 L 563,548 L 563,547 L 562,547 L 562,548 L 561,547 L 561,548 L 560,548 L 560,547 L 559,547 L 559,546 L 558,546 L 558,545 L 559,545 L 560,545 L 561,545 L 562,546 L 563,546 L 564,546 L 565,546 L 566,546 L 566,545 L 567,545 L 568,545 L 569,544 L 570,544 L 570,545 L 571,545 L 572,545 L 572,546 L 573,546 L 574,546 L 574,547 L 574,548 L 575,548 L 575,549 L 576,549 L 576,550 L 576,551 L 576,552 L 575,552 L 574,551 L 573,551 L 572,551 L 572,552 L 572,553 L 571,553 L 571,552 L 570,552 L 569,551 L 569,550 L 569,551 L 568,551 " />
<path d="M 579,455 L 579,454 L 579,455 " />
<path d="M 574,453 L 575,453 L 575,454 L 574,454 L 574,453 " />
<path d="M 555,462 L 555,463 L 555,462 L 556,462 L 557,462 L 557,463 L 557,464 L 557,465 L 558,465 L 558,464 L 559,464 L 559,465 L 560,465 L 561,464 L 560,464 L 560,463 L 559,463 L 559,462 L 558,462 L 558,461 L 557,461 L 557,460 L 556,460 L 556,459 L 556,458 L 555,458 L 555,457 L 555,456 L 556,456 L 557,456 L 556,455 L 556,454 L 556,453 L 556,452 L 557,452 L 557,451 L 558,450 L 558,449 L 559,449 L 560,449 L 561,449 L 561,450 L 561,451 L 560,451 L 559,452 L 559,451 L 558,451 L 558,452 L 559,452 L 559,453 L 558,453 L 558,454 L 558,455 L 559,454 L 560,454 L 560,453 L 560,454 L 561,454 L 561,455 L 561,456 L 561,457 L 562,457 L 562,456 L 563,456 L 563,455 L 562,455 L 562,454 L 562,453 L 562,452 L 563,452 L 563,451 L 564,452 L 565,452 L 565,451 L 566,451 L 566,452 L 566,453 L 565,453 L 565,454 L 566,453 L 567,453 L 567,454 L 567,455 L 566,456 L 565,456 L 564,456 L 564,457 L 563,457 L 563,458 L 563,459 L 563,458 L 564,458 L 565,458 L 565,457 L 566,457 L 566,458 L 565,459 L 565,460 L 565,461 L 564,461 L 564,462 L 563,462 L 563,463 L 564,463 L 565,463 L 565,464 L 565,463 L 565,462 L 566,462 L 566,461 L 566,460 L 567,460 L 567,461 L 568,461 L 569,461 L 569,460 L 569,459 L 568,459 L 568,458 L 568,457 L 569,457 L 570,457 L 570,458 L 570,459 L 571,459 L 571,458 L 572,458 L 572,457 L 573,457 L 574,457 L 575,456 L 576,456 L 576,455 L 576,456 L 577,456 L 577,457 L 577,458 L 576,458 L 575,458 L 574,458 L 574,459 L 573,459 L 572,459 L 572,460 L 571,460 L 571,461 L 571,462 L 572,462 L 572,463 L 572,464 L 571,465 L 570,465 L 570,466 L 570,467 L 571,467 L 571,468 L 571,467 L 572,467 L 572,466 L 572,465 L 573,465 L 574,465 L 574,464 L 574,463 L 575,463 L 576,463 L 575,463 L 575,462 L 576,462 L 576,461 L 576,462 L 577,462 L 578,462 L 578,461 L 578,460 L 579,460 L 580,460 L 580,461 L 580,462 L 579,462 L 579,463 L 579,464 L 578,464 L 577,465 L 577,466 L 578,466 L 578,467 L 578,468 L 578,469 L 578,470 L 577,470 L 576,470 L 575,471 L 574,471 L 573,471 L 573,472 L 573,473 L 572,473 L 571,473 L 570,473 L 570,474 L 571,474 L 572,474 L 573,475 L 574,475 L 575,475 L 576,475 L 575,476 L 575,477 L 574,477 L 573,477 L 572,477 L 572,478 L 571,478 L 571,479 L 571,478 L 570,478 L 569,478 L 568,478 L 568,477 L 568,478 L 568,479 L 567,480 L 566,480 L 565,481 L 564,481 L 564,482 L 564,483 L 563,483 L 562,483 L 562,484 L 563,484 L 562,485 L 561,485 L 560,485 L 559,485 L 558,485 L 557,485 L 557,486 L 557,487 L 556,487 L 556,488 L 555,488 L 554,487 L 553,487 L 552,487 L 552,488 L 551,488 L 550,488 L 549,488 L 549,487 L 549,486 L 548,485 L 548,484 L 548,483 L 547,483 L 547,482 L 546,482 L 546,481 L 546,482 L 545,482 L 545,481 L 545,482 L 544,483 L 543,483 L 543,482 L 543,483 L 542,483 L 542,484 L 542,485 L 541,485 L 541,486 L 540,486 L 539,486 L 539,487 L 539,488 L 538,488 L 538,489 L 538,490 L 537,490 L 537,491 L 537,492 L 536,492 L 536,493 L 537,493 L 537,494 L 537,495 L 536,495 L 536,496 L 535,497 L 535,498 L 535,499 L 535,500 L 534,501 L 534,502 L 533,503 L 534,503 L 535,503 L 536,503 L 536,504 L 536,505 L 537,505 L 537,504 L 538,505 L 539,506 L 539,507 L 540,507 L 541,508 L 541,509 L 541,510 L 542,510 L 542,511 L 542,512 L 543,512 L 543,513 L 544,513 L 544,514 L 545,515 L 545,516 L 546,516 L 546,517 L 547,517 L 547,518 L 548,518 L 548,519 L 549,519 L 549,520 L 550,520 L 551,520 L 552,521 L 553,522 L 553,523 L 554,523 L 555,523 L 555,524 L 556,524 L 557,524 L 557,525 L 558,525 L 559,525 L 559,526 L 560,526 L 561,527 L 562,527 L 562,528 L 563,528 L 564,528 L 565,528 L 566,528 L 566,529 L 567,529 L 568,529 L 568,530 L 568,531 L 569,531 L 569,532 L 569,533 L 570,534 L 570,535 L 571,535 L 571,536 L 572,536 L 573,537 L 574,537 L 574,538 L 575,538 L 575,539 L 576,539 L 576,540 L 577,540 L 577,541 L 578,541 L 579,541 L 579,542 L 579,543 L 579,544 L 579,543 L 578,543 L 577,543 L 577,542 L 576,542 L 575,542 L 575,543 L 575,542 L 574,542 L 574,541 L 573,541 L 572,541 L 571,541 L 571,540 L 570,540 L 569,539 L 568,539 L 568,538 L 567,538 L 567,537 L 566,537 L 566,536 L 565,536 L 565,535 L 564,535 L 564,534 L 563,533 L 563,532 L 563,531 L 562,531 L 562,530 L 561,530 L 560,530 L 560,529 L 559,529 L 559,528 L 558,528 L 557,528 L 557,527 L 557,526 L 556,526 L 555,526 L 555,525 L 554,525 L 553,525 L 552,525 L 552,524 L 551,524 L 550,524 L 549,524 L 548,524 L 548,523 L 547,522 L 546,522 L 546,521 L 545,521 L 545,520 L 544,519 L 543,519 L 542,519 L 542,518 L 542,517 L 541,517 L 541,516 L 540,516 L 540,515 L 539,515 L 539,514 L 538,514 L 538,513 L 537,513 L 536,512 L 535,511 L 535,510 L 534,510 L 534,509 L 533,509 L 533,508 L 532,508 L 531,507 L 531,506 L 530,505 L 529,504 L 528,504 L 528,503 L 527,503 L 527,502 L 526,502 L 526,501 L 525,501 L 525,500 L 524,499 L 523,498 L 523,497 L 522,497 L 522,496 L 521,496 L 521,495 L 520,495 L 520,494 L 520,493 L 519,493 L 519,492 L 519,491 L 518,490 L 518,489 L 518,488 L 518,487 L 518,486 L 518,485 L 518,484 L 519,484 L 519,483 L 519,482 L 520,482 L 520,481 L 521,481 L 521,480 L 522,480 L 522,479 L 521,478 L 521,477 L 521,476 L 521,475 L 521,474 L 521,473 L 522,472 L 522,471 L 522,470 L 522,469 L 521,468 L 521,467 L 522,467 L 522,466 L 522,465 L 522,464 L 522,463 L 522,462 L 523,462 L 524,461 L 524,460 L 523,460 L 523,459 L 524,458 L 525,458 L 526,458 L 527,459 L 528,459 L 529,459 L 530,459 L 530,460 L 531,460 L 531,461 L 532,461 L 532,462 L 533,462 L 534,462 L 535,462 L 535,463 L 536,463 L 537,463 L 537,464 L 538,464 L 539,464 L 540,464 L 540,465 L 539,465 L 539,466 L 540,467 L 541,468 L 542,469 L 542,468 L 543,468 L 543,467 L 543,466 L 542,466 L 542,465 L 543,465 L 543,464 L 543,463 L 544,463 L 543,463 L 543,462 L 543,461 L 542,461 L 543,461 L 543,460 L 544,460 L 545,460 L 545,461 L 546,461 L 547,461 L 548,461 L 548,462 L 548,461 L 549,461 L 548,461 L 548,460 L 548,459 L 548,458 L 549,458 L 550,458 L 551,459 L 552,459 L 552,458 L 553,458 L 553,459 L 553,460 L 553,461 L 553,460 L 554,460 L 554,461 L 555,461 L 555,462 " />
</g>
<g id="lefkada_2" >
<path d="M 615,573 L 615,574 L 615,573 L 614,573 L 615,573 " />
<path d="M 614,570 L 613,570 L 614,570 L 614,571 L 614,572 L 613,572 L 613,571 L 612,571 L 612,572 L 612,573 L 611,573 L 611,572 L 612,572 L 612,571 L 612,570 L 611,570 L 611,569 L 611,570 L 612,570 L 613,570 L 613,569 L 614,569 L 614,570 " />
<path d="M 667,565 L 667,564 L 666,564 L 667,564 L 667,565 " />
<path d="M 361,564 L 361,563 L 361,564 " />
<path d="M 672,564 L 671,564 L 671,563 L 671,562 L 672,562 L 673,562 L 673,563 L 673,564 L 672,564 " />
<path d="M 683,530 L 684,530 L 684,531 L 685,531 L 685,532 L 685,533 L 684,534 L 684,535 L 685,535 L 685,536 L 684,536 L 685,537 L 685,538 L 684,538 L 684,539 L 684,538 L 683,538 L 682,538 L 681,538 L 681,539 L 680,539 L 679,539 L 679,540 L 678,540 L 678,541 L 678,542 L 678,543 L 678,544 L 678,545 L 677,545 L 677,546 L 677,547 L 677,548 L 677,549 L 676,549 L 676,550 L 675,550 L 675,551 L 675,552 L 674,553 L 674,554 L 675,554 L 674,555 L 673,556 L 672,556 L 672,557 L 672,558 L 672,559 L 671,559 L 671,560 L 670,560 L 669,560 L 669,561 L 668,561 L 668,560 L 667,560 L 667,561 L 667,562 L 667,563 L 666,563 L 666,564 L 665,564 L 664,564 L 663,564 L 663,565 L 663,566 L 662,566 L 661,567 L 660,567 L 660,568 L 661,568 L 662,568 L 662,569 L 663,569 L 663,570 L 662,570 L 661,570 L 661,571 L 660,571 L 659,571 L 659,572 L 659,573 L 660,573 L 660,574 L 660,575 L 659,575 L 658,575 L 657,575 L 657,576 L 656,576 L 657,577 L 657,578 L 657,579 L 657,580 L 656,581 L 655,581 L 655,582 L 655,583 L 654,583 L 653,583 L 653,582 L 652,582 L 652,581 L 651,581 L 651,582 L 651,583 L 650,583 L 650,584 L 651,584 L 651,585 L 652,585 L 652,586 L 653,586 L 653,587 L 653,588 L 652,588 L 653,589 L 653,590 L 654,590 L 655,590 L 655,591 L 655,592 L 655,593 L 656,593 L 656,594 L 656,595 L 657,596 L 657,597 L 656,597 L 656,596 L 656,595 L 655,595 L 655,594 L 655,593 L 654,593 L 653,593 L 653,594 L 652,594 L 651,594 L 650,594 L 650,593 L 650,592 L 649,592 L 649,593 L 648,594 L 648,595 L 648,596 L 647,596 L 647,595 L 647,594 L 647,593 L 646,593 L 646,592 L 646,591 L 646,590 L 647,590 L 647,589 L 647,588 L 647,587 L 647,586 L 647,585 L 647,584 L 647,583 L 647,582 L 647,581 L 647,580 L 647,579 L 647,578 L 647,577 L 648,577 L 648,576 L 648,575 L 648,574 L 648,573 L 648,572 L 649,571 L 649,570 L 649,569 L 650,568 L 650,569 L 650,570 L 651,570 L 651,571 L 652,571 L 652,572 L 653,572 L 653,573 L 654,572 L 654,571 L 654,570 L 654,569 L 655,569 L 655,568 L 655,567 L 655,566 L 655,565 L 656,564 L 657,563 L 658,562 L 658,561 L 658,560 L 659,560 L 659,559 L 659,558 L 660,558 L 661,558 L 662,558 L 662,557 L 662,556 L 663,556 L 663,555 L 664,554 L 665,553 L 665,552 L 666,552 L 666,551 L 666,550 L 667,550 L 667,549 L 668,549 L 668,548 L 668,547 L 669,547 L 669,546 L 669,545 L 670,545 L 670,544 L 670,543 L 671,543 L 671,542 L 672,542 L 672,541 L 672,540 L 673,540 L 673,539 L 674,538 L 675,538 L 675,537 L 676,537 L 677,536 L 677,535 L 677,534 L 678,534 L 678,533 L 678,532 L 679,532 L 679,531 L 680,531 L 680,530 L 681,530 L 682,530 L 683,530 " />
<path d="M 364,529 L 363,529 L 363,528 L 364,528 L 364,529 " />
<path d="M 686,529 L 685,529 L 685,528 L 684,528 L 683,528 L 683,527 L 683,526 L 684,526 L 685,526 L 685,525 L 686,525 L 687,526 L 687,527 L 686,527 L 686,528 L 686,529 " />
<path d="M 366,516 L 366,515 L 366,516 " />
<path d="M 698,480 L 699,480 L 700,480 L 700,481 L 701,481 L 702,481 L 703,481 L 704,482 L 704,483 L 704,484 L 704,485 L 704,486 L 704,487 L 704,488 L 705,488 L 705,489 L 704,490 L 704,491 L 703,491 L 703,492 L 702,493 L 702,494 L 701,494 L 701,495 L 701,496 L 700,496 L 700,497 L 699,497 L 699,498 L 699,499 L 698,499 L 697,500 L 697,501 L 696,501 L 696,502 L 695,502 L 694,502 L 693,502 L 692,502 L 691,502 L 690,503 L 689,503 L 688,503 L 687,504 L 686,504 L 686,505 L 685,505 L 685,506 L 684,506 L 683,507 L 682,507 L 682,508 L 681,508 L 681,509 L 680,510 L 679,511 L 679,512 L 680,512 L 679,513 L 679,514 L 679,515 L 678,515 L 678,516 L 678,517 L 677,517 L 677,518 L 676,518 L 676,519 L 675,519 L 675,518 L 674,518 L 673,518 L 672,518 L 672,519 L 671,519 L 670,519 L 669,519 L 668,519 L 667,519 L 667,520 L 666,520 L 665,520 L 664,520 L 664,521 L 663,522 L 662,522 L 661,522 L 660,522 L 659,522 L 658,522 L 657,522 L 656,522 L 655,522 L 655,523 L 654,523 L 654,522 L 653,522 L 653,523 L 652,524 L 652,525 L 651,525 L 650,525 L 650,526 L 649,526 L 649,527 L 648,528 L 647,529 L 646,529 L 646,530 L 645,530 L 645,531 L 644,531 L 643,532 L 642,532 L 641,532 L 640,532 L 640,533 L 639,533 L 639,534 L 640,534 L 640,535 L 640,536 L 641,536 L 641,537 L 641,538 L 642,538 L 642,537 L 643,537 L 643,536 L 644,535 L 644,536 L 644,537 L 645,537 L 646,537 L 646,538 L 645,539 L 645,540 L 645,541 L 644,541 L 644,542 L 644,543 L 643,543 L 643,544 L 643,545 L 642,545 L 642,546 L 641,546 L 641,547 L 640,547 L 640,548 L 640,549 L 639,549 L 639,550 L 638,550 L 638,551 L 638,552 L 637,552 L 637,553 L 636,553 L 636,554 L 635,554 L 635,555 L 634,555 L 634,556 L 633,556 L 633,555 L 632,555 L 632,556 L 631,556 L 630,556 L 630,557 L 629,557 L 628,557 L 628,556 L 627,556 L 627,555 L 627,554 L 627,553 L 627,552 L 626,552 L 627,551 L 627,550 L 628,550 L 628,549 L 629,549 L 630,549 L 630,548 L 629,548 L 629,547 L 628,547 L 627,547 L 627,546 L 626,546 L 627,545 L 628,545 L 629,545 L 629,544 L 629,543 L 628,543 L 628,542 L 627,542 L 626,542 L 626,541 L 627,540 L 627,539 L 627,538 L 627,537 L 626,537 L 626,536 L 627,535 L 627,534 L 627,533 L 628,533 L 629,533 L 630,533 L 631,533 L 631,532 L 631,531 L 631,530 L 631,529 L 630,529 L 630,528 L 629,528 L 629,527 L 630,527 L 631,526 L 632,526 L 632,527 L 633,527 L 634,527 L 635,527 L 636,527 L 636,526 L 636,525 L 635,525 L 635,524 L 635,523 L 634,523 L 634,522 L 633,522 L 634,522 L 634,521 L 634,520 L 634,519 L 635,519 L 635,518 L 636,518 L 636,517 L 637,517 L 637,516 L 638,516 L 638,515 L 639,514 L 640,514 L 641,513 L 641,512 L 641,511 L 641,510 L 642,509 L 642,508 L 642,507 L 642,506 L 643,505 L 643,504 L 644,503 L 644,502 L 645,501 L 645,500 L 645,499 L 646,499 L 646,498 L 647,497 L 647,496 L 648,495 L 648,494 L 649,494 L 649,493 L 650,492 L 651,491 L 652,490 L 652,489 L 653,489 L 654,488 L 655,488 L 655,487 L 655,486 L 656,486 L 657,485 L 658,485 L 659,485 L 660,485 L 660,484 L 661,484 L 662,484 L 663,483 L 663,482 L 664,483 L 665,483 L 666,483 L 667,483 L 668,483 L 669,483 L 669,484 L 670,484 L 671,484 L 672,484 L 673,485 L 674,485 L 675,485 L 675,486 L 676,486 L 677,486 L 677,485 L 678,485 L 678,484 L 677,484 L 678,484 L 679,484 L 679,485 L 680,485 L 681,486 L 682,485 L 683,485 L 684,485 L 684,484 L 685,484 L 686,484 L 686,483 L 687,483 L 687,482 L 688,482 L 689,481 L 690,481 L 690,480 L 691,480 L 692,480 L 693,480 L 694,480 L 695,480 L 696,480 L 697,479 L 698,479 L 698,480 " />
<path d="M 360,423 L 361,424 L 360,424 L 360,425 L 359,425 L 359,424 L 358,424 L 359,424 L 359,423 L 360,423 " />
<path d="M 512,419 L 511,419 L 511,418 L 511,417 L 510,417 L 510,416 L 511,416 L 511,415 L 512,415 L 513,415 L 513,416 L 514,417 L 514,418 L 513,418 L 513,419 L 512,419 " />
<path d="M 512,409 L 511,409 L 511,408 L 512,408 L 513,408 L 512,408 L 512,409 " />
<path d="M 518,325 L 518,326 L 517,326 L 517,325 L 518,325 " />
<path d="M 518,317 L 518,316 L 518,315 L 518,314 L 519,314 L 519,313 L 519,314 L 519,315 L 520,315 L 520,316 L 519,316 L 518,317 " />
<path d="M 488,281 L 488,280 L 487,280 L 488,280 L 488,281 " />
<path d="M 510,289 L 511,289 L 511,290 L 511,291 L 512,292 L 512,293 L 512,294 L 513,294 L 513,295 L 513,296 L 513,297 L 513,296 L 512,296 L 512,295 L 511,293 L 511,292 L 510,290 L 510,288 L 509,287 L 509,286 L 508,286 L 508,285 L 508,284 L 508,283 L 508,282 L 508,281 L 508,280 L 509,279 L 509,280 L 509,281 L 509,282 L 509,283 L 509,284 L 509,285 L 509,286 L 509,287 L 510,287 L 510,288 L 510,289 " />
<path d="M 492,277 L 492,276 L 493,276 L 493,277 L 492,277 " />
<path d="M 511,274 L 510,274 L 510,273 L 511,273 L 511,274 " />
<path d="M 511,274 L 511,273 L 512,273 L 512,274 L 511,274 L 511,275 L 511,276 L 510,276 L 510,277 L 509,278 L 509,279 L 508,279 L 508,280 L 507,280 L 507,281 L 506,281 L 506,282 L 506,283 L 506,284 L 505,284 L 505,285 L 504,285 L 503,285 L 503,286 L 504,286 L 505,286 L 506,286 L 506,287 L 507,287 L 507,288 L 508,288 L 508,289 L 508,290 L 509,290 L 509,291 L 510,291 L 510,292 L 510,293 L 510,294 L 511,294 L 511,295 L 512,296 L 512,297 L 512,298 L 511,298 L 511,299 L 511,300 L 511,301 L 510,301 L 510,300 L 510,301 L 510,302 L 510,303 L 510,304 L 510,305 L 511,305 L 511,306 L 512,306 L 512,307 L 512,308 L 512,309 L 513,309 L 513,310 L 513,309 L 514,309 L 514,310 L 515,310 L 516,310 L 516,311 L 517,311 L 517,312 L 518,312 L 518,313 L 518,314 L 517,315 L 517,316 L 517,317 L 517,318 L 516,318 L 515,319 L 514,319 L 514,320 L 513,320 L 512,320 L 512,321 L 512,322 L 512,323 L 512,324 L 512,325 L 513,325 L 513,326 L 512,326 L 512,327 L 512,328 L 512,329 L 511,329 L 511,330 L 512,330 L 512,331 L 511,331 L 511,332 L 512,333 L 513,333 L 513,334 L 513,335 L 513,336 L 513,337 L 512,338 L 512,339 L 512,340 L 512,341 L 513,341 L 513,342 L 513,343 L 513,344 L 513,345 L 513,346 L 514,346 L 513,347 L 513,348 L 513,349 L 513,350 L 513,351 L 513,352 L 513,353 L 512,353 L 512,354 L 511,354 L 511,355 L 510,355 L 510,356 L 510,357 L 509,357 L 509,358 L 509,359 L 509,360 L 510,360 L 510,361 L 511,361 L 511,362 L 512,362 L 511,362 L 511,363 L 511,364 L 511,365 L 510,365 L 510,366 L 510,367 L 511,367 L 511,368 L 511,369 L 511,370 L 512,371 L 513,371 L 513,372 L 513,373 L 514,374 L 515,374 L 515,375 L 515,376 L 516,376 L 516,377 L 517,378 L 517,379 L 518,379 L 518,380 L 518,381 L 519,382 L 520,382 L 520,383 L 520,384 L 520,385 L 519,385 L 519,386 L 519,387 L 519,388 L 519,389 L 520,389 L 520,390 L 519,390 L 519,391 L 519,392 L 519,393 L 519,394 L 519,395 L 518,395 L 518,396 L 517,397 L 517,398 L 517,399 L 517,400 L 516,400 L 516,401 L 515,401 L 514,401 L 514,402 L 513,402 L 512,403 L 512,404 L 511,405 L 511,406 L 510,407 L 509,407 L 508,407 L 507,407 L 506,407 L 506,408 L 505,408 L 505,409 L 505,410 L 505,411 L 505,412 L 505,413 L 504,413 L 504,414 L 503,414 L 503,415 L 502,416 L 501,416 L 501,417 L 500,417 L 500,418 L 499,419 L 499,420 L 499,421 L 499,422 L 498,422 L 498,423 L 497,424 L 497,425 L 497,426 L 498,426 L 498,427 L 497,428 L 497,429 L 496,429 L 496,430 L 495,430 L 495,431 L 494,431 L 493,431 L 493,432 L 492,432 L 492,433 L 491,433 L 490,433 L 490,434 L 490,435 L 490,436 L 490,437 L 490,438 L 490,439 L 490,440 L 490,441 L 489,442 L 489,443 L 489,444 L 489,445 L 489,446 L 490,446 L 490,447 L 491,447 L 492,447 L 492,448 L 493,448 L 494,448 L 495,448 L 495,449 L 496,449 L 497,448 L 498,447 L 497,446 L 497,445 L 498,444 L 498,443 L 498,442 L 499,442 L 499,441 L 500,440 L 500,439 L 501,439 L 501,438 L 501,437 L 501,436 L 500,436 L 500,435 L 500,434 L 499,433 L 499,432 L 499,431 L 499,430 L 499,429 L 499,428 L 499,427 L 499,426 L 499,425 L 500,425 L 501,424 L 501,423 L 502,423 L 502,424 L 503,423 L 504,423 L 504,422 L 504,421 L 503,421 L 502,420 L 503,420 L 503,419 L 504,419 L 505,420 L 506,421 L 506,422 L 507,422 L 507,423 L 507,424 L 507,425 L 507,426 L 507,427 L 508,427 L 509,427 L 508,428 L 508,429 L 509,429 L 510,429 L 511,429 L 512,429 L 512,430 L 512,431 L 511,431 L 511,432 L 510,432 L 511,432 L 511,433 L 510,433 L 510,434 L 509,434 L 508,434 L 508,435 L 509,435 L 509,436 L 510,436 L 510,437 L 510,438 L 510,439 L 510,440 L 511,440 L 511,441 L 511,442 L 510,442 L 510,443 L 511,443 L 511,444 L 511,445 L 511,446 L 510,447 L 510,448 L 509,448 L 509,449 L 509,450 L 510,450 L 510,451 L 509,452 L 508,452 L 508,453 L 508,454 L 507,455 L 506,455 L 505,455 L 504,455 L 504,454 L 503,454 L 503,453 L 503,452 L 502,452 L 501,452 L 500,452 L 500,453 L 500,454 L 500,455 L 500,456 L 501,457 L 501,458 L 500,459 L 500,460 L 501,460 L 501,461 L 501,462 L 502,462 L 502,463 L 503,463 L 503,464 L 503,465 L 504,465 L 504,466 L 504,467 L 504,468 L 505,469 L 505,470 L 505,471 L 506,471 L 506,472 L 506,473 L 507,474 L 507,475 L 507,476 L 507,477 L 508,478 L 509,479 L 509,480 L 509,481 L 509,482 L 509,483 L 509,484 L 509,485 L 509,486 L 509,487 L 509,488 L 509,489 L 509,490 L 509,491 L 510,491 L 510,492 L 509,492 L 509,493 L 509,494 L 509,495 L 509,496 L 509,497 L 508,497 L 508,498 L 507,498 L 508,498 L 508,499 L 508,500 L 507,500 L 507,501 L 507,502 L 506,502 L 506,503 L 505,503 L 504,503 L 503,503 L 503,504 L 503,505 L 502,505 L 502,506 L 501,506 L 500,506 L 499,505 L 499,504 L 499,503 L 498,503 L 498,502 L 498,501 L 497,501 L 497,502 L 496,502 L 496,503 L 495,503 L 494,502 L 494,501 L 493,500 L 494,500 L 493,500 L 493,499 L 493,498 L 493,497 L 492,496 L 492,495 L 491,495 L 491,494 L 491,493 L 491,492 L 490,491 L 490,490 L 490,489 L 490,488 L 489,488 L 488,487 L 487,487 L 486,487 L 485,487 L 485,488 L 485,489 L 485,490 L 485,491 L 485,492 L 485,493 L 485,494 L 484,494 L 484,495 L 483,495 L 484,495 L 484,496 L 485,497 L 485,498 L 485,499 L 485,500 L 485,501 L 484,501 L 484,502 L 484,503 L 484,504 L 485,504 L 485,505 L 486,505 L 486,506 L 487,506 L 487,507 L 488,507 L 488,508 L 489,508 L 489,509 L 488,509 L 487,509 L 486,509 L 485,509 L 484,509 L 484,510 L 483,510 L 483,511 L 483,512 L 482,512 L 482,511 L 482,510 L 482,509 L 483,509 L 483,508 L 482,508 L 482,507 L 482,506 L 481,505 L 480,505 L 479,505 L 479,504 L 478,504 L 478,503 L 477,503 L 476,503 L 476,502 L 475,502 L 474,502 L 474,501 L 474,502 L 474,503 L 474,504 L 474,505 L 475,505 L 476,505 L 477,505 L 478,506 L 479,506 L 479,507 L 479,508 L 479,509 L 479,510 L 478,510 L 478,511 L 478,512 L 477,512 L 477,513 L 477,514 L 478,515 L 478,516 L 478,517 L 477,517 L 477,518 L 477,519 L 477,520 L 476,521 L 476,522 L 476,523 L 475,523 L 474,523 L 474,522 L 473,522 L 473,521 L 472,521 L 471,521 L 471,520 L 470,520 L 470,521 L 470,522 L 469,522 L 469,523 L 468,523 L 468,524 L 467,524 L 467,525 L 466,525 L 465,525 L 465,524 L 464,524 L 463,523 L 463,524 L 462,524 L 461,524 L 460,524 L 459,524 L 458,524 L 457,524 L 457,523 L 456,523 L 456,522 L 455,521 L 454,520 L 454,519 L 454,518 L 453,517 L 453,516 L 452,516 L 451,517 L 450,518 L 449,518 L 449,519 L 449,520 L 448,520 L 448,521 L 448,522 L 447,522 L 447,523 L 446,523 L 446,524 L 445,524 L 444,524 L 444,525 L 443,525 L 443,526 L 442,527 L 442,528 L 441,528 L 440,529 L 440,530 L 440,531 L 440,532 L 440,533 L 440,534 L 439,535 L 440,536 L 440,537 L 440,538 L 441,538 L 441,539 L 441,540 L 442,540 L 442,541 L 443,541 L 443,542 L 444,542 L 444,543 L 444,544 L 444,545 L 445,545 L 445,546 L 444,546 L 444,547 L 443,547 L 443,548 L 442,548 L 441,548 L 440,548 L 440,549 L 439,549 L 438,549 L 437,548 L 436,547 L 436,546 L 436,545 L 435,545 L 435,544 L 436,544 L 436,543 L 435,543 L 434,543 L 434,542 L 433,542 L 433,541 L 432,540 L 431,540 L 431,539 L 432,539 L 432,538 L 432,537 L 431,536 L 431,535 L 431,534 L 431,533 L 431,532 L 431,531 L 431,530 L 432,530 L 433,530 L 433,529 L 433,528 L 433,527 L 433,526 L 433,525 L 433,524 L 432,524 L 431,524 L 430,524 L 430,525 L 429,525 L 428,524 L 427,524 L 427,525 L 426,525 L 426,524 L 425,525 L 424,525 L 423,525 L 423,526 L 422,526 L 422,527 L 423,527 L 422,528 L 421,528 L 421,529 L 420,529 L 420,528 L 421,528 L 421,527 L 420,527 L 420,528 L 419,527 L 418,527 L 418,526 L 418,525 L 417,525 L 417,524 L 417,523 L 417,522 L 417,521 L 417,520 L 416,520 L 416,519 L 416,518 L 415,517 L 416,517 L 416,516 L 415,516 L 415,515 L 414,514 L 413,514 L 413,513 L 412,513 L 412,512 L 412,511 L 413,511 L 412,510 L 412,509 L 411,508 L 411,507 L 411,506 L 412,506 L 412,505 L 413,505 L 413,504 L 413,503 L 413,502 L 413,501 L 412,501 L 412,500 L 413,500 L 413,499 L 413,498 L 414,498 L 413,497 L 413,496 L 412,495 L 411,494 L 410,494 L 409,493 L 408,493 L 407,493 L 407,492 L 406,492 L 405,492 L 404,492 L 403,492 L 402,492 L 402,493 L 401,493 L 401,494 L 400,495 L 399,496 L 399,497 L 399,498 L 398,498 L 398,499 L 397,500 L 397,501 L 397,502 L 397,503 L 396,504 L 395,504 L 395,505 L 395,506 L 394,506 L 394,507 L 394,508 L 393,508 L 393,509 L 393,510 L 392,510 L 392,511 L 392,512 L 391,513 L 391,514 L 391,515 L 391,516 L 390,516 L 390,517 L 390,518 L 390,519 L 389,519 L 389,520 L 388,520 L 389,520 L 389,521 L 389,522 L 388,522 L 388,523 L 388,524 L 387,525 L 387,526 L 386,526 L 385,526 L 385,527 L 385,528 L 384,528 L 383,529 L 383,530 L 384,530 L 384,531 L 383,531 L 382,531 L 381,532 L 381,531 L 380,531 L 380,532 L 381,532 L 381,533 L 381,534 L 381,535 L 382,535 L 382,536 L 382,537 L 381,537 L 381,538 L 380,538 L 380,539 L 379,539 L 378,539 L 378,540 L 377,540 L 376,540 L 375,540 L 375,541 L 374,541 L 374,542 L 373,542 L 372,542 L 372,543 L 373,543 L 373,544 L 372,544 L 371,544 L 370,545 L 371,545 L 371,546 L 371,547 L 372,547 L 372,548 L 372,549 L 371,549 L 370,549 L 370,550 L 369,550 L 369,551 L 368,552 L 368,553 L 367,553 L 367,554 L 366,554 L 366,555 L 365,555 L 364,555 L 364,556 L 365,556 L 365,557 L 364,557 L 364,558 L 363,558 L 363,559 L 363,560 L 362,560 L 362,561 L 361,561 L 360,561 L 360,562 L 359,562 L 359,563 L 358,563 L 358,564 L 357,564 L 356,564 L 357,563 L 357,562 L 357,561 L 358,561 L 359,561 L 359,560 L 360,559 L 361,559 L 361,558 L 361,557 L 360,557 L 360,556 L 360,555 L 361,554 L 361,553 L 361,552 L 362,552 L 362,551 L 362,550 L 363,550 L 363,549 L 364,549 L 364,548 L 365,548 L 365,547 L 365,546 L 364,546 L 364,545 L 365,545 L 364,545 L 363,545 L 362,545 L 362,544 L 361,543 L 361,542 L 360,542 L 360,543 L 359,543 L 359,542 L 359,541 L 359,540 L 359,539 L 358,539 L 358,538 L 358,537 L 359,537 L 359,536 L 360,536 L 361,535 L 361,534 L 361,533 L 361,532 L 362,532 L 363,532 L 363,531 L 364,531 L 365,530 L 365,529 L 364,529 L 365,529 L 365,528 L 365,527 L 365,526 L 365,525 L 365,524 L 365,523 L 365,522 L 365,521 L 364,521 L 363,521 L 363,520 L 364,520 L 364,519 L 365,519 L 366,518 L 367,518 L 367,517 L 368,517 L 368,516 L 368,515 L 368,514 L 369,514 L 369,513 L 369,512 L 369,511 L 369,510 L 370,509 L 370,508 L 370,507 L 369,507 L 369,506 L 370,506 L 370,505 L 371,504 L 371,503 L 371,502 L 371,501 L 371,500 L 372,500 L 372,499 L 372,498 L 372,497 L 372,496 L 372,495 L 372,494 L 373,493 L 373,492 L 373,491 L 373,490 L 373,489 L 373,488 L 373,487 L 373,486 L 373,485 L 373,484 L 373,483 L 373,482 L 373,481 L 373,480 L 373,479 L 373,478 L 373,477 L 373,476 L 372,476 L 372,475 L 373,475 L 373,474 L 374,473 L 374,472 L 375,471 L 375,470 L 375,469 L 375,468 L 375,467 L 375,466 L 375,465 L 374,464 L 374,463 L 374,462 L 374,461 L 374,460 L 373,459 L 373,458 L 374,457 L 374,456 L 374,455 L 374,454 L 374,453 L 373,452 L 373,451 L 373,450 L 373,449 L 373,448 L 373,447 L 373,446 L 373,445 L 373,444 L 373,443 L 373,442 L 373,441 L 373,440 L 373,439 L 374,439 L 374,438 L 375,437 L 376,436 L 376,435 L 377,434 L 377,433 L 377,432 L 378,432 L 378,431 L 378,430 L 378,429 L 379,429 L 379,428 L 380,428 L 381,428 L 381,427 L 381,426 L 382,426 L 382,425 L 383,425 L 383,424 L 383,423 L 384,422 L 384,421 L 385,421 L 385,420 L 385,419 L 385,418 L 386,418 L 386,417 L 387,416 L 387,415 L 388,415 L 388,414 L 388,413 L 389,413 L 389,412 L 389,411 L 389,410 L 390,410 L 390,409 L 390,408 L 391,408 L 391,407 L 391,406 L 392,405 L 392,404 L 392,403 L 392,402 L 392,401 L 393,400 L 393,399 L 393,398 L 393,397 L 393,396 L 394,396 L 394,395 L 395,394 L 395,393 L 395,392 L 396,392 L 396,391 L 396,390 L 396,389 L 397,389 L 397,388 L 397,387 L 397,386 L 398,386 L 398,385 L 398,384 L 398,383 L 398,382 L 398,381 L 399,380 L 399,379 L 399,378 L 399,377 L 399,376 L 399,375 L 399,374 L 400,373 L 400,372 L 400,371 L 401,370 L 401,369 L 401,368 L 401,367 L 401,366 L 402,366 L 402,365 L 402,364 L 402,363 L 402,362 L 403,362 L 403,361 L 404,361 L 404,360 L 405,360 L 405,359 L 405,358 L 406,358 L 406,357 L 406,356 L 406,355 L 407,355 L 407,354 L 407,353 L 408,352 L 408,351 L 408,350 L 409,350 L 408,350 L 408,349 L 409,349 L 409,348 L 409,347 L 409,346 L 410,346 L 410,345 L 410,344 L 411,344 L 411,343 L 411,342 L 411,341 L 411,340 L 412,340 L 412,339 L 412,338 L 412,337 L 413,336 L 412,336 L 412,335 L 413,335 L 414,335 L 415,335 L 415,334 L 415,333 L 416,333 L 417,333 L 417,332 L 418,332 L 418,331 L 418,330 L 418,329 L 419,329 L 419,328 L 419,327 L 420,326 L 421,325 L 422,325 L 423,325 L 423,326 L 424,326 L 424,327 L 424,326 L 425,326 L 426,326 L 427,326 L 428,326 L 428,325 L 429,325 L 430,325 L 430,324 L 431,324 L 432,323 L 432,322 L 433,322 L 433,321 L 434,321 L 434,320 L 434,319 L 435,319 L 435,318 L 436,317 L 436,316 L 437,316 L 437,315 L 437,314 L 438,313 L 438,312 L 438,311 L 439,311 L 439,310 L 439,309 L 439,308 L 439,307 L 439,306 L 440,306 L 440,305 L 440,304 L 440,303 L 440,302 L 440,301 L 441,300 L 441,299 L 442,299 L 442,298 L 443,298 L 444,297 L 445,297 L 445,296 L 446,295 L 446,294 L 447,294 L 447,293 L 448,292 L 448,291 L 449,291 L 449,290 L 449,289 L 450,289 L 450,288 L 450,287 L 450,286 L 451,286 L 451,285 L 452,285 L 452,284 L 453,283 L 454,283 L 454,282 L 455,282 L 456,282 L 457,282 L 457,281 L 458,281 L 459,280 L 460,280 L 461,280 L 462,280 L 462,281 L 463,281 L 464,282 L 465,282 L 466,282 L 467,282 L 468,282 L 468,283 L 469,283 L 470,284 L 471,284 L 472,284 L 473,284 L 474,284 L 475,284 L 476,284 L 476,283 L 477,283 L 477,282 L 478,281 L 478,280 L 479,280 L 479,279 L 480,278 L 480,277 L 481,277 L 481,276 L 481,275 L 482,275 L 482,274 L 482,273 L 483,273 L 483,272 L 483,271 L 483,270 L 484,270 L 484,269 L 484,268 L 484,267 L 485,267 L 485,266 L 485,265 L 486,264 L 487,264 L 488,264 L 489,264 L 489,263 L 490,263 L 491,263 L 491,264 L 492,264 L 493,264 L 493,265 L 494,265 L 494,266 L 495,266 L 496,266 L 497,267 L 498,267 L 499,267 L 500,267 L 500,268 L 501,268 L 502,268 L 503,268 L 504,268 L 505,268 L 506,268 L 506,269 L 507,269 L 508,269 L 509,269 L 509,270 L 510,270 L 511,270 L 511,269 L 512,269 L 513,269 L 514,269 L 514,270 L 513,270 L 513,271 L 512,271 L 512,272 L 511,272 L 511,273 L 510,273 L 509,273 L 508,273 L 508,272 L 508,271 L 509,271 L 508,271 L 508,270 L 507,270 L 506,270 L 506,269 L 506,270 L 507,271 L 506,271 L 506,270 L 505,270 L 505,271 L 505,270 L 504,270 L 504,269 L 503,269 L 502,269 L 501,269 L 500,269 L 499,269 L 498,269 L 497,269 L 497,270 L 496,270 L 496,271 L 495,271 L 495,272 L 495,271 L 494,271 L 494,270 L 494,269 L 494,268 L 494,267 L 494,266 L 493,266 L 492,266 L 491,266 L 490,266 L 489,266 L 489,267 L 489,268 L 489,269 L 489,270 L 489,271 L 489,272 L 489,273 L 489,274 L 489,275 L 488,275 L 488,274 L 488,273 L 487,273 L 487,274 L 486,274 L 485,274 L 484,274 L 484,275 L 483,275 L 483,276 L 482,276 L 482,277 L 482,278 L 482,279 L 482,280 L 483,280 L 484,280 L 483,280 L 482,280 L 482,281 L 483,281 L 483,282 L 484,282 L 485,282 L 486,283 L 487,283 L 487,282 L 488,282 L 489,282 L 489,281 L 490,281 L 491,281 L 491,280 L 490,280 L 491,280 L 492,280 L 492,281 L 493,281 L 494,281 L 495,281 L 496,281 L 497,281 L 497,282 L 498,282 L 499,282 L 500,281 L 500,282 L 500,281 L 501,281 L 502,281 L 503,281 L 504,281 L 505,281 L 506,281 L 506,280 L 507,280 L 507,279 L 508,279 L 508,278 L 509,278 L 509,277 L 509,276 L 510,276 L 510,275 L 510,274 L 511,274 " />
</g>
</g>
</g>
<!-- QGIS extent for clipping, eg in Inkscape -->
<g id="qgisviewbox" inkscape:groupmode="layer" inkscape:label="qgisviewbox" stroke="rgb(255,0,0)" stroke-width="1" fill="none" >
<path d="M 0,882 L 1061,882 L 1061,0 L 0,0 L 0,882 " />
</g></svg>