<?xml version="1.0" standalone="no"?>
<!DOCTYPE svg PUBLIC "-//W3C//DTD SVG 1.1//EN" "http://www.w3.org/Graphics/SVG/1.1/DTD/svg11.dtd">
<svg xmlns="http://www.w3.org/2000/svg" xmlns:inkscape="http://www.inkscape.org/namespaces/inkscape" xmlns:xlink="http://www.w3.org/1999/xlink" viewBox = "0 0 1065 886" version = "1.1">
<!-- svg generated using QGIS www.qgis.org -->
<g id="sporades" inkscape:groupmode="layer" inkscape:label="sporades">
<g stroke="none" fill="rgb(189,122,44)" stroke-linejoin="round" stroke-width="0.26">
<g id="sporades_1" >
<path d="M 317,522 L 317,521 L 316,521 L 316,520 L 315,520 L 315,519 L 315,518 L 315,517 L 315,516 L 314,516 L 314,515 L 314,514 L 315,514 L 315,513 L 315,512 L 314,512 L 314,511 L 315,511 L 315,510 L 316,510 L 316,509 L 317,509 L 318,509 L 318,510 L 319,510 L 320,510 L 320,511 L 320,512 L 321,512 L 321,513 L 321,514 L 321,515 L 321,516 L 321,517 L 321,518 L 321,519 L 321,520 L 322,520 L 323,520 L 322,520 L 322,521 L 323,521 L 322,521 L 321,521 L 321,522 L 320,522 L 319,522 L 318,522 L 317,522 " />
<path d="M 338,496 L 337,496 L 336,496 L 335,496 L 335,495 L 336,495 L 336,494 L 336,495 L 337,495 L 338,495 L 338,494 L 339,494 L 339,495 L 338,495 L 338,496 " />
<path d="M 318,457 L 319,457 L 320,457 L 320,456 L 321,456 L 321,457 L 322,457 L 322,458 L 322,459 L 323,459 L 323,460 L 323,461 L 323,462 L 324,462 L 325,462 L 326,461 L 326,462 L 327,462 L 326,462 L 326,463 L 326,464 L 326,465 L 326,466 L 326,467 L 326,468 L 327,468 L 327,469 L 328,469 L 328,470 L 327,470 L 327,471 L 328,472 L 328,473 L 328,474 L 328,475 L 328,476 L 328,477 L 327,477 L 327,478 L 326,478 L 326,479 L 326,480 L 325,480 L 325,481 L 325,482 L 324,482 L 325,482 L 325,483 L 324,483 L 324,484 L 324,485 L 323,485 L 323,486 L 322,487 L 321,487 L 320,487 L 319,487 L 319,486 L 319,485 L 319,484 L 319,483 L 320,482 L 320,481 L 320,480 L 320,479 L 321,479 L 321,478 L 321,477 L 320,477 L 319,477 L 319,476 L 319,477 L 318,477 L 318,478 L 317,478 L 316,478 L 316,479 L 315,479 L 314,479 L 314,480 L 313,480 L 313,481 L 313,482 L 313,483 L 313,484 L 312,484 L 312,483 L 311,483 L 312,483 L 311,483 L 311,484 L 311,485 L 311,486 L 310,486 L 310,485 L 309,485 L 309,484 L 309,483 L 308,483 L 307,483 L 307,482 L 306,482 L 305,482 L 305,483 L 304,483 L 303,483 L 303,484 L 302,484 L 302,485 L 301,485 L 301,486 L 300,487 L 300,488 L 299,488 L 299,489 L 298,490 L 298,491 L 297,491 L 297,492 L 297,493 L 297,494 L 297,495 L 296,495 L 296,494 L 296,495 L 295,495 L 295,496 L 294,496 L 294,497 L 294,498 L 294,499 L 293,499 L 293,500 L 292,500 L 292,499 L 292,500 L 291,500 L 291,501 L 291,502 L 292,502 L 292,503 L 292,504 L 293,504 L 294,504 L 295,504 L 294,505 L 294,506 L 294,507 L 295,507 L 295,508 L 295,509 L 295,510 L 294,510 L 293,510 L 293,511 L 292,511 L 291,511 L 290,510 L 289,510 L 288,510 L 287,510 L 287,511 L 287,510 L 286,510 L 286,509 L 285,509 L 285,510 L 285,509 L 284,509 L 284,508 L 284,507 L 284,506 L 284,505 L 283,504 L 283,503 L 282,503 L 282,502 L 283,502 L 283,501 L 283,500 L 282,499 L 282,500 L 281,500 L 280,500 L 279,499 L 278,499 L 277,499 L 277,500 L 276,500 L 275,500 L 275,501 L 274,501 L 273,501 L 273,502 L 272,502 L 271,503 L 271,504 L 270,504 L 270,503 L 269,503 L 268,503 L 268,502 L 267,502 L 267,501 L 266,501 L 265,501 L 264,501 L 263,501 L 262,501 L 262,500 L 262,499 L 261,499 L 260,498 L 260,497 L 260,496 L 259,496 L 258,495 L 258,494 L 257,494 L 257,493 L 256,493 L 255,493 L 255,494 L 254,494 L 253,494 L 253,495 L 252,495 L 252,496 L 251,496 L 251,497 L 251,498 L 250,498 L 250,499 L 249,499 L 249,500 L 248,500 L 248,499 L 247,499 L 247,500 L 247,499 L 246,499 L 246,498 L 247,498 L 247,497 L 248,497 L 248,496 L 248,495 L 248,494 L 247,494 L 248,494 L 248,493 L 248,492 L 247,492 L 248,492 L 248,491 L 248,490 L 248,489 L 247,489 L 246,489 L 246,488 L 245,488 L 245,487 L 244,487 L 244,486 L 245,486 L 245,485 L 245,484 L 246,484 L 246,485 L 247,485 L 247,484 L 247,483 L 247,482 L 248,482 L 248,481 L 249,481 L 249,482 L 249,481 L 250,481 L 251,481 L 251,480 L 251,479 L 251,480 L 252,480 L 252,479 L 253,479 L 253,478 L 253,477 L 252,477 L 252,476 L 253,476 L 254,476 L 254,477 L 255,477 L 255,478 L 256,478 L 257,478 L 258,478 L 258,477 L 259,478 L 259,477 L 260,477 L 260,476 L 261,476 L 261,475 L 262,475 L 262,474 L 263,474 L 264,474 L 264,473 L 265,473 L 266,473 L 266,472 L 267,472 L 266,472 L 267,472 L 267,473 L 268,473 L 269,473 L 270,473 L 270,472 L 271,472 L 271,471 L 271,470 L 272,470 L 273,470 L 273,471 L 273,470 L 274,470 L 274,471 L 274,470 L 274,469 L 275,469 L 276,469 L 277,469 L 277,468 L 278,468 L 279,468 L 280,467 L 281,467 L 281,466 L 282,466 L 282,465 L 282,464 L 283,463 L 282,463 L 282,462 L 282,461 L 281,461 L 281,460 L 281,459 L 281,458 L 282,458 L 281,457 L 282,457 L 281,457 L 281,456 L 281,455 L 281,454 L 281,453 L 280,452 L 281,452 L 282,452 L 283,451 L 283,452 L 284,452 L 284,451 L 284,452 L 285,452 L 286,452 L 287,451 L 288,451 L 288,450 L 289,450 L 289,449 L 289,448 L 290,448 L 290,447 L 291,447 L 291,446 L 292,446 L 292,445 L 292,444 L 292,443 L 292,442 L 293,442 L 294,441 L 294,442 L 294,443 L 294,444 L 295,444 L 296,444 L 297,444 L 298,444 L 298,445 L 299,445 L 300,445 L 301,445 L 302,445 L 303,445 L 303,444 L 304,444 L 304,445 L 305,445 L 305,446 L 306,446 L 307,446 L 307,447 L 308,447 L 308,448 L 308,447 L 308,448 L 309,448 L 310,448 L 310,449 L 311,449 L 311,450 L 312,450 L 312,451 L 312,450 L 313,450 L 314,450 L 314,451 L 314,452 L 314,453 L 315,453 L 315,454 L 315,455 L 315,456 L 316,456 L 316,457 L 317,457 L 318,457 " />
<path d="M 318,491 L 319,491 L 319,490 L 320,490 L 320,491 L 320,492 L 320,493 L 319,493 L 318,493 L 317,493 L 317,492 L 318,492 L 318,491 " />
<path d="M 294,441 L 294,442 L 294,441 L 293,441 L 294,440 L 294,441 " />
<path d="M 294,440 L 294,439 L 294,440 " />
<path d="M 330,468 L 329,468 L 330,468 " />
<path d="M 333,476 L 333,477 L 332,477 L 331,478 L 331,477 L 331,476 L 331,475 L 331,474 L 332,473 L 333,473 L 333,474 L 334,474 L 334,475 L 334,476 L 333,476 " />
<path d="M 308,514 L 307,514 L 307,515 L 306,515 L 306,514 L 305,514 L 304,514 L 304,513 L 305,513 L 306,513 L 306,512 L 307,512 L 307,513 L 308,513 L 308,514 " />
<path d="M 331,497 L 330,497 L 330,496 L 331,496 L 330,496 L 331,495 L 330,495 L 329,495 L 329,494 L 329,493 L 329,492 L 328,492 L 328,491 L 327,491 L 327,490 L 327,489 L 328,489 L 329,489 L 329,488 L 330,488 L 330,489 L 331,489 L 331,490 L 331,491 L 331,492 L 332,491 L 332,492 L 333,492 L 332,492 L 332,493 L 332,494 L 333,494 L 333,495 L 332,495 L 332,496 L 332,497 L 331,497 " />
<path d="M 329,471 L 328,471 L 329,470 L 329,471 " />
<path d="M 266,504 L 266,505 L 265,505 L 265,504 L 266,504 " />
</g>
<g id="sporades_2" >
<path d="M 386,442 L 385,442 L 386,442 " />
<path d="M 402,456 L 402,455 L 402,456 " />
<path d="M 393,510 L 392,510 L 393,510 " />
<path d="M 397,505 L 396,505 L 396,506 L 396,505 L 396,506 L 395,506 L 395,505 L 396,505 L 397,505 " />
<path d="M 499,536 L 498,536 L 499,536 " />
<path d="M 484,549 L 483,549 L 483,548 L 484,548 L 484,549 " />
<path d="M 411,523 L 410,523 L 410,524 L 409,523 L 408,523 L 407,523 L 407,522 L 406,522 L 405,522 L 405,521 L 405,520 L 406,519 L 406,518 L 406,519 L 407,519 L 408,519 L 409,519 L 409,520 L 409,521 L 410,521 L 410,522 L 411,522 L 411,523 " />
<path d="M 401,524 L 400,524 L 399,524 L 400,524 L 400,523 L 399,523 L 400,523 L 401,523 L 401,524 " />
<path d="M 499,510 L 499,509 L 499,510 " />
<path d="M 498,537 L 498,538 L 497,537 L 498,537 " />
<path d="M 517,507 L 517,508 L 516,508 L 516,509 L 516,508 L 515,508 L 514,508 L 513,508 L 512,508 L 511,508 L 511,507 L 512,507 L 512,506 L 513,506 L 513,505 L 514,505 L 514,504 L 515,504 L 515,503 L 514,503 L 515,503 L 515,502 L 516,502 L 517,502 L 517,503 L 517,504 L 518,504 L 518,505 L 517,505 L 517,506 L 517,507 " />
<path d="M 495,510 L 495,511 L 495,510 " />
<path d="M 501,533 L 500,533 L 500,532 L 501,532 L 501,533 " />
<path d="M 395,481 L 395,480 L 394,480 L 394,479 L 393,479 L 392,479 L 392,480 L 392,481 L 393,481 L 392,481 L 392,482 L 392,481 L 392,480 L 392,479 L 391,478 L 390,478 L 390,477 L 389,477 L 389,476 L 389,475 L 388,475 L 388,474 L 388,473 L 387,472 L 387,471 L 387,470 L 387,469 L 386,469 L 386,468 L 386,467 L 385,466 L 385,465 L 385,464 L 384,464 L 384,463 L 384,462 L 383,462 L 383,461 L 382,461 L 382,460 L 381,459 L 381,458 L 380,458 L 380,457 L 379,457 L 379,456 L 378,456 L 378,455 L 377,454 L 377,453 L 377,452 L 377,451 L 377,450 L 377,449 L 377,448 L 377,447 L 378,447 L 378,446 L 378,445 L 379,445 L 379,444 L 380,444 L 381,444 L 381,443 L 382,443 L 383,443 L 384,443 L 385,443 L 385,442 L 386,442 L 387,442 L 387,443 L 387,442 L 388,442 L 389,442 L 390,442 L 390,443 L 390,442 L 390,443 L 390,442 L 390,443 L 390,444 L 391,444 L 391,445 L 392,445 L 392,446 L 392,445 L 392,446 L 392,447 L 392,448 L 392,449 L 392,450 L 393,450 L 392,450 L 392,451 L 392,452 L 392,453 L 393,453 L 393,454 L 394,454 L 395,454 L 396,454 L 397,454 L 397,455 L 397,456 L 398,456 L 398,455 L 398,456 L 399,456 L 400,456 L 401,456 L 402,456 L 402,457 L 403,457 L 404,458 L 405,458 L 406,458 L 406,459 L 406,460 L 405,460 L 406,461 L 406,460 L 406,461 L 407,461 L 407,462 L 406,462 L 406,463 L 407,463 L 407,464 L 406,464 L 406,465 L 407,465 L 407,466 L 407,465 L 407,466 L 408,466 L 408,467 L 408,468 L 409,468 L 409,469 L 410,469 L 411,469 L 411,470 L 411,471 L 411,472 L 412,472 L 412,471 L 413,471 L 413,472 L 414,471 L 414,472 L 415,472 L 416,473 L 416,472 L 417,472 L 417,473 L 416,473 L 416,474 L 416,475 L 417,475 L 417,476 L 418,476 L 418,475 L 418,476 L 419,476 L 419,477 L 420,477 L 420,478 L 421,478 L 422,478 L 423,478 L 423,479 L 423,480 L 423,481 L 424,481 L 425,481 L 426,481 L 427,481 L 428,481 L 429,481 L 430,481 L 430,482 L 431,482 L 431,483 L 431,484 L 432,484 L 433,484 L 433,485 L 434,485 L 434,486 L 435,486 L 435,487 L 436,487 L 437,487 L 438,487 L 439,487 L 439,486 L 440,486 L 441,486 L 442,486 L 443,486 L 444,486 L 444,487 L 445,487 L 445,488 L 446,488 L 446,489 L 447,489 L 447,490 L 448,490 L 449,490 L 449,491 L 450,491 L 450,492 L 451,492 L 451,491 L 452,490 L 452,491 L 452,492 L 452,493 L 453,493 L 453,494 L 454,494 L 455,494 L 456,494 L 457,494 L 456,494 L 456,495 L 457,495 L 458,495 L 458,496 L 458,497 L 459,497 L 459,498 L 459,499 L 460,499 L 460,498 L 460,497 L 460,496 L 461,495 L 462,495 L 463,496 L 463,497 L 464,497 L 464,498 L 464,499 L 463,499 L 463,500 L 463,501 L 463,502 L 464,502 L 465,502 L 465,503 L 466,504 L 466,505 L 467,505 L 466,506 L 465,506 L 465,507 L 464,507 L 464,508 L 463,508 L 463,509 L 463,510 L 463,511 L 464,512 L 465,512 L 465,513 L 466,513 L 466,514 L 467,514 L 468,514 L 468,515 L 469,515 L 469,516 L 468,515 L 467,515 L 468,516 L 467,515 L 467,516 L 467,517 L 467,518 L 469,517 L 467,518 L 468,518 L 468,519 L 469,519 L 470,519 L 471,519 L 472,519 L 473,519 L 473,518 L 474,518 L 474,517 L 474,516 L 474,515 L 475,515 L 475,514 L 475,513 L 475,512 L 476,511 L 476,510 L 477,510 L 478,510 L 479,511 L 480,510 L 481,510 L 482,510 L 483,510 L 483,509 L 484,509 L 485,509 L 485,510 L 486,510 L 487,510 L 488,510 L 489,510 L 490,510 L 491,511 L 492,511 L 493,511 L 494,511 L 495,511 L 496,511 L 497,511 L 498,511 L 498,510 L 499,510 L 500,510 L 501,510 L 502,510 L 503,510 L 504,511 L 503,511 L 503,512 L 504,512 L 505,512 L 505,513 L 505,514 L 506,514 L 506,515 L 507,515 L 507,514 L 508,514 L 508,515 L 508,516 L 509,516 L 510,516 L 509,516 L 510,516 L 510,517 L 509,517 L 508,518 L 508,519 L 507,519 L 507,520 L 506,520 L 506,521 L 505,521 L 505,522 L 505,523 L 505,524 L 504,525 L 503,525 L 503,526 L 504,526 L 504,527 L 504,528 L 503,528 L 503,529 L 503,530 L 502,530 L 502,531 L 501,531 L 501,532 L 500,532 L 500,533 L 500,534 L 499,535 L 498,535 L 498,536 L 498,537 L 497,537 L 497,538 L 496,538 L 496,539 L 496,540 L 495,540 L 495,541 L 494,541 L 494,542 L 494,541 L 494,542 L 494,543 L 493,543 L 493,544 L 492,544 L 492,545 L 491,545 L 490,545 L 490,544 L 489,544 L 489,545 L 488,545 L 488,544 L 487,544 L 486,544 L 486,545 L 485,545 L 485,546 L 484,546 L 484,547 L 483,547 L 483,548 L 483,549 L 482,549 L 482,548 L 482,547 L 481,547 L 480,547 L 479,547 L 478,547 L 478,548 L 477,548 L 477,549 L 476,549 L 475,550 L 474,550 L 474,551 L 473,551 L 474,551 L 474,552 L 473,552 L 473,553 L 474,553 L 474,554 L 474,555 L 473,555 L 472,555 L 471,555 L 471,556 L 471,557 L 470,557 L 469,558 L 469,559 L 469,558 L 468,558 L 467,558 L 467,559 L 466,559 L 465,560 L 464,560 L 463,559 L 463,560 L 462,560 L 462,561 L 461,561 L 462,561 L 462,560 L 462,559 L 462,558 L 461,558 L 460,558 L 460,557 L 460,558 L 459,558 L 458,558 L 458,559 L 457,559 L 457,558 L 456,558 L 455,558 L 455,557 L 454,557 L 453,557 L 453,558 L 453,557 L 452,557 L 452,556 L 453,556 L 454,556 L 453,556 L 453,555 L 453,554 L 453,553 L 453,552 L 453,551 L 454,551 L 454,550 L 455,550 L 455,549 L 455,550 L 455,549 L 454,549 L 453,549 L 452,549 L 452,548 L 451,548 L 451,547 L 450,547 L 449,547 L 448,547 L 448,546 L 447,546 L 447,545 L 447,544 L 446,544 L 445,544 L 445,545 L 445,546 L 445,547 L 444,547 L 443,547 L 442,546 L 441,546 L 441,547 L 440,547 L 439,547 L 438,547 L 437,547 L 437,546 L 436,547 L 436,546 L 436,547 L 436,548 L 435,547 L 434,547 L 433,547 L 433,548 L 432,548 L 431,548 L 431,547 L 430,547 L 430,548 L 430,547 L 429,547 L 429,546 L 428,546 L 428,547 L 427,547 L 426,547 L 426,546 L 425,546 L 424,546 L 423,546 L 423,547 L 422,547 L 422,548 L 421,548 L 420,548 L 419,548 L 419,547 L 418,547 L 418,546 L 418,545 L 419,545 L 420,545 L 421,545 L 421,544 L 422,544 L 422,543 L 421,543 L 421,542 L 421,541 L 421,540 L 421,539 L 420,539 L 420,538 L 420,537 L 420,536 L 419,536 L 419,535 L 419,534 L 419,533 L 420,533 L 420,532 L 420,531 L 420,530 L 419,529 L 420,529 L 420,528 L 421,528 L 422,528 L 422,529 L 422,530 L 422,531 L 423,531 L 424,531 L 423,531 L 423,530 L 423,529 L 423,528 L 424,528 L 424,527 L 424,526 L 424,525 L 423,525 L 422,525 L 421,525 L 420,525 L 419,525 L 419,524 L 418,525 L 417,525 L 417,524 L 416,524 L 417,523 L 417,522 L 418,522 L 418,521 L 418,520 L 419,519 L 419,518 L 419,517 L 419,516 L 418,516 L 418,515 L 417,515 L 417,514 L 416,514 L 416,513 L 416,512 L 415,512 L 415,511 L 414,511 L 414,510 L 414,509 L 413,509 L 412,509 L 412,508 L 413,508 L 413,507 L 412,506 L 412,505 L 412,504 L 412,503 L 411,503 L 411,502 L 410,502 L 409,501 L 408,501 L 408,500 L 407,500 L 407,499 L 406,499 L 405,499 L 404,499 L 404,498 L 403,498 L 403,497 L 402,497 L 401,497 L 400,497 L 401,497 L 401,496 L 401,495 L 401,494 L 400,494 L 400,493 L 400,492 L 400,491 L 399,491 L 399,490 L 399,489 L 399,488 L 399,487 L 399,486 L 398,486 L 398,485 L 397,485 L 397,486 L 398,486 L 398,487 L 397,487 L 397,486 L 397,485 L 397,484 L 397,483 L 396,483 L 396,482 L 396,481 L 395,481 " />
</g>
<g id="sporades_3" >
<path d="M 738,333 L 738,334 L 738,335 L 738,336 L 737,336 L 736,336 L 736,337 L 735,337 L 735,336 L 734,336 L 734,335 L 733,335 L 732,335 L 733,334 L 732,334 L 731,333 L 730,333 L 730,332 L 730,331 L 731,331 L 731,330 L 731,329 L 730,329 L 730,328 L 730,327 L 731,327 L 732,328 L 733,328 L 734,328 L 734,329 L 735,329 L 736,330 L 737,330 L 737,331 L 738,331 L 738,332 L 737,332 L 738,332 L 738,333 " />
<path d="M 858,335 L 858,336 L 858,335 " />
<path d="M 697,316 L 696,316 L 696,317 L 696,318 L 696,319 L 695,319 L 695,318 L 696,317 L 696,316 L 696,315 L 697,316 " />
<path d="M 556,450 L 556,451 L 555,451 L 555,452 L 554,451 L 554,450 L 553,450 L 553,449 L 554,449 L 555,449 L 556,449 L 555,450 L 556,450 " />
<path d="M 857,341 L 857,342 L 857,341 " />
<path d="M 639,509 L 639,508 L 639,509 " />
<path d="M 761,280 L 761,281 L 762,281 L 762,282 L 763,282 L 763,283 L 764,283 L 764,282 L 765,282 L 766,282 L 767,282 L 766,282 L 766,283 L 765,283 L 765,284 L 765,285 L 764,285 L 764,286 L 764,287 L 765,287 L 765,288 L 766,288 L 765,288 L 765,289 L 765,288 L 765,289 L 764,289 L 764,290 L 765,290 L 764,290 L 764,291 L 764,292 L 763,292 L 763,293 L 764,293 L 763,294 L 763,295 L 763,296 L 762,296 L 761,297 L 760,297 L 759,297 L 759,298 L 760,298 L 760,299 L 760,300 L 759,300 L 759,301 L 759,302 L 758,302 L 758,303 L 757,302 L 756,302 L 756,303 L 755,303 L 755,304 L 754,304 L 753,304 L 753,305 L 752,305 L 752,306 L 752,307 L 752,308 L 751,308 L 751,309 L 750,310 L 750,311 L 750,312 L 750,313 L 749,314 L 749,315 L 749,316 L 748,316 L 748,317 L 747,317 L 746,317 L 746,316 L 745,316 L 745,315 L 745,314 L 745,313 L 746,313 L 746,312 L 745,312 L 745,311 L 745,310 L 746,310 L 746,309 L 745,309 L 745,310 L 744,310 L 743,310 L 742,310 L 742,309 L 741,310 L 741,309 L 741,310 L 740,310 L 739,310 L 738,310 L 737,310 L 736,310 L 735,310 L 735,309 L 734,309 L 733,309 L 732,309 L 732,308 L 733,308 L 734,308 L 735,308 L 735,307 L 736,307 L 736,306 L 737,306 L 737,305 L 738,305 L 739,305 L 740,304 L 741,304 L 742,304 L 742,303 L 743,303 L 743,302 L 744,302 L 743,302 L 743,301 L 743,300 L 744,300 L 744,299 L 745,299 L 746,299 L 746,298 L 747,298 L 747,297 L 747,296 L 747,295 L 747,294 L 747,293 L 746,293 L 746,292 L 745,292 L 745,291 L 745,292 L 746,292 L 746,291 L 745,291 L 746,291 L 746,290 L 745,290 L 745,289 L 746,289 L 747,289 L 748,289 L 749,289 L 749,288 L 749,287 L 748,287 L 748,286 L 747,286 L 746,286 L 746,285 L 746,286 L 745,285 L 745,284 L 746,284 L 746,285 L 747,285 L 747,284 L 747,285 L 748,285 L 748,284 L 748,283 L 748,282 L 749,282 L 749,281 L 748,281 L 748,280 L 747,279 L 748,279 L 748,278 L 748,277 L 749,277 L 750,277 L 750,276 L 751,276 L 752,276 L 753,276 L 753,277 L 754,277 L 754,276 L 753,276 L 754,275 L 753,275 L 753,274 L 753,273 L 754,273 L 755,274 L 755,273 L 754,272 L 754,271 L 755,271 L 755,270 L 756,270 L 756,269 L 756,268 L 757,268 L 757,267 L 757,266 L 756,266 L 755,266 L 756,266 L 756,265 L 757,265 L 757,264 L 757,263 L 757,262 L 757,261 L 757,262 L 758,262 L 758,261 L 759,260 L 758,260 L 758,259 L 759,259 L 759,258 L 759,259 L 759,260 L 759,261 L 759,262 L 760,262 L 760,263 L 761,263 L 761,264 L 762,264 L 762,265 L 761,265 L 761,266 L 761,267 L 761,268 L 760,268 L 760,269 L 761,269 L 761,270 L 761,271 L 760,271 L 760,272 L 760,273 L 761,273 L 761,274 L 761,275 L 761,276 L 760,276 L 760,277 L 761,277 L 760,277 L 760,278 L 760,279 L 761,279 L 761,280 " />
<path d="M 767,287 L 766,287 L 766,286 L 767,286 L 767,287 " />
<path d="M 671,356 L 671,357 L 670,358 L 669,358 L 668,358 L 667,358 L 667,357 L 668,357 L 668,356 L 668,355 L 669,355 L 670,355 L 671,355 L 671,356 " />
<path d="M 612,562 L 612,563 L 612,562 L 612,561 L 613,561 L 613,562 L 612,562 " />
<path d="M 710,557 L 711,557 L 711,558 L 711,559 L 710,560 L 709,560 L 709,559 L 708,559 L 708,560 L 707,560 L 707,561 L 707,562 L 706,562 L 705,562 L 705,561 L 705,560 L 705,559 L 706,559 L 706,558 L 707,558 L 707,557 L 707,556 L 707,557 L 708,557 L 708,558 L 709,558 L 710,557 " />
<path d="M 763,214 L 763,215 L 762,215 L 762,214 L 763,214 " />
<path d="M 616,556 L 616,557 L 615,557 L 615,556 L 616,556 " />
<path d="M 559,503 L 559,502 L 559,503 L 560,503 L 559,503 " />
<path d="M 857,341 L 856,341 L 857,341 " />
<path d="M 699,580 L 698,580 L 698,581 L 697,581 L 696,581 L 695,581 L 695,580 L 696,580 L 697,580 L 697,579 L 697,578 L 698,578 L 697,577 L 697,576 L 698,576 L 698,575 L 699,575 L 699,576 L 699,577 L 700,577 L 700,578 L 699,578 L 699,579 L 699,580 " />
<path d="M 728,325 L 728,326 L 727,326 L 727,325 L 728,325 " />
<path d="M 704,374 L 703,374 L 703,373 L 704,373 L 704,374 " />
<path d="M 699,574 L 699,573 L 699,574 " />
<path d="M 630,394 L 629,394 L 629,395 L 629,396 L 629,395 L 630,395 L 631,395 L 632,394 L 633,394 L 633,395 L 633,396 L 633,397 L 632,397 L 633,397 L 633,398 L 632,398 L 632,399 L 631,399 L 631,400 L 631,401 L 630,401 L 631,401 L 631,402 L 631,403 L 631,404 L 630,404 L 630,405 L 629,405 L 629,406 L 628,406 L 627,406 L 627,407 L 626,407 L 627,407 L 626,408 L 626,409 L 626,410 L 627,410 L 627,411 L 626,411 L 625,411 L 624,411 L 624,412 L 624,413 L 623,413 L 622,413 L 622,414 L 622,415 L 622,416 L 621,416 L 621,417 L 620,417 L 620,418 L 619,418 L 619,419 L 618,420 L 618,421 L 617,421 L 617,422 L 616,422 L 616,423 L 615,423 L 615,424 L 614,424 L 614,425 L 613,426 L 613,427 L 613,428 L 612,428 L 612,429 L 611,429 L 611,430 L 610,430 L 609,431 L 608,432 L 608,433 L 608,434 L 609,435 L 609,436 L 608,436 L 607,436 L 606,436 L 606,437 L 606,438 L 605,439 L 605,440 L 604,441 L 604,442 L 603,442 L 603,443 L 602,443 L 602,444 L 601,444 L 601,445 L 600,445 L 600,446 L 600,447 L 599,447 L 599,448 L 599,449 L 598,450 L 599,450 L 599,451 L 598,451 L 598,452 L 598,453 L 597,453 L 598,453 L 598,454 L 597,454 L 596,454 L 596,455 L 596,456 L 597,456 L 597,457 L 598,457 L 598,458 L 597,458 L 596,458 L 595,458 L 596,459 L 597,459 L 596,459 L 596,460 L 595,461 L 596,461 L 597,461 L 597,462 L 596,462 L 596,463 L 595,463 L 596,463 L 596,464 L 595,464 L 595,465 L 594,465 L 595,465 L 595,466 L 594,466 L 594,467 L 593,467 L 593,466 L 592,467 L 593,467 L 593,468 L 593,469 L 592,469 L 593,469 L 593,470 L 593,471 L 592,471 L 591,471 L 592,471 L 592,472 L 591,472 L 592,472 L 591,472 L 591,473 L 590,473 L 590,474 L 589,474 L 588,474 L 588,473 L 587,473 L 586,473 L 585,473 L 584,473 L 584,474 L 584,475 L 585,475 L 586,475 L 586,476 L 585,476 L 585,477 L 584,477 L 583,477 L 582,477 L 581,477 L 580,477 L 579,477 L 579,476 L 579,477 L 578,477 L 578,478 L 579,478 L 579,479 L 580,480 L 581,480 L 582,480 L 582,479 L 582,480 L 582,481 L 583,481 L 584,481 L 584,482 L 583,482 L 584,482 L 584,483 L 583,483 L 583,482 L 582,482 L 582,481 L 581,481 L 581,482 L 581,483 L 580,483 L 579,483 L 578,483 L 577,483 L 577,482 L 576,482 L 576,483 L 575,483 L 575,484 L 576,484 L 576,485 L 575,485 L 575,486 L 574,486 L 574,487 L 573,486 L 573,485 L 572,485 L 572,484 L 571,484 L 571,483 L 570,483 L 570,484 L 569,484 L 570,484 L 570,485 L 570,486 L 569,486 L 568,486 L 568,487 L 567,487 L 566,487 L 566,488 L 565,488 L 565,489 L 565,490 L 566,490 L 566,491 L 567,491 L 567,492 L 568,492 L 568,493 L 568,494 L 567,494 L 566,494 L 565,494 L 564,494 L 564,495 L 563,495 L 563,494 L 563,493 L 562,493 L 562,494 L 561,494 L 561,495 L 561,496 L 561,497 L 560,497 L 560,496 L 560,495 L 559,495 L 559,496 L 559,497 L 558,497 L 558,498 L 558,499 L 558,498 L 558,499 L 557,498 L 556,498 L 556,499 L 556,500 L 557,500 L 558,500 L 558,501 L 558,502 L 559,502 L 559,503 L 558,503 L 557,503 L 557,504 L 556,504 L 556,505 L 555,505 L 555,504 L 555,505 L 554,505 L 553,505 L 552,505 L 552,506 L 552,505 L 551,505 L 551,506 L 551,507 L 550,507 L 550,508 L 549,508 L 548,508 L 548,507 L 548,508 L 548,509 L 547,509 L 547,508 L 546,508 L 546,507 L 546,506 L 545,506 L 545,505 L 546,505 L 545,504 L 545,503 L 544,503 L 544,502 L 543,501 L 542,501 L 542,500 L 541,500 L 541,501 L 540,501 L 540,500 L 539,500 L 539,499 L 538,499 L 538,500 L 537,500 L 537,499 L 536,499 L 536,500 L 535,501 L 534,502 L 533,502 L 533,501 L 533,500 L 533,499 L 533,498 L 533,497 L 533,496 L 533,495 L 532,495 L 532,494 L 532,493 L 533,493 L 532,493 L 533,492 L 534,492 L 534,491 L 534,490 L 535,490 L 535,489 L 536,489 L 536,488 L 537,488 L 537,487 L 538,487 L 538,488 L 538,487 L 539,487 L 539,488 L 540,488 L 540,487 L 541,487 L 541,486 L 542,486 L 542,485 L 543,485 L 543,486 L 544,486 L 543,486 L 543,487 L 544,487 L 544,488 L 545,488 L 545,487 L 545,486 L 545,487 L 546,487 L 547,488 L 547,487 L 547,486 L 546,486 L 547,486 L 547,485 L 548,484 L 549,484 L 549,483 L 549,482 L 550,481 L 550,480 L 550,479 L 550,478 L 551,478 L 551,477 L 552,477 L 552,476 L 553,476 L 553,477 L 554,477 L 554,478 L 555,478 L 556,478 L 556,477 L 557,477 L 557,478 L 558,478 L 558,477 L 559,477 L 560,477 L 560,476 L 560,475 L 561,475 L 562,475 L 563,475 L 563,474 L 564,474 L 564,473 L 564,472 L 564,471 L 564,470 L 565,471 L 566,471 L 566,470 L 566,469 L 565,469 L 566,469 L 566,468 L 565,468 L 565,467 L 564,466 L 564,467 L 563,466 L 562,466 L 561,466 L 562,466 L 562,465 L 561,465 L 560,465 L 560,464 L 560,463 L 561,463 L 561,462 L 560,461 L 561,461 L 562,461 L 562,460 L 563,460 L 563,461 L 563,460 L 563,459 L 563,458 L 564,457 L 564,456 L 563,456 L 563,455 L 564,455 L 564,454 L 563,454 L 563,453 L 562,453 L 561,453 L 560,453 L 560,452 L 559,451 L 558,450 L 558,449 L 559,449 L 559,448 L 559,447 L 560,447 L 561,447 L 562,447 L 562,448 L 563,448 L 564,448 L 564,447 L 565,447 L 565,446 L 564,446 L 565,446 L 565,445 L 566,445 L 566,444 L 567,444 L 567,443 L 567,442 L 567,441 L 568,441 L 568,440 L 569,440 L 569,439 L 569,438 L 570,438 L 570,437 L 569,437 L 569,436 L 570,436 L 570,435 L 571,435 L 570,435 L 569,434 L 568,434 L 569,434 L 570,434 L 571,434 L 572,434 L 573,434 L 573,435 L 574,435 L 575,435 L 575,434 L 576,434 L 576,433 L 576,432 L 576,431 L 577,431 L 578,431 L 579,431 L 580,431 L 580,430 L 580,429 L 581,429 L 581,428 L 582,428 L 583,428 L 583,427 L 584,427 L 585,427 L 586,427 L 586,426 L 587,426 L 587,425 L 587,424 L 588,424 L 588,423 L 589,423 L 589,422 L 589,421 L 589,420 L 589,419 L 589,418 L 589,417 L 588,417 L 588,416 L 587,416 L 587,415 L 588,415 L 589,415 L 589,414 L 589,413 L 590,413 L 590,412 L 590,411 L 590,410 L 589,410 L 590,410 L 590,409 L 591,408 L 591,407 L 591,406 L 591,405 L 592,405 L 592,404 L 593,404 L 593,403 L 594,403 L 595,403 L 596,403 L 597,403 L 596,403 L 596,402 L 597,402 L 597,401 L 598,401 L 599,401 L 599,400 L 599,399 L 600,399 L 600,398 L 600,397 L 600,396 L 601,396 L 601,395 L 602,394 L 602,393 L 602,392 L 602,391 L 603,391 L 604,391 L 604,390 L 604,389 L 604,388 L 603,388 L 603,387 L 603,386 L 604,386 L 605,386 L 606,385 L 606,384 L 607,384 L 608,384 L 609,384 L 609,383 L 609,382 L 608,382 L 608,381 L 608,380 L 608,379 L 609,379 L 608,379 L 608,378 L 609,378 L 609,379 L 610,379 L 610,378 L 611,378 L 611,377 L 611,376 L 612,376 L 611,376 L 611,375 L 612,375 L 613,375 L 613,374 L 614,374 L 615,374 L 615,375 L 614,375 L 614,376 L 613,376 L 613,377 L 614,378 L 615,378 L 615,377 L 616,377 L 616,378 L 616,379 L 615,379 L 615,380 L 615,381 L 616,381 L 616,382 L 615,382 L 616,382 L 617,383 L 617,384 L 616,384 L 616,385 L 616,386 L 615,386 L 615,387 L 614,387 L 614,388 L 613,388 L 612,388 L 612,389 L 611,389 L 611,390 L 611,391 L 610,391 L 609,391 L 608,391 L 607,391 L 607,392 L 608,392 L 609,392 L 610,392 L 611,392 L 612,392 L 613,391 L 613,390 L 614,390 L 615,390 L 615,389 L 616,389 L 617,389 L 617,388 L 617,389 L 617,390 L 616,390 L 616,391 L 617,391 L 618,391 L 618,392 L 618,391 L 619,391 L 619,390 L 620,391 L 620,392 L 620,391 L 621,391 L 621,392 L 622,392 L 622,393 L 623,393 L 623,392 L 623,391 L 624,391 L 624,392 L 624,391 L 625,391 L 626,391 L 627,391 L 627,392 L 628,392 L 628,391 L 629,391 L 629,392 L 629,393 L 630,393 L 630,394 " />
<path d="M 709,332 L 709,333 L 708,333 L 708,332 L 709,332 " />
<path d="M 856,341 L 856,342 L 856,341 " />
<path d="M 549,509 L 550,509 L 549,509 L 549,508 L 549,509 " />
<path d="M 702,550 L 701,550 L 701,549 L 702,549 L 702,550 " />
<path d="M 858,340 L 857,340 L 858,339 L 858,340 " />
<path d="M 686,589 L 686,590 L 686,591 L 685,591 L 685,592 L 684,592 L 684,591 L 684,590 L 684,589 L 685,589 L 685,588 L 686,588 L 686,589 " />
<path d="M 858,332 L 858,333 L 858,332 " />
<path d="M 695,309 L 694,309 L 695,309 " />
<path d="M 862,318 L 862,319 L 861,319 L 862,318 " />
<path d="M 557,451 L 556,451 L 557,451 " />
<path d="M 672,346 L 671,346 L 671,345 L 672,345 L 672,346 " />
<path d="M 857,339 L 857,340 L 857,339 " />
<path d="M 759,201 L 759,200 L 760,200 L 760,199 L 761,199 L 761,198 L 762,198 L 762,197 L 763,197 L 763,196 L 763,197 L 763,196 L 764,196 L 764,195 L 765,195 L 765,196 L 766,196 L 765,196 L 765,197 L 765,198 L 764,199 L 764,200 L 764,201 L 765,201 L 765,202 L 765,203 L 764,203 L 764,204 L 764,205 L 764,206 L 763,206 L 762,206 L 761,206 L 761,205 L 760,205 L 759,205 L 759,204 L 759,203 L 759,202 L 759,201 " />
<path d="M 858,339 L 857,339 L 858,339 " />
<path d="M 633,475 L 632,475 L 633,475 " />
<path d="M 634,478 L 633,478 L 633,477 L 634,477 L 634,478 " />
<path d="M 550,479 L 550,480 L 549,480 L 549,479 L 550,479 " />
<path d="M 562,448 L 562,447 L 562,448 " />
<path d="M 638,390 L 638,391 L 637,391 L 636,391 L 637,391 L 637,390 L 638,390 " />
<path d="M 644,423 L 645,423 L 645,424 L 645,425 L 646,425 L 646,426 L 646,427 L 646,428 L 646,429 L 647,429 L 648,429 L 649,429 L 649,430 L 648,430 L 647,430 L 646,430 L 646,431 L 645,431 L 645,432 L 644,432 L 644,431 L 644,432 L 643,432 L 643,431 L 642,431 L 642,430 L 641,430 L 641,429 L 641,428 L 641,427 L 642,427 L 642,426 L 642,425 L 643,425 L 643,424 L 643,423 L 643,422 L 643,421 L 644,421 L 645,421 L 645,422 L 644,423 " />
<path d="M 857,334 L 857,335 L 857,336 L 857,337 L 857,338 L 858,338 L 858,339 L 857,339 L 857,340 L 856,341 L 855,341 L 854,340 L 853,340 L 852,339 L 852,340 L 851,340 L 850,340 L 850,339 L 850,338 L 849,338 L 849,337 L 848,337 L 848,336 L 848,335 L 849,335 L 849,334 L 848,334 L 848,333 L 849,333 L 849,332 L 850,332 L 850,331 L 850,330 L 851,329 L 851,328 L 850,328 L 851,328 L 850,327 L 851,327 L 852,326 L 853,326 L 853,325 L 853,324 L 853,323 L 853,322 L 853,321 L 852,320 L 853,319 L 852,319 L 852,318 L 851,318 L 852,317 L 853,317 L 854,317 L 853,316 L 854,316 L 853,316 L 853,315 L 853,314 L 854,314 L 853,314 L 854,314 L 853,313 L 854,313 L 853,312 L 854,312 L 854,311 L 855,311 L 854,310 L 855,310 L 856,310 L 857,310 L 858,310 L 858,311 L 858,310 L 859,310 L 859,309 L 860,309 L 861,309 L 861,310 L 860,310 L 860,311 L 859,311 L 860,312 L 860,313 L 861,313 L 861,314 L 861,315 L 862,315 L 861,315 L 861,316 L 862,316 L 861,317 L 861,318 L 861,319 L 861,320 L 860,320 L 860,321 L 860,322 L 860,323 L 861,323 L 861,324 L 862,324 L 861,324 L 861,325 L 860,325 L 860,326 L 859,326 L 859,327 L 859,328 L 859,329 L 859,330 L 858,330 L 858,331 L 858,332 L 858,333 L 857,334 " />
<path d="M 557,450 L 557,449 L 557,450 " />
<path d="M 695,310 L 694,310 L 695,310 " />
<path d="M 857,336 L 857,337 L 857,336 " />
<path d="M 858,336 L 857,336 L 858,336 " />
<path d="M 683,319 L 683,318 L 684,318 L 685,318 L 685,317 L 685,316 L 684,316 L 684,315 L 685,315 L 685,314 L 685,313 L 686,313 L 687,313 L 687,312 L 688,312 L 689,312 L 689,311 L 690,311 L 690,310 L 691,310 L 692,310 L 692,311 L 693,311 L 694,311 L 695,311 L 695,312 L 695,313 L 695,314 L 695,315 L 695,316 L 695,317 L 695,318 L 695,319 L 694,319 L 694,320 L 694,321 L 694,322 L 693,323 L 693,324 L 692,325 L 691,325 L 690,326 L 690,327 L 689,327 L 688,327 L 688,328 L 688,329 L 687,329 L 687,330 L 686,331 L 687,331 L 687,332 L 688,332 L 689,332 L 690,332 L 690,331 L 691,332 L 691,331 L 690,331 L 690,330 L 690,329 L 691,329 L 691,330 L 692,330 L 692,329 L 693,329 L 693,330 L 694,330 L 694,331 L 694,332 L 695,332 L 696,332 L 696,331 L 696,330 L 697,330 L 697,329 L 696,329 L 695,329 L 695,328 L 694,328 L 694,327 L 694,326 L 694,325 L 693,325 L 693,324 L 694,324 L 694,323 L 695,323 L 695,322 L 696,322 L 697,321 L 698,321 L 698,322 L 698,323 L 698,324 L 699,324 L 699,325 L 699,326 L 699,325 L 700,325 L 700,324 L 701,324 L 701,323 L 701,322 L 702,321 L 702,322 L 703,322 L 703,321 L 704,321 L 704,322 L 705,322 L 705,323 L 705,324 L 705,325 L 705,326 L 705,327 L 705,328 L 704,329 L 703,329 L 704,329 L 704,330 L 704,331 L 704,330 L 705,330 L 705,329 L 706,329 L 706,328 L 706,327 L 707,327 L 708,327 L 708,326 L 709,326 L 709,327 L 709,328 L 709,329 L 709,330 L 709,331 L 709,332 L 708,332 L 708,333 L 708,334 L 708,335 L 708,336 L 708,337 L 708,338 L 708,339 L 707,339 L 707,340 L 706,340 L 706,341 L 706,342 L 706,343 L 706,344 L 707,344 L 707,345 L 707,346 L 706,346 L 706,345 L 705,345 L 705,346 L 705,347 L 705,348 L 705,347 L 706,347 L 706,348 L 706,349 L 706,350 L 706,351 L 707,351 L 707,352 L 707,353 L 707,354 L 706,354 L 706,355 L 707,355 L 706,355 L 706,356 L 707,356 L 708,356 L 708,357 L 707,357 L 707,358 L 706,359 L 706,360 L 706,361 L 705,361 L 704,361 L 704,362 L 704,361 L 703,361 L 703,362 L 703,363 L 702,363 L 702,364 L 702,365 L 702,366 L 701,366 L 701,367 L 700,367 L 699,367 L 698,367 L 698,366 L 697,366 L 697,367 L 696,367 L 696,368 L 695,369 L 695,370 L 694,370 L 693,370 L 693,371 L 692,371 L 692,372 L 691,372 L 691,373 L 690,373 L 689,373 L 688,373 L 688,372 L 687,372 L 687,371 L 686,371 L 686,370 L 686,369 L 686,368 L 686,369 L 685,369 L 685,368 L 684,368 L 684,367 L 684,366 L 683,367 L 682,367 L 682,366 L 681,366 L 680,366 L 679,366 L 678,367 L 678,366 L 677,366 L 677,365 L 676,365 L 676,364 L 676,363 L 677,363 L 677,362 L 677,361 L 677,360 L 678,360 L 678,359 L 679,359 L 680,359 L 680,358 L 680,357 L 681,356 L 682,356 L 682,357 L 683,357 L 684,357 L 684,358 L 685,358 L 685,359 L 686,359 L 686,358 L 685,358 L 685,357 L 684,357 L 684,356 L 685,356 L 686,356 L 687,357 L 688,357 L 688,356 L 688,355 L 688,354 L 687,354 L 687,353 L 686,353 L 685,353 L 685,352 L 684,352 L 683,352 L 683,351 L 682,351 L 682,350 L 682,349 L 682,348 L 682,347 L 681,347 L 681,348 L 680,348 L 680,349 L 679,349 L 679,348 L 678,348 L 678,349 L 678,350 L 677,350 L 677,351 L 676,351 L 676,352 L 675,352 L 674,352 L 673,352 L 672,352 L 672,351 L 672,350 L 672,349 L 671,349 L 671,348 L 672,348 L 673,347 L 673,346 L 674,345 L 674,344 L 674,343 L 674,342 L 674,343 L 675,343 L 675,342 L 674,342 L 674,341 L 674,340 L 674,341 L 675,341 L 676,341 L 676,342 L 677,342 L 678,342 L 677,341 L 676,341 L 676,340 L 675,339 L 675,338 L 675,339 L 674,339 L 674,338 L 674,339 L 673,339 L 673,338 L 673,337 L 672,337 L 673,337 L 674,337 L 674,336 L 674,335 L 675,335 L 674,334 L 674,333 L 674,332 L 675,332 L 675,331 L 675,330 L 676,330 L 676,329 L 677,328 L 677,327 L 677,326 L 678,326 L 678,325 L 678,324 L 678,323 L 679,323 L 679,322 L 680,322 L 680,321 L 681,321 L 681,320 L 682,320 L 683,320 L 683,321 L 684,320 L 684,321 L 685,321 L 685,320 L 684,320 L 684,319 L 683,319 " />
<path d="M 625,419 L 625,418 L 626,418 L 626,419 L 627,419 L 627,420 L 628,420 L 629,420 L 629,421 L 629,422 L 630,422 L 630,423 L 630,424 L 629,424 L 629,425 L 629,426 L 629,427 L 630,427 L 630,426 L 631,426 L 631,425 L 632,425 L 632,426 L 632,427 L 632,428 L 632,429 L 632,430 L 631,430 L 631,431 L 631,432 L 631,433 L 631,434 L 630,434 L 631,435 L 631,436 L 631,437 L 630,437 L 630,438 L 631,438 L 631,439 L 631,440 L 631,441 L 631,442 L 631,443 L 631,444 L 632,444 L 633,444 L 633,443 L 634,443 L 634,442 L 635,442 L 635,441 L 636,441 L 637,440 L 638,440 L 639,440 L 639,441 L 639,442 L 638,442 L 638,443 L 638,444 L 638,445 L 637,445 L 637,446 L 637,447 L 637,448 L 636,448 L 636,449 L 635,449 L 636,450 L 636,451 L 636,452 L 635,452 L 635,453 L 635,454 L 635,455 L 636,455 L 636,456 L 635,456 L 635,457 L 634,457 L 633,457 L 633,456 L 632,456 L 632,457 L 631,457 L 631,458 L 631,459 L 630,459 L 630,460 L 630,461 L 630,460 L 631,460 L 632,460 L 633,460 L 634,460 L 634,461 L 633,462 L 633,463 L 634,463 L 634,462 L 635,462 L 635,463 L 636,463 L 636,464 L 636,465 L 636,466 L 636,467 L 635,467 L 635,468 L 635,469 L 635,470 L 634,470 L 634,471 L 634,472 L 633,473 L 633,472 L 633,473 L 633,474 L 632,474 L 632,475 L 632,476 L 633,476 L 633,477 L 634,477 L 633,477 L 633,478 L 633,479 L 634,479 L 634,480 L 634,481 L 634,480 L 633,480 L 633,481 L 632,481 L 631,481 L 630,481 L 630,480 L 629,480 L 629,479 L 628,479 L 627,479 L 627,480 L 626,480 L 626,481 L 625,481 L 624,481 L 623,481 L 623,480 L 624,480 L 624,479 L 623,479 L 623,478 L 623,477 L 624,476 L 625,475 L 624,475 L 623,475 L 623,476 L 623,475 L 622,475 L 622,476 L 621,476 L 621,477 L 620,478 L 619,478 L 618,478 L 618,479 L 617,479 L 617,480 L 617,481 L 616,481 L 615,481 L 614,481 L 615,481 L 615,480 L 615,479 L 614,479 L 613,479 L 612,479 L 611,478 L 612,478 L 612,477 L 613,476 L 614,475 L 613,475 L 613,474 L 612,474 L 612,475 L 611,475 L 610,475 L 609,475 L 608,475 L 607,475 L 607,474 L 607,473 L 606,473 L 606,472 L 606,471 L 606,470 L 605,470 L 605,469 L 604,468 L 604,467 L 604,466 L 605,466 L 605,465 L 606,465 L 606,464 L 607,464 L 608,464 L 609,464 L 609,465 L 610,465 L 610,464 L 610,463 L 611,463 L 612,463 L 613,463 L 614,463 L 614,462 L 615,462 L 616,462 L 617,462 L 617,461 L 618,461 L 619,461 L 619,460 L 619,461 L 620,461 L 620,460 L 620,459 L 620,458 L 621,458 L 622,458 L 622,459 L 623,459 L 624,459 L 625,459 L 626,459 L 627,459 L 627,458 L 628,457 L 629,457 L 630,456 L 630,455 L 630,454 L 630,453 L 630,452 L 630,451 L 630,450 L 629,450 L 629,451 L 628,451 L 628,452 L 627,452 L 627,451 L 627,450 L 627,449 L 626,449 L 626,448 L 626,447 L 625,447 L 624,447 L 625,446 L 625,445 L 624,444 L 623,444 L 622,444 L 622,443 L 623,443 L 624,442 L 624,441 L 623,441 L 623,440 L 622,440 L 621,440 L 621,439 L 621,438 L 621,437 L 622,437 L 621,437 L 620,437 L 620,436 L 619,436 L 619,435 L 620,435 L 620,434 L 621,434 L 622,434 L 622,433 L 623,433 L 624,433 L 623,432 L 623,431 L 623,430 L 624,430 L 625,429 L 624,429 L 624,428 L 624,427 L 624,426 L 624,425 L 624,424 L 624,423 L 624,422 L 625,422 L 625,421 L 625,420 L 625,419 " />
<path d="M 711,535 L 710,535 L 709,535 L 708,535 L 708,534 L 709,534 L 710,534 L 710,533 L 711,533 L 712,533 L 712,534 L 711,534 L 711,535 " />
<path d="M 717,561 L 716,561 L 716,560 L 716,559 L 716,558 L 715,558 L 714,558 L 714,557 L 713,557 L 712,557 L 712,556 L 712,555 L 713,555 L 713,554 L 712,554 L 712,553 L 713,553 L 713,552 L 712,552 L 712,551 L 712,550 L 713,550 L 713,549 L 713,548 L 714,548 L 714,547 L 713,547 L 712,547 L 712,546 L 711,546 L 711,545 L 710,545 L 710,544 L 710,543 L 710,542 L 711,541 L 711,540 L 711,539 L 712,539 L 712,538 L 713,538 L 713,537 L 714,537 L 714,536 L 715,536 L 715,535 L 716,535 L 717,535 L 717,536 L 718,535 L 718,534 L 718,533 L 717,533 L 718,533 L 719,533 L 720,532 L 721,531 L 721,532 L 721,533 L 722,533 L 722,534 L 722,535 L 723,535 L 723,536 L 723,537 L 722,537 L 722,538 L 721,538 L 721,539 L 721,540 L 722,540 L 722,541 L 722,542 L 723,542 L 723,543 L 723,544 L 723,545 L 723,546 L 722,546 L 722,547 L 723,547 L 723,548 L 722,548 L 722,549 L 723,549 L 722,549 L 721,549 L 720,550 L 721,550 L 721,551 L 721,552 L 721,553 L 721,554 L 720,554 L 720,555 L 720,556 L 721,556 L 721,557 L 721,558 L 722,558 L 723,558 L 723,557 L 724,557 L 724,556 L 724,557 L 725,557 L 724,557 L 724,558 L 725,558 L 726,558 L 727,558 L 728,558 L 728,559 L 727,559 L 727,560 L 726,560 L 725,560 L 725,561 L 724,561 L 724,562 L 724,563 L 724,564 L 725,564 L 725,563 L 726,563 L 726,564 L 726,563 L 727,563 L 728,563 L 728,564 L 727,565 L 727,566 L 726,567 L 726,568 L 725,568 L 725,569 L 724,569 L 723,569 L 722,569 L 722,568 L 721,568 L 721,569 L 721,570 L 720,570 L 720,571 L 719,571 L 719,570 L 718,570 L 718,569 L 718,568 L 719,567 L 718,567 L 718,568 L 717,568 L 717,569 L 716,569 L 716,570 L 715,570 L 715,571 L 714,571 L 714,570 L 713,571 L 713,572 L 713,573 L 712,573 L 712,572 L 711,572 L 711,573 L 710,573 L 709,573 L 710,573 L 710,572 L 711,571 L 711,570 L 711,569 L 712,569 L 712,568 L 713,568 L 713,567 L 713,566 L 714,566 L 715,566 L 715,565 L 716,565 L 716,564 L 717,564 L 718,564 L 719,564 L 720,564 L 719,564 L 719,563 L 719,562 L 719,561 L 719,562 L 718,562 L 718,561 L 717,560 L 717,561 " />
<path d="M 634,513 L 634,512 L 635,512 L 635,511 L 636,511 L 636,512 L 637,512 L 637,511 L 638,510 L 638,509 L 638,510 L 639,510 L 639,511 L 639,512 L 638,513 L 638,514 L 638,515 L 638,516 L 637,516 L 637,517 L 636,517 L 636,518 L 635,518 L 635,517 L 635,516 L 636,516 L 636,515 L 635,515 L 634,515 L 634,514 L 634,513 " />
<path d="M 583,484 L 582,484 L 582,485 L 581,485 L 581,484 L 582,484 L 583,484 " />
<path d="M 631,532 L 631,531 L 631,532 " />
<path d="M 723,324 L 723,323 L 722,323 L 722,322 L 723,323 L 723,322 L 722,322 L 722,321 L 723,321 L 723,322 L 724,322 L 725,323 L 724,323 L 724,324 L 723,324 " />
<path d="M 709,531 L 709,532 L 708,532 L 708,533 L 707,533 L 707,532 L 707,531 L 708,531 L 709,531 " />
<path d="M 695,311 L 695,310 L 695,311 " />
<path d="M 522,500 L 521,500 L 521,501 L 520,501 L 520,502 L 519,502 L 519,501 L 519,500 L 520,500 L 520,499 L 521,499 L 522,499 L 522,500 " />
<path d="M 705,530 L 704,530 L 705,530 " />
<path d="M 681,350 L 680,350 L 680,349 L 681,349 L 681,350 " />
<path d="M 633,519 L 634,519 L 634,520 L 634,521 L 633,521 L 633,522 L 633,523 L 633,524 L 633,525 L 633,526 L 633,527 L 633,528 L 633,529 L 633,530 L 632,530 L 632,531 L 631,531 L 631,530 L 630,530 L 630,531 L 629,531 L 629,530 L 628,530 L 628,529 L 627,529 L 628,529 L 628,528 L 628,527 L 627,527 L 627,526 L 627,525 L 626,525 L 627,525 L 628,525 L 628,524 L 629,524 L 628,524 L 629,523 L 629,524 L 629,523 L 630,524 L 630,523 L 630,522 L 630,521 L 631,521 L 631,520 L 630,520 L 630,519 L 630,518 L 631,518 L 631,517 L 631,516 L 631,515 L 631,516 L 632,516 L 632,517 L 633,517 L 633,518 L 633,519 " />
<path d="M 557,458 L 556,458 L 557,458 " />
</g>
</g>
</g>
<!-- QGIS extent for clipping, eg in Inkscape -->
<g id="qgisviewbox" inkscape:groupmode="layer" inkscape:label="qgisviewbox" stroke="rgb(255,0,0)" stroke-width="1" fill="none" >
<path d="M 0,882 L 1061,882 L 1061,0 L 0,0 L 0,882 " />
</g></svg>