<?xml version="1.0" standalone="no"?>
<!DOCTYPE svg PUBLIC "-//W3C//DTD SVG 1.1//EN" "http://www.w3.org/Graphics/SVG/1.1/DTD/svg11.dtd">
<svg xmlns="http://www.w3.org/2000/svg" xmlns:inkscape="http://www.inkscape.org/namespaces/inkscape" xmlns:xlink="http://www.w3.org/1999/xlink" viewBox = "0 0 1065 886" version = "1.1">
<!-- svg generated using QGIS www.qgis.org -->
<g id="thassos-d" inkscape:groupmode="layer" inkscape:label="thassos-d">
<g stroke="none" fill="rgb(199,108,86)" stroke-linejoin="round" stroke-width="0.26">
<g id="thassos-d_1" >
<path d="M 594,275 L 594,276 L 595,276 L 595,277 L 596,277 L 596,276 L 597,276 L 598,276 L 598,277 L 598,278 L 599,278 L 599,279 L 600,279 L 601,279 L 601,280 L 601,281 L 602,281 L 602,282 L 602,283 L 601,283 L 601,284 L 600,284 L 600,283 L 599,283 L 598,283 L 597,283 L 597,282 L 596,282 L 596,281 L 596,280 L 595,280 L 594,280 L 593,280 L 592,280 L 591,280 L 591,279 L 591,278 L 590,278 L 590,277 L 589,278 L 588,278 L 588,277 L 587,277 L 587,276 L 587,275 L 587,274 L 588,274 L 589,274 L 590,274 L 591,274 L 592,274 L 593,274 L 593,275 L 594,275 " />
<path d="M 526,557 L 527,557 L 528,557 L 529,557 L 529,558 L 530,558 L 530,559 L 530,560 L 530,561 L 531,561 L 531,562 L 530,562 L 529,562 L 528,562 L 528,561 L 527,561 L 526,561 L 526,560 L 527,560 L 527,559 L 526,559 L 525,560 L 525,559 L 525,558 L 526,558 L 526,557 " />
<path d="M 652,456 L 653,456 L 653,455 L 654,455 L 654,454 L 654,453 L 655,453 L 655,452 L 655,451 L 655,450 L 656,450 L 657,449 L 658,449 L 658,450 L 658,451 L 657,451 L 657,452 L 657,453 L 657,454 L 657,455 L 657,456 L 657,457 L 656,457 L 656,458 L 655,458 L 655,459 L 655,460 L 654,460 L 653,460 L 652,460 L 652,459 L 651,459 L 651,458 L 651,457 L 652,457 L 652,456 " />
<path d="M 657,490 L 657,491 L 656,491 L 656,490 L 657,490 " />
<path d="M 656,426 L 657,426 L 656,426 " />
<path d="M 657,405 L 658,405 L 658,406 L 657,406 L 656,406 L 656,407 L 655,406 L 656,406 L 656,405 L 657,405 " />
<path d="M 438,457 L 438,456 L 438,455 L 438,454 L 438,453 L 438,452 L 438,451 L 439,451 L 439,450 L 439,449 L 440,449 L 440,448 L 440,447 L 440,446 L 440,445 L 440,444 L 440,443 L 441,443 L 441,442 L 441,441 L 442,441 L 443,441 L 443,440 L 443,439 L 444,439 L 444,438 L 444,437 L 445,437 L 445,436 L 446,436 L 446,435 L 446,434 L 447,434 L 447,433 L 447,432 L 448,432 L 448,431 L 448,430 L 448,429 L 449,429 L 449,428 L 449,427 L 450,427 L 450,426 L 450,425 L 450,424 L 450,423 L 450,422 L 449,422 L 449,421 L 449,420 L 449,419 L 449,418 L 449,417 L 449,416 L 449,415 L 450,415 L 450,414 L 451,414 L 451,413 L 451,412 L 452,412 L 452,411 L 452,410 L 453,410 L 453,409 L 454,408 L 454,407 L 455,407 L 455,406 L 455,405 L 456,405 L 456,404 L 456,403 L 456,402 L 456,401 L 456,400 L 456,399 L 456,398 L 457,397 L 457,396 L 458,396 L 458,395 L 459,394 L 459,393 L 460,393 L 460,392 L 460,391 L 461,391 L 461,390 L 462,390 L 462,389 L 463,388 L 463,387 L 464,387 L 464,386 L 465,386 L 465,385 L 465,384 L 466,384 L 465,383 L 466,383 L 467,383 L 467,382 L 468,382 L 468,381 L 468,380 L 469,380 L 469,379 L 470,379 L 470,378 L 471,378 L 471,377 L 472,377 L 472,376 L 473,376 L 473,375 L 473,374 L 474,374 L 474,373 L 475,372 L 475,371 L 475,370 L 476,370 L 476,369 L 476,368 L 476,367 L 477,367 L 477,366 L 477,365 L 477,364 L 477,363 L 477,362 L 477,361 L 477,360 L 477,359 L 477,358 L 477,357 L 477,356 L 477,355 L 477,354 L 477,353 L 477,352 L 477,351 L 477,350 L 478,349 L 478,348 L 479,348 L 479,347 L 480,347 L 481,347 L 482,347 L 482,348 L 483,348 L 483,349 L 484,349 L 485,349 L 485,350 L 486,350 L 487,350 L 488,351 L 489,351 L 490,351 L 491,352 L 492,352 L 493,351 L 494,351 L 495,351 L 495,350 L 496,350 L 496,349 L 497,349 L 497,348 L 498,348 L 498,347 L 499,347 L 499,346 L 500,346 L 500,345 L 500,344 L 501,344 L 501,343 L 501,342 L 501,341 L 502,341 L 502,340 L 502,339 L 503,339 L 503,338 L 503,337 L 503,336 L 504,336 L 504,335 L 505,335 L 505,334 L 505,333 L 506,333 L 507,333 L 507,332 L 508,332 L 508,331 L 509,331 L 510,331 L 511,331 L 511,330 L 512,330 L 513,330 L 514,330 L 515,330 L 516,330 L 517,330 L 517,329 L 518,329 L 518,328 L 519,328 L 519,327 L 520,327 L 519,327 L 519,326 L 520,326 L 520,325 L 521,324 L 522,324 L 523,323 L 524,323 L 524,322 L 525,322 L 525,321 L 526,321 L 527,321 L 528,320 L 529,320 L 529,319 L 530,319 L 530,318 L 530,317 L 531,317 L 531,316 L 532,316 L 532,315 L 532,314 L 533,314 L 534,314 L 534,315 L 535,315 L 535,314 L 535,313 L 536,313 L 537,314 L 538,314 L 539,314 L 540,314 L 541,314 L 542,313 L 543,313 L 543,312 L 542,312 L 543,312 L 543,311 L 543,310 L 543,309 L 544,309 L 545,309 L 546,309 L 547,309 L 547,308 L 547,307 L 548,307 L 548,306 L 548,307 L 549,307 L 550,307 L 551,308 L 551,309 L 552,309 L 552,310 L 552,311 L 552,312 L 553,312 L 553,313 L 554,313 L 554,314 L 554,315 L 555,315 L 555,316 L 555,317 L 556,317 L 557,317 L 557,318 L 557,319 L 558,319 L 558,320 L 559,320 L 559,321 L 559,322 L 560,322 L 560,323 L 561,323 L 561,324 L 562,324 L 562,325 L 563,325 L 564,325 L 564,324 L 565,324 L 565,325 L 566,325 L 567,325 L 568,325 L 568,326 L 569,326 L 569,327 L 570,327 L 571,327 L 572,326 L 572,327 L 573,327 L 574,327 L 575,327 L 575,328 L 575,329 L 576,329 L 577,329 L 577,330 L 578,330 L 579,330 L 580,330 L 580,331 L 581,331 L 582,331 L 582,332 L 583,332 L 584,332 L 585,332 L 586,332 L 587,332 L 588,332 L 588,331 L 589,331 L 589,330 L 590,330 L 590,329 L 591,329 L 592,329 L 593,329 L 594,329 L 595,329 L 595,328 L 596,328 L 597,328 L 598,328 L 599,327 L 598,327 L 597,327 L 597,326 L 598,326 L 598,327 L 599,327 L 599,326 L 600,326 L 600,325 L 600,324 L 600,323 L 600,322 L 601,322 L 601,323 L 601,324 L 602,324 L 603,324 L 603,325 L 603,326 L 604,326 L 605,327 L 606,327 L 606,328 L 606,329 L 607,329 L 607,330 L 607,331 L 608,331 L 609,331 L 609,332 L 609,331 L 610,331 L 611,331 L 612,331 L 612,332 L 613,332 L 612,333 L 611,333 L 610,333 L 610,334 L 611,334 L 610,335 L 610,336 L 609,337 L 609,338 L 609,339 L 609,340 L 610,340 L 610,341 L 611,341 L 611,342 L 612,342 L 612,343 L 612,344 L 611,344 L 612,344 L 612,345 L 612,344 L 613,345 L 613,346 L 613,347 L 613,348 L 614,348 L 614,349 L 615,349 L 616,349 L 616,350 L 616,351 L 617,351 L 617,352 L 618,352 L 618,351 L 618,352 L 618,353 L 619,353 L 620,353 L 620,354 L 621,354 L 621,353 L 622,353 L 622,354 L 623,354 L 623,355 L 624,355 L 625,355 L 626,355 L 627,355 L 627,356 L 627,357 L 627,358 L 627,359 L 627,360 L 628,360 L 629,360 L 629,361 L 629,362 L 629,363 L 630,363 L 631,363 L 631,362 L 632,362 L 633,362 L 633,363 L 634,363 L 635,363 L 636,363 L 636,364 L 637,364 L 638,364 L 639,364 L 640,364 L 640,365 L 641,365 L 641,366 L 642,366 L 643,366 L 643,365 L 643,364 L 642,364 L 642,363 L 642,362 L 643,362 L 644,362 L 645,362 L 646,362 L 646,363 L 647,363 L 647,364 L 647,365 L 647,366 L 647,367 L 647,368 L 647,367 L 648,367 L 649,367 L 650,367 L 650,368 L 651,368 L 651,369 L 652,369 L 653,369 L 652,369 L 652,370 L 652,371 L 653,371 L 652,371 L 652,372 L 653,372 L 653,373 L 653,372 L 654,373 L 654,374 L 654,373 L 655,373 L 655,374 L 656,374 L 656,375 L 655,375 L 655,376 L 655,377 L 655,378 L 655,379 L 654,379 L 654,380 L 654,381 L 653,381 L 653,380 L 653,379 L 652,379 L 652,378 L 652,377 L 651,377 L 651,378 L 650,378 L 650,377 L 649,377 L 648,377 L 648,376 L 647,376 L 646,377 L 646,378 L 646,379 L 645,379 L 644,380 L 643,380 L 643,379 L 642,378 L 641,378 L 640,378 L 639,378 L 639,379 L 638,379 L 638,380 L 637,380 L 637,381 L 637,382 L 636,382 L 636,383 L 636,384 L 635,384 L 635,385 L 635,386 L 635,387 L 635,388 L 635,389 L 635,390 L 635,391 L 635,392 L 634,392 L 634,393 L 634,394 L 634,395 L 634,396 L 635,396 L 635,397 L 635,398 L 635,399 L 635,400 L 635,401 L 636,401 L 636,402 L 636,403 L 637,403 L 637,404 L 638,404 L 638,403 L 639,403 L 640,403 L 641,403 L 642,403 L 643,403 L 643,404 L 643,405 L 643,406 L 644,406 L 645,406 L 645,405 L 646,405 L 646,406 L 647,406 L 648,405 L 648,406 L 649,406 L 649,407 L 650,407 L 651,407 L 652,407 L 653,407 L 654,407 L 654,406 L 654,407 L 654,408 L 653,408 L 653,409 L 652,409 L 652,410 L 651,409 L 651,410 L 650,410 L 650,411 L 649,411 L 649,412 L 650,412 L 650,413 L 649,413 L 650,413 L 650,414 L 651,414 L 651,415 L 651,416 L 652,416 L 652,417 L 652,418 L 652,419 L 653,419 L 653,420 L 653,421 L 653,422 L 653,423 L 654,423 L 654,424 L 655,424 L 655,425 L 655,426 L 655,427 L 654,427 L 654,428 L 654,427 L 653,427 L 653,428 L 652,428 L 651,429 L 651,430 L 650,430 L 650,431 L 649,431 L 648,431 L 648,432 L 648,433 L 647,433 L 646,433 L 645,433 L 645,434 L 644,434 L 644,435 L 644,434 L 643,434 L 643,435 L 642,435 L 642,436 L 641,436 L 641,437 L 641,438 L 640,438 L 639,438 L 639,439 L 639,440 L 639,441 L 639,442 L 640,443 L 640,444 L 640,445 L 640,446 L 640,447 L 640,448 L 640,449 L 641,449 L 642,449 L 642,450 L 641,450 L 641,451 L 641,452 L 642,453 L 642,454 L 642,455 L 643,455 L 643,456 L 643,457 L 643,458 L 643,459 L 643,460 L 643,461 L 644,461 L 645,461 L 645,462 L 645,463 L 645,464 L 644,464 L 644,465 L 644,466 L 644,467 L 643,467 L 643,468 L 643,469 L 643,470 L 644,471 L 645,471 L 645,472 L 645,473 L 646,473 L 647,473 L 647,474 L 648,474 L 649,474 L 650,474 L 650,475 L 649,475 L 649,476 L 648,476 L 648,477 L 648,478 L 649,478 L 649,479 L 648,479 L 647,479 L 647,480 L 646,480 L 646,481 L 647,482 L 648,482 L 648,483 L 647,483 L 647,484 L 648,485 L 648,486 L 647,486 L 647,487 L 648,487 L 649,487 L 649,488 L 649,489 L 650,489 L 651,488 L 651,489 L 652,489 L 653,489 L 654,489 L 655,489 L 655,490 L 656,490 L 656,491 L 655,491 L 655,492 L 655,493 L 654,493 L 653,493 L 653,494 L 652,495 L 651,496 L 651,497 L 651,498 L 650,499 L 650,500 L 651,501 L 651,502 L 651,503 L 651,504 L 651,505 L 651,506 L 650,506 L 650,507 L 650,508 L 650,509 L 649,509 L 649,510 L 649,511 L 648,511 L 648,510 L 648,509 L 647,509 L 647,508 L 646,508 L 646,507 L 645,507 L 645,506 L 645,505 L 645,504 L 644,504 L 643,504 L 643,503 L 643,502 L 642,502 L 642,501 L 642,500 L 641,500 L 640,500 L 639,500 L 639,499 L 639,498 L 638,498 L 638,499 L 638,500 L 637,500 L 636,500 L 636,501 L 635,501 L 634,501 L 634,502 L 633,502 L 633,503 L 632,503 L 632,504 L 631,504 L 631,505 L 630,505 L 629,505 L 629,506 L 629,507 L 629,508 L 628,508 L 628,509 L 628,510 L 628,511 L 627,512 L 626,511 L 626,510 L 625,510 L 625,511 L 624,511 L 623,512 L 624,512 L 625,512 L 625,513 L 625,514 L 624,514 L 624,515 L 623,515 L 623,516 L 622,516 L 622,517 L 621,517 L 621,518 L 620,518 L 620,517 L 620,516 L 621,516 L 621,515 L 621,514 L 622,514 L 622,513 L 623,513 L 622,513 L 622,512 L 621,512 L 621,513 L 620,513 L 619,513 L 619,514 L 618,514 L 618,515 L 617,515 L 616,515 L 615,515 L 614,515 L 613,515 L 612,514 L 613,514 L 613,513 L 612,513 L 612,514 L 611,514 L 610,514 L 610,513 L 610,514 L 609,514 L 608,514 L 608,513 L 608,512 L 607,512 L 606,512 L 606,513 L 605,513 L 605,514 L 605,515 L 605,516 L 604,516 L 604,517 L 604,518 L 605,518 L 605,519 L 605,520 L 604,520 L 604,521 L 603,521 L 603,522 L 604,522 L 604,523 L 603,523 L 602,523 L 601,523 L 601,522 L 600,522 L 599,522 L 598,522 L 597,522 L 596,522 L 595,523 L 594,523 L 593,523 L 593,522 L 592,522 L 591,522 L 590,522 L 589,521 L 588,521 L 588,522 L 587,522 L 586,522 L 586,521 L 586,520 L 586,519 L 585,519 L 584,519 L 583,519 L 583,520 L 582,520 L 583,521 L 583,522 L 584,522 L 584,523 L 584,524 L 583,524 L 583,525 L 583,526 L 582,526 L 582,527 L 581,527 L 580,527 L 579,527 L 579,526 L 578,526 L 578,527 L 578,528 L 577,529 L 576,529 L 576,530 L 575,530 L 574,530 L 573,530 L 573,531 L 573,532 L 572,532 L 572,533 L 571,533 L 570,533 L 569,533 L 568,533 L 568,534 L 569,534 L 569,535 L 568,535 L 568,534 L 567,534 L 567,535 L 566,535 L 566,536 L 566,537 L 565,537 L 565,536 L 564,536 L 564,537 L 564,538 L 564,539 L 564,540 L 565,540 L 565,541 L 565,542 L 566,542 L 566,543 L 565,543 L 564,543 L 564,544 L 563,544 L 562,544 L 562,545 L 561,545 L 561,544 L 561,545 L 560,545 L 560,544 L 559,545 L 558,544 L 557,544 L 557,543 L 556,543 L 556,542 L 555,543 L 555,544 L 555,545 L 555,546 L 554,546 L 554,545 L 553,545 L 552,545 L 551,545 L 551,544 L 550,544 L 550,545 L 550,546 L 549,546 L 549,547 L 549,548 L 548,547 L 548,548 L 548,549 L 548,550 L 547,550 L 547,549 L 546,549 L 546,550 L 546,551 L 545,551 L 544,551 L 544,550 L 544,551 L 543,551 L 543,550 L 543,549 L 543,548 L 543,547 L 544,547 L 544,548 L 544,547 L 545,547 L 544,546 L 544,545 L 545,545 L 545,544 L 545,543 L 544,543 L 544,542 L 544,541 L 544,540 L 543,539 L 543,538 L 542,538 L 542,537 L 542,536 L 541,535 L 540,535 L 539,535 L 538,535 L 538,536 L 537,536 L 536,536 L 536,535 L 535,535 L 534,535 L 533,535 L 533,536 L 532,536 L 531,536 L 531,535 L 530,535 L 530,534 L 530,533 L 530,532 L 529,532 L 529,533 L 528,533 L 528,534 L 527,535 L 526,535 L 526,534 L 526,533 L 526,532 L 525,532 L 525,531 L 525,530 L 526,530 L 526,529 L 526,528 L 527,528 L 527,527 L 526,527 L 526,526 L 526,525 L 526,524 L 525,524 L 525,523 L 524,523 L 523,523 L 523,522 L 522,522 L 522,523 L 521,523 L 521,522 L 520,522 L 520,523 L 520,522 L 520,523 L 519,523 L 518,522 L 517,522 L 516,522 L 515,523 L 514,524 L 513,524 L 512,524 L 512,523 L 513,523 L 513,522 L 513,521 L 514,521 L 514,520 L 515,520 L 515,519 L 516,519 L 516,518 L 517,518 L 516,517 L 516,516 L 517,516 L 517,515 L 517,514 L 517,513 L 516,513 L 516,512 L 516,511 L 516,510 L 515,510 L 515,509 L 515,508 L 514,508 L 514,507 L 513,507 L 513,506 L 513,505 L 512,505 L 512,504 L 511,503 L 510,503 L 510,502 L 509,502 L 508,502 L 508,501 L 508,500 L 507,500 L 507,499 L 506,499 L 505,499 L 505,498 L 504,498 L 503,498 L 503,497 L 502,497 L 502,496 L 501,496 L 501,495 L 500,494 L 499,494 L 499,495 L 498,494 L 497,494 L 497,493 L 496,493 L 495,493 L 494,493 L 493,493 L 492,493 L 492,492 L 492,491 L 492,492 L 491,492 L 491,491 L 490,491 L 489,491 L 488,491 L 487,491 L 486,491 L 485,491 L 484,491 L 483,491 L 482,491 L 481,491 L 481,492 L 480,492 L 479,492 L 478,492 L 477,492 L 476,492 L 475,492 L 474,492 L 473,492 L 473,493 L 472,493 L 471,493 L 470,493 L 469,493 L 468,493 L 467,493 L 466,493 L 465,493 L 464,493 L 464,494 L 463,494 L 462,494 L 463,494 L 463,495 L 462,495 L 461,495 L 461,494 L 461,495 L 460,495 L 460,496 L 460,495 L 459,495 L 459,494 L 459,495 L 458,495 L 457,495 L 456,495 L 456,496 L 455,496 L 455,497 L 454,497 L 453,497 L 452,497 L 452,496 L 451,496 L 451,495 L 451,494 L 452,493 L 452,492 L 452,491 L 452,490 L 452,489 L 451,489 L 451,488 L 451,487 L 451,486 L 451,485 L 450,485 L 449,484 L 450,483 L 450,482 L 449,481 L 449,480 L 448,480 L 447,479 L 446,480 L 445,480 L 445,479 L 444,479 L 444,480 L 443,480 L 442,480 L 441,480 L 440,480 L 439,480 L 439,479 L 439,478 L 439,477 L 440,477 L 441,477 L 441,476 L 442,476 L 441,476 L 441,475 L 440,475 L 440,474 L 440,473 L 441,473 L 442,473 L 441,473 L 441,472 L 440,472 L 440,471 L 441,471 L 441,470 L 441,469 L 440,469 L 440,468 L 440,467 L 439,467 L 439,466 L 439,465 L 439,464 L 439,463 L 439,462 L 439,461 L 439,460 L 439,459 L 439,458 L 438,458 L 438,457 " />
</g>
</g>
</g>
<!-- QGIS extent for clipping, eg in Inkscape -->
<g id="qgisviewbox" inkscape:groupmode="layer" inkscape:label="qgisviewbox" stroke="rgb(255,0,0)" stroke-width="1" fill="none" >
<path d="M 0,882 L 1061,882 L 1061,0 L 0,0 L 0,882 " />
</g></svg>