<?xml version="1.0" standalone="no"?>
<!DOCTYPE svg PUBLIC "-//W3C//DTD SVG 1.1//EN" "http://www.w3.org/Graphics/SVG/1.1/DTD/svg11.dtd">
<svg xmlns="http://www.w3.org/2000/svg" xmlns:inkscape="http://www.inkscape.org/namespaces/inkscape" xmlns:xlink="http://www.w3.org/1999/xlink" viewBox = "0 0 1065 886" version = "1.1">
<!-- svg generated using QGIS www.qgis.org -->
<g id="thesprotia" inkscape:groupmode="layer" inkscape:label="thesprotia">
<g stroke="none" fill="rgb(243,57,225)" stroke-linejoin="round" stroke-width="0.26">
<g id="thesprotia_1" >
<path d="M 393,393 L 394,393 L 394,392 L 395,392 L 395,393 L 394,393 L 394,394 L 394,395 L 393,395 L 393,394 L 392,393 L 393,393 L 393,392 L 393,391 L 393,392 L 393,393 " />
<path d="M 393,391 L 393,390 L 394,390 L 394,389 L 394,390 L 394,391 L 393,391 " />
<path d="M 399,374 L 398,374 L 398,373 L 399,373 L 400,373 L 400,374 L 399,374 " />
<path d="M 400,374 L 400,373 L 401,373 L 401,374 L 400,374 " />
<path d="M 402,374 L 402,375 L 401,375 L 401,374 L 402,374 L 401,374 L 401,375 L 400,375 L 400,374 L 401,374 L 401,373 L 402,373 L 403,373 L 404,373 L 403,373 L 403,374 L 402,374 " />
<path d="M 403,375 L 403,374 L 403,373 L 404,373 L 405,373 L 405,372 L 406,372 L 406,373 L 405,373 L 404,374 L 403,375 " />
<path d="M 401,370 L 402,370 L 402,371 L 402,370 L 403,370 L 403,371 L 404,371 L 403,371 L 402,371 L 401,371 L 400,371 L 401,370 " />
<path d="M 417,350 L 418,350 L 418,349 L 419,349 L 419,350 L 418,350 L 417,350 " />
<path d="M 512,189 L 513,189 L 514,189 L 515,189 L 516,189 L 517,189 L 518,189 L 519,189 L 519,190 L 520,190 L 520,191 L 521,191 L 522,191 L 523,191 L 523,192 L 524,192 L 525,192 L 526,192 L 526,193 L 527,193 L 528,193 L 529,193 L 530,193 L 530,194 L 531,194 L 532,194 L 532,195 L 533,195 L 534,196 L 535,196 L 535,197 L 536,197 L 536,198 L 537,198 L 537,199 L 538,199 L 538,200 L 538,201 L 539,202 L 540,202 L 540,203 L 541,203 L 541,204 L 542,205 L 543,206 L 544,207 L 545,208 L 546,208 L 546,209 L 547,209 L 547,210 L 548,210 L 548,211 L 549,211 L 550,211 L 551,211 L 552,211 L 553,211 L 554,211 L 554,210 L 555,210 L 555,209 L 556,209 L 557,209 L 558,209 L 559,208 L 559,209 L 560,209 L 561,209 L 562,209 L 563,209 L 564,209 L 565,209 L 566,209 L 566,208 L 567,208 L 567,209 L 568,210 L 568,211 L 569,211 L 569,212 L 570,212 L 570,213 L 571,213 L 572,214 L 573,214 L 573,213 L 574,213 L 575,213 L 576,213 L 577,213 L 578,213 L 579,213 L 579,214 L 580,214 L 581,214 L 581,215 L 582,215 L 582,216 L 583,217 L 584,218 L 584,219 L 584,220 L 584,221 L 584,222 L 584,223 L 585,224 L 586,225 L 587,226 L 588,226 L 588,227 L 589,228 L 589,229 L 590,229 L 590,230 L 591,230 L 592,230 L 593,230 L 594,230 L 594,229 L 596,229 L 597,229 L 597,228 L 598,228 L 599,228 L 600,228 L 601,228 L 602,228 L 603,228 L 604,229 L 605,229 L 606,229 L 607,230 L 608,230 L 609,231 L 610,232 L 611,232 L 612,232 L 613,232 L 613,233 L 614,233 L 615,233 L 616,232 L 617,232 L 618,232 L 619,232 L 620,233 L 621,233 L 621,234 L 622,235 L 622,236 L 623,236 L 623,237 L 624,237 L 624,238 L 623,239 L 623,240 L 622,240 L 622,241 L 621,241 L 621,242 L 620,242 L 620,243 L 620,244 L 620,245 L 620,246 L 619,247 L 618,247 L 618,248 L 617,249 L 617,250 L 618,250 L 618,251 L 618,252 L 618,253 L 617,253 L 617,254 L 618,254 L 618,255 L 618,256 L 617,258 L 617,259 L 616,259 L 616,260 L 616,261 L 615,261 L 614,262 L 614,263 L 615,264 L 616,264 L 616,265 L 615,266 L 616,265 L 616,266 L 617,266 L 618,266 L 619,266 L 622,267 L 623,267 L 626,267 L 627,267 L 628,267 L 628,268 L 629,269 L 629,270 L 629,271 L 628,272 L 627,272 L 627,273 L 627,281 L 628,282 L 628,283 L 628,284 L 629,284 L 629,285 L 630,286 L 630,287 L 630,288 L 631,289 L 631,290 L 631,291 L 631,293 L 632,293 L 632,295 L 632,296 L 633,296 L 633,297 L 634,298 L 634,299 L 635,300 L 635,301 L 637,303 L 637,304 L 638,304 L 638,305 L 639,306 L 640,306 L 640,307 L 641,308 L 642,310 L 643,310 L 643,311 L 644,311 L 645,310 L 646,310 L 646,311 L 646,312 L 645,312 L 645,313 L 645,314 L 645,315 L 645,316 L 644,316 L 643,316 L 643,317 L 643,318 L 642,318 L 641,318 L 640,318 L 639,318 L 639,319 L 639,320 L 639,321 L 639,322 L 640,322 L 642,323 L 643,324 L 644,324 L 644,325 L 644,326 L 643,326 L 643,327 L 642,327 L 641,327 L 640,327 L 639,328 L 639,329 L 638,329 L 637,330 L 636,330 L 635,330 L 634,331 L 633,331 L 633,330 L 633,329 L 633,328 L 632,327 L 632,326 L 632,325 L 632,324 L 631,324 L 630,324 L 630,325 L 630,326 L 630,327 L 629,327 L 628,327 L 628,326 L 627,326 L 626,325 L 625,325 L 624,325 L 624,326 L 624,327 L 624,328 L 623,328 L 623,329 L 623,330 L 622,330 L 622,329 L 621,329 L 620,329 L 620,330 L 619,331 L 618,331 L 617,332 L 616,332 L 615,332 L 614,333 L 614,334 L 613,334 L 613,335 L 612,335 L 611,336 L 611,337 L 611,338 L 612,339 L 612,340 L 613,340 L 614,340 L 614,341 L 614,340 L 615,340 L 616,340 L 616,341 L 616,342 L 615,342 L 615,343 L 614,343 L 614,344 L 614,345 L 614,346 L 615,346 L 615,347 L 614,347 L 613,348 L 612,349 L 610,350 L 610,351 L 609,351 L 608,351 L 609,352 L 609,353 L 610,353 L 609,353 L 608,353 L 608,354 L 607,354 L 607,355 L 606,355 L 606,356 L 606,357 L 605,357 L 605,358 L 604,358 L 604,359 L 604,360 L 603,361 L 602,361 L 602,362 L 601,362 L 601,363 L 601,364 L 601,365 L 600,365 L 600,366 L 599,366 L 599,367 L 598,367 L 598,368 L 598,369 L 597,370 L 598,371 L 597,372 L 597,373 L 597,374 L 597,375 L 596,376 L 596,377 L 597,378 L 597,379 L 597,380 L 596,380 L 595,382 L 595,383 L 594,383 L 594,384 L 593,385 L 593,386 L 593,387 L 594,387 L 594,388 L 595,388 L 596,389 L 596,390 L 595,390 L 594,391 L 593,391 L 592,391 L 592,392 L 592,393 L 593,393 L 593,394 L 593,395 L 594,395 L 594,396 L 593,396 L 593,397 L 593,398 L 593,399 L 593,400 L 594,400 L 594,401 L 594,402 L 593,403 L 593,404 L 593,405 L 594,405 L 595,406 L 596,407 L 595,408 L 595,409 L 595,410 L 594,410 L 594,411 L 593,411 L 593,412 L 592,412 L 591,412 L 591,413 L 591,414 L 591,415 L 590,416 L 590,417 L 589,417 L 589,418 L 588,418 L 588,419 L 587,419 L 587,420 L 587,421 L 588,421 L 588,422 L 588,423 L 587,423 L 587,424 L 586,424 L 585,425 L 584,425 L 583,425 L 582,425 L 581,425 L 580,425 L 579,425 L 578,425 L 577,425 L 576,425 L 576,426 L 575,426 L 575,427 L 574,427 L 573,429 L 573,430 L 573,431 L 573,432 L 574,433 L 574,434 L 573,434 L 573,435 L 572,435 L 571,435 L 570,434 L 569,434 L 568,433 L 567,432 L 566,432 L 565,432 L 564,433 L 563,433 L 562,433 L 562,434 L 561,434 L 560,434 L 559,434 L 558,435 L 557,435 L 557,436 L 556,436 L 556,437 L 555,437 L 554,438 L 553,438 L 552,438 L 551,438 L 550,437 L 549,436 L 548,436 L 547,436 L 546,436 L 545,436 L 544,435 L 544,434 L 543,434 L 541,434 L 540,433 L 539,433 L 539,432 L 538,432 L 538,431 L 538,430 L 538,429 L 538,428 L 538,427 L 539,427 L 539,426 L 540,426 L 540,425 L 541,425 L 541,424 L 541,423 L 542,423 L 542,422 L 542,421 L 542,420 L 542,419 L 542,418 L 543,418 L 544,418 L 545,418 L 546,418 L 546,419 L 547,419 L 548,419 L 549,419 L 550,419 L 551,419 L 552,419 L 553,418 L 555,418 L 555,417 L 554,417 L 554,416 L 554,415 L 554,414 L 549,412 L 546,411 L 544,411 L 541,409 L 537,407 L 530,403 L 531,402 L 532,402 L 533,402 L 534,402 L 535,402 L 536,402 L 537,402 L 537,401 L 537,400 L 537,399 L 537,398 L 538,397 L 539,396 L 539,395 L 539,394 L 537,394 L 536,394 L 535,394 L 534,394 L 533,394 L 532,394 L 532,393 L 532,392 L 531,392 L 531,391 L 531,390 L 530,390 L 529,390 L 529,389 L 528,389 L 527,388 L 526,388 L 525,388 L 524,387 L 523,387 L 523,386 L 522,386 L 521,386 L 521,387 L 520,387 L 520,388 L 519,388 L 519,389 L 518,389 L 517,389 L 516,389 L 515,389 L 514,389 L 513,389 L 512,389 L 511,389 L 510,389 L 510,390 L 509,391 L 510,391 L 510,392 L 510,393 L 511,393 L 511,394 L 511,395 L 511,396 L 510,396 L 509,396 L 508,396 L 507,396 L 506,396 L 506,397 L 505,397 L 504,397 L 504,396 L 503,396 L 502,396 L 502,397 L 501,397 L 501,398 L 500,399 L 500,400 L 500,401 L 499,401 L 498,401 L 497,401 L 497,400 L 496,400 L 496,399 L 495,399 L 494,400 L 494,401 L 494,402 L 494,403 L 494,404 L 493,404 L 492,404 L 491,404 L 490,404 L 490,403 L 491,403 L 491,402 L 491,401 L 491,400 L 491,399 L 490,399 L 490,398 L 489,398 L 488,397 L 487,397 L 486,396 L 485,396 L 484,396 L 483,396 L 483,397 L 482,397 L 481,397 L 480,397 L 480,396 L 479,396 L 478,395 L 477,395 L 477,394 L 476,394 L 476,393 L 475,392 L 474,392 L 474,391 L 474,390 L 474,389 L 473,389 L 473,390 L 472,390 L 472,391 L 471,391 L 470,391 L 469,391 L 468,391 L 467,390 L 466,390 L 466,389 L 465,389 L 465,388 L 465,389 L 464,389 L 463,390 L 462,390 L 462,391 L 461,391 L 460,391 L 459,392 L 458,392 L 457,392 L 456,392 L 456,391 L 455,391 L 454,391 L 453,390 L 452,390 L 451,390 L 450,390 L 450,389 L 449,389 L 448,389 L 446,389 L 445,388 L 444,388 L 443,388 L 442,388 L 441,388 L 441,387 L 440,387 L 439,387 L 437,387 L 436,387 L 436,386 L 435,386 L 435,385 L 435,384 L 434,384 L 434,385 L 433,385 L 433,386 L 434,386 L 434,387 L 435,387 L 435,388 L 435,389 L 435,390 L 436,391 L 437,391 L 437,392 L 436,392 L 435,392 L 435,393 L 435,394 L 436,394 L 437,394 L 438,395 L 439,395 L 439,396 L 440,396 L 440,395 L 440,394 L 441,394 L 441,393 L 441,394 L 442,394 L 442,395 L 441,397 L 440,397 L 439,397 L 439,398 L 438,398 L 437,398 L 436,397 L 435,396 L 434,396 L 433,396 L 433,397 L 433,398 L 433,399 L 432,400 L 432,401 L 432,402 L 433,402 L 433,401 L 434,401 L 434,400 L 435,400 L 435,399 L 435,400 L 436,400 L 436,401 L 437,402 L 436,402 L 436,403 L 435,403 L 435,404 L 434,404 L 434,405 L 433,405 L 432,405 L 431,405 L 430,405 L 430,404 L 430,403 L 429,403 L 428,403 L 428,404 L 427,404 L 426,404 L 425,404 L 425,405 L 425,406 L 426,406 L 426,407 L 426,408 L 427,408 L 426,409 L 426,410 L 425,410 L 424,409 L 423,409 L 422,410 L 422,411 L 421,412 L 420,411 L 420,410 L 419,410 L 419,409 L 419,408 L 418,408 L 417,408 L 416,408 L 415,408 L 414,409 L 413,409 L 412,409 L 412,410 L 411,410 L 410,411 L 409,411 L 408,411 L 407,411 L 406,411 L 406,412 L 405,412 L 405,413 L 404,413 L 403,413 L 402,413 L 402,414 L 401,414 L 400,414 L 399,414 L 399,415 L 398,415 L 397,415 L 396,416 L 394,417 L 393,418 L 391,419 L 390,420 L 389,421 L 389,422 L 388,422 L 387,422 L 386,421 L 385,421 L 385,420 L 385,419 L 386,419 L 386,418 L 386,417 L 387,417 L 387,416 L 387,415 L 388,415 L 388,414 L 388,413 L 389,413 L 389,412 L 390,411 L 390,410 L 391,410 L 391,409 L 392,409 L 392,408 L 392,407 L 393,407 L 393,406 L 393,405 L 394,405 L 394,404 L 394,405 L 394,404 L 395,404 L 395,403 L 395,402 L 396,402 L 396,401 L 396,400 L 396,399 L 396,398 L 397,398 L 397,397 L 396,397 L 396,398 L 395,398 L 395,397 L 395,396 L 395,395 L 394,395 L 395,395 L 395,394 L 395,395 L 396,395 L 397,395 L 398,395 L 398,396 L 398,397 L 398,398 L 397,398 L 397,399 L 398,399 L 398,400 L 399,400 L 400,401 L 401,401 L 402,401 L 403,401 L 403,400 L 402,399 L 402,400 L 402,399 L 401,399 L 402,399 L 401,398 L 401,397 L 400,397 L 400,396 L 400,395 L 401,395 L 401,396 L 401,397 L 402,397 L 402,396 L 403,396 L 403,397 L 404,397 L 404,396 L 404,395 L 404,394 L 405,394 L 405,393 L 405,392 L 406,392 L 405,391 L 405,390 L 406,390 L 406,389 L 407,389 L 407,388 L 407,387 L 408,387 L 408,386 L 408,385 L 408,384 L 408,383 L 408,382 L 409,382 L 409,381 L 410,381 L 410,380 L 410,379 L 411,379 L 410,379 L 411,379 L 410,378 L 410,377 L 411,377 L 412,377 L 412,376 L 411,376 L 411,375 L 410,375 L 410,374 L 409,374 L 409,375 L 408,375 L 407,375 L 407,374 L 406,374 L 406,373 L 407,373 L 406,373 L 406,374 L 405,374 L 405,373 L 406,373 L 406,372 L 407,372 L 407,371 L 406,371 L 405,371 L 404,371 L 403,371 L 403,370 L 402,370 L 401,370 L 400,370 L 399,370 L 399,369 L 399,368 L 400,368 L 401,368 L 402,368 L 402,367 L 403,367 L 403,368 L 404,368 L 404,369 L 405,369 L 406,369 L 407,370 L 408,370 L 408,369 L 409,369 L 408,369 L 408,368 L 409,368 L 409,369 L 409,368 L 408,368 L 407,368 L 407,367 L 406,367 L 406,366 L 407,366 L 408,366 L 409,366 L 410,366 L 410,367 L 410,366 L 410,365 L 411,365 L 412,365 L 412,364 L 412,363 L 412,362 L 412,361 L 413,361 L 414,361 L 414,360 L 415,360 L 415,361 L 415,360 L 416,360 L 416,361 L 416,360 L 417,360 L 418,360 L 418,359 L 419,359 L 419,358 L 419,357 L 418,357 L 418,356 L 419,356 L 418,355 L 418,354 L 417,354 L 417,353 L 418,353 L 419,353 L 419,354 L 420,354 L 420,353 L 421,353 L 421,352 L 421,351 L 420,351 L 420,350 L 420,349 L 419,348 L 420,347 L 419,347 L 420,346 L 419,345 L 420,345 L 420,344 L 420,343 L 420,342 L 419,342 L 420,342 L 420,341 L 420,340 L 419,340 L 418,340 L 418,341 L 418,342 L 418,341 L 417,341 L 417,340 L 416,340 L 416,339 L 415,338 L 414,337 L 414,336 L 413,336 L 413,335 L 412,335 L 412,334 L 412,333 L 411,333 L 411,332 L 410,332 L 409,331 L 408,331 L 408,330 L 407,330 L 406,329 L 405,329 L 404,329 L 403,329 L 402,328 L 401,328 L 400,328 L 399,328 L 398,328 L 397,328 L 396,328 L 396,329 L 396,328 L 395,328 L 394,328 L 394,329 L 393,329 L 392,329 L 391,329 L 391,328 L 391,327 L 392,327 L 392,326 L 392,325 L 391,325 L 391,324 L 390,324 L 389,324 L 389,323 L 388,323 L 388,322 L 387,322 L 386,322 L 386,321 L 385,321 L 385,320 L 385,319 L 384,319 L 383,319 L 383,318 L 382,317 L 381,317 L 381,316 L 381,315 L 380,315 L 380,314 L 379,314 L 378,314 L 377,313 L 376,313 L 376,312 L 376,311 L 375,311 L 375,310 L 375,309 L 374,309 L 373,309 L 372,309 L 371,309 L 370,309 L 370,310 L 369,310 L 369,311 L 368,311 L 368,312 L 367,312 L 367,313 L 367,314 L 367,315 L 368,315 L 368,316 L 368,317 L 367,317 L 366,316 L 365,316 L 365,315 L 365,314 L 364,314 L 363,314 L 363,313 L 362,313 L 362,312 L 361,312 L 361,311 L 360,311 L 360,310 L 360,309 L 359,309 L 360,308 L 359,308 L 359,307 L 358,307 L 358,306 L 359,306 L 359,305 L 360,305 L 360,306 L 361,306 L 362,306 L 363,306 L 364,306 L 364,307 L 365,307 L 365,308 L 364,308 L 363,309 L 364,309 L 365,310 L 364,310 L 365,311 L 366,311 L 366,310 L 366,309 L 366,308 L 367,308 L 367,307 L 366,306 L 365,306 L 365,305 L 364,305 L 364,304 L 363,304 L 363,305 L 363,304 L 362,304 L 361,303 L 361,302 L 360,302 L 359,301 L 358,302 L 358,301 L 357,301 L 357,300 L 356,300 L 355,300 L 355,299 L 354,299 L 353,299 L 352,299 L 351,299 L 351,300 L 350,300 L 350,299 L 350,298 L 350,297 L 349,297 L 348,297 L 347,297 L 346,297 L 345,297 L 344,297 L 344,296 L 344,295 L 344,294 L 344,293 L 343,293 L 343,292 L 343,291 L 342,291 L 342,290 L 342,289 L 341,289 L 341,288 L 340,288 L 339,288 L 339,289 L 338,289 L 337,289 L 336,289 L 335,289 L 334,289 L 333,289 L 332,288 L 332,287 L 331,287 L 331,288 L 330,288 L 329,288 L 329,289 L 330,290 L 329,290 L 328,290 L 327,290 L 326,290 L 325,290 L 324,290 L 323,290 L 322,290 L 321,291 L 321,290 L 321,291 L 320,291 L 319,291 L 318,291 L 317,292 L 317,291 L 317,290 L 316,290 L 316,289 L 315,289 L 314,289 L 313,289 L 312,289 L 312,288 L 312,287 L 312,286 L 311,286 L 311,285 L 311,284 L 311,283 L 310,283 L 309,282 L 310,282 L 311,282 L 311,283 L 312,283 L 312,284 L 312,283 L 313,283 L 313,282 L 314,282 L 314,283 L 315,283 L 315,284 L 315,285 L 315,286 L 316,286 L 316,285 L 316,284 L 315,284 L 316,284 L 316,283 L 315,283 L 315,282 L 314,282 L 315,282 L 315,281 L 315,280 L 314,280 L 314,281 L 313,281 L 312,281 L 311,281 L 310,281 L 310,280 L 309,280 L 308,280 L 309,280 L 309,279 L 310,279 L 310,278 L 311,278 L 312,278 L 313,278 L 313,277 L 314,277 L 314,276 L 315,276 L 316,276 L 316,277 L 317,277 L 318,277 L 319,277 L 320,277 L 320,276 L 320,275 L 320,274 L 321,274 L 322,273 L 323,273 L 324,273 L 325,274 L 325,275 L 324,275 L 324,276 L 324,277 L 325,277 L 325,278 L 324,278 L 324,279 L 325,279 L 325,280 L 326,280 L 326,281 L 327,281 L 328,281 L 329,281 L 330,281 L 331,281 L 331,280 L 332,280 L 332,279 L 333,279 L 333,280 L 334,280 L 334,281 L 334,282 L 335,282 L 336,282 L 337,282 L 338,282 L 339,282 L 340,282 L 341,282 L 341,283 L 341,284 L 342,284 L 343,284 L 344,284 L 345,284 L 346,284 L 346,285 L 347,285 L 347,286 L 348,286 L 348,287 L 348,288 L 349,288 L 349,289 L 350,289 L 350,290 L 351,290 L 352,291 L 353,291 L 353,292 L 354,291 L 355,291 L 355,290 L 356,290 L 357,290 L 358,290 L 359,290 L 360,290 L 361,291 L 361,292 L 362,292 L 362,293 L 362,294 L 363,294 L 363,295 L 364,295 L 364,296 L 364,297 L 365,298 L 365,299 L 365,300 L 366,300 L 367,301 L 368,301 L 369,301 L 369,302 L 369,303 L 370,303 L 371,304 L 372,304 L 372,303 L 373,303 L 373,304 L 374,304 L 374,305 L 375,306 L 376,307 L 377,307 L 377,308 L 378,308 L 378,309 L 379,309 L 379,310 L 380,310 L 380,311 L 381,311 L 381,312 L 382,312 L 383,312 L 383,313 L 384,313 L 385,313 L 386,313 L 386,314 L 387,314 L 388,314 L 388,315 L 389,315 L 390,315 L 391,315 L 392,315 L 393,315 L 394,315 L 395,315 L 396,315 L 397,315 L 398,315 L 398,314 L 399,314 L 400,314 L 400,315 L 401,315 L 402,315 L 402,316 L 403,316 L 404,316 L 404,317 L 405,317 L 406,317 L 406,318 L 407,318 L 408,318 L 409,318 L 409,319 L 410,319 L 411,319 L 411,320 L 412,320 L 413,320 L 413,321 L 414,321 L 415,321 L 416,321 L 417,321 L 417,320 L 418,320 L 419,320 L 420,321 L 421,321 L 421,322 L 422,322 L 422,323 L 423,323 L 424,324 L 425,324 L 426,324 L 427,324 L 428,324 L 429,324 L 430,324 L 431,324 L 432,324 L 433,324 L 434,324 L 435,324 L 436,324 L 437,324 L 438,324 L 439,324 L 440,323 L 441,323 L 442,323 L 443,324 L 444,324 L 444,323 L 445,323 L 446,323 L 447,323 L 448,323 L 448,322 L 448,321 L 449,321 L 449,320 L 449,319 L 448,319 L 448,318 L 448,317 L 447,317 L 447,316 L 446,316 L 446,315 L 446,314 L 445,314 L 445,313 L 445,312 L 445,311 L 444,311 L 444,310 L 444,309 L 443,309 L 443,308 L 443,307 L 443,306 L 444,306 L 444,305 L 445,305 L 445,304 L 446,303 L 447,303 L 447,302 L 448,302 L 449,302 L 449,301 L 450,300 L 450,299 L 451,299 L 451,298 L 452,298 L 452,297 L 452,296 L 451,296 L 451,295 L 451,294 L 451,293 L 452,293 L 452,292 L 453,292 L 454,292 L 455,292 L 456,292 L 457,293 L 458,293 L 459,293 L 460,293 L 460,294 L 461,294 L 462,294 L 462,295 L 463,295 L 463,296 L 464,296 L 465,296 L 465,297 L 465,298 L 466,298 L 466,299 L 467,299 L 467,300 L 468,301 L 469,301 L 470,301 L 470,302 L 471,303 L 472,303 L 473,303 L 473,304 L 474,304 L 474,303 L 474,302 L 474,301 L 474,300 L 474,299 L 474,298 L 474,297 L 474,296 L 474,295 L 473,295 L 473,294 L 474,294 L 474,293 L 474,292 L 474,291 L 474,290 L 474,289 L 475,289 L 475,288 L 475,287 L 475,286 L 475,285 L 476,285 L 476,284 L 477,284 L 478,284 L 479,283 L 480,283 L 481,282 L 482,281 L 483,280 L 484,279 L 484,278 L 484,277 L 484,276 L 485,276 L 485,275 L 486,274 L 487,273 L 487,272 L 487,271 L 488,271 L 488,270 L 489,270 L 490,270 L 491,270 L 492,270 L 492,269 L 493,269 L 494,269 L 495,269 L 496,269 L 496,270 L 497,270 L 497,269 L 498,269 L 499,269 L 499,268 L 500,268 L 500,267 L 501,267 L 501,266 L 502,266 L 502,265 L 503,264 L 503,263 L 504,263 L 504,262 L 505,262 L 505,261 L 506,261 L 506,260 L 506,259 L 507,259 L 508,259 L 509,259 L 510,259 L 511,258 L 512,258 L 513,258 L 513,257 L 513,256 L 513,255 L 513,254 L 513,253 L 513,252 L 512,252 L 512,251 L 511,250 L 510,250 L 510,249 L 509,249 L 508,248 L 507,248 L 507,247 L 506,247 L 506,246 L 505,246 L 505,245 L 504,245 L 504,244 L 503,244 L 503,243 L 503,242 L 503,241 L 503,240 L 503,239 L 503,238 L 502,237 L 502,236 L 501,236 L 501,235 L 500,235 L 499,235 L 499,234 L 498,234 L 498,233 L 497,232 L 497,231 L 496,230 L 496,229 L 495,229 L 495,228 L 495,227 L 495,226 L 495,225 L 495,224 L 496,223 L 496,222 L 497,222 L 498,222 L 498,221 L 499,221 L 499,220 L 500,220 L 500,219 L 501,219 L 502,218 L 503,217 L 503,216 L 504,215 L 504,214 L 505,214 L 505,213 L 505,212 L 505,211 L 504,211 L 504,210 L 504,209 L 504,208 L 503,208 L 503,207 L 503,206 L 502,206 L 502,205 L 501,205 L 501,204 L 500,204 L 500,203 L 500,202 L 499,202 L 499,201 L 498,201 L 498,200 L 497,199 L 496,198 L 496,197 L 495,196 L 495,195 L 495,194 L 495,193 L 495,192 L 495,191 L 496,191 L 497,190 L 498,190 L 498,189 L 499,189 L 500,189 L 501,188 L 502,187 L 503,186 L 503,185 L 503,184 L 504,184 L 504,183 L 505,183 L 506,184 L 507,184 L 507,185 L 508,185 L 509,186 L 510,186 L 510,187 L 511,187 L 511,188 L 511,189 L 512,189 " />
</g>
<g id="thesprotia_2" >
<path d="M 468,543 L 468,544 L 469,544 L 468,544 L 468,545 L 468,544 L 467,544 L 467,543 L 468,543 " />
<path d="M 444,535 L 444,534 L 445,534 L 445,535 L 444,535 " />
<path d="M 443,531 L 444,531 L 445,531 L 446,531 L 445,532 L 445,533 L 444,533 L 443,533 L 443,534 L 442,534 L 443,534 L 443,533 L 442,533 L 441,533 L 441,532 L 441,531 L 441,530 L 441,531 L 442,531 L 442,530 L 443,531 " />
<path d="M 428,523 L 429,523 L 429,524 L 430,524 L 431,524 L 431,525 L 432,525 L 432,526 L 433,526 L 434,526 L 435,525 L 435,526 L 436,526 L 436,527 L 436,528 L 437,528 L 437,529 L 437,530 L 437,531 L 437,530 L 436,530 L 436,531 L 435,531 L 434,531 L 433,531 L 433,530 L 432,530 L 432,529 L 431,529 L 431,528 L 430,528 L 430,527 L 429,527 L 428,527 L 428,526 L 427,526 L 427,525 L 427,524 L 427,523 L 428,523 " />
<path d="M 436,521 L 437,521 L 437,522 L 438,522 L 439,522 L 440,522 L 440,523 L 441,523 L 442,523 L 442,524 L 442,525 L 442,524 L 441,524 L 440,524 L 441,525 L 441,526 L 441,527 L 441,528 L 440,528 L 440,529 L 439,529 L 438,529 L 438,528 L 437,528 L 437,527 L 437,526 L 438,526 L 438,525 L 437,525 L 437,524 L 436,524 L 436,523 L 437,523 L 436,523 L 436,522 L 435,522 L 435,521 L 436,521 " />
<path d="M 431,491 L 430,491 L 430,490 L 429,490 L 428,489 L 428,488 L 427,488 L 428,488 L 429,488 L 429,489 L 430,489 L 431,489 L 431,490 L 431,491 " />
<path d="M 433,451 L 434,451 L 434,452 L 433,452 L 432,451 L 433,451 " />
<path d="M 397,438 L 396,438 L 396,437 L 395,437 L 395,436 L 396,436 L 397,436 L 398,436 L 398,437 L 399,437 L 399,438 L 398,438 L 397,438 " />
<path d="M 458,392 L 459,392 L 460,391 L 461,391 L 462,391 L 462,390 L 463,390 L 464,389 L 465,389 L 465,388 L 465,389 L 466,389 L 466,390 L 467,390 L 468,391 L 469,391 L 470,391 L 471,391 L 472,391 L 472,390 L 473,390 L 473,389 L 474,389 L 474,390 L 474,391 L 474,392 L 475,392 L 476,393 L 476,394 L 477,394 L 477,395 L 478,395 L 479,396 L 480,396 L 480,397 L 481,397 L 482,397 L 483,397 L 483,396 L 484,396 L 485,396 L 486,396 L 487,397 L 488,397 L 489,398 L 490,398 L 490,399 L 491,399 L 491,400 L 491,401 L 491,402 L 491,403 L 490,403 L 490,404 L 491,404 L 492,404 L 493,404 L 494,404 L 494,403 L 494,402 L 494,401 L 494,400 L 495,399 L 496,399 L 496,400 L 497,400 L 497,401 L 498,401 L 499,401 L 500,401 L 500,400 L 500,399 L 501,398 L 501,397 L 502,397 L 502,396 L 503,396 L 504,396 L 504,397 L 505,397 L 506,397 L 506,396 L 507,396 L 508,396 L 509,396 L 510,396 L 511,396 L 511,395 L 511,394 L 511,393 L 510,393 L 510,392 L 510,391 L 509,391 L 510,390 L 510,389 L 511,389 L 512,389 L 513,389 L 514,389 L 515,389 L 516,389 L 517,389 L 518,389 L 519,389 L 519,388 L 520,388 L 520,387 L 521,387 L 521,386 L 522,386 L 523,386 L 523,387 L 524,387 L 525,388 L 526,388 L 527,388 L 528,389 L 529,389 L 529,390 L 530,390 L 531,390 L 531,391 L 531,392 L 532,392 L 532,393 L 532,394 L 533,394 L 534,394 L 535,394 L 536,394 L 537,394 L 539,394 L 539,395 L 539,396 L 538,397 L 537,398 L 537,399 L 537,400 L 537,401 L 537,402 L 536,402 L 535,402 L 534,402 L 533,402 L 532,402 L 531,402 L 530,403 L 537,407 L 541,409 L 544,411 L 546,411 L 549,412 L 554,414 L 554,415 L 554,416 L 554,417 L 555,417 L 555,418 L 553,418 L 552,419 L 551,419 L 550,419 L 549,419 L 548,419 L 547,419 L 546,419 L 546,418 L 545,418 L 544,418 L 543,418 L 542,418 L 542,419 L 542,420 L 542,421 L 542,422 L 542,423 L 541,423 L 541,424 L 541,425 L 540,425 L 540,426 L 539,426 L 539,427 L 538,427 L 538,428 L 538,429 L 538,430 L 538,431 L 538,432 L 539,432 L 539,433 L 540,433 L 541,434 L 543,434 L 544,434 L 544,435 L 545,436 L 546,436 L 547,436 L 548,436 L 549,436 L 550,437 L 551,438 L 552,438 L 553,438 L 554,438 L 555,437 L 556,437 L 556,436 L 557,436 L 557,435 L 558,435 L 559,434 L 560,434 L 561,434 L 562,434 L 562,433 L 563,433 L 564,433 L 564,434 L 564,435 L 564,436 L 564,437 L 564,438 L 565,439 L 565,440 L 565,441 L 566,442 L 567,443 L 567,444 L 568,444 L 568,445 L 568,446 L 568,447 L 568,448 L 569,449 L 569,450 L 569,451 L 569,452 L 569,453 L 569,454 L 569,455 L 569,456 L 568,457 L 568,458 L 567,459 L 567,460 L 567,461 L 566,462 L 565,463 L 564,463 L 563,464 L 562,465 L 561,465 L 561,466 L 560,466 L 559,467 L 558,468 L 557,469 L 556,469 L 555,470 L 554,470 L 553,471 L 552,471 L 550,471 L 548,471 L 547,470 L 546,470 L 545,470 L 545,469 L 544,469 L 542,468 L 541,468 L 540,467 L 539,467 L 538,467 L 537,466 L 536,466 L 535,466 L 535,465 L 534,465 L 533,464 L 533,463 L 533,464 L 532,464 L 531,465 L 531,466 L 530,466 L 530,467 L 530,468 L 530,469 L 530,470 L 530,471 L 531,471 L 531,472 L 532,472 L 532,473 L 532,474 L 533,474 L 533,475 L 533,476 L 533,477 L 534,477 L 533,478 L 532,478 L 531,478 L 530,478 L 529,479 L 528,479 L 527,478 L 526,478 L 526,479 L 525,479 L 526,480 L 526,481 L 527,481 L 527,482 L 528,483 L 529,484 L 530,484 L 530,485 L 531,485 L 531,486 L 532,487 L 533,487 L 534,488 L 535,488 L 536,489 L 537,490 L 538,490 L 539,491 L 540,491 L 540,492 L 542,492 L 542,493 L 543,493 L 543,494 L 544,494 L 544,495 L 543,496 L 542,496 L 541,495 L 540,495 L 539,495 L 537,495 L 536,495 L 535,495 L 534,495 L 535,497 L 536,498 L 537,499 L 537,500 L 538,501 L 539,502 L 540,503 L 540,504 L 541,505 L 542,507 L 552,507 L 556,507 L 565,513 L 564,519 L 559,525 L 560,526 L 561,527 L 562,528 L 563,529 L 565,531 L 567,533 L 569,536 L 570,537 L 572,538 L 573,539 L 573,540 L 574,540 L 574,541 L 574,542 L 575,543 L 576,547 L 577,550 L 577,552 L 578,552 L 578,553 L 579,553 L 580,553 L 581,553 L 583,553 L 584,553 L 586,553 L 587,554 L 588,554 L 587,557 L 587,558 L 587,559 L 587,560 L 587,562 L 588,562 L 588,563 L 589,564 L 589,565 L 590,565 L 591,564 L 592,564 L 592,565 L 593,566 L 592,567 L 592,568 L 592,569 L 592,570 L 592,571 L 592,572 L 592,573 L 593,573 L 594,574 L 595,574 L 596,574 L 598,574 L 599,574 L 600,574 L 601,575 L 602,576 L 603,577 L 604,579 L 605,579 L 606,579 L 608,579 L 608,580 L 611,580 L 613,579 L 614,579 L 615,580 L 616,580 L 617,580 L 618,581 L 619,581 L 620,582 L 621,582 L 621,583 L 622,583 L 622,584 L 623,584 L 623,583 L 624,583 L 625,582 L 626,582 L 628,582 L 629,582 L 630,583 L 631,584 L 632,585 L 633,585 L 634,586 L 635,586 L 636,587 L 636,588 L 636,589 L 636,590 L 636,592 L 636,593 L 636,594 L 636,595 L 637,595 L 638,597 L 638,598 L 639,599 L 640,599 L 640,600 L 640,601 L 639,603 L 639,604 L 639,605 L 640,605 L 640,608 L 641,609 L 641,610 L 641,611 L 642,611 L 643,612 L 645,613 L 646,613 L 646,614 L 645,615 L 644,615 L 643,616 L 643,617 L 644,620 L 644,623 L 645,624 L 645,625 L 646,626 L 646,627 L 647,628 L 647,629 L 646,629 L 645,629 L 644,630 L 643,630 L 642,629 L 642,628 L 641,628 L 640,628 L 640,629 L 638,629 L 637,628 L 637,627 L 635,627 L 635,626 L 634,626 L 633,625 L 633,624 L 632,624 L 632,622 L 631,620 L 630,619 L 629,619 L 626,620 L 626,621 L 625,622 L 625,624 L 624,625 L 624,626 L 623,628 L 623,629 L 623,630 L 622,630 L 622,631 L 621,632 L 620,632 L 620,633 L 619,633 L 617,634 L 616,635 L 614,635 L 613,636 L 612,636 L 611,636 L 610,637 L 609,637 L 608,637 L 607,638 L 606,638 L 604,638 L 603,638 L 602,638 L 601,639 L 600,641 L 599,642 L 598,642 L 598,641 L 597,641 L 597,640 L 596,640 L 596,639 L 595,639 L 595,638 L 594,638 L 593,638 L 592,638 L 591,638 L 590,638 L 590,639 L 591,639 L 591,640 L 590,640 L 589,640 L 590,640 L 590,641 L 590,642 L 590,643 L 589,642 L 588,642 L 587,640 L 587,638 L 587,637 L 586,636 L 586,634 L 586,633 L 585,633 L 585,632 L 584,630 L 582,628 L 581,625 L 580,624 L 579,623 L 579,622 L 579,621 L 579,620 L 580,620 L 582,618 L 582,617 L 581,616 L 581,615 L 580,615 L 580,614 L 579,613 L 579,612 L 578,611 L 577,610 L 576,609 L 575,609 L 574,609 L 572,609 L 570,608 L 569,608 L 568,608 L 567,609 L 566,609 L 561,610 L 560,609 L 559,608 L 558,607 L 557,607 L 557,606 L 556,606 L 555,605 L 554,605 L 554,604 L 553,604 L 552,603 L 552,602 L 551,602 L 550,600 L 549,599 L 549,598 L 548,597 L 548,596 L 547,594 L 546,593 L 546,592 L 546,591 L 546,589 L 546,588 L 546,587 L 546,586 L 545,585 L 544,584 L 544,583 L 543,583 L 542,582 L 541,582 L 541,581 L 540,581 L 540,580 L 539,579 L 539,578 L 538,577 L 538,576 L 537,575 L 536,574 L 535,573 L 535,572 L 534,572 L 533,571 L 532,571 L 531,570 L 530,570 L 528,570 L 527,570 L 526,570 L 525,571 L 524,571 L 523,572 L 522,572 L 522,573 L 520,573 L 520,574 L 519,574 L 518,574 L 517,574 L 516,575 L 515,575 L 514,575 L 513,575 L 512,575 L 511,576 L 510,577 L 509,577 L 507,578 L 507,579 L 506,579 L 505,580 L 504,581 L 503,581 L 502,582 L 502,583 L 501,583 L 501,584 L 500,584 L 499,585 L 499,586 L 498,586 L 497,587 L 496,588 L 496,589 L 495,589 L 495,590 L 494,591 L 494,592 L 493,593 L 492,596 L 491,597 L 490,598 L 489,598 L 489,599 L 488,599 L 488,600 L 487,601 L 486,601 L 486,602 L 484,603 L 484,602 L 483,602 L 482,602 L 482,601 L 482,600 L 481,600 L 481,599 L 481,598 L 480,598 L 480,597 L 480,596 L 480,595 L 479,595 L 478,595 L 478,594 L 477,594 L 476,594 L 476,593 L 476,592 L 476,591 L 476,590 L 475,590 L 476,590 L 475,590 L 475,589 L 475,588 L 476,588 L 476,587 L 477,587 L 477,586 L 477,585 L 477,584 L 477,583 L 476,583 L 476,582 L 475,581 L 475,580 L 474,580 L 474,579 L 474,578 L 474,577 L 475,577 L 475,576 L 476,575 L 475,575 L 474,575 L 474,576 L 473,576 L 473,575 L 473,574 L 474,574 L 474,573 L 475,573 L 475,572 L 474,572 L 475,572 L 475,571 L 475,572 L 476,572 L 477,572 L 477,571 L 478,571 L 478,570 L 478,569 L 478,568 L 477,568 L 477,567 L 476,566 L 475,566 L 474,566 L 473,566 L 473,565 L 472,564 L 471,564 L 471,563 L 471,562 L 470,562 L 470,561 L 469,561 L 470,560 L 471,560 L 471,559 L 470,559 L 470,558 L 470,557 L 471,557 L 471,556 L 471,555 L 472,555 L 471,555 L 472,555 L 472,554 L 471,554 L 472,554 L 472,553 L 473,553 L 473,552 L 474,552 L 474,551 L 474,550 L 474,549 L 473,549 L 473,548 L 472,548 L 472,547 L 472,546 L 471,546 L 471,547 L 471,546 L 470,546 L 469,546 L 469,545 L 470,545 L 470,544 L 469,544 L 470,544 L 470,543 L 469,543 L 469,542 L 468,542 L 467,542 L 466,542 L 466,541 L 465,541 L 466,541 L 466,540 L 467,540 L 466,539 L 466,538 L 465,538 L 464,537 L 464,536 L 463,536 L 463,535 L 462,535 L 461,535 L 461,534 L 460,534 L 459,534 L 459,533 L 458,533 L 457,533 L 457,534 L 456,534 L 456,533 L 455,533 L 455,532 L 455,531 L 454,531 L 454,532 L 454,533 L 453,533 L 452,533 L 452,534 L 452,535 L 452,534 L 451,534 L 452,534 L 452,533 L 451,533 L 451,532 L 452,532 L 451,532 L 451,531 L 450,531 L 449,531 L 449,530 L 448,530 L 448,529 L 447,529 L 447,530 L 446,530 L 446,529 L 446,530 L 445,530 L 444,530 L 443,529 L 442,529 L 441,529 L 441,528 L 442,528 L 442,527 L 442,526 L 443,526 L 443,527 L 444,527 L 444,526 L 444,525 L 444,524 L 445,524 L 445,525 L 446,525 L 447,525 L 447,524 L 447,523 L 446,523 L 446,522 L 445,522 L 445,521 L 445,520 L 444,520 L 444,519 L 443,519 L 442,520 L 442,519 L 442,518 L 442,517 L 442,516 L 441,516 L 441,515 L 440,515 L 441,515 L 442,514 L 441,514 L 442,514 L 442,513 L 442,512 L 441,512 L 440,512 L 440,511 L 440,510 L 440,509 L 440,508 L 440,507 L 440,506 L 440,505 L 440,504 L 439,504 L 439,503 L 439,502 L 438,502 L 437,502 L 437,501 L 437,500 L 436,500 L 436,499 L 435,499 L 435,498 L 435,497 L 434,497 L 434,496 L 434,495 L 433,495 L 433,494 L 432,494 L 432,493 L 432,492 L 431,492 L 432,491 L 433,491 L 433,492 L 434,492 L 435,492 L 435,493 L 436,493 L 436,494 L 437,494 L 438,494 L 439,494 L 440,494 L 441,495 L 442,495 L 442,494 L 442,493 L 443,493 L 444,492 L 445,492 L 446,492 L 447,492 L 447,493 L 448,493 L 448,492 L 449,492 L 449,493 L 450,493 L 451,493 L 452,493 L 453,493 L 454,493 L 455,493 L 456,493 L 456,494 L 457,494 L 457,495 L 458,495 L 459,495 L 460,494 L 461,493 L 461,492 L 462,492 L 463,492 L 463,493 L 464,493 L 464,494 L 465,494 L 465,495 L 466,495 L 466,494 L 466,495 L 467,495 L 468,495 L 469,495 L 470,495 L 471,495 L 471,494 L 472,494 L 472,493 L 472,492 L 473,492 L 473,491 L 473,490 L 474,489 L 474,488 L 474,487 L 473,487 L 472,486 L 471,486 L 471,485 L 470,485 L 469,485 L 468,484 L 467,484 L 466,484 L 466,483 L 466,482 L 465,482 L 464,482 L 463,482 L 463,481 L 463,482 L 462,482 L 462,481 L 461,481 L 461,480 L 461,479 L 460,479 L 460,478 L 459,478 L 458,478 L 458,477 L 457,477 L 457,476 L 456,476 L 455,476 L 455,475 L 455,474 L 454,474 L 454,473 L 453,473 L 453,472 L 452,471 L 451,470 L 450,470 L 449,471 L 448,471 L 449,472 L 448,473 L 448,472 L 447,472 L 447,471 L 446,471 L 446,470 L 446,469 L 446,468 L 446,467 L 446,466 L 445,466 L 444,466 L 444,465 L 443,465 L 443,464 L 443,463 L 442,462 L 442,461 L 441,461 L 440,461 L 439,461 L 439,460 L 438,460 L 438,459 L 437,459 L 437,458 L 436,458 L 435,458 L 435,457 L 435,456 L 435,455 L 434,455 L 434,454 L 433,454 L 433,453 L 434,453 L 435,454 L 436,454 L 437,454 L 438,454 L 438,453 L 439,453 L 439,452 L 440,452 L 441,451 L 441,450 L 442,450 L 443,450 L 443,451 L 443,452 L 444,452 L 444,453 L 445,453 L 445,454 L 445,453 L 446,453 L 446,452 L 447,452 L 448,452 L 449,452 L 449,453 L 450,453 L 450,454 L 451,454 L 451,455 L 452,455 L 453,455 L 454,455 L 454,456 L 454,457 L 455,457 L 455,458 L 456,458 L 457,458 L 458,458 L 458,459 L 458,460 L 459,460 L 459,461 L 460,461 L 461,461 L 461,462 L 462,462 L 462,461 L 463,461 L 463,460 L 463,459 L 464,459 L 464,458 L 464,457 L 464,456 L 465,456 L 465,455 L 465,454 L 465,453 L 466,453 L 466,452 L 466,451 L 467,451 L 467,450 L 467,449 L 468,448 L 467,448 L 467,447 L 467,446 L 467,445 L 467,444 L 467,443 L 467,442 L 467,441 L 467,440 L 467,439 L 466,439 L 466,438 L 465,438 L 464,438 L 463,438 L 462,438 L 462,437 L 461,436 L 460,436 L 460,435 L 459,435 L 459,436 L 458,436 L 457,436 L 457,435 L 457,434 L 456,433 L 455,433 L 455,432 L 454,432 L 453,432 L 452,432 L 452,431 L 451,431 L 450,431 L 449,431 L 449,430 L 448,430 L 447,430 L 446,430 L 445,430 L 445,431 L 444,431 L 443,432 L 443,433 L 442,433 L 442,434 L 441,434 L 442,434 L 442,433 L 442,432 L 441,432 L 441,433 L 440,433 L 440,434 L 439,434 L 439,433 L 439,432 L 439,431 L 438,430 L 437,430 L 437,429 L 436,429 L 436,430 L 437,430 L 438,430 L 438,431 L 439,431 L 438,431 L 437,431 L 437,430 L 436,430 L 436,431 L 437,431 L 438,431 L 438,432 L 438,433 L 438,432 L 437,432 L 436,432 L 436,431 L 435,431 L 434,431 L 435,431 L 435,432 L 436,432 L 437,432 L 437,433 L 438,433 L 437,433 L 436,433 L 436,432 L 435,432 L 434,432 L 434,431 L 434,432 L 433,432 L 432,432 L 431,432 L 432,432 L 432,433 L 433,433 L 434,433 L 435,433 L 435,434 L 436,434 L 437,434 L 437,435 L 438,435 L 438,436 L 439,436 L 439,437 L 440,437 L 440,438 L 440,439 L 440,440 L 440,441 L 441,441 L 441,442 L 440,442 L 440,441 L 440,440 L 440,439 L 439,439 L 439,438 L 439,437 L 438,437 L 438,436 L 437,436 L 437,435 L 436,435 L 436,434 L 435,434 L 434,434 L 434,433 L 433,433 L 432,433 L 431,433 L 431,432 L 430,432 L 429,432 L 428,432 L 428,431 L 427,431 L 426,431 L 425,431 L 424,431 L 424,430 L 423,430 L 422,430 L 421,430 L 420,430 L 419,429 L 418,429 L 418,430 L 418,429 L 417,429 L 416,429 L 416,430 L 415,430 L 415,431 L 414,431 L 413,431 L 414,431 L 414,432 L 413,432 L 413,433 L 412,433 L 411,433 L 411,434 L 410,434 L 409,434 L 408,434 L 407,433 L 407,432 L 407,431 L 407,430 L 406,430 L 405,430 L 404,429 L 403,429 L 403,428 L 402,428 L 401,428 L 400,428 L 400,427 L 399,427 L 398,427 L 398,426 L 398,425 L 399,425 L 400,425 L 400,426 L 401,426 L 402,426 L 402,427 L 403,427 L 404,427 L 404,426 L 405,426 L 406,426 L 407,426 L 407,427 L 407,428 L 407,429 L 408,429 L 409,429 L 410,430 L 411,430 L 411,429 L 411,428 L 412,428 L 412,427 L 412,426 L 412,425 L 412,424 L 413,424 L 414,425 L 414,426 L 415,426 L 415,427 L 415,428 L 416,428 L 416,429 L 416,428 L 417,428 L 417,427 L 418,427 L 419,427 L 419,428 L 420,428 L 421,428 L 420,428 L 420,429 L 421,429 L 422,429 L 423,430 L 424,430 L 425,430 L 426,430 L 427,430 L 427,429 L 426,429 L 426,428 L 425,428 L 425,427 L 424,427 L 424,426 L 424,425 L 423,426 L 423,425 L 423,424 L 422,424 L 421,424 L 420,424 L 419,424 L 419,425 L 418,425 L 417,425 L 417,424 L 416,423 L 416,422 L 415,422 L 414,422 L 414,421 L 414,420 L 413,420 L 413,419 L 413,418 L 414,418 L 413,418 L 413,417 L 412,417 L 412,418 L 412,419 L 413,420 L 413,421 L 412,421 L 412,420 L 412,421 L 413,421 L 413,422 L 413,421 L 412,421 L 412,420 L 411,420 L 411,419 L 410,419 L 410,418 L 410,417 L 409,417 L 408,416 L 407,415 L 406,415 L 406,414 L 405,414 L 405,415 L 404,415 L 403,415 L 403,416 L 402,416 L 401,416 L 400,416 L 399,416 L 398,416 L 398,417 L 397,417 L 396,418 L 395,418 L 394,418 L 394,419 L 393,419 L 393,420 L 392,420 L 391,420 L 390,421 L 391,421 L 392,420 L 393,420 L 394,420 L 395,420 L 396,420 L 396,419 L 397,419 L 398,419 L 399,419 L 399,420 L 398,420 L 399,420 L 400,419 L 400,418 L 401,418 L 402,417 L 402,418 L 401,418 L 401,419 L 400,419 L 400,420 L 399,421 L 398,421 L 397,421 L 396,421 L 395,421 L 394,421 L 393,421 L 392,421 L 391,421 L 390,421 L 389,421 L 389,422 L 389,421 L 390,420 L 391,419 L 393,418 L 394,417 L 396,416 L 397,415 L 398,415 L 399,415 L 399,414 L 400,414 L 401,414 L 402,414 L 402,413 L 403,413 L 404,413 L 405,413 L 405,412 L 406,412 L 406,411 L 407,411 L 408,411 L 409,411 L 410,411 L 411,410 L 412,410 L 412,409 L 413,409 L 414,409 L 415,408 L 416,408 L 417,408 L 418,408 L 419,408 L 419,409 L 419,410 L 420,410 L 420,411 L 421,412 L 422,411 L 422,410 L 423,409 L 424,409 L 425,410 L 426,410 L 426,409 L 427,408 L 426,408 L 426,407 L 426,406 L 425,406 L 425,405 L 425,404 L 426,404 L 427,404 L 428,404 L 428,403 L 429,403 L 430,403 L 430,404 L 430,405 L 431,405 L 432,405 L 433,405 L 434,405 L 434,404 L 435,404 L 435,403 L 436,403 L 436,402 L 437,402 L 436,401 L 436,400 L 435,400 L 435,399 L 435,400 L 434,400 L 434,401 L 433,401 L 433,402 L 432,402 L 432,401 L 432,400 L 433,399 L 433,398 L 433,397 L 433,396 L 434,396 L 435,396 L 436,397 L 437,398 L 438,398 L 439,398 L 439,397 L 440,397 L 441,397 L 442,395 L 442,394 L 441,394 L 441,393 L 441,394 L 440,394 L 440,395 L 440,396 L 439,396 L 439,395 L 438,395 L 437,394 L 436,394 L 435,394 L 435,393 L 435,392 L 436,392 L 437,392 L 437,391 L 436,391 L 435,390 L 435,389 L 435,388 L 435,387 L 434,387 L 434,386 L 433,386 L 433,385 L 434,385 L 434,384 L 435,384 L 435,385 L 435,386 L 436,386 L 436,387 L 437,387 L 439,387 L 440,387 L 441,387 L 441,388 L 442,388 L 443,388 L 444,388 L 445,388 L 446,389 L 448,389 L 449,389 L 450,389 L 450,390 L 451,390 L 452,390 L 453,390 L 454,391 L 455,391 L 456,391 L 456,392 L 457,392 L 458,392 " />
</g>
<g id="thesprotia_3" >
<path d="M 632,325 L 632,326 L 631,326 L 630,327 L 630,328 L 630,329 L 630,330 L 629,331 L 626,334 L 625,334 L 625,335 L 624,335 L 624,336 L 623,337 L 623,338 L 624,338 L 624,339 L 625,339 L 625,340 L 626,341 L 627,341 L 628,342 L 628,343 L 628,344 L 628,346 L 629,347 L 629,349 L 629,350 L 628,351 L 628,352 L 628,354 L 628,355 L 628,356 L 628,357 L 628,358 L 628,359 L 629,359 L 629,360 L 629,361 L 629,362 L 629,363 L 629,364 L 629,365 L 628,367 L 628,368 L 627,369 L 627,370 L 628,371 L 628,372 L 628,373 L 628,374 L 628,376 L 629,376 L 629,377 L 630,378 L 630,380 L 630,381 L 630,382 L 630,383 L 630,384 L 629,384 L 629,386 L 629,387 L 629,389 L 629,390 L 628,391 L 626,392 L 625,393 L 623,395 L 623,396 L 622,396 L 622,397 L 622,398 L 621,399 L 621,400 L 621,401 L 621,402 L 622,402 L 623,402 L 624,402 L 626,403 L 627,403 L 628,403 L 630,403 L 631,403 L 632,403 L 634,403 L 635,403 L 635,404 L 636,404 L 636,403 L 637,403 L 638,403 L 639,402 L 640,402 L 640,403 L 641,403 L 642,404 L 642,405 L 643,406 L 643,407 L 644,407 L 644,408 L 645,408 L 646,409 L 647,409 L 648,409 L 647,409 L 647,410 L 647,411 L 646,411 L 646,412 L 646,413 L 646,414 L 646,415 L 646,416 L 646,417 L 647,419 L 648,419 L 648,420 L 649,420 L 650,421 L 651,421 L 651,422 L 652,422 L 653,422 L 654,423 L 655,423 L 656,423 L 657,423 L 658,423 L 659,423 L 660,423 L 661,424 L 662,424 L 663,424 L 663,423 L 665,423 L 666,423 L 668,422 L 669,422 L 669,423 L 670,423 L 671,423 L 671,424 L 672,424 L 672,425 L 673,426 L 674,426 L 674,427 L 675,427 L 676,427 L 676,428 L 677,428 L 678,428 L 680,428 L 681,427 L 682,427 L 683,428 L 684,428 L 684,427 L 684,426 L 685,425 L 685,424 L 686,424 L 687,424 L 688,423 L 689,423 L 690,423 L 689,422 L 690,421 L 691,421 L 692,421 L 692,420 L 693,420 L 694,420 L 694,419 L 695,419 L 695,418 L 696,418 L 696,417 L 697,417 L 698,417 L 699,417 L 700,417 L 700,418 L 701,420 L 701,421 L 701,422 L 701,423 L 702,424 L 701,424 L 702,425 L 702,426 L 702,428 L 702,429 L 702,430 L 701,430 L 701,431 L 701,432 L 700,433 L 700,434 L 699,435 L 699,436 L 699,437 L 698,438 L 697,440 L 697,441 L 697,442 L 697,443 L 697,445 L 697,446 L 697,448 L 697,449 L 697,450 L 697,452 L 697,453 L 696,454 L 696,455 L 696,456 L 696,457 L 696,458 L 695,458 L 695,459 L 695,460 L 695,461 L 695,462 L 695,463 L 696,463 L 696,464 L 696,465 L 696,466 L 696,467 L 696,468 L 697,468 L 697,469 L 698,470 L 698,471 L 697,472 L 697,473 L 697,474 L 698,474 L 698,475 L 698,476 L 699,476 L 699,477 L 700,478 L 700,479 L 701,480 L 701,481 L 702,482 L 703,483 L 704,483 L 705,483 L 708,484 L 709,484 L 709,485 L 710,485 L 710,486 L 711,486 L 711,487 L 711,488 L 711,489 L 710,490 L 710,491 L 710,492 L 709,493 L 708,495 L 708,496 L 707,496 L 707,497 L 706,497 L 706,498 L 706,499 L 707,500 L 707,501 L 708,502 L 708,503 L 708,504 L 708,505 L 709,505 L 710,505 L 710,506 L 710,507 L 710,508 L 710,509 L 711,510 L 712,511 L 712,512 L 711,513 L 711,514 L 711,515 L 712,515 L 712,516 L 713,516 L 713,517 L 714,517 L 714,518 L 715,518 L 715,519 L 716,520 L 716,521 L 716,522 L 716,523 L 716,524 L 715,525 L 715,526 L 714,526 L 713,527 L 712,528 L 712,529 L 713,530 L 714,531 L 715,532 L 715,533 L 716,533 L 716,534 L 716,535 L 717,535 L 717,536 L 717,537 L 717,538 L 717,539 L 717,540 L 717,542 L 717,543 L 717,544 L 718,544 L 718,545 L 718,546 L 719,546 L 720,546 L 720,547 L 721,547 L 721,548 L 722,548 L 722,549 L 723,550 L 723,551 L 723,552 L 723,553 L 723,554 L 723,555 L 722,555 L 722,556 L 721,557 L 721,558 L 722,559 L 722,560 L 722,561 L 722,562 L 721,563 L 721,564 L 720,565 L 721,566 L 721,567 L 721,568 L 721,569 L 722,569 L 722,570 L 723,570 L 723,571 L 724,571 L 724,572 L 724,573 L 724,574 L 725,575 L 724,575 L 724,576 L 723,576 L 723,577 L 722,577 L 722,578 L 723,578 L 724,579 L 724,580 L 725,580 L 726,581 L 725,581 L 725,582 L 724,582 L 724,583 L 725,584 L 725,585 L 725,586 L 725,588 L 725,589 L 725,590 L 725,591 L 725,592 L 725,593 L 725,594 L 726,594 L 727,594 L 728,594 L 729,594 L 730,594 L 730,595 L 731,596 L 731,597 L 732,598 L 732,599 L 733,600 L 733,601 L 733,602 L 733,603 L 734,604 L 733,606 L 733,608 L 733,610 L 732,612 L 731,613 L 731,614 L 732,617 L 732,618 L 732,619 L 733,620 L 733,621 L 733,622 L 733,623 L 733,624 L 733,625 L 733,627 L 733,628 L 733,629 L 732,630 L 732,633 L 731,634 L 731,635 L 731,636 L 730,635 L 729,635 L 729,634 L 729,633 L 729,632 L 729,631 L 729,630 L 728,630 L 727,630 L 726,630 L 726,629 L 725,628 L 725,627 L 724,626 L 723,625 L 722,624 L 721,624 L 721,623 L 720,623 L 720,622 L 720,621 L 719,621 L 719,620 L 719,619 L 719,618 L 718,616 L 716,614 L 716,613 L 715,612 L 714,612 L 714,611 L 714,610 L 713,610 L 712,609 L 712,608 L 711,607 L 711,606 L 711,605 L 710,603 L 709,602 L 709,601 L 708,600 L 707,598 L 706,597 L 705,596 L 705,597 L 705,598 L 704,598 L 703,599 L 702,599 L 701,600 L 700,601 L 699,602 L 698,602 L 697,602 L 696,602 L 695,602 L 695,601 L 694,601 L 693,601 L 692,602 L 691,602 L 690,603 L 689,603 L 688,602 L 687,601 L 686,601 L 686,602 L 685,602 L 685,603 L 686,604 L 686,605 L 685,605 L 685,606 L 684,606 L 684,607 L 683,608 L 682,609 L 680,610 L 680,611 L 679,612 L 678,613 L 677,614 L 677,615 L 676,616 L 676,617 L 675,617 L 674,618 L 673,618 L 671,619 L 670,620 L 669,620 L 668,621 L 667,621 L 666,621 L 666,622 L 665,622 L 665,621 L 664,621 L 664,620 L 663,619 L 662,619 L 662,617 L 661,617 L 661,616 L 660,614 L 659,614 L 659,613 L 657,612 L 656,611 L 655,611 L 654,611 L 653,611 L 651,611 L 651,610 L 650,610 L 650,611 L 649,611 L 648,612 L 647,613 L 646,614 L 646,613 L 645,613 L 643,612 L 642,611 L 641,611 L 641,610 L 641,609 L 640,608 L 640,605 L 639,605 L 639,604 L 639,603 L 640,601 L 640,600 L 640,599 L 639,599 L 638,598 L 638,597 L 637,595 L 636,595 L 636,594 L 636,593 L 636,592 L 636,590 L 636,589 L 636,588 L 636,587 L 635,586 L 634,586 L 633,585 L 632,585 L 631,584 L 630,583 L 629,582 L 628,582 L 626,582 L 625,582 L 624,583 L 623,583 L 623,584 L 622,584 L 622,583 L 621,583 L 621,582 L 620,582 L 619,581 L 618,581 L 617,580 L 616,580 L 615,580 L 614,579 L 613,579 L 611,580 L 608,580 L 608,579 L 606,579 L 605,579 L 604,579 L 603,577 L 602,576 L 601,575 L 600,574 L 599,574 L 598,574 L 596,574 L 595,574 L 594,574 L 593,573 L 592,573 L 592,572 L 592,571 L 592,570 L 592,569 L 592,568 L 592,567 L 593,566 L 592,565 L 592,564 L 591,564 L 590,565 L 589,565 L 589,564 L 588,563 L 588,562 L 587,562 L 587,560 L 587,559 L 587,558 L 587,557 L 588,554 L 587,554 L 586,553 L 584,553 L 583,553 L 581,553 L 580,553 L 579,553 L 578,553 L 578,552 L 577,552 L 577,550 L 576,547 L 575,543 L 574,542 L 574,541 L 574,540 L 573,540 L 573,539 L 572,538 L 570,537 L 569,536 L 567,533 L 565,531 L 563,529 L 562,528 L 561,527 L 560,526 L 559,525 L 564,519 L 565,513 L 556,507 L 552,507 L 542,507 L 541,505 L 540,504 L 540,503 L 539,502 L 538,501 L 537,500 L 537,499 L 536,498 L 535,497 L 534,495 L 535,495 L 536,495 L 537,495 L 539,495 L 540,495 L 541,495 L 542,496 L 543,496 L 544,495 L 544,494 L 543,494 L 543,493 L 542,493 L 542,492 L 540,492 L 540,491 L 539,491 L 538,490 L 537,490 L 536,489 L 535,488 L 534,488 L 533,487 L 532,487 L 531,486 L 531,485 L 530,485 L 530,484 L 529,484 L 528,483 L 527,482 L 527,481 L 526,481 L 526,480 L 525,479 L 526,479 L 526,478 L 527,478 L 528,479 L 529,479 L 530,478 L 531,478 L 532,478 L 533,478 L 534,477 L 533,477 L 533,476 L 533,475 L 533,474 L 532,474 L 532,473 L 532,472 L 531,472 L 531,471 L 530,471 L 530,470 L 530,469 L 530,468 L 530,467 L 530,466 L 531,466 L 531,465 L 532,464 L 533,464 L 533,463 L 533,464 L 534,465 L 535,465 L 535,466 L 536,466 L 537,466 L 538,467 L 539,467 L 540,467 L 541,468 L 542,468 L 544,469 L 545,469 L 545,470 L 546,470 L 547,470 L 548,471 L 550,471 L 552,471 L 553,471 L 554,470 L 555,470 L 556,469 L 557,469 L 558,468 L 559,467 L 560,466 L 561,466 L 561,465 L 562,465 L 563,464 L 564,463 L 565,463 L 566,462 L 567,461 L 567,460 L 567,459 L 568,458 L 568,457 L 569,456 L 569,455 L 569,454 L 569,453 L 569,452 L 569,451 L 569,450 L 569,449 L 568,448 L 568,447 L 568,446 L 568,445 L 568,444 L 567,444 L 567,443 L 566,442 L 565,441 L 565,440 L 565,439 L 564,438 L 564,437 L 564,436 L 564,435 L 564,434 L 564,433 L 565,432 L 566,432 L 567,432 L 568,433 L 569,434 L 570,434 L 571,435 L 572,435 L 573,435 L 573,434 L 574,434 L 574,433 L 573,432 L 573,431 L 573,430 L 573,429 L 574,427 L 575,427 L 575,426 L 576,426 L 576,425 L 577,425 L 578,425 L 579,425 L 580,425 L 581,425 L 582,425 L 583,425 L 584,425 L 585,425 L 586,424 L 587,424 L 587,423 L 588,423 L 588,422 L 588,421 L 587,421 L 587,420 L 587,419 L 588,419 L 588,418 L 589,418 L 589,417 L 590,417 L 590,416 L 591,415 L 591,414 L 591,413 L 591,412 L 592,412 L 593,412 L 593,411 L 594,411 L 594,410 L 595,410 L 595,409 L 595,408 L 596,407 L 595,406 L 594,405 L 593,405 L 593,404 L 593,403 L 594,402 L 594,401 L 594,400 L 593,400 L 593,399 L 593,398 L 593,397 L 593,396 L 594,396 L 594,395 L 593,395 L 593,394 L 593,393 L 592,393 L 592,392 L 592,391 L 593,391 L 594,391 L 595,390 L 596,390 L 596,389 L 595,388 L 594,388 L 594,387 L 593,387 L 593,386 L 593,385 L 594,384 L 594,383 L 595,383 L 595,382 L 596,380 L 597,380 L 597,379 L 597,378 L 596,377 L 596,376 L 597,375 L 597,374 L 597,373 L 597,372 L 598,371 L 597,370 L 598,369 L 598,368 L 598,367 L 599,367 L 599,366 L 600,366 L 600,365 L 601,365 L 601,364 L 601,363 L 601,362 L 602,362 L 602,361 L 603,361 L 604,360 L 604,359 L 604,358 L 605,358 L 605,357 L 606,357 L 606,356 L 606,355 L 607,355 L 607,354 L 608,354 L 608,353 L 609,353 L 610,353 L 609,353 L 609,352 L 608,351 L 609,351 L 610,351 L 610,350 L 612,349 L 613,348 L 614,347 L 615,347 L 615,346 L 614,346 L 614,345 L 614,344 L 614,343 L 615,343 L 615,342 L 616,342 L 616,341 L 616,340 L 615,340 L 614,340 L 614,341 L 614,340 L 613,340 L 612,340 L 612,339 L 611,338 L 611,337 L 611,336 L 612,335 L 613,335 L 613,334 L 614,334 L 614,333 L 615,332 L 616,332 L 617,332 L 618,331 L 619,331 L 620,330 L 620,329 L 621,329 L 622,329 L 622,330 L 623,330 L 623,329 L 623,328 L 624,328 L 624,327 L 624,326 L 624,325 L 625,325 L 626,325 L 627,326 L 628,326 L 628,327 L 629,327 L 630,327 L 630,326 L 630,325 L 630,324 L 631,324 L 632,324 L 632,325 " />
</g>
</g>
</g>
<!-- QGIS extent for clipping, eg in Inkscape -->
<g id="qgisviewbox" inkscape:groupmode="layer" inkscape:label="qgisviewbox" stroke="rgb(255,0,0)" stroke-width="1" fill="none" >
<path d="M 0,882 L 1061,882 L 1061,0 L 0,0 L 0,882 " />
</g></svg>