<?xml version="1.0" standalone="no"?>
<!DOCTYPE svg PUBLIC "-//W3C//DTD SVG 1.1//EN" "http://www.w3.org/Graphics/SVG/1.1/DTD/svg11.dtd">
<svg xmlns="http://www.w3.org/2000/svg" xmlns:inkscape="http://www.inkscape.org/namespaces/inkscape" xmlns:xlink="http://www.w3.org/1999/xlink" viewBox = "0 0 1596 1116" version = "1.1">
<!-- svg generated using QGIS www.qgis.org -->
<g id="ionioi-nisoi" inkscape:groupmode="layer" inkscape:label="ionioi-nisoi">
<g stroke="none" fill="rgb(137,51,229)" stroke-linejoin="round" stroke-width="0.26">
<g id="ionioi-nisoi_1" >
<path d="M 722,357 L 721,357 L 720,357 L 721,356 L 722,356 L 722,357 " />
<path d="M 714,348 L 715,348 L 715,349 L 714,349 L 714,350 L 714,349 L 714,348 " />
<path d="M 720,367 L 721,367 L 721,368 L 720,368 L 720,367 " />
<path d="M 716,347 L 717,347 L 716,347 L 717,347 L 717,348 L 716,348 L 716,347 " />
<path d="M 731,376 L 730,376 L 731,376 " />
<path d="M 722,367 L 721,367 L 721,366 L 720,366 L 719,366 L 720,366 L 720,365 L 721,365 L 722,365 L 722,364 L 723,364 L 723,363 L 723,364 L 724,364 L 724,365 L 725,365 L 724,365 L 725,365 L 726,365 L 726,366 L 725,366 L 726,366 L 726,367 L 727,367 L 728,367 L 728,368 L 727,368 L 728,368 L 728,369 L 727,369 L 728,369 L 728,370 L 729,370 L 730,370 L 730,371 L 731,371 L 731,372 L 732,372 L 731,372 L 731,373 L 731,372 L 731,373 L 731,372 L 731,373 L 730,373 L 730,372 L 730,373 L 729,373 L 728,373 L 727,373 L 726,373 L 726,372 L 727,372 L 727,371 L 728,371 L 727,371 L 726,371 L 725,371 L 725,370 L 724,370 L 724,369 L 723,369 L 722,369 L 721,369 L 721,368 L 721,367 L 722,367 " />
<path d="M 720,356 L 721,356 L 720,356 L 720,357 L 719,357 L 719,356 L 719,355 L 718,355 L 719,355 L 720,355 L 720,356 " />
<path d="M 711,345 L 712,345 L 713,345 L 713,346 L 714,346 L 714,347 L 715,347 L 715,348 L 714,348 L 713,348 L 713,349 L 714,349 L 714,350 L 715,350 L 715,351 L 716,351 L 716,352 L 717,352 L 718,352 L 718,353 L 718,354 L 718,355 L 718,356 L 719,356 L 719,357 L 718,357 L 717,357 L 716,357 L 716,356 L 715,356 L 714,356 L 713,356 L 712,356 L 713,356 L 712,356 L 711,356 L 710,356 L 711,356 L 711,355 L 710,355 L 709,355 L 708,355 L 709,355 L 709,354 L 708,354 L 708,355 L 708,354 L 707,354 L 706,354 L 706,353 L 707,353 L 707,352 L 707,351 L 706,351 L 706,350 L 705,350 L 705,351 L 704,351 L 704,350 L 704,349 L 703,349 L 703,348 L 703,347 L 702,347 L 701,347 L 701,348 L 700,348 L 700,347 L 700,346 L 701,346 L 700,346 L 701,346 L 701,345 L 701,344 L 700,344 L 700,343 L 699,343 L 699,342 L 699,341 L 700,341 L 699,341 L 698,341 L 698,340 L 697,340 L 697,339 L 697,338 L 697,337 L 697,336 L 697,335 L 697,334 L 698,334 L 698,333 L 699,333 L 698,333 L 699,333 L 699,334 L 698,334 L 699,334 L 699,335 L 700,335 L 700,334 L 699,334 L 700,334 L 699,334 L 700,334 L 700,333 L 701,333 L 701,334 L 702,334 L 702,335 L 703,335 L 704,335 L 704,336 L 704,337 L 705,337 L 706,337 L 707,337 L 708,338 L 707,338 L 707,339 L 708,339 L 709,339 L 708,339 L 708,340 L 709,340 L 709,341 L 710,341 L 709,341 L 709,342 L 709,343 L 710,343 L 710,344 L 711,344 L 712,345 L 711,345 " />
</g>
<g id="ionioi-nisoi_2" >
<path d="M 906,1011 L 907,1011 L 907,1012 L 908,1012 L 909,1012 L 910,1012 L 910,1013 L 910,1014 L 910,1015 L 909,1015 L 909,1014 L 908,1014 L 907,1014 L 906,1014 L 906,1013 L 905,1013 L 905,1012 L 905,1011 L 906,1011 " />
<path d="M 907,1008 L 907,1007 L 907,1008 " />
<path d="M 908,1007 L 909,1007 L 909,1008 L 908,1008 L 908,1009 L 907,1009 L 907,1008 L 908,1008 L 908,1007 L 907,1007 L 908,1007 " />
<path d="M 876,866 L 875,866 L 875,865 L 874,865 L 874,864 L 875,864 L 876,864 L 876,865 L 876,866 " />
<path d="M 895,858 L 896,858 L 896,859 L 897,859 L 896,859 L 896,860 L 896,859 L 895,859 L 894,859 L 895,859 L 895,858 " />
<path d="M 838,853 L 837,853 L 837,852 L 838,852 L 838,853 " />
<path d="M 811,817 L 810,817 L 809,817 L 810,817 L 810,816 L 811,816 L 811,817 " />
<path d="M 812,810 L 811,810 L 812,810 " />
<path d="M 836,789 L 835,789 L 836,789 " />
<path d="M 833,782 L 834,782 L 834,783 L 835,783 L 835,784 L 835,785 L 835,786 L 835,787 L 834,787 L 835,787 L 835,788 L 834,788 L 833,788 L 833,789 L 834,789 L 834,790 L 835,790 L 835,791 L 836,791 L 836,792 L 836,793 L 836,794 L 837,795 L 836,795 L 837,795 L 837,796 L 837,795 L 837,796 L 838,796 L 838,797 L 838,798 L 839,798 L 840,798 L 840,797 L 840,798 L 841,798 L 841,799 L 841,800 L 840,800 L 841,800 L 841,801 L 841,802 L 841,803 L 842,803 L 842,804 L 842,805 L 843,805 L 843,806 L 844,806 L 844,807 L 845,807 L 845,808 L 846,808 L 846,809 L 847,809 L 848,809 L 848,810 L 849,810 L 849,811 L 850,811 L 851,811 L 851,812 L 852,812 L 853,812 L 853,811 L 854,811 L 854,810 L 855,810 L 855,809 L 856,809 L 856,810 L 857,810 L 857,811 L 858,811 L 858,810 L 858,811 L 859,811 L 859,812 L 860,812 L 861,812 L 861,813 L 862,813 L 863,813 L 863,812 L 864,812 L 864,813 L 865,813 L 865,814 L 866,814 L 867,814 L 867,815 L 868,815 L 868,816 L 869,816 L 870,816 L 870,817 L 871,817 L 872,817 L 873,817 L 874,817 L 874,818 L 874,819 L 875,819 L 876,819 L 876,820 L 877,820 L 877,821 L 878,821 L 879,821 L 879,820 L 879,821 L 880,821 L 881,821 L 881,822 L 882,822 L 882,823 L 883,823 L 883,824 L 884,824 L 885,824 L 885,825 L 886,825 L 885,825 L 885,826 L 885,827 L 884,827 L 884,828 L 884,829 L 884,830 L 884,831 L 885,832 L 884,831 L 884,832 L 883,832 L 883,833 L 884,834 L 884,833 L 884,834 L 884,835 L 885,835 L 886,835 L 886,836 L 887,836 L 888,836 L 888,837 L 889,837 L 889,838 L 890,838 L 891,838 L 891,839 L 892,839 L 893,839 L 893,840 L 894,840 L 895,840 L 895,841 L 895,842 L 895,843 L 896,843 L 896,844 L 897,844 L 897,845 L 897,846 L 898,846 L 899,846 L 899,847 L 900,847 L 900,848 L 901,848 L 902,848 L 902,849 L 903,849 L 904,849 L 905,850 L 906,850 L 907,850 L 907,851 L 908,851 L 907,851 L 907,852 L 907,853 L 907,854 L 907,855 L 908,855 L 908,856 L 908,857 L 907,857 L 907,858 L 907,859 L 908,859 L 908,860 L 907,860 L 907,861 L 906,861 L 907,861 L 907,860 L 907,859 L 907,858 L 906,858 L 905,858 L 904,858 L 903,858 L 903,857 L 902,857 L 902,856 L 901,856 L 900,856 L 900,855 L 900,854 L 899,854 L 898,854 L 898,853 L 897,853 L 896,853 L 895,853 L 895,852 L 894,852 L 893,852 L 893,851 L 892,851 L 892,850 L 891,850 L 890,850 L 890,849 L 889,849 L 889,848 L 888,848 L 887,848 L 886,848 L 885,848 L 884,848 L 883,848 L 882,848 L 881,848 L 881,849 L 880,849 L 879,849 L 878,849 L 878,850 L 877,850 L 876,850 L 876,851 L 875,851 L 874,852 L 873,852 L 873,853 L 873,854 L 873,855 L 874,854 L 874,855 L 873,855 L 872,855 L 872,856 L 871,856 L 871,857 L 871,858 L 870,858 L 869,859 L 868,859 L 868,860 L 867,860 L 867,861 L 867,862 L 867,863 L 867,864 L 866,864 L 866,865 L 866,866 L 867,866 L 868,866 L 868,867 L 869,867 L 869,868 L 869,869 L 870,869 L 870,870 L 871,870 L 871,871 L 872,871 L 872,872 L 872,873 L 871,873 L 871,874 L 872,874 L 871,874 L 871,875 L 870,875 L 870,874 L 870,875 L 869,875 L 869,876 L 868,876 L 868,875 L 868,876 L 868,877 L 867,877 L 866,877 L 865,877 L 865,878 L 866,878 L 865,878 L 864,878 L 864,877 L 864,878 L 863,878 L 863,877 L 864,877 L 863,877 L 863,876 L 862,876 L 861,876 L 860,876 L 860,875 L 859,875 L 858,875 L 858,874 L 857,874 L 857,873 L 858,873 L 858,872 L 857,872 L 856,872 L 856,871 L 857,870 L 857,869 L 856,869 L 855,869 L 855,868 L 855,869 L 855,868 L 855,869 L 854,869 L 854,868 L 853,868 L 852,868 L 852,867 L 852,866 L 851,866 L 852,866 L 851,866 L 851,865 L 850,865 L 850,866 L 850,865 L 850,864 L 849,864 L 848,864 L 848,863 L 849,863 L 848,862 L 848,861 L 847,861 L 847,860 L 846,860 L 846,859 L 845,859 L 845,858 L 846,858 L 845,858 L 845,857 L 846,857 L 846,856 L 845,856 L 844,856 L 844,855 L 844,854 L 843,854 L 843,855 L 843,854 L 842,854 L 842,853 L 842,854 L 841,854 L 840,854 L 840,853 L 840,852 L 840,851 L 839,851 L 839,852 L 838,852 L 837,852 L 837,851 L 836,851 L 836,850 L 836,851 L 836,850 L 836,851 L 835,851 L 835,850 L 834,850 L 833,850 L 833,849 L 833,848 L 833,849 L 832,849 L 832,848 L 832,847 L 831,847 L 831,846 L 830,846 L 830,845 L 831,845 L 830,845 L 831,845 L 830,845 L 829,844 L 829,843 L 828,843 L 828,842 L 829,842 L 829,841 L 829,840 L 828,840 L 828,839 L 829,839 L 829,838 L 830,838 L 830,837 L 829,837 L 828,837 L 827,837 L 827,836 L 827,837 L 826,837 L 826,836 L 826,837 L 826,836 L 825,836 L 824,836 L 824,835 L 823,835 L 823,834 L 824,834 L 824,833 L 825,833 L 824,833 L 823,833 L 823,832 L 824,832 L 823,832 L 823,831 L 824,831 L 824,830 L 825,830 L 825,829 L 825,828 L 824,828 L 825,828 L 825,827 L 824,827 L 824,828 L 823,828 L 823,827 L 824,827 L 823,827 L 822,828 L 822,827 L 821,827 L 820,827 L 819,827 L 819,826 L 818,826 L 818,825 L 817,825 L 817,824 L 818,824 L 818,823 L 817,823 L 817,824 L 816,824 L 816,823 L 815,823 L 815,822 L 815,821 L 814,821 L 815,821 L 815,820 L 814,820 L 814,821 L 814,820 L 813,820 L 813,819 L 812,819 L 813,818 L 813,817 L 813,816 L 814,816 L 813,816 L 813,817 L 812,817 L 812,818 L 812,817 L 811,817 L 812,817 L 812,816 L 811,816 L 812,816 L 812,815 L 812,814 L 813,814 L 813,813 L 813,812 L 812,812 L 812,811 L 813,811 L 812,811 L 812,810 L 811,810 L 812,810 L 812,809 L 812,808 L 811,808 L 810,808 L 810,807 L 811,807 L 811,806 L 812,806 L 812,805 L 812,804 L 811,804 L 810,804 L 810,803 L 811,803 L 811,804 L 812,804 L 812,803 L 812,802 L 811,802 L 811,801 L 812,801 L 813,801 L 813,800 L 812,800 L 812,799 L 813,799 L 813,798 L 813,797 L 813,796 L 814,796 L 814,797 L 814,796 L 814,795 L 815,795 L 816,795 L 816,794 L 816,793 L 817,793 L 817,792 L 816,792 L 817,792 L 818,792 L 818,791 L 818,790 L 817,790 L 818,790 L 818,789 L 819,789 L 819,790 L 820,790 L 820,789 L 819,789 L 820,789 L 820,788 L 821,788 L 822,788 L 822,787 L 822,786 L 823,786 L 824,786 L 824,785 L 825,785 L 826,785 L 826,784 L 827,784 L 827,783 L 827,782 L 828,782 L 829,782 L 830,782 L 830,781 L 831,781 L 831,780 L 832,780 L 833,780 L 834,780 L 834,781 L 834,782 L 833,782 " />
</g>
<g id="ionioi-nisoi_3" >
<path d="M 854,517 L 853,517 L 853,518 L 852,518 L 852,519 L 851,519 L 851,518 L 852,517 L 853,517 L 853,516 L 854,516 L 854,515 L 854,516 L 854,517 " />
<path d="M 850,537 L 849,537 L 849,536 L 850,536 L 850,535 L 850,536 L 850,537 " />
<path d="M 855,525 L 854,525 L 854,526 L 853,526 L 852,526 L 852,527 L 852,526 L 851,526 L 851,525 L 851,524 L 852,524 L 851,524 L 852,524 L 852,523 L 852,524 L 853,524 L 854,524 L 854,523 L 855,523 L 855,524 L 855,523 L 856,523 L 856,524 L 855,524 L 855,525 " />
<path d="M 851,525 L 851,524 L 851,525 " />
<path d="M 854,522 L 853,522 L 853,523 L 853,522 L 853,521 L 854,522 L 853,522 L 854,522 L 854,521 L 854,522 " />
<path d="M 866,563 L 866,562 L 865,562 L 865,561 L 864,561 L 864,562 L 864,561 L 863,561 L 864,561 L 865,561 L 866,561 L 866,560 L 867,560 L 867,561 L 868,561 L 868,562 L 869,562 L 869,563 L 868,563 L 867,563 L 867,562 L 866,562 L 866,563 " />
<path d="M 868,531 L 868,532 L 868,531 " />
<path d="M 862,534 L 863,534 L 863,535 L 864,535 L 863,535 L 863,534 L 862,533 L 862,532 L 862,531 L 863,531 L 863,530 L 864,530 L 864,531 L 863,531 L 863,532 L 863,531 L 864,531 L 864,532 L 864,533 L 864,532 L 864,531 L 865,531 L 866,531 L 866,532 L 865,532 L 865,533 L 864,533 L 865,533 L 865,534 L 865,535 L 865,534 L 866,534 L 866,533 L 866,534 L 866,533 L 866,532 L 867,533 L 867,532 L 868,532 L 868,533 L 868,532 L 869,532 L 869,533 L 868,533 L 867,533 L 867,534 L 867,535 L 867,536 L 867,535 L 868,535 L 868,534 L 868,535 L 869,535 L 869,534 L 868,534 L 869,534 L 870,534 L 870,533 L 870,534 L 870,535 L 869,535 L 869,536 L 869,537 L 868,537 L 868,538 L 867,538 L 868,538 L 869,538 L 869,539 L 868,539 L 867,539 L 866,539 L 866,540 L 865,540 L 865,541 L 864,541 L 864,542 L 863,542 L 863,541 L 863,542 L 862,542 L 863,542 L 862,542 L 861,542 L 860,542 L 860,541 L 859,541 L 859,540 L 859,541 L 858,541 L 858,540 L 858,541 L 858,542 L 857,542 L 856,543 L 856,544 L 856,545 L 856,546 L 855,546 L 855,547 L 856,547 L 856,548 L 857,548 L 857,549 L 858,549 L 858,550 L 858,551 L 859,551 L 859,552 L 860,552 L 860,553 L 861,553 L 862,554 L 863,554 L 863,555 L 864,555 L 865,555 L 866,555 L 866,556 L 866,557 L 867,557 L 867,558 L 868,558 L 868,559 L 869,559 L 870,560 L 869,560 L 868,560 L 868,559 L 867,559 L 866,559 L 866,558 L 865,558 L 865,557 L 864,557 L 865,557 L 865,556 L 864,556 L 863,556 L 863,555 L 862,555 L 863,555 L 862,555 L 862,554 L 861,554 L 860,554 L 859,553 L 858,552 L 857,552 L 857,551 L 856,551 L 856,550 L 855,549 L 854,549 L 854,548 L 853,547 L 852,546 L 852,545 L 851,545 L 851,544 L 850,543 L 850,542 L 850,541 L 851,540 L 851,539 L 851,538 L 851,537 L 851,536 L 851,535 L 851,534 L 852,534 L 852,533 L 853,533 L 854,533 L 854,534 L 855,534 L 856,534 L 856,535 L 857,535 L 857,536 L 858,536 L 858,535 L 858,534 L 858,533 L 859,533 L 859,534 L 860,534 L 860,533 L 861,533 L 861,534 L 862,534 " />
</g>
<g id="ionioi-nisoi_4" >
<path d="M 645,297 L 645,296 L 645,297 " />
<path d="M 644,296 L 644,295 L 644,296 " />
<path d="M 628,232 L 628,231 L 629,231 L 628,232 " />
<path d="M 626,220 L 625,220 L 626,220 " />
<path d="M 652,196 L 653,196 L 653,197 L 653,198 L 652,198 L 651,198 L 651,197 L 650,197 L 650,198 L 650,197 L 649,197 L 650,197 L 650,196 L 651,196 L 652,196 " />
<path d="M 641,194 L 640,194 L 639,194 L 640,194 L 640,193 L 640,194 L 641,194 " />
<path d="M 578,165 L 577,165 L 578,165 L 577,165 L 578,165 L 578,164 L 577,164 L 578,164 L 578,163 L 578,164 L 578,165 " />
<path d="M 578,163 L 578,162 L 578,163 " />
<path d="M 546,157 L 546,156 L 546,157 " />
<path d="M 566,151 L 567,151 L 567,152 L 566,152 L 566,151 " />
<path d="M 568,149 L 568,150 L 568,151 L 568,152 L 567,152 L 567,151 L 567,150 L 567,149 L 568,149 " />
<path d="M 542,148 L 542,147 L 543,147 L 543,148 L 542,148 " />
<path d="M 549,146 L 549,147 L 550,147 L 550,148 L 551,148 L 551,149 L 552,149 L 552,150 L 552,151 L 552,152 L 553,152 L 552,152 L 552,153 L 551,153 L 550,153 L 549,153 L 549,152 L 549,151 L 548,151 L 548,150 L 548,149 L 547,149 L 547,148 L 547,147 L 547,146 L 546,146 L 546,145 L 545,145 L 545,144 L 546,144 L 546,143 L 547,143 L 547,144 L 548,144 L 548,145 L 549,145 L 549,146 " />
<path d="M 589,141 L 589,140 L 589,141 " />
<path d="M 634,135 L 635,135 L 636,135 L 636,136 L 637,136 L 638,136 L 638,137 L 637,137 L 637,138 L 636,138 L 635,138 L 634,138 L 635,138 L 635,139 L 635,138 L 636,138 L 637,138 L 637,139 L 637,138 L 638,138 L 638,137 L 638,138 L 638,137 L 639,137 L 640,137 L 640,138 L 640,137 L 640,138 L 641,138 L 642,138 L 642,139 L 642,140 L 642,141 L 642,142 L 643,142 L 643,143 L 644,143 L 644,144 L 645,144 L 646,144 L 646,145 L 647,145 L 648,145 L 649,145 L 648,145 L 648,146 L 649,146 L 650,146 L 650,147 L 651,147 L 652,147 L 652,146 L 653,146 L 653,145 L 652,145 L 653,145 L 653,146 L 653,145 L 653,146 L 653,147 L 654,147 L 654,146 L 654,147 L 655,147 L 655,148 L 654,148 L 655,148 L 655,149 L 656,149 L 656,150 L 657,150 L 657,151 L 658,151 L 658,150 L 659,150 L 659,149 L 658,149 L 658,148 L 658,147 L 658,148 L 659,148 L 659,149 L 660,149 L 660,148 L 660,149 L 660,150 L 660,151 L 660,150 L 661,150 L 661,151 L 661,152 L 662,152 L 662,153 L 661,153 L 661,154 L 662,154 L 661,154 L 661,155 L 660,155 L 659,155 L 660,155 L 660,156 L 659,156 L 659,157 L 659,158 L 659,159 L 658,159 L 657,159 L 657,160 L 658,160 L 658,161 L 657,161 L 657,162 L 657,163 L 656,163 L 655,163 L 655,164 L 656,164 L 656,165 L 655,165 L 655,164 L 655,165 L 654,165 L 654,166 L 655,166 L 654,166 L 653,166 L 653,167 L 652,167 L 651,167 L 651,168 L 650,168 L 649,168 L 648,168 L 648,169 L 647,169 L 646,169 L 645,169 L 644,169 L 643,169 L 642,169 L 641,169 L 641,170 L 640,170 L 639,170 L 638,171 L 638,172 L 637,172 L 637,173 L 636,173 L 635,173 L 635,174 L 635,173 L 635,174 L 635,173 L 634,173 L 634,174 L 633,174 L 632,174 L 631,174 L 631,175 L 631,176 L 630,176 L 630,177 L 630,178 L 630,179 L 631,179 L 631,180 L 632,180 L 632,181 L 632,180 L 631,180 L 631,181 L 631,182 L 630,183 L 630,184 L 631,184 L 631,185 L 632,185 L 632,186 L 633,186 L 633,187 L 634,187 L 635,187 L 635,188 L 636,188 L 635,188 L 636,188 L 635,188 L 634,188 L 634,189 L 633,189 L 633,190 L 632,190 L 632,189 L 631,189 L 631,190 L 630,190 L 631,190 L 631,191 L 631,192 L 632,192 L 632,193 L 631,193 L 632,193 L 632,194 L 633,194 L 634,194 L 635,194 L 635,193 L 634,193 L 633,193 L 633,192 L 634,192 L 634,191 L 634,192 L 635,192 L 635,193 L 635,194 L 635,195 L 635,196 L 636,196 L 636,197 L 637,197 L 638,197 L 638,198 L 639,198 L 640,198 L 641,198 L 642,198 L 642,199 L 642,200 L 643,200 L 644,200 L 645,200 L 646,201 L 645,201 L 646,201 L 646,202 L 646,201 L 646,202 L 646,201 L 647,201 L 647,202 L 648,202 L 649,202 L 649,201 L 649,202 L 650,202 L 650,201 L 650,202 L 650,201 L 651,201 L 651,202 L 652,202 L 651,202 L 652,202 L 652,203 L 652,202 L 653,202 L 653,203 L 653,202 L 653,203 L 652,203 L 651,203 L 651,204 L 651,205 L 650,205 L 650,206 L 650,207 L 651,207 L 652,207 L 652,208 L 652,209 L 651,209 L 652,209 L 652,210 L 651,210 L 651,211 L 651,212 L 652,212 L 651,212 L 651,213 L 650,213 L 649,213 L 649,214 L 649,213 L 648,213 L 648,212 L 648,211 L 647,211 L 648,211 L 647,211 L 648,210 L 647,210 L 647,209 L 647,208 L 646,208 L 645,208 L 645,209 L 645,210 L 645,211 L 645,212 L 646,212 L 646,213 L 647,213 L 647,214 L 648,214 L 648,215 L 648,214 L 648,215 L 648,216 L 648,217 L 648,218 L 648,219 L 647,219 L 647,220 L 647,221 L 646,221 L 646,222 L 647,222 L 647,223 L 647,224 L 647,225 L 647,226 L 647,227 L 647,228 L 647,229 L 647,230 L 648,230 L 648,231 L 648,232 L 648,233 L 649,233 L 649,234 L 649,235 L 650,235 L 650,236 L 649,236 L 649,237 L 649,238 L 649,239 L 650,239 L 649,239 L 650,239 L 649,239 L 649,240 L 649,241 L 649,242 L 649,243 L 649,244 L 650,244 L 650,245 L 650,246 L 650,247 L 650,248 L 650,249 L 650,250 L 651,250 L 651,251 L 652,251 L 652,252 L 652,253 L 652,254 L 653,254 L 654,254 L 654,255 L 655,255 L 656,255 L 656,256 L 657,256 L 658,256 L 658,257 L 659,257 L 660,258 L 661,258 L 661,259 L 662,259 L 663,259 L 664,259 L 665,259 L 666,259 L 667,259 L 668,259 L 668,260 L 669,260 L 669,261 L 669,262 L 670,262 L 669,262 L 669,263 L 670,263 L 670,264 L 670,265 L 671,265 L 671,266 L 671,267 L 672,267 L 672,268 L 673,268 L 674,268 L 675,268 L 676,268 L 677,268 L 677,267 L 678,267 L 679,267 L 680,266 L 681,266 L 682,266 L 682,265 L 683,265 L 684,265 L 684,264 L 685,264 L 685,263 L 686,263 L 686,262 L 686,261 L 687,261 L 687,260 L 687,259 L 687,260 L 688,260 L 688,261 L 688,262 L 688,263 L 688,264 L 688,265 L 689,265 L 689,266 L 690,267 L 690,268 L 691,268 L 691,269 L 691,270 L 692,270 L 692,271 L 692,272 L 693,272 L 693,273 L 693,274 L 693,275 L 693,276 L 693,277 L 693,278 L 693,279 L 694,279 L 694,280 L 694,281 L 695,281 L 695,282 L 695,283 L 696,283 L 696,284 L 697,284 L 697,285 L 698,285 L 698,286 L 699,286 L 699,287 L 699,288 L 698,288 L 698,289 L 698,290 L 697,291 L 697,292 L 697,293 L 696,293 L 695,293 L 695,292 L 694,292 L 693,291 L 692,291 L 691,291 L 690,291 L 690,292 L 689,292 L 689,291 L 688,291 L 688,290 L 687,290 L 687,289 L 686,289 L 685,289 L 685,288 L 684,288 L 684,287 L 683,287 L 683,286 L 682,286 L 681,286 L 681,285 L 680,285 L 679,285 L 679,284 L 678,284 L 677,284 L 677,283 L 676,283 L 676,282 L 675,282 L 674,281 L 673,281 L 672,281 L 671,281 L 670,281 L 670,280 L 669,280 L 668,280 L 668,279 L 667,279 L 667,278 L 667,277 L 666,277 L 666,276 L 665,276 L 665,275 L 664,275 L 664,274 L 663,274 L 663,273 L 662,273 L 661,272 L 660,272 L 659,271 L 658,271 L 657,270 L 656,270 L 655,270 L 654,270 L 653,270 L 653,269 L 652,269 L 652,268 L 651,268 L 650,268 L 650,267 L 649,267 L 648,267 L 647,267 L 646,267 L 646,268 L 645,268 L 645,267 L 644,267 L 644,266 L 644,265 L 643,265 L 643,264 L 642,264 L 642,263 L 641,263 L 640,263 L 640,262 L 639,262 L 638,262 L 638,261 L 637,261 L 636,260 L 635,260 L 635,259 L 635,258 L 635,259 L 634,259 L 634,258 L 635,258 L 635,257 L 634,257 L 634,256 L 634,255 L 634,254 L 634,253 L 633,253 L 633,252 L 633,251 L 632,251 L 632,250 L 632,249 L 631,249 L 631,248 L 631,247 L 631,246 L 630,246 L 630,245 L 631,245 L 631,244 L 631,243 L 631,242 L 631,241 L 630,241 L 630,240 L 630,239 L 630,238 L 630,237 L 630,236 L 629,236 L 629,235 L 629,234 L 629,233 L 628,233 L 629,233 L 629,232 L 629,231 L 630,231 L 630,230 L 630,229 L 631,229 L 631,228 L 630,228 L 630,227 L 630,226 L 630,225 L 629,225 L 629,224 L 628,224 L 628,223 L 627,223 L 627,222 L 627,223 L 627,222 L 627,221 L 626,221 L 626,220 L 626,219 L 626,218 L 625,218 L 625,217 L 624,217 L 624,216 L 624,215 L 623,215 L 623,214 L 622,214 L 622,213 L 621,213 L 621,212 L 620,212 L 620,211 L 619,211 L 619,212 L 619,211 L 618,211 L 618,210 L 617,210 L 616,210 L 615,210 L 615,209 L 614,209 L 614,210 L 614,209 L 613,209 L 612,209 L 612,208 L 612,207 L 612,206 L 613,206 L 613,205 L 612,205 L 611,205 L 611,204 L 610,204 L 610,205 L 610,204 L 610,203 L 609,203 L 608,203 L 608,202 L 607,202 L 606,202 L 606,201 L 605,201 L 604,201 L 604,200 L 604,201 L 604,200 L 603,200 L 603,199 L 604,199 L 604,198 L 603,198 L 603,197 L 604,197 L 603,197 L 604,197 L 604,196 L 603,196 L 603,195 L 603,194 L 602,194 L 602,193 L 602,192 L 601,192 L 601,191 L 601,190 L 600,190 L 599,190 L 599,191 L 599,190 L 599,189 L 600,189 L 599,189 L 600,189 L 600,188 L 600,187 L 600,186 L 600,187 L 600,186 L 599,186 L 600,186 L 600,185 L 601,185 L 601,184 L 601,183 L 601,184 L 601,183 L 600,184 L 600,183 L 600,184 L 599,184 L 599,183 L 599,184 L 598,184 L 597,184 L 598,184 L 598,183 L 597,183 L 596,183 L 597,183 L 596,183 L 595,183 L 595,184 L 596,184 L 596,185 L 596,184 L 596,185 L 595,185 L 595,184 L 594,184 L 594,185 L 593,185 L 593,184 L 594,184 L 594,183 L 593,183 L 592,183 L 591,183 L 591,182 L 591,183 L 591,182 L 590,182 L 589,182 L 589,181 L 588,181 L 587,181 L 587,180 L 587,179 L 587,178 L 588,177 L 587,177 L 587,176 L 588,176 L 588,175 L 588,174 L 588,173 L 589,173 L 589,172 L 590,172 L 590,171 L 590,170 L 590,169 L 589,169 L 589,168 L 588,168 L 588,167 L 587,167 L 586,167 L 585,166 L 585,167 L 585,166 L 585,167 L 584,168 L 584,169 L 583,169 L 583,170 L 582,170 L 582,169 L 583,169 L 583,168 L 582,168 L 583,168 L 583,167 L 583,166 L 583,165 L 583,164 L 583,163 L 583,162 L 583,161 L 582,161 L 582,160 L 582,159 L 581,159 L 581,158 L 580,158 L 580,157 L 580,156 L 579,156 L 579,157 L 579,156 L 579,157 L 579,156 L 578,157 L 578,156 L 577,156 L 578,156 L 578,155 L 579,155 L 580,155 L 580,154 L 581,154 L 581,153 L 581,152 L 581,151 L 582,151 L 582,150 L 583,150 L 583,149 L 583,148 L 584,148 L 584,147 L 585,147 L 585,146 L 586,146 L 586,145 L 587,145 L 587,144 L 587,143 L 588,143 L 588,142 L 589,142 L 589,141 L 589,140 L 589,141 L 590,141 L 590,142 L 591,142 L 592,142 L 593,142 L 593,141 L 594,141 L 594,142 L 595,142 L 595,141 L 595,142 L 596,142 L 597,142 L 597,143 L 598,143 L 598,144 L 599,144 L 600,144 L 601,144 L 602,144 L 603,144 L 603,143 L 604,143 L 605,143 L 606,143 L 606,142 L 607,142 L 608,142 L 608,141 L 609,142 L 610,142 L 610,143 L 611,143 L 611,144 L 612,144 L 612,143 L 613,143 L 614,143 L 615,143 L 615,142 L 616,142 L 616,143 L 617,143 L 617,144 L 618,144 L 618,145 L 619,145 L 620,145 L 621,145 L 622,145 L 623,145 L 623,144 L 624,144 L 625,144 L 625,143 L 626,143 L 627,142 L 628,142 L 628,141 L 629,141 L 629,140 L 630,140 L 630,139 L 631,139 L 631,138 L 632,138 L 632,137 L 633,137 L 633,136 L 634,136 L 634,135 " />
<path d="M 515,114 L 516,114 L 516,115 L 517,115 L 517,116 L 518,116 L 518,117 L 519,117 L 520,117 L 520,116 L 521,116 L 522,116 L 523,116 L 523,115 L 524,115 L 525,115 L 526,115 L 527,115 L 527,116 L 528,116 L 527,116 L 526,116 L 526,117 L 525,117 L 525,118 L 524,118 L 524,119 L 523,119 L 523,120 L 523,121 L 522,122 L 522,123 L 521,123 L 521,124 L 521,123 L 520,123 L 519,123 L 519,124 L 518,124 L 518,125 L 518,124 L 517,124 L 517,125 L 516,125 L 516,124 L 515,124 L 515,123 L 514,123 L 514,122 L 513,122 L 513,123 L 512,123 L 512,122 L 512,121 L 513,121 L 513,120 L 512,120 L 512,119 L 512,118 L 512,117 L 512,116 L 513,116 L 513,115 L 513,114 L 514,114 L 514,113 L 514,114 L 515,114 " />
<path d="M 565,105 L 565,106 L 566,106 L 567,106 L 567,107 L 568,107 L 569,107 L 569,108 L 570,108 L 570,109 L 570,110 L 571,110 L 570,110 L 570,111 L 569,111 L 569,112 L 569,113 L 568,113 L 568,112 L 567,112 L 566,112 L 566,113 L 565,113 L 565,114 L 565,113 L 565,112 L 564,112 L 564,111 L 563,111 L 564,111 L 564,110 L 563,109 L 563,108 L 563,107 L 563,106 L 564,106 L 564,105 L 565,105 " />
</g>
<g id="ionioi-nisoi_5" >
<path d="M 941,660 L 941,659 L 942,659 L 942,658 L 942,659 L 943,659 L 943,660 L 944,660 L 944,659 L 945,659 L 945,658 L 944,658 L 944,657 L 943,657 L 943,656 L 944,656 L 944,655 L 944,654 L 945,654 L 945,653 L 946,653 L 946,654 L 946,655 L 947,655 L 947,654 L 947,653 L 948,653 L 948,654 L 948,655 L 948,656 L 948,657 L 948,658 L 948,659 L 947,659 L 947,660 L 946,660 L 946,661 L 946,660 L 945,660 L 945,661 L 944,661 L 944,660 L 944,661 L 943,661 L 943,662 L 943,663 L 943,664 L 944,664 L 944,665 L 943,665 L 942,665 L 942,664 L 941,664 L 942,664 L 941,664 L 941,663 L 941,662 L 942,662 L 941,662 L 941,661 L 941,660 " />
<path d="M 910,598 L 910,597 L 910,598 " />
<path d="M 922,603 L 923,603 L 923,604 L 922,604 L 922,605 L 922,604 L 922,603 " />
<path d="M 837,631 L 837,630 L 838,630 L 838,631 L 837,631 " />
<path d="M 932,642 L 932,643 L 931,643 L 931,642 L 931,641 L 932,641 L 932,642 " />
<path d="M 928,606 L 927,606 L 927,605 L 928,605 L 927,605 L 927,604 L 928,604 L 928,605 L 928,606 " />
<path d="M 845,571 L 845,572 L 844,572 L 844,573 L 844,574 L 845,575 L 844,575 L 844,576 L 843,576 L 843,575 L 842,575 L 841,575 L 841,574 L 840,574 L 840,573 L 840,572 L 840,571 L 840,570 L 841,570 L 841,569 L 841,568 L 841,567 L 842,567 L 842,566 L 843,566 L 844,567 L 845,567 L 845,568 L 846,568 L 846,569 L 845,569 L 845,570 L 845,571 " />
<path d="M 872,590 L 872,591 L 872,592 L 872,593 L 872,594 L 872,595 L 871,595 L 871,596 L 872,596 L 872,597 L 871,597 L 872,597 L 871,597 L 871,598 L 870,598 L 869,598 L 869,597 L 869,598 L 868,598 L 868,599 L 867,599 L 867,598 L 866,598 L 865,598 L 865,597 L 865,596 L 865,595 L 866,595 L 867,595 L 867,594 L 868,594 L 868,593 L 868,592 L 869,592 L 869,591 L 869,590 L 870,590 L 870,589 L 871,589 L 871,590 L 872,589 L 872,590 " />
<path d="M 922,602 L 922,601 L 923,601 L 923,602 L 922,602 " />
<path d="M 924,615 L 925,615 L 924,615 " />
<path d="M 924,614 L 924,613 L 924,614 L 924,613 L 925,613 L 925,614 L 925,613 L 925,614 L 924,614 " />
<path d="M 928,640 L 928,641 L 929,641 L 929,642 L 930,642 L 930,643 L 929,643 L 929,642 L 928,642 L 928,641 L 928,640 L 927,640 L 927,639 L 926,639 L 925,639 L 925,638 L 924,638 L 924,637 L 924,636 L 924,635 L 924,634 L 924,635 L 924,636 L 925,636 L 926,636 L 926,637 L 926,638 L 927,638 L 927,639 L 927,640 L 928,640 " />
<path d="M 920,602 L 919,602 L 919,601 L 919,602 L 918,602 L 918,601 L 919,601 L 919,600 L 920,600 L 920,601 L 921,601 L 921,602 L 920,602 " />
<path d="M 927,595 L 927,596 L 926,596 L 926,595 L 925,595 L 926,595 L 926,594 L 927,594 L 927,595 " />
<path d="M 932,604 L 932,605 L 932,606 L 931,606 L 930,606 L 930,607 L 931,607 L 930,607 L 929,607 L 929,606 L 929,605 L 929,604 L 930,604 L 930,603 L 930,602 L 931,602 L 932,602 L 932,603 L 932,604 " />
<path d="M 931,600 L 931,601 L 930,601 L 930,602 L 929,602 L 929,601 L 928,601 L 928,600 L 928,599 L 929,599 L 930,599 L 931,599 L 931,600 " />
<path d="M 934,608 L 934,607 L 934,606 L 935,606 L 936,606 L 937,606 L 937,607 L 938,607 L 938,608 L 937,608 L 937,607 L 937,608 L 936,608 L 936,609 L 935,609 L 935,608 L 934,608 " />
<path d="M 917,638 L 916,638 L 915,637 L 915,636 L 915,635 L 915,634 L 915,633 L 916,633 L 916,634 L 917,634 L 917,635 L 917,636 L 917,637 L 917,638 " />
<path d="M 926,599 L 926,600 L 926,601 L 925,601 L 924,601 L 924,600 L 923,600 L 922,600 L 922,599 L 921,599 L 921,598 L 920,598 L 920,597 L 921,597 L 921,598 L 921,597 L 922,597 L 922,596 L 923,596 L 922,596 L 922,595 L 923,595 L 924,595 L 924,596 L 925,596 L 925,597 L 926,597 L 926,598 L 926,597 L 926,598 L 926,599 " />
<path d="M 924,618 L 925,618 L 924,618 L 923,618 L 923,617 L 923,616 L 924,616 L 924,617 L 924,618 " />
<path d="M 850,646 L 850,645 L 850,644 L 851,644 L 851,645 L 851,646 L 850,646 " />
<path d="M 833,596 L 832,596 L 832,595 L 833,595 L 833,596 " />
<path d="M 820,606 L 819,605 L 819,604 L 818,604 L 818,603 L 817,602 L 818,602 L 817,602 L 817,601 L 817,600 L 816,600 L 816,599 L 816,598 L 816,597 L 817,597 L 817,596 L 817,595 L 818,595 L 819,595 L 820,596 L 821,596 L 821,597 L 822,597 L 822,598 L 823,598 L 823,599 L 824,599 L 825,599 L 825,598 L 826,598 L 826,597 L 826,596 L 827,596 L 826,596 L 826,595 L 827,595 L 827,594 L 827,593 L 827,592 L 826,592 L 826,591 L 826,590 L 825,590 L 825,589 L 826,589 L 826,588 L 826,589 L 826,588 L 826,587 L 826,588 L 827,588 L 828,588 L 829,588 L 829,589 L 830,589 L 830,590 L 831,590 L 831,591 L 832,591 L 833,591 L 833,592 L 833,593 L 834,593 L 833,593 L 832,594 L 832,595 L 831,595 L 831,596 L 832,596 L 832,597 L 831,597 L 832,597 L 832,598 L 831,598 L 832,598 L 832,599 L 832,600 L 831,600 L 830,600 L 830,601 L 830,602 L 829,602 L 830,602 L 831,602 L 831,603 L 831,602 L 832,602 L 831,603 L 832,603 L 833,603 L 833,604 L 834,604 L 835,604 L 836,604 L 836,603 L 836,602 L 837,602 L 837,603 L 837,604 L 838,604 L 838,605 L 838,606 L 837,606 L 836,606 L 836,607 L 837,607 L 838,607 L 839,607 L 839,608 L 839,609 L 840,609 L 840,610 L 841,610 L 841,611 L 840,611 L 840,612 L 839,612 L 840,612 L 840,613 L 839,613 L 839,614 L 838,614 L 838,615 L 838,616 L 839,616 L 839,617 L 838,617 L 838,618 L 837,618 L 837,619 L 837,620 L 836,620 L 836,621 L 835,621 L 835,622 L 835,623 L 834,623 L 834,624 L 834,625 L 834,626 L 833,626 L 833,627 L 832,627 L 832,628 L 831,628 L 831,629 L 831,630 L 831,631 L 832,631 L 832,632 L 831,632 L 831,633 L 831,634 L 832,634 L 832,635 L 833,635 L 833,634 L 834,634 L 834,633 L 835,633 L 835,632 L 836,632 L 837,632 L 838,632 L 838,633 L 838,632 L 839,632 L 838,632 L 838,631 L 839,631 L 839,632 L 840,632 L 840,633 L 840,634 L 841,634 L 842,634 L 843,634 L 843,635 L 843,634 L 843,633 L 842,633 L 843,633 L 842,632 L 842,631 L 842,632 L 841,632 L 840,632 L 840,631 L 839,630 L 838,629 L 838,628 L 839,628 L 839,627 L 840,627 L 840,628 L 841,628 L 841,629 L 842,629 L 843,629 L 843,628 L 844,628 L 844,627 L 843,627 L 843,626 L 842,626 L 842,625 L 842,626 L 843,626 L 844,626 L 845,626 L 845,627 L 846,627 L 846,628 L 847,628 L 847,627 L 848,627 L 848,628 L 847,628 L 848,628 L 848,629 L 849,629 L 849,630 L 850,630 L 850,631 L 849,631 L 849,632 L 850,632 L 851,632 L 851,633 L 852,633 L 852,634 L 852,635 L 853,635 L 852,635 L 851,635 L 851,634 L 851,635 L 851,634 L 850,634 L 849,634 L 849,635 L 848,635 L 848,634 L 847,634 L 847,635 L 848,635 L 849,636 L 849,637 L 850,637 L 850,638 L 850,639 L 850,640 L 849,640 L 849,639 L 849,640 L 848,640 L 849,640 L 849,641 L 848,641 L 847,641 L 848,641 L 848,642 L 849,642 L 848,642 L 848,643 L 847,643 L 848,643 L 848,644 L 849,644 L 849,645 L 850,645 L 850,646 L 849,646 L 849,647 L 850,647 L 850,648 L 850,647 L 850,648 L 851,648 L 852,648 L 852,649 L 853,649 L 854,649 L 854,650 L 855,650 L 855,651 L 854,651 L 853,651 L 852,651 L 852,652 L 852,653 L 851,652 L 850,652 L 850,653 L 849,653 L 849,654 L 848,654 L 847,654 L 846,654 L 845,654 L 845,655 L 844,655 L 844,654 L 843,654 L 843,655 L 843,656 L 842,656 L 841,656 L 841,655 L 840,655 L 840,654 L 839,654 L 839,653 L 839,654 L 838,654 L 838,653 L 837,653 L 837,652 L 836,652 L 836,651 L 836,650 L 835,650 L 835,649 L 835,648 L 835,647 L 834,647 L 834,646 L 834,645 L 834,644 L 834,643 L 834,642 L 834,641 L 834,640 L 834,639 L 833,639 L 832,639 L 831,639 L 831,638 L 830,638 L 830,637 L 829,637 L 829,636 L 829,635 L 829,634 L 829,633 L 829,632 L 829,631 L 829,630 L 829,629 L 828,629 L 828,628 L 828,627 L 828,626 L 827,626 L 827,625 L 826,625 L 826,624 L 826,623 L 825,623 L 825,622 L 825,621 L 825,620 L 824,620 L 825,620 L 824,620 L 824,619 L 824,618 L 824,617 L 824,616 L 823,616 L 823,615 L 823,614 L 823,613 L 823,612 L 823,611 L 822,611 L 823,610 L 823,609 L 823,608 L 822,608 L 822,609 L 821,609 L 820,609 L 820,608 L 820,607 L 819,607 L 820,607 L 820,606 " />
</g>
<g id="ionioi-nisoi_6" >
<path d="M 881,569 L 880,569 L 880,570 L 880,569 L 880,568 L 881,568 L 881,569 " />
<path d="M 800,567 L 800,566 L 800,567 " />
<path d="M 899,567 L 899,566 L 900,566 L 900,567 L 899,567 " />
<path d="M 903,556 L 904,556 L 904,557 L 903,557 L 904,557 L 904,558 L 903,558 L 904,558 L 904,559 L 903,559 L 903,558 L 903,559 L 902,559 L 901,559 L 901,560 L 901,561 L 901,562 L 900,562 L 900,563 L 900,564 L 899,565 L 899,566 L 898,566 L 898,567 L 897,567 L 896,567 L 896,568 L 896,569 L 895,569 L 895,570 L 896,570 L 895,570 L 895,571 L 894,571 L 895,571 L 895,572 L 894,572 L 894,573 L 893,573 L 893,572 L 893,573 L 892,573 L 893,573 L 893,574 L 893,575 L 894,575 L 894,576 L 894,577 L 895,577 L 894,577 L 894,576 L 893,576 L 892,576 L 893,576 L 892,576 L 892,577 L 891,577 L 891,576 L 891,575 L 891,574 L 892,574 L 892,573 L 892,572 L 892,571 L 892,570 L 892,569 L 892,568 L 893,569 L 893,570 L 894,570 L 894,569 L 894,568 L 894,567 L 895,566 L 895,565 L 896,565 L 896,564 L 897,564 L 897,563 L 898,563 L 898,562 L 898,561 L 899,561 L 899,560 L 900,559 L 900,558 L 901,558 L 901,557 L 902,557 L 902,556 L 903,556 " />
<path d="M 801,556 L 800,556 L 800,555 L 801,555 L 801,556 " />
<path d="M 904,555 L 903,555 L 903,554 L 904,554 L 904,555 " />
<path d="M 908,540 L 909,540 L 910,540 L 910,541 L 910,542 L 910,543 L 909,544 L 909,545 L 908,545 L 908,546 L 907,546 L 907,547 L 906,547 L 905,547 L 904,547 L 904,548 L 903,548 L 903,549 L 902,549 L 902,550 L 902,551 L 901,551 L 901,552 L 900,552 L 899,552 L 898,552 L 898,553 L 897,553 L 896,553 L 895,553 L 894,553 L 894,554 L 894,553 L 893,553 L 893,554 L 892,554 L 892,555 L 892,556 L 891,556 L 890,556 L 889,557 L 889,558 L 890,558 L 891,558 L 891,559 L 890,560 L 890,561 L 889,561 L 889,562 L 889,563 L 888,563 L 888,564 L 887,564 L 886,564 L 886,565 L 885,565 L 885,564 L 885,563 L 885,562 L 886,562 L 886,561 L 885,561 L 886,561 L 886,560 L 885,560 L 885,559 L 885,558 L 885,557 L 886,557 L 886,556 L 886,555 L 887,555 L 888,555 L 888,554 L 887,554 L 888,554 L 887,554 L 887,553 L 887,552 L 888,552 L 888,551 L 889,551 L 889,550 L 890,550 L 890,549 L 890,548 L 890,547 L 891,547 L 891,546 L 891,545 L 892,545 L 892,544 L 893,543 L 894,543 L 894,542 L 895,542 L 895,541 L 896,541 L 897,541 L 898,541 L 899,541 L 900,541 L 900,542 L 901,542 L 901,541 L 902,541 L 902,542 L 903,542 L 903,541 L 904,541 L 904,540 L 905,540 L 906,540 L 907,540 L 908,540 " />
<path d="M 799,522 L 800,522 L 799,522 L 800,522 L 799,522 L 799,521 L 799,522 " />
<path d="M 848,520 L 848,519 L 849,519 L 849,520 L 848,520 " />
<path d="M 850,487 L 850,486 L 850,487 L 851,487 L 850,487 " />
<path d="M 841,476 L 840,476 L 841,476 " />
<path d="M 848,479 L 848,480 L 848,481 L 849,481 L 848,481 L 848,480 L 848,479 L 847,478 L 847,477 L 847,476 L 847,475 L 847,476 L 847,477 L 847,478 L 848,478 L 848,479 " />
<path d="M 848,474 L 848,473 L 848,474 " />
<path d="M 848,474 L 848,473 L 848,474 L 848,475 L 847,475 L 847,476 L 846,476 L 846,477 L 845,477 L 845,478 L 846,478 L 847,478 L 847,479 L 847,480 L 848,480 L 848,481 L 848,482 L 847,482 L 848,483 L 847,483 L 848,483 L 848,484 L 848,485 L 849,485 L 849,486 L 850,486 L 850,487 L 850,488 L 849,488 L 849,489 L 848,489 L 848,490 L 848,491 L 848,492 L 848,493 L 849,493 L 849,494 L 848,494 L 848,495 L 848,496 L 849,496 L 849,497 L 848,497 L 848,498 L 849,498 L 849,499 L 848,499 L 848,500 L 847,500 L 847,501 L 847,502 L 848,502 L 848,503 L 848,504 L 848,505 L 849,505 L 849,506 L 849,507 L 850,507 L 850,508 L 851,508 L 851,509 L 850,510 L 850,511 L 851,511 L 850,511 L 850,512 L 850,513 L 850,514 L 849,514 L 849,515 L 848,515 L 848,516 L 847,516 L 846,516 L 846,517 L 846,518 L 846,519 L 845,519 L 844,520 L 844,521 L 844,522 L 843,522 L 843,523 L 844,523 L 843,523 L 843,524 L 842,524 L 842,525 L 841,525 L 841,526 L 841,527 L 841,528 L 841,529 L 842,529 L 842,530 L 843,530 L 844,529 L 843,529 L 844,528 L 844,527 L 845,527 L 845,526 L 844,526 L 844,525 L 844,524 L 844,523 L 844,522 L 845,522 L 846,521 L 845,521 L 845,520 L 846,520 L 846,521 L 847,522 L 847,523 L 847,524 L 848,523 L 848,524 L 848,525 L 847,525 L 847,526 L 847,527 L 848,527 L 848,528 L 848,529 L 847,529 L 847,530 L 847,531 L 847,532 L 846,532 L 845,531 L 844,531 L 844,532 L 845,532 L 844,533 L 845,533 L 844,533 L 845,534 L 845,535 L 846,535 L 846,536 L 846,537 L 846,538 L 847,538 L 847,539 L 847,540 L 847,541 L 847,542 L 847,543 L 847,544 L 847,545 L 847,546 L 847,547 L 846,547 L 845,547 L 845,548 L 844,548 L 844,547 L 843,546 L 843,547 L 842,547 L 842,546 L 842,545 L 842,544 L 841,544 L 841,543 L 841,542 L 840,542 L 839,542 L 839,543 L 840,543 L 840,544 L 839,544 L 839,545 L 839,546 L 839,547 L 839,548 L 840,548 L 840,549 L 841,549 L 840,549 L 839,549 L 839,550 L 839,549 L 839,548 L 838,548 L 837,548 L 837,547 L 836,547 L 836,548 L 837,548 L 838,548 L 838,549 L 837,549 L 837,550 L 837,551 L 837,552 L 837,553 L 836,553 L 836,554 L 836,553 L 835,553 L 834,553 L 834,554 L 833,554 L 832,554 L 831,554 L 830,554 L 830,553 L 830,552 L 829,552 L 829,551 L 829,552 L 828,552 L 828,553 L 827,553 L 827,554 L 826,554 L 826,555 L 825,555 L 825,556 L 825,557 L 825,558 L 825,559 L 826,559 L 826,560 L 826,561 L 827,561 L 826,561 L 826,562 L 825,562 L 824,562 L 824,561 L 824,560 L 823,560 L 823,559 L 822,559 L 823,559 L 822,558 L 822,557 L 822,556 L 823,556 L 823,555 L 823,554 L 822,554 L 821,554 L 820,554 L 820,555 L 819,555 L 818,555 L 818,554 L 818,553 L 817,553 L 817,552 L 817,551 L 816,551 L 816,550 L 816,549 L 816,548 L 816,547 L 816,546 L 817,546 L 817,545 L 816,545 L 816,544 L 815,544 L 814,544 L 813,544 L 812,544 L 812,545 L 812,546 L 811,546 L 811,547 L 811,548 L 810,548 L 810,549 L 810,550 L 809,550 L 809,551 L 809,552 L 809,553 L 808,553 L 808,554 L 808,555 L 807,555 L 807,556 L 806,556 L 806,557 L 806,558 L 806,559 L 805,559 L 804,559 L 804,560 L 803,560 L 804,560 L 803,560 L 803,561 L 803,562 L 802,562 L 802,563 L 802,564 L 801,564 L 801,565 L 800,565 L 801,565 L 800,565 L 800,566 L 799,566 L 799,567 L 798,567 L 798,566 L 799,566 L 798,566 L 799,566 L 799,565 L 800,565 L 800,564 L 800,563 L 800,562 L 801,562 L 801,561 L 800,561 L 800,560 L 799,560 L 799,559 L 799,558 L 800,558 L 800,557 L 800,556 L 801,556 L 801,555 L 801,554 L 801,553 L 800,553 L 801,553 L 801,552 L 802,552 L 802,551 L 802,550 L 802,549 L 803,549 L 803,548 L 802,548 L 803,548 L 803,547 L 803,546 L 803,545 L 803,544 L 804,543 L 804,542 L 804,541 L 804,540 L 804,539 L 803,539 L 803,538 L 804,538 L 804,537 L 804,536 L 804,535 L 804,534 L 804,533 L 804,532 L 804,531 L 804,530 L 804,529 L 803,528 L 804,528 L 804,527 L 804,526 L 805,526 L 805,525 L 805,524 L 805,523 L 806,523 L 806,522 L 807,522 L 807,521 L 807,520 L 808,520 L 808,519 L 809,518 L 809,517 L 809,516 L 810,516 L 810,515 L 810,514 L 810,513 L 811,512 L 811,511 L 811,510 L 811,509 L 812,509 L 812,508 L 812,507 L 812,506 L 812,505 L 813,505 L 812,504 L 813,504 L 813,503 L 813,502 L 814,502 L 814,501 L 814,500 L 814,499 L 815,499 L 815,498 L 815,497 L 815,496 L 816,496 L 816,495 L 816,494 L 816,493 L 817,493 L 818,493 L 818,492 L 818,491 L 819,491 L 819,490 L 820,490 L 820,491 L 821,491 L 821,490 L 822,490 L 823,490 L 823,489 L 823,488 L 824,488 L 824,487 L 824,486 L 825,486 L 825,485 L 825,484 L 825,483 L 825,482 L 826,482 L 826,481 L 827,481 L 827,480 L 828,480 L 828,479 L 828,478 L 829,477 L 830,476 L 831,476 L 832,476 L 833,476 L 834,476 L 834,477 L 835,477 L 836,477 L 837,477 L 837,476 L 838,476 L 838,475 L 838,474 L 839,474 L 839,473 L 839,472 L 839,471 L 840,471 L 841,471 L 841,470 L 842,470 L 842,471 L 843,471 L 843,472 L 844,472 L 845,472 L 846,472 L 847,472 L 848,472 L 849,472 L 849,473 L 848,473 L 847,473 L 847,472 L 846,472 L 846,473 L 846,472 L 845,472 L 844,472 L 843,472 L 843,473 L 842,473 L 842,472 L 842,471 L 841,471 L 841,472 L 841,473 L 841,474 L 840,474 L 839,474 L 839,475 L 838,475 L 838,476 L 839,476 L 840,477 L 840,476 L 841,476 L 842,476 L 843,476 L 844,476 L 845,476 L 846,476 L 847,476 L 847,475 L 847,474 L 848,474 " />
</g>
<g id="ionioi-nisoi_7" >
<path d="M 793,727 L 792,727 L 792,726 L 793,726 L 793,727 " />
<path d="M 805,721 L 804,721 L 805,721 " />
<path d="M 778,714 L 777,714 L 778,714 " />
<path d="M 760,709 L 761,709 L 761,710 L 760,710 L 760,709 " />
<path d="M 761,708 L 761,709 L 762,709 L 762,710 L 763,710 L 762,710 L 761,710 L 761,709 L 761,708 L 760,708 L 760,707 L 760,708 L 761,708 " />
<path d="M 744,669 L 744,670 L 744,669 " />
<path d="M 751,664 L 750,664 L 751,664 " />
<path d="M 761,639 L 761,638 L 761,639 " />
<path d="M 940,614 L 940,615 L 941,615 L 941,616 L 942,616 L 942,617 L 942,618 L 943,618 L 943,619 L 944,619 L 945,619 L 945,620 L 945,619 L 946,619 L 946,620 L 946,621 L 946,622 L 946,621 L 945,621 L 945,622 L 945,623 L 945,624 L 945,625 L 946,625 L 946,626 L 945,627 L 945,628 L 944,628 L 944,627 L 944,626 L 943,626 L 943,625 L 942,625 L 942,626 L 942,625 L 942,624 L 941,624 L 940,624 L 940,623 L 940,622 L 940,621 L 939,621 L 940,620 L 939,620 L 939,619 L 940,619 L 940,618 L 939,618 L 939,617 L 939,616 L 938,616 L 939,616 L 939,615 L 939,614 L 940,614 " />
<path d="M 796,614 L 796,613 L 796,614 " />
<path d="M 812,611 L 811,611 L 812,611 " />
<path d="M 803,596 L 803,597 L 804,597 L 804,598 L 805,598 L 805,597 L 806,597 L 806,598 L 805,598 L 806,598 L 805,598 L 805,599 L 806,599 L 807,599 L 807,600 L 808,600 L 808,601 L 807,601 L 807,600 L 806,600 L 806,601 L 807,601 L 806,602 L 807,602 L 807,603 L 807,604 L 806,604 L 807,604 L 808,604 L 808,605 L 809,606 L 808,607 L 809,607 L 809,608 L 808,608 L 807,608 L 808,608 L 808,609 L 809,609 L 809,610 L 809,611 L 809,612 L 808,612 L 809,612 L 809,613 L 810,613 L 810,614 L 810,615 L 811,615 L 811,616 L 811,617 L 810,618 L 811,618 L 812,618 L 812,619 L 811,619 L 811,620 L 810,620 L 811,620 L 811,621 L 811,620 L 812,620 L 812,621 L 813,621 L 814,621 L 815,621 L 815,622 L 814,622 L 815,622 L 815,623 L 814,623 L 815,623 L 815,624 L 815,625 L 814,625 L 815,625 L 815,626 L 815,627 L 815,628 L 815,629 L 815,628 L 816,628 L 816,629 L 816,630 L 815,630 L 815,631 L 815,630 L 815,631 L 814,631 L 815,631 L 816,631 L 816,632 L 816,633 L 815,633 L 815,634 L 816,634 L 816,635 L 817,635 L 817,636 L 817,637 L 817,638 L 817,639 L 817,640 L 817,641 L 817,642 L 817,643 L 818,643 L 818,644 L 818,645 L 818,646 L 818,647 L 818,648 L 818,649 L 818,650 L 817,650 L 817,651 L 816,651 L 815,651 L 815,652 L 814,652 L 813,652 L 813,653 L 812,653 L 812,654 L 811,654 L 810,654 L 810,655 L 811,655 L 811,656 L 812,656 L 812,657 L 813,657 L 813,658 L 813,659 L 813,660 L 814,661 L 814,662 L 814,663 L 814,664 L 815,664 L 815,665 L 815,666 L 816,666 L 816,667 L 816,668 L 817,668 L 817,669 L 817,670 L 818,670 L 818,671 L 819,671 L 819,672 L 820,672 L 821,672 L 822,672 L 823,672 L 823,671 L 822,671 L 823,671 L 824,671 L 824,670 L 825,670 L 825,669 L 826,669 L 826,668 L 827,667 L 827,666 L 827,665 L 827,664 L 828,664 L 828,663 L 829,663 L 829,662 L 830,662 L 831,662 L 831,663 L 832,663 L 832,664 L 831,664 L 831,665 L 830,666 L 830,667 L 829,667 L 829,668 L 829,669 L 830,669 L 831,669 L 831,668 L 832,668 L 832,667 L 833,667 L 834,667 L 834,668 L 834,669 L 835,669 L 835,668 L 835,669 L 835,670 L 836,670 L 836,671 L 835,671 L 835,672 L 836,672 L 836,673 L 837,673 L 837,674 L 837,675 L 837,676 L 838,676 L 839,676 L 839,677 L 839,678 L 838,678 L 838,679 L 838,680 L 839,680 L 839,681 L 839,682 L 840,682 L 840,683 L 841,683 L 841,684 L 841,685 L 842,685 L 842,686 L 843,686 L 843,687 L 844,687 L 844,688 L 844,689 L 845,689 L 845,690 L 845,691 L 846,691 L 846,692 L 847,692 L 847,693 L 848,693 L 848,694 L 849,695 L 849,696 L 850,696 L 850,697 L 850,698 L 851,698 L 851,699 L 851,700 L 852,700 L 853,700 L 853,701 L 853,702 L 853,703 L 853,704 L 853,705 L 854,705 L 854,706 L 855,706 L 855,707 L 855,708 L 856,708 L 856,709 L 857,709 L 857,708 L 858,708 L 858,709 L 858,710 L 858,711 L 858,712 L 859,712 L 859,713 L 859,714 L 860,714 L 860,715 L 861,715 L 861,714 L 861,715 L 862,715 L 862,716 L 862,717 L 863,717 L 863,718 L 864,718 L 865,718 L 865,719 L 865,720 L 865,721 L 865,722 L 865,723 L 864,723 L 864,724 L 863,724 L 863,725 L 863,726 L 862,726 L 862,727 L 862,728 L 862,729 L 861,729 L 861,730 L 861,731 L 861,732 L 861,733 L 861,734 L 860,734 L 860,735 L 860,736 L 859,736 L 859,737 L 858,737 L 858,738 L 857,738 L 857,739 L 857,738 L 856,738 L 856,737 L 855,737 L 855,736 L 854,736 L 853,735 L 852,735 L 852,734 L 851,734 L 850,734 L 850,735 L 849,735 L 848,735 L 847,735 L 847,736 L 847,737 L 846,737 L 845,737 L 845,736 L 844,736 L 843,736 L 842,736 L 841,736 L 841,735 L 840,735 L 840,736 L 840,735 L 839,735 L 838,735 L 837,735 L 837,734 L 836,734 L 835,734 L 834,734 L 834,733 L 833,733 L 833,732 L 833,731 L 832,731 L 832,730 L 831,730 L 831,729 L 830,729 L 830,728 L 829,728 L 828,728 L 828,727 L 827,726 L 826,726 L 826,725 L 825,725 L 824,725 L 824,724 L 823,724 L 823,725 L 823,724 L 822,724 L 822,723 L 821,723 L 821,722 L 820,722 L 820,721 L 819,721 L 819,720 L 819,719 L 818,719 L 817,719 L 817,718 L 816,718 L 815,718 L 815,717 L 814,717 L 813,717 L 812,717 L 811,717 L 810,717 L 809,717 L 808,717 L 808,718 L 807,718 L 807,719 L 807,718 L 807,719 L 806,719 L 805,719 L 805,720 L 804,720 L 804,721 L 803,721 L 802,721 L 801,721 L 801,722 L 800,722 L 799,722 L 799,723 L 799,724 L 799,725 L 799,726 L 798,726 L 798,725 L 797,725 L 796,725 L 795,725 L 795,724 L 794,724 L 794,723 L 793,723 L 793,722 L 792,722 L 792,721 L 791,721 L 790,721 L 790,720 L 789,720 L 789,721 L 788,721 L 788,720 L 787,721 L 786,721 L 785,720 L 785,721 L 784,720 L 784,719 L 784,718 L 783,718 L 782,718 L 782,717 L 781,717 L 781,716 L 780,716 L 780,715 L 779,715 L 778,715 L 778,714 L 779,714 L 779,713 L 780,713 L 780,712 L 779,712 L 779,711 L 780,711 L 780,710 L 781,710 L 780,710 L 780,709 L 780,708 L 780,707 L 779,707 L 779,706 L 778,706 L 778,705 L 778,704 L 777,704 L 777,703 L 776,703 L 776,702 L 776,703 L 775,703 L 775,702 L 775,701 L 776,701 L 777,701 L 777,700 L 777,699 L 776,699 L 777,699 L 777,698 L 777,697 L 777,698 L 777,697 L 777,696 L 776,696 L 776,695 L 776,696 L 776,695 L 776,694 L 775,694 L 775,693 L 775,692 L 774,692 L 774,691 L 774,690 L 775,690 L 776,690 L 777,690 L 777,691 L 778,692 L 778,693 L 779,693 L 779,694 L 780,694 L 780,695 L 780,696 L 780,697 L 781,697 L 781,698 L 782,698 L 782,699 L 782,700 L 783,700 L 784,700 L 784,699 L 785,699 L 785,698 L 784,698 L 784,697 L 784,696 L 783,696 L 782,696 L 782,695 L 781,695 L 781,694 L 782,694 L 781,693 L 782,693 L 782,692 L 781,692 L 781,691 L 781,690 L 780,690 L 780,689 L 780,688 L 779,688 L 779,687 L 778,687 L 778,686 L 777,686 L 777,685 L 777,684 L 777,683 L 777,682 L 777,681 L 776,681 L 776,680 L 776,679 L 775,679 L 775,678 L 775,677 L 774,677 L 774,676 L 774,675 L 773,675 L 773,674 L 773,673 L 773,672 L 772,672 L 773,672 L 772,672 L 772,671 L 772,670 L 772,669 L 772,668 L 772,667 L 771,667 L 771,666 L 770,666 L 770,665 L 771,665 L 770,665 L 770,664 L 771,664 L 770,664 L 770,663 L 770,662 L 771,662 L 770,662 L 770,661 L 769,661 L 769,660 L 768,660 L 767,660 L 766,660 L 765,660 L 765,661 L 764,661 L 764,662 L 763,662 L 763,663 L 763,664 L 763,665 L 763,666 L 764,666 L 764,667 L 764,668 L 765,668 L 765,669 L 765,670 L 764,670 L 764,671 L 765,671 L 764,671 L 764,672 L 764,673 L 765,673 L 765,674 L 765,675 L 766,675 L 766,676 L 766,677 L 767,677 L 767,678 L 767,679 L 767,680 L 766,680 L 766,681 L 767,681 L 766,681 L 767,681 L 767,682 L 766,683 L 767,683 L 767,684 L 766,684 L 766,685 L 766,686 L 767,686 L 767,687 L 767,688 L 768,688 L 768,687 L 768,688 L 767,688 L 767,689 L 766,689 L 766,690 L 767,690 L 767,691 L 767,692 L 767,693 L 766,693 L 766,694 L 767,694 L 766,695 L 766,696 L 766,697 L 766,698 L 766,699 L 766,700 L 765,700 L 764,700 L 763,700 L 762,700 L 761,700 L 760,700 L 759,700 L 759,701 L 758,701 L 758,702 L 757,702 L 756,702 L 755,702 L 754,702 L 753,702 L 752,702 L 752,703 L 752,704 L 753,704 L 752,704 L 751,704 L 750,704 L 750,703 L 750,702 L 750,701 L 750,700 L 749,700 L 750,700 L 750,699 L 749,699 L 749,698 L 748,698 L 748,697 L 747,697 L 746,697 L 745,698 L 745,697 L 745,696 L 746,696 L 745,696 L 744,696 L 744,695 L 743,695 L 743,694 L 742,694 L 742,695 L 742,694 L 742,695 L 741,695 L 740,695 L 740,694 L 740,693 L 740,692 L 740,691 L 739,691 L 739,690 L 740,690 L 740,689 L 741,688 L 741,687 L 740,687 L 739,686 L 740,686 L 741,686 L 741,685 L 742,685 L 743,685 L 743,684 L 743,683 L 744,682 L 743,682 L 744,682 L 744,681 L 745,681 L 745,680 L 745,679 L 745,678 L 745,677 L 745,676 L 746,676 L 745,676 L 745,675 L 745,674 L 746,674 L 745,674 L 745,673 L 745,672 L 745,671 L 745,670 L 744,669 L 745,669 L 745,668 L 745,667 L 746,667 L 746,666 L 747,666 L 748,666 L 748,665 L 748,666 L 749,666 L 749,667 L 750,667 L 750,666 L 751,666 L 751,665 L 751,664 L 751,663 L 751,662 L 752,663 L 753,663 L 753,662 L 754,662 L 754,661 L 754,660 L 754,659 L 754,658 L 754,657 L 754,656 L 753,656 L 754,656 L 754,655 L 754,654 L 754,653 L 755,653 L 755,652 L 755,651 L 756,651 L 756,650 L 755,650 L 755,649 L 756,649 L 756,648 L 756,647 L 757,647 L 757,646 L 757,645 L 758,645 L 757,645 L 757,644 L 758,644 L 757,644 L 757,643 L 758,643 L 758,642 L 758,641 L 757,641 L 758,641 L 757,641 L 758,641 L 758,640 L 757,640 L 758,640 L 758,639 L 758,638 L 757,637 L 757,636 L 757,635 L 758,635 L 758,634 L 759,634 L 759,635 L 759,636 L 760,636 L 760,637 L 760,638 L 760,639 L 760,640 L 760,641 L 761,641 L 761,640 L 761,639 L 761,640 L 762,640 L 762,639 L 762,638 L 763,638 L 763,637 L 763,636 L 764,636 L 765,636 L 765,635 L 766,635 L 767,635 L 767,634 L 768,634 L 769,634 L 769,635 L 769,636 L 769,637 L 769,638 L 769,639 L 769,640 L 769,641 L 769,642 L 769,643 L 770,643 L 770,644 L 770,645 L 771,645 L 771,646 L 772,646 L 773,646 L 773,647 L 773,646 L 774,646 L 775,646 L 775,645 L 776,645 L 776,646 L 776,647 L 776,648 L 777,649 L 777,650 L 777,651 L 778,651 L 779,651 L 780,651 L 781,650 L 782,650 L 782,649 L 782,648 L 783,648 L 783,647 L 784,647 L 785,647 L 786,647 L 786,646 L 786,645 L 787,645 L 788,645 L 788,644 L 789,644 L 789,643 L 790,643 L 790,642 L 791,642 L 791,641 L 790,641 L 791,641 L 791,640 L 792,640 L 792,641 L 793,641 L 794,641 L 794,640 L 794,639 L 795,639 L 795,638 L 794,638 L 794,637 L 793,637 L 794,637 L 795,637 L 796,637 L 796,636 L 797,636 L 797,635 L 797,634 L 797,633 L 797,632 L 797,631 L 797,630 L 796,630 L 796,629 L 795,629 L 794,629 L 794,628 L 793,628 L 792,628 L 792,627 L 792,626 L 792,625 L 792,626 L 793,626 L 793,625 L 794,625 L 794,626 L 795,626 L 795,627 L 795,628 L 795,629 L 795,628 L 796,628 L 797,628 L 797,627 L 798,627 L 798,626 L 798,625 L 797,625 L 798,625 L 797,625 L 797,624 L 797,623 L 797,622 L 797,621 L 796,621 L 796,620 L 796,619 L 797,619 L 797,618 L 796,618 L 796,617 L 796,616 L 797,616 L 798,616 L 797,616 L 797,615 L 797,614 L 797,613 L 796,613 L 796,612 L 796,611 L 795,611 L 795,610 L 795,609 L 795,608 L 795,607 L 796,607 L 797,607 L 797,606 L 797,605 L 797,604 L 797,603 L 797,602 L 797,601 L 797,600 L 796,599 L 796,598 L 796,597 L 797,597 L 797,596 L 798,596 L 799,596 L 799,597 L 800,597 L 801,597 L 801,596 L 802,596 L 803,596 " />
</g>
</g>
</g>
<!-- QGIS extent for clipping, eg in Inkscape -->
<g id="qgisviewbox" inkscape:groupmode="layer" inkscape:label="qgisviewbox" stroke="rgb(255,0,0)" stroke-width="1" fill="none" >
<path d="M 0,1114 L 1594,1114 L 1594,0 L 0,0 L 0,1114 " />
</g></svg>