<?xml version="1.0" standalone="no"?>
<!DOCTYPE svg PUBLIC "-//W3C//DTD SVG 1.1//EN" "http://www.w3.org/Graphics/SVG/1.1/DTD/svg11.dtd">
<svg xmlns="http://www.w3.org/2000/svg" xmlns:inkscape="http://www.inkscape.org/namespaces/inkscape" xmlns:xlink="http://www.w3.org/1999/xlink" viewBox = "0 0 1447 886" version = "1.1">
<!-- svg generated using QGIS www.qgis.org -->
<g id="dytiki-ellada" inkscape:groupmode="layer" inkscape:label="dytiki-ellada">
<g stroke="none" fill="rgb(91,120,164)" stroke-linejoin="round" stroke-width="0.26">
<g id="dytiki-ellada_1" >
<path d="M 822,761 L 823,761 L 824,761 L 825,761 L 826,761 L 826,760 L 827,760 L 828,759 L 829,759 L 829,758 L 830,758 L 830,757 L 831,757 L 832,757 L 833,757 L 834,756 L 834,755 L 835,755 L 836,754 L 836,753 L 837,753 L 837,754 L 838,754 L 839,755 L 840,755 L 841,754 L 842,753 L 843,753 L 844,753 L 845,753 L 846,753 L 847,754 L 848,754 L 849,754 L 850,753 L 851,753 L 852,753 L 853,753 L 854,754 L 854,755 L 854,756 L 855,756 L 856,757 L 856,758 L 857,759 L 857,760 L 857,761 L 857,762 L 858,762 L 857,763 L 858,764 L 858,765 L 859,765 L 860,765 L 861,766 L 861,767 L 861,768 L 861,769 L 860,769 L 860,770 L 861,771 L 862,771 L 863,771 L 864,772 L 864,773 L 865,773 L 865,774 L 865,775 L 865,776 L 864,776 L 865,777 L 865,776 L 866,776 L 867,776 L 869,778 L 870,778 L 870,779 L 871,779 L 872,780 L 873,780 L 874,780 L 875,780 L 875,781 L 876,781 L 877,781 L 878,781 L 878,782 L 878,783 L 878,784 L 879,784 L 879,785 L 880,785 L 880,786 L 881,786 L 881,787 L 882,787 L 882,788 L 882,789 L 882,790 L 883,790 L 883,791 L 884,791 L 884,792 L 885,792 L 886,792 L 887,793 L 887,794 L 888,795 L 889,795 L 890,795 L 890,796 L 891,797 L 892,798 L 893,798 L 893,799 L 894,799 L 895,799 L 895,800 L 895,801 L 896,801 L 896,802 L 896,803 L 895,803 L 895,804 L 894,804 L 893,804 L 892,804 L 891,805 L 890,805 L 890,806 L 889,806 L 889,807 L 888,807 L 888,808 L 887,808 L 886,809 L 885,809 L 885,810 L 884,810 L 883,810 L 882,810 L 881,810 L 880,809 L 879,809 L 878,809 L 877,810 L 876,810 L 875,811 L 874,811 L 873,812 L 872,812 L 871,813 L 870,814 L 869,814 L 868,815 L 868,816 L 868,817 L 869,817 L 869,818 L 868,818 L 867,818 L 866,818 L 866,817 L 865,817 L 865,816 L 864,816 L 863,817 L 863,818 L 863,819 L 862,820 L 862,821 L 861,821 L 861,822 L 860,823 L 860,824 L 860,825 L 860,826 L 859,826 L 858,827 L 857,827 L 856,826 L 856,825 L 855,825 L 855,824 L 854,824 L 854,823 L 854,824 L 854,825 L 854,826 L 854,827 L 853,827 L 853,828 L 853,829 L 854,829 L 855,829 L 855,830 L 854,830 L 854,831 L 854,832 L 854,833 L 855,834 L 855,835 L 856,836 L 856,837 L 856,838 L 856,839 L 856,840 L 856,841 L 856,842 L 857,842 L 857,843 L 858,843 L 858,844 L 859,844 L 859,845 L 859,846 L 859,847 L 858,847 L 858,848 L 857,848 L 856,847 L 856,846 L 855,846 L 855,847 L 854,847 L 853,847 L 852,847 L 851,847 L 850,848 L 849,848 L 848,849 L 847,850 L 846,850 L 845,850 L 844,850 L 843,851 L 842,851 L 842,852 L 841,852 L 840,852 L 839,852 L 838,852 L 837,851 L 836,852 L 836,851 L 835,851 L 834,851 L 833,851 L 832,851 L 831,851 L 830,851 L 829,851 L 829,850 L 829,849 L 828,849 L 828,850 L 827,850 L 827,851 L 826,851 L 825,852 L 824,852 L 823,851 L 822,851 L 821,851 L 820,850 L 819,850 L 819,851 L 819,850 L 818,850 L 818,849 L 817,849 L 817,848 L 816,848 L 816,849 L 815,849 L 814,849 L 813,849 L 812,850 L 811,850 L 811,849 L 810,849 L 810,850 L 809,849 L 808,849 L 808,850 L 807,850 L 807,849 L 806,849 L 806,850 L 805,850 L 804,850 L 803,850 L 802,850 L 800,850 L 799,850 L 798,849 L 797,850 L 796,850 L 796,849 L 795,849 L 794,849 L 794,850 L 793,850 L 792,850 L 791,850 L 790,850 L 790,849 L 789,849 L 788,849 L 787,849 L 786,849 L 785,849 L 785,850 L 784,851 L 783,852 L 782,852 L 782,853 L 781,853 L 780,854 L 779,854 L 779,855 L 778,855 L 778,856 L 778,857 L 777,858 L 777,857 L 776,857 L 776,856 L 776,855 L 776,854 L 775,854 L 775,853 L 775,852 L 775,851 L 774,851 L 774,850 L 774,849 L 774,848 L 773,848 L 773,847 L 773,846 L 773,845 L 772,845 L 772,844 L 772,843 L 772,842 L 771,842 L 771,841 L 771,840 L 770,840 L 770,839 L 770,838 L 770,837 L 769,837 L 769,836 L 769,835 L 768,835 L 768,834 L 768,833 L 767,832 L 767,831 L 767,830 L 766,830 L 766,829 L 766,828 L 765,828 L 765,827 L 765,826 L 764,826 L 764,825 L 764,824 L 763,824 L 763,823 L 763,822 L 762,822 L 762,821 L 762,820 L 761,820 L 761,819 L 761,818 L 760,818 L 760,817 L 760,816 L 759,816 L 759,815 L 759,814 L 758,814 L 758,813 L 758,812 L 757,812 L 757,811 L 756,811 L 756,810 L 756,809 L 755,809 L 755,808 L 755,807 L 754,807 L 754,806 L 754,805 L 753,805 L 753,804 L 752,804 L 752,803 L 752,802 L 751,802 L 751,801 L 750,801 L 750,800 L 750,799 L 749,799 L 749,798 L 748,798 L 748,797 L 748,796 L 747,796 L 747,795 L 746,795 L 746,794 L 746,793 L 745,793 L 745,792 L 744,792 L 744,791 L 743,790 L 743,789 L 742,789 L 742,788 L 741,788 L 741,787 L 741,786 L 740,786 L 740,785 L 739,785 L 739,784 L 738,783 L 738,782 L 737,782 L 737,781 L 736,781 L 736,780 L 735,780 L 735,779 L 735,778 L 734,778 L 734,777 L 733,777 L 733,776 L 732,776 L 732,775 L 731,775 L 731,774 L 730,774 L 730,773 L 729,773 L 729,772 L 728,771 L 728,770 L 727,770 L 726,769 L 725,769 L 725,768 L 724,768 L 724,767 L 723,767 L 723,766 L 722,766 L 722,765 L 721,765 L 721,764 L 720,764 L 719,764 L 719,763 L 718,763 L 718,762 L 717,762 L 717,761 L 716,761 L 715,761 L 715,760 L 714,760 L 714,759 L 713,759 L 712,759 L 712,758 L 711,758 L 710,758 L 710,757 L 709,757 L 709,756 L 708,756 L 707,756 L 707,755 L 706,755 L 706,754 L 705,754 L 704,754 L 704,753 L 703,753 L 703,752 L 702,752 L 702,751 L 701,751 L 700,750 L 699,750 L 699,749 L 698,749 L 698,748 L 697,748 L 696,748 L 696,747 L 695,747 L 694,746 L 694,745 L 693,745 L 692,745 L 692,744 L 691,744 L 691,743 L 690,743 L 690,742 L 689,742 L 689,741 L 688,741 L 688,740 L 688,739 L 687,739 L 687,738 L 686,738 L 686,737 L 685,737 L 685,736 L 684,736 L 684,735 L 683,735 L 683,734 L 682,734 L 682,733 L 681,733 L 681,732 L 680,732 L 680,731 L 679,731 L 678,730 L 677,730 L 677,729 L 676,729 L 676,728 L 675,728 L 674,728 L 674,727 L 673,727 L 673,726 L 672,726 L 671,726 L 671,725 L 670,725 L 670,724 L 669,724 L 668,724 L 667,723 L 666,723 L 665,723 L 665,722 L 664,722 L 663,722 L 662,722 L 661,722 L 661,721 L 660,721 L 659,721 L 658,721 L 657,721 L 656,721 L 655,721 L 654,721 L 653,721 L 652,721 L 651,721 L 650,721 L 649,721 L 649,722 L 648,722 L 647,722 L 647,723 L 646,723 L 646,724 L 646,725 L 645,725 L 645,726 L 645,727 L 647,727 L 645,727 L 645,728 L 646,729 L 647,728 L 647,729 L 646,729 L 648,729 L 648,728 L 649,728 L 648,729 L 646,730 L 646,731 L 645,731 L 645,732 L 644,732 L 644,733 L 644,734 L 643,734 L 643,735 L 643,734 L 642,734 L 642,733 L 641,732 L 641,731 L 641,730 L 640,730 L 640,729 L 640,728 L 641,728 L 641,727 L 641,726 L 642,726 L 642,725 L 641,725 L 642,724 L 642,723 L 643,723 L 643,722 L 643,721 L 643,720 L 643,719 L 642,719 L 642,718 L 641,718 L 641,719 L 640,719 L 640,718 L 641,718 L 640,718 L 640,717 L 640,716 L 641,716 L 641,715 L 642,715 L 642,714 L 642,713 L 641,713 L 640,713 L 640,712 L 641,712 L 641,711 L 642,711 L 643,711 L 643,710 L 644,710 L 644,709 L 644,708 L 644,707 L 645,707 L 646,707 L 646,706 L 646,705 L 646,704 L 646,703 L 647,703 L 647,702 L 647,701 L 647,700 L 647,699 L 646,699 L 646,698 L 646,697 L 646,696 L 645,696 L 645,695 L 644,694 L 644,693 L 643,693 L 643,692 L 643,691 L 642,691 L 642,690 L 643,690 L 643,689 L 643,688 L 643,687 L 643,686 L 643,685 L 643,684 L 642,684 L 642,683 L 642,682 L 642,681 L 642,680 L 641,680 L 641,679 L 641,678 L 642,678 L 641,678 L 641,677 L 642,677 L 642,676 L 641,676 L 641,675 L 641,674 L 640,674 L 640,673 L 640,672 L 639,672 L 639,671 L 638,671 L 638,670 L 637,670 L 637,669 L 637,668 L 636,668 L 636,667 L 635,667 L 635,666 L 634,666 L 634,665 L 633,665 L 633,664 L 632,664 L 632,663 L 631,663 L 631,662 L 630,662 L 630,661 L 629,661 L 629,660 L 628,660 L 628,659 L 627,659 L 626,659 L 626,658 L 625,658 L 625,657 L 624,657 L 623,657 L 623,656 L 622,656 L 622,655 L 621,655 L 620,655 L 620,654 L 619,654 L 618,653 L 617,653 L 617,652 L 616,652 L 615,652 L 615,651 L 614,651 L 613,651 L 613,650 L 612,650 L 611,650 L 611,649 L 610,649 L 609,649 L 609,648 L 608,648 L 607,648 L 607,647 L 606,647 L 605,647 L 604,646 L 603,646 L 602,646 L 602,645 L 601,645 L 600,645 L 600,644 L 599,644 L 598,644 L 597,644 L 597,643 L 596,643 L 595,643 L 594,643 L 594,642 L 593,642 L 592,642 L 591,642 L 591,641 L 590,641 L 589,641 L 588,641 L 587,641 L 587,640 L 586,640 L 585,640 L 584,640 L 583,640 L 582,640 L 582,639 L 581,639 L 580,639 L 580,638 L 579,638 L 578,638 L 578,637 L 577,637 L 576,637 L 575,637 L 575,636 L 574,636 L 573,636 L 573,635 L 572,635 L 572,634 L 571,634 L 571,633 L 571,632 L 570,632 L 569,631 L 569,630 L 569,629 L 570,629 L 570,628 L 571,628 L 571,627 L 571,626 L 571,625 L 571,624 L 570,623 L 570,622 L 570,621 L 570,620 L 570,619 L 571,619 L 571,618 L 571,617 L 571,616 L 571,615 L 572,615 L 572,614 L 572,613 L 572,612 L 572,611 L 573,611 L 573,610 L 573,609 L 573,608 L 574,608 L 574,607 L 574,606 L 575,606 L 575,605 L 575,604 L 576,604 L 576,603 L 576,602 L 576,601 L 577,601 L 577,600 L 577,599 L 577,598 L 578,598 L 578,597 L 578,596 L 578,595 L 578,594 L 577,594 L 578,593 L 578,594 L 579,593 L 579,592 L 579,591 L 578,591 L 578,590 L 579,590 L 580,590 L 581,590 L 581,589 L 582,589 L 582,588 L 583,588 L 584,588 L 584,589 L 585,589 L 585,590 L 586,590 L 586,591 L 587,590 L 588,590 L 587,590 L 586,591 L 586,592 L 587,592 L 587,593 L 588,593 L 588,594 L 589,594 L 590,594 L 590,595 L 591,595 L 592,595 L 593,596 L 594,596 L 595,596 L 595,595 L 596,595 L 597,595 L 598,595 L 599,595 L 600,595 L 600,594 L 601,594 L 602,594 L 602,593 L 603,593 L 604,593 L 604,592 L 605,592 L 606,592 L 606,591 L 607,591 L 607,590 L 608,590 L 609,590 L 609,589 L 610,589 L 610,588 L 611,588 L 611,587 L 612,586 L 613,586 L 613,585 L 614,584 L 615,584 L 615,583 L 616,583 L 616,582 L 617,581 L 618,581 L 618,580 L 619,580 L 619,579 L 620,579 L 621,578 L 622,578 L 623,577 L 624,577 L 624,576 L 625,576 L 626,576 L 626,575 L 627,575 L 627,574 L 628,574 L 628,573 L 629,573 L 629,572 L 630,572 L 630,571 L 631,571 L 631,570 L 631,569 L 632,569 L 632,568 L 633,568 L 633,567 L 633,566 L 634,566 L 634,565 L 634,564 L 635,564 L 635,563 L 635,562 L 636,562 L 636,561 L 637,561 L 637,560 L 637,559 L 638,559 L 639,559 L 639,558 L 640,558 L 640,557 L 641,556 L 641,555 L 642,555 L 642,554 L 643,554 L 643,553 L 644,553 L 644,552 L 645,552 L 645,551 L 646,550 L 646,549 L 647,549 L 647,548 L 647,547 L 648,547 L 648,546 L 648,545 L 649,545 L 649,544 L 650,544 L 650,543 L 650,542 L 651,541 L 651,540 L 652,540 L 652,539 L 652,538 L 653,538 L 653,537 L 653,536 L 654,536 L 654,535 L 654,534 L 655,534 L 655,533 L 655,532 L 656,532 L 656,531 L 656,530 L 657,530 L 657,529 L 657,528 L 657,527 L 658,527 L 658,526 L 658,525 L 658,524 L 658,523 L 659,523 L 659,522 L 659,521 L 659,520 L 659,519 L 660,519 L 660,518 L 660,517 L 661,517 L 661,516 L 662,516 L 662,515 L 662,516 L 662,515 L 663,515 L 663,516 L 664,516 L 663,517 L 664,518 L 665,518 L 666,519 L 667,520 L 667,521 L 668,522 L 668,523 L 668,524 L 668,525 L 668,526 L 668,527 L 667,528 L 668,529 L 669,530 L 670,530 L 670,531 L 671,531 L 672,532 L 672,533 L 673,533 L 673,534 L 674,534 L 674,535 L 675,535 L 675,536 L 676,536 L 677,536 L 678,535 L 679,535 L 680,536 L 681,537 L 682,537 L 682,538 L 681,538 L 681,539 L 681,540 L 680,540 L 681,540 L 682,540 L 683,541 L 683,542 L 683,543 L 684,543 L 684,544 L 685,544 L 685,545 L 686,545 L 687,545 L 687,546 L 688,546 L 688,547 L 689,547 L 689,548 L 690,548 L 690,549 L 690,550 L 691,551 L 692,551 L 693,552 L 694,552 L 694,553 L 695,553 L 696,553 L 697,553 L 698,553 L 699,553 L 699,554 L 699,555 L 698,555 L 698,556 L 697,557 L 697,558 L 698,558 L 699,558 L 699,559 L 699,560 L 698,560 L 698,561 L 698,562 L 698,563 L 699,564 L 700,564 L 700,565 L 701,565 L 702,565 L 702,566 L 702,567 L 703,567 L 703,568 L 702,569 L 702,570 L 701,571 L 700,571 L 700,572 L 699,572 L 699,573 L 698,573 L 697,573 L 696,574 L 695,575 L 695,576 L 696,576 L 696,577 L 697,577 L 697,578 L 698,578 L 698,579 L 699,579 L 699,580 L 700,580 L 700,581 L 701,580 L 702,580 L 702,581 L 702,582 L 702,583 L 702,584 L 702,585 L 702,586 L 703,586 L 704,586 L 704,587 L 705,587 L 706,587 L 707,588 L 708,588 L 709,588 L 709,589 L 710,589 L 710,590 L 711,590 L 711,591 L 712,591 L 713,592 L 714,592 L 714,593 L 715,593 L 715,594 L 716,594 L 716,595 L 716,596 L 716,597 L 716,598 L 715,598 L 714,599 L 714,600 L 714,601 L 715,602 L 715,603 L 716,603 L 716,602 L 717,602 L 717,603 L 718,603 L 719,603 L 720,603 L 721,603 L 722,603 L 723,603 L 724,604 L 725,604 L 726,604 L 727,604 L 728,605 L 729,605 L 730,605 L 731,604 L 732,604 L 733,604 L 733,605 L 733,606 L 734,606 L 734,605 L 734,604 L 735,604 L 735,605 L 736,605 L 736,606 L 737,606 L 738,606 L 739,606 L 739,605 L 738,605 L 739,605 L 740,605 L 741,605 L 741,606 L 741,605 L 742,604 L 743,604 L 744,604 L 744,605 L 745,606 L 744,607 L 745,607 L 745,608 L 745,609 L 746,609 L 747,609 L 747,608 L 748,609 L 749,609 L 750,609 L 751,609 L 751,610 L 752,610 L 751,610 L 751,611 L 750,611 L 749,611 L 749,612 L 750,612 L 751,612 L 751,611 L 751,612 L 752,612 L 753,612 L 753,613 L 754,613 L 755,613 L 755,612 L 755,613 L 755,614 L 757,615 L 758,615 L 758,614 L 759,614 L 759,615 L 760,615 L 760,616 L 761,616 L 762,616 L 763,617 L 763,618 L 764,617 L 764,616 L 765,616 L 765,615 L 765,616 L 766,616 L 767,616 L 767,617 L 767,618 L 768,618 L 768,619 L 769,619 L 768,619 L 768,620 L 769,620 L 770,621 L 771,621 L 770,621 L 770,622 L 770,623 L 770,624 L 771,624 L 771,625 L 770,625 L 770,626 L 771,626 L 771,627 L 772,627 L 772,628 L 772,629 L 773,629 L 773,630 L 773,631 L 773,632 L 774,632 L 774,633 L 774,634 L 774,635 L 775,635 L 775,636 L 775,637 L 776,637 L 776,638 L 777,638 L 777,639 L 777,640 L 778,640 L 779,641 L 779,642 L 780,642 L 780,643 L 781,643 L 782,643 L 783,643 L 784,643 L 784,642 L 784,641 L 785,641 L 785,640 L 786,639 L 786,638 L 786,637 L 786,636 L 786,635 L 786,634 L 786,633 L 787,632 L 787,631 L 787,630 L 787,629 L 788,629 L 788,628 L 789,628 L 790,627 L 791,627 L 792,626 L 793,625 L 794,624 L 795,623 L 796,623 L 797,623 L 797,622 L 798,622 L 798,621 L 799,621 L 799,620 L 800,619 L 800,618 L 800,617 L 801,617 L 801,616 L 802,616 L 803,615 L 803,614 L 804,614 L 805,614 L 806,614 L 806,613 L 806,612 L 807,611 L 808,610 L 809,609 L 809,608 L 810,608 L 810,607 L 811,606 L 812,605 L 812,604 L 813,603 L 814,603 L 815,603 L 816,602 L 817,602 L 818,602 L 819,602 L 819,601 L 820,601 L 820,600 L 821,600 L 822,599 L 823,598 L 824,598 L 824,597 L 825,597 L 826,596 L 826,597 L 826,596 L 826,595 L 827,595 L 827,594 L 827,593 L 827,592 L 827,591 L 827,590 L 828,590 L 829,589 L 830,589 L 830,588 L 831,588 L 832,588 L 832,589 L 832,590 L 832,591 L 832,592 L 833,592 L 833,593 L 834,594 L 834,595 L 835,595 L 835,596 L 836,596 L 837,598 L 837,599 L 838,599 L 838,600 L 839,600 L 838,601 L 838,602 L 838,603 L 837,603 L 837,604 L 837,605 L 837,606 L 837,607 L 838,607 L 838,608 L 838,609 L 839,609 L 840,609 L 841,609 L 842,609 L 842,610 L 843,610 L 843,611 L 844,611 L 846,611 L 847,611 L 848,612 L 848,613 L 849,613 L 849,614 L 850,615 L 851,617 L 851,618 L 852,618 L 852,619 L 853,619 L 854,620 L 854,621 L 855,622 L 855,623 L 856,623 L 856,624 L 857,624 L 857,625 L 857,626 L 858,626 L 858,627 L 859,627 L 859,628 L 859,629 L 859,630 L 859,631 L 860,631 L 859,632 L 858,632 L 857,632 L 856,632 L 856,633 L 855,633 L 854,634 L 854,635 L 853,635 L 853,636 L 852,636 L 852,635 L 852,636 L 851,636 L 851,637 L 850,637 L 849,637 L 848,637 L 847,637 L 847,638 L 846,638 L 846,639 L 846,640 L 845,640 L 844,640 L 844,641 L 843,642 L 842,643 L 841,644 L 840,645 L 839,646 L 838,646 L 838,647 L 837,647 L 837,648 L 836,648 L 835,649 L 834,649 L 833,650 L 832,651 L 832,652 L 831,652 L 830,652 L 830,653 L 830,654 L 829,654 L 829,655 L 829,656 L 829,657 L 828,658 L 827,658 L 827,659 L 826,660 L 826,661 L 826,662 L 825,663 L 824,664 L 824,665 L 823,666 L 823,667 L 823,668 L 823,669 L 823,670 L 824,670 L 824,671 L 824,672 L 824,673 L 824,674 L 824,676 L 824,677 L 823,678 L 823,679 L 824,681 L 824,682 L 824,683 L 824,684 L 824,685 L 824,686 L 824,687 L 824,688 L 824,689 L 823,689 L 824,690 L 824,691 L 824,692 L 825,692 L 825,693 L 825,694 L 825,695 L 826,696 L 826,697 L 827,698 L 827,699 L 827,700 L 827,701 L 827,702 L 828,702 L 828,703 L 828,704 L 828,705 L 828,706 L 828,707 L 828,708 L 828,709 L 829,709 L 829,710 L 828,710 L 828,711 L 829,711 L 829,712 L 829,713 L 829,714 L 829,715 L 829,716 L 828,717 L 828,718 L 827,718 L 827,719 L 827,720 L 827,721 L 827,722 L 827,723 L 827,724 L 827,725 L 826,725 L 826,726 L 825,726 L 825,727 L 825,728 L 825,729 L 824,729 L 824,730 L 824,731 L 823,731 L 823,732 L 823,733 L 822,735 L 822,737 L 822,738 L 821,739 L 821,740 L 821,741 L 822,741 L 822,742 L 823,743 L 823,744 L 822,745 L 822,746 L 821,748 L 821,749 L 821,750 L 821,751 L 821,752 L 821,753 L 821,754 L 822,754 L 822,755 L 823,756 L 822,756 L 822,757 L 822,758 L 822,759 L 822,760 L 822,761 " />
<path d="M 576,589 L 577,589 L 576,589 L 576,588 L 576,589 " />
<path d="M 639,722 L 640,722 L 639,722 " />
<path d="M 643,695 L 643,694 L 643,695 " />
</g>
<g id="dytiki-ellada_2" >
<path d="M 676,465 L 677,465 L 677,464 L 678,464 L 679,464 L 679,465 L 680,465 L 680,466 L 680,467 L 681,467 L 681,468 L 681,469 L 682,469 L 682,470 L 682,471 L 683,471 L 683,472 L 684,472 L 684,473 L 684,474 L 685,474 L 685,475 L 686,475 L 687,475 L 688,475 L 688,476 L 689,476 L 690,476 L 691,476 L 692,476 L 692,475 L 693,475 L 693,474 L 694,474 L 694,473 L 695,473 L 696,473 L 696,472 L 697,472 L 698,472 L 699,472 L 700,472 L 700,473 L 701,473 L 701,472 L 702,472 L 703,472 L 703,473 L 703,474 L 704,474 L 705,474 L 706,474 L 706,475 L 707,475 L 707,476 L 707,477 L 708,477 L 708,478 L 709,478 L 709,479 L 710,479 L 711,479 L 711,480 L 712,480 L 712,481 L 713,481 L 714,481 L 715,481 L 715,482 L 716,482 L 716,483 L 717,483 L 717,484 L 718,484 L 718,485 L 719,485 L 720,486 L 721,486 L 721,487 L 722,488 L 723,488 L 723,489 L 724,489 L 724,490 L 725,490 L 726,490 L 726,491 L 727,491 L 728,491 L 728,492 L 729,492 L 729,493 L 730,493 L 731,493 L 731,494 L 732,494 L 733,493 L 734,493 L 735,493 L 735,492 L 736,492 L 737,492 L 737,493 L 738,493 L 739,493 L 739,494 L 740,494 L 741,494 L 741,495 L 742,495 L 743,495 L 744,495 L 745,495 L 746,495 L 747,495 L 747,496 L 748,496 L 749,496 L 749,497 L 750,497 L 751,497 L 751,498 L 752,498 L 753,498 L 753,499 L 754,499 L 755,499 L 756,499 L 756,500 L 757,500 L 758,500 L 758,499 L 759,499 L 760,499 L 760,498 L 761,498 L 762,498 L 763,498 L 763,497 L 763,496 L 764,496 L 765,496 L 765,495 L 766,495 L 766,494 L 767,494 L 768,494 L 769,494 L 770,494 L 771,494 L 772,494 L 772,493 L 773,493 L 774,493 L 774,492 L 775,492 L 776,491 L 776,490 L 777,490 L 778,490 L 779,490 L 780,490 L 781,490 L 781,489 L 782,489 L 783,488 L 783,487 L 784,487 L 784,486 L 784,485 L 784,484 L 785,484 L 785,483 L 784,483 L 785,483 L 785,482 L 785,481 L 786,480 L 787,480 L 788,480 L 789,480 L 789,479 L 789,478 L 790,478 L 790,477 L 791,476 L 792,476 L 792,475 L 792,474 L 793,474 L 794,473 L 795,473 L 795,472 L 796,472 L 797,472 L 797,471 L 798,470 L 798,469 L 799,469 L 799,468 L 799,467 L 800,467 L 800,466 L 801,465 L 801,464 L 801,463 L 801,462 L 802,462 L 802,461 L 802,460 L 802,459 L 803,459 L 803,458 L 803,457 L 803,456 L 803,455 L 803,454 L 803,453 L 804,453 L 804,452 L 805,452 L 806,452 L 806,451 L 806,450 L 806,451 L 807,451 L 807,450 L 807,449 L 807,448 L 808,448 L 808,447 L 808,446 L 808,445 L 808,444 L 808,443 L 808,442 L 808,441 L 809,441 L 809,440 L 809,439 L 810,439 L 810,438 L 811,438 L 811,437 L 811,436 L 812,436 L 813,436 L 813,437 L 814,437 L 814,436 L 815,436 L 815,435 L 816,435 L 817,434 L 817,433 L 818,433 L 818,432 L 819,432 L 819,431 L 819,430 L 820,430 L 820,429 L 821,428 L 821,427 L 822,426 L 823,426 L 823,425 L 824,424 L 824,423 L 824,422 L 825,423 L 826,423 L 826,424 L 827,424 L 828,424 L 828,423 L 829,423 L 830,423 L 831,423 L 831,422 L 832,422 L 833,422 L 833,421 L 834,421 L 835,421 L 836,421 L 836,420 L 837,420 L 837,419 L 837,420 L 838,420 L 839,420 L 839,421 L 840,421 L 841,421 L 841,420 L 842,420 L 842,419 L 843,419 L 843,418 L 844,418 L 844,417 L 845,417 L 845,416 L 846,416 L 846,415 L 847,415 L 847,414 L 848,414 L 848,413 L 848,412 L 849,412 L 849,411 L 850,411 L 850,410 L 849,410 L 850,410 L 850,411 L 851,411 L 852,411 L 853,411 L 854,411 L 855,411 L 855,412 L 856,412 L 857,412 L 857,413 L 858,413 L 859,413 L 859,414 L 859,415 L 860,415 L 860,416 L 859,416 L 860,416 L 860,417 L 861,417 L 862,417 L 863,417 L 864,417 L 864,418 L 865,417 L 866,417 L 866,416 L 866,417 L 867,417 L 868,417 L 868,418 L 869,418 L 870,418 L 871,418 L 872,418 L 872,417 L 873,417 L 873,418 L 874,418 L 875,418 L 876,418 L 876,417 L 876,418 L 877,418 L 877,417 L 878,417 L 878,416 L 879,416 L 880,416 L 880,417 L 881,417 L 882,417 L 883,417 L 883,416 L 884,416 L 885,416 L 886,416 L 886,417 L 887,417 L 888,417 L 889,417 L 890,417 L 890,418 L 891,418 L 892,418 L 892,419 L 893,419 L 894,419 L 894,420 L 895,420 L 896,421 L 897,421 L 897,422 L 898,422 L 899,422 L 899,423 L 899,424 L 900,424 L 901,424 L 901,425 L 902,425 L 902,424 L 903,424 L 904,424 L 905,424 L 906,424 L 907,424 L 908,424 L 909,424 L 910,424 L 910,425 L 911,425 L 912,425 L 912,426 L 912,427 L 913,427 L 913,428 L 913,429 L 914,429 L 914,430 L 914,431 L 914,432 L 914,433 L 914,434 L 914,435 L 914,436 L 914,437 L 915,437 L 915,438 L 916,438 L 917,438 L 918,438 L 918,439 L 919,439 L 919,440 L 919,441 L 920,441 L 920,442 L 921,442 L 922,442 L 922,441 L 923,441 L 923,440 L 924,441 L 925,441 L 926,441 L 926,442 L 927,442 L 927,443 L 928,443 L 929,443 L 929,444 L 930,444 L 930,445 L 930,446 L 931,447 L 931,448 L 932,448 L 932,449 L 932,450 L 932,451 L 932,452 L 933,452 L 934,452 L 935,452 L 934,452 L 935,452 L 936,452 L 936,451 L 937,451 L 938,451 L 938,450 L 939,450 L 940,450 L 940,449 L 941,449 L 942,449 L 942,448 L 943,448 L 943,447 L 944,447 L 944,446 L 944,447 L 945,447 L 945,448 L 946,448 L 946,449 L 947,449 L 948,449 L 948,450 L 948,451 L 949,451 L 950,451 L 950,452 L 951,452 L 951,453 L 952,453 L 952,454 L 953,455 L 953,456 L 953,457 L 954,457 L 954,458 L 954,459 L 955,459 L 955,460 L 956,460 L 956,461 L 957,461 L 957,462 L 957,463 L 958,463 L 958,464 L 959,464 L 959,465 L 959,466 L 958,466 L 958,467 L 958,468 L 958,469 L 959,469 L 960,469 L 960,470 L 960,471 L 961,471 L 961,472 L 962,472 L 963,472 L 963,473 L 964,473 L 964,474 L 965,474 L 965,475 L 966,475 L 966,476 L 967,476 L 967,477 L 968,477 L 968,478 L 969,478 L 970,478 L 970,477 L 971,477 L 971,476 L 972,476 L 973,476 L 974,476 L 974,477 L 975,477 L 976,477 L 976,478 L 977,478 L 977,479 L 978,479 L 978,480 L 979,480 L 979,481 L 980,481 L 980,482 L 981,483 L 981,484 L 981,485 L 981,486 L 982,486 L 982,487 L 983,487 L 984,487 L 984,488 L 985,488 L 986,488 L 987,488 L 988,488 L 989,488 L 990,488 L 990,487 L 991,487 L 992,487 L 993,487 L 993,488 L 993,489 L 994,489 L 994,490 L 995,490 L 996,490 L 996,489 L 997,489 L 997,490 L 998,490 L 999,490 L 999,491 L 1000,491 L 1001,491 L 1001,492 L 1002,492 L 1003,492 L 1004,492 L 1005,492 L 1006,492 L 1007,492 L 1007,491 L 1008,491 L 1009,491 L 1010,491 L 1011,491 L 1012,491 L 1013,491 L 1014,491 L 1015,491 L 1016,492 L 1017,492 L 1018,492 L 1019,492 L 1020,492 L 1021,492 L 1021,491 L 1022,491 L 1023,491 L 1023,490 L 1024,490 L 1025,490 L 1026,490 L 1027,490 L 1027,491 L 1028,491 L 1028,492 L 1028,493 L 1028,494 L 1029,494 L 1029,495 L 1029,496 L 1029,497 L 1030,497 L 1030,498 L 1030,499 L 1031,499 L 1031,500 L 1032,500 L 1032,501 L 1032,502 L 1033,502 L 1033,503 L 1034,503 L 1035,503 L 1036,503 L 1036,502 L 1037,502 L 1037,503 L 1038,503 L 1039,503 L 1039,504 L 1039,505 L 1040,505 L 1040,506 L 1040,507 L 1040,508 L 1041,508 L 1041,509 L 1042,509 L 1042,510 L 1042,511 L 1042,512 L 1041,513 L 1040,514 L 1040,515 L 1040,516 L 1040,518 L 1041,519 L 1041,520 L 1041,521 L 1041,522 L 1042,522 L 1042,523 L 1042,524 L 1042,525 L 1042,526 L 1042,527 L 1042,528 L 1041,529 L 1041,530 L 1041,531 L 1041,532 L 1041,533 L 1041,534 L 1041,535 L 1041,536 L 1040,537 L 1040,538 L 1039,539 L 1039,540 L 1039,541 L 1039,542 L 1039,544 L 1039,545 L 1039,546 L 1040,547 L 1039,548 L 1039,549 L 1039,550 L 1039,551 L 1039,552 L 1038,552 L 1037,553 L 1036,553 L 1035,553 L 1035,554 L 1034,555 L 1034,556 L 1034,557 L 1034,558 L 1035,558 L 1035,559 L 1035,560 L 1036,561 L 1036,562 L 1035,562 L 1035,563 L 1035,564 L 1034,564 L 1034,565 L 1033,565 L 1033,566 L 1032,566 L 1032,567 L 1031,567 L 1030,567 L 1030,568 L 1029,568 L 1029,569 L 1028,569 L 1027,569 L 1027,570 L 1026,571 L 1026,572 L 1025,573 L 1025,574 L 1024,574 L 1024,575 L 1023,575 L 1022,576 L 1022,577 L 1021,577 L 1021,578 L 1021,579 L 1020,579 L 1019,578 L 1018,577 L 1017,577 L 1017,576 L 1016,576 L 1015,577 L 1014,577 L 1013,577 L 1013,578 L 1012,578 L 1012,579 L 1013,579 L 1013,580 L 1013,581 L 1013,582 L 1013,583 L 1013,584 L 1013,585 L 1013,586 L 1012,586 L 1011,587 L 1010,588 L 1009,589 L 1008,589 L 1007,589 L 1006,589 L 1005,589 L 1004,590 L 1003,590 L 1003,591 L 1002,591 L 1002,592 L 1002,593 L 1001,593 L 1000,593 L 999,593 L 998,593 L 998,594 L 997,593 L 996,593 L 995,593 L 994,593 L 994,592 L 993,592 L 992,593 L 991,593 L 990,593 L 990,594 L 990,595 L 990,596 L 990,597 L 990,598 L 991,599 L 991,600 L 991,601 L 991,602 L 991,603 L 991,604 L 991,605 L 992,605 L 992,606 L 992,607 L 992,608 L 992,609 L 992,610 L 992,611 L 992,612 L 992,613 L 991,614 L 991,615 L 991,616 L 990,616 L 990,617 L 990,616 L 989,617 L 988,617 L 988,618 L 987,618 L 986,618 L 986,619 L 986,620 L 985,621 L 985,622 L 984,622 L 984,623 L 983,623 L 982,624 L 981,624 L 982,624 L 982,625 L 983,625 L 984,625 L 985,626 L 984,627 L 984,628 L 984,629 L 985,629 L 986,629 L 987,630 L 988,630 L 988,631 L 989,631 L 989,632 L 989,633 L 990,633 L 990,634 L 991,634 L 992,635 L 992,636 L 992,637 L 993,638 L 993,639 L 994,640 L 994,641 L 995,642 L 995,643 L 996,643 L 997,643 L 997,644 L 997,645 L 998,645 L 998,646 L 998,647 L 997,647 L 996,647 L 995,647 L 995,646 L 994,646 L 993,646 L 992,647 L 990,646 L 989,646 L 988,646 L 987,646 L 987,647 L 986,647 L 986,648 L 986,649 L 985,649 L 985,650 L 984,650 L 983,650 L 982,650 L 982,649 L 981,649 L 980,649 L 980,650 L 979,650 L 978,650 L 978,651 L 977,651 L 976,651 L 975,651 L 974,652 L 973,652 L 973,653 L 972,654 L 972,655 L 971,655 L 970,656 L 970,658 L 970,659 L 969,659 L 968,660 L 967,660 L 967,661 L 966,661 L 966,662 L 966,663 L 965,664 L 965,665 L 965,666 L 964,666 L 963,666 L 962,666 L 962,665 L 961,665 L 960,664 L 959,663 L 958,663 L 957,663 L 957,662 L 956,662 L 955,662 L 954,663 L 953,663 L 952,663 L 952,662 L 951,661 L 951,660 L 950,660 L 950,659 L 949,659 L 949,658 L 948,658 L 947,657 L 946,657 L 947,656 L 947,655 L 948,655 L 948,654 L 948,653 L 947,653 L 946,653 L 946,652 L 946,653 L 945,653 L 944,652 L 944,653 L 943,653 L 943,652 L 942,652 L 942,653 L 941,653 L 941,654 L 940,653 L 939,653 L 938,653 L 938,654 L 937,654 L 937,655 L 936,655 L 936,656 L 936,657 L 935,657 L 934,657 L 933,657 L 933,658 L 932,658 L 932,659 L 931,659 L 930,660 L 929,660 L 928,659 L 928,660 L 928,661 L 927,661 L 927,662 L 927,663 L 926,664 L 925,665 L 924,666 L 923,667 L 922,667 L 922,668 L 921,668 L 921,669 L 921,670 L 920,670 L 921,671 L 921,672 L 920,672 L 919,672 L 918,672 L 918,671 L 917,671 L 917,670 L 916,670 L 916,669 L 915,669 L 915,668 L 914,668 L 913,668 L 912,668 L 911,668 L 910,668 L 910,669 L 909,669 L 909,668 L 907,668 L 906,668 L 905,667 L 904,667 L 904,666 L 903,667 L 903,666 L 903,665 L 902,665 L 902,664 L 902,663 L 901,663 L 900,663 L 899,663 L 898,663 L 897,663 L 896,663 L 895,663 L 895,664 L 894,664 L 893,664 L 894,663 L 893,663 L 893,662 L 892,662 L 892,661 L 891,661 L 891,660 L 890,660 L 890,659 L 890,658 L 889,658 L 889,657 L 888,657 L 888,656 L 887,656 L 886,656 L 885,656 L 885,655 L 884,655 L 883,655 L 883,654 L 882,654 L 882,653 L 881,653 L 881,652 L 880,652 L 879,653 L 878,653 L 878,654 L 877,654 L 877,655 L 876,656 L 876,655 L 875,655 L 875,654 L 874,654 L 873,654 L 873,653 L 873,652 L 873,651 L 873,650 L 872,651 L 872,650 L 871,650 L 871,649 L 870,649 L 869,649 L 868,648 L 867,647 L 866,647 L 865,647 L 864,647 L 863,646 L 863,645 L 862,645 L 862,644 L 861,644 L 861,643 L 861,642 L 860,642 L 860,641 L 860,640 L 861,640 L 861,639 L 862,638 L 862,637 L 862,636 L 862,635 L 861,635 L 861,634 L 860,634 L 860,633 L 860,632 L 860,631 L 859,631 L 859,630 L 859,629 L 859,628 L 859,627 L 858,627 L 858,626 L 857,626 L 857,625 L 857,624 L 856,624 L 856,623 L 855,623 L 855,622 L 854,621 L 854,620 L 853,619 L 852,619 L 852,618 L 851,618 L 851,617 L 850,615 L 849,614 L 849,613 L 848,613 L 848,612 L 847,611 L 846,611 L 844,611 L 843,611 L 843,610 L 842,610 L 842,609 L 841,609 L 840,609 L 839,609 L 838,609 L 838,608 L 838,607 L 837,607 L 837,606 L 837,605 L 837,604 L 837,603 L 838,603 L 838,602 L 838,601 L 839,600 L 838,600 L 838,599 L 837,599 L 837,598 L 836,596 L 835,596 L 835,595 L 834,595 L 834,594 L 833,593 L 833,592 L 832,592 L 832,591 L 832,590 L 832,589 L 832,588 L 831,588 L 830,588 L 830,589 L 829,589 L 828,590 L 827,590 L 827,591 L 827,592 L 827,593 L 827,594 L 827,595 L 826,595 L 826,596 L 826,597 L 826,596 L 825,597 L 824,597 L 824,598 L 823,598 L 822,599 L 821,600 L 820,600 L 820,601 L 819,601 L 819,602 L 818,602 L 817,602 L 816,602 L 815,603 L 814,603 L 813,603 L 812,604 L 812,605 L 811,606 L 810,607 L 810,608 L 809,608 L 809,609 L 808,610 L 807,611 L 806,612 L 806,613 L 806,614 L 805,614 L 804,614 L 803,614 L 803,615 L 802,616 L 801,616 L 801,617 L 800,617 L 800,618 L 800,619 L 799,620 L 799,621 L 798,621 L 798,622 L 797,622 L 797,623 L 796,623 L 795,623 L 794,624 L 793,625 L 792,626 L 791,627 L 790,627 L 789,628 L 788,628 L 788,629 L 787,629 L 787,630 L 787,631 L 787,632 L 786,633 L 786,634 L 786,635 L 786,636 L 786,637 L 786,638 L 786,639 L 785,640 L 785,641 L 784,641 L 784,642 L 784,643 L 783,643 L 782,643 L 781,643 L 780,643 L 780,642 L 779,642 L 779,641 L 778,640 L 777,640 L 777,639 L 777,638 L 776,638 L 776,637 L 775,637 L 775,636 L 775,635 L 774,635 L 774,634 L 774,633 L 774,632 L 773,632 L 773,631 L 773,630 L 773,629 L 772,629 L 772,628 L 772,627 L 771,627 L 771,626 L 770,626 L 770,625 L 771,625 L 771,624 L 770,624 L 770,623 L 770,622 L 770,621 L 771,621 L 770,621 L 769,620 L 768,620 L 768,619 L 769,619 L 768,619 L 768,618 L 767,618 L 767,617 L 767,616 L 766,616 L 765,616 L 765,615 L 765,616 L 764,616 L 764,617 L 763,618 L 763,617 L 762,616 L 761,616 L 760,616 L 760,615 L 759,615 L 759,614 L 758,614 L 758,615 L 757,615 L 755,614 L 755,613 L 755,612 L 755,613 L 754,613 L 753,613 L 753,612 L 752,612 L 751,612 L 751,611 L 751,612 L 750,612 L 749,612 L 749,611 L 750,611 L 751,611 L 751,610 L 752,610 L 751,610 L 751,609 L 750,609 L 749,609 L 748,609 L 747,608 L 747,609 L 746,609 L 745,609 L 745,608 L 745,607 L 744,607 L 745,606 L 744,605 L 744,604 L 743,604 L 742,604 L 741,605 L 741,606 L 741,605 L 740,605 L 739,605 L 738,605 L 739,605 L 739,606 L 738,606 L 737,606 L 736,606 L 736,605 L 735,605 L 735,604 L 734,604 L 734,605 L 734,606 L 733,606 L 733,605 L 733,604 L 732,604 L 731,604 L 730,605 L 729,605 L 728,605 L 727,604 L 726,604 L 725,604 L 724,604 L 723,603 L 722,603 L 721,603 L 720,603 L 719,603 L 718,603 L 717,603 L 717,602 L 716,602 L 716,603 L 715,603 L 715,602 L 714,601 L 714,600 L 714,599 L 715,598 L 716,598 L 716,597 L 716,596 L 716,595 L 716,594 L 715,594 L 715,593 L 714,593 L 714,592 L 713,592 L 712,591 L 711,591 L 711,590 L 710,590 L 710,589 L 709,589 L 709,588 L 708,588 L 707,588 L 706,587 L 705,587 L 704,587 L 704,586 L 703,586 L 702,586 L 702,585 L 702,584 L 702,583 L 702,582 L 702,581 L 702,580 L 701,580 L 700,581 L 700,580 L 699,580 L 699,579 L 698,579 L 698,578 L 697,578 L 697,577 L 696,577 L 696,576 L 695,576 L 695,575 L 696,574 L 697,573 L 698,573 L 699,573 L 699,572 L 700,572 L 700,571 L 701,571 L 702,570 L 702,569 L 703,568 L 703,567 L 702,567 L 702,566 L 702,565 L 701,565 L 700,565 L 700,564 L 699,564 L 698,563 L 698,562 L 698,561 L 698,560 L 699,560 L 699,559 L 699,558 L 698,558 L 697,558 L 697,557 L 698,556 L 698,555 L 699,555 L 699,554 L 699,553 L 698,553 L 697,553 L 696,553 L 695,553 L 694,553 L 694,552 L 693,552 L 692,551 L 691,551 L 690,550 L 690,549 L 690,548 L 689,548 L 689,547 L 688,547 L 688,546 L 687,546 L 687,545 L 686,545 L 685,545 L 685,544 L 684,544 L 684,543 L 683,543 L 683,542 L 683,541 L 682,540 L 681,540 L 680,540 L 681,540 L 681,539 L 681,538 L 682,538 L 682,537 L 681,537 L 680,536 L 679,535 L 678,535 L 677,536 L 676,536 L 675,536 L 675,535 L 674,535 L 674,534 L 673,534 L 673,533 L 672,533 L 672,532 L 671,531 L 670,531 L 670,530 L 669,530 L 668,529 L 667,528 L 668,527 L 668,526 L 668,525 L 668,524 L 668,523 L 668,522 L 667,521 L 667,520 L 666,519 L 665,518 L 664,518 L 663,517 L 664,516 L 665,516 L 665,515 L 666,515 L 666,514 L 666,513 L 667,513 L 667,512 L 668,512 L 668,511 L 668,510 L 668,509 L 669,509 L 669,508 L 669,507 L 670,507 L 670,506 L 670,505 L 670,504 L 670,503 L 670,502 L 670,501 L 670,500 L 671,500 L 671,499 L 671,498 L 671,497 L 671,496 L 671,495 L 670,495 L 670,494 L 670,493 L 670,492 L 670,491 L 670,490 L 670,489 L 670,488 L 669,488 L 669,487 L 669,486 L 669,485 L 669,484 L 670,484 L 670,483 L 670,482 L 670,481 L 670,480 L 669,480 L 670,480 L 670,479 L 671,479 L 671,478 L 671,477 L 671,476 L 672,475 L 672,474 L 671,474 L 672,473 L 673,473 L 673,472 L 674,472 L 674,471 L 673,471 L 673,470 L 673,469 L 673,468 L 673,467 L 672,467 L 672,466 L 672,465 L 672,464 L 673,463 L 673,462 L 673,463 L 674,463 L 674,464 L 675,464 L 675,465 L 676,465 " />
</g>
<g id="dytiki-ellada_3" >
<path d="M 727,428 L 726,428 L 726,429 L 726,428 L 727,428 L 726,428 L 726,427 L 726,426 L 726,427 L 727,427 L 727,428 " />
<path d="M 714,425 L 715,425 L 715,426 L 716,426 L 715,426 L 714,425 " />
<path d="M 631,420 L 630,420 L 631,420 " />
<path d="M 633,420 L 632,419 L 633,419 L 633,420 " />
<path d="M 713,419 L 712,419 L 713,419 " />
<path d="M 711,418 L 711,419 L 711,418 L 711,419 L 710,419 L 710,418 L 711,418 " />
<path d="M 637,417 L 637,418 L 636,418 L 636,417 L 637,417 " />
<path d="M 627,418 L 626,418 L 627,418 L 627,417 L 627,418 " />
<path d="M 637,417 L 636,417 L 635,417 L 634,417 L 634,418 L 635,417 L 635,418 L 635,417 L 635,418 L 634,418 L 635,418 L 636,418 L 636,417 L 636,418 L 635,418 L 634,418 L 634,419 L 633,419 L 633,418 L 634,418 L 633,418 L 634,418 L 634,417 L 635,417 L 636,417 L 637,417 " />
<path d="M 619,417 L 618,417 L 619,417 " />
<path d="M 622,418 L 621,418 L 621,417 L 622,417 L 622,418 " />
<path d="M 619,417 L 619,416 L 619,417 " />
<path d="M 638,417 L 639,417 L 640,417 L 640,418 L 641,418 L 641,417 L 641,418 L 642,418 L 642,417 L 643,417 L 643,418 L 642,418 L 641,418 L 640,418 L 639,418 L 638,418 L 638,419 L 637,419 L 636,419 L 635,419 L 635,420 L 634,420 L 633,420 L 633,419 L 633,420 L 634,420 L 634,419 L 635,419 L 636,419 L 636,418 L 637,418 L 638,418 L 639,418 L 640,418 L 640,417 L 639,417 L 638,417 L 637,417 L 638,417 L 637,417 L 637,416 L 638,416 L 638,417 " />
<path d="M 626,416 L 627,416 L 627,417 L 626,417 L 626,418 L 627,418 L 626,419 L 626,418 L 626,417 L 625,417 L 625,416 L 626,416 " />
<path d="M 654,419 L 654,420 L 653,421 L 652,421 L 652,422 L 651,422 L 650,422 L 650,421 L 649,421 L 649,420 L 648,420 L 647,420 L 647,419 L 646,419 L 646,418 L 647,419 L 648,419 L 648,420 L 649,420 L 650,420 L 651,420 L 652,420 L 653,420 L 653,419 L 654,419 L 654,418 L 655,418 L 655,417 L 655,416 L 656,416 L 656,417 L 656,418 L 655,418 L 655,419 L 654,419 " />
<path d="M 622,416 L 623,416 L 623,417 L 622,417 L 621,417 L 621,416 L 622,416 " />
<path d="M 591,417 L 591,416 L 591,417 " />
<path d="M 636,416 L 637,416 L 636,416 L 635,416 L 636,416 " />
<path d="M 656,416 L 655,416 L 656,416 " />
<path d="M 632,415 L 632,416 L 632,415 " />
<path d="M 625,415 L 625,416 L 625,415 L 624,415 L 625,415 " />
<path d="M 627,415 L 628,415 L 627,415 " />
<path d="M 621,415 L 620,415 L 620,414 L 621,414 L 621,415 " />
<path d="M 635,415 L 635,416 L 635,415 L 634,415 L 634,416 L 633,416 L 633,415 L 634,415 L 635,415 L 635,414 L 635,415 " />
<path d="M 621,414 L 622,414 L 621,414 " />
<path d="M 600,414 L 599,414 L 599,415 L 598,415 L 599,415 L 599,414 L 600,414 " />
<path d="M 621,414 L 620,414 L 620,413 L 621,413 L 621,414 " />
<path d="M 634,414 L 634,413 L 634,414 " />
<path d="M 626,415 L 626,414 L 625,414 L 625,413 L 626,413 L 626,414 L 626,415 " />
<path d="M 675,414 L 674,415 L 674,414 L 673,414 L 674,414 L 675,414 L 676,414 L 676,413 L 676,414 L 675,414 " />
<path d="M 627,414 L 627,413 L 627,414 " />
<path d="M 635,413 L 634,413 L 635,413 " />
<path d="M 672,413 L 671,413 L 670,413 L 671,413 L 672,413 " />
<path d="M 601,414 L 600,414 L 600,413 L 601,413 L 601,414 " />
<path d="M 629,413 L 628,413 L 628,412 L 629,412 L 629,413 " />
<path d="M 706,412 L 707,412 L 706,412 " />
<path d="M 631,412 L 632,412 L 633,412 L 633,413 L 632,413 L 631,413 L 631,414 L 630,414 L 630,413 L 631,413 L 630,413 L 629,413 L 629,412 L 630,412 L 631,412 " />
<path d="M 664,411 L 664,412 L 665,412 L 666,412 L 666,413 L 667,413 L 667,412 L 667,413 L 666,413 L 665,413 L 664,413 L 664,412 L 663,412 L 662,412 L 663,412 L 663,411 L 664,411 " />
<path d="M 664,411 L 665,411 L 664,411 " />
<path d="M 635,411 L 634,411 L 634,412 L 633,412 L 633,411 L 634,411 L 635,411 " />
<path d="M 626,411 L 625,411 L 626,411 " />
<path d="M 646,410 L 646,411 L 647,411 L 647,412 L 648,412 L 647,412 L 647,411 L 646,411 L 647,411 L 646,412 L 646,411 L 645,411 L 645,410 L 646,410 " />
<path d="M 698,410 L 698,411 L 697,411 L 697,410 L 698,410 " />
<path d="M 626,410 L 625,410 L 626,410 " />
<path d="M 635,411 L 635,410 L 635,411 " />
<path d="M 683,410 L 682,410 L 683,410 " />
<path d="M 655,409 L 655,410 L 655,409 " />
<path d="M 657,409 L 656,409 L 657,409 " />
<path d="M 681,409 L 682,409 L 681,409 " />
<path d="M 636,409 L 635,409 L 636,409 " />
<path d="M 713,410 L 712,410 L 712,409 L 712,410 L 713,410 " />
<path d="M 628,409 L 628,408 L 628,409 " />
<path d="M 647,409 L 647,410 L 646,410 L 646,409 L 646,408 L 647,409 " />
<path d="M 631,409 L 630,409 L 631,409 L 631,408 L 631,409 " />
<path d="M 627,409 L 627,408 L 627,409 L 628,409 L 627,409 " />
<path d="M 639,408 L 639,409 L 639,408 L 638,408 L 639,408 " />
<path d="M 636,408 L 635,408 L 636,408 " />
<path d="M 640,409 L 639,409 L 639,410 L 638,410 L 638,411 L 637,412 L 636,412 L 637,412 L 637,411 L 638,411 L 638,410 L 639,410 L 639,409 L 640,409 L 639,409 L 639,408 L 640,408 L 640,409 " />
<path d="M 635,408 L 635,409 L 634,409 L 633,409 L 633,410 L 632,410 L 632,409 L 633,409 L 633,408 L 634,408 L 635,408 " />
<path d="M 645,408 L 645,409 L 645,408 L 644,408 L 645,408 " />
<path d="M 709,408 L 709,407 L 709,408 " />
<path d="M 638,408 L 637,408 L 637,407 L 638,407 L 638,408 " />
<path d="M 702,409 L 702,408 L 702,407 L 702,408 L 702,409 " />
<path d="M 710,407 L 710,408 L 710,407 L 709,407 L 710,407 " />
<path d="M 639,408 L 639,407 L 639,408 " />
<path d="M 710,408 L 710,407 L 711,407 L 711,408 L 710,408 " />
<path d="M 576,407 L 576,408 L 576,407 L 575,407 L 576,407 " />
<path d="M 641,407 L 642,407 L 643,407 L 642,407 L 641,407 L 640,407 L 641,407 " />
<path d="M 646,407 L 647,408 L 646,408 L 646,407 L 645,407 L 645,406 L 646,406 L 646,407 " />
<path d="M 709,407 L 707,408 L 706,409 L 705,409 L 704,409 L 703,409 L 704,409 L 705,408 L 706,408 L 707,408 L 707,407 L 708,407 L 708,406 L 709,407 " />
<path d="M 639,407 L 639,406 L 640,406 L 640,407 L 639,407 L 638,407 L 638,406 L 639,406 L 639,407 " />
<path d="M 574,406 L 573,406 L 574,406 " />
<path d="M 645,406 L 645,405 L 646,406 L 645,406 " />
<path d="M 712,407 L 715,411 L 716,411 L 716,412 L 716,424 L 716,425 L 715,425 L 714,425 L 713,424 L 712,424 L 712,423 L 712,422 L 711,422 L 711,421 L 710,421 L 710,420 L 709,420 L 709,419 L 708,419 L 708,418 L 707,418 L 706,418 L 706,417 L 705,417 L 705,416 L 704,416 L 704,415 L 703,415 L 702,414 L 701,414 L 700,414 L 700,413 L 699,413 L 698,413 L 697,413 L 696,413 L 695,413 L 695,414 L 695,413 L 694,413 L 693,413 L 692,413 L 691,413 L 691,412 L 691,411 L 692,411 L 692,410 L 691,410 L 692,410 L 691,410 L 691,409 L 692,409 L 692,411 L 693,411 L 693,410 L 692,409 L 693,410 L 694,410 L 694,409 L 695,409 L 694,409 L 695,409 L 695,410 L 696,410 L 697,410 L 697,411 L 697,412 L 696,412 L 695,413 L 696,413 L 697,413 L 697,412 L 698,412 L 699,412 L 699,411 L 698,411 L 699,411 L 699,410 L 700,410 L 701,410 L 701,411 L 702,411 L 702,412 L 701,412 L 701,413 L 702,413 L 702,412 L 703,412 L 704,412 L 704,413 L 705,413 L 705,414 L 706,415 L 705,415 L 705,416 L 706,416 L 706,415 L 706,416 L 707,416 L 708,416 L 708,415 L 708,416 L 709,416 L 709,417 L 710,417 L 710,418 L 711,418 L 710,418 L 710,419 L 711,419 L 711,420 L 712,420 L 713,420 L 713,421 L 714,421 L 714,422 L 715,422 L 715,423 L 716,423 L 716,422 L 715,422 L 715,421 L 716,421 L 716,420 L 716,419 L 715,419 L 715,418 L 715,417 L 715,416 L 715,415 L 715,414 L 715,413 L 715,412 L 714,412 L 714,411 L 715,411 L 714,411 L 714,410 L 714,409 L 713,409 L 713,408 L 712,408 L 712,407 L 711,407 L 711,406 L 711,405 L 712,407 " />
<path d="M 646,405 L 646,404 L 646,405 " />
<path d="M 703,405 L 703,404 L 703,405 " />
<path d="M 637,405 L 637,404 L 638,404 L 638,405 L 637,405 " />
<path d="M 640,403 L 641,403 L 641,404 L 641,405 L 640,405 L 639,405 L 639,404 L 638,404 L 638,403 L 639,403 L 640,403 " />
<path d="M 645,403 L 645,404 L 645,405 L 644,405 L 643,405 L 642,405 L 641,405 L 640,405 L 641,405 L 642,405 L 642,404 L 642,405 L 643,405 L 644,404 L 644,403 L 645,403 " />
<path d="M 638,402 L 639,402 L 639,403 L 638,403 L 637,403 L 637,402 L 638,402 " />
<path d="M 645,402 L 645,401 L 645,402 " />
<path d="M 648,401 L 649,401 L 649,402 L 648,402 L 649,402 L 648,402 L 648,401 " />
<path d="M 647,402 L 647,403 L 647,404 L 646,404 L 646,403 L 646,402 L 645,402 L 645,401 L 646,401 L 646,402 L 647,402 " />
<path d="M 701,401 L 701,400 L 701,401 " />
<path d="M 652,401 L 652,400 L 652,401 " />
<path d="M 652,401 L 652,400 L 651,400 L 652,400 L 652,401 " />
<path d="M 644,399 L 644,400 L 643,400 L 643,399 L 644,399 " />
<path d="M 651,400 L 651,399 L 652,399 L 652,400 L 651,400 " />
<path d="M 700,399 L 701,399 L 701,400 L 700,400 L 700,399 L 700,400 L 699,400 L 699,399 L 700,399 L 700,398 L 700,399 " />
<path d="M 645,400 L 644,400 L 644,399 L 644,398 L 645,398 L 645,399 L 645,400 " />
<path d="M 703,398 L 702,398 L 702,397 L 703,397 L 703,398 " />
<path d="M 701,397 L 700,397 L 701,398 L 700,398 L 700,397 L 700,396 L 701,396 L 701,397 " />
<path d="M 702,396 L 702,397 L 702,396 " />
<path d="M 637,396 L 638,396 L 639,396 L 639,397 L 640,397 L 641,397 L 642,397 L 643,397 L 643,398 L 644,398 L 644,397 L 644,398 L 643,398 L 643,399 L 642,399 L 642,398 L 641,398 L 640,398 L 639,398 L 639,399 L 638,399 L 637,399 L 638,399 L 639,399 L 640,399 L 639,400 L 639,401 L 638,401 L 637,401 L 637,400 L 636,400 L 636,399 L 635,399 L 635,398 L 635,397 L 634,397 L 634,396 L 635,396 L 635,395 L 636,395 L 637,395 L 637,396 " />
<path d="M 662,394 L 662,395 L 662,394 " />
<path d="M 652,394 L 651,394 L 652,394 L 652,393 L 653,393 L 653,394 L 652,394 " />
<path d="M 659,393 L 660,393 L 659,393 " />
<path d="M 653,391 L 654,391 L 654,390 L 655,390 L 656,390 L 655,390 L 656,390 L 655,390 L 655,391 L 656,391 L 656,392 L 657,392 L 657,393 L 656,393 L 656,392 L 655,392 L 655,393 L 655,392 L 654,392 L 654,393 L 653,393 L 652,393 L 652,392 L 651,392 L 651,391 L 651,392 L 650,391 L 651,391 L 650,391 L 650,390 L 651,390 L 651,389 L 652,389 L 652,390 L 653,390 L 653,391 " />
<path d="M 664,389 L 663,389 L 663,388 L 664,388 L 664,389 " />
<path d="M 685,388 L 686,388 L 685,388 " />
<path d="M 654,388 L 653,388 L 653,389 L 652,389 L 652,388 L 651,388 L 652,388 L 653,388 L 653,387 L 653,388 L 654,388 L 654,387 L 654,388 " />
<path d="M 581,387 L 580,387 L 581,387 " />
<path d="M 690,387 L 688,390 L 688,389 L 688,388 L 689,388 L 689,387 L 690,387 " />
<path d="M 665,387 L 664,387 L 664,388 L 664,387 L 665,387 " />
<path d="M 664,386 L 664,387 L 663,387 L 663,386 L 664,386 " />
<path d="M 688,387 L 687,387 L 686,387 L 686,386 L 687,386 L 687,385 L 688,386 L 688,387 " />
<path d="M 687,384 L 687,383 L 687,384 " />
<path d="M 584,379 L 584,378 L 584,377 L 585,377 L 584,377 L 584,378 L 584,379 " />
<path d="M 672,377 L 671,377 L 672,377 " />
<path d="M 668,371 L 669,371 L 670,371 L 670,372 L 670,373 L 669,373 L 669,372 L 668,372 L 667,372 L 667,371 L 668,371 " />
<path d="M 669,369 L 669,370 L 668,370 L 667,370 L 667,371 L 667,370 L 668,369 L 669,369 " />
<path d="M 580,368 L 579,368 L 580,368 " />
<path d="M 669,368 L 668,368 L 669,368 L 669,369 L 668,369 L 668,368 L 669,368 " />
<path d="M 668,368 L 667,368 L 668,368 " />
<path d="M 579,367 L 580,367 L 580,368 L 579,368 L 579,367 " />
<path d="M 668,368 L 667,368 L 667,367 L 668,367 L 668,368 " />
<path d="M 671,370 L 670,367 L 671,367 L 671,368 L 671,369 L 671,370 " />
<path d="M 670,367 L 670,368 L 670,367 L 669,367 L 670,367 " />
<path d="M 579,367 L 579,366 L 579,367 " />
<path d="M 580,366 L 579,366 L 580,366 " />
<path d="M 667,366 L 667,365 L 667,366 " />
<path d="M 666,366 L 666,365 L 666,366 L 665,366 L 665,365 L 666,365 L 666,366 " />
<path d="M 580,365 L 581,365 L 580,365 L 580,366 L 580,365 L 579,365 L 580,365 " />
<path d="M 843,245 L 843,244 L 843,243 L 842,242 L 843,242 L 842,242 L 843,241 L 843,240 L 844,240 L 844,239 L 845,238 L 846,237 L 846,236 L 846,235 L 846,234 L 846,233 L 847,232 L 847,231 L 847,230 L 848,229 L 847,228 L 846,228 L 846,227 L 847,226 L 847,225 L 848,225 L 849,225 L 850,225 L 850,224 L 850,225 L 851,225 L 852,225 L 853,225 L 853,226 L 854,226 L 855,226 L 856,226 L 856,227 L 857,227 L 858,227 L 859,227 L 859,226 L 860,226 L 860,225 L 861,225 L 862,225 L 863,225 L 864,225 L 864,226 L 864,227 L 865,228 L 866,228 L 866,229 L 867,229 L 867,230 L 868,230 L 869,230 L 870,230 L 870,231 L 871,231 L 872,232 L 872,231 L 873,231 L 874,230 L 875,230 L 875,229 L 876,229 L 877,229 L 877,230 L 877,229 L 878,229 L 879,229 L 879,228 L 880,228 L 880,227 L 881,226 L 882,226 L 883,225 L 885,225 L 886,225 L 887,224 L 888,224 L 889,223 L 889,222 L 889,221 L 889,220 L 889,219 L 889,218 L 889,217 L 889,216 L 889,215 L 890,215 L 890,214 L 889,213 L 889,212 L 889,211 L 889,210 L 889,209 L 889,208 L 889,207 L 889,206 L 890,204 L 891,205 L 892,206 L 893,206 L 894,207 L 895,207 L 896,208 L 897,209 L 897,210 L 898,210 L 899,211 L 900,211 L 901,211 L 901,210 L 902,210 L 903,210 L 904,210 L 904,209 L 905,209 L 905,208 L 906,208 L 906,209 L 907,209 L 908,209 L 908,210 L 908,211 L 909,211 L 909,212 L 910,213 L 910,214 L 911,214 L 911,215 L 912,215 L 912,216 L 912,217 L 913,217 L 913,218 L 913,219 L 914,220 L 915,221 L 916,222 L 916,223 L 917,224 L 917,225 L 918,225 L 918,226 L 918,227 L 918,228 L 918,229 L 918,230 L 919,231 L 918,231 L 918,232 L 917,232 L 916,233 L 915,233 L 914,233 L 913,233 L 912,234 L 911,234 L 911,235 L 910,235 L 910,236 L 909,236 L 909,237 L 908,237 L 907,238 L 906,238 L 906,239 L 905,239 L 906,240 L 906,241 L 906,242 L 906,243 L 906,244 L 906,245 L 907,245 L 907,246 L 906,246 L 905,246 L 904,246 L 903,247 L 902,247 L 903,247 L 903,248 L 904,248 L 905,249 L 905,250 L 905,251 L 906,251 L 907,251 L 908,252 L 908,253 L 907,253 L 906,253 L 905,254 L 905,255 L 904,255 L 903,255 L 903,256 L 902,257 L 902,258 L 903,259 L 904,260 L 904,261 L 904,263 L 904,264 L 904,265 L 904,266 L 903,266 L 903,267 L 904,267 L 904,268 L 903,268 L 903,269 L 904,269 L 904,270 L 905,271 L 906,271 L 906,272 L 907,272 L 908,272 L 908,273 L 909,273 L 909,274 L 909,275 L 908,276 L 909,276 L 909,277 L 909,278 L 910,278 L 910,279 L 909,279 L 908,279 L 907,279 L 907,278 L 906,278 L 905,279 L 904,279 L 904,280 L 903,280 L 902,280 L 901,280 L 900,280 L 899,281 L 899,282 L 898,282 L 898,283 L 897,284 L 897,285 L 896,285 L 896,286 L 896,287 L 896,288 L 896,289 L 897,289 L 898,289 L 899,290 L 900,290 L 901,290 L 902,289 L 903,290 L 903,291 L 904,291 L 905,291 L 906,292 L 907,293 L 908,293 L 908,294 L 909,294 L 910,295 L 911,295 L 912,295 L 913,295 L 913,296 L 913,297 L 912,297 L 912,298 L 911,299 L 911,300 L 910,300 L 910,301 L 910,302 L 909,302 L 909,303 L 909,304 L 909,305 L 909,306 L 909,307 L 909,308 L 909,309 L 908,309 L 907,309 L 907,310 L 906,310 L 905,310 L 905,311 L 905,312 L 905,313 L 905,314 L 905,315 L 905,316 L 905,317 L 905,318 L 905,319 L 904,320 L 904,321 L 903,321 L 903,322 L 904,322 L 904,323 L 904,324 L 905,324 L 905,325 L 905,326 L 905,327 L 905,328 L 906,328 L 906,329 L 907,329 L 907,330 L 907,331 L 907,332 L 907,333 L 906,333 L 905,332 L 905,333 L 905,332 L 904,332 L 903,333 L 902,333 L 901,333 L 901,334 L 900,334 L 900,335 L 899,335 L 898,335 L 897,335 L 897,336 L 896,336 L 896,337 L 895,338 L 894,338 L 893,338 L 892,338 L 891,338 L 890,338 L 889,338 L 889,339 L 888,339 L 887,339 L 886,339 L 886,340 L 885,340 L 884,340 L 883,340 L 883,341 L 882,341 L 881,341 L 881,342 L 881,343 L 880,343 L 880,344 L 879,344 L 878,345 L 877,345 L 877,346 L 876,345 L 876,346 L 875,346 L 875,347 L 874,347 L 873,347 L 873,346 L 873,347 L 872,348 L 871,348 L 870,348 L 869,348 L 868,348 L 867,348 L 867,349 L 866,349 L 866,350 L 865,350 L 865,351 L 865,352 L 864,352 L 863,352 L 862,352 L 862,353 L 863,353 L 863,354 L 864,355 L 864,356 L 864,357 L 863,358 L 863,359 L 864,359 L 864,360 L 864,361 L 864,362 L 864,363 L 863,364 L 862,364 L 862,365 L 862,366 L 862,367 L 862,368 L 861,369 L 861,370 L 862,371 L 862,372 L 862,373 L 862,374 L 863,375 L 862,376 L 862,377 L 862,378 L 861,379 L 861,380 L 861,381 L 860,381 L 860,382 L 859,382 L 858,383 L 857,383 L 857,384 L 856,384 L 856,385 L 856,386 L 855,386 L 855,387 L 854,388 L 854,389 L 853,390 L 853,391 L 853,392 L 852,393 L 851,394 L 850,394 L 850,393 L 851,393 L 850,393 L 850,392 L 850,391 L 850,390 L 850,389 L 850,388 L 849,388 L 849,389 L 848,389 L 848,388 L 848,387 L 847,387 L 847,386 L 846,386 L 845,386 L 844,385 L 844,386 L 843,386 L 842,386 L 841,387 L 840,387 L 840,388 L 840,389 L 839,389 L 839,390 L 838,390 L 837,390 L 837,391 L 836,391 L 836,392 L 835,392 L 835,393 L 834,393 L 833,393 L 832,393 L 832,394 L 831,394 L 830,394 L 829,394 L 829,393 L 828,393 L 828,394 L 827,394 L 827,395 L 826,395 L 826,396 L 826,397 L 825,397 L 825,398 L 824,398 L 824,399 L 824,400 L 824,401 L 823,401 L 823,402 L 823,403 L 823,404 L 822,404 L 822,405 L 822,406 L 821,407 L 821,408 L 821,409 L 821,410 L 821,411 L 821,412 L 820,412 L 820,413 L 820,414 L 820,415 L 819,415 L 819,416 L 819,415 L 818,415 L 818,414 L 817,414 L 817,413 L 816,413 L 815,413 L 814,413 L 813,413 L 812,413 L 812,412 L 811,412 L 810,412 L 809,412 L 808,412 L 807,412 L 807,411 L 806,411 L 806,410 L 805,410 L 805,409 L 804,409 L 804,408 L 803,408 L 803,407 L 802,407 L 801,406 L 800,406 L 800,405 L 799,405 L 798,405 L 797,405 L 797,404 L 796,404 L 795,404 L 794,404 L 793,404 L 793,405 L 792,405 L 791,405 L 791,406 L 790,406 L 789,406 L 788,406 L 787,406 L 786,406 L 786,405 L 785,405 L 784,405 L 784,404 L 783,404 L 783,403 L 782,403 L 782,402 L 781,402 L 781,403 L 780,403 L 779,403 L 778,403 L 777,403 L 776,402 L 775,402 L 775,401 L 774,401 L 774,400 L 773,400 L 772,400 L 772,401 L 771,401 L 771,402 L 770,402 L 769,402 L 768,403 L 767,403 L 767,404 L 766,404 L 766,405 L 765,406 L 766,406 L 765,406 L 766,406 L 765,406 L 765,407 L 766,407 L 765,407 L 764,407 L 763,407 L 762,407 L 761,407 L 760,408 L 760,407 L 759,407 L 758,407 L 758,406 L 757,406 L 756,406 L 756,405 L 756,406 L 755,406 L 754,406 L 753,407 L 753,408 L 752,408 L 752,409 L 751,409 L 751,410 L 751,411 L 750,412 L 750,413 L 749,413 L 748,413 L 748,414 L 747,414 L 746,414 L 746,415 L 745,415 L 744,415 L 743,415 L 742,415 L 741,415 L 740,415 L 739,415 L 739,416 L 738,416 L 738,417 L 737,417 L 737,418 L 737,419 L 736,419 L 735,419 L 734,419 L 733,419 L 733,420 L 732,420 L 732,421 L 731,421 L 731,422 L 730,423 L 730,424 L 729,424 L 729,425 L 729,426 L 728,426 L 728,427 L 728,428 L 728,427 L 728,426 L 727,426 L 726,426 L 725,426 L 725,427 L 725,428 L 725,429 L 724,429 L 724,428 L 724,427 L 724,426 L 723,426 L 724,425 L 723,425 L 724,425 L 723,425 L 722,425 L 721,425 L 720,425 L 719,425 L 718,425 L 717,425 L 717,426 L 716,426 L 716,425 L 716,424 L 716,423 L 716,412 L 716,411 L 714,407 L 713,407 L 713,406 L 713,405 L 713,404 L 714,404 L 715,402 L 717,400 L 717,399 L 716,399 L 710,401 L 709,400 L 708,396 L 708,395 L 709,395 L 710,395 L 710,394 L 711,394 L 712,394 L 711,394 L 710,393 L 709,393 L 706,394 L 704,394 L 704,395 L 705,395 L 704,396 L 703,395 L 702,395 L 702,396 L 703,396 L 702,396 L 701,396 L 700,396 L 700,395 L 701,394 L 701,395 L 702,394 L 701,394 L 700,394 L 700,393 L 699,394 L 699,393 L 698,393 L 697,393 L 697,394 L 696,394 L 695,394 L 695,395 L 695,396 L 695,397 L 694,397 L 694,396 L 695,396 L 694,396 L 694,395 L 693,395 L 692,395 L 692,396 L 691,396 L 691,397 L 692,397 L 692,398 L 692,399 L 693,399 L 692,401 L 692,402 L 690,411 L 689,411 L 689,412 L 688,412 L 688,411 L 689,411 L 691,400 L 690,400 L 690,399 L 690,398 L 689,398 L 689,397 L 690,397 L 690,396 L 690,395 L 690,394 L 691,394 L 690,394 L 690,393 L 691,393 L 691,394 L 691,393 L 692,393 L 693,393 L 693,392 L 693,391 L 694,391 L 694,390 L 694,389 L 694,388 L 694,387 L 693,387 L 693,386 L 692,386 L 692,385 L 692,384 L 691,384 L 691,385 L 690,382 L 690,381 L 690,382 L 690,381 L 689,382 L 688,382 L 687,382 L 686,382 L 686,383 L 685,383 L 687,385 L 685,387 L 684,387 L 684,386 L 684,385 L 683,385 L 683,384 L 683,383 L 682,383 L 682,384 L 682,383 L 682,382 L 680,384 L 680,383 L 680,382 L 680,381 L 680,382 L 679,382 L 679,381 L 678,381 L 678,380 L 677,380 L 677,381 L 676,381 L 675,380 L 675,379 L 674,378 L 674,377 L 675,377 L 675,376 L 675,375 L 675,376 L 674,376 L 674,375 L 674,374 L 673,374 L 672,374 L 672,373 L 672,372 L 672,371 L 671,370 L 672,370 L 672,369 L 672,368 L 672,367 L 672,366 L 673,366 L 673,365 L 673,364 L 673,363 L 673,362 L 673,361 L 673,360 L 672,360 L 671,360 L 672,359 L 672,358 L 672,357 L 673,357 L 673,356 L 673,355 L 672,354 L 672,353 L 671,353 L 671,352 L 671,351 L 671,350 L 671,349 L 670,348 L 669,347 L 668,346 L 667,346 L 667,345 L 666,345 L 666,344 L 666,343 L 666,342 L 666,341 L 665,341 L 665,340 L 664,340 L 664,339 L 663,338 L 663,337 L 662,337 L 662,336 L 661,336 L 660,336 L 661,336 L 660,336 L 660,335 L 660,334 L 660,333 L 659,333 L 660,332 L 659,332 L 659,331 L 658,331 L 657,331 L 656,331 L 655,331 L 655,332 L 654,332 L 653,332 L 653,333 L 652,333 L 652,334 L 652,335 L 651,335 L 651,336 L 650,336 L 650,337 L 650,338 L 650,339 L 650,340 L 651,340 L 652,341 L 652,342 L 653,343 L 653,344 L 653,345 L 654,345 L 654,346 L 655,346 L 656,346 L 656,347 L 657,348 L 657,349 L 658,349 L 658,350 L 659,350 L 660,350 L 661,350 L 661,351 L 662,351 L 662,352 L 663,352 L 663,353 L 663,354 L 664,354 L 664,355 L 664,356 L 664,357 L 665,358 L 665,359 L 666,359 L 666,360 L 667,360 L 668,360 L 668,359 L 669,359 L 670,359 L 670,360 L 670,362 L 669,362 L 669,361 L 670,361 L 669,361 L 669,362 L 668,362 L 668,361 L 668,360 L 667,360 L 667,361 L 667,362 L 667,363 L 667,364 L 667,365 L 667,364 L 666,364 L 665,364 L 665,365 L 665,364 L 666,364 L 666,363 L 665,363 L 665,362 L 664,362 L 663,362 L 663,363 L 664,364 L 664,365 L 664,366 L 665,366 L 664,366 L 664,367 L 664,368 L 665,368 L 665,369 L 664,369 L 664,370 L 664,371 L 664,372 L 664,373 L 664,374 L 663,374 L 663,375 L 662,375 L 662,376 L 662,377 L 662,378 L 662,379 L 662,380 L 662,381 L 662,382 L 662,383 L 663,383 L 663,384 L 663,383 L 664,383 L 664,384 L 660,384 L 659,384 L 659,383 L 658,384 L 659,384 L 658,384 L 657,384 L 658,384 L 658,383 L 658,382 L 657,382 L 657,383 L 656,383 L 656,382 L 656,383 L 656,384 L 657,384 L 657,385 L 657,386 L 656,386 L 655,386 L 654,386 L 655,386 L 655,387 L 654,387 L 653,387 L 652,388 L 651,387 L 652,387 L 652,386 L 651,386 L 651,387 L 651,386 L 650,386 L 651,386 L 651,385 L 651,384 L 650,384 L 650,385 L 649,385 L 649,386 L 649,387 L 650,387 L 650,388 L 649,388 L 648,388 L 649,388 L 649,389 L 648,389 L 647,389 L 647,388 L 646,388 L 646,389 L 645,389 L 645,390 L 645,391 L 646,391 L 645,391 L 646,391 L 646,392 L 645,392 L 645,393 L 646,393 L 646,394 L 645,394 L 645,395 L 644,395 L 643,395 L 642,395 L 642,394 L 642,395 L 641,395 L 640,395 L 640,394 L 639,394 L 638,394 L 637,394 L 636,394 L 636,395 L 635,395 L 634,396 L 634,397 L 634,398 L 635,398 L 635,399 L 636,399 L 636,400 L 636,401 L 636,402 L 636,403 L 636,404 L 636,405 L 635,405 L 634,405 L 634,406 L 633,406 L 632,406 L 632,407 L 631,407 L 630,407 L 629,407 L 628,408 L 626,408 L 625,409 L 626,409 L 625,409 L 625,410 L 625,411 L 624,411 L 624,410 L 624,409 L 624,410 L 624,411 L 624,412 L 623,412 L 623,413 L 623,414 L 622,414 L 622,413 L 622,412 L 623,412 L 622,412 L 621,412 L 621,411 L 621,410 L 620,410 L 620,411 L 621,412 L 620,413 L 620,412 L 619,412 L 620,412 L 620,411 L 619,411 L 618,411 L 616,414 L 616,416 L 615,416 L 616,416 L 616,417 L 617,417 L 618,417 L 618,418 L 619,418 L 620,418 L 620,419 L 621,419 L 621,420 L 622,420 L 623,420 L 624,420 L 625,420 L 626,420 L 627,420 L 627,421 L 628,421 L 629,421 L 630,421 L 630,420 L 630,421 L 630,420 L 631,420 L 632,420 L 632,421 L 631,421 L 630,421 L 629,421 L 628,421 L 627,422 L 626,422 L 625,423 L 624,423 L 623,423 L 622,422 L 621,422 L 620,422 L 620,421 L 619,421 L 618,421 L 617,421 L 617,420 L 616,420 L 615,420 L 614,420 L 613,420 L 612,420 L 611,420 L 610,420 L 609,420 L 609,421 L 608,421 L 607,421 L 607,422 L 606,422 L 605,422 L 604,422 L 603,422 L 603,423 L 602,422 L 602,423 L 601,423 L 600,422 L 599,422 L 598,422 L 597,422 L 596,422 L 595,422 L 594,422 L 594,421 L 593,421 L 592,421 L 592,420 L 591,420 L 590,420 L 590,419 L 589,419 L 589,418 L 589,417 L 589,416 L 588,416 L 589,416 L 590,416 L 590,415 L 590,416 L 590,417 L 589,417 L 589,418 L 590,418 L 590,419 L 591,419 L 591,420 L 592,420 L 593,420 L 593,421 L 593,420 L 594,420 L 594,421 L 595,421 L 596,421 L 596,420 L 596,419 L 597,419 L 597,418 L 598,418 L 598,417 L 599,417 L 599,416 L 599,415 L 600,415 L 600,416 L 601,416 L 601,417 L 602,417 L 602,416 L 603,416 L 603,415 L 604,414 L 603,414 L 603,413 L 603,412 L 603,411 L 603,410 L 602,410 L 602,409 L 601,409 L 600,409 L 600,410 L 599,410 L 599,411 L 598,411 L 598,410 L 598,409 L 598,408 L 598,407 L 599,407 L 600,407 L 601,407 L 601,408 L 602,408 L 602,407 L 602,406 L 601,405 L 601,404 L 600,404 L 599,404 L 599,405 L 600,405 L 601,405 L 601,406 L 602,406 L 602,407 L 601,407 L 600,407 L 600,406 L 600,407 L 599,407 L 598,407 L 598,408 L 597,408 L 597,409 L 598,410 L 598,411 L 599,411 L 599,410 L 600,410 L 601,410 L 602,410 L 602,411 L 603,411 L 603,412 L 603,413 L 603,414 L 603,415 L 602,416 L 602,417 L 601,417 L 601,416 L 600,415 L 601,415 L 602,415 L 602,414 L 602,413 L 601,413 L 601,412 L 600,412 L 599,412 L 598,412 L 597,412 L 598,412 L 598,413 L 598,414 L 597,414 L 597,415 L 598,415 L 598,416 L 597,416 L 597,417 L 598,417 L 597,417 L 598,417 L 597,417 L 598,417 L 598,416 L 599,416 L 599,415 L 599,416 L 598,417 L 598,418 L 597,418 L 597,419 L 596,419 L 596,420 L 595,420 L 596,420 L 596,419 L 596,418 L 595,418 L 595,417 L 595,418 L 595,419 L 595,418 L 594,418 L 594,417 L 594,418 L 594,419 L 595,419 L 595,420 L 595,419 L 594,419 L 594,418 L 594,419 L 594,420 L 594,419 L 593,419 L 593,418 L 593,419 L 594,419 L 594,420 L 593,420 L 593,419 L 593,418 L 592,418 L 591,418 L 590,418 L 590,417 L 591,417 L 591,416 L 592,416 L 592,417 L 592,416 L 591,416 L 592,416 L 591,416 L 591,415 L 591,416 L 590,416 L 590,415 L 589,415 L 588,415 L 588,414 L 588,413 L 587,413 L 587,412 L 588,412 L 587,412 L 587,411 L 586,411 L 586,410 L 586,409 L 587,408 L 587,407 L 587,406 L 587,405 L 586,405 L 586,404 L 585,404 L 584,403 L 583,403 L 582,403 L 581,403 L 580,403 L 579,403 L 578,403 L 578,402 L 579,402 L 578,402 L 578,403 L 577,403 L 577,404 L 576,404 L 575,404 L 575,405 L 575,406 L 574,406 L 574,405 L 574,404 L 573,404 L 573,403 L 573,402 L 573,401 L 573,400 L 573,399 L 573,398 L 574,398 L 574,399 L 573,399 L 573,400 L 574,400 L 574,399 L 575,399 L 576,398 L 576,397 L 577,397 L 577,396 L 578,396 L 578,395 L 578,394 L 578,393 L 578,392 L 577,392 L 577,391 L 577,390 L 576,390 L 576,389 L 575,389 L 574,389 L 573,389 L 573,390 L 573,391 L 572,391 L 571,391 L 571,390 L 572,389 L 572,388 L 573,388 L 573,387 L 573,386 L 573,385 L 574,385 L 574,384 L 575,384 L 574,384 L 574,383 L 575,383 L 574,383 L 574,382 L 575,382 L 576,382 L 576,381 L 577,381 L 577,382 L 577,383 L 576,384 L 576,385 L 576,386 L 575,386 L 575,387 L 575,388 L 576,388 L 577,388 L 577,387 L 578,387 L 578,388 L 578,387 L 579,387 L 579,388 L 579,387 L 580,387 L 580,388 L 581,388 L 581,387 L 581,386 L 580,386 L 580,385 L 580,384 L 581,384 L 581,383 L 582,383 L 581,383 L 582,383 L 583,383 L 583,382 L 584,382 L 583,382 L 584,382 L 583,382 L 583,381 L 584,381 L 584,382 L 584,383 L 585,383 L 585,382 L 584,382 L 585,382 L 585,383 L 585,384 L 586,384 L 586,383 L 585,383 L 585,382 L 585,381 L 585,380 L 585,379 L 586,379 L 585,378 L 586,378 L 586,377 L 586,376 L 586,375 L 587,375 L 586,375 L 586,374 L 587,374 L 587,373 L 586,373 L 586,374 L 585,374 L 585,375 L 584,375 L 584,376 L 583,376 L 583,375 L 584,375 L 584,374 L 584,373 L 584,372 L 584,371 L 584,370 L 583,370 L 582,370 L 581,369 L 580,369 L 580,368 L 580,369 L 581,369 L 582,369 L 581,369 L 581,368 L 582,368 L 582,369 L 583,369 L 584,369 L 584,368 L 584,367 L 585,367 L 586,367 L 586,368 L 587,368 L 588,368 L 589,368 L 589,369 L 588,369 L 588,370 L 589,370 L 590,370 L 590,369 L 590,370 L 591,370 L 590,370 L 590,371 L 591,371 L 591,370 L 592,370 L 592,369 L 593,369 L 593,370 L 593,371 L 593,372 L 594,372 L 593,372 L 594,372 L 594,371 L 594,370 L 595,370 L 595,369 L 596,369 L 596,368 L 595,368 L 595,369 L 594,369 L 594,368 L 593,369 L 593,368 L 592,368 L 592,367 L 591,367 L 590,367 L 589,367 L 589,366 L 588,366 L 587,366 L 587,365 L 586,365 L 585,365 L 585,366 L 584,366 L 584,365 L 583,365 L 582,365 L 582,366 L 581,366 L 581,365 L 581,364 L 582,365 L 582,364 L 581,364 L 580,364 L 581,364 L 581,363 L 581,364 L 582,364 L 583,364 L 584,364 L 584,363 L 583,363 L 582,363 L 583,363 L 583,362 L 584,362 L 584,361 L 583,361 L 582,361 L 582,360 L 582,359 L 582,358 L 582,357 L 583,357 L 582,357 L 582,356 L 581,356 L 581,357 L 580,357 L 580,358 L 580,357 L 580,356 L 580,355 L 580,354 L 580,353 L 580,352 L 580,351 L 580,350 L 579,350 L 579,349 L 579,350 L 578,350 L 577,350 L 577,349 L 577,348 L 577,349 L 576,349 L 576,348 L 577,348 L 578,348 L 578,347 L 577,347 L 577,346 L 577,347 L 577,346 L 576,346 L 576,345 L 576,344 L 576,343 L 575,343 L 575,344 L 575,345 L 575,346 L 574,346 L 574,345 L 574,344 L 573,344 L 573,343 L 574,342 L 574,341 L 575,341 L 575,342 L 576,343 L 576,342 L 577,342 L 577,341 L 577,340 L 578,340 L 578,339 L 578,338 L 578,337 L 577,337 L 577,336 L 577,337 L 576,337 L 575,337 L 575,338 L 574,338 L 574,339 L 574,340 L 573,340 L 572,340 L 571,340 L 570,340 L 571,340 L 571,339 L 572,339 L 572,338 L 573,338 L 572,338 L 572,337 L 571,337 L 571,336 L 571,335 L 571,334 L 570,335 L 570,336 L 569,336 L 568,336 L 569,336 L 569,335 L 568,335 L 567,335 L 568,335 L 568,334 L 569,334 L 570,334 L 569,334 L 569,333 L 570,333 L 571,333 L 572,333 L 573,334 L 574,334 L 574,335 L 574,336 L 574,335 L 574,336 L 575,336 L 575,335 L 575,334 L 575,333 L 576,333 L 576,334 L 577,334 L 576,334 L 576,333 L 576,332 L 575,332 L 575,333 L 574,333 L 574,332 L 573,332 L 572,332 L 572,331 L 571,331 L 571,330 L 572,330 L 572,329 L 573,329 L 573,328 L 572,328 L 572,327 L 572,326 L 572,325 L 572,324 L 572,323 L 572,322 L 573,322 L 573,321 L 573,320 L 574,320 L 574,319 L 574,318 L 575,318 L 575,317 L 575,316 L 576,315 L 576,314 L 576,313 L 575,313 L 575,312 L 574,312 L 573,312 L 573,311 L 572,311 L 571,311 L 571,312 L 570,312 L 571,312 L 570,312 L 570,313 L 569,313 L 568,313 L 568,314 L 567,314 L 567,315 L 567,316 L 566,316 L 566,317 L 565,317 L 565,318 L 564,318 L 564,319 L 563,319 L 563,320 L 562,320 L 561,321 L 561,322 L 560,322 L 559,322 L 559,323 L 559,322 L 559,323 L 558,323 L 558,324 L 558,325 L 557,325 L 557,326 L 556,326 L 556,325 L 555,325 L 555,324 L 554,324 L 554,325 L 553,325 L 553,324 L 552,324 L 552,325 L 553,325 L 553,326 L 553,327 L 552,327 L 551,326 L 550,326 L 550,325 L 550,324 L 550,323 L 549,323 L 549,322 L 549,321 L 550,320 L 549,320 L 549,319 L 548,319 L 548,318 L 548,317 L 548,316 L 549,316 L 549,315 L 548,315 L 548,314 L 547,314 L 547,313 L 546,313 L 546,312 L 545,312 L 544,311 L 545,311 L 545,310 L 546,310 L 546,309 L 546,308 L 546,307 L 547,307 L 547,306 L 546,306 L 545,306 L 545,305 L 546,305 L 546,304 L 547,304 L 546,304 L 546,303 L 547,302 L 547,303 L 547,302 L 547,301 L 547,300 L 547,299 L 547,298 L 547,297 L 548,297 L 548,296 L 548,295 L 549,295 L 549,294 L 549,293 L 549,292 L 549,291 L 549,290 L 549,289 L 549,288 L 550,288 L 550,287 L 549,287 L 550,287 L 549,286 L 550,286 L 550,285 L 550,284 L 549,284 L 550,284 L 550,283 L 551,283 L 550,283 L 549,283 L 550,283 L 550,282 L 550,281 L 549,281 L 549,280 L 550,280 L 550,279 L 549,279 L 549,278 L 550,278 L 550,279 L 550,278 L 550,277 L 550,276 L 550,275 L 549,275 L 549,274 L 548,274 L 548,273 L 547,273 L 547,272 L 546,272 L 546,271 L 545,271 L 545,270 L 545,269 L 544,269 L 544,268 L 545,268 L 544,267 L 544,266 L 544,265 L 543,265 L 543,264 L 542,264 L 542,263 L 541,263 L 541,262 L 540,262 L 540,261 L 539,261 L 539,260 L 539,259 L 539,258 L 538,258 L 538,257 L 538,256 L 538,255 L 539,255 L 539,254 L 539,253 L 539,252 L 539,251 L 539,250 L 539,249 L 539,248 L 538,247 L 537,247 L 536,246 L 535,246 L 534,246 L 533,246 L 532,246 L 531,246 L 530,246 L 529,246 L 528,246 L 527,246 L 526,246 L 525,247 L 524,247 L 524,248 L 523,248 L 523,249 L 522,249 L 522,248 L 522,247 L 522,246 L 521,245 L 521,244 L 520,244 L 519,244 L 519,243 L 518,243 L 517,244 L 517,245 L 516,245 L 516,246 L 515,246 L 515,247 L 514,247 L 514,246 L 513,246 L 513,245 L 512,245 L 512,244 L 512,243 L 512,242 L 511,241 L 511,240 L 510,240 L 510,239 L 509,238 L 509,237 L 509,236 L 508,236 L 508,235 L 507,234 L 507,233 L 506,232 L 506,231 L 506,230 L 505,230 L 505,229 L 505,228 L 505,227 L 505,226 L 505,225 L 505,224 L 506,224 L 505,223 L 505,222 L 505,221 L 505,220 L 505,219 L 505,218 L 505,217 L 505,216 L 505,215 L 504,215 L 504,214 L 503,214 L 503,213 L 504,213 L 503,213 L 503,212 L 503,211 L 502,211 L 502,210 L 502,209 L 502,208 L 502,207 L 502,206 L 502,205 L 501,205 L 501,204 L 501,203 L 500,203 L 500,202 L 500,201 L 501,201 L 500,200 L 501,200 L 500,200 L 500,199 L 501,199 L 501,198 L 500,198 L 500,197 L 501,197 L 501,196 L 501,195 L 500,195 L 500,194 L 500,193 L 500,192 L 500,191 L 500,190 L 499,190 L 499,189 L 499,188 L 498,188 L 498,187 L 497,187 L 496,187 L 495,187 L 494,187 L 493,187 L 492,187 L 491,187 L 490,187 L 489,187 L 489,188 L 488,188 L 488,189 L 487,189 L 486,189 L 485,189 L 485,190 L 484,190 L 484,191 L 484,192 L 483,192 L 483,193 L 482,193 L 482,194 L 481,194 L 481,195 L 481,196 L 480,196 L 480,197 L 479,197 L 479,198 L 478,198 L 478,199 L 477,199 L 477,200 L 476,200 L 477,200 L 476,200 L 476,201 L 475,201 L 475,202 L 474,202 L 474,203 L 473,203 L 473,202 L 474,202 L 474,201 L 474,200 L 473,200 L 473,199 L 472,199 L 472,200 L 471,200 L 470,200 L 470,201 L 469,201 L 469,200 L 468,200 L 468,201 L 467,201 L 467,202 L 466,202 L 466,203 L 465,203 L 465,204 L 465,205 L 464,205 L 464,206 L 464,205 L 464,204 L 465,203 L 465,202 L 465,201 L 465,202 L 464,202 L 464,203 L 463,203 L 463,204 L 462,204 L 462,205 L 461,205 L 460,205 L 460,204 L 459,204 L 458,204 L 458,203 L 458,202 L 458,201 L 457,201 L 457,200 L 457,199 L 457,198 L 456,198 L 457,198 L 457,197 L 456,197 L 456,196 L 457,196 L 457,195 L 457,194 L 456,194 L 456,193 L 455,193 L 455,192 L 455,191 L 455,190 L 454,190 L 453,190 L 454,189 L 454,188 L 453,188 L 452,188 L 451,188 L 451,187 L 450,187 L 449,187 L 448,187 L 447,187 L 446,187 L 446,186 L 446,185 L 447,185 L 447,184 L 448,184 L 447,184 L 447,183 L 447,182 L 447,181 L 447,180 L 446,180 L 446,179 L 446,178 L 446,177 L 446,176 L 447,176 L 447,175 L 447,174 L 448,174 L 448,173 L 449,173 L 449,172 L 448,172 L 448,171 L 448,172 L 448,171 L 447,171 L 447,170 L 448,170 L 448,169 L 449,169 L 450,169 L 451,169 L 451,168 L 451,167 L 451,166 L 450,166 L 450,165 L 450,164 L 450,163 L 450,162 L 450,163 L 449,163 L 449,164 L 449,163 L 448,163 L 448,164 L 447,164 L 447,163 L 448,163 L 448,162 L 449,162 L 449,161 L 449,160 L 450,160 L 450,159 L 451,159 L 452,159 L 453,159 L 454,159 L 453,159 L 452,159 L 452,160 L 453,160 L 453,159 L 454,159 L 454,158 L 454,157 L 455,157 L 456,157 L 456,156 L 457,156 L 457,155 L 458,155 L 459,155 L 460,155 L 460,154 L 461,154 L 462,154 L 463,154 L 464,154 L 465,154 L 466,154 L 467,154 L 468,154 L 468,155 L 469,155 L 469,154 L 469,153 L 470,153 L 470,152 L 469,152 L 470,152 L 471,152 L 471,153 L 472,153 L 472,154 L 473,154 L 472,154 L 473,154 L 473,153 L 474,152 L 474,151 L 473,151 L 473,150 L 472,150 L 471,150 L 471,149 L 470,149 L 469,149 L 469,148 L 468,148 L 467,148 L 467,149 L 468,149 L 468,150 L 468,151 L 469,151 L 468,151 L 468,150 L 467,150 L 467,149 L 466,149 L 466,148 L 466,147 L 466,146 L 465,145 L 465,144 L 464,144 L 464,143 L 463,143 L 463,142 L 462,142 L 461,142 L 461,141 L 460,141 L 460,140 L 460,139 L 459,139 L 459,138 L 459,137 L 458,137 L 458,136 L 458,135 L 457,135 L 457,134 L 457,133 L 456,133 L 456,132 L 456,131 L 456,130 L 456,129 L 456,128 L 455,128 L 455,129 L 455,128 L 455,127 L 455,126 L 455,125 L 456,125 L 457,125 L 457,124 L 458,124 L 459,124 L 459,123 L 459,122 L 460,122 L 460,121 L 460,120 L 460,119 L 460,118 L 460,117 L 460,116 L 461,116 L 461,115 L 462,115 L 462,114 L 462,113 L 462,112 L 462,111 L 463,111 L 463,112 L 464,112 L 464,113 L 464,114 L 465,114 L 465,115 L 465,116 L 465,117 L 465,118 L 466,118 L 466,119 L 466,120 L 467,121 L 467,122 L 467,123 L 468,123 L 468,124 L 468,125 L 469,125 L 469,126 L 470,126 L 470,127 L 471,127 L 471,128 L 472,128 L 472,129 L 473,129 L 474,129 L 475,129 L 476,129 L 477,129 L 478,129 L 479,129 L 480,129 L 481,129 L 482,129 L 483,129 L 484,129 L 485,129 L 486,129 L 486,128 L 487,128 L 487,129 L 488,129 L 488,128 L 489,128 L 488,128 L 488,127 L 488,126 L 489,126 L 489,125 L 489,126 L 490,126 L 490,125 L 491,125 L 492,125 L 492,124 L 492,123 L 491,123 L 492,123 L 492,122 L 491,122 L 491,121 L 490,121 L 491,121 L 492,120 L 493,120 L 493,121 L 493,120 L 494,120 L 494,121 L 495,120 L 495,121 L 496,121 L 496,120 L 496,119 L 495,119 L 495,118 L 496,118 L 495,118 L 495,117 L 496,117 L 496,116 L 496,115 L 496,114 L 497,114 L 497,113 L 497,112 L 498,112 L 498,113 L 499,113 L 499,114 L 499,115 L 500,115 L 500,116 L 499,116 L 499,117 L 498,117 L 498,118 L 498,119 L 499,119 L 499,120 L 500,120 L 500,121 L 501,121 L 501,122 L 501,123 L 500,123 L 500,122 L 499,122 L 498,122 L 497,122 L 497,123 L 498,123 L 499,123 L 499,124 L 500,124 L 501,124 L 501,125 L 501,126 L 502,126 L 502,127 L 503,127 L 504,127 L 504,128 L 503,128 L 502,128 L 501,128 L 500,128 L 499,128 L 499,129 L 498,129 L 498,128 L 497,129 L 496,129 L 496,130 L 497,130 L 498,130 L 499,130 L 499,131 L 500,131 L 500,130 L 501,130 L 501,129 L 502,129 L 503,129 L 503,128 L 504,128 L 505,128 L 505,129 L 506,129 L 507,129 L 508,129 L 509,129 L 510,129 L 510,128 L 510,129 L 511,129 L 511,130 L 512,130 L 513,129 L 513,128 L 513,127 L 513,126 L 514,126 L 514,125 L 514,124 L 515,124 L 516,124 L 517,124 L 518,124 L 518,123 L 518,122 L 519,122 L 519,121 L 519,120 L 518,120 L 518,119 L 517,119 L 517,118 L 517,117 L 518,117 L 519,117 L 518,117 L 518,118 L 519,118 L 520,118 L 520,119 L 520,120 L 521,120 L 521,121 L 522,121 L 522,122 L 522,121 L 523,121 L 523,122 L 524,122 L 524,123 L 524,124 L 525,124 L 526,124 L 527,124 L 528,124 L 528,123 L 529,123 L 530,123 L 530,122 L 531,122 L 531,121 L 532,121 L 532,122 L 533,122 L 534,122 L 535,122 L 535,121 L 535,120 L 536,120 L 536,119 L 537,119 L 538,119 L 539,119 L 540,119 L 540,120 L 541,120 L 541,121 L 542,121 L 542,122 L 543,122 L 543,123 L 543,124 L 543,125 L 544,125 L 544,126 L 544,127 L 544,128 L 544,129 L 545,129 L 545,130 L 545,131 L 546,131 L 547,131 L 547,130 L 548,130 L 548,129 L 549,129 L 549,128 L 550,128 L 551,128 L 552,128 L 553,128 L 554,128 L 555,128 L 555,127 L 556,127 L 556,128 L 556,129 L 556,130 L 557,130 L 557,131 L 557,132 L 557,133 L 558,133 L 558,134 L 558,135 L 558,136 L 557,136 L 557,137 L 556,137 L 556,138 L 555,138 L 554,138 L 554,139 L 553,139 L 553,140 L 553,141 L 553,142 L 554,142 L 555,142 L 555,143 L 556,143 L 557,143 L 558,143 L 558,144 L 559,144 L 559,145 L 560,145 L 560,146 L 561,146 L 562,147 L 563,147 L 563,148 L 563,149 L 564,149 L 565,149 L 566,149 L 567,150 L 568,150 L 569,151 L 570,151 L 570,152 L 571,152 L 571,153 L 572,153 L 572,154 L 572,155 L 573,155 L 573,156 L 574,156 L 574,157 L 574,158 L 575,158 L 576,159 L 576,158 L 576,157 L 576,156 L 576,155 L 575,155 L 575,154 L 575,153 L 575,152 L 576,152 L 577,152 L 578,152 L 578,153 L 579,152 L 579,151 L 579,150 L 579,149 L 580,149 L 579,149 L 579,148 L 579,147 L 579,146 L 580,146 L 580,145 L 579,145 L 579,144 L 579,143 L 578,143 L 579,142 L 579,141 L 578,141 L 578,140 L 579,140 L 579,139 L 580,139 L 580,138 L 581,138 L 582,138 L 581,138 L 581,137 L 581,136 L 582,136 L 582,135 L 583,135 L 583,136 L 584,136 L 585,136 L 585,137 L 586,137 L 586,136 L 587,136 L 588,136 L 588,135 L 588,136 L 588,137 L 587,137 L 588,137 L 588,138 L 587,138 L 588,139 L 587,139 L 587,140 L 588,140 L 589,140 L 590,140 L 590,139 L 591,139 L 591,140 L 592,140 L 593,140 L 593,141 L 592,141 L 591,141 L 592,141 L 592,142 L 593,142 L 593,143 L 592,143 L 592,144 L 593,144 L 593,143 L 594,143 L 594,144 L 595,145 L 595,144 L 596,144 L 596,145 L 597,145 L 597,146 L 598,146 L 598,145 L 599,145 L 599,144 L 600,144 L 600,145 L 601,145 L 601,146 L 602,146 L 602,147 L 602,148 L 602,149 L 602,150 L 603,150 L 603,151 L 603,152 L 603,153 L 604,153 L 604,154 L 604,155 L 604,156 L 605,156 L 605,157 L 605,158 L 606,158 L 606,159 L 607,159 L 608,159 L 608,158 L 609,158 L 610,158 L 610,157 L 610,156 L 610,155 L 610,154 L 610,153 L 610,152 L 609,152 L 609,151 L 609,150 L 609,149 L 608,149 L 608,148 L 608,147 L 608,146 L 608,145 L 608,144 L 607,144 L 607,143 L 607,142 L 607,141 L 607,140 L 607,139 L 606,139 L 605,139 L 604,139 L 604,138 L 603,138 L 603,137 L 602,137 L 602,136 L 601,136 L 601,135 L 600,135 L 599,135 L 599,134 L 598,134 L 598,133 L 598,132 L 598,131 L 598,130 L 598,129 L 598,128 L 598,127 L 599,127 L 599,126 L 599,125 L 599,124 L 599,123 L 599,122 L 599,121 L 599,120 L 599,119 L 599,118 L 599,117 L 599,116 L 599,115 L 599,114 L 599,113 L 599,112 L 600,112 L 601,112 L 601,111 L 602,111 L 602,110 L 602,109 L 603,108 L 603,107 L 604,107 L 604,106 L 604,105 L 604,104 L 604,103 L 604,104 L 604,105 L 605,105 L 605,106 L 604,106 L 605,106 L 606,106 L 607,106 L 607,107 L 608,107 L 608,108 L 608,107 L 608,106 L 607,106 L 607,105 L 607,104 L 607,103 L 606,103 L 606,102 L 606,101 L 605,101 L 604,101 L 604,102 L 604,101 L 604,100 L 604,99 L 604,100 L 604,101 L 604,102 L 604,103 L 604,102 L 604,101 L 604,100 L 604,99 L 604,98 L 603,98 L 603,97 L 603,96 L 602,96 L 602,95 L 601,94 L 601,93 L 600,93 L 600,92 L 600,91 L 599,91 L 599,90 L 599,89 L 599,88 L 598,88 L 598,87 L 597,87 L 597,86 L 596,85 L 596,84 L 595,84 L 594,83 L 594,82 L 593,82 L 594,82 L 594,81 L 594,80 L 593,80 L 592,80 L 592,79 L 592,78 L 591,78 L 591,77 L 592,77 L 592,76 L 591,76 L 591,75 L 590,75 L 589,75 L 589,74 L 588,73 L 588,72 L 588,71 L 588,70 L 587,70 L 587,69 L 586,68 L 585,68 L 585,67 L 584,67 L 584,66 L 584,65 L 585,65 L 585,64 L 584,64 L 584,63 L 584,62 L 583,61 L 582,59 L 581,58 L 581,57 L 581,56 L 582,56 L 583,56 L 584,56 L 585,56 L 586,56 L 586,55 L 587,55 L 588,55 L 589,55 L 589,54 L 588,54 L 588,53 L 587,53 L 587,52 L 586,51 L 586,50 L 585,50 L 585,49 L 584,49 L 584,48 L 585,48 L 585,47 L 586,47 L 586,46 L 587,46 L 587,45 L 588,45 L 588,44 L 589,44 L 589,43 L 590,42 L 591,42 L 591,41 L 592,41 L 593,40 L 593,39 L 594,39 L 594,38 L 595,38 L 596,37 L 597,37 L 598,37 L 598,38 L 599,38 L 600,38 L 601,38 L 602,38 L 603,38 L 604,38 L 605,37 L 606,37 L 607,36 L 608,36 L 609,36 L 610,36 L 611,36 L 612,37 L 613,37 L 614,37 L 615,37 L 615,36 L 616,36 L 616,35 L 616,34 L 617,34 L 617,33 L 618,33 L 619,33 L 620,33 L 620,34 L 621,34 L 621,35 L 621,36 L 621,37 L 622,37 L 623,38 L 624,38 L 625,38 L 625,39 L 626,39 L 627,39 L 627,38 L 628,38 L 629,37 L 629,36 L 630,36 L 630,35 L 631,35 L 632,35 L 633,35 L 635,35 L 636,35 L 637,36 L 638,36 L 638,37 L 639,37 L 639,38 L 640,38 L 641,38 L 642,39 L 643,39 L 644,40 L 645,40 L 646,40 L 646,41 L 647,41 L 647,42 L 648,42 L 649,42 L 650,41 L 651,41 L 651,40 L 652,40 L 653,39 L 654,39 L 655,39 L 655,38 L 656,37 L 657,36 L 657,35 L 658,35 L 659,35 L 659,34 L 660,34 L 661,34 L 662,33 L 663,33 L 663,32 L 664,32 L 665,32 L 665,31 L 666,31 L 666,30 L 667,30 L 668,29 L 668,28 L 668,27 L 668,26 L 668,25 L 668,24 L 668,23 L 668,22 L 668,23 L 669,23 L 670,23 L 671,22 L 672,22 L 673,22 L 673,21 L 674,21 L 675,20 L 676,19 L 677,19 L 678,19 L 679,18 L 680,18 L 682,17 L 684,17 L 685,17 L 686,17 L 686,16 L 686,17 L 686,18 L 687,18 L 687,19 L 688,19 L 688,20 L 689,20 L 690,20 L 691,20 L 692,20 L 692,21 L 693,21 L 694,21 L 695,21 L 695,22 L 695,23 L 694,24 L 694,25 L 694,26 L 694,27 L 693,27 L 693,28 L 694,28 L 694,29 L 695,30 L 695,31 L 695,32 L 694,32 L 694,33 L 694,34 L 694,35 L 695,35 L 695,36 L 696,37 L 697,38 L 697,39 L 697,40 L 698,40 L 698,41 L 698,42 L 700,44 L 701,45 L 702,46 L 703,47 L 704,47 L 705,48 L 706,48 L 707,48 L 708,48 L 708,49 L 708,50 L 707,51 L 708,51 L 708,52 L 707,52 L 706,53 L 706,54 L 706,55 L 705,55 L 705,56 L 704,56 L 704,57 L 703,57 L 703,58 L 703,59 L 703,60 L 703,61 L 702,61 L 701,61 L 701,62 L 700,62 L 700,63 L 699,63 L 700,63 L 700,64 L 700,65 L 700,66 L 699,66 L 699,67 L 699,68 L 700,68 L 700,69 L 700,70 L 699,70 L 699,69 L 698,69 L 698,70 L 699,70 L 699,71 L 701,72 L 701,73 L 702,73 L 702,74 L 701,74 L 700,74 L 699,73 L 698,73 L 693,75 L 692,75 L 692,76 L 692,77 L 691,77 L 692,78 L 691,78 L 690,79 L 689,80 L 689,81 L 688,81 L 687,81 L 687,82 L 686,82 L 686,83 L 685,83 L 685,84 L 685,85 L 685,86 L 685,87 L 685,88 L 685,89 L 685,90 L 686,91 L 687,92 L 688,92 L 689,93 L 690,93 L 691,94 L 692,94 L 693,94 L 692,93 L 692,92 L 693,92 L 694,92 L 695,93 L 696,93 L 697,94 L 698,94 L 698,95 L 699,95 L 700,96 L 701,97 L 702,97 L 702,98 L 702,99 L 702,100 L 703,100 L 703,101 L 703,102 L 704,102 L 705,102 L 706,103 L 707,103 L 708,103 L 709,104 L 710,104 L 710,105 L 711,105 L 711,106 L 712,106 L 713,106 L 714,106 L 715,106 L 716,106 L 716,105 L 717,105 L 717,106 L 718,106 L 718,107 L 719,107 L 720,108 L 721,109 L 722,109 L 723,109 L 723,110 L 723,111 L 724,111 L 724,112 L 725,112 L 725,113 L 726,113 L 727,113 L 727,112 L 728,112 L 729,112 L 730,113 L 731,113 L 732,113 L 732,114 L 733,114 L 733,115 L 734,115 L 734,116 L 733,116 L 733,117 L 732,118 L 732,119 L 731,119 L 730,119 L 730,120 L 730,121 L 730,122 L 730,123 L 730,124 L 730,125 L 729,125 L 729,126 L 728,126 L 727,127 L 727,128 L 727,129 L 727,130 L 727,131 L 727,132 L 728,132 L 728,133 L 728,134 L 728,135 L 728,136 L 729,136 L 729,137 L 729,138 L 728,138 L 728,139 L 728,140 L 729,140 L 729,141 L 729,142 L 729,143 L 729,144 L 728,144 L 728,145 L 728,146 L 729,146 L 730,146 L 730,147 L 731,147 L 731,148 L 732,148 L 732,149 L 732,150 L 731,150 L 731,151 L 732,151 L 733,151 L 734,151 L 735,151 L 736,151 L 737,151 L 738,151 L 738,152 L 739,152 L 741,151 L 742,151 L 743,151 L 744,151 L 746,151 L 747,151 L 747,150 L 748,151 L 749,151 L 749,152 L 750,152 L 750,153 L 751,153 L 752,153 L 754,152 L 755,152 L 756,152 L 757,152 L 758,153 L 759,153 L 759,154 L 760,154 L 761,154 L 761,155 L 762,155 L 764,155 L 765,155 L 766,155 L 766,154 L 767,154 L 767,155 L 768,155 L 769,155 L 770,156 L 771,157 L 771,158 L 772,158 L 772,159 L 772,160 L 773,160 L 774,160 L 775,159 L 775,158 L 776,158 L 776,159 L 777,159 L 777,160 L 778,160 L 778,161 L 778,162 L 778,163 L 778,164 L 778,165 L 777,166 L 777,167 L 776,168 L 775,170 L 774,171 L 773,172 L 772,174 L 772,173 L 772,172 L 772,171 L 772,170 L 771,170 L 770,170 L 769,170 L 768,171 L 767,171 L 766,171 L 765,171 L 764,170 L 763,170 L 762,170 L 762,171 L 761,171 L 760,171 L 759,171 L 758,171 L 757,171 L 756,171 L 755,170 L 754,172 L 754,174 L 754,176 L 753,176 L 753,177 L 752,177 L 752,178 L 752,179 L 752,180 L 752,181 L 753,181 L 753,182 L 754,182 L 754,183 L 754,184 L 753,184 L 753,185 L 752,185 L 752,186 L 751,186 L 751,187 L 751,188 L 750,189 L 750,190 L 749,190 L 749,191 L 748,191 L 747,191 L 746,192 L 745,192 L 745,191 L 745,192 L 746,192 L 746,193 L 746,194 L 746,196 L 747,196 L 747,197 L 748,197 L 749,197 L 749,198 L 749,199 L 750,200 L 750,201 L 750,202 L 750,204 L 750,205 L 750,206 L 750,207 L 749,208 L 749,209 L 750,210 L 750,211 L 750,212 L 751,213 L 751,214 L 752,214 L 752,215 L 753,216 L 753,217 L 752,217 L 752,218 L 752,219 L 752,220 L 752,221 L 752,222 L 753,223 L 754,223 L 755,223 L 755,224 L 756,225 L 757,225 L 757,226 L 758,226 L 759,226 L 760,227 L 760,228 L 761,228 L 762,228 L 763,229 L 764,228 L 766,228 L 767,229 L 768,229 L 769,229 L 769,230 L 770,230 L 771,230 L 771,231 L 772,231 L 773,231 L 774,231 L 775,232 L 776,233 L 777,233 L 777,234 L 778,234 L 779,234 L 780,234 L 781,234 L 782,234 L 783,234 L 784,234 L 784,233 L 785,233 L 786,233 L 787,233 L 788,233 L 788,234 L 789,234 L 789,235 L 790,235 L 791,236 L 792,236 L 793,236 L 794,237 L 794,238 L 794,239 L 794,240 L 796,240 L 797,240 L 798,239 L 799,239 L 800,239 L 801,239 L 802,239 L 802,240 L 803,240 L 803,239 L 804,239 L 805,239 L 806,239 L 807,239 L 808,239 L 809,239 L 809,238 L 809,239 L 810,239 L 811,238 L 812,238 L 813,238 L 814,238 L 814,237 L 815,237 L 816,236 L 817,236 L 818,236 L 819,236 L 820,236 L 821,236 L 821,235 L 822,235 L 822,234 L 822,235 L 823,236 L 823,237 L 824,237 L 824,238 L 825,238 L 825,239 L 826,239 L 826,240 L 825,241 L 825,242 L 824,243 L 824,244 L 825,245 L 825,246 L 826,246 L 826,247 L 825,247 L 825,248 L 824,248 L 824,249 L 824,250 L 823,251 L 823,252 L 824,253 L 825,253 L 826,253 L 827,253 L 827,252 L 828,252 L 828,251 L 829,250 L 830,250 L 831,250 L 832,250 L 833,250 L 834,249 L 835,249 L 836,248 L 837,248 L 837,249 L 837,250 L 838,250 L 838,249 L 839,249 L 841,247 L 841,246 L 842,246 L 842,245 L 843,245 " />
<path d="M 469,206 L 469,205 L 469,206 " />
<path d="M 478,200 L 478,199 L 478,200 " />
<path d="M 479,200 L 479,199 L 479,200 " />
<path d="M 446,163 L 446,164 L 445,164 L 444,164 L 444,163 L 445,163 L 446,163 L 447,163 L 446,163 " />
<path d="M 443,162 L 444,162 L 444,163 L 443,163 L 443,162 " />
<path d="M 453,158 L 453,157 L 454,157 L 453,158 " />
<path d="M 453,155 L 453,154 L 453,155 " />
<path d="M 453,151 L 452,151 L 452,152 L 452,153 L 451,153 L 451,154 L 451,155 L 450,156 L 450,157 L 450,158 L 449,158 L 449,159 L 450,159 L 450,158 L 451,157 L 451,156 L 452,156 L 452,155 L 453,155 L 454,155 L 454,156 L 454,157 L 453,157 L 453,156 L 453,157 L 452,157 L 453,157 L 453,158 L 452,158 L 451,158 L 451,159 L 451,158 L 450,158 L 450,159 L 450,160 L 449,160 L 449,159 L 449,160 L 448,160 L 448,161 L 447,161 L 447,162 L 446,162 L 446,163 L 445,163 L 444,163 L 444,162 L 445,162 L 446,162 L 446,161 L 447,161 L 447,160 L 448,160 L 448,159 L 449,159 L 449,158 L 449,157 L 450,157 L 450,156 L 450,155 L 451,155 L 451,154 L 451,153 L 452,152 L 452,151 L 453,151 L 454,151 L 453,151 " />
<path d="M 510,126 L 511,126 L 511,127 L 510,127 L 510,128 L 510,127 L 510,126 " />
<path d="M 501,108 L 501,109 L 500,109 L 500,108 L 501,108 " />
<path d="M 604,104 L 604,103 L 604,104 " />
</g>
</g>
</g>
<!-- QGIS extent for clipping, eg in Inkscape -->
<g id="qgisviewbox" inkscape:groupmode="layer" inkscape:label="qgisviewbox" stroke="rgb(255,0,0)" stroke-width="1" fill="none" >
<path d="M 0,882 L 1443,882 L 1443,0 L 0,0 L 0,882 " />
</g></svg>