<?xml version="1.0" standalone="no"?>
<!DOCTYPE svg PUBLIC "-//W3C//DTD SVG 1.1//EN" "http://www.w3.org/Graphics/SVG/1.1/DTD/svg11.dtd">
<svg xmlns="http://www.w3.org/2000/svg" xmlns:inkscape="http://www.inkscape.org/namespaces/inkscape" xmlns:xlink="http://www.w3.org/1999/xlink" viewBox = "0 0 1447 886" version = "1.1">
<!-- svg generated using QGIS www.qgis.org -->
<g id="dytiki-makedonia" inkscape:groupmode="layer" inkscape:label="dytiki-makedonia">
<g stroke="none" fill="rgb(165,215,159)" stroke-linejoin="round" stroke-width="0.26">
<g id="dytiki-makedonia_1" >
<path d="M 552,461 L 551,462 L 551,463 L 552,464 L 552,465 L 552,466 L 552,467 L 553,469 L 553,470 L 552,471 L 552,472 L 552,473 L 551,473 L 551,474 L 551,475 L 550,475 L 550,476 L 548,481 L 548,482 L 548,483 L 547,484 L 547,486 L 547,487 L 547,488 L 546,489 L 546,490 L 546,491 L 547,492 L 547,493 L 548,494 L 549,494 L 549,495 L 550,495 L 550,496 L 549,496 L 549,497 L 548,498 L 548,499 L 548,500 L 548,501 L 547,501 L 547,502 L 547,503 L 548,503 L 548,504 L 549,505 L 550,505 L 551,505 L 552,506 L 553,506 L 553,507 L 554,507 L 553,507 L 553,508 L 553,509 L 553,510 L 554,510 L 554,511 L 555,512 L 555,513 L 555,514 L 555,515 L 554,515 L 554,516 L 554,517 L 554,518 L 554,519 L 554,520 L 554,521 L 555,522 L 555,523 L 554,524 L 554,526 L 553,529 L 552,529 L 551,530 L 550,531 L 549,532 L 549,533 L 548,534 L 547,535 L 547,536 L 547,537 L 547,538 L 547,539 L 546,540 L 545,541 L 544,542 L 543,542 L 542,543 L 540,543 L 539,544 L 537,544 L 535,545 L 536,546 L 536,547 L 537,547 L 538,547 L 539,547 L 540,548 L 541,548 L 541,549 L 541,550 L 540,551 L 539,552 L 539,554 L 537,556 L 537,557 L 537,558 L 536,559 L 535,560 L 533,560 L 531,561 L 530,561 L 529,561 L 528,561 L 527,561 L 526,561 L 526,560 L 525,560 L 525,559 L 524,559 L 524,558 L 523,558 L 522,558 L 520,558 L 519,558 L 518,558 L 518,557 L 517,557 L 517,556 L 517,555 L 517,554 L 516,553 L 516,551 L 516,550 L 516,549 L 516,548 L 515,547 L 514,546 L 514,545 L 514,543 L 514,542 L 514,541 L 514,540 L 515,537 L 515,536 L 515,535 L 515,534 L 515,533 L 515,532 L 514,532 L 514,531 L 513,531 L 512,531 L 511,531 L 509,531 L 508,531 L 507,531 L 507,530 L 507,529 L 508,528 L 509,527 L 510,527 L 510,526 L 511,526 L 511,525 L 512,525 L 512,524 L 512,523 L 512,522 L 512,521 L 511,521 L 511,520 L 510,519 L 509,518 L 509,517 L 508,516 L 508,515 L 507,515 L 506,514 L 505,513 L 504,513 L 502,512 L 501,511 L 501,510 L 501,509 L 500,507 L 500,506 L 499,505 L 499,504 L 499,503 L 499,502 L 499,501 L 499,500 L 498,499 L 498,498 L 497,497 L 497,496 L 497,495 L 497,494 L 496,494 L 496,493 L 495,493 L 493,492 L 492,492 L 492,491 L 491,491 L 490,491 L 490,490 L 489,490 L 489,489 L 489,488 L 489,487 L 489,486 L 489,485 L 489,484 L 489,482 L 489,481 L 489,480 L 488,480 L 488,479 L 486,477 L 485,476 L 484,474 L 482,471 L 482,470 L 481,469 L 481,468 L 481,467 L 480,466 L 478,464 L 476,463 L 475,462 L 474,461 L 474,460 L 473,460 L 473,459 L 472,458 L 471,457 L 470,456 L 469,455 L 469,454 L 468,454 L 468,453 L 467,452 L 467,451 L 466,451 L 466,450 L 465,450 L 465,449 L 464,448 L 463,447 L 463,446 L 462,446 L 462,445 L 461,444 L 461,443 L 461,442 L 462,441 L 462,439 L 462,438 L 462,437 L 462,435 L 462,434 L 462,432 L 462,431 L 461,431 L 461,430 L 461,429 L 461,428 L 460,427 L 460,425 L 460,424 L 460,422 L 460,421 L 459,420 L 459,419 L 458,419 L 457,419 L 454,419 L 453,419 L 453,420 L 453,422 L 453,423 L 452,424 L 451,425 L 450,426 L 449,427 L 449,428 L 449,429 L 449,430 L 449,431 L 449,432 L 449,434 L 448,435 L 448,436 L 448,437 L 447,438 L 446,438 L 446,439 L 445,439 L 444,439 L 442,440 L 440,441 L 438,441 L 437,442 L 436,442 L 435,442 L 433,442 L 432,442 L 432,441 L 431,441 L 430,440 L 429,440 L 428,439 L 427,439 L 425,439 L 424,439 L 423,439 L 422,439 L 422,438 L 421,438 L 420,437 L 419,436 L 418,435 L 417,434 L 416,433 L 417,434 L 417,433 L 416,433 L 416,432 L 416,431 L 416,430 L 416,429 L 417,429 L 418,429 L 419,429 L 420,429 L 420,428 L 421,428 L 421,427 L 422,427 L 422,426 L 423,426 L 423,425 L 423,424 L 423,423 L 423,422 L 423,421 L 424,420 L 423,419 L 423,418 L 423,417 L 424,416 L 424,415 L 424,414 L 424,413 L 424,412 L 424,411 L 423,411 L 423,410 L 423,409 L 423,408 L 423,407 L 423,406 L 423,405 L 422,404 L 422,403 L 423,402 L 423,401 L 423,400 L 424,399 L 424,398 L 425,398 L 425,397 L 425,396 L 425,395 L 425,394 L 424,394 L 424,393 L 424,392 L 423,392 L 423,391 L 423,390 L 422,390 L 422,389 L 422,388 L 422,387 L 423,387 L 423,386 L 424,386 L 424,385 L 425,385 L 425,384 L 426,384 L 427,383 L 428,383 L 428,382 L 429,382 L 430,382 L 431,382 L 431,381 L 432,381 L 433,381 L 433,380 L 434,380 L 434,379 L 435,379 L 436,380 L 436,381 L 437,381 L 438,381 L 438,380 L 439,380 L 439,379 L 439,378 L 439,377 L 439,376 L 440,376 L 441,376 L 441,375 L 442,375 L 442,374 L 442,373 L 442,372 L 443,372 L 443,371 L 444,371 L 444,370 L 444,369 L 444,368 L 444,367 L 445,367 L 444,366 L 444,365 L 444,364 L 445,364 L 445,363 L 446,363 L 446,362 L 446,361 L 447,361 L 447,360 L 447,359 L 448,359 L 448,358 L 449,358 L 449,357 L 450,357 L 450,356 L 451,356 L 451,357 L 452,357 L 453,357 L 454,357 L 455,357 L 455,358 L 456,358 L 457,359 L 458,360 L 458,361 L 459,361 L 460,361 L 461,361 L 461,362 L 462,362 L 463,362 L 464,362 L 464,361 L 465,361 L 466,361 L 466,360 L 467,360 L 467,361 L 468,361 L 469,361 L 469,360 L 470,360 L 471,360 L 472,360 L 473,361 L 473,360 L 474,360 L 475,360 L 475,361 L 476,361 L 477,360 L 478,360 L 479,360 L 480,360 L 480,361 L 481,361 L 481,362 L 482,362 L 483,363 L 483,364 L 483,365 L 484,365 L 485,366 L 486,366 L 486,367 L 487,367 L 487,368 L 488,368 L 489,368 L 490,368 L 491,368 L 491,367 L 492,367 L 493,367 L 494,367 L 495,367 L 495,366 L 496,366 L 497,366 L 498,365 L 499,365 L 500,365 L 501,364 L 500,364 L 500,363 L 499,363 L 499,362 L 500,362 L 500,361 L 500,360 L 501,360 L 501,359 L 502,359 L 502,358 L 502,357 L 503,357 L 503,356 L 503,355 L 504,355 L 505,355 L 506,355 L 506,354 L 507,354 L 507,353 L 507,352 L 507,351 L 507,350 L 507,349 L 507,348 L 507,347 L 507,346 L 506,346 L 506,345 L 506,344 L 506,343 L 505,343 L 505,342 L 505,341 L 506,341 L 506,340 L 505,340 L 505,339 L 506,339 L 506,338 L 507,338 L 507,337 L 507,336 L 507,335 L 508,335 L 508,334 L 509,334 L 509,335 L 510,335 L 511,335 L 511,334 L 511,333 L 512,333 L 512,332 L 513,332 L 513,331 L 514,331 L 515,330 L 516,330 L 516,329 L 517,329 L 518,329 L 518,328 L 519,328 L 520,327 L 521,327 L 521,326 L 522,326 L 523,326 L 523,325 L 523,324 L 523,323 L 522,323 L 521,322 L 522,322 L 522,321 L 523,321 L 523,320 L 524,320 L 524,319 L 524,318 L 525,318 L 525,317 L 525,316 L 526,315 L 526,316 L 527,316 L 528,316 L 528,315 L 529,315 L 529,314 L 530,314 L 531,314 L 532,314 L 532,313 L 533,313 L 534,313 L 535,313 L 535,314 L 536,314 L 537,314 L 538,314 L 539,314 L 540,314 L 540,313 L 541,313 L 542,313 L 543,312 L 542,312 L 542,311 L 542,310 L 543,310 L 543,309 L 543,308 L 543,307 L 544,307 L 544,306 L 544,305 L 545,305 L 545,304 L 544,304 L 544,303 L 544,302 L 545,302 L 545,301 L 545,300 L 544,300 L 544,299 L 544,298 L 544,297 L 543,297 L 543,296 L 543,295 L 543,294 L 542,294 L 542,293 L 542,292 L 543,292 L 543,291 L 544,291 L 545,291 L 545,290 L 545,289 L 545,288 L 546,288 L 546,287 L 546,286 L 546,285 L 545,285 L 545,284 L 545,283 L 545,282 L 545,281 L 545,280 L 545,279 L 546,279 L 546,278 L 547,278 L 548,278 L 549,278 L 550,278 L 550,279 L 551,279 L 551,280 L 552,281 L 552,282 L 552,283 L 553,283 L 553,284 L 553,285 L 554,285 L 555,286 L 556,286 L 557,286 L 558,285 L 559,285 L 560,285 L 561,285 L 562,285 L 562,284 L 563,284 L 564,284 L 565,283 L 566,283 L 567,283 L 568,283 L 569,283 L 570,283 L 571,283 L 572,283 L 573,283 L 574,283 L 574,282 L 574,281 L 575,280 L 575,279 L 576,279 L 577,278 L 578,277 L 579,276 L 581,275 L 583,274 L 584,273 L 585,273 L 586,273 L 586,272 L 587,272 L 588,272 L 588,271 L 589,271 L 590,270 L 591,269 L 591,268 L 592,268 L 592,267 L 593,267 L 593,266 L 594,266 L 595,265 L 596,264 L 597,263 L 598,264 L 599,264 L 600,264 L 601,264 L 602,264 L 603,264 L 604,263 L 606,263 L 607,263 L 608,263 L 609,263 L 610,262 L 611,262 L 611,261 L 612,261 L 612,260 L 613,260 L 613,259 L 614,259 L 614,258 L 615,256 L 616,256 L 616,255 L 617,254 L 617,253 L 618,253 L 619,252 L 619,251 L 620,250 L 620,249 L 621,248 L 621,247 L 622,246 L 622,245 L 623,245 L 623,244 L 623,243 L 624,242 L 624,241 L 624,240 L 624,239 L 624,238 L 624,236 L 624,235 L 624,234 L 625,233 L 625,232 L 625,231 L 626,230 L 626,229 L 626,228 L 627,227 L 628,227 L 628,226 L 629,226 L 630,226 L 630,225 L 631,224 L 631,223 L 632,223 L 632,222 L 632,221 L 632,220 L 632,219 L 633,219 L 633,218 L 634,217 L 634,216 L 634,215 L 634,214 L 635,214 L 635,213 L 635,212 L 635,211 L 636,210 L 636,209 L 636,208 L 636,207 L 636,206 L 637,205 L 637,204 L 637,203 L 637,202 L 638,202 L 638,201 L 638,200 L 639,200 L 639,199 L 640,199 L 640,200 L 641,200 L 642,200 L 643,200 L 644,200 L 645,201 L 646,201 L 647,202 L 647,203 L 648,203 L 648,204 L 649,205 L 650,206 L 650,207 L 650,208 L 650,209 L 651,209 L 651,210 L 652,210 L 653,211 L 654,211 L 654,212 L 655,212 L 656,213 L 657,214 L 658,214 L 658,215 L 659,215 L 659,216 L 660,216 L 661,217 L 662,217 L 662,218 L 661,218 L 661,219 L 660,219 L 659,219 L 659,220 L 658,220 L 658,221 L 657,221 L 657,222 L 657,223 L 657,224 L 657,225 L 656,225 L 655,225 L 654,225 L 653,225 L 653,226 L 653,227 L 653,228 L 654,228 L 654,229 L 654,230 L 654,231 L 655,232 L 656,233 L 657,234 L 658,234 L 658,235 L 658,236 L 659,236 L 659,237 L 660,238 L 660,239 L 660,240 L 661,240 L 662,240 L 663,240 L 664,240 L 665,240 L 666,240 L 667,240 L 668,241 L 669,241 L 670,241 L 671,241 L 672,242 L 672,241 L 673,240 L 673,239 L 674,238 L 674,237 L 674,236 L 674,235 L 674,234 L 674,233 L 674,232 L 674,231 L 674,230 L 673,229 L 673,228 L 674,228 L 675,229 L 676,229 L 676,230 L 677,231 L 678,231 L 678,232 L 679,232 L 680,233 L 680,234 L 681,234 L 681,235 L 682,235 L 682,236 L 683,236 L 683,237 L 684,237 L 685,237 L 686,238 L 687,238 L 688,238 L 689,238 L 689,239 L 690,239 L 691,240 L 691,241 L 692,242 L 691,243 L 691,244 L 692,244 L 692,245 L 692,246 L 692,247 L 692,248 L 693,248 L 694,248 L 694,249 L 695,249 L 695,250 L 696,250 L 697,250 L 698,251 L 699,251 L 699,252 L 700,252 L 700,253 L 700,254 L 701,254 L 701,255 L 701,256 L 702,256 L 702,257 L 702,258 L 702,259 L 702,260 L 702,261 L 701,261 L 701,262 L 701,263 L 701,264 L 701,265 L 700,265 L 700,266 L 700,267 L 699,267 L 699,268 L 698,268 L 698,269 L 698,270 L 698,271 L 698,272 L 699,272 L 699,273 L 699,274 L 699,275 L 700,276 L 700,277 L 700,278 L 700,279 L 699,279 L 699,280 L 699,281 L 699,282 L 699,283 L 699,284 L 698,285 L 699,288 L 699,291 L 699,292 L 700,292 L 700,293 L 701,293 L 701,294 L 702,295 L 702,296 L 703,296 L 703,297 L 704,298 L 704,297 L 705,297 L 706,296 L 707,297 L 708,297 L 709,297 L 709,298 L 710,298 L 710,299 L 711,299 L 711,298 L 711,297 L 711,296 L 711,295 L 711,294 L 711,293 L 711,292 L 712,291 L 712,290 L 713,290 L 713,289 L 714,289 L 715,289 L 716,289 L 717,289 L 717,290 L 718,290 L 719,290 L 719,291 L 720,291 L 721,291 L 721,292 L 722,292 L 723,292 L 723,291 L 724,291 L 725,291 L 725,290 L 726,290 L 727,290 L 728,290 L 728,291 L 729,291 L 729,292 L 729,293 L 730,294 L 730,295 L 731,295 L 731,296 L 732,296 L 732,297 L 732,298 L 731,298 L 731,299 L 731,300 L 730,301 L 730,302 L 731,302 L 731,303 L 731,304 L 732,304 L 732,305 L 732,306 L 732,307 L 733,308 L 734,309 L 735,309 L 735,310 L 736,310 L 736,311 L 737,312 L 738,313 L 738,314 L 739,314 L 740,314 L 741,314 L 742,314 L 742,315 L 743,315 L 743,314 L 744,314 L 745,314 L 745,313 L 746,313 L 747,313 L 748,312 L 749,312 L 749,313 L 750,313 L 750,314 L 749,314 L 749,315 L 748,316 L 747,317 L 748,317 L 748,318 L 748,319 L 748,320 L 748,321 L 749,322 L 749,323 L 749,324 L 749,325 L 749,326 L 749,327 L 749,328 L 749,329 L 748,329 L 748,330 L 748,331 L 748,332 L 748,333 L 748,334 L 749,334 L 749,335 L 749,336 L 748,337 L 748,338 L 749,338 L 749,339 L 750,340 L 751,340 L 752,340 L 752,339 L 753,339 L 754,339 L 755,339 L 756,339 L 756,340 L 756,341 L 756,342 L 757,343 L 757,344 L 758,346 L 758,347 L 759,347 L 759,348 L 758,348 L 758,349 L 757,349 L 756,350 L 755,350 L 754,350 L 754,351 L 753,351 L 753,352 L 752,352 L 752,353 L 752,354 L 751,354 L 751,355 L 750,355 L 748,355 L 747,355 L 747,356 L 746,356 L 746,357 L 746,358 L 746,359 L 746,360 L 746,361 L 746,362 L 746,363 L 746,364 L 745,364 L 745,363 L 744,363 L 744,362 L 743,362 L 742,362 L 742,363 L 742,364 L 741,364 L 741,365 L 741,366 L 740,367 L 739,368 L 739,369 L 738,369 L 738,370 L 737,371 L 736,372 L 736,373 L 736,374 L 736,375 L 736,376 L 736,377 L 736,378 L 737,378 L 737,379 L 738,379 L 738,380 L 739,380 L 739,381 L 738,381 L 738,382 L 737,382 L 736,383 L 736,384 L 736,385 L 735,386 L 735,387 L 735,388 L 736,389 L 736,390 L 736,391 L 736,392 L 736,393 L 736,394 L 736,395 L 736,396 L 735,397 L 735,398 L 734,398 L 734,399 L 733,400 L 733,401 L 732,401 L 732,402 L 732,403 L 732,404 L 731,404 L 731,405 L 731,406 L 731,407 L 731,408 L 730,408 L 730,409 L 729,409 L 728,410 L 727,411 L 726,412 L 725,413 L 724,413 L 724,414 L 723,414 L 722,414 L 721,414 L 720,415 L 719,416 L 718,417 L 717,417 L 716,417 L 716,416 L 715,416 L 715,415 L 714,415 L 713,414 L 712,414 L 711,415 L 711,416 L 710,416 L 710,417 L 709,418 L 709,419 L 708,419 L 708,420 L 708,421 L 708,422 L 708,423 L 707,423 L 707,424 L 707,425 L 707,426 L 706,426 L 706,427 L 706,428 L 705,428 L 705,429 L 704,429 L 703,430 L 703,431 L 702,431 L 701,431 L 701,430 L 700,430 L 699,430 L 698,430 L 697,430 L 696,430 L 695,429 L 695,428 L 694,428 L 693,428 L 693,429 L 692,429 L 691,429 L 690,429 L 689,429 L 688,429 L 687,429 L 686,429 L 685,429 L 685,428 L 684,428 L 685,428 L 688,427 L 689,427 L 690,427 L 690,426 L 690,425 L 689,425 L 689,424 L 689,423 L 688,423 L 687,422 L 687,421 L 686,421 L 686,420 L 686,419 L 685,419 L 684,419 L 683,419 L 683,418 L 683,417 L 683,416 L 683,415 L 684,415 L 685,415 L 686,416 L 687,416 L 687,415 L 687,414 L 686,414 L 686,413 L 685,413 L 685,412 L 684,412 L 683,411 L 682,410 L 683,410 L 683,409 L 684,409 L 685,409 L 685,408 L 685,407 L 684,407 L 683,407 L 682,407 L 681,407 L 681,406 L 680,406 L 679,406 L 678,405 L 677,405 L 677,404 L 677,403 L 678,403 L 678,402 L 677,402 L 677,401 L 676,401 L 675,401 L 675,402 L 674,402 L 674,403 L 674,404 L 675,404 L 675,405 L 675,406 L 674,406 L 674,407 L 673,407 L 673,406 L 672,406 L 672,405 L 671,405 L 671,404 L 670,403 L 670,402 L 669,401 L 669,402 L 669,403 L 669,404 L 670,404 L 670,405 L 670,406 L 669,407 L 669,408 L 669,409 L 668,410 L 668,411 L 668,412 L 668,413 L 667,414 L 667,415 L 667,416 L 666,416 L 666,417 L 665,417 L 664,417 L 663,418 L 662,418 L 661,419 L 660,419 L 659,419 L 659,420 L 658,421 L 658,422 L 657,422 L 657,423 L 657,424 L 657,425 L 657,426 L 656,426 L 656,427 L 655,427 L 654,427 L 653,428 L 652,428 L 651,429 L 650,429 L 650,430 L 649,430 L 649,431 L 648,432 L 648,433 L 647,434 L 646,434 L 645,434 L 644,434 L 644,433 L 643,432 L 642,432 L 642,431 L 641,431 L 640,431 L 639,431 L 638,430 L 639,430 L 639,429 L 640,425 L 640,424 L 640,423 L 640,422 L 640,421 L 639,421 L 639,420 L 640,420 L 640,419 L 639,419 L 639,420 L 638,420 L 637,420 L 636,420 L 635,420 L 634,420 L 634,419 L 633,419 L 632,418 L 631,417 L 631,416 L 630,415 L 630,414 L 630,413 L 630,412 L 629,412 L 629,411 L 628,411 L 628,412 L 627,412 L 626,413 L 626,414 L 625,415 L 625,416 L 625,417 L 624,417 L 624,418 L 623,418 L 623,419 L 622,419 L 622,420 L 621,420 L 620,421 L 619,421 L 619,422 L 619,423 L 619,424 L 620,424 L 622,424 L 623,424 L 623,425 L 624,425 L 624,426 L 625,426 L 625,427 L 624,427 L 624,428 L 623,429 L 623,430 L 622,430 L 622,431 L 623,431 L 623,432 L 624,433 L 625,433 L 625,434 L 626,434 L 625,434 L 625,435 L 624,435 L 624,436 L 623,437 L 622,438 L 622,439 L 621,439 L 621,440 L 621,441 L 621,442 L 621,443 L 621,444 L 620,444 L 619,444 L 618,444 L 618,443 L 617,443 L 616,443 L 615,443 L 614,443 L 613,443 L 613,442 L 612,442 L 611,442 L 610,442 L 609,441 L 608,441 L 607,441 L 606,441 L 605,441 L 603,441 L 602,441 L 602,440 L 601,440 L 600,439 L 599,439 L 599,438 L 598,438 L 598,437 L 597,436 L 597,435 L 596,435 L 595,435 L 595,436 L 594,437 L 594,438 L 593,438 L 593,439 L 592,439 L 591,438 L 590,438 L 590,437 L 589,437 L 588,437 L 587,437 L 586,437 L 585,437 L 584,437 L 584,438 L 583,438 L 583,439 L 583,440 L 583,441 L 583,442 L 582,442 L 582,443 L 581,443 L 581,444 L 580,444 L 579,444 L 579,443 L 578,443 L 577,443 L 577,442 L 577,443 L 576,443 L 575,444 L 575,445 L 574,445 L 574,446 L 574,447 L 573,447 L 572,447 L 571,447 L 570,447 L 569,447 L 568,447 L 567,447 L 566,448 L 565,448 L 564,448 L 563,448 L 561,448 L 560,448 L 559,448 L 558,449 L 558,450 L 558,451 L 558,452 L 558,453 L 558,454 L 558,455 L 558,456 L 557,456 L 557,457 L 556,457 L 556,458 L 555,458 L 555,459 L 554,459 L 554,460 L 553,460 L 552,461 " />
</g>
<g id="dytiki-makedonia_2" >
<path d="M 853,146 L 853,147 L 853,148 L 854,148 L 854,149 L 855,150 L 856,151 L 857,152 L 857,153 L 858,153 L 858,154 L 858,155 L 858,156 L 859,156 L 859,157 L 860,158 L 860,159 L 861,159 L 862,159 L 862,160 L 863,160 L 863,161 L 864,161 L 864,162 L 865,162 L 865,163 L 865,165 L 866,166 L 866,167 L 866,168 L 866,169 L 866,170 L 866,171 L 865,171 L 865,172 L 864,172 L 864,173 L 863,173 L 863,174 L 864,175 L 865,176 L 865,177 L 866,178 L 866,179 L 866,180 L 866,181 L 865,181 L 865,182 L 864,182 L 864,183 L 864,184 L 863,184 L 862,184 L 861,185 L 861,186 L 862,186 L 862,187 L 863,188 L 864,188 L 864,189 L 865,189 L 866,189 L 866,190 L 867,191 L 867,192 L 868,192 L 868,193 L 869,193 L 869,192 L 870,192 L 870,191 L 871,191 L 872,191 L 873,191 L 874,191 L 874,192 L 875,192 L 876,191 L 876,190 L 877,190 L 878,190 L 879,190 L 880,190 L 881,190 L 882,190 L 883,191 L 884,191 L 885,191 L 886,192 L 887,192 L 888,192 L 888,193 L 889,193 L 890,194 L 890,195 L 890,196 L 889,196 L 889,197 L 888,198 L 888,200 L 887,200 L 887,201 L 886,202 L 886,203 L 886,204 L 885,205 L 885,206 L 884,206 L 884,207 L 884,208 L 884,209 L 883,210 L 883,211 L 882,211 L 882,212 L 883,212 L 883,213 L 884,213 L 885,213 L 885,214 L 886,214 L 887,214 L 887,215 L 888,216 L 889,217 L 890,217 L 890,218 L 891,218 L 892,219 L 893,219 L 893,220 L 894,220 L 895,221 L 896,222 L 896,223 L 897,223 L 897,224 L 897,225 L 897,227 L 897,228 L 897,229 L 897,230 L 898,230 L 898,231 L 898,232 L 898,233 L 897,233 L 897,234 L 897,235 L 897,236 L 897,237 L 898,237 L 898,238 L 899,238 L 899,239 L 900,240 L 901,240 L 900,240 L 900,241 L 899,241 L 898,241 L 897,241 L 897,242 L 896,242 L 895,242 L 894,242 L 893,242 L 892,242 L 892,243 L 892,244 L 892,245 L 892,246 L 892,247 L 892,248 L 893,249 L 893,250 L 893,251 L 892,252 L 892,253 L 891,254 L 891,255 L 891,256 L 890,257 L 890,258 L 889,259 L 888,259 L 888,260 L 887,260 L 886,261 L 885,261 L 885,262 L 884,262 L 885,262 L 885,263 L 885,264 L 886,265 L 887,266 L 887,267 L 888,267 L 888,268 L 888,269 L 888,270 L 889,270 L 889,271 L 890,271 L 890,272 L 890,273 L 889,274 L 889,275 L 888,275 L 888,276 L 887,278 L 887,279 L 886,279 L 886,280 L 886,281 L 885,282 L 885,283 L 885,284 L 885,285 L 884,286 L 884,287 L 883,287 L 883,288 L 883,289 L 882,289 L 882,290 L 881,291 L 880,291 L 880,292 L 879,292 L 879,293 L 878,293 L 877,294 L 876,294 L 874,294 L 874,295 L 873,295 L 872,295 L 871,295 L 870,295 L 869,295 L 869,296 L 868,296 L 867,296 L 867,295 L 866,295 L 865,295 L 865,296 L 864,296 L 863,296 L 862,296 L 862,297 L 861,297 L 861,298 L 860,298 L 859,298 L 859,297 L 854,294 L 854,295 L 853,295 L 853,296 L 852,296 L 852,297 L 853,297 L 853,298 L 853,299 L 853,300 L 853,301 L 853,302 L 852,303 L 851,303 L 850,303 L 849,303 L 848,303 L 847,303 L 846,303 L 845,303 L 844,303 L 843,302 L 842,301 L 841,301 L 840,301 L 840,300 L 839,300 L 838,300 L 837,299 L 836,299 L 835,299 L 834,299 L 833,299 L 832,299 L 831,300 L 830,300 L 829,300 L 829,301 L 828,301 L 827,302 L 826,302 L 826,301 L 825,301 L 825,300 L 824,300 L 823,299 L 822,299 L 821,299 L 820,299 L 819,299 L 818,299 L 817,299 L 817,300 L 817,301 L 817,302 L 817,303 L 817,304 L 816,304 L 815,304 L 814,304 L 814,303 L 813,303 L 812,303 L 811,303 L 810,303 L 809,303 L 808,303 L 807,303 L 806,303 L 805,303 L 804,304 L 803,304 L 802,305 L 800,305 L 799,305 L 798,305 L 797,305 L 796,305 L 795,305 L 793,305 L 792,305 L 791,306 L 790,306 L 789,307 L 788,307 L 787,308 L 786,308 L 785,308 L 784,309 L 782,310 L 780,311 L 779,312 L 779,313 L 778,313 L 778,314 L 777,315 L 777,316 L 776,316 L 776,317 L 775,317 L 775,318 L 774,318 L 773,318 L 773,319 L 771,319 L 770,320 L 769,320 L 768,321 L 767,321 L 767,322 L 766,322 L 766,323 L 766,324 L 767,324 L 767,325 L 768,325 L 768,326 L 768,327 L 768,328 L 768,329 L 768,330 L 768,331 L 768,332 L 767,332 L 767,333 L 766,333 L 766,334 L 765,334 L 765,335 L 764,336 L 764,337 L 763,337 L 763,338 L 762,338 L 761,338 L 760,339 L 760,340 L 759,340 L 758,340 L 757,339 L 756,339 L 755,339 L 754,339 L 753,339 L 752,339 L 752,340 L 751,340 L 750,340 L 749,339 L 749,338 L 748,338 L 748,337 L 749,336 L 749,335 L 749,334 L 748,334 L 748,333 L 748,332 L 748,331 L 748,330 L 748,329 L 749,329 L 749,328 L 749,327 L 749,326 L 749,325 L 749,324 L 749,323 L 749,322 L 748,321 L 748,320 L 748,319 L 748,318 L 748,317 L 747,317 L 748,316 L 749,315 L 749,314 L 750,314 L 750,313 L 749,313 L 749,312 L 748,312 L 747,313 L 746,313 L 745,313 L 745,314 L 744,314 L 743,314 L 743,315 L 742,315 L 742,314 L 741,314 L 740,314 L 739,314 L 738,314 L 738,313 L 737,312 L 736,311 L 736,310 L 735,310 L 735,309 L 734,309 L 733,308 L 732,307 L 732,306 L 732,305 L 732,304 L 731,304 L 731,303 L 731,302 L 730,302 L 730,301 L 731,300 L 731,299 L 731,298 L 732,298 L 732,297 L 732,296 L 731,296 L 731,295 L 730,295 L 730,294 L 729,293 L 729,292 L 729,291 L 728,291 L 728,290 L 727,290 L 726,290 L 725,290 L 725,291 L 724,291 L 723,291 L 723,292 L 722,292 L 721,292 L 721,291 L 720,291 L 719,291 L 719,290 L 718,290 L 717,290 L 717,289 L 716,289 L 715,289 L 714,289 L 713,289 L 713,290 L 712,290 L 712,291 L 711,292 L 711,293 L 711,294 L 711,295 L 711,296 L 711,297 L 711,298 L 711,299 L 710,299 L 710,298 L 709,298 L 709,297 L 708,297 L 707,297 L 706,296 L 705,297 L 704,297 L 704,298 L 703,297 L 703,296 L 702,296 L 702,295 L 701,294 L 701,293 L 700,293 L 700,292 L 699,292 L 699,291 L 699,288 L 698,285 L 699,284 L 699,283 L 699,282 L 699,281 L 699,280 L 699,279 L 700,279 L 700,278 L 700,277 L 700,276 L 699,275 L 699,274 L 699,273 L 699,272 L 698,272 L 698,271 L 698,270 L 698,269 L 698,268 L 699,268 L 699,267 L 700,267 L 700,266 L 700,265 L 701,265 L 701,264 L 701,263 L 701,262 L 701,261 L 702,261 L 702,260 L 702,259 L 702,258 L 702,257 L 702,256 L 701,256 L 701,255 L 701,254 L 700,254 L 700,253 L 700,252 L 699,252 L 699,251 L 698,251 L 697,250 L 696,250 L 695,250 L 695,249 L 694,249 L 694,248 L 693,248 L 692,248 L 692,247 L 692,246 L 692,245 L 692,244 L 691,244 L 691,243 L 692,242 L 691,241 L 691,240 L 690,239 L 689,239 L 689,238 L 688,238 L 687,238 L 686,238 L 685,237 L 684,237 L 683,237 L 683,236 L 682,236 L 682,235 L 681,235 L 681,234 L 680,234 L 680,233 L 679,232 L 678,232 L 678,231 L 677,231 L 676,230 L 676,229 L 675,229 L 674,228 L 673,228 L 673,229 L 674,230 L 674,231 L 674,232 L 674,233 L 674,234 L 674,235 L 674,236 L 674,237 L 674,238 L 673,239 L 673,240 L 672,241 L 672,242 L 671,241 L 670,241 L 669,241 L 668,241 L 667,240 L 666,240 L 665,240 L 664,240 L 663,240 L 662,240 L 661,240 L 660,240 L 660,239 L 660,238 L 659,237 L 659,236 L 658,236 L 658,235 L 658,234 L 657,234 L 656,233 L 655,232 L 654,231 L 654,230 L 654,229 L 654,228 L 653,228 L 653,227 L 653,226 L 653,225 L 654,225 L 655,225 L 656,225 L 657,225 L 657,224 L 657,223 L 657,222 L 657,221 L 658,221 L 658,220 L 659,220 L 659,219 L 660,219 L 661,219 L 661,218 L 662,218 L 662,217 L 661,217 L 660,216 L 659,216 L 659,215 L 658,215 L 658,214 L 657,214 L 656,213 L 655,212 L 654,212 L 654,211 L 653,211 L 652,210 L 651,210 L 651,209 L 650,209 L 650,208 L 650,207 L 650,206 L 649,205 L 648,204 L 648,203 L 647,203 L 647,202 L 646,201 L 645,201 L 644,200 L 643,200 L 642,200 L 641,200 L 640,200 L 640,199 L 639,199 L 639,200 L 638,200 L 638,201 L 638,202 L 637,202 L 637,203 L 637,204 L 637,205 L 636,206 L 636,207 L 636,208 L 636,209 L 636,210 L 635,211 L 635,212 L 635,213 L 635,214 L 634,214 L 634,215 L 634,216 L 634,217 L 633,218 L 633,219 L 632,219 L 632,220 L 632,221 L 632,222 L 632,223 L 631,223 L 631,224 L 630,225 L 630,226 L 629,226 L 628,226 L 628,227 L 627,227 L 626,228 L 626,229 L 626,230 L 625,231 L 625,232 L 625,233 L 624,234 L 624,235 L 624,236 L 624,238 L 624,239 L 624,240 L 624,241 L 624,242 L 623,243 L 623,244 L 623,245 L 622,245 L 622,246 L 621,247 L 621,248 L 620,249 L 620,250 L 619,251 L 619,252 L 618,253 L 617,253 L 617,254 L 616,255 L 616,256 L 615,256 L 614,258 L 614,259 L 613,259 L 613,260 L 612,260 L 612,261 L 611,261 L 611,262 L 610,262 L 609,263 L 608,263 L 607,263 L 606,263 L 604,263 L 603,264 L 602,264 L 601,264 L 600,264 L 599,264 L 598,264 L 597,263 L 596,264 L 595,265 L 594,266 L 593,266 L 593,267 L 592,267 L 592,268 L 591,268 L 591,269 L 590,270 L 589,271 L 588,271 L 588,272 L 587,272 L 586,272 L 586,273 L 585,273 L 584,273 L 583,274 L 581,275 L 579,276 L 578,277 L 577,278 L 576,279 L 575,279 L 575,280 L 574,281 L 574,282 L 574,283 L 573,283 L 572,283 L 571,283 L 570,283 L 569,283 L 568,283 L 567,283 L 566,283 L 565,283 L 564,284 L 563,284 L 562,284 L 562,285 L 561,285 L 560,285 L 559,285 L 558,285 L 557,286 L 556,286 L 555,286 L 554,285 L 553,285 L 553,284 L 553,283 L 552,283 L 552,282 L 552,281 L 551,280 L 551,279 L 550,279 L 550,278 L 550,277 L 550,276 L 550,275 L 550,274 L 550,273 L 550,272 L 550,271 L 549,271 L 549,270 L 549,269 L 549,268 L 548,268 L 548,267 L 548,266 L 549,265 L 549,264 L 549,263 L 549,262 L 549,261 L 549,260 L 550,260 L 550,259 L 550,258 L 550,257 L 550,256 L 550,255 L 550,254 L 550,253 L 551,253 L 551,252 L 551,251 L 551,250 L 551,249 L 551,248 L 551,247 L 551,246 L 550,246 L 550,245 L 550,244 L 549,244 L 549,243 L 548,243 L 548,242 L 548,241 L 547,241 L 547,240 L 546,240 L 546,239 L 546,238 L 545,238 L 545,237 L 545,236 L 544,236 L 544,235 L 544,234 L 543,234 L 543,233 L 543,232 L 543,231 L 542,231 L 542,230 L 542,229 L 541,229 L 541,228 L 540,228 L 540,227 L 540,226 L 539,226 L 539,225 L 539,224 L 538,224 L 538,223 L 537,223 L 537,222 L 537,221 L 536,221 L 536,220 L 535,220 L 535,219 L 534,219 L 534,218 L 533,217 L 533,216 L 532,216 L 532,215 L 531,215 L 531,214 L 530,214 L 530,213 L 529,213 L 529,212 L 528,212 L 528,211 L 527,211 L 527,210 L 526,210 L 525,210 L 524,209 L 523,209 L 523,208 L 522,208 L 521,208 L 521,207 L 521,206 L 520,206 L 520,205 L 519,205 L 519,204 L 519,203 L 519,202 L 519,201 L 519,200 L 520,199 L 520,198 L 520,197 L 519,197 L 519,196 L 519,195 L 520,195 L 520,194 L 520,193 L 519,193 L 519,192 L 519,191 L 519,190 L 519,189 L 518,189 L 517,189 L 516,189 L 515,189 L 514,189 L 514,188 L 513,188 L 513,187 L 512,187 L 512,186 L 511,185 L 510,185 L 510,184 L 509,184 L 508,184 L 507,184 L 507,183 L 508,183 L 509,183 L 509,182 L 510,182 L 511,182 L 511,181 L 512,181 L 512,180 L 513,180 L 514,180 L 514,179 L 515,179 L 515,178 L 516,178 L 516,177 L 517,177 L 517,176 L 518,176 L 518,175 L 518,174 L 519,173 L 520,172 L 520,171 L 520,170 L 520,169 L 520,168 L 520,167 L 520,166 L 520,165 L 520,164 L 521,164 L 521,163 L 520,163 L 520,162 L 521,161 L 521,160 L 521,159 L 521,158 L 521,157 L 521,156 L 521,155 L 521,154 L 521,153 L 521,152 L 521,151 L 521,150 L 521,149 L 521,148 L 521,147 L 521,146 L 521,145 L 521,144 L 521,143 L 521,142 L 521,141 L 521,140 L 521,139 L 521,138 L 521,137 L 521,136 L 521,135 L 521,134 L 522,134 L 523,134 L 524,134 L 525,134 L 526,134 L 527,134 L 528,134 L 529,134 L 530,134 L 531,134 L 532,134 L 533,134 L 534,134 L 535,134 L 536,134 L 537,134 L 538,134 L 539,134 L 540,134 L 540,135 L 541,135 L 542,135 L 543,135 L 544,135 L 545,135 L 546,135 L 547,135 L 548,135 L 549,135 L 550,135 L 551,135 L 552,135 L 553,135 L 554,135 L 555,135 L 556,135 L 557,135 L 558,135 L 559,135 L 560,135 L 561,135 L 562,135 L 563,135 L 564,136 L 565,136 L 566,136 L 567,136 L 568,136 L 569,136 L 570,136 L 571,136 L 572,136 L 573,136 L 574,136 L 575,136 L 576,136 L 577,136 L 578,136 L 579,136 L 580,136 L 581,136 L 582,136 L 583,136 L 584,136 L 585,136 L 586,136 L 587,136 L 587,135 L 588,135 L 588,136 L 589,136 L 590,136 L 591,136 L 592,136 L 593,136 L 594,136 L 595,136 L 595,135 L 596,135 L 597,135 L 598,135 L 599,135 L 600,135 L 600,134 L 601,134 L 601,133 L 602,133 L 602,132 L 602,131 L 603,131 L 604,131 L 605,130 L 606,130 L 606,129 L 607,129 L 607,128 L 607,127 L 608,127 L 609,127 L 609,126 L 609,125 L 610,125 L 611,125 L 611,124 L 612,124 L 613,124 L 614,124 L 615,124 L 616,124 L 617,124 L 618,124 L 618,123 L 619,123 L 620,123 L 620,122 L 621,122 L 621,121 L 622,120 L 623,120 L 624,120 L 625,120 L 626,120 L 627,120 L 627,121 L 628,121 L 629,121 L 629,122 L 630,122 L 630,123 L 631,123 L 632,123 L 633,123 L 634,123 L 634,124 L 635,124 L 636,124 L 636,125 L 637,125 L 638,125 L 638,126 L 639,126 L 640,126 L 640,127 L 641,127 L 641,128 L 641,129 L 642,129 L 642,130 L 643,130 L 643,131 L 643,132 L 643,133 L 644,133 L 645,133 L 645,134 L 646,134 L 647,134 L 647,135 L 648,135 L 648,134 L 649,134 L 650,134 L 650,133 L 651,133 L 651,132 L 652,132 L 653,132 L 654,132 L 655,132 L 656,132 L 656,133 L 657,133 L 658,133 L 659,133 L 659,132 L 660,132 L 661,132 L 662,132 L 663,132 L 664,132 L 665,132 L 666,132 L 667,132 L 668,132 L 668,131 L 669,131 L 670,131 L 671,131 L 672,131 L 673,131 L 673,130 L 674,130 L 674,129 L 675,129 L 676,129 L 677,129 L 677,130 L 678,130 L 678,129 L 679,129 L 680,129 L 681,129 L 682,129 L 682,128 L 683,128 L 684,128 L 685,128 L 686,128 L 686,127 L 687,127 L 688,127 L 688,126 L 689,126 L 690,126 L 691,126 L 691,125 L 692,125 L 693,125 L 694,125 L 694,124 L 695,124 L 695,123 L 696,123 L 696,122 L 697,122 L 698,121 L 699,121 L 699,120 L 700,120 L 700,119 L 701,119 L 701,118 L 702,118 L 702,117 L 703,117 L 703,116 L 704,116 L 704,115 L 705,115 L 706,114 L 707,114 L 707,113 L 708,113 L 708,112 L 709,112 L 709,111 L 710,111 L 710,110 L 711,110 L 711,109 L 712,109 L 713,108 L 714,108 L 714,107 L 715,107 L 715,106 L 716,106 L 716,105 L 717,105 L 717,104 L 718,104 L 718,103 L 719,103 L 719,102 L 720,102 L 721,102 L 722,102 L 723,102 L 724,103 L 725,103 L 726,103 L 727,103 L 728,103 L 729,103 L 730,103 L 731,103 L 731,104 L 732,104 L 732,105 L 733,105 L 734,105 L 734,106 L 735,106 L 736,106 L 736,107 L 737,107 L 738,107 L 738,108 L 739,108 L 739,109 L 740,109 L 741,109 L 741,110 L 742,110 L 742,109 L 743,109 L 744,109 L 745,109 L 746,109 L 746,108 L 747,108 L 748,108 L 749,108 L 750,108 L 750,107 L 751,107 L 752,107 L 753,107 L 754,107 L 755,107 L 756,107 L 757,107 L 757,108 L 758,108 L 759,108 L 760,108 L 761,108 L 762,108 L 763,108 L 763,109 L 764,109 L 765,109 L 766,109 L 767,109 L 768,109 L 769,109 L 769,108 L 769,109 L 770,109 L 770,110 L 771,110 L 772,110 L 772,111 L 773,111 L 773,112 L 773,113 L 773,114 L 774,115 L 774,116 L 775,116 L 775,117 L 776,118 L 776,119 L 777,119 L 777,120 L 778,120 L 778,121 L 779,121 L 779,122 L 779,123 L 780,124 L 780,125 L 781,125 L 781,126 L 782,126 L 782,127 L 783,127 L 784,127 L 784,128 L 785,128 L 786,128 L 786,129 L 787,129 L 787,130 L 787,131 L 787,132 L 787,133 L 787,134 L 788,135 L 789,135 L 790,135 L 791,135 L 791,134 L 792,134 L 793,134 L 794,134 L 795,134 L 795,133 L 796,133 L 796,134 L 797,134 L 798,134 L 798,135 L 799,135 L 800,135 L 800,134 L 801,134 L 801,133 L 802,133 L 802,132 L 802,131 L 802,130 L 803,130 L 803,129 L 803,128 L 804,128 L 804,127 L 805,127 L 806,127 L 806,128 L 807,128 L 807,127 L 808,127 L 808,126 L 809,126 L 809,125 L 810,125 L 810,124 L 811,123 L 812,123 L 812,122 L 813,122 L 814,122 L 814,123 L 815,123 L 816,123 L 816,122 L 817,122 L 817,121 L 818,120 L 818,119 L 818,118 L 819,118 L 820,118 L 820,117 L 821,117 L 822,117 L 822,116 L 823,116 L 824,116 L 824,115 L 825,115 L 826,115 L 827,115 L 827,116 L 828,116 L 829,116 L 830,116 L 831,116 L 831,117 L 832,117 L 832,116 L 833,116 L 834,116 L 834,117 L 835,117 L 835,116 L 835,115 L 835,114 L 836,114 L 836,113 L 836,112 L 835,112 L 835,111 L 834,110 L 835,109 L 835,108 L 834,108 L 834,107 L 833,107 L 833,106 L 833,105 L 834,105 L 834,104 L 834,103 L 835,103 L 835,102 L 835,101 L 836,101 L 836,100 L 837,99 L 838,99 L 838,98 L 839,98 L 839,97 L 840,97 L 840,96 L 841,96 L 841,95 L 841,94 L 841,93 L 842,92 L 843,92 L 844,92 L 845,92 L 846,92 L 847,92 L 847,91 L 848,92 L 849,92 L 850,92 L 850,91 L 851,91 L 852,91 L 853,91 L 853,92 L 854,93 L 855,93 L 856,94 L 857,94 L 858,94 L 858,95 L 859,95 L 860,95 L 860,96 L 861,96 L 861,97 L 862,97 L 862,98 L 863,98 L 863,99 L 864,99 L 865,99 L 865,98 L 866,98 L 867,98 L 867,99 L 868,99 L 869,99 L 870,99 L 871,99 L 871,100 L 872,100 L 873,101 L 873,102 L 874,102 L 875,102 L 876,102 L 876,101 L 877,101 L 878,101 L 878,100 L 879,100 L 880,100 L 881,100 L 882,100 L 883,100 L 884,100 L 885,100 L 886,100 L 887,100 L 888,100 L 888,99 L 889,99 L 891,100 L 892,101 L 892,102 L 893,102 L 893,103 L 894,105 L 894,107 L 894,108 L 895,108 L 895,109 L 895,110 L 896,111 L 896,112 L 897,113 L 898,112 L 899,112 L 900,113 L 901,113 L 901,114 L 902,114 L 903,114 L 904,114 L 905,114 L 906,114 L 906,115 L 907,115 L 907,116 L 907,117 L 907,118 L 908,118 L 908,119 L 907,119 L 907,120 L 906,120 L 905,121 L 904,121 L 903,122 L 901,123 L 900,124 L 898,125 L 897,125 L 896,126 L 896,127 L 896,128 L 895,129 L 895,130 L 894,130 L 893,131 L 892,131 L 891,132 L 890,132 L 889,132 L 888,132 L 888,133 L 887,133 L 886,134 L 885,135 L 884,135 L 884,136 L 883,136 L 882,137 L 881,137 L 880,137 L 879,137 L 878,137 L 877,137 L 876,137 L 875,137 L 874,138 L 873,138 L 873,139 L 872,139 L 871,139 L 871,140 L 870,140 L 869,140 L 868,140 L 867,140 L 866,141 L 865,142 L 864,143 L 864,144 L 863,144 L 862,144 L 862,143 L 861,142 L 861,141 L 862,141 L 862,140 L 862,139 L 863,139 L 863,138 L 863,137 L 863,136 L 862,136 L 861,136 L 861,135 L 860,135 L 859,135 L 858,135 L 857,135 L 856,135 L 855,135 L 854,135 L 853,136 L 852,136 L 851,137 L 850,137 L 850,138 L 850,139 L 850,140 L 850,141 L 851,141 L 851,142 L 851,143 L 852,143 L 852,144 L 853,144 L 853,145 L 853,146 " />
</g>
<g id="dytiki-makedonia_3" >
<path d="M 950,369 L 951,369 L 952,368 L 953,368 L 954,369 L 955,369 L 956,369 L 956,370 L 957,370 L 958,370 L 959,371 L 960,371 L 961,371 L 962,371 L 963,371 L 964,371 L 964,370 L 965,370 L 966,370 L 967,370 L 968,371 L 969,371 L 970,372 L 971,372 L 972,372 L 972,373 L 973,373 L 973,374 L 974,375 L 975,376 L 975,377 L 976,378 L 977,379 L 977,380 L 978,380 L 978,381 L 979,382 L 981,382 L 982,382 L 983,382 L 984,382 L 984,383 L 984,382 L 985,383 L 986,384 L 986,385 L 987,387 L 988,387 L 988,388 L 988,389 L 989,389 L 989,390 L 990,390 L 991,391 L 992,391 L 992,392 L 991,392 L 991,393 L 990,393 L 989,393 L 989,394 L 988,394 L 987,394 L 987,395 L 988,395 L 988,396 L 988,397 L 989,398 L 990,398 L 991,398 L 991,399 L 993,399 L 994,399 L 995,398 L 996,398 L 998,397 L 999,397 L 1000,397 L 1001,397 L 1002,396 L 1003,396 L 1006,396 L 1007,396 L 1008,396 L 1009,396 L 1010,395 L 1011,395 L 1012,396 L 1013,396 L 1013,397 L 1014,397 L 1014,398 L 1015,398 L 1017,399 L 1018,400 L 1019,400 L 1019,401 L 1020,401 L 1021,401 L 1021,402 L 1022,402 L 1024,402 L 1025,401 L 1026,401 L 1026,402 L 1027,402 L 1027,403 L 1026,404 L 1026,405 L 1026,406 L 1026,407 L 1025,408 L 1025,409 L 1024,410 L 1024,411 L 1024,412 L 1024,413 L 1024,414 L 1025,415 L 1025,416 L 1025,417 L 1024,417 L 1024,418 L 1023,418 L 1023,419 L 1023,420 L 1023,421 L 1022,421 L 1022,422 L 1021,422 L 1021,423 L 1020,424 L 1020,425 L 1020,426 L 1020,427 L 1020,428 L 1020,430 L 1020,431 L 1020,432 L 1021,433 L 1021,434 L 1022,434 L 1022,435 L 1022,436 L 1023,436 L 1024,436 L 1025,436 L 1026,437 L 1027,437 L 1028,437 L 1029,437 L 1029,438 L 1030,439 L 1030,440 L 1031,441 L 1031,442 L 1032,443 L 1033,443 L 1033,444 L 1034,445 L 1034,446 L 1035,446 L 1035,447 L 1036,447 L 1037,447 L 1038,447 L 1039,447 L 1040,446 L 1041,446 L 1042,446 L 1043,445 L 1044,445 L 1045,445 L 1046,445 L 1047,445 L 1047,446 L 1048,446 L 1048,447 L 1048,448 L 1048,449 L 1048,450 L 1047,450 L 1047,451 L 1046,451 L 1045,451 L 1044,452 L 1043,453 L 1043,454 L 1042,454 L 1041,454 L 1040,454 L 1040,455 L 1039,455 L 1038,456 L 1038,457 L 1037,458 L 1037,459 L 1036,460 L 1036,461 L 1036,462 L 1035,462 L 1035,463 L 1036,463 L 1036,464 L 1035,464 L 1035,465 L 1035,466 L 1036,467 L 1037,468 L 1037,469 L 1038,469 L 1038,470 L 1039,471 L 1040,471 L 1041,472 L 1042,472 L 1042,473 L 1043,473 L 1044,473 L 1045,473 L 1046,474 L 1046,475 L 1047,475 L 1047,476 L 1048,477 L 1048,478 L 1049,478 L 1049,479 L 1049,480 L 1050,480 L 1050,481 L 1051,481 L 1052,481 L 1054,481 L 1055,481 L 1056,481 L 1057,480 L 1058,480 L 1059,480 L 1060,480 L 1061,480 L 1062,482 L 1063,483 L 1064,484 L 1065,484 L 1065,485 L 1066,485 L 1066,486 L 1066,487 L 1066,488 L 1065,489 L 1066,489 L 1066,490 L 1065,490 L 1064,491 L 1063,491 L 1063,492 L 1062,492 L 1062,493 L 1061,495 L 1060,496 L 1060,497 L 1060,498 L 1060,499 L 1060,500 L 1060,501 L 1060,502 L 1059,502 L 1059,503 L 1058,503 L 1058,504 L 1058,505 L 1058,506 L 1057,507 L 1057,508 L 1057,509 L 1056,509 L 1056,510 L 1055,511 L 1055,512 L 1055,513 L 1055,514 L 1055,515 L 1054,516 L 1054,517 L 1054,518 L 1054,519 L 1054,520 L 1053,520 L 1053,521 L 1052,521 L 1051,521 L 1051,522 L 1050,522 L 1049,522 L 1048,524 L 1047,524 L 1046,525 L 1045,525 L 1044,525 L 1043,526 L 1042,526 L 1041,527 L 1039,528 L 1039,529 L 1038,530 L 1037,531 L 1035,531 L 1034,531 L 1034,532 L 1031,532 L 1030,533 L 1029,533 L 1028,534 L 1027,535 L 1025,536 L 1025,537 L 1024,537 L 1024,538 L 1023,538 L 1023,539 L 1023,540 L 1023,541 L 1023,542 L 1024,543 L 1025,544 L 1027,545 L 1027,546 L 1028,547 L 1029,548 L 1030,549 L 1031,550 L 1031,551 L 1031,552 L 1032,553 L 1032,555 L 1032,556 L 1032,558 L 1032,560 L 1032,561 L 1031,562 L 1031,563 L 1030,563 L 1030,562 L 1029,562 L 1028,561 L 1027,561 L 1027,560 L 1026,560 L 1026,559 L 1025,558 L 1024,557 L 1024,556 L 1023,555 L 1023,554 L 1022,554 L 1021,555 L 1020,555 L 1020,556 L 1019,556 L 1019,557 L 1018,557 L 1017,558 L 1017,559 L 1016,559 L 1016,560 L 1015,561 L 1015,562 L 1015,563 L 1016,564 L 1016,565 L 1016,566 L 1017,568 L 1018,569 L 1019,570 L 1019,571 L 1020,571 L 1020,572 L 1021,573 L 1021,574 L 1021,575 L 1020,576 L 1019,576 L 1018,577 L 1016,579 L 1015,580 L 1014,580 L 1014,581 L 1013,582 L 1012,583 L 1011,585 L 1011,586 L 1010,588 L 1010,589 L 1009,590 L 1009,591 L 1008,592 L 1007,593 L 1006,594 L 1005,594 L 1004,595 L 1003,596 L 1002,596 L 1001,597 L 1000,599 L 999,599 L 999,600 L 998,601 L 997,602 L 996,602 L 995,603 L 994,604 L 993,605 L 993,606 L 992,606 L 992,607 L 991,607 L 990,607 L 989,607 L 989,608 L 988,609 L 988,610 L 987,610 L 987,611 L 986,611 L 986,612 L 985,613 L 984,613 L 984,614 L 984,615 L 984,616 L 984,617 L 983,617 L 983,618 L 983,619 L 983,620 L 983,621 L 983,622 L 982,622 L 981,623 L 980,623 L 979,623 L 978,622 L 977,622 L 976,623 L 976,622 L 975,622 L 974,622 L 973,623 L 972,623 L 972,624 L 971,624 L 970,624 L 970,625 L 970,626 L 970,627 L 970,628 L 971,629 L 971,630 L 972,631 L 972,632 L 972,633 L 971,633 L 971,634 L 970,635 L 969,635 L 969,636 L 968,636 L 967,636 L 966,637 L 965,637 L 964,637 L 963,638 L 961,638 L 961,639 L 960,639 L 959,639 L 959,640 L 957,640 L 956,641 L 955,641 L 955,642 L 955,643 L 955,644 L 954,644 L 954,646 L 954,647 L 954,648 L 954,649 L 954,650 L 954,651 L 954,652 L 954,653 L 954,654 L 954,655 L 953,655 L 953,656 L 952,656 L 952,657 L 951,657 L 951,658 L 950,659 L 950,660 L 949,660 L 949,661 L 949,663 L 948,663 L 947,665 L 946,665 L 946,666 L 945,666 L 945,667 L 944,668 L 943,668 L 942,668 L 942,669 L 941,670 L 940,670 L 939,670 L 938,669 L 937,669 L 936,669 L 934,669 L 932,669 L 931,669 L 930,670 L 930,671 L 929,673 L 929,674 L 929,675 L 929,676 L 929,677 L 928,678 L 927,679 L 927,680 L 926,680 L 924,682 L 923,682 L 921,683 L 920,684 L 919,684 L 919,685 L 918,685 L 917,685 L 916,686 L 915,686 L 914,686 L 914,685 L 913,685 L 912,685 L 912,684 L 910,684 L 909,683 L 908,682 L 906,680 L 905,679 L 905,678 L 905,677 L 905,676 L 904,677 L 902,678 L 901,678 L 900,679 L 899,679 L 899,680 L 898,680 L 898,681 L 898,682 L 897,683 L 896,683 L 895,683 L 895,682 L 894,681 L 893,681 L 892,681 L 891,681 L 890,681 L 889,681 L 888,681 L 888,680 L 887,680 L 886,680 L 886,679 L 885,679 L 884,679 L 883,679 L 882,679 L 881,680 L 880,680 L 879,681 L 878,681 L 877,681 L 877,680 L 877,679 L 877,678 L 876,677 L 875,676 L 875,675 L 874,675 L 874,674 L 873,673 L 873,672 L 872,672 L 872,671 L 871,670 L 871,668 L 870,667 L 869,665 L 870,665 L 870,664 L 870,663 L 871,663 L 872,663 L 872,662 L 873,662 L 874,662 L 875,662 L 876,662 L 876,663 L 877,664 L 878,665 L 878,664 L 879,664 L 880,663 L 880,662 L 880,661 L 880,660 L 881,660 L 881,659 L 882,659 L 882,658 L 882,657 L 882,656 L 883,655 L 883,654 L 884,654 L 885,653 L 885,652 L 886,652 L 886,651 L 887,650 L 887,649 L 888,649 L 888,648 L 887,648 L 886,648 L 885,647 L 885,646 L 884,646 L 884,645 L 884,644 L 883,644 L 883,643 L 884,643 L 884,642 L 884,641 L 884,640 L 883,637 L 882,636 L 882,635 L 882,634 L 881,633 L 880,632 L 879,631 L 878,630 L 877,629 L 877,628 L 876,628 L 876,627 L 877,627 L 877,626 L 877,625 L 877,623 L 877,621 L 877,620 L 877,618 L 877,617 L 878,616 L 878,615 L 878,614 L 877,613 L 877,612 L 877,611 L 877,610 L 878,610 L 878,609 L 877,609 L 876,608 L 876,607 L 875,606 L 876,605 L 876,604 L 876,603 L 876,601 L 876,600 L 877,600 L 878,601 L 878,600 L 879,600 L 879,601 L 880,601 L 881,601 L 882,600 L 883,600 L 883,599 L 882,599 L 882,598 L 881,598 L 880,597 L 879,596 L 877,594 L 876,594 L 875,593 L 874,593 L 873,593 L 872,592 L 871,592 L 870,592 L 868,592 L 867,591 L 866,592 L 865,592 L 863,593 L 862,594 L 861,595 L 860,596 L 859,597 L 858,597 L 858,598 L 856,599 L 854,601 L 853,601 L 852,602 L 851,601 L 850,601 L 849,601 L 849,600 L 849,599 L 849,598 L 849,597 L 849,596 L 848,596 L 847,595 L 845,594 L 845,593 L 844,592 L 844,591 L 843,591 L 843,590 L 842,590 L 840,590 L 839,590 L 838,590 L 837,590 L 836,590 L 835,590 L 835,589 L 834,589 L 833,588 L 833,587 L 834,587 L 835,587 L 836,586 L 837,585 L 838,584 L 838,582 L 838,580 L 838,579 L 838,577 L 838,575 L 839,572 L 839,571 L 839,570 L 839,569 L 839,568 L 839,566 L 840,565 L 840,564 L 840,563 L 839,563 L 839,562 L 838,562 L 838,561 L 837,560 L 837,559 L 836,559 L 836,558 L 835,557 L 834,556 L 834,555 L 833,554 L 832,554 L 831,553 L 831,552 L 830,552 L 829,552 L 828,551 L 827,551 L 826,551 L 826,550 L 825,550 L 824,550 L 823,549 L 822,548 L 821,547 L 820,546 L 819,545 L 819,544 L 817,543 L 816,542 L 816,541 L 815,540 L 814,540 L 813,540 L 813,541 L 812,541 L 811,542 L 811,543 L 810,544 L 809,545 L 808,545 L 808,546 L 807,546 L 806,546 L 805,546 L 803,547 L 802,547 L 801,548 L 800,549 L 799,550 L 798,550 L 797,553 L 796,553 L 796,554 L 795,555 L 794,555 L 794,556 L 793,557 L 792,557 L 792,558 L 792,559 L 791,560 L 790,560 L 790,561 L 789,562 L 788,562 L 788,563 L 787,563 L 786,563 L 785,563 L 784,563 L 783,563 L 782,563 L 781,563 L 780,563 L 779,563 L 779,564 L 778,564 L 777,564 L 777,563 L 777,562 L 777,561 L 777,560 L 777,559 L 777,558 L 777,557 L 775,557 L 775,558 L 774,557 L 773,557 L 773,556 L 773,555 L 772,554 L 771,554 L 770,554 L 769,553 L 768,553 L 768,552 L 769,551 L 770,550 L 769,549 L 768,549 L 767,549 L 766,548 L 765,548 L 764,547 L 764,546 L 763,546 L 763,545 L 764,545 L 764,544 L 764,543 L 764,542 L 764,541 L 763,541 L 763,540 L 763,539 L 763,538 L 764,537 L 764,536 L 763,534 L 763,533 L 762,533 L 761,533 L 761,534 L 761,535 L 761,536 L 761,537 L 761,538 L 760,539 L 759,538 L 759,536 L 759,535 L 759,534 L 760,533 L 760,532 L 760,531 L 759,531 L 759,530 L 760,530 L 761,530 L 761,529 L 761,528 L 761,527 L 760,527 L 758,526 L 757,525 L 757,526 L 756,527 L 755,527 L 755,526 L 755,525 L 755,524 L 756,524 L 757,523 L 757,522 L 757,521 L 756,521 L 756,520 L 756,521 L 755,521 L 755,522 L 754,522 L 754,521 L 753,521 L 752,520 L 751,520 L 750,519 L 749,518 L 748,518 L 747,518 L 746,518 L 745,518 L 745,517 L 746,517 L 746,516 L 746,515 L 747,515 L 747,514 L 746,514 L 746,513 L 745,513 L 745,512 L 744,512 L 743,512 L 743,513 L 744,514 L 745,515 L 744,516 L 743,517 L 742,517 L 741,517 L 741,516 L 741,515 L 741,514 L 740,514 L 740,513 L 740,512 L 739,512 L 739,511 L 738,511 L 737,512 L 736,512 L 735,512 L 735,511 L 734,511 L 733,511 L 732,511 L 731,510 L 730,510 L 729,511 L 728,511 L 728,512 L 727,512 L 727,513 L 726,513 L 725,513 L 724,513 L 722,513 L 721,512 L 720,512 L 720,511 L 719,511 L 719,510 L 719,509 L 719,508 L 718,508 L 717,508 L 716,508 L 715,508 L 714,507 L 713,507 L 713,506 L 712,506 L 711,504 L 710,504 L 710,503 L 709,503 L 709,504 L 708,505 L 707,506 L 707,507 L 708,507 L 708,508 L 708,509 L 708,511 L 707,512 L 707,513 L 705,513 L 704,513 L 703,513 L 702,513 L 701,513 L 700,513 L 699,513 L 698,513 L 697,512 L 696,513 L 695,513 L 695,514 L 694,514 L 694,513 L 694,514 L 693,514 L 693,515 L 692,515 L 691,515 L 690,515 L 690,516 L 689,515 L 688,515 L 687,515 L 687,514 L 686,514 L 686,513 L 685,512 L 684,512 L 684,511 L 684,512 L 683,512 L 682,512 L 683,513 L 683,514 L 683,515 L 683,516 L 683,517 L 682,517 L 681,517 L 680,518 L 679,519 L 678,519 L 678,520 L 677,520 L 677,521 L 676,521 L 676,522 L 675,523 L 675,522 L 674,522 L 674,523 L 673,523 L 673,524 L 672,524 L 671,524 L 671,525 L 670,525 L 669,524 L 668,524 L 666,524 L 665,523 L 664,523 L 664,522 L 665,520 L 665,519 L 664,518 L 663,518 L 663,517 L 662,516 L 661,516 L 660,516 L 659,516 L 659,517 L 659,518 L 659,519 L 659,520 L 659,521 L 659,522 L 658,522 L 658,523 L 658,524 L 657,525 L 657,526 L 657,527 L 657,528 L 656,530 L 656,531 L 656,532 L 656,533 L 655,533 L 655,534 L 655,535 L 654,535 L 653,538 L 652,538 L 652,539 L 651,539 L 650,539 L 649,540 L 648,540 L 648,539 L 647,539 L 647,538 L 646,538 L 646,537 L 645,537 L 644,537 L 643,537 L 643,536 L 642,536 L 642,535 L 642,536 L 641,537 L 640,538 L 640,539 L 639,539 L 639,540 L 638,540 L 638,541 L 638,542 L 638,543 L 638,544 L 638,545 L 637,546 L 637,547 L 636,548 L 635,548 L 634,548 L 633,547 L 632,547 L 632,546 L 631,546 L 630,546 L 629,545 L 628,545 L 628,546 L 627,547 L 627,548 L 627,549 L 628,549 L 628,550 L 628,551 L 627,551 L 626,552 L 625,553 L 624,554 L 624,555 L 623,555 L 622,555 L 622,556 L 622,555 L 621,555 L 620,555 L 619,555 L 620,555 L 620,554 L 619,554 L 618,554 L 617,554 L 616,554 L 614,555 L 613,556 L 612,556 L 611,556 L 610,555 L 609,555 L 608,554 L 607,554 L 607,553 L 606,553 L 607,553 L 608,552 L 607,551 L 606,550 L 605,549 L 604,548 L 605,548 L 605,547 L 606,547 L 606,546 L 605,546 L 604,545 L 603,545 L 603,544 L 602,545 L 601,545 L 601,546 L 600,547 L 599,548 L 598,548 L 597,548 L 597,549 L 596,550 L 596,551 L 595,551 L 595,552 L 594,552 L 593,553 L 592,553 L 591,554 L 590,554 L 590,555 L 590,556 L 590,557 L 589,558 L 589,557 L 588,557 L 587,557 L 586,558 L 586,559 L 586,560 L 586,561 L 586,562 L 586,561 L 584,561 L 584,560 L 583,560 L 582,560 L 581,559 L 580,559 L 579,559 L 578,559 L 577,558 L 576,558 L 575,557 L 574,557 L 573,556 L 572,556 L 571,556 L 570,556 L 569,556 L 568,556 L 567,557 L 566,557 L 565,557 L 564,557 L 563,557 L 562,556 L 561,555 L 560,554 L 560,553 L 559,553 L 558,552 L 557,552 L 558,552 L 559,552 L 559,551 L 560,551 L 560,550 L 560,549 L 559,548 L 557,547 L 556,546 L 556,545 L 555,545 L 555,544 L 554,544 L 554,543 L 553,543 L 553,542 L 552,541 L 552,540 L 551,540 L 550,540 L 549,539 L 547,538 L 547,537 L 547,536 L 547,535 L 548,534 L 549,533 L 549,532 L 550,531 L 551,530 L 552,529 L 553,529 L 554,526 L 554,524 L 555,523 L 555,522 L 554,521 L 554,520 L 554,519 L 554,518 L 554,517 L 554,516 L 554,515 L 555,515 L 555,514 L 555,513 L 555,512 L 554,511 L 554,510 L 553,510 L 553,509 L 553,508 L 553,507 L 554,507 L 553,507 L 553,506 L 552,506 L 551,505 L 550,505 L 549,505 L 548,504 L 548,503 L 547,503 L 547,502 L 547,501 L 548,501 L 548,500 L 548,499 L 548,498 L 549,497 L 549,496 L 550,496 L 550,495 L 549,495 L 549,494 L 548,494 L 547,493 L 547,492 L 546,491 L 546,490 L 546,489 L 547,488 L 547,487 L 547,486 L 547,484 L 548,483 L 548,482 L 548,481 L 550,476 L 550,475 L 551,475 L 551,474 L 551,473 L 552,473 L 552,472 L 552,471 L 553,470 L 553,469 L 552,467 L 552,466 L 552,465 L 552,464 L 551,463 L 551,462 L 552,461 L 553,460 L 554,460 L 554,459 L 555,459 L 555,458 L 556,458 L 556,457 L 557,457 L 557,456 L 558,456 L 558,455 L 558,454 L 558,453 L 558,452 L 558,451 L 558,450 L 558,449 L 559,448 L 560,448 L 561,448 L 563,448 L 564,448 L 565,448 L 566,448 L 567,447 L 568,447 L 569,447 L 570,447 L 571,447 L 572,447 L 573,447 L 574,447 L 574,446 L 574,445 L 575,445 L 575,444 L 576,443 L 577,443 L 577,442 L 577,443 L 578,443 L 579,443 L 579,444 L 580,444 L 581,444 L 581,443 L 582,443 L 582,442 L 583,442 L 583,441 L 583,440 L 583,439 L 583,438 L 584,438 L 584,437 L 585,437 L 586,437 L 587,437 L 588,437 L 589,437 L 590,437 L 590,438 L 591,438 L 592,439 L 593,439 L 593,438 L 594,438 L 594,437 L 595,436 L 595,435 L 596,435 L 597,435 L 597,436 L 598,437 L 598,438 L 599,438 L 599,439 L 600,439 L 601,440 L 602,440 L 602,441 L 603,441 L 605,441 L 606,441 L 607,441 L 608,441 L 609,441 L 610,442 L 611,442 L 612,442 L 613,442 L 613,443 L 614,443 L 615,443 L 616,443 L 617,443 L 618,443 L 618,444 L 619,444 L 620,444 L 621,444 L 621,443 L 621,442 L 621,441 L 621,440 L 621,439 L 622,439 L 622,438 L 623,437 L 624,436 L 624,435 L 625,435 L 625,434 L 626,434 L 625,434 L 625,433 L 624,433 L 623,432 L 623,431 L 622,431 L 622,430 L 623,430 L 623,429 L 624,428 L 624,427 L 625,427 L 625,426 L 624,426 L 624,425 L 623,425 L 623,424 L 622,424 L 620,424 L 619,424 L 619,423 L 619,422 L 619,421 L 620,421 L 621,420 L 622,420 L 622,419 L 623,419 L 623,418 L 624,418 L 624,417 L 625,417 L 625,416 L 625,415 L 626,414 L 626,413 L 627,412 L 628,412 L 628,411 L 629,411 L 629,412 L 630,412 L 630,413 L 630,414 L 630,415 L 631,416 L 631,417 L 632,418 L 633,419 L 634,419 L 634,420 L 635,420 L 636,420 L 637,420 L 638,420 L 639,420 L 639,419 L 640,419 L 640,420 L 639,420 L 639,421 L 640,421 L 640,422 L 640,423 L 640,424 L 640,425 L 639,429 L 639,430 L 638,430 L 639,431 L 640,431 L 641,431 L 642,431 L 642,432 L 643,432 L 644,433 L 644,434 L 645,434 L 646,434 L 647,434 L 648,433 L 648,432 L 649,431 L 649,430 L 650,430 L 650,429 L 651,429 L 652,428 L 653,428 L 654,427 L 655,427 L 656,427 L 656,426 L 657,426 L 657,425 L 657,424 L 657,423 L 657,422 L 658,422 L 658,421 L 659,420 L 659,419 L 660,419 L 661,419 L 662,418 L 663,418 L 664,417 L 665,417 L 666,417 L 666,416 L 667,416 L 667,415 L 667,414 L 668,413 L 668,412 L 668,411 L 668,410 L 669,409 L 669,408 L 669,407 L 670,406 L 670,405 L 670,404 L 669,404 L 669,403 L 669,402 L 669,401 L 670,402 L 670,403 L 671,404 L 671,405 L 672,405 L 672,406 L 673,406 L 673,407 L 674,407 L 674,406 L 675,406 L 675,405 L 675,404 L 674,404 L 674,403 L 674,402 L 675,402 L 675,401 L 676,401 L 677,401 L 677,402 L 678,402 L 678,403 L 677,403 L 677,404 L 677,405 L 678,405 L 679,406 L 680,406 L 681,406 L 681,407 L 682,407 L 683,407 L 684,407 L 685,407 L 685,408 L 685,409 L 684,409 L 683,409 L 683,410 L 682,410 L 683,411 L 684,412 L 685,412 L 685,413 L 686,413 L 686,414 L 687,414 L 687,415 L 687,416 L 686,416 L 685,415 L 684,415 L 683,415 L 683,416 L 683,417 L 683,418 L 683,419 L 684,419 L 685,419 L 686,419 L 686,420 L 686,421 L 687,421 L 687,422 L 688,423 L 689,423 L 689,424 L 689,425 L 690,425 L 690,426 L 690,427 L 689,427 L 688,427 L 685,428 L 684,428 L 685,428 L 685,429 L 686,429 L 687,429 L 688,429 L 689,429 L 690,429 L 691,429 L 692,429 L 693,429 L 693,428 L 694,428 L 695,428 L 695,429 L 696,430 L 697,430 L 698,430 L 699,430 L 700,430 L 701,430 L 701,431 L 702,431 L 703,431 L 703,430 L 704,429 L 705,429 L 705,428 L 706,428 L 706,427 L 706,426 L 707,426 L 707,425 L 707,424 L 707,423 L 708,423 L 708,422 L 708,421 L 708,420 L 708,419 L 709,419 L 709,418 L 710,417 L 710,416 L 711,416 L 711,415 L 712,414 L 713,414 L 714,415 L 715,415 L 715,416 L 716,416 L 716,417 L 717,417 L 718,417 L 719,416 L 720,415 L 721,414 L 722,414 L 723,414 L 724,414 L 724,413 L 725,413 L 726,412 L 727,411 L 728,410 L 729,409 L 730,409 L 730,408 L 731,408 L 731,407 L 731,406 L 731,405 L 731,404 L 732,404 L 732,403 L 732,402 L 732,401 L 733,401 L 733,400 L 734,399 L 734,398 L 735,398 L 735,397 L 736,396 L 736,395 L 736,394 L 736,393 L 736,392 L 736,391 L 736,390 L 736,389 L 735,388 L 735,387 L 735,386 L 736,385 L 736,384 L 736,383 L 737,382 L 738,382 L 738,381 L 739,381 L 739,380 L 738,380 L 738,379 L 737,379 L 737,378 L 736,378 L 736,377 L 736,376 L 736,375 L 736,374 L 736,373 L 736,372 L 737,371 L 738,370 L 738,369 L 739,369 L 739,368 L 740,367 L 741,366 L 741,365 L 741,364 L 742,364 L 742,363 L 742,362 L 743,362 L 744,362 L 744,363 L 745,363 L 745,364 L 746,364 L 746,363 L 746,362 L 746,361 L 746,360 L 746,359 L 746,358 L 746,357 L 746,356 L 747,356 L 747,355 L 748,355 L 750,355 L 751,355 L 751,354 L 752,354 L 752,353 L 752,352 L 753,352 L 753,351 L 754,351 L 754,350 L 755,350 L 756,350 L 757,349 L 758,349 L 758,348 L 759,348 L 759,347 L 758,347 L 758,346 L 757,344 L 757,343 L 756,342 L 756,341 L 756,340 L 756,339 L 757,339 L 758,340 L 759,340 L 760,340 L 760,339 L 761,338 L 762,338 L 763,338 L 763,337 L 764,337 L 764,336 L 765,335 L 765,334 L 766,334 L 766,333 L 767,333 L 767,332 L 768,332 L 768,331 L 768,330 L 768,329 L 768,328 L 768,327 L 768,326 L 768,325 L 767,325 L 767,324 L 766,324 L 766,323 L 766,322 L 767,322 L 767,321 L 768,321 L 769,320 L 770,320 L 771,319 L 773,319 L 773,318 L 774,318 L 775,318 L 775,317 L 776,317 L 776,316 L 777,316 L 777,315 L 778,314 L 778,313 L 779,313 L 779,312 L 780,311 L 782,310 L 784,309 L 785,308 L 786,308 L 787,308 L 788,307 L 789,307 L 790,306 L 791,306 L 792,305 L 793,305 L 795,305 L 796,305 L 797,305 L 798,305 L 799,305 L 800,305 L 802,305 L 803,304 L 804,304 L 805,303 L 806,303 L 807,303 L 808,303 L 809,303 L 810,303 L 811,303 L 812,303 L 813,303 L 814,303 L 814,304 L 815,304 L 816,304 L 817,304 L 817,303 L 817,302 L 817,301 L 817,300 L 817,299 L 818,299 L 819,299 L 820,299 L 821,299 L 822,299 L 823,299 L 824,300 L 825,300 L 825,301 L 826,301 L 826,302 L 827,302 L 828,301 L 829,301 L 829,300 L 830,300 L 831,300 L 832,299 L 833,299 L 834,299 L 835,299 L 836,299 L 837,299 L 838,300 L 839,300 L 840,300 L 840,301 L 841,301 L 842,301 L 843,302 L 844,303 L 845,303 L 846,303 L 847,303 L 848,303 L 849,303 L 850,303 L 851,303 L 852,303 L 853,302 L 853,301 L 853,300 L 853,299 L 853,298 L 853,297 L 852,297 L 852,296 L 853,296 L 853,295 L 854,295 L 854,294 L 859,297 L 859,298 L 860,298 L 861,298 L 861,297 L 862,297 L 862,296 L 863,296 L 864,296 L 865,296 L 865,295 L 866,295 L 867,295 L 867,296 L 868,296 L 869,296 L 869,295 L 870,295 L 871,295 L 872,295 L 873,295 L 874,295 L 874,294 L 876,294 L 877,294 L 878,293 L 879,293 L 879,292 L 880,292 L 880,291 L 881,291 L 882,290 L 882,289 L 883,289 L 883,288 L 883,287 L 884,287 L 884,286 L 885,285 L 885,284 L 885,283 L 885,282 L 886,281 L 886,280 L 886,279 L 887,279 L 887,278 L 888,276 L 888,275 L 889,275 L 889,274 L 890,273 L 890,272 L 890,271 L 889,271 L 889,270 L 888,270 L 888,269 L 888,268 L 888,267 L 887,267 L 887,266 L 886,265 L 885,264 L 885,263 L 885,262 L 884,262 L 885,262 L 885,261 L 886,261 L 887,260 L 888,260 L 888,259 L 889,259 L 890,258 L 890,257 L 891,256 L 891,255 L 891,254 L 892,253 L 892,252 L 893,251 L 893,250 L 893,249 L 892,248 L 892,247 L 892,246 L 892,245 L 892,244 L 892,243 L 892,242 L 893,242 L 894,242 L 895,242 L 896,242 L 897,242 L 897,241 L 898,241 L 899,241 L 900,241 L 900,240 L 901,240 L 902,239 L 903,239 L 904,239 L 905,239 L 905,240 L 906,240 L 907,240 L 907,239 L 907,238 L 908,238 L 908,237 L 908,236 L 909,235 L 909,234 L 910,234 L 911,234 L 911,233 L 912,233 L 913,234 L 913,235 L 914,235 L 914,236 L 915,236 L 915,237 L 915,238 L 915,239 L 916,239 L 916,240 L 917,240 L 917,241 L 918,241 L 919,242 L 920,243 L 921,244 L 922,244 L 923,245 L 924,245 L 925,245 L 925,246 L 926,246 L 927,247 L 928,247 L 929,247 L 930,247 L 931,247 L 933,247 L 933,248 L 934,248 L 935,248 L 936,248 L 936,249 L 937,249 L 938,250 L 939,250 L 939,251 L 939,252 L 939,254 L 939,255 L 939,256 L 939,257 L 938,260 L 938,261 L 938,263 L 938,264 L 937,266 L 937,267 L 937,268 L 937,269 L 936,269 L 936,270 L 935,270 L 934,271 L 933,271 L 931,272 L 930,272 L 929,273 L 929,274 L 929,275 L 929,276 L 929,277 L 929,278 L 929,279 L 930,280 L 930,281 L 929,281 L 929,282 L 928,283 L 927,283 L 927,284 L 927,285 L 928,286 L 929,286 L 929,287 L 929,288 L 930,289 L 930,290 L 930,291 L 930,292 L 930,293 L 930,294 L 930,295 L 929,296 L 929,297 L 929,298 L 928,299 L 928,300 L 928,301 L 928,302 L 928,303 L 929,303 L 930,304 L 931,304 L 932,304 L 932,305 L 933,305 L 934,306 L 934,307 L 935,307 L 935,308 L 936,309 L 937,309 L 937,310 L 938,310 L 939,310 L 939,311 L 940,311 L 940,312 L 940,313 L 941,313 L 941,314 L 941,315 L 941,316 L 941,317 L 941,318 L 940,318 L 940,319 L 939,319 L 938,319 L 938,320 L 937,320 L 936,320 L 935,321 L 934,321 L 934,322 L 934,323 L 933,323 L 932,323 L 932,324 L 931,324 L 931,325 L 932,326 L 932,327 L 932,328 L 932,329 L 932,330 L 932,331 L 932,332 L 932,333 L 933,334 L 933,335 L 934,335 L 934,336 L 935,336 L 935,337 L 936,337 L 937,338 L 938,338 L 938,339 L 939,341 L 940,342 L 941,343 L 941,344 L 941,345 L 942,345 L 942,346 L 943,346 L 944,347 L 945,347 L 945,348 L 946,348 L 946,349 L 946,350 L 946,351 L 946,352 L 946,353 L 946,354 L 946,355 L 946,356 L 946,357 L 947,357 L 947,358 L 947,359 L 948,359 L 948,360 L 948,361 L 947,362 L 946,363 L 946,364 L 946,365 L 946,366 L 947,367 L 948,368 L 949,368 L 949,369 L 950,369 " />
</g>
<g id="dytiki-makedonia_4" >
<path d="M 716,508 L 717,508 L 718,508 L 719,508 L 719,509 L 719,510 L 719,511 L 720,511 L 720,512 L 721,512 L 722,513 L 724,513 L 725,513 L 726,513 L 727,513 L 727,512 L 728,512 L 728,511 L 729,511 L 730,510 L 731,510 L 732,511 L 733,511 L 734,511 L 735,511 L 735,512 L 736,512 L 737,512 L 738,511 L 739,511 L 739,512 L 740,512 L 740,513 L 740,514 L 741,514 L 741,515 L 741,516 L 741,517 L 742,517 L 743,517 L 744,516 L 745,515 L 744,514 L 743,513 L 743,512 L 744,512 L 745,512 L 745,513 L 746,513 L 746,514 L 747,514 L 747,515 L 746,515 L 746,516 L 746,517 L 745,517 L 745,518 L 746,518 L 747,518 L 748,518 L 749,518 L 750,519 L 751,520 L 752,520 L 753,521 L 754,521 L 754,522 L 755,522 L 755,521 L 756,521 L 756,520 L 756,521 L 757,521 L 757,522 L 757,523 L 756,524 L 755,524 L 755,525 L 755,526 L 755,527 L 756,527 L 757,526 L 757,525 L 758,526 L 760,527 L 761,527 L 761,528 L 761,529 L 761,530 L 760,530 L 759,530 L 759,531 L 760,531 L 760,532 L 760,533 L 759,534 L 759,535 L 759,536 L 759,538 L 760,539 L 761,538 L 761,537 L 761,536 L 761,535 L 761,534 L 761,533 L 762,533 L 763,533 L 763,534 L 764,536 L 764,537 L 763,538 L 763,539 L 763,540 L 763,541 L 764,541 L 764,542 L 764,543 L 764,544 L 764,545 L 763,545 L 763,546 L 764,546 L 764,547 L 765,548 L 766,548 L 767,549 L 768,549 L 769,549 L 770,550 L 769,551 L 768,552 L 768,553 L 769,553 L 770,554 L 771,554 L 772,554 L 773,555 L 773,556 L 773,557 L 774,557 L 775,558 L 775,557 L 777,557 L 777,558 L 777,559 L 777,560 L 777,561 L 777,562 L 777,563 L 777,564 L 778,564 L 779,564 L 779,563 L 780,563 L 781,563 L 782,563 L 783,563 L 784,563 L 785,563 L 786,563 L 787,563 L 788,563 L 788,562 L 789,562 L 790,561 L 790,560 L 791,560 L 792,559 L 792,558 L 792,557 L 793,557 L 794,556 L 794,555 L 795,555 L 796,554 L 796,553 L 797,553 L 798,550 L 799,550 L 800,549 L 801,548 L 802,547 L 803,547 L 805,546 L 806,546 L 807,546 L 808,546 L 808,545 L 809,545 L 810,544 L 811,543 L 811,542 L 812,541 L 813,541 L 813,540 L 814,540 L 815,540 L 816,541 L 816,542 L 817,543 L 819,544 L 819,545 L 820,546 L 821,547 L 822,548 L 823,549 L 824,550 L 825,550 L 826,550 L 826,551 L 827,551 L 828,551 L 829,552 L 830,552 L 831,552 L 831,553 L 832,554 L 833,554 L 834,555 L 834,556 L 835,557 L 836,558 L 836,559 L 837,559 L 837,560 L 838,561 L 838,562 L 839,562 L 839,563 L 840,563 L 840,564 L 840,565 L 839,566 L 839,568 L 839,569 L 839,570 L 839,571 L 839,572 L 838,575 L 838,577 L 838,579 L 838,580 L 838,582 L 838,584 L 837,585 L 836,586 L 835,587 L 834,587 L 833,587 L 833,588 L 834,589 L 835,589 L 835,590 L 836,590 L 837,590 L 838,590 L 839,590 L 840,590 L 842,590 L 843,590 L 843,591 L 844,591 L 844,592 L 845,593 L 845,594 L 847,595 L 848,596 L 849,596 L 849,597 L 849,598 L 849,599 L 849,600 L 849,601 L 850,601 L 851,601 L 852,602 L 853,601 L 854,601 L 856,599 L 858,598 L 858,597 L 859,597 L 860,596 L 861,595 L 862,594 L 863,593 L 865,592 L 866,592 L 867,591 L 868,592 L 870,592 L 871,592 L 872,592 L 873,593 L 874,593 L 875,593 L 876,594 L 877,594 L 879,596 L 880,597 L 881,598 L 882,598 L 882,599 L 883,599 L 883,600 L 882,600 L 881,601 L 880,601 L 879,601 L 879,600 L 878,600 L 878,601 L 877,600 L 876,600 L 876,601 L 876,603 L 876,604 L 876,605 L 875,606 L 876,607 L 876,608 L 877,609 L 878,609 L 878,610 L 877,610 L 877,611 L 877,612 L 877,613 L 878,614 L 878,615 L 878,616 L 877,617 L 877,618 L 877,620 L 877,621 L 877,623 L 877,625 L 877,626 L 877,627 L 876,627 L 876,628 L 877,628 L 877,629 L 878,630 L 879,631 L 880,632 L 881,633 L 882,634 L 882,635 L 882,636 L 883,637 L 884,640 L 884,641 L 884,642 L 884,643 L 883,643 L 883,644 L 884,644 L 884,645 L 884,646 L 885,646 L 885,647 L 886,648 L 887,648 L 888,648 L 888,649 L 887,649 L 887,650 L 886,651 L 886,652 L 885,652 L 885,653 L 884,654 L 883,654 L 883,655 L 882,656 L 882,657 L 882,658 L 882,659 L 881,659 L 881,660 L 880,660 L 880,661 L 880,662 L 880,663 L 879,664 L 878,664 L 878,665 L 877,664 L 876,663 L 876,662 L 875,662 L 874,662 L 873,662 L 872,662 L 872,663 L 871,663 L 870,663 L 870,664 L 870,665 L 869,665 L 870,667 L 871,668 L 871,670 L 872,671 L 872,672 L 873,672 L 873,673 L 874,674 L 874,675 L 875,675 L 875,676 L 876,677 L 877,678 L 877,679 L 877,680 L 877,681 L 878,681 L 879,681 L 880,680 L 881,680 L 882,679 L 883,679 L 884,679 L 885,679 L 886,679 L 886,680 L 887,680 L 888,680 L 888,681 L 889,681 L 890,681 L 891,681 L 892,681 L 893,681 L 894,681 L 895,682 L 895,683 L 896,683 L 897,683 L 898,682 L 898,681 L 898,680 L 899,680 L 899,679 L 900,679 L 901,678 L 902,678 L 904,677 L 905,676 L 905,677 L 905,678 L 905,679 L 906,680 L 908,682 L 909,683 L 910,684 L 910,686 L 911,687 L 912,691 L 913,691 L 913,692 L 914,692 L 915,692 L 916,692 L 917,692 L 919,692 L 920,692 L 921,692 L 921,693 L 922,693 L 923,694 L 923,695 L 923,696 L 924,697 L 925,699 L 926,699 L 926,700 L 927,700 L 928,702 L 929,702 L 929,703 L 930,704 L 930,705 L 930,706 L 930,707 L 930,708 L 930,709 L 930,710 L 929,711 L 928,712 L 927,713 L 927,714 L 926,715 L 925,716 L 925,717 L 926,717 L 926,718 L 927,719 L 928,719 L 928,720 L 929,722 L 930,723 L 930,724 L 930,725 L 930,727 L 930,728 L 931,729 L 931,730 L 931,731 L 932,731 L 932,732 L 931,733 L 931,734 L 931,735 L 932,736 L 932,737 L 933,739 L 933,740 L 933,741 L 933,742 L 933,743 L 933,744 L 933,745 L 933,746 L 933,747 L 932,747 L 932,748 L 932,749 L 931,749 L 931,750 L 930,750 L 930,751 L 929,750 L 930,750 L 930,749 L 930,748 L 929,748 L 928,748 L 928,747 L 926,747 L 925,747 L 924,747 L 923,747 L 922,747 L 919,747 L 918,747 L 917,746 L 916,746 L 916,745 L 915,745 L 915,744 L 914,744 L 913,744 L 913,743 L 912,743 L 911,743 L 910,743 L 909,743 L 908,743 L 907,743 L 907,742 L 906,743 L 905,743 L 904,742 L 903,742 L 902,742 L 901,742 L 900,742 L 899,741 L 898,741 L 897,741 L 896,741 L 895,741 L 895,740 L 894,740 L 893,740 L 892,741 L 891,741 L 890,741 L 889,741 L 889,742 L 888,742 L 887,742 L 886,743 L 885,743 L 884,744 L 883,745 L 882,745 L 881,746 L 880,746 L 879,746 L 878,747 L 877,747 L 877,748 L 876,748 L 875,749 L 874,749 L 873,749 L 872,749 L 871,749 L 871,748 L 870,747 L 871,747 L 870,747 L 870,746 L 869,746 L 868,745 L 866,745 L 865,744 L 864,744 L 863,744 L 863,743 L 862,743 L 861,743 L 860,743 L 859,743 L 858,743 L 858,744 L 857,744 L 856,744 L 855,744 L 854,744 L 853,744 L 853,743 L 852,743 L 852,742 L 852,741 L 853,740 L 852,739 L 852,738 L 851,737 L 851,736 L 850,736 L 850,735 L 849,735 L 849,734 L 848,734 L 847,734 L 846,734 L 846,735 L 845,735 L 844,735 L 843,735 L 843,734 L 842,734 L 842,733 L 841,732 L 841,733 L 840,733 L 840,734 L 839,735 L 838,736 L 837,737 L 836,738 L 836,739 L 835,740 L 834,740 L 834,741 L 834,740 L 833,740 L 833,741 L 832,742 L 831,742 L 830,742 L 829,742 L 828,743 L 827,743 L 826,743 L 825,743 L 823,743 L 822,743 L 821,742 L 820,742 L 819,741 L 819,740 L 819,739 L 818,738 L 816,737 L 815,737 L 814,737 L 813,736 L 812,736 L 812,735 L 812,734 L 812,732 L 811,731 L 811,730 L 811,728 L 810,728 L 810,729 L 809,730 L 809,731 L 808,731 L 808,732 L 807,732 L 806,732 L 805,731 L 804,731 L 803,731 L 802,731 L 802,732 L 801,733 L 800,734 L 799,734 L 798,734 L 797,734 L 796,734 L 795,734 L 795,733 L 794,733 L 793,732 L 791,731 L 791,730 L 790,730 L 789,730 L 789,731 L 789,730 L 788,730 L 788,729 L 787,729 L 787,728 L 786,727 L 784,725 L 783,724 L 783,723 L 782,722 L 782,721 L 781,721 L 780,721 L 780,720 L 779,718 L 778,719 L 777,720 L 776,720 L 775,721 L 775,722 L 774,722 L 773,722 L 772,722 L 771,722 L 770,722 L 769,722 L 768,722 L 767,722 L 766,722 L 765,722 L 764,721 L 763,720 L 761,719 L 760,719 L 759,718 L 758,718 L 757,718 L 756,717 L 755,717 L 755,716 L 753,715 L 752,714 L 751,714 L 750,714 L 749,715 L 748,716 L 747,717 L 746,718 L 745,718 L 744,717 L 743,717 L 742,717 L 741,717 L 740,716 L 738,716 L 736,717 L 736,718 L 735,718 L 735,719 L 734,719 L 734,720 L 733,720 L 732,720 L 732,719 L 732,718 L 731,718 L 731,717 L 731,716 L 731,715 L 730,715 L 730,714 L 729,714 L 729,713 L 728,713 L 727,713 L 726,713 L 725,713 L 724,713 L 722,713 L 721,713 L 719,714 L 718,714 L 716,715 L 715,715 L 715,716 L 715,717 L 714,717 L 713,717 L 712,717 L 712,716 L 711,716 L 710,715 L 709,715 L 708,715 L 707,716 L 706,716 L 706,717 L 706,719 L 706,720 L 705,720 L 705,721 L 704,721 L 703,722 L 702,723 L 701,723 L 701,724 L 700,724 L 699,725 L 699,726 L 698,727 L 698,728 L 698,729 L 699,729 L 700,729 L 701,729 L 702,729 L 703,729 L 704,729 L 705,729 L 705,730 L 704,731 L 704,732 L 703,733 L 702,734 L 702,736 L 701,736 L 701,737 L 701,738 L 701,739 L 702,740 L 702,741 L 703,742 L 702,742 L 702,743 L 701,743 L 700,743 L 700,744 L 697,745 L 695,746 L 694,747 L 693,747 L 692,747 L 691,747 L 690,746 L 689,746 L 688,746 L 688,747 L 688,748 L 688,749 L 688,750 L 687,751 L 687,752 L 686,752 L 685,753 L 685,752 L 684,752 L 683,752 L 682,752 L 682,753 L 681,753 L 681,752 L 680,752 L 680,751 L 680,750 L 680,749 L 679,749 L 679,748 L 678,748 L 677,748 L 676,748 L 675,748 L 674,748 L 673,749 L 671,750 L 670,751 L 669,752 L 668,752 L 667,753 L 666,753 L 665,753 L 664,753 L 664,752 L 663,752 L 662,751 L 661,749 L 660,748 L 659,746 L 659,745 L 658,745 L 658,744 L 658,743 L 658,742 L 658,741 L 658,740 L 658,739 L 658,738 L 657,737 L 657,736 L 657,735 L 657,734 L 657,733 L 657,732 L 657,731 L 657,730 L 656,730 L 656,729 L 655,730 L 654,730 L 653,731 L 653,732 L 652,732 L 651,734 L 650,735 L 649,735 L 648,735 L 647,736 L 646,736 L 645,736 L 644,735 L 644,734 L 643,734 L 642,733 L 641,731 L 641,730 L 640,729 L 639,729 L 639,728 L 638,727 L 638,726 L 636,725 L 635,724 L 634,723 L 633,723 L 632,724 L 631,724 L 630,724 L 629,724 L 628,724 L 628,725 L 628,724 L 627,724 L 626,723 L 626,722 L 626,721 L 625,720 L 624,720 L 623,720 L 622,720 L 621,719 L 620,719 L 619,719 L 619,718 L 618,718 L 618,717 L 617,717 L 616,716 L 615,716 L 615,717 L 614,717 L 613,718 L 612,718 L 611,718 L 610,717 L 609,717 L 608,717 L 608,718 L 607,719 L 606,720 L 605,721 L 604,721 L 603,722 L 602,722 L 601,723 L 600,723 L 599,723 L 598,722 L 597,722 L 596,722 L 595,722 L 594,722 L 593,722 L 592,722 L 592,723 L 591,723 L 591,724 L 590,725 L 590,726 L 589,727 L 588,728 L 587,728 L 587,729 L 587,730 L 586,731 L 585,733 L 584,733 L 584,734 L 583,733 L 582,733 L 581,732 L 580,732 L 580,731 L 579,730 L 578,730 L 578,729 L 577,729 L 576,729 L 575,729 L 574,728 L 573,728 L 572,728 L 571,728 L 571,729 L 570,729 L 570,730 L 568,729 L 567,728 L 566,728 L 566,727 L 565,726 L 564,726 L 563,725 L 562,725 L 561,724 L 560,724 L 560,723 L 559,723 L 558,723 L 558,722 L 557,722 L 557,721 L 556,721 L 555,721 L 554,721 L 553,721 L 553,720 L 554,720 L 554,719 L 555,718 L 554,717 L 554,716 L 554,715 L 554,714 L 554,713 L 554,712 L 553,711 L 553,710 L 552,710 L 552,709 L 551,709 L 550,708 L 550,707 L 549,707 L 550,706 L 550,705 L 550,704 L 551,704 L 551,703 L 552,703 L 552,702 L 551,702 L 551,701 L 550,701 L 550,700 L 550,699 L 550,698 L 549,697 L 549,696 L 548,695 L 548,694 L 548,693 L 548,692 L 548,691 L 548,689 L 549,689 L 549,688 L 549,687 L 549,686 L 549,685 L 548,684 L 548,683 L 547,683 L 547,682 L 547,681 L 546,681 L 546,680 L 546,679 L 546,678 L 546,677 L 545,677 L 545,676 L 544,676 L 544,675 L 543,675 L 542,674 L 541,674 L 540,674 L 540,673 L 539,673 L 538,673 L 538,672 L 537,671 L 536,670 L 535,669 L 534,668 L 534,667 L 534,666 L 533,666 L 532,666 L 532,665 L 533,665 L 534,665 L 534,664 L 534,663 L 533,663 L 533,662 L 533,661 L 532,661 L 532,660 L 532,659 L 532,658 L 531,658 L 530,658 L 530,657 L 529,656 L 528,656 L 528,655 L 527,654 L 526,654 L 525,654 L 524,654 L 524,653 L 524,652 L 525,652 L 525,651 L 524,651 L 523,651 L 522,651 L 522,650 L 523,650 L 524,650 L 524,649 L 525,648 L 526,648 L 526,647 L 527,647 L 527,646 L 528,646 L 529,646 L 530,646 L 531,647 L 531,648 L 533,649 L 534,650 L 535,651 L 536,651 L 537,652 L 538,652 L 539,652 L 540,652 L 540,651 L 541,651 L 542,650 L 543,649 L 543,648 L 544,647 L 544,646 L 545,646 L 545,645 L 546,645 L 546,644 L 546,643 L 547,642 L 547,641 L 547,640 L 548,640 L 548,639 L 549,639 L 550,639 L 550,638 L 550,637 L 549,636 L 549,635 L 548,635 L 549,634 L 549,633 L 549,632 L 549,631 L 549,630 L 549,629 L 549,628 L 549,627 L 549,626 L 549,625 L 550,624 L 550,623 L 550,622 L 550,621 L 550,620 L 551,619 L 551,618 L 552,617 L 552,616 L 552,615 L 551,614 L 551,613 L 550,613 L 550,612 L 549,612 L 547,611 L 547,610 L 546,610 L 545,610 L 544,609 L 543,609 L 542,609 L 541,609 L 540,609 L 539,608 L 538,607 L 537,607 L 536,607 L 536,608 L 535,608 L 534,609 L 533,609 L 533,610 L 532,610 L 531,611 L 529,612 L 528,612 L 526,613 L 525,613 L 524,613 L 522,613 L 521,613 L 520,613 L 519,613 L 518,613 L 517,613 L 516,612 L 516,611 L 516,610 L 516,609 L 515,609 L 515,608 L 514,608 L 514,607 L 513,606 L 512,606 L 512,605 L 512,604 L 512,602 L 512,601 L 511,601 L 511,600 L 510,600 L 510,599 L 509,598 L 509,597 L 508,596 L 508,595 L 508,593 L 509,593 L 509,592 L 509,591 L 509,590 L 509,588 L 509,587 L 508,586 L 508,585 L 508,584 L 507,584 L 506,584 L 505,583 L 505,582 L 504,582 L 504,581 L 503,580 L 502,579 L 501,578 L 502,577 L 502,576 L 501,575 L 501,574 L 501,573 L 500,573 L 499,572 L 499,571 L 498,570 L 497,569 L 496,568 L 495,567 L 494,566 L 496,566 L 497,566 L 499,565 L 500,565 L 501,564 L 501,563 L 502,563 L 502,562 L 502,561 L 503,560 L 505,559 L 506,558 L 508,558 L 508,557 L 510,557 L 512,556 L 513,555 L 514,555 L 515,554 L 516,554 L 517,554 L 517,555 L 517,556 L 517,557 L 518,557 L 518,558 L 519,558 L 520,558 L 522,558 L 523,558 L 524,558 L 524,559 L 525,559 L 525,560 L 526,560 L 526,561 L 527,561 L 528,561 L 529,561 L 530,561 L 531,561 L 533,560 L 535,560 L 536,559 L 537,558 L 537,557 L 537,556 L 539,554 L 539,552 L 540,551 L 541,550 L 541,549 L 541,548 L 540,548 L 539,547 L 538,547 L 537,547 L 536,547 L 536,546 L 535,545 L 537,544 L 539,544 L 540,543 L 542,543 L 543,542 L 544,542 L 545,541 L 546,540 L 547,539 L 547,538 L 549,539 L 550,540 L 551,540 L 552,540 L 552,541 L 553,542 L 553,543 L 554,543 L 554,544 L 555,544 L 555,545 L 556,545 L 556,546 L 557,547 L 559,548 L 560,549 L 560,550 L 560,551 L 559,551 L 559,552 L 558,552 L 557,552 L 558,552 L 559,553 L 560,553 L 560,554 L 561,555 L 562,556 L 563,557 L 564,557 L 565,557 L 566,557 L 567,557 L 568,556 L 569,556 L 570,556 L 571,556 L 572,556 L 573,556 L 574,557 L 575,557 L 576,558 L 577,558 L 578,559 L 579,559 L 580,559 L 581,559 L 582,560 L 583,560 L 584,560 L 584,561 L 586,561 L 586,562 L 586,561 L 586,560 L 586,559 L 586,558 L 587,557 L 588,557 L 589,557 L 589,558 L 590,557 L 590,556 L 590,555 L 590,554 L 591,554 L 592,553 L 593,553 L 594,552 L 595,552 L 595,551 L 596,551 L 596,550 L 597,549 L 597,548 L 598,548 L 599,548 L 600,547 L 601,546 L 601,545 L 602,545 L 603,544 L 603,545 L 604,545 L 605,546 L 606,546 L 606,547 L 605,547 L 605,548 L 604,548 L 605,549 L 606,550 L 607,551 L 608,552 L 607,553 L 606,553 L 607,553 L 607,554 L 608,554 L 609,555 L 610,555 L 611,556 L 612,556 L 613,556 L 614,555 L 616,554 L 617,554 L 618,554 L 619,554 L 620,554 L 620,555 L 619,555 L 620,555 L 621,555 L 622,555 L 622,556 L 622,555 L 623,555 L 624,555 L 624,554 L 625,553 L 626,552 L 627,551 L 628,551 L 628,550 L 628,549 L 627,549 L 627,548 L 627,547 L 628,546 L 628,545 L 629,545 L 630,546 L 631,546 L 632,546 L 632,547 L 633,547 L 634,548 L 635,548 L 636,548 L 637,547 L 637,546 L 638,545 L 638,544 L 638,543 L 638,542 L 638,541 L 638,540 L 639,540 L 639,539 L 640,539 L 640,538 L 641,537 L 642,536 L 642,535 L 642,536 L 643,536 L 643,537 L 644,537 L 645,537 L 646,537 L 646,538 L 647,538 L 647,539 L 648,539 L 648,540 L 649,540 L 650,539 L 651,539 L 652,539 L 652,538 L 653,538 L 654,535 L 655,535 L 655,534 L 655,533 L 656,533 L 656,532 L 656,531 L 656,530 L 657,528 L 657,527 L 657,526 L 657,525 L 658,524 L 658,523 L 658,522 L 659,522 L 659,521 L 659,520 L 659,519 L 659,518 L 659,517 L 659,516 L 660,516 L 661,516 L 662,516 L 663,517 L 663,518 L 664,518 L 665,519 L 665,520 L 664,522 L 664,523 L 665,523 L 666,524 L 668,524 L 669,524 L 670,525 L 671,525 L 671,524 L 672,524 L 673,524 L 673,523 L 674,523 L 674,522 L 675,522 L 675,523 L 676,522 L 676,521 L 677,521 L 677,520 L 678,520 L 678,519 L 679,519 L 680,518 L 681,517 L 682,517 L 683,517 L 683,516 L 683,515 L 683,514 L 683,513 L 682,512 L 683,512 L 684,512 L 684,511 L 684,512 L 685,512 L 686,513 L 686,514 L 687,514 L 687,515 L 688,515 L 689,515 L 690,516 L 690,515 L 691,515 L 692,515 L 693,515 L 693,514 L 694,514 L 694,513 L 694,514 L 695,514 L 695,513 L 696,513 L 697,512 L 698,513 L 699,513 L 700,513 L 701,513 L 702,513 L 703,513 L 704,513 L 705,513 L 707,513 L 707,512 L 708,511 L 708,509 L 708,508 L 708,507 L 707,507 L 707,506 L 708,505 L 709,504 L 709,503 L 710,503 L 710,504 L 711,504 L 712,506 L 713,506 L 713,507 L 714,507 L 715,508 L 716,508 " />
</g>
</g>
</g>
<!-- QGIS extent for clipping, eg in Inkscape -->
<g id="qgisviewbox" inkscape:groupmode="layer" inkscape:label="qgisviewbox" stroke="rgb(255,0,0)" stroke-width="1" fill="none" >
<path d="M 0,882 L 1443,882 L 1443,0 L 0,0 L 0,882 " />
</g></svg>