<?xml version="1.0" standalone="no"?>
<!DOCTYPE svg PUBLIC "-//W3C//DTD SVG 1.1//EN" "http://www.w3.org/Graphics/SVG/1.1/DTD/svg11.dtd">
<svg xmlns="http://www.w3.org/2000/svg" xmlns:inkscape="http://www.inkscape.org/namespaces/inkscape" xmlns:xlink="http://www.w3.org/1999/xlink" viewBox = "0 0 2013 1116" version = "1.1">
<!-- svg generated using QGIS www.qgis.org -->
<g id="union_lektiko_δημοσ_άνδρου" inkscape:groupmode="layer" inkscape:label="union_lektiko_δημοσ_άνδρου">
<g stroke="none" fill="rgb(80,203,179)" stroke-linejoin="round" stroke-width="0.26">
<g id="union_lektiko_δημοσ_άνδρου_1" >
<path d="M 718,542 L 717,542 L 717,541 L 717,540 L 718,540 L 718,541 L 718,542 " />
<path d="M 724,528 L 723,528 L 723,527 L 722,526 L 722,525 L 722,524 L 721,524 L 721,523 L 721,522 L 720,522 L 720,521 L 721,521 L 721,520 L 722,520 L 723,519 L 724,519 L 725,518 L 726,518 L 727,518 L 727,519 L 728,520 L 728,521 L 728,522 L 727,522 L 727,523 L 726,523 L 726,524 L 725,524 L 725,525 L 725,526 L 724,526 L 724,527 L 724,528 " />
<path d="M 753,518 L 753,519 L 753,520 L 753,521 L 753,522 L 752,522 L 752,523 L 751,523 L 750,523 L 749,523 L 749,522 L 750,521 L 749,520 L 749,519 L 749,518 L 750,518 L 751,518 L 752,518 L 753,518 " />
<path d="M 763,551 L 763,550 L 763,549 L 762,549 L 762,548 L 761,547 L 760,546 L 759,545 L 758,544 L 758,543 L 757,542 L 757,541 L 758,540 L 758,539 L 758,538 L 759,537 L 760,536 L 761,536 L 761,535 L 762,534 L 762,533 L 763,532 L 763,531 L 762,530 L 761,530 L 761,529 L 761,528 L 762,528 L 762,527 L 762,526 L 761,526 L 761,525 L 760,524 L 761,524 L 761,523 L 761,522 L 762,521 L 761,521 L 761,520 L 761,519 L 761,518 L 761,517 L 762,516 L 762,515 L 762,514 L 763,514 L 763,513 L 763,514 L 764,514 L 764,515 L 764,516 L 764,517 L 764,518 L 764,519 L 764,520 L 765,521 L 766,521 L 766,522 L 767,522 L 767,523 L 767,524 L 767,525 L 768,526 L 768,527 L 768,528 L 768,529 L 769,530 L 769,531 L 769,532 L 769,533 L 768,533 L 768,534 L 768,535 L 768,536 L 767,536 L 768,537 L 767,538 L 767,539 L 767,540 L 766,541 L 765,541 L 765,542 L 765,543 L 766,543 L 766,544 L 766,545 L 766,546 L 766,547 L 766,548 L 766,549 L 766,550 L 765,550 L 764,550 L 763,550 L 763,551 " />
<path d="M 754,504 L 755,505 L 756,504 L 757,505 L 757,506 L 757,508 L 757,509 L 756,510 L 755,510 L 754,510 L 753,510 L 753,509 L 752,509 L 752,508 L 752,507 L 753,507 L 753,506 L 753,505 L 753,504 L 754,504 " />
<path d="M 734,502 L 734,501 L 734,500 L 734,499 L 735,498 L 735,499 L 735,500 L 734,501 L 734,502 " />
<path d="M 1093,332 L 1092,332 L 1092,331 L 1093,331 L 1093,330 L 1094,330 L 1094,331 L 1093,332 " />
<path d="M 868,30 L 869,30 L 870,30 L 871,30 L 872,30 L 873,30 L 874,31 L 874,32 L 874,33 L 875,34 L 875,35 L 875,36 L 875,37 L 874,38 L 873,38 L 872,39 L 871,40 L 870,41 L 869,42 L 869,43 L 870,43 L 871,43 L 871,42 L 872,42 L 873,42 L 874,43 L 875,43 L 875,44 L 875,45 L 874,46 L 874,47 L 874,48 L 874,49 L 874,50 L 873,51 L 873,52 L 873,53 L 873,54 L 873,55 L 873,56 L 873,58 L 874,59 L 875,60 L 875,61 L 874,61 L 873,62 L 872,62 L 871,62 L 871,63 L 871,64 L 870,65 L 869,66 L 868,67 L 867,68 L 867,69 L 866,70 L 866,71 L 865,72 L 864,73 L 863,74 L 862,75 L 861,76 L 860,77 L 859,77 L 858,78 L 857,79 L 856,80 L 855,80 L 855,81 L 854,82 L 855,83 L 856,83 L 857,84 L 858,84 L 860,84 L 860,85 L 860,86 L 859,86 L 859,87 L 858,87 L 857,88 L 857,89 L 857,90 L 857,91 L 858,92 L 859,93 L 860,93 L 860,94 L 861,94 L 862,94 L 863,95 L 864,95 L 865,94 L 866,95 L 866,96 L 868,97 L 869,98 L 870,98 L 871,98 L 872,98 L 873,98 L 874,99 L 876,99 L 877,100 L 878,101 L 879,102 L 878,103 L 878,104 L 878,105 L 877,106 L 877,107 L 877,108 L 877,109 L 878,110 L 878,111 L 879,112 L 880,113 L 881,115 L 882,116 L 882,117 L 882,118 L 881,118 L 881,119 L 880,120 L 879,120 L 879,121 L 878,121 L 877,122 L 876,122 L 875,122 L 874,122 L 874,121 L 873,121 L 873,122 L 873,124 L 873,125 L 873,126 L 874,127 L 874,128 L 875,129 L 876,129 L 877,129 L 878,129 L 879,128 L 880,128 L 881,128 L 882,128 L 882,127 L 883,127 L 884,127 L 885,127 L 886,127 L 887,127 L 887,126 L 888,126 L 889,126 L 889,127 L 890,127 L 891,127 L 891,128 L 890,128 L 890,129 L 891,130 L 891,131 L 892,131 L 892,132 L 893,132 L 895,133 L 896,133 L 897,133 L 898,132 L 899,132 L 900,131 L 902,131 L 903,130 L 905,130 L 906,129 L 907,129 L 908,129 L 909,130 L 911,130 L 912,130 L 913,131 L 912,132 L 912,133 L 911,134 L 911,135 L 910,135 L 910,136 L 910,137 L 911,138 L 910,139 L 910,140 L 911,140 L 912,139 L 912,137 L 913,136 L 914,135 L 915,135 L 915,134 L 916,133 L 917,133 L 917,132 L 919,132 L 920,132 L 921,132 L 921,133 L 922,133 L 923,133 L 924,134 L 924,135 L 925,135 L 926,135 L 927,135 L 928,134 L 929,134 L 930,134 L 931,135 L 932,135 L 932,136 L 932,137 L 931,138 L 931,139 L 930,139 L 930,140 L 931,140 L 932,139 L 933,138 L 934,138 L 934,137 L 935,136 L 936,136 L 937,135 L 938,135 L 939,135 L 940,135 L 941,136 L 942,136 L 943,136 L 943,137 L 944,137 L 945,137 L 946,137 L 946,138 L 946,139 L 946,140 L 947,140 L 948,140 L 948,139 L 949,139 L 949,138 L 950,138 L 951,138 L 952,138 L 953,139 L 954,139 L 955,139 L 956,140 L 957,140 L 958,140 L 958,141 L 958,142 L 958,143 L 959,142 L 960,142 L 961,142 L 962,142 L 963,143 L 963,144 L 963,145 L 964,146 L 964,147 L 964,148 L 964,149 L 965,148 L 966,148 L 967,148 L 968,148 L 969,148 L 969,149 L 969,150 L 970,151 L 970,152 L 971,153 L 972,153 L 973,153 L 974,153 L 975,153 L 976,154 L 977,155 L 977,156 L 977,157 L 977,158 L 978,159 L 979,160 L 980,161 L 980,162 L 980,164 L 981,165 L 981,166 L 981,167 L 981,168 L 981,169 L 981,170 L 980,171 L 981,172 L 981,173 L 980,174 L 980,175 L 980,176 L 979,177 L 978,178 L 977,178 L 977,179 L 977,180 L 976,180 L 975,179 L 974,179 L 973,179 L 973,180 L 973,181 L 973,182 L 974,183 L 974,184 L 974,185 L 974,186 L 974,187 L 974,188 L 974,189 L 974,190 L 974,191 L 974,192 L 973,193 L 972,193 L 971,194 L 970,195 L 969,195 L 969,196 L 968,196 L 967,196 L 967,197 L 968,197 L 968,198 L 968,199 L 967,200 L 967,201 L 966,202 L 965,203 L 965,204 L 964,204 L 964,205 L 965,206 L 966,205 L 967,206 L 967,207 L 967,209 L 967,211 L 967,212 L 968,213 L 968,214 L 968,215 L 968,216 L 967,217 L 968,219 L 968,220 L 968,222 L 968,223 L 969,224 L 970,226 L 970,227 L 971,228 L 970,229 L 970,230 L 969,230 L 968,230 L 967,230 L 966,230 L 965,231 L 965,232 L 965,233 L 964,234 L 964,235 L 964,236 L 964,237 L 965,237 L 965,238 L 966,238 L 967,238 L 968,237 L 970,237 L 971,237 L 972,237 L 972,238 L 973,238 L 972,239 L 971,240 L 971,241 L 971,242 L 971,243 L 971,244 L 971,245 L 972,245 L 972,246 L 972,247 L 971,248 L 971,249 L 970,250 L 970,251 L 970,252 L 971,253 L 972,254 L 973,254 L 974,255 L 974,256 L 975,256 L 975,257 L 976,258 L 977,258 L 977,259 L 977,260 L 978,261 L 978,262 L 978,263 L 979,264 L 980,264 L 981,264 L 982,264 L 983,264 L 983,265 L 984,265 L 985,265 L 986,265 L 986,266 L 987,267 L 987,268 L 988,267 L 989,267 L 989,268 L 990,269 L 991,270 L 992,270 L 991,271 L 990,272 L 989,272 L 988,272 L 987,272 L 987,273 L 988,273 L 988,274 L 988,275 L 987,276 L 988,277 L 989,276 L 990,276 L 990,275 L 991,274 L 992,274 L 993,274 L 993,275 L 994,275 L 994,276 L 994,277 L 995,278 L 995,279 L 995,280 L 996,280 L 997,280 L 997,279 L 997,280 L 997,281 L 997,282 L 996,282 L 996,283 L 997,284 L 997,285 L 996,286 L 996,287 L 997,287 L 997,288 L 997,289 L 997,291 L 997,292 L 997,293 L 997,294 L 997,295 L 998,296 L 999,296 L 999,297 L 999,298 L 998,298 L 997,299 L 997,300 L 998,300 L 999,300 L 1000,300 L 1000,301 L 1001,301 L 1001,302 L 1000,302 L 999,303 L 998,303 L 998,304 L 999,305 L 999,306 L 1000,306 L 1001,306 L 1001,307 L 1002,308 L 1003,308 L 1004,308 L 1005,308 L 1006,308 L 1007,309 L 1007,310 L 1007,311 L 1008,311 L 1007,312 L 1006,312 L 1006,313 L 1005,313 L 1004,313 L 1003,313 L 1002,314 L 1001,314 L 1000,314 L 1000,315 L 999,315 L 999,316 L 998,316 L 997,316 L 997,317 L 996,317 L 996,318 L 997,319 L 998,319 L 998,318 L 999,319 L 999,320 L 999,321 L 998,321 L 998,322 L 998,323 L 999,324 L 1000,324 L 1000,325 L 1001,326 L 1002,326 L 1002,327 L 1003,327 L 1004,327 L 1005,327 L 1006,327 L 1007,327 L 1007,326 L 1007,325 L 1007,324 L 1008,323 L 1008,322 L 1009,321 L 1010,322 L 1011,322 L 1012,322 L 1013,322 L 1014,322 L 1015,321 L 1015,320 L 1015,319 L 1016,319 L 1016,318 L 1017,318 L 1018,319 L 1019,318 L 1020,318 L 1021,317 L 1022,318 L 1023,318 L 1023,319 L 1023,320 L 1024,320 L 1025,319 L 1026,319 L 1026,318 L 1027,318 L 1028,318 L 1028,319 L 1027,320 L 1027,321 L 1027,322 L 1028,322 L 1028,323 L 1029,323 L 1029,324 L 1030,324 L 1031,324 L 1032,323 L 1033,324 L 1034,323 L 1035,323 L 1036,322 L 1037,322 L 1038,321 L 1039,321 L 1040,321 L 1041,321 L 1041,322 L 1042,322 L 1043,322 L 1043,323 L 1043,324 L 1042,325 L 1042,326 L 1041,326 L 1041,327 L 1041,328 L 1041,329 L 1042,330 L 1042,331 L 1041,332 L 1041,333 L 1042,333 L 1042,334 L 1043,334 L 1043,335 L 1042,336 L 1042,337 L 1042,338 L 1043,339 L 1044,339 L 1045,339 L 1045,338 L 1046,338 L 1047,338 L 1048,338 L 1048,339 L 1049,339 L 1049,338 L 1048,338 L 1048,337 L 1047,336 L 1047,335 L 1047,334 L 1047,333 L 1048,332 L 1048,331 L 1048,330 L 1049,329 L 1050,329 L 1050,330 L 1051,330 L 1052,331 L 1053,331 L 1054,331 L 1055,331 L 1056,331 L 1057,331 L 1058,331 L 1059,331 L 1060,330 L 1061,330 L 1062,329 L 1063,329 L 1065,329 L 1066,330 L 1067,330 L 1068,330 L 1069,330 L 1071,330 L 1072,331 L 1073,332 L 1073,333 L 1074,334 L 1075,334 L 1075,335 L 1076,335 L 1077,336 L 1077,337 L 1078,337 L 1079,338 L 1080,339 L 1081,340 L 1082,340 L 1082,339 L 1081,338 L 1081,337 L 1081,336 L 1080,335 L 1080,334 L 1079,333 L 1079,332 L 1080,331 L 1080,330 L 1081,329 L 1082,329 L 1083,328 L 1084,328 L 1085,328 L 1086,328 L 1086,329 L 1086,330 L 1087,332 L 1088,333 L 1089,333 L 1090,332 L 1091,332 L 1092,333 L 1092,334 L 1092,335 L 1092,336 L 1091,337 L 1091,338 L 1092,339 L 1093,339 L 1094,339 L 1095,339 L 1096,339 L 1097,339 L 1098,339 L 1099,340 L 1098,341 L 1097,342 L 1096,342 L 1095,343 L 1094,343 L 1093,344 L 1092,345 L 1091,345 L 1091,346 L 1091,347 L 1091,348 L 1091,349 L 1092,350 L 1092,351 L 1093,351 L 1094,352 L 1095,352 L 1096,351 L 1096,350 L 1097,349 L 1097,350 L 1097,351 L 1098,351 L 1099,351 L 1099,352 L 1098,353 L 1090,364 L 1086,371 L 1085,372 L 1083,375 L 1078,382 L 1076,389 L 1076,391 L 1075,407 L 1078,415 L 1078,418 L 1079,419 L 1080,423 L 1080,426 L 1080,429 L 1081,435 L 1081,450 L 1081,453 L 1081,460 L 1083,474 L 1084,477 L 1084,479 L 1084,485 L 1083,489 L 1083,491 L 1082,493 L 1081,495 L 1080,497 L 1079,499 L 1077,501 L 1076,502 L 1074,504 L 1070,507 L 1067,510 L 1064,514 L 1062,517 L 1061,518 L 1060,519 L 1060,520 L 1060,521 L 1060,522 L 1061,523 L 1063,526 L 1069,533 L 1072,536 L 1069,538 L 1063,541 L 1059,544 L 1054,550 L 1053,551 L 1031,563 L 1029,565 L 1024,568 L 1023,572 L 1025,574 L 1031,580 L 1032,581 L 1034,584 L 1036,587 L 1038,590 L 1039,593 L 1039,595 L 1039,598 L 1039,601 L 1039,603 L 1038,605 L 1035,613 L 1030,626 L 1027,639 L 1026,641 L 1025,647 L 1024,656 L 1021,664 L 1018,670 L 1015,675 L 1013,678 L 1010,682 L 1008,685 L 1003,689 L 1000,691 L 995,696 L 992,698 L 991,700 L 990,702 L 989,704 L 988,706 L 988,708 L 987,708 L 986,709 L 986,710 L 985,710 L 984,710 L 983,710 L 983,709 L 983,708 L 982,708 L 982,707 L 981,707 L 980,706 L 979,706 L 978,706 L 977,706 L 977,707 L 976,707 L 975,707 L 974,707 L 973,707 L 972,707 L 971,708 L 970,708 L 970,707 L 969,707 L 968,707 L 967,706 L 966,705 L 966,704 L 965,703 L 966,702 L 967,701 L 967,700 L 968,699 L 968,698 L 968,697 L 968,696 L 969,695 L 969,694 L 969,693 L 970,693 L 970,692 L 970,691 L 969,691 L 968,691 L 968,690 L 967,690 L 967,689 L 966,688 L 966,687 L 966,686 L 966,685 L 965,685 L 965,684 L 966,684 L 966,683 L 967,682 L 967,681 L 967,679 L 967,678 L 967,677 L 966,676 L 966,675 L 967,675 L 968,674 L 968,673 L 967,673 L 967,672 L 967,671 L 967,670 L 966,670 L 966,669 L 966,668 L 965,667 L 965,666 L 964,666 L 963,666 L 963,665 L 964,665 L 965,665 L 966,665 L 967,665 L 967,664 L 968,662 L 969,662 L 969,661 L 970,660 L 970,659 L 971,658 L 970,657 L 970,656 L 970,655 L 969,654 L 969,653 L 969,652 L 968,651 L 967,651 L 967,650 L 966,650 L 966,649 L 965,649 L 965,648 L 964,648 L 964,647 L 963,647 L 962,646 L 962,645 L 961,645 L 960,644 L 959,644 L 959,643 L 959,642 L 959,641 L 958,641 L 957,640 L 956,640 L 956,639 L 955,639 L 954,639 L 953,638 L 952,637 L 951,636 L 950,636 L 950,635 L 949,634 L 948,634 L 947,633 L 946,632 L 946,631 L 945,630 L 944,629 L 943,628 L 942,627 L 941,627 L 940,626 L 939,626 L 938,625 L 938,624 L 937,624 L 935,624 L 934,624 L 933,624 L 932,625 L 931,625 L 930,624 L 929,624 L 928,623 L 927,622 L 926,622 L 925,622 L 925,621 L 924,621 L 923,621 L 922,620 L 922,619 L 921,619 L 920,619 L 919,618 L 918,619 L 917,619 L 916,619 L 915,619 L 914,620 L 913,621 L 912,620 L 911,620 L 910,620 L 909,620 L 908,620 L 907,619 L 906,620 L 905,620 L 905,621 L 904,621 L 903,621 L 903,622 L 902,622 L 901,622 L 900,623 L 899,623 L 898,623 L 897,623 L 896,624 L 895,624 L 894,624 L 893,625 L 892,625 L 892,626 L 891,627 L 891,628 L 891,629 L 892,629 L 892,630 L 893,631 L 893,632 L 894,633 L 894,634 L 894,635 L 893,636 L 892,636 L 892,637 L 892,638 L 892,639 L 891,639 L 891,640 L 890,640 L 889,641 L 888,641 L 887,641 L 886,641 L 886,640 L 885,639 L 885,638 L 884,638 L 884,637 L 884,636 L 884,635 L 884,634 L 884,633 L 884,632 L 884,631 L 885,630 L 885,629 L 886,628 L 886,627 L 887,626 L 888,625 L 889,625 L 889,624 L 890,623 L 890,622 L 890,621 L 890,620 L 890,619 L 891,619 L 892,618 L 892,617 L 892,616 L 891,616 L 891,615 L 891,614 L 892,613 L 892,612 L 893,611 L 893,610 L 892,610 L 892,609 L 893,609 L 893,608 L 893,607 L 893,606 L 893,605 L 893,604 L 893,603 L 893,602 L 893,601 L 894,600 L 895,600 L 895,599 L 894,599 L 893,598 L 893,597 L 892,596 L 891,596 L 891,595 L 891,594 L 892,593 L 893,592 L 893,591 L 893,590 L 894,590 L 894,589 L 894,588 L 895,588 L 895,587 L 895,586 L 895,585 L 894,584 L 894,583 L 894,582 L 893,581 L 893,580 L 892,579 L 891,578 L 891,577 L 890,577 L 890,576 L 889,576 L 889,575 L 888,574 L 887,573 L 887,572 L 886,571 L 885,569 L 884,568 L 883,566 L 882,565 L 881,565 L 880,564 L 879,564 L 878,564 L 877,563 L 877,562 L 875,561 L 874,561 L 873,561 L 871,561 L 870,561 L 869,560 L 868,559 L 867,559 L 867,558 L 867,557 L 867,556 L 868,555 L 868,554 L 867,553 L 866,552 L 866,551 L 865,550 L 864,549 L 864,548 L 865,548 L 865,546 L 866,546 L 866,545 L 867,545 L 868,545 L 869,544 L 870,544 L 871,543 L 872,543 L 872,542 L 872,541 L 872,540 L 872,539 L 872,537 L 872,536 L 871,536 L 871,535 L 870,534 L 869,533 L 868,533 L 868,532 L 868,531 L 867,531 L 866,530 L 865,529 L 864,528 L 863,528 L 862,527 L 862,526 L 862,525 L 863,524 L 863,523 L 864,523 L 865,523 L 865,522 L 866,521 L 866,520 L 865,520 L 864,520 L 863,519 L 862,519 L 861,519 L 860,518 L 860,517 L 859,516 L 858,516 L 857,515 L 857,514 L 857,513 L 857,512 L 857,511 L 857,510 L 857,509 L 856,509 L 855,509 L 854,509 L 854,508 L 853,508 L 854,507 L 855,508 L 856,508 L 857,508 L 857,507 L 858,507 L 859,506 L 859,505 L 859,504 L 858,504 L 857,503 L 857,502 L 857,501 L 856,500 L 855,499 L 854,498 L 853,498 L 852,498 L 851,498 L 850,498 L 848,498 L 847,499 L 846,499 L 846,500 L 846,501 L 846,502 L 846,503 L 846,504 L 846,505 L 845,506 L 844,506 L 843,507 L 842,507 L 841,508 L 840,508 L 840,509 L 840,510 L 841,510 L 842,511 L 843,511 L 843,512 L 843,513 L 842,514 L 842,515 L 840,516 L 839,516 L 839,517 L 838,516 L 837,515 L 837,514 L 837,513 L 837,512 L 836,512 L 836,511 L 836,510 L 836,509 L 835,508 L 835,507 L 836,506 L 835,505 L 835,504 L 835,503 L 835,502 L 835,501 L 835,500 L 835,499 L 835,498 L 835,497 L 835,496 L 835,495 L 835,494 L 836,493 L 836,492 L 837,491 L 837,490 L 836,490 L 836,489 L 835,489 L 834,488 L 833,487 L 833,486 L 832,485 L 833,484 L 834,484 L 834,483 L 834,482 L 833,481 L 833,480 L 832,479 L 832,478 L 831,478 L 830,478 L 829,478 L 828,478 L 827,478 L 827,477 L 826,477 L 826,476 L 826,475 L 826,474 L 826,473 L 825,473 L 824,473 L 823,473 L 822,472 L 821,472 L 820,472 L 819,471 L 819,470 L 818,469 L 818,468 L 818,467 L 817,467 L 817,466 L 816,465 L 816,464 L 816,463 L 817,463 L 817,462 L 817,461 L 817,460 L 817,459 L 817,458 L 817,457 L 817,456 L 816,455 L 815,454 L 814,454 L 813,453 L 811,452 L 810,451 L 810,450 L 809,448 L 809,447 L 809,446 L 808,444 L 808,443 L 807,443 L 806,443 L 806,442 L 805,442 L 804,442 L 802,441 L 801,441 L 800,441 L 799,442 L 798,442 L 797,442 L 795,442 L 794,442 L 793,443 L 791,443 L 790,443 L 789,443 L 788,443 L 787,443 L 786,443 L 785,444 L 784,444 L 784,445 L 783,446 L 783,449 L 783,450 L 783,451 L 783,452 L 783,453 L 783,454 L 782,455 L 781,455 L 780,455 L 779,454 L 779,453 L 779,452 L 777,452 L 776,451 L 775,450 L 775,449 L 776,448 L 776,447 L 776,446 L 776,445 L 777,445 L 777,444 L 778,444 L 779,443 L 779,442 L 779,441 L 779,440 L 778,440 L 778,439 L 777,439 L 777,438 L 776,438 L 776,437 L 775,437 L 775,436 L 774,435 L 773,435 L 773,434 L 772,434 L 772,433 L 771,433 L 770,433 L 770,432 L 769,432 L 768,432 L 768,431 L 767,431 L 766,431 L 766,430 L 765,430 L 764,430 L 763,430 L 762,430 L 762,429 L 761,430 L 760,430 L 759,429 L 758,428 L 757,428 L 755,427 L 752,426 L 751,426 L 750,427 L 749,427 L 748,426 L 747,426 L 745,426 L 744,426 L 742,426 L 741,426 L 740,426 L 739,427 L 738,427 L 737,427 L 736,427 L 736,428 L 736,430 L 735,431 L 734,431 L 733,432 L 732,431 L 731,431 L 730,431 L 730,432 L 729,432 L 728,432 L 727,433 L 726,433 L 725,434 L 724,434 L 724,433 L 723,433 L 722,433 L 721,433 L 721,435 L 721,436 L 721,437 L 720,437 L 719,437 L 719,436 L 719,435 L 719,434 L 719,433 L 718,431 L 719,429 L 719,428 L 719,427 L 720,427 L 721,427 L 721,426 L 721,425 L 721,424 L 721,423 L 721,422 L 720,421 L 720,420 L 721,419 L 722,418 L 723,417 L 724,417 L 725,416 L 726,415 L 726,414 L 723,414 L 723,413 L 726,413 L 727,412 L 727,411 L 727,410 L 726,409 L 726,408 L 725,407 L 725,406 L 724,406 L 724,405 L 723,405 L 722,405 L 722,404 L 721,404 L 720,404 L 720,403 L 719,403 L 718,403 L 717,403 L 716,403 L 715,403 L 714,403 L 713,403 L 713,404 L 712,404 L 711,404 L 710,405 L 709,405 L 709,406 L 708,407 L 708,408 L 708,409 L 709,410 L 709,411 L 709,412 L 709,413 L 709,414 L 710,415 L 710,416 L 710,417 L 710,418 L 709,419 L 708,419 L 707,420 L 706,420 L 706,422 L 706,423 L 706,425 L 706,426 L 705,427 L 703,427 L 702,428 L 701,429 L 701,430 L 701,431 L 702,431 L 702,432 L 702,433 L 701,434 L 701,435 L 700,436 L 700,437 L 700,438 L 700,439 L 701,439 L 702,439 L 703,439 L 703,440 L 704,440 L 705,440 L 705,441 L 705,442 L 705,443 L 705,444 L 705,445 L 704,445 L 704,446 L 703,446 L 703,447 L 702,447 L 702,448 L 701,448 L 700,448 L 699,448 L 699,447 L 698,446 L 697,446 L 697,445 L 697,444 L 696,443 L 695,442 L 694,443 L 693,443 L 692,445 L 692,446 L 691,447 L 689,448 L 688,449 L 687,450 L 686,450 L 685,451 L 683,451 L 682,451 L 682,452 L 681,452 L 680,452 L 679,453 L 678,453 L 678,454 L 677,453 L 675,453 L 674,453 L 672,453 L 671,453 L 670,453 L 669,453 L 669,454 L 667,454 L 667,455 L 666,455 L 665,456 L 664,457 L 664,458 L 664,459 L 664,460 L 663,461 L 663,460 L 662,460 L 662,459 L 661,459 L 660,459 L 659,459 L 658,459 L 657,459 L 656,459 L 656,458 L 656,457 L 656,456 L 655,455 L 654,454 L 654,452 L 654,451 L 655,450 L 655,449 L 655,448 L 654,447 L 654,446 L 655,445 L 655,444 L 655,443 L 656,442 L 656,441 L 656,440 L 655,440 L 655,439 L 655,438 L 656,438 L 656,437 L 657,437 L 658,437 L 658,436 L 659,436 L 660,436 L 661,436 L 662,435 L 663,435 L 663,434 L 663,433 L 663,432 L 661,431 L 660,430 L 660,429 L 660,428 L 660,427 L 661,426 L 662,425 L 662,424 L 662,423 L 661,421 L 660,420 L 659,419 L 659,418 L 658,418 L 657,418 L 655,418 L 654,419 L 653,420 L 652,421 L 651,421 L 650,421 L 649,421 L 648,422 L 647,423 L 646,424 L 645,425 L 644,425 L 643,425 L 643,424 L 643,423 L 643,422 L 644,422 L 645,421 L 646,420 L 647,420 L 647,419 L 646,419 L 645,419 L 644,419 L 643,419 L 641,418 L 640,417 L 640,416 L 641,416 L 640,415 L 640,414 L 640,413 L 641,413 L 641,412 L 640,411 L 640,410 L 640,409 L 640,408 L 640,407 L 640,406 L 640,405 L 641,404 L 642,404 L 643,403 L 643,402 L 644,401 L 645,401 L 645,400 L 646,400 L 647,400 L 648,400 L 649,400 L 649,401 L 650,402 L 650,403 L 651,403 L 651,402 L 652,402 L 653,403 L 654,403 L 655,403 L 655,402 L 655,401 L 654,400 L 654,399 L 655,399 L 656,398 L 657,398 L 658,398 L 659,397 L 658,396 L 658,395 L 657,394 L 657,393 L 656,393 L 656,392 L 655,392 L 655,391 L 654,390 L 654,389 L 655,388 L 655,387 L 655,386 L 654,386 L 653,385 L 652,385 L 652,384 L 653,383 L 654,383 L 655,383 L 656,383 L 656,384 L 657,384 L 658,383 L 659,383 L 659,382 L 659,381 L 659,380 L 659,379 L 659,378 L 658,378 L 658,377 L 658,376 L 657,376 L 657,375 L 656,375 L 656,374 L 655,374 L 655,373 L 654,373 L 653,373 L 653,372 L 652,372 L 651,373 L 650,373 L 650,374 L 649,374 L 649,375 L 648,376 L 648,377 L 647,378 L 646,379 L 645,379 L 644,379 L 643,379 L 642,379 L 642,378 L 641,378 L 641,377 L 641,376 L 641,375 L 641,374 L 641,373 L 641,372 L 640,372 L 640,371 L 640,370 L 640,369 L 639,369 L 638,368 L 638,367 L 639,367 L 639,366 L 639,365 L 639,364 L 638,364 L 637,364 L 636,364 L 635,363 L 634,363 L 633,363 L 633,362 L 632,361 L 631,361 L 630,361 L 629,361 L 628,362 L 627,362 L 626,362 L 626,361 L 625,360 L 625,359 L 624,358 L 623,357 L 622,357 L 621,357 L 620,356 L 620,355 L 620,354 L 620,353 L 619,353 L 618,353 L 618,352 L 618,351 L 618,350 L 618,349 L 617,348 L 617,347 L 617,346 L 617,345 L 617,344 L 618,344 L 619,343 L 620,342 L 621,341 L 621,340 L 621,339 L 620,338 L 620,337 L 620,336 L 621,336 L 621,335 L 621,334 L 620,333 L 620,332 L 620,331 L 620,330 L 620,329 L 619,328 L 619,327 L 619,326 L 619,325 L 619,324 L 619,323 L 618,323 L 618,322 L 618,321 L 619,321 L 619,320 L 619,319 L 620,319 L 621,318 L 622,318 L 623,318 L 623,317 L 623,316 L 623,315 L 622,314 L 621,313 L 621,312 L 621,311 L 620,310 L 620,309 L 619,309 L 618,308 L 617,308 L 616,308 L 615,308 L 614,308 L 613,308 L 612,309 L 611,310 L 610,310 L 609,310 L 609,311 L 608,311 L 608,310 L 608,309 L 607,308 L 607,307 L 607,306 L 608,305 L 608,304 L 609,304 L 610,303 L 612,303 L 613,302 L 614,302 L 615,302 L 615,301 L 615,300 L 614,299 L 614,297 L 613,297 L 612,297 L 611,296 L 610,296 L 610,295 L 609,294 L 610,293 L 610,292 L 611,291 L 612,290 L 612,289 L 611,287 L 610,287 L 609,287 L 609,286 L 609,285 L 608,285 L 607,285 L 606,286 L 605,286 L 604,286 L 603,287 L 602,288 L 601,289 L 600,289 L 599,290 L 598,291 L 597,291 L 597,292 L 596,292 L 596,293 L 595,293 L 594,293 L 593,293 L 593,292 L 594,290 L 594,289 L 593,289 L 592,289 L 591,290 L 590,290 L 589,290 L 588,291 L 587,292 L 586,292 L 586,291 L 586,290 L 586,289 L 586,288 L 586,287 L 585,287 L 585,286 L 585,285 L 585,284 L 584,283 L 583,283 L 583,282 L 582,282 L 582,281 L 581,281 L 581,280 L 580,280 L 579,280 L 578,280 L 577,280 L 576,280 L 576,279 L 576,278 L 576,277 L 576,275 L 577,275 L 578,274 L 578,273 L 578,272 L 579,272 L 580,271 L 581,271 L 583,270 L 584,270 L 584,271 L 585,271 L 585,272 L 585,273 L 586,273 L 586,274 L 586,275 L 587,276 L 589,276 L 590,276 L 591,276 L 592,276 L 593,277 L 594,277 L 595,277 L 596,276 L 597,277 L 598,278 L 599,278 L 600,279 L 601,279 L 601,280 L 601,281 L 601,282 L 601,283 L 602,283 L 603,283 L 603,282 L 604,281 L 604,280 L 605,280 L 606,279 L 607,278 L 607,277 L 607,276 L 607,275 L 606,275 L 605,275 L 605,274 L 605,273 L 604,273 L 604,272 L 605,272 L 605,271 L 605,270 L 606,269 L 606,268 L 605,266 L 605,265 L 604,264 L 603,264 L 602,263 L 603,262 L 604,261 L 606,260 L 606,259 L 606,258 L 605,257 L 605,256 L 604,255 L 603,255 L 602,253 L 603,253 L 604,252 L 605,252 L 605,253 L 606,253 L 608,253 L 609,253 L 610,254 L 611,254 L 612,253 L 612,252 L 612,251 L 611,250 L 611,249 L 611,248 L 611,247 L 610,246 L 609,246 L 608,246 L 608,245 L 609,244 L 609,243 L 609,241 L 610,240 L 610,239 L 610,238 L 610,236 L 609,236 L 608,236 L 607,235 L 606,234 L 605,233 L 604,233 L 603,232 L 603,231 L 602,231 L 602,230 L 603,229 L 604,228 L 605,227 L 605,226 L 606,226 L 606,227 L 606,226 L 607,226 L 608,225 L 608,224 L 609,224 L 609,223 L 609,222 L 608,221 L 607,220 L 607,219 L 606,218 L 606,217 L 605,217 L 605,216 L 604,216 L 603,216 L 603,215 L 602,215 L 602,216 L 601,216 L 601,217 L 600,218 L 599,219 L 598,219 L 598,218 L 598,217 L 597,216 L 597,215 L 597,214 L 596,213 L 596,212 L 595,212 L 594,212 L 593,211 L 593,212 L 593,213 L 593,214 L 593,215 L 592,215 L 591,215 L 590,214 L 590,213 L 590,212 L 590,211 L 591,209 L 592,208 L 592,207 L 591,207 L 590,208 L 590,207 L 590,206 L 590,205 L 590,204 L 590,203 L 590,202 L 591,201 L 591,200 L 591,199 L 590,199 L 590,198 L 590,197 L 589,197 L 588,196 L 588,195 L 587,194 L 587,193 L 587,191 L 587,190 L 588,189 L 588,187 L 589,187 L 589,186 L 590,185 L 591,185 L 591,184 L 590,184 L 590,183 L 591,183 L 591,182 L 592,181 L 592,180 L 593,178 L 593,177 L 593,176 L 594,175 L 594,174 L 594,173 L 595,172 L 594,170 L 594,169 L 595,168 L 596,167 L 597,167 L 597,166 L 597,165 L 597,164 L 598,164 L 598,163 L 598,162 L 598,161 L 597,161 L 597,160 L 598,160 L 598,159 L 599,158 L 599,157 L 600,157 L 601,156 L 601,155 L 601,154 L 601,153 L 601,152 L 602,151 L 602,150 L 603,150 L 604,151 L 605,151 L 605,150 L 605,149 L 605,148 L 605,147 L 605,146 L 605,145 L 606,145 L 606,144 L 607,144 L 608,144 L 608,143 L 607,142 L 608,141 L 609,141 L 610,140 L 611,140 L 613,139 L 614,137 L 615,137 L 616,137 L 617,138 L 618,138 L 619,140 L 620,142 L 620,143 L 621,142 L 622,141 L 623,139 L 624,138 L 624,137 L 623,137 L 621,136 L 621,135 L 621,134 L 622,133 L 623,132 L 624,131 L 625,130 L 626,129 L 627,128 L 627,127 L 628,127 L 629,127 L 630,126 L 631,126 L 632,126 L 633,127 L 634,127 L 635,128 L 635,129 L 636,129 L 637,130 L 637,131 L 637,132 L 638,133 L 639,134 L 639,135 L 640,135 L 640,136 L 641,135 L 642,135 L 642,134 L 642,133 L 642,132 L 642,131 L 642,130 L 642,129 L 643,128 L 643,127 L 643,126 L 644,126 L 645,125 L 646,124 L 646,123 L 646,122 L 647,121 L 648,120 L 648,119 L 649,118 L 650,117 L 652,117 L 653,117 L 655,116 L 656,116 L 658,115 L 659,114 L 660,114 L 661,114 L 662,114 L 663,113 L 664,112 L 665,111 L 666,111 L 667,110 L 668,110 L 669,110 L 670,111 L 671,110 L 672,110 L 673,110 L 675,109 L 676,109 L 677,108 L 678,107 L 680,107 L 680,106 L 681,106 L 681,105 L 682,103 L 683,102 L 684,102 L 685,102 L 686,102 L 687,101 L 688,101 L 689,101 L 690,101 L 691,101 L 692,101 L 692,102 L 693,102 L 693,103 L 694,103 L 694,104 L 695,105 L 696,106 L 697,105 L 697,104 L 697,103 L 696,102 L 696,101 L 697,100 L 697,99 L 697,98 L 697,96 L 698,95 L 699,94 L 699,93 L 700,92 L 701,91 L 702,91 L 702,92 L 702,93 L 702,94 L 703,94 L 704,94 L 704,95 L 705,96 L 705,97 L 705,98 L 706,98 L 707,98 L 708,97 L 709,97 L 709,96 L 710,95 L 710,94 L 710,93 L 710,92 L 710,91 L 709,91 L 709,90 L 708,90 L 708,89 L 708,88 L 708,87 L 709,87 L 709,86 L 709,85 L 708,85 L 708,84 L 707,84 L 707,83 L 707,82 L 707,81 L 707,80 L 707,79 L 707,78 L 708,77 L 709,77 L 711,76 L 711,75 L 712,75 L 713,74 L 714,73 L 714,72 L 715,71 L 716,71 L 717,71 L 718,71 L 718,70 L 719,70 L 720,70 L 720,69 L 721,68 L 722,67 L 723,67 L 723,66 L 724,65 L 725,65 L 726,65 L 726,64 L 727,63 L 728,63 L 729,63 L 730,63 L 730,62 L 731,62 L 732,62 L 732,61 L 733,61 L 734,62 L 735,63 L 736,64 L 737,65 L 738,66 L 738,67 L 739,68 L 740,68 L 740,67 L 740,66 L 740,65 L 740,64 L 740,62 L 740,61 L 740,60 L 740,59 L 741,58 L 742,58 L 743,58 L 744,57 L 744,56 L 745,56 L 745,55 L 746,55 L 747,54 L 748,54 L 748,53 L 749,53 L 750,52 L 751,52 L 751,51 L 752,51 L 753,51 L 754,50 L 755,50 L 756,50 L 757,50 L 757,49 L 758,49 L 759,49 L 760,49 L 761,49 L 762,49 L 762,48 L 763,48 L 764,48 L 765,47 L 766,47 L 767,46 L 768,46 L 769,46 L 770,46 L 770,47 L 771,47 L 772,47 L 772,48 L 773,48 L 773,47 L 773,46 L 774,45 L 774,44 L 774,43 L 775,43 L 776,43 L 777,42 L 778,42 L 780,43 L 781,43 L 782,43 L 783,43 L 784,43 L 784,44 L 785,45 L 785,46 L 786,46 L 786,47 L 786,48 L 786,49 L 786,50 L 785,51 L 785,52 L 786,53 L 786,52 L 787,51 L 788,51 L 789,50 L 790,49 L 790,48 L 790,47 L 790,46 L 789,45 L 789,44 L 790,43 L 791,43 L 792,43 L 792,44 L 793,45 L 793,46 L 794,47 L 794,48 L 795,49 L 795,50 L 795,51 L 795,52 L 795,53 L 796,52 L 796,51 L 796,50 L 797,49 L 797,48 L 797,47 L 797,46 L 797,45 L 797,44 L 797,43 L 797,42 L 797,41 L 798,41 L 799,40 L 800,40 L 801,40 L 802,40 L 803,41 L 804,41 L 805,41 L 806,41 L 807,41 L 808,41 L 808,40 L 809,40 L 810,40 L 811,39 L 812,38 L 813,38 L 814,38 L 815,38 L 816,38 L 817,38 L 818,38 L 819,38 L 820,37 L 821,37 L 822,36 L 823,36 L 824,36 L 825,36 L 826,36 L 827,37 L 828,37 L 829,37 L 829,36 L 829,35 L 830,35 L 830,34 L 831,33 L 832,32 L 833,31 L 834,30 L 835,30 L 836,30 L 837,30 L 838,30 L 839,30 L 840,30 L 841,30 L 842,29 L 843,29 L 845,30 L 846,30 L 846,31 L 847,31 L 848,31 L 849,32 L 850,32 L 851,33 L 851,34 L 852,34 L 853,33 L 854,33 L 856,33 L 857,32 L 858,32 L 859,32 L 860,32 L 861,31 L 861,30 L 862,29 L 862,28 L 863,27 L 864,26 L 865,26 L 866,27 L 866,28 L 867,29 L 868,30 " />
</g>
<g id="union_lektiko_δημοσ_άνδρου_2" >
<path d="M 1327,1060 L 1326,1060 L 1325,1060 L 1325,1059 L 1325,1058 L 1326,1058 L 1327,1058 L 1328,1058 L 1329,1058 L 1329,1059 L 1328,1059 L 1328,1060 L 1327,1060 " />
<path d="M 1402,883 L 1402,884 L 1401,884 L 1401,883 L 1402,882 L 1403,883 L 1402,883 " />
<path d="M 1404,883 L 1404,884 L 1404,883 L 1403,882 L 1404,882 L 1404,881 L 1405,882 L 1406,882 L 1405,882 L 1405,883 L 1404,883 " />
<path d="M 1311,589 L 1311,590 L 1311,589 L 1312,588 L 1314,587 L 1315,586 L 1316,585 L 1318,584 L 1318,583 L 1319,582 L 1320,581 L 1321,580 L 1322,579 L 1323,578 L 1324,577 L 1326,578 L 1326,580 L 1326,582 L 1327,583 L 1327,585 L 1326,586 L 1326,588 L 1325,589 L 1324,590 L 1323,592 L 1323,594 L 1324,594 L 1324,595 L 1324,596 L 1324,597 L 1325,598 L 1324,598 L 1323,600 L 1323,601 L 1324,602 L 1324,604 L 1324,606 L 1324,607 L 1324,608 L 1323,608 L 1323,610 L 1323,611 L 1323,612 L 1323,613 L 1322,614 L 1322,615 L 1322,616 L 1323,616 L 1323,617 L 1323,618 L 1324,618 L 1325,618 L 1326,617 L 1327,615 L 1327,614 L 1328,612 L 1329,612 L 1330,611 L 1331,610 L 1332,609 L 1333,609 L 1334,608 L 1334,606 L 1335,605 L 1336,603 L 1336,602 L 1337,601 L 1338,601 L 1339,601 L 1340,601 L 1341,600 L 1342,600 L 1343,599 L 1344,599 L 1345,599 L 1346,599 L 1347,600 L 1348,600 L 1349,601 L 1349,602 L 1350,602 L 1351,603 L 1352,603 L 1353,603 L 1353,604 L 1352,605 L 1352,606 L 1352,607 L 1352,608 L 1352,609 L 1351,610 L 1352,610 L 1353,610 L 1354,610 L 1355,610 L 1356,611 L 1357,611 L 1357,612 L 1357,613 L 1358,613 L 1358,614 L 1358,615 L 1359,615 L 1359,616 L 1360,616 L 1360,617 L 1360,618 L 1360,619 L 1361,620 L 1361,621 L 1360,622 L 1359,622 L 1358,622 L 1357,622 L 1356,623 L 1357,624 L 1357,625 L 1358,625 L 1358,626 L 1358,627 L 1359,628 L 1358,628 L 1358,629 L 1358,630 L 1358,631 L 1358,632 L 1357,633 L 1356,634 L 1356,635 L 1356,637 L 1356,638 L 1357,638 L 1358,638 L 1359,637 L 1360,637 L 1361,636 L 1362,636 L 1362,635 L 1363,635 L 1364,635 L 1364,634 L 1365,634 L 1366,633 L 1367,633 L 1368,633 L 1369,633 L 1370,633 L 1371,633 L 1372,633 L 1372,634 L 1373,634 L 1374,634 L 1374,635 L 1375,635 L 1376,636 L 1376,637 L 1376,638 L 1376,639 L 1376,640 L 1377,640 L 1378,639 L 1378,640 L 1379,641 L 1379,642 L 1379,643 L 1379,644 L 1380,646 L 1380,647 L 1380,648 L 1379,649 L 1378,649 L 1378,650 L 1377,650 L 1376,651 L 1375,651 L 1375,652 L 1374,653 L 1374,654 L 1374,655 L 1374,657 L 1374,658 L 1373,659 L 1372,659 L 1371,659 L 1370,660 L 1370,661 L 1369,662 L 1368,663 L 1367,664 L 1365,665 L 1364,666 L 1363,665 L 1362,665 L 1361,665 L 1360,666 L 1359,667 L 1358,668 L 1357,669 L 1357,670 L 1356,671 L 1355,672 L 1355,674 L 1354,675 L 1354,676 L 1354,678 L 1354,679 L 1353,680 L 1352,681 L 1352,682 L 1351,683 L 1350,685 L 1349,687 L 1348,687 L 1347,688 L 1347,689 L 1346,690 L 1345,691 L 1345,692 L 1344,693 L 1343,694 L 1343,695 L 1343,696 L 1342,697 L 1342,698 L 1342,699 L 1342,700 L 1341,701 L 1340,702 L 1340,703 L 1339,703 L 1339,704 L 1338,704 L 1338,705 L 1338,706 L 1338,707 L 1338,708 L 1339,708 L 1339,709 L 1340,709 L 1341,710 L 1342,710 L 1343,710 L 1344,710 L 1345,711 L 1345,710 L 1345,709 L 1345,708 L 1346,708 L 1347,708 L 1347,709 L 1348,710 L 1348,709 L 1349,709 L 1350,709 L 1350,708 L 1351,708 L 1353,708 L 1353,709 L 1354,709 L 1355,709 L 1356,710 L 1357,712 L 1357,713 L 1357,714 L 1357,715 L 1357,716 L 1357,717 L 1358,717 L 1359,717 L 1360,717 L 1361,718 L 1361,719 L 1361,720 L 1360,721 L 1359,721 L 1358,721 L 1358,722 L 1357,722 L 1356,722 L 1355,723 L 1355,724 L 1355,725 L 1354,725 L 1354,726 L 1353,726 L 1353,727 L 1352,728 L 1352,729 L 1351,729 L 1350,729 L 1349,729 L 1348,729 L 1348,728 L 1347,728 L 1346,728 L 1345,728 L 1344,728 L 1344,727 L 1343,727 L 1342,727 L 1341,727 L 1340,728 L 1339,728 L 1338,728 L 1337,728 L 1336,729 L 1335,729 L 1334,729 L 1334,730 L 1333,730 L 1333,731 L 1333,733 L 1333,734 L 1333,735 L 1334,736 L 1334,737 L 1333,737 L 1332,736 L 1332,737 L 1331,738 L 1330,739 L 1330,740 L 1329,740 L 1329,741 L 1328,740 L 1327,740 L 1326,741 L 1325,742 L 1324,743 L 1323,744 L 1323,745 L 1323,746 L 1323,747 L 1322,748 L 1322,749 L 1322,750 L 1323,752 L 1323,753 L 1324,753 L 1325,753 L 1325,754 L 1326,755 L 1326,756 L 1327,757 L 1328,757 L 1329,757 L 1329,758 L 1330,759 L 1329,759 L 1329,760 L 1329,761 L 1328,762 L 1327,762 L 1326,763 L 1326,765 L 1325,766 L 1324,766 L 1323,765 L 1323,764 L 1322,764 L 1321,763 L 1320,763 L 1319,763 L 1318,764 L 1317,764 L 1315,764 L 1314,765 L 1314,766 L 1313,767 L 1312,768 L 1311,768 L 1309,768 L 1308,769 L 1307,770 L 1307,771 L 1306,772 L 1305,773 L 1304,774 L 1304,775 L 1304,776 L 1304,777 L 1304,778 L 1303,779 L 1304,779 L 1304,780 L 1303,780 L 1303,781 L 1303,782 L 1303,783 L 1303,784 L 1304,785 L 1304,786 L 1304,787 L 1304,788 L 1305,789 L 1305,791 L 1306,792 L 1307,793 L 1308,794 L 1308,795 L 1309,795 L 1309,796 L 1310,797 L 1311,798 L 1311,799 L 1312,799 L 1313,801 L 1313,802 L 1314,802 L 1315,803 L 1316,803 L 1317,803 L 1318,802 L 1319,801 L 1320,801 L 1321,800 L 1321,799 L 1322,798 L 1323,798 L 1324,798 L 1325,797 L 1325,796 L 1326,796 L 1328,795 L 1328,794 L 1329,793 L 1330,794 L 1331,794 L 1332,795 L 1332,796 L 1331,796 L 1331,797 L 1332,798 L 1332,799 L 1333,798 L 1334,798 L 1334,799 L 1335,799 L 1335,801 L 1336,802 L 1337,801 L 1337,800 L 1338,799 L 1339,799 L 1340,799 L 1341,799 L 1342,799 L 1343,798 L 1343,797 L 1343,796 L 1342,795 L 1343,794 L 1343,793 L 1343,792 L 1344,791 L 1345,790 L 1346,790 L 1347,789 L 1348,789 L 1349,790 L 1350,790 L 1351,791 L 1351,792 L 1352,792 L 1352,793 L 1353,793 L 1353,792 L 1353,791 L 1354,791 L 1354,790 L 1354,789 L 1354,788 L 1355,787 L 1355,786 L 1356,785 L 1357,785 L 1357,784 L 1358,784 L 1359,784 L 1360,783 L 1361,783 L 1362,782 L 1363,782 L 1364,782 L 1365,782 L 1366,781 L 1368,780 L 1369,780 L 1370,780 L 1371,779 L 1372,779 L 1373,779 L 1373,780 L 1374,780 L 1375,780 L 1376,780 L 1377,780 L 1378,780 L 1378,781 L 1379,781 L 1380,781 L 1381,781 L 1382,781 L 1382,782 L 1383,782 L 1385,782 L 1386,782 L 1387,782 L 1387,783 L 1388,784 L 1389,784 L 1390,785 L 1391,786 L 1391,785 L 1392,785 L 1393,785 L 1394,785 L 1395,784 L 1396,785 L 1397,785 L 1398,785 L 1399,785 L 1400,785 L 1401,785 L 1402,785 L 1403,785 L 1405,785 L 1405,784 L 1407,784 L 1408,784 L 1409,784 L 1410,783 L 1411,784 L 1412,784 L 1413,784 L 1414,783 L 1416,782 L 1417,782 L 1418,782 L 1419,782 L 1420,781 L 1421,781 L 1422,781 L 1422,782 L 1423,782 L 1424,782 L 1425,782 L 1426,782 L 1426,783 L 1426,784 L 1426,785 L 1427,785 L 1428,785 L 1428,786 L 1429,787 L 1430,787 L 1431,788 L 1432,788 L 1433,788 L 1433,789 L 1433,790 L 1434,791 L 1434,792 L 1434,793 L 1433,793 L 1433,794 L 1432,795 L 1432,796 L 1431,797 L 1431,799 L 1431,800 L 1431,801 L 1430,802 L 1429,803 L 1428,803 L 1427,803 L 1427,802 L 1427,801 L 1426,801 L 1425,801 L 1425,802 L 1424,803 L 1423,803 L 1422,804 L 1421,804 L 1421,805 L 1421,806 L 1420,806 L 1420,807 L 1419,807 L 1419,808 L 1419,809 L 1420,809 L 1420,810 L 1421,810 L 1422,811 L 1422,813 L 1421,814 L 1420,815 L 1419,816 L 1419,817 L 1418,818 L 1418,819 L 1417,820 L 1416,820 L 1415,820 L 1415,821 L 1416,821 L 1417,821 L 1418,821 L 1419,821 L 1420,822 L 1421,821 L 1422,821 L 1423,822 L 1423,823 L 1423,824 L 1423,825 L 1422,825 L 1422,826 L 1423,827 L 1423,828 L 1423,829 L 1423,830 L 1423,831 L 1423,832 L 1424,832 L 1425,832 L 1425,833 L 1424,834 L 1423,834 L 1422,835 L 1421,835 L 1420,835 L 1419,835 L 1417,835 L 1416,835 L 1415,835 L 1414,834 L 1413,834 L 1413,835 L 1414,835 L 1414,836 L 1415,837 L 1415,838 L 1415,839 L 1415,840 L 1416,841 L 1416,842 L 1415,843 L 1415,844 L 1415,845 L 1415,846 L 1414,846 L 1413,847 L 1412,847 L 1411,847 L 1410,846 L 1409,846 L 1408,846 L 1407,846 L 1406,847 L 1405,847 L 1404,848 L 1404,847 L 1403,847 L 1402,847 L 1402,848 L 1402,849 L 1402,850 L 1402,851 L 1402,852 L 1403,852 L 1404,853 L 1405,853 L 1405,854 L 1405,855 L 1406,856 L 1407,856 L 1407,857 L 1408,858 L 1408,859 L 1407,859 L 1407,860 L 1406,860 L 1405,860 L 1404,861 L 1403,861 L 1403,862 L 1404,862 L 1405,862 L 1405,863 L 1406,863 L 1407,864 L 1407,865 L 1406,866 L 1405,866 L 1405,865 L 1404,865 L 1403,865 L 1402,865 L 1402,866 L 1401,866 L 1400,866 L 1399,866 L 1399,867 L 1399,868 L 1399,870 L 1399,871 L 1400,871 L 1400,872 L 1400,873 L 1399,873 L 1398,874 L 1397,874 L 1396,875 L 1395,876 L 1394,876 L 1393,876 L 1392,877 L 1393,877 L 1393,878 L 1392,879 L 1391,879 L 1391,880 L 1391,881 L 1392,882 L 1392,883 L 1393,884 L 1394,885 L 1395,884 L 1396,884 L 1397,884 L 1398,884 L 1399,884 L 1400,884 L 1401,884 L 1401,885 L 1400,886 L 1400,887 L 1401,888 L 1400,889 L 1400,890 L 1399,890 L 1398,890 L 1398,891 L 1397,892 L 1396,893 L 1395,893 L 1394,894 L 1393,894 L 1392,895 L 1392,896 L 1391,896 L 1390,897 L 1389,897 L 1388,897 L 1388,898 L 1388,899 L 1387,900 L 1387,901 L 1387,902 L 1387,903 L 1388,904 L 1388,905 L 1389,907 L 1388,908 L 1388,909 L 1387,910 L 1387,911 L 1388,911 L 1388,912 L 1388,913 L 1389,913 L 1389,914 L 1389,915 L 1388,915 L 1388,916 L 1387,916 L 1387,917 L 1387,918 L 1386,919 L 1386,921 L 1386,922 L 1385,923 L 1385,924 L 1384,925 L 1383,926 L 1383,927 L 1382,927 L 1382,928 L 1382,929 L 1381,930 L 1381,931 L 1380,932 L 1379,933 L 1378,933 L 1378,934 L 1377,935 L 1376,937 L 1375,938 L 1375,939 L 1374,939 L 1374,940 L 1373,941 L 1373,942 L 1372,942 L 1372,943 L 1372,944 L 1372,945 L 1371,945 L 1370,946 L 1369,947 L 1369,948 L 1369,949 L 1368,950 L 1369,952 L 1368,953 L 1367,954 L 1366,955 L 1366,956 L 1365,957 L 1364,957 L 1364,958 L 1365,958 L 1365,959 L 1365,960 L 1364,961 L 1363,961 L 1362,961 L 1361,961 L 1361,962 L 1360,962 L 1360,963 L 1360,964 L 1359,964 L 1360,964 L 1360,965 L 1361,965 L 1361,966 L 1360,966 L 1360,967 L 1359,967 L 1358,967 L 1358,966 L 1357,966 L 1356,966 L 1355,966 L 1354,966 L 1354,967 L 1354,968 L 1354,969 L 1354,970 L 1354,971 L 1355,971 L 1355,972 L 1355,973 L 1355,974 L 1355,975 L 1355,976 L 1354,976 L 1354,977 L 1354,978 L 1354,979 L 1353,980 L 1352,981 L 1352,980 L 1351,980 L 1351,979 L 1350,980 L 1349,981 L 1349,982 L 1348,982 L 1347,982 L 1346,981 L 1346,980 L 1345,980 L 1344,979 L 1343,978 L 1342,978 L 1342,979 L 1341,979 L 1341,980 L 1342,980 L 1342,981 L 1342,982 L 1342,983 L 1342,984 L 1342,985 L 1342,986 L 1341,986 L 1341,987 L 1340,987 L 1339,987 L 1339,988 L 1339,989 L 1339,990 L 1339,991 L 1339,992 L 1338,992 L 1338,993 L 1337,994 L 1337,995 L 1336,995 L 1336,996 L 1336,997 L 1335,997 L 1334,998 L 1334,999 L 1333,1000 L 1333,1001 L 1332,1002 L 1332,1003 L 1331,1004 L 1330,1004 L 1329,1003 L 1328,1002 L 1327,1001 L 1327,1002 L 1326,1002 L 1325,1002 L 1324,1002 L 1324,1003 L 1323,1004 L 1323,1005 L 1322,1005 L 1321,1005 L 1321,1004 L 1320,1004 L 1319,1004 L 1318,1004 L 1317,1005 L 1317,1006 L 1316,1006 L 1316,1007 L 1315,1006 L 1314,1006 L 1313,1006 L 1312,1007 L 1311,1008 L 1310,1009 L 1310,1010 L 1309,1010 L 1309,1011 L 1309,1012 L 1309,1014 L 1309,1015 L 1309,1016 L 1309,1017 L 1309,1018 L 1310,1019 L 1311,1019 L 1312,1020 L 1313,1020 L 1314,1021 L 1315,1022 L 1314,1023 L 1314,1024 L 1313,1025 L 1313,1026 L 1312,1026 L 1312,1027 L 1313,1028 L 1314,1028 L 1314,1029 L 1314,1030 L 1313,1031 L 1312,1032 L 1312,1033 L 1313,1034 L 1314,1034 L 1315,1033 L 1317,1033 L 1318,1033 L 1319,1033 L 1320,1033 L 1321,1033 L 1321,1034 L 1322,1034 L 1323,1033 L 1324,1034 L 1323,1034 L 1323,1035 L 1323,1036 L 1323,1037 L 1322,1038 L 1322,1039 L 1322,1040 L 1322,1041 L 1322,1042 L 1323,1042 L 1324,1042 L 1325,1042 L 1326,1042 L 1327,1042 L 1328,1043 L 1329,1044 L 1329,1045 L 1330,1046 L 1330,1047 L 1329,1048 L 1329,1049 L 1328,1050 L 1328,1051 L 1327,1051 L 1327,1052 L 1328,1052 L 1329,1052 L 1330,1052 L 1329,1053 L 1328,1053 L 1327,1053 L 1326,1053 L 1325,1053 L 1324,1053 L 1323,1054 L 1323,1055 L 1323,1056 L 1323,1057 L 1323,1058 L 1323,1059 L 1322,1060 L 1322,1061 L 1321,1061 L 1320,1061 L 1319,1062 L 1318,1062 L 1317,1062 L 1316,1063 L 1316,1064 L 1317,1065 L 1318,1066 L 1319,1066 L 1320,1065 L 1321,1065 L 1322,1065 L 1322,1066 L 1323,1067 L 1323,1068 L 1324,1068 L 1324,1069 L 1324,1070 L 1324,1071 L 1325,1071 L 1326,1072 L 1327,1072 L 1327,1073 L 1328,1073 L 1329,1072 L 1329,1071 L 1330,1071 L 1331,1070 L 1332,1070 L 1333,1071 L 1334,1071 L 1334,1072 L 1335,1072 L 1336,1072 L 1336,1073 L 1337,1073 L 1337,1074 L 1337,1075 L 1337,1076 L 1338,1076 L 1338,1077 L 1338,1078 L 1339,1078 L 1339,1079 L 1339,1080 L 1339,1081 L 1339,1082 L 1338,1082 L 1337,1082 L 1336,1082 L 1335,1082 L 1335,1083 L 1335,1084 L 1335,1085 L 1334,1086 L 1333,1087 L 1332,1087 L 1332,1086 L 1331,1086 L 1330,1086 L 1330,1085 L 1329,1085 L 1329,1086 L 1328,1086 L 1327,1086 L 1327,1087 L 1326,1087 L 1325,1087 L 1324,1086 L 1323,1086 L 1322,1086 L 1321,1086 L 1321,1087 L 1319,1087 L 1318,1087 L 1317,1086 L 1316,1086 L 1315,1086 L 1314,1086 L 1313,1086 L 1312,1086 L 1310,1086 L 1309,1086 L 1307,1086 L 1306,1085 L 1305,1085 L 1305,1084 L 1304,1082 L 1304,1081 L 1303,1080 L 1302,1079 L 1301,1078 L 1301,1077 L 1301,1076 L 1302,1076 L 1301,1075 L 1301,1074 L 1300,1073 L 1300,1072 L 1299,1070 L 1298,1069 L 1297,1068 L 1296,1067 L 1296,1066 L 1295,1066 L 1293,1065 L 1292,1065 L 1291,1065 L 1290,1065 L 1289,1064 L 1289,1065 L 1288,1065 L 1287,1064 L 1285,1063 L 1284,1063 L 1282,1063 L 1281,1062 L 1281,1061 L 1280,1060 L 1279,1060 L 1278,1059 L 1277,1059 L 1276,1058 L 1275,1057 L 1274,1056 L 1273,1055 L 1272,1055 L 1270,1054 L 1269,1053 L 1268,1053 L 1268,1052 L 1268,1051 L 1268,1050 L 1267,1050 L 1267,1049 L 1266,1048 L 1265,1047 L 1264,1047 L 1263,1047 L 1262,1046 L 1261,1046 L 1260,1046 L 1259,1044 L 1258,1043 L 1258,1042 L 1257,1041 L 1256,1041 L 1255,1041 L 1254,1041 L 1254,1042 L 1253,1042 L 1252,1042 L 1251,1042 L 1251,1041 L 1250,1041 L 1249,1040 L 1249,1039 L 1248,1039 L 1248,1038 L 1248,1037 L 1248,1036 L 1248,1035 L 1248,1034 L 1247,1033 L 1247,1032 L 1247,1031 L 1247,1030 L 1248,1029 L 1249,1028 L 1249,1027 L 1250,1026 L 1251,1025 L 1250,1024 L 1249,1022 L 1249,1021 L 1249,1020 L 1248,1020 L 1247,1020 L 1246,1020 L 1244,1020 L 1243,1019 L 1242,1019 L 1241,1020 L 1240,1021 L 1240,1022 L 1239,1023 L 1238,1023 L 1236,1024 L 1235,1024 L 1234,1024 L 1235,1023 L 1236,1022 L 1237,1020 L 1238,1019 L 1237,1019 L 1237,1018 L 1236,1018 L 1235,1018 L 1235,1017 L 1234,1017 L 1234,1015 L 1234,1014 L 1234,1013 L 1233,1012 L 1233,1010 L 1233,1009 L 1233,1008 L 1232,1006 L 1232,1005 L 1232,1004 L 1231,1004 L 1230,1002 L 1230,1001 L 1229,1000 L 1229,999 L 1228,999 L 1227,999 L 1227,998 L 1225,997 L 1224,996 L 1223,996 L 1223,995 L 1222,994 L 1221,993 L 1220,992 L 1220,991 L 1219,990 L 1218,989 L 1218,988 L 1216,987 L 1216,986 L 1215,985 L 1214,985 L 1213,984 L 1212,983 L 1211,982 L 1210,981 L 1210,980 L 1210,979 L 1209,978 L 1208,978 L 1207,978 L 1206,978 L 1205,978 L 1204,978 L 1203,978 L 1203,977 L 1202,975 L 1201,974 L 1200,973 L 1199,972 L 1199,971 L 1198,970 L 1197,969 L 1196,969 L 1196,968 L 1195,966 L 1196,965 L 1196,964 L 1196,963 L 1196,962 L 1197,961 L 1197,960 L 1198,960 L 1199,959 L 1199,958 L 1200,957 L 1200,956 L 1201,955 L 1201,954 L 1202,953 L 1203,952 L 1204,952 L 1204,951 L 1204,950 L 1204,949 L 1203,948 L 1203,946 L 1204,946 L 1205,945 L 1205,944 L 1205,942 L 1205,941 L 1204,940 L 1203,939 L 1201,939 L 1200,938 L 1198,938 L 1198,937 L 1198,936 L 1197,934 L 1197,933 L 1198,932 L 1198,931 L 1197,931 L 1196,931 L 1196,932 L 1195,932 L 1194,932 L 1193,932 L 1193,931 L 1193,930 L 1193,929 L 1193,928 L 1192,928 L 1191,927 L 1190,927 L 1189,928 L 1188,928 L 1187,927 L 1186,926 L 1186,925 L 1185,924 L 1184,923 L 1184,922 L 1183,921 L 1182,921 L 1181,920 L 1180,919 L 1180,918 L 1179,917 L 1179,916 L 1178,915 L 1178,914 L 1178,913 L 1178,912 L 1177,912 L 1177,911 L 1177,909 L 1176,909 L 1176,908 L 1177,908 L 1177,907 L 1178,907 L 1178,906 L 1178,905 L 1179,905 L 1178,905 L 1177,904 L 1176,902 L 1175,901 L 1174,900 L 1174,899 L 1173,899 L 1172,899 L 1171,898 L 1170,898 L 1169,897 L 1169,895 L 1169,894 L 1168,893 L 1167,892 L 1167,891 L 1166,890 L 1165,889 L 1165,888 L 1165,887 L 1165,886 L 1165,885 L 1166,885 L 1166,884 L 1166,883 L 1165,882 L 1164,881 L 1164,880 L 1164,879 L 1164,878 L 1163,876 L 1163,875 L 1162,873 L 1162,872 L 1162,871 L 1161,871 L 1160,870 L 1160,869 L 1159,869 L 1159,868 L 1158,868 L 1157,867 L 1157,866 L 1157,865 L 1157,864 L 1156,863 L 1155,862 L 1155,861 L 1155,860 L 1155,859 L 1155,858 L 1155,857 L 1156,857 L 1156,856 L 1157,856 L 1157,855 L 1157,854 L 1157,853 L 1157,852 L 1156,851 L 1156,850 L 1156,849 L 1156,848 L 1156,847 L 1155,847 L 1154,846 L 1154,845 L 1154,844 L 1153,844 L 1152,844 L 1151,843 L 1150,842 L 1150,841 L 1150,840 L 1150,839 L 1149,839 L 1150,838 L 1150,837 L 1150,836 L 1149,835 L 1148,835 L 1147,835 L 1146,835 L 1145,836 L 1144,835 L 1143,835 L 1142,834 L 1142,833 L 1142,832 L 1143,831 L 1142,830 L 1141,830 L 1141,829 L 1141,828 L 1140,828 L 1139,828 L 1138,827 L 1137,826 L 1137,825 L 1137,824 L 1137,823 L 1138,823 L 1138,822 L 1138,821 L 1137,820 L 1137,819 L 1137,818 L 1137,817 L 1137,816 L 1137,815 L 1136,814 L 1136,812 L 1136,811 L 1137,811 L 1137,810 L 1136,809 L 1136,808 L 1135,808 L 1134,808 L 1134,807 L 1133,807 L 1133,806 L 1132,805 L 1132,804 L 1131,804 L 1130,805 L 1129,805 L 1128,806 L 1127,806 L 1126,806 L 1125,806 L 1124,807 L 1123,807 L 1122,807 L 1122,805 L 1123,805 L 1129,791 L 1129,790 L 1134,783 L 1135,782 L 1138,778 L 1154,761 L 1165,749 L 1167,746 L 1168,744 L 1168,742 L 1170,731 L 1179,728 L 1195,720 L 1208,708 L 1217,698 L 1222,693 L 1225,690 L 1225,689 L 1227,687 L 1239,676 L 1240,675 L 1255,663 L 1259,660 L 1261,658 L 1264,655 L 1268,652 L 1279,640 L 1284,635 L 1286,631 L 1289,626 L 1298,609 L 1309,593 L 1311,589 " />
</g>
<g id="union_lektiko_δημοσ_άνδρου_3" >
<path d="M 1318,440 L 1317,440 L 1316,440 L 1315,440 L 1314,440 L 1313,439 L 1313,438 L 1314,438 L 1315,438 L 1315,437 L 1316,437 L 1317,437 L 1317,438 L 1317,439 L 1318,439 L 1318,440 " />
<path d="M 1317,399 L 1317,400 L 1316,400 L 1315,400 L 1314,400 L 1315,399 L 1316,399 L 1317,399 " />
<path d="M 1316,383 L 1315,383 L 1314,383 L 1314,382 L 1313,382 L 1313,381 L 1314,381 L 1315,381 L 1315,380 L 1316,380 L 1316,381 L 1316,382 L 1315,382 L 1316,383 " />
<path d="M 1287,346 L 1286,346 L 1286,345 L 1287,345 L 1287,346 " />
<path d="M 1184,344 L 1183,344 L 1183,343 L 1183,342 L 1184,342 L 1184,341 L 1184,340 L 1185,340 L 1185,341 L 1186,341 L 1186,342 L 1185,343 L 1184,343 L 1184,344 " />
<path d="M 1099,352 L 1099,353 L 1100,353 L 1100,354 L 1101,354 L 1102,354 L 1103,354 L 1103,353 L 1104,352 L 1105,352 L 1106,352 L 1107,352 L 1107,353 L 1107,354 L 1108,355 L 1110,355 L 1110,356 L 1111,356 L 1111,357 L 1112,357 L 1113,357 L 1114,356 L 1115,356 L 1116,356 L 1117,356 L 1119,356 L 1120,355 L 1120,354 L 1121,353 L 1121,352 L 1121,351 L 1121,349 L 1122,349 L 1123,348 L 1124,348 L 1125,347 L 1126,348 L 1127,349 L 1128,349 L 1129,348 L 1130,348 L 1131,348 L 1132,349 L 1133,349 L 1134,349 L 1135,348 L 1135,349 L 1136,349 L 1137,349 L 1138,349 L 1138,348 L 1139,347 L 1140,347 L 1140,348 L 1141,348 L 1141,349 L 1140,350 L 1141,350 L 1141,351 L 1140,352 L 1140,353 L 1141,354 L 1142,355 L 1142,356 L 1142,357 L 1143,357 L 1144,357 L 1145,357 L 1145,356 L 1144,355 L 1144,354 L 1144,353 L 1144,352 L 1144,351 L 1144,350 L 1145,349 L 1146,349 L 1146,348 L 1147,347 L 1148,347 L 1149,348 L 1150,348 L 1150,349 L 1151,350 L 1152,350 L 1153,350 L 1154,349 L 1155,349 L 1156,348 L 1157,347 L 1158,346 L 1159,346 L 1160,346 L 1161,345 L 1163,345 L 1164,345 L 1165,345 L 1166,345 L 1166,346 L 1165,346 L 1165,347 L 1164,348 L 1163,348 L 1162,349 L 1162,350 L 1162,351 L 1163,350 L 1164,350 L 1166,350 L 1168,350 L 1170,350 L 1171,350 L 1172,351 L 1174,351 L 1175,350 L 1176,349 L 1177,348 L 1178,347 L 1179,347 L 1180,346 L 1181,346 L 1183,345 L 1184,345 L 1185,346 L 1186,347 L 1187,348 L 1186,349 L 1186,350 L 1185,350 L 1184,350 L 1183,351 L 1182,352 L 1181,353 L 1180,354 L 1181,355 L 1182,356 L 1183,357 L 1183,358 L 1184,358 L 1185,358 L 1186,358 L 1187,357 L 1189,357 L 1191,356 L 1192,356 L 1193,355 L 1194,354 L 1195,353 L 1196,353 L 1197,353 L 1198,354 L 1199,354 L 1200,355 L 1200,356 L 1201,356 L 1202,356 L 1203,356 L 1204,356 L 1204,355 L 1204,354 L 1204,353 L 1205,353 L 1205,352 L 1206,352 L 1207,351 L 1208,351 L 1209,351 L 1209,352 L 1210,352 L 1210,351 L 1211,351 L 1213,350 L 1214,350 L 1215,350 L 1216,350 L 1217,350 L 1218,350 L 1219,350 L 1220,350 L 1221,350 L 1222,350 L 1223,350 L 1224,350 L 1225,350 L 1226,350 L 1227,349 L 1229,349 L 1230,349 L 1231,349 L 1232,349 L 1233,350 L 1234,350 L 1235,350 L 1235,349 L 1236,348 L 1237,348 L 1238,348 L 1239,347 L 1240,346 L 1241,346 L 1242,345 L 1242,344 L 1243,344 L 1243,345 L 1244,345 L 1244,346 L 1245,345 L 1246,344 L 1247,344 L 1247,345 L 1248,346 L 1248,347 L 1249,347 L 1250,348 L 1251,348 L 1251,349 L 1252,350 L 1253,351 L 1254,351 L 1255,351 L 1257,351 L 1258,352 L 1259,353 L 1260,353 L 1262,353 L 1263,353 L 1264,352 L 1264,351 L 1265,351 L 1265,350 L 1266,349 L 1266,347 L 1267,347 L 1268,346 L 1269,346 L 1270,345 L 1270,344 L 1271,344 L 1272,344 L 1273,344 L 1274,343 L 1275,343 L 1276,342 L 1277,342 L 1277,343 L 1278,344 L 1278,345 L 1277,345 L 1276,346 L 1276,347 L 1275,348 L 1276,349 L 1277,349 L 1278,349 L 1279,349 L 1280,349 L 1281,349 L 1282,349 L 1282,348 L 1283,348 L 1283,347 L 1283,346 L 1284,346 L 1284,345 L 1285,346 L 1286,347 L 1287,348 L 1286,348 L 1286,349 L 1286,350 L 1285,351 L 1285,352 L 1286,354 L 1287,355 L 1287,356 L 1287,357 L 1287,358 L 1288,358 L 1288,359 L 1289,359 L 1289,360 L 1290,360 L 1291,360 L 1292,359 L 1293,358 L 1293,357 L 1294,357 L 1295,356 L 1296,355 L 1297,355 L 1297,354 L 1298,354 L 1299,354 L 1300,353 L 1301,353 L 1302,352 L 1303,352 L 1303,353 L 1303,354 L 1304,354 L 1305,355 L 1305,356 L 1305,357 L 1305,358 L 1306,359 L 1307,359 L 1308,359 L 1309,359 L 1310,360 L 1311,361 L 1312,361 L 1313,362 L 1314,363 L 1314,364 L 1315,365 L 1315,366 L 1315,367 L 1315,368 L 1314,368 L 1313,368 L 1312,368 L 1311,368 L 1310,368 L 1309,367 L 1308,367 L 1307,367 L 1306,368 L 1305,369 L 1303,370 L 1302,370 L 1302,371 L 1301,371 L 1300,371 L 1299,371 L 1299,372 L 1299,373 L 1299,374 L 1299,375 L 1299,377 L 1300,378 L 1300,380 L 1300,381 L 1301,381 L 1301,382 L 1302,382 L 1303,382 L 1304,382 L 1305,382 L 1305,381 L 1306,381 L 1306,380 L 1307,380 L 1308,380 L 1309,380 L 1310,380 L 1310,381 L 1311,381 L 1312,382 L 1313,382 L 1313,383 L 1314,384 L 1314,385 L 1315,386 L 1315,387 L 1315,388 L 1315,389 L 1315,390 L 1315,391 L 1314,392 L 1314,393 L 1314,394 L 1313,395 L 1313,396 L 1312,397 L 1311,398 L 1311,399 L 1310,400 L 1309,401 L 1308,401 L 1309,401 L 1310,401 L 1311,400 L 1312,400 L 1313,399 L 1314,399 L 1314,400 L 1313,401 L 1313,402 L 1313,403 L 1314,404 L 1314,405 L 1315,407 L 1316,408 L 1317,409 L 1318,411 L 1318,412 L 1319,414 L 1318,415 L 1317,417 L 1317,418 L 1317,420 L 1317,421 L 1317,422 L 1317,424 L 1316,425 L 1316,426 L 1316,427 L 1316,428 L 1314,429 L 1313,430 L 1312,431 L 1311,431 L 1310,432 L 1309,432 L 1308,432 L 1307,432 L 1307,433 L 1307,434 L 1307,435 L 1307,436 L 1308,436 L 1309,436 L 1309,437 L 1309,438 L 1309,439 L 1309,440 L 1309,441 L 1309,442 L 1310,443 L 1310,444 L 1311,445 L 1312,445 L 1312,446 L 1313,446 L 1313,447 L 1314,447 L 1314,448 L 1314,449 L 1313,449 L 1312,449 L 1312,450 L 1313,450 L 1314,451 L 1315,451 L 1315,452 L 1315,453 L 1315,454 L 1315,455 L 1315,456 L 1314,456 L 1313,456 L 1313,457 L 1312,458 L 1312,459 L 1311,459 L 1311,460 L 1310,460 L 1309,460 L 1308,460 L 1308,461 L 1307,461 L 1306,462 L 1305,462 L 1303,462 L 1303,463 L 1302,464 L 1301,465 L 1301,466 L 1300,466 L 1299,467 L 1298,467 L 1297,468 L 1296,468 L 1295,469 L 1295,470 L 1294,471 L 1293,472 L 1292,472 L 1292,473 L 1292,474 L 1293,474 L 1294,473 L 1295,473 L 1295,474 L 1295,475 L 1295,476 L 1294,477 L 1294,478 L 1293,480 L 1293,481 L 1292,482 L 1292,483 L 1292,484 L 1293,484 L 1294,484 L 1295,483 L 1296,482 L 1297,482 L 1298,483 L 1299,483 L 1299,484 L 1300,486 L 1301,486 L 1300,487 L 1300,488 L 1300,489 L 1299,490 L 1298,490 L 1298,491 L 1297,492 L 1296,493 L 1295,494 L 1293,495 L 1292,496 L 1291,497 L 1290,498 L 1289,499 L 1288,499 L 1288,500 L 1287,500 L 1286,500 L 1285,500 L 1284,500 L 1283,500 L 1282,500 L 1281,500 L 1281,501 L 1280,501 L 1279,501 L 1278,501 L 1277,501 L 1276,501 L 1275,502 L 1274,502 L 1273,502 L 1272,502 L 1271,503 L 1270,504 L 1270,505 L 1269,506 L 1269,507 L 1269,508 L 1268,509 L 1268,510 L 1269,510 L 1269,511 L 1269,512 L 1268,513 L 1268,514 L 1268,515 L 1268,516 L 1268,517 L 1268,518 L 1268,519 L 1268,520 L 1269,521 L 1270,521 L 1271,521 L 1272,521 L 1273,521 L 1274,522 L 1275,522 L 1275,523 L 1276,524 L 1276,525 L 1276,526 L 1275,527 L 1275,528 L 1274,529 L 1273,530 L 1273,531 L 1272,531 L 1272,532 L 1271,532 L 1270,533 L 1269,534 L 1269,535 L 1268,535 L 1269,536 L 1269,537 L 1269,538 L 1270,538 L 1270,539 L 1270,540 L 1270,541 L 1269,541 L 1269,540 L 1268,540 L 1268,539 L 1268,538 L 1268,537 L 1267,537 L 1266,537 L 1264,538 L 1263,539 L 1262,540 L 1261,541 L 1260,541 L 1259,541 L 1260,542 L 1259,543 L 1258,542 L 1257,543 L 1256,545 L 1256,546 L 1256,547 L 1256,548 L 1257,550 L 1257,551 L 1257,553 L 1258,554 L 1259,556 L 1260,557 L 1261,558 L 1262,558 L 1262,559 L 1263,559 L 1264,560 L 1265,560 L 1266,560 L 1267,560 L 1269,560 L 1270,559 L 1271,559 L 1271,558 L 1272,558 L 1273,557 L 1274,556 L 1275,556 L 1276,556 L 1277,555 L 1278,555 L 1278,554 L 1278,553 L 1279,552 L 1280,552 L 1281,551 L 1281,550 L 1281,549 L 1282,549 L 1283,550 L 1283,551 L 1282,551 L 1281,552 L 1281,553 L 1281,554 L 1280,555 L 1280,556 L 1279,556 L 1279,557 L 1278,557 L 1277,558 L 1276,559 L 1276,560 L 1275,561 L 1275,562 L 1274,562 L 1274,563 L 1273,564 L 1273,565 L 1274,567 L 1275,568 L 1275,569 L 1276,570 L 1277,571 L 1278,572 L 1278,573 L 1279,574 L 1280,574 L 1281,575 L 1282,574 L 1283,573 L 1283,572 L 1284,572 L 1285,571 L 1285,570 L 1286,569 L 1287,568 L 1288,568 L 1289,567 L 1289,566 L 1290,565 L 1291,564 L 1291,563 L 1292,563 L 1293,562 L 1294,561 L 1295,560 L 1296,559 L 1297,559 L 1298,558 L 1299,558 L 1300,558 L 1301,558 L 1302,558 L 1302,559 L 1303,559 L 1303,560 L 1304,560 L 1304,561 L 1304,562 L 1304,563 L 1304,564 L 1303,564 L 1303,565 L 1302,566 L 1301,566 L 1301,567 L 1300,567 L 1299,568 L 1298,569 L 1297,570 L 1296,571 L 1295,572 L 1294,573 L 1293,573 L 1292,574 L 1292,576 L 1291,577 L 1290,578 L 1290,579 L 1290,580 L 1291,580 L 1292,580 L 1293,580 L 1294,579 L 1295,578 L 1296,578 L 1297,577 L 1298,576 L 1299,576 L 1300,576 L 1301,576 L 1303,576 L 1304,575 L 1305,575 L 1306,574 L 1308,574 L 1309,574 L 1310,573 L 1311,573 L 1313,573 L 1315,573 L 1315,574 L 1316,575 L 1315,576 L 1315,577 L 1315,578 L 1314,580 L 1313,581 L 1313,582 L 1312,583 L 1312,584 L 1311,586 L 1311,587 L 1311,588 L 1311,589 L 1309,593 L 1298,609 L 1289,626 L 1286,631 L 1284,635 L 1279,640 L 1268,652 L 1264,655 L 1261,658 L 1259,660 L 1255,663 L 1240,675 L 1239,676 L 1227,687 L 1225,689 L 1225,690 L 1222,693 L 1217,698 L 1208,708 L 1195,720 L 1179,728 L 1170,731 L 1168,742 L 1168,744 L 1167,746 L 1165,749 L 1154,761 L 1138,778 L 1135,782 L 1134,783 L 1129,790 L 1129,791 L 1123,805 L 1122,805 L 1122,807 L 1121,808 L 1120,808 L 1120,807 L 1119,806 L 1119,805 L 1120,804 L 1120,803 L 1120,802 L 1119,801 L 1118,801 L 1117,801 L 1116,800 L 1115,800 L 1115,801 L 1114,802 L 1113,803 L 1112,803 L 1112,804 L 1112,805 L 1111,805 L 1110,804 L 1109,803 L 1109,802 L 1108,801 L 1108,802 L 1107,802 L 1107,804 L 1107,805 L 1107,806 L 1107,807 L 1107,808 L 1106,809 L 1106,810 L 1105,811 L 1104,811 L 1103,810 L 1102,809 L 1102,808 L 1101,807 L 1101,806 L 1100,806 L 1099,805 L 1098,804 L 1097,804 L 1097,805 L 1097,806 L 1097,807 L 1096,807 L 1095,807 L 1094,806 L 1093,807 L 1092,807 L 1091,807 L 1090,808 L 1089,808 L 1088,807 L 1087,807 L 1087,806 L 1086,806 L 1086,805 L 1086,804 L 1085,803 L 1084,802 L 1083,801 L 1083,800 L 1082,800 L 1081,798 L 1081,797 L 1082,797 L 1083,796 L 1083,795 L 1082,795 L 1081,795 L 1080,796 L 1079,796 L 1078,796 L 1077,797 L 1076,796 L 1075,796 L 1074,796 L 1074,795 L 1073,794 L 1073,793 L 1072,793 L 1072,792 L 1071,792 L 1071,791 L 1071,790 L 1070,789 L 1069,789 L 1069,788 L 1068,787 L 1068,786 L 1067,786 L 1067,785 L 1067,784 L 1067,783 L 1066,783 L 1066,782 L 1066,781 L 1066,780 L 1066,779 L 1066,778 L 1066,777 L 1066,776 L 1066,775 L 1067,775 L 1067,774 L 1068,774 L 1067,773 L 1067,772 L 1066,772 L 1065,772 L 1064,772 L 1063,772 L 1062,771 L 1061,771 L 1060,771 L 1060,770 L 1059,769 L 1058,768 L 1057,767 L 1056,767 L 1056,768 L 1055,769 L 1055,770 L 1054,771 L 1054,772 L 1054,773 L 1054,774 L 1053,774 L 1052,775 L 1051,775 L 1050,775 L 1050,776 L 1049,776 L 1048,776 L 1048,775 L 1047,774 L 1046,773 L 1045,772 L 1044,772 L 1043,772 L 1042,772 L 1042,773 L 1041,773 L 1041,774 L 1040,774 L 1039,774 L 1038,774 L 1037,774 L 1036,774 L 1035,775 L 1034,776 L 1033,776 L 1032,775 L 1031,775 L 1030,774 L 1031,773 L 1032,772 L 1033,771 L 1034,771 L 1034,770 L 1035,769 L 1035,768 L 1036,767 L 1035,766 L 1034,765 L 1033,764 L 1032,763 L 1031,762 L 1031,761 L 1031,760 L 1032,760 L 1032,759 L 1033,759 L 1034,758 L 1034,757 L 1035,756 L 1036,756 L 1036,755 L 1037,754 L 1037,753 L 1036,753 L 1035,753 L 1034,753 L 1033,754 L 1032,754 L 1032,753 L 1031,753 L 1030,753 L 1030,754 L 1029,754 L 1028,754 L 1028,753 L 1028,752 L 1029,752 L 1029,751 L 1029,750 L 1029,749 L 1030,748 L 1030,746 L 1030,745 L 1030,744 L 1030,743 L 1030,742 L 1029,742 L 1029,741 L 1028,740 L 1027,740 L 1026,739 L 1026,738 L 1026,737 L 1026,736 L 1026,735 L 1026,734 L 1025,734 L 1024,734 L 1023,733 L 1022,733 L 1021,732 L 1020,732 L 1019,731 L 1020,730 L 1020,729 L 1020,728 L 1021,727 L 1021,726 L 1021,725 L 1022,725 L 1022,724 L 1021,724 L 1021,723 L 1021,722 L 1021,721 L 1022,720 L 1022,719 L 1021,718 L 1020,717 L 1019,716 L 1018,716 L 1017,716 L 1016,716 L 1015,716 L 1014,716 L 1013,716 L 1013,715 L 1012,715 L 1012,714 L 1011,713 L 1010,714 L 1010,715 L 1009,715 L 1008,715 L 1007,715 L 1006,715 L 1005,715 L 1004,715 L 1003,715 L 1003,714 L 1003,713 L 1002,713 L 1001,713 L 1000,713 L 999,713 L 998,713 L 997,713 L 996,713 L 995,713 L 994,713 L 993,713 L 993,712 L 992,712 L 992,711 L 991,710 L 990,710 L 989,710 L 988,709 L 988,708 L 988,706 L 989,704 L 990,702 L 991,700 L 992,698 L 995,696 L 1000,691 L 1003,689 L 1008,685 L 1010,682 L 1013,678 L 1015,675 L 1018,670 L 1021,664 L 1024,656 L 1025,647 L 1026,641 L 1027,639 L 1030,626 L 1035,613 L 1038,605 L 1039,603 L 1039,601 L 1039,598 L 1039,595 L 1039,593 L 1038,590 L 1036,587 L 1034,584 L 1032,581 L 1031,580 L 1025,574 L 1023,572 L 1024,568 L 1029,565 L 1031,563 L 1053,551 L 1054,550 L 1059,544 L 1063,541 L 1069,538 L 1072,536 L 1069,533 L 1063,526 L 1061,523 L 1060,522 L 1060,521 L 1060,520 L 1060,519 L 1061,518 L 1062,517 L 1064,514 L 1067,510 L 1070,507 L 1074,504 L 1076,502 L 1077,501 L 1079,499 L 1080,497 L 1081,495 L 1082,493 L 1083,491 L 1083,489 L 1084,485 L 1084,479 L 1084,477 L 1083,474 L 1081,460 L 1081,453 L 1081,450 L 1081,435 L 1080,429 L 1080,426 L 1080,423 L 1079,419 L 1078,418 L 1078,415 L 1075,407 L 1076,391 L 1076,389 L 1078,382 L 1083,375 L 1085,372 L 1086,371 L 1090,364 L 1098,353 L 1099,352 " />
</g>
</g>
</g>
<!-- QGIS extent for clipping, eg in Inkscape -->
<g id="qgisviewbox" inkscape:groupmode="layer" inkscape:label="qgisviewbox" stroke="rgb(255,0,0)" stroke-width="1" fill="none" >
<path d="M 0,1114 L 2011,1114 L 2011,0 L 0,0 L 0,1114 " />
</g></svg>