<?xml version="1.0" standalone="no"?>
<!DOCTYPE svg PUBLIC "-//W3C//DTD SVG 1.1//EN" "http://www.w3.org/Graphics/SVG/1.1/DTD/svg11.dtd">
<svg xmlns="http://www.w3.org/2000/svg" xmlns:inkscape="http://www.inkscape.org/namespaces/inkscape" xmlns:xlink="http://www.w3.org/1999/xlink" viewBox = "0 0 2013 1116" version = "1.1">
<!-- svg generated using QGIS www.qgis.org -->
<g id="union_lektiko_δημοσ_αγαθονησιου" inkscape:groupmode="layer" inkscape:label="union_lektiko_δημοσ_αγαθονησιου">
<g stroke="none" fill="rgb(64,137,11)" stroke-linejoin="round" stroke-width="0.26">
<g id="union_lektiko_δημοσ_αγαθονησιου_1" >
<path d="M 1233,1012 L 1237,1012 L 1242,1012 L 1245,1012 L 1248,1012 L 1253,1013 L 1256,1014 L 1260,1017 L 1264,1019 L 1266,1020 L 1270,1021 L 1272,1022 L 1274,1022 L 1277,1024 L 1278,1025 L 1280,1028 L 1280,1029 L 1278,1031 L 1275,1032 L 1272,1034 L 1269,1034 L 1264,1033 L 1261,1033 L 1257,1034 L 1254,1035 L 1252,1037 L 1251,1038 L 1249,1040 L 1247,1042 L 1244,1043 L 1242,1044 L 1238,1046 L 1233,1047 L 1231,1048 L 1227,1050 L 1224,1050 L 1221,1049 L 1217,1049 L 1212,1048 L 1207,1048 L 1205,1047 L 1201,1047 L 1199,1047 L 1196,1048 L 1193,1049 L 1188,1051 L 1184,1053 L 1180,1056 L 1176,1059 L 1171,1062 L 1168,1065 L 1164,1069 L 1160,1073 L 1157,1075 L 1154,1078 L 1152,1082 L 1149,1084 L 1145,1086 L 1141,1087 L 1138,1087 L 1134,1086 L 1133,1083 L 1133,1081 L 1134,1078 L 1136,1074 L 1136,1071 L 1134,1067 L 1132,1063 L 1130,1061 L 1126,1056 L 1124,1055 L 1121,1053 L 1118,1050 L 1116,1047 L 1116,1045 L 1116,1044 L 1118,1041 L 1120,1037 L 1122,1035 L 1125,1033 L 1129,1031 L 1133,1030 L 1137,1029 L 1140,1028 L 1145,1027 L 1148,1026 L 1152,1025 L 1157,1025 L 1161,1025 L 1164,1025 L 1167,1025 L 1169,1025 L 1172,1025 L 1175,1024 L 1178,1023 L 1179,1023 L 1181,1022 L 1182,1022 L 1183,1022 L 1186,1021 L 1189,1021 L 1192,1019 L 1196,1018 L 1199,1017 L 1200,1016 L 1203,1015 L 1206,1015 L 1209,1013 L 1212,1011 L 1215,1009 L 1219,1009 L 1223,1009 L 1225,1009 L 1229,1010 L 1233,1012 " />
<path d="M 1467,393 L 1465,393 L 1464,393 L 1463,392 L 1462,390 L 1460,388 L 1460,386 L 1460,384 L 1460,381 L 1461,381 L 1462,382 L 1464,382 L 1465,384 L 1465,386 L 1466,388 L 1466,390 L 1466,391 L 1466,392 L 1467,393 " />
<path d="M 1579,365 L 1581,367 L 1584,367 L 1587,367 L 1589,368 L 1590,370 L 1589,371 L 1588,372 L 1586,374 L 1581,377 L 1577,379 L 1572,381 L 1568,382 L 1565,383 L 1562,383 L 1559,383 L 1557,382 L 1553,382 L 1549,382 L 1545,382 L 1542,382 L 1538,383 L 1533,383 L 1529,383 L 1524,384 L 1520,385 L 1517,386 L 1515,388 L 1513,388 L 1509,388 L 1508,387 L 1506,384 L 1504,382 L 1501,380 L 1499,377 L 1498,375 L 1498,373 L 1500,371 L 1503,370 L 1507,369 L 1510,368 L 1515,367 L 1519,366 L 1523,365 L 1527,363 L 1532,359 L 1536,357 L 1542,354 L 1546,351 L 1551,350 L 1554,349 L 1557,348 L 1560,348 L 1563,348 L 1566,348 L 1568,349 L 1571,349 L 1573,350 L 1576,351 L 1577,352 L 1577,353 L 1578,355 L 1579,356 L 1579,359 L 1578,360 L 1579,362 L 1579,364 L 1579,365 " />
<path d="M 1163,243 L 1166,244 L 1170,245 L 1175,246 L 1179,247 L 1183,247 L 1190,248 L 1194,249 L 1199,250 L 1203,251 L 1207,251 L 1212,251 L 1216,250 L 1219,249 L 1222,248 L 1226,247 L 1229,246 L 1233,244 L 1237,242 L 1241,241 L 1244,242 L 1247,243 L 1250,243 L 1251,243 L 1254,245 L 1257,247 L 1260,250 L 1262,253 L 1265,254 L 1268,257 L 1272,261 L 1273,263 L 1273,266 L 1272,268 L 1270,271 L 1268,273 L 1268,275 L 1268,278 L 1268,280 L 1266,283 L 1263,287 L 1260,289 L 1257,291 L 1254,293 L 1252,295 L 1250,296 L 1248,297 L 1250,299 L 1252,300 L 1256,303 L 1259,305 L 1261,308 L 1261,310 L 1262,311 L 1264,311 L 1265,310 L 1266,308 L 1266,306 L 1267,304 L 1269,302 L 1271,300 L 1273,300 L 1275,301 L 1277,300 L 1280,300 L 1283,300 L 1285,300 L 1288,300 L 1292,300 L 1296,300 L 1299,300 L 1304,300 L 1308,300 L 1310,300 L 1313,301 L 1316,300 L 1318,300 L 1321,301 L 1325,301 L 1329,301 L 1333,302 L 1338,303 L 1342,305 L 1349,308 L 1353,310 L 1356,311 L 1362,313 L 1367,314 L 1371,315 L 1379,316 L 1383,317 L 1388,318 L 1390,319 L 1396,323 L 1400,326 L 1404,330 L 1407,335 L 1408,339 L 1408,342 L 1406,346 L 1402,348 L 1399,349 L 1396,349 L 1392,352 L 1388,353 L 1385,354 L 1381,357 L 1375,359 L 1371,361 L 1367,363 L 1365,365 L 1365,368 L 1367,370 L 1369,373 L 1369,376 L 1368,379 L 1368,382 L 1368,387 L 1369,390 L 1371,394 L 1375,394 L 1377,392 L 1378,390 L 1381,390 L 1383,390 L 1385,390 L 1390,390 L 1394,388 L 1399,387 L 1404,387 L 1409,387 L 1413,387 L 1418,390 L 1425,394 L 1430,399 L 1433,403 L 1438,408 L 1441,411 L 1443,416 L 1444,420 L 1445,425 L 1446,430 L 1448,435 L 1449,438 L 1452,439 L 1454,438 L 1455,435 L 1455,432 L 1456,428 L 1457,424 L 1458,421 L 1459,417 L 1461,413 L 1463,409 L 1466,404 L 1468,403 L 1470,405 L 1472,408 L 1474,411 L 1478,415 L 1482,418 L 1485,420 L 1490,422 L 1495,422 L 1499,422 L 1502,422 L 1506,424 L 1508,426 L 1508,428 L 1508,430 L 1508,433 L 1508,436 L 1511,440 L 1513,443 L 1517,445 L 1521,447 L 1525,449 L 1528,452 L 1531,454 L 1533,457 L 1535,460 L 1536,463 L 1536,467 L 1534,469 L 1531,471 L 1527,472 L 1524,474 L 1521,477 L 1517,479 L 1515,481 L 1515,483 L 1515,486 L 1516,490 L 1518,491 L 1520,494 L 1522,497 L 1524,502 L 1524,504 L 1523,506 L 1522,508 L 1520,510 L 1518,513 L 1517,514 L 1515,516 L 1514,518 L 1511,519 L 1509,521 L 1504,522 L 1503,524 L 1506,527 L 1508,528 L 1511,530 L 1514,532 L 1517,534 L 1521,535 L 1525,535 L 1528,536 L 1533,538 L 1536,539 L 1540,540 L 1544,541 L 1545,543 L 1545,546 L 1544,549 L 1544,550 L 1544,553 L 1547,557 L 1548,560 L 1549,562 L 1550,565 L 1549,567 L 1547,570 L 1545,574 L 1543,576 L 1540,576 L 1537,576 L 1535,576 L 1534,578 L 1534,580 L 1531,583 L 1529,584 L 1524,585 L 1520,586 L 1517,585 L 1514,585 L 1510,584 L 1507,584 L 1504,586 L 1502,587 L 1498,588 L 1496,587 L 1494,585 L 1490,583 L 1488,580 L 1486,577 L 1485,575 L 1484,571 L 1482,571 L 1479,571 L 1475,572 L 1471,572 L 1469,573 L 1470,578 L 1471,582 L 1469,584 L 1466,586 L 1462,588 L 1457,589 L 1454,588 L 1452,587 L 1449,585 L 1445,582 L 1442,580 L 1439,577 L 1437,575 L 1436,573 L 1437,570 L 1436,567 L 1435,566 L 1432,566 L 1429,567 L 1428,568 L 1426,569 L 1421,569 L 1418,569 L 1414,568 L 1411,567 L 1405,564 L 1402,563 L 1397,560 L 1394,558 L 1390,553 L 1388,549 L 1388,546 L 1387,543 L 1385,542 L 1382,542 L 1380,541 L 1378,539 L 1376,537 L 1377,534 L 1378,533 L 1380,533 L 1382,533 L 1383,532 L 1384,532 L 1385,531 L 1386,531 L 1387,530 L 1388,529 L 1388,528 L 1388,527 L 1389,525 L 1389,524 L 1389,523 L 1388,522 L 1388,521 L 1387,520 L 1387,519 L 1386,518 L 1385,517 L 1384,516 L 1383,516 L 1382,516 L 1381,516 L 1380,515 L 1378,515 L 1377,516 L 1375,516 L 1372,516 L 1370,515 L 1368,511 L 1367,508 L 1366,504 L 1364,500 L 1360,495 L 1358,493 L 1354,489 L 1350,483 L 1349,478 L 1349,477 L 1349,473 L 1348,468 L 1346,465 L 1343,460 L 1341,455 L 1341,452 L 1339,448 L 1338,444 L 1337,440 L 1336,434 L 1334,429 L 1334,424 L 1334,421 L 1334,417 L 1334,413 L 1333,408 L 1331,405 L 1330,405 L 1328,407 L 1326,410 L 1325,412 L 1324,415 L 1323,418 L 1323,421 L 1323,423 L 1324,427 L 1323,428 L 1323,431 L 1322,434 L 1322,436 L 1321,439 L 1320,442 L 1319,444 L 1318,446 L 1317,448 L 1316,451 L 1316,453 L 1317,456 L 1317,459 L 1317,462 L 1319,468 L 1320,469 L 1321,472 L 1320,473 L 1320,474 L 1319,475 L 1318,477 L 1317,480 L 1317,483 L 1319,490 L 1320,493 L 1321,497 L 1321,501 L 1320,505 L 1318,509 L 1316,512 L 1313,514 L 1311,515 L 1308,515 L 1305,514 L 1302,513 L 1299,513 L 1294,513 L 1292,513 L 1291,513 L 1289,513 L 1286,513 L 1283,514 L 1279,514 L 1275,515 L 1272,517 L 1269,518 L 1267,518 L 1266,518 L 1264,516 L 1262,514 L 1259,513 L 1256,514 L 1253,515 L 1252,516 L 1252,518 L 1252,521 L 1253,523 L 1254,525 L 1255,528 L 1256,531 L 1257,535 L 1260,538 L 1262,541 L 1264,544 L 1267,545 L 1270,546 L 1273,548 L 1276,551 L 1279,552 L 1284,554 L 1286,555 L 1290,557 L 1293,558 L 1295,559 L 1296,560 L 1298,562 L 1301,564 L 1304,567 L 1307,570 L 1310,573 L 1313,575 L 1315,577 L 1316,580 L 1317,584 L 1319,587 L 1322,590 L 1324,593 L 1324,594 L 1324,598 L 1324,602 L 1323,605 L 1322,608 L 1319,610 L 1316,611 L 1313,612 L 1308,612 L 1303,612 L 1298,611 L 1294,611 L 1289,611 L 1283,611 L 1277,610 L 1273,609 L 1271,608 L 1268,606 L 1265,604 L 1260,602 L 1258,601 L 1255,600 L 1250,600 L 1245,600 L 1240,600 L 1234,600 L 1230,600 L 1226,600 L 1223,600 L 1218,600 L 1216,599 L 1213,599 L 1210,597 L 1208,597 L 1204,595 L 1202,595 L 1199,594 L 1197,594 L 1195,597 L 1194,599 L 1194,603 L 1194,606 L 1196,611 L 1196,614 L 1195,617 L 1192,621 L 1190,623 L 1185,627 L 1183,629 L 1181,628 L 1178,626 L 1176,623 L 1174,619 L 1171,617 L 1168,617 L 1164,617 L 1162,618 L 1162,621 L 1163,623 L 1164,626 L 1166,631 L 1166,635 L 1166,639 L 1165,643 L 1165,648 L 1166,651 L 1167,656 L 1170,660 L 1172,663 L 1176,667 L 1180,672 L 1181,675 L 1183,679 L 1184,682 L 1185,687 L 1186,691 L 1186,693 L 1188,698 L 1191,704 L 1191,707 L 1190,709 L 1188,711 L 1185,714 L 1184,717 L 1182,720 L 1180,723 L 1179,726 L 1178,727 L 1177,732 L 1176,735 L 1174,738 L 1172,740 L 1169,742 L 1165,743 L 1163,745 L 1161,747 L 1160,750 L 1159,752 L 1158,755 L 1158,758 L 1157,759 L 1155,760 L 1154,761 L 1153,761 L 1152,761 L 1151,761 L 1149,762 L 1148,762 L 1147,762 L 1146,762 L 1145,761 L 1143,761 L 1142,761 L 1141,761 L 1140,760 L 1139,760 L 1138,759 L 1137,759 L 1136,758 L 1135,757 L 1134,756 L 1133,755 L 1132,754 L 1131,753 L 1131,752 L 1130,750 L 1130,749 L 1129,748 L 1129,747 L 1129,746 L 1128,744 L 1128,743 L 1128,742 L 1128,740 L 1129,738 L 1130,737 L 1128,735 L 1125,733 L 1124,732 L 1121,728 L 1121,727 L 1120,724 L 1119,721 L 1117,719 L 1115,718 L 1113,717 L 1110,717 L 1106,718 L 1103,719 L 1100,720 L 1099,721 L 1097,722 L 1096,723 L 1095,724 L 1094,724 L 1093,725 L 1092,725 L 1090,726 L 1089,726 L 1088,727 L 1087,727 L 1086,728 L 1085,728 L 1084,729 L 1083,729 L 1082,729 L 1081,730 L 1079,730 L 1078,730 L 1077,731 L 1076,731 L 1075,731 L 1074,731 L 1072,731 L 1071,731 L 1070,731 L 1069,731 L 1068,731 L 1066,731 L 1065,731 L 1064,731 L 1063,731 L 1062,731 L 1061,731 L 1059,731 L 1058,730 L 1057,730 L 1056,730 L 1055,730 L 1053,729 L 1051,729 L 1048,728 L 1044,726 L 1043,722 L 1043,719 L 1045,717 L 1046,713 L 1048,711 L 1049,707 L 1049,705 L 1049,704 L 1048,700 L 1048,699 L 1048,698 L 1048,696 L 1048,695 L 1048,694 L 1048,693 L 1048,692 L 1048,690 L 1049,689 L 1049,688 L 1049,687 L 1049,686 L 1050,685 L 1050,684 L 1050,682 L 1051,681 L 1051,680 L 1052,679 L 1053,678 L 1053,677 L 1054,676 L 1054,675 L 1055,674 L 1056,673 L 1057,672 L 1057,671 L 1058,671 L 1059,670 L 1060,669 L 1061,668 L 1062,667 L 1063,667 L 1064,665 L 1065,664 L 1068,661 L 1069,659 L 1070,658 L 1071,657 L 1072,655 L 1073,654 L 1074,652 L 1075,650 L 1076,648 L 1077,647 L 1078,646 L 1079,645 L 1081,644 L 1082,642 L 1084,640 L 1085,638 L 1086,637 L 1086,634 L 1086,633 L 1085,630 L 1084,628 L 1084,627 L 1082,625 L 1080,625 L 1079,626 L 1077,628 L 1076,630 L 1075,630 L 1073,630 L 1072,629 L 1068,627 L 1066,625 L 1063,625 L 1063,627 L 1062,630 L 1060,632 L 1058,635 L 1055,635 L 1053,635 L 1051,635 L 1050,636 L 1048,636 L 1046,636 L 1044,637 L 1041,637 L 1038,638 L 1037,639 L 1036,641 L 1034,644 L 1032,644 L 1029,644 L 1026,643 L 1023,642 L 1022,641 L 1021,638 L 1021,636 L 1021,633 L 1020,631 L 1021,629 L 1021,626 L 1021,623 L 1020,620 L 1019,617 L 1017,613 L 1016,608 L 1013,602 L 1011,596 L 1010,592 L 1009,586 L 1008,581 L 1007,576 L 1005,573 L 1005,566 L 1004,562 L 1006,558 L 1006,555 L 1006,552 L 1006,548 L 1007,544 L 1008,542 L 1009,539 L 1010,538 L 1008,536 L 1007,536 L 1005,536 L 1001,534 L 997,532 L 994,530 L 992,529 L 991,527 L 989,528 L 987,529 L 986,530 L 984,530 L 983,530 L 983,531 L 983,533 L 983,534 L 984,538 L 984,540 L 984,544 L 985,547 L 985,550 L 985,554 L 984,556 L 982,559 L 981,562 L 978,565 L 977,567 L 976,570 L 976,574 L 976,576 L 974,578 L 972,579 L 969,580 L 967,580 L 963,580 L 960,579 L 957,577 L 955,576 L 953,574 L 950,573 L 949,572 L 947,572 L 946,572 L 945,574 L 945,576 L 946,580 L 947,583 L 948,585 L 951,589 L 955,593 L 959,595 L 961,597 L 962,598 L 963,599 L 964,599 L 965,600 L 965,601 L 966,602 L 967,603 L 968,604 L 969,605 L 970,607 L 971,609 L 971,610 L 972,611 L 972,612 L 973,613 L 973,614 L 973,615 L 974,616 L 974,618 L 974,619 L 974,620 L 974,621 L 974,622 L 974,623 L 974,625 L 974,626 L 974,627 L 973,628 L 973,629 L 973,630 L 972,632 L 972,633 L 972,634 L 971,635 L 970,636 L 970,637 L 969,638 L 968,639 L 966,640 L 964,642 L 962,645 L 959,646 L 957,646 L 955,645 L 953,644 L 952,642 L 951,641 L 950,641 L 949,640 L 948,639 L 947,638 L 946,638 L 945,637 L 945,636 L 944,635 L 943,635 L 942,634 L 941,633 L 940,632 L 940,631 L 939,630 L 938,629 L 937,628 L 937,627 L 936,626 L 935,626 L 934,625 L 934,624 L 933,623 L 932,622 L 932,621 L 931,620 L 931,619 L 930,618 L 930,616 L 929,615 L 928,614 L 928,613 L 927,612 L 927,611 L 927,610 L 926,609 L 926,608 L 925,607 L 925,606 L 924,604 L 924,603 L 923,601 L 922,600 L 922,597 L 921,597 L 920,597 L 917,598 L 915,600 L 914,603 L 913,606 L 912,611 L 911,614 L 912,616 L 913,622 L 914,627 L 916,631 L 918,636 L 919,640 L 919,643 L 919,647 L 919,649 L 918,652 L 918,655 L 917,658 L 915,662 L 913,664 L 910,666 L 908,668 L 906,669 L 904,669 L 903,669 L 902,669 L 902,671 L 902,673 L 904,675 L 904,677 L 902,679 L 899,682 L 897,684 L 897,686 L 900,691 L 903,693 L 905,696 L 909,699 L 910,701 L 911,704 L 911,705 L 911,707 L 911,708 L 911,709 L 911,710 L 911,711 L 912,712 L 912,714 L 913,715 L 913,716 L 914,717 L 915,718 L 915,719 L 916,719 L 917,720 L 918,721 L 919,721 L 920,722 L 921,722 L 922,723 L 924,723 L 925,723 L 926,723 L 927,723 L 928,723 L 929,723 L 931,722 L 932,722 L 933,722 L 935,722 L 937,722 L 939,722 L 941,723 L 942,724 L 943,727 L 943,729 L 943,733 L 943,737 L 942,742 L 942,744 L 941,748 L 940,752 L 940,757 L 939,761 L 939,764 L 937,769 L 934,773 L 930,775 L 926,778 L 922,781 L 920,782 L 918,782 L 915,780 L 912,778 L 909,775 L 907,773 L 904,771 L 901,770 L 897,769 L 895,770 L 892,771 L 889,771 L 886,771 L 884,771 L 880,770 L 877,770 L 875,770 L 872,770 L 867,770 L 864,769 L 859,769 L 857,768 L 853,766 L 851,764 L 850,761 L 849,760 L 849,759 L 849,757 L 849,754 L 850,753 L 852,750 L 854,748 L 855,747 L 854,744 L 851,742 L 848,741 L 844,738 L 840,734 L 839,731 L 837,726 L 835,725 L 833,724 L 829,722 L 827,720 L 826,721 L 825,722 L 823,726 L 823,729 L 823,731 L 823,734 L 823,737 L 823,741 L 823,744 L 822,746 L 819,750 L 817,753 L 817,755 L 817,757 L 817,758 L 817,759 L 817,760 L 816,761 L 816,763 L 815,764 L 815,765 L 814,766 L 814,767 L 813,768 L 812,768 L 811,769 L 810,770 L 809,771 L 808,771 L 807,772 L 806,772 L 805,773 L 804,773 L 803,773 L 801,773 L 800,773 L 799,773 L 798,773 L 797,773 L 796,772 L 794,771 L 793,771 L 792,769 L 790,766 L 787,764 L 785,762 L 782,760 L 780,759 L 774,756 L 769,753 L 765,751 L 759,749 L 756,747 L 750,743 L 746,741 L 741,738 L 739,737 L 736,734 L 732,732 L 730,729 L 728,727 L 725,727 L 723,727 L 720,727 L 717,727 L 715,726 L 711,724 L 710,721 L 710,718 L 711,715 L 713,709 L 715,705 L 717,702 L 722,698 L 724,695 L 726,692 L 731,688 L 732,685 L 731,683 L 729,682 L 728,683 L 727,683 L 725,683 L 724,684 L 723,684 L 722,684 L 720,684 L 719,684 L 718,684 L 717,684 L 716,684 L 715,683 L 713,683 L 712,683 L 711,682 L 710,682 L 709,682 L 708,681 L 707,681 L 706,680 L 705,680 L 704,679 L 703,678 L 702,678 L 701,677 L 700,676 L 699,675 L 698,675 L 697,674 L 696,673 L 696,672 L 695,671 L 694,670 L 694,669 L 693,668 L 693,667 L 692,666 L 692,665 L 691,663 L 690,661 L 690,659 L 690,656 L 690,652 L 690,647 L 689,643 L 688,637 L 687,634 L 686,630 L 683,625 L 680,621 L 678,619 L 677,615 L 677,611 L 678,608 L 679,606 L 680,604 L 681,603 L 681,602 L 683,601 L 683,600 L 683,598 L 682,596 L 681,596 L 679,595 L 678,595 L 676,595 L 674,595 L 673,595 L 670,594 L 669,594 L 665,591 L 663,590 L 659,587 L 658,585 L 658,583 L 657,580 L 657,578 L 656,574 L 656,570 L 656,566 L 656,562 L 656,559 L 654,555 L 653,553 L 651,550 L 648,548 L 646,547 L 642,545 L 639,544 L 635,543 L 633,542 L 630,541 L 630,539 L 632,537 L 633,536 L 637,536 L 642,536 L 648,537 L 652,537 L 657,538 L 663,538 L 669,539 L 675,540 L 680,542 L 686,542 L 693,543 L 697,544 L 701,545 L 708,545 L 716,544 L 718,542 L 722,539 L 725,536 L 728,534 L 728,532 L 728,530 L 728,529 L 727,528 L 727,527 L 727,525 L 726,524 L 726,523 L 726,522 L 725,521 L 725,520 L 724,519 L 724,518 L 723,517 L 723,516 L 722,514 L 722,513 L 721,512 L 721,511 L 720,510 L 719,509 L 718,508 L 717,507 L 716,506 L 716,505 L 715,504 L 714,503 L 713,502 L 712,501 L 711,501 L 711,500 L 710,499 L 709,498 L 708,497 L 707,497 L 706,496 L 705,495 L 704,495 L 703,494 L 702,494 L 701,493 L 700,492 L 699,492 L 698,491 L 696,491 L 695,490 L 694,490 L 693,489 L 692,488 L 691,487 L 690,486 L 689,485 L 688,483 L 688,482 L 687,481 L 687,480 L 687,479 L 687,478 L 687,477 L 687,475 L 687,474 L 687,473 L 688,472 L 688,471 L 689,470 L 689,469 L 690,468 L 691,467 L 692,466 L 693,465 L 694,464 L 697,462 L 700,459 L 704,457 L 706,455 L 704,454 L 702,453 L 700,452 L 695,451 L 691,449 L 688,449 L 682,448 L 679,447 L 675,446 L 672,446 L 670,446 L 667,446 L 662,446 L 660,446 L 656,447 L 654,447 L 651,447 L 647,447 L 643,446 L 642,443 L 642,439 L 643,438 L 644,435 L 645,433 L 646,432 L 647,430 L 648,429 L 648,428 L 649,427 L 649,426 L 649,425 L 649,424 L 649,422 L 649,421 L 649,420 L 649,419 L 648,418 L 648,417 L 647,416 L 647,415 L 646,414 L 645,413 L 644,412 L 643,411 L 642,411 L 641,410 L 640,409 L 637,408 L 634,406 L 632,404 L 632,401 L 634,399 L 636,397 L 639,396 L 643,396 L 647,396 L 652,396 L 656,395 L 660,393 L 664,390 L 669,389 L 672,389 L 676,387 L 676,386 L 674,384 L 671,383 L 670,382 L 666,380 L 663,378 L 660,377 L 656,376 L 654,375 L 650,372 L 647,369 L 645,365 L 644,361 L 643,356 L 644,351 L 645,347 L 647,344 L 649,341 L 649,338 L 649,335 L 648,332 L 646,329 L 643,326 L 641,323 L 639,318 L 638,314 L 638,311 L 638,305 L 638,303 L 635,303 L 633,304 L 633,307 L 632,309 L 630,312 L 628,314 L 626,315 L 623,317 L 621,319 L 620,323 L 619,325 L 617,330 L 614,333 L 612,334 L 610,334 L 605,335 L 603,335 L 600,335 L 599,337 L 597,339 L 596,342 L 594,343 L 593,344 L 592,344 L 591,345 L 589,345 L 588,346 L 587,346 L 586,346 L 585,347 L 584,347 L 583,347 L 582,348 L 580,348 L 579,348 L 578,348 L 577,348 L 576,348 L 574,348 L 573,348 L 572,348 L 571,348 L 570,348 L 569,348 L 567,348 L 566,347 L 565,347 L 564,347 L 563,347 L 562,346 L 561,346 L 559,345 L 558,345 L 557,345 L 556,344 L 555,343 L 554,343 L 553,342 L 552,342 L 551,341 L 550,340 L 549,340 L 548,339 L 547,338 L 547,337 L 546,336 L 544,335 L 543,331 L 543,327 L 544,323 L 543,319 L 542,317 L 540,313 L 540,310 L 540,308 L 539,305 L 538,303 L 536,301 L 534,299 L 533,299 L 531,301 L 530,303 L 529,306 L 527,307 L 526,308 L 522,310 L 521,310 L 517,312 L 514,312 L 511,313 L 505,314 L 500,313 L 498,312 L 495,311 L 493,311 L 491,309 L 488,307 L 485,306 L 482,304 L 479,302 L 476,299 L 475,296 L 474,296 L 473,296 L 472,297 L 470,297 L 467,296 L 464,295 L 461,293 L 459,292 L 454,290 L 451,287 L 447,285 L 444,282 L 440,280 L 438,278 L 435,276 L 433,273 L 432,271 L 430,269 L 429,267 L 428,264 L 426,261 L 424,257 L 422,255 L 421,254 L 420,253 L 422,251 L 424,250 L 426,250 L 428,251 L 429,251 L 434,251 L 438,251 L 441,251 L 443,252 L 447,252 L 450,251 L 455,251 L 459,251 L 461,251 L 463,249 L 466,248 L 468,246 L 470,246 L 473,245 L 475,244 L 478,243 L 481,242 L 485,241 L 488,241 L 490,240 L 493,240 L 494,240 L 497,240 L 500,240 L 503,240 L 506,240 L 508,240 L 511,239 L 513,238 L 516,237 L 519,236 L 522,235 L 525,234 L 527,234 L 531,234 L 534,234 L 538,234 L 541,234 L 543,234 L 544,233 L 547,233 L 549,232 L 551,231 L 554,230 L 557,229 L 561,229 L 564,229 L 568,229 L 574,228 L 576,228 L 578,228 L 580,228 L 583,227 L 587,225 L 589,224 L 593,222 L 596,221 L 599,221 L 604,221 L 607,221 L 610,221 L 613,221 L 615,221 L 619,221 L 622,221 L 626,221 L 630,221 L 634,221 L 637,220 L 641,220 L 646,220 L 649,220 L 653,221 L 659,221 L 665,222 L 669,222 L 671,224 L 674,225 L 677,226 L 680,227 L 683,228 L 687,228 L 691,228 L 694,228 L 697,228 L 701,228 L 703,228 L 707,229 L 709,230 L 712,230 L 714,230 L 718,229 L 721,229 L 724,229 L 727,231 L 730,231 L 731,230 L 734,230 L 737,231 L 738,233 L 740,234 L 742,232 L 745,232 L 747,233 L 748,236 L 748,238 L 749,240 L 753,242 L 755,242 L 758,242 L 761,242 L 764,242 L 766,242 L 770,242 L 773,242 L 776,243 L 778,245 L 779,246 L 781,246 L 781,248 L 781,249 L 784,248 L 787,247 L 789,246 L 793,246 L 796,246 L 800,246 L 803,246 L 806,246 L 811,246 L 813,248 L 815,250 L 815,254 L 816,256 L 817,256 L 818,255 L 821,254 L 823,254 L 825,253 L 828,253 L 829,253 L 832,253 L 833,252 L 836,252 L 838,253 L 840,254 L 842,254 L 844,254 L 846,254 L 849,254 L 851,254 L 855,254 L 858,255 L 861,256 L 864,256 L 866,255 L 869,254 L 871,254 L 874,254 L 877,254 L 879,254 L 882,254 L 886,254 L 889,254 L 892,254 L 894,254 L 895,253 L 896,253 L 897,253 L 898,253 L 900,254 L 901,254 L 902,254 L 903,255 L 904,255 L 905,256 L 906,256 L 907,257 L 908,258 L 909,259 L 909,260 L 910,261 L 911,262 L 911,263 L 912,264 L 912,265 L 912,266 L 913,267 L 913,268 L 913,270 L 913,271 L 912,272 L 912,273 L 912,274 L 912,276 L 912,278 L 910,279 L 910,282 L 908,284 L 908,287 L 909,289 L 913,292 L 916,291 L 919,288 L 921,286 L 923,283 L 925,280 L 926,278 L 930,278 L 933,278 L 934,280 L 936,282 L 937,285 L 937,287 L 938,289 L 938,292 L 939,294 L 940,297 L 941,300 L 943,302 L 945,302 L 946,300 L 947,296 L 948,293 L 949,289 L 949,285 L 950,280 L 950,277 L 951,272 L 953,268 L 955,265 L 959,262 L 961,260 L 967,259 L 971,258 L 977,258 L 979,258 L 985,260 L 988,262 L 991,263 L 998,264 L 1003,265 L 1006,266 L 1011,267 L 1016,268 L 1020,270 L 1024,273 L 1029,275 L 1036,279 L 1040,281 L 1043,282 L 1049,284 L 1053,284 L 1056,285 L 1059,285 L 1064,284 L 1067,283 L 1070,283 L 1073,284 L 1077,286 L 1079,288 L 1081,291 L 1082,293 L 1083,298 L 1084,301 L 1084,303 L 1085,304 L 1086,304 L 1088,302 L 1090,299 L 1091,297 L 1094,293 L 1097,289 L 1100,287 L 1102,286 L 1104,287 L 1105,288 L 1107,290 L 1109,292 L 1109,294 L 1110,297 L 1111,299 L 1111,301 L 1112,304 L 1113,305 L 1116,305 L 1117,303 L 1117,300 L 1119,297 L 1120,294 L 1123,291 L 1125,290 L 1127,288 L 1131,285 L 1134,284 L 1136,284 L 1141,284 L 1144,284 L 1149,284 L 1152,283 L 1157,283 L 1159,283 L 1163,282 L 1164,281 L 1164,280 L 1162,279 L 1161,278 L 1158,277 L 1157,277 L 1156,277 L 1155,277 L 1153,277 L 1152,276 L 1151,276 L 1150,276 L 1149,275 L 1148,275 L 1147,274 L 1146,274 L 1145,274 L 1143,273 L 1142,273 L 1141,272 L 1140,272 L 1139,271 L 1138,270 L 1137,270 L 1136,269 L 1135,269 L 1134,268 L 1133,267 L 1132,266 L 1131,266 L 1131,265 L 1130,264 L 1129,263 L 1128,263 L 1127,262 L 1126,261 L 1125,260 L 1125,259 L 1124,258 L 1123,257 L 1123,256 L 1122,255 L 1121,254 L 1121,253 L 1120,252 L 1119,251 L 1119,250 L 1118,249 L 1117,248 L 1117,246 L 1116,245 L 1115,245 L 1112,244 L 1111,244 L 1109,244 L 1107,245 L 1105,245 L 1103,245 L 1101,245 L 1099,245 L 1097,245 L 1094,244 L 1092,244 L 1091,244 L 1090,243 L 1088,243 L 1087,243 L 1086,243 L 1085,242 L 1084,242 L 1083,242 L 1082,241 L 1080,241 L 1079,240 L 1078,240 L 1077,239 L 1076,239 L 1075,239 L 1074,238 L 1073,237 L 1072,237 L 1071,236 L 1070,235 L 1069,235 L 1068,234 L 1067,233 L 1066,233 L 1065,232 L 1064,231 L 1064,230 L 1063,229 L 1062,229 L 1061,228 L 1058,225 L 1055,223 L 1051,220 L 1048,219 L 1046,218 L 1044,216 L 1043,214 L 1041,211 L 1040,208 L 1039,205 L 1037,202 L 1037,199 L 1037,197 L 1038,195 L 1040,195 L 1042,194 L 1045,195 L 1050,195 L 1054,196 L 1059,199 L 1065,202 L 1068,205 L 1074,208 L 1078,211 L 1083,216 L 1085,218 L 1091,222 L 1096,225 L 1099,227 L 1101,228 L 1106,229 L 1112,231 L 1118,233 L 1120,234 L 1125,235 L 1131,236 L 1135,237 L 1141,239 L 1146,240 L 1152,241 L 1158,242 L 1163,243 " />
<path d="M 1517,175 L 1514,176 L 1511,177 L 1509,179 L 1505,181 L 1503,181 L 1502,182 L 1499,183 L 1496,185 L 1493,185 L 1490,185 L 1488,185 L 1485,186 L 1481,188 L 1477,189 L 1474,190 L 1471,192 L 1468,193 L 1463,195 L 1458,197 L 1455,199 L 1454,200 L 1452,201 L 1451,201 L 1448,202 L 1445,204 L 1441,205 L 1438,206 L 1433,207 L 1429,208 L 1425,209 L 1422,209 L 1420,210 L 1414,213 L 1412,214 L 1409,217 L 1406,219 L 1403,221 L 1399,223 L 1396,224 L 1394,224 L 1391,225 L 1388,226 L 1386,228 L 1384,230 L 1381,232 L 1378,234 L 1375,235 L 1372,236 L 1369,237 L 1367,238 L 1366,239 L 1365,239 L 1364,240 L 1363,240 L 1362,241 L 1361,241 L 1360,241 L 1358,242 L 1357,242 L 1356,242 L 1355,243 L 1354,243 L 1353,243 L 1352,244 L 1350,244 L 1349,244 L 1348,244 L 1347,244 L 1346,244 L 1345,244 L 1343,245 L 1342,245 L 1341,245 L 1340,245 L 1339,245 L 1337,245 L 1336,245 L 1335,245 L 1334,244 L 1333,244 L 1332,244 L 1330,244 L 1329,244 L 1328,244 L 1327,244 L 1326,243 L 1325,243 L 1323,243 L 1322,242 L 1321,242 L 1320,242 L 1319,241 L 1318,241 L 1317,241 L 1316,240 L 1314,240 L 1313,239 L 1312,239 L 1311,238 L 1310,238 L 1309,237 L 1307,236 L 1306,234 L 1304,233 L 1302,231 L 1300,229 L 1297,226 L 1294,224 L 1292,222 L 1289,220 L 1285,220 L 1282,220 L 1279,221 L 1276,222 L 1270,225 L 1266,228 L 1263,230 L 1258,231 L 1255,232 L 1251,232 L 1247,230 L 1243,228 L 1241,225 L 1240,222 L 1240,219 L 1241,217 L 1242,213 L 1243,210 L 1245,207 L 1248,203 L 1252,201 L 1255,199 L 1259,198 L 1263,199 L 1266,200 L 1269,200 L 1273,200 L 1278,199 L 1280,199 L 1282,199 L 1286,198 L 1290,198 L 1292,197 L 1297,196 L 1300,194 L 1304,191 L 1308,189 L 1312,187 L 1316,186 L 1320,186 L 1323,187 L 1325,188 L 1330,189 L 1333,189 L 1337,189 L 1340,187 L 1344,186 L 1349,184 L 1354,182 L 1358,181 L 1361,181 L 1366,180 L 1370,179 L 1372,179 L 1378,177 L 1385,175 L 1388,174 L 1394,173 L 1399,174 L 1404,174 L 1409,175 L 1416,174 L 1420,174 L 1426,173 L 1431,172 L 1436,171 L 1442,169 L 1450,168 L 1456,167 L 1462,165 L 1469,164 L 1475,164 L 1481,163 L 1488,162 L 1494,162 L 1498,161 L 1503,160 L 1510,160 L 1513,160 L 1518,161 L 1523,162 L 1527,163 L 1531,163 L 1534,164 L 1535,166 L 1534,168 L 1532,169 L 1529,170 L 1527,171 L 1525,172 L 1522,173 L 1521,173 L 1517,175 " />
<path d="M 794,124 L 790,125 L 786,124 L 782,123 L 779,121 L 776,120 L 770,116 L 766,114 L 763,111 L 760,107 L 758,104 L 756,101 L 752,95 L 750,92 L 749,89 L 746,86 L 745,85 L 744,83 L 744,82 L 744,79 L 744,76 L 746,76 L 749,75 L 753,74 L 756,73 L 760,72 L 763,71 L 767,69 L 770,68 L 774,68 L 777,68 L 779,68 L 784,68 L 786,68 L 791,67 L 795,67 L 797,67 L 800,68 L 802,69 L 805,70 L 808,71 L 809,73 L 812,76 L 814,78 L 816,79 L 817,81 L 818,84 L 818,87 L 819,90 L 818,95 L 815,99 L 813,104 L 810,108 L 808,112 L 805,116 L 802,119 L 800,121 L 794,124 " />
<path d="M 1162,31 L 1166,31 L 1172,31 L 1175,31 L 1179,31 L 1184,32 L 1187,34 L 1191,37 L 1193,40 L 1194,44 L 1194,47 L 1194,50 L 1194,53 L 1194,54 L 1194,55 L 1195,57 L 1197,59 L 1197,61 L 1197,65 L 1196,68 L 1195,71 L 1193,71 L 1190,71 L 1189,71 L 1186,70 L 1183,70 L 1180,70 L 1176,70 L 1173,71 L 1168,72 L 1166,73 L 1163,73 L 1160,72 L 1156,71 L 1152,70 L 1148,67 L 1145,64 L 1141,60 L 1139,59 L 1137,55 L 1134,53 L 1134,50 L 1134,46 L 1135,41 L 1135,38 L 1135,33 L 1135,30 L 1137,27 L 1139,26 L 1142,26 L 1146,27 L 1149,28 L 1153,30 L 1157,30 L 1162,31 " />
</g>
</g>
</g>
<!-- QGIS extent for clipping, eg in Inkscape -->
<g id="qgisviewbox" inkscape:groupmode="layer" inkscape:label="qgisviewbox" stroke="rgb(255,0,0)" stroke-width="1" fill="none" >
<path d="M 0,1114 L 2010,1114 L 2010,0 L 0,0 L 0,1114 " />
</g></svg>