<?xml version="1.0" standalone="no"?>
<!DOCTYPE svg PUBLIC "-//W3C//DTD SVG 1.1//EN" "http://www.w3.org/Graphics/SVG/1.1/DTD/svg11.dtd">
<svg xmlns="http://www.w3.org/2000/svg" xmlns:inkscape="http://www.inkscape.org/namespaces/inkscape" xmlns:xlink="http://www.w3.org/1999/xlink" viewBox = "0 0 2013 1116" version = "1.1">
<!-- svg generated using QGIS www.qgis.org -->
<g id="union_lektiko_δημοσ_αγραφων" inkscape:groupmode="layer" inkscape:label="union_lektiko_δημοσ_αγραφων">
<g stroke="none" fill="rgb(68,177,79)" stroke-linejoin="round" stroke-width="0.26">
<g id="union_lektiko_δημοσ_αγραφων_1" >
<path d="M 1244,844 L 1243,848 L 1236,858 L 1233,864 L 1227,878 L 1227,880 L 1227,886 L 1228,892 L 1228,895 L 1226,898 L 1224,901 L 1223,901 L 1217,905 L 1214,907 L 1212,909 L 1211,910 L 1208,912 L 1204,914 L 1203,916 L 1202,918 L 1200,921 L 1199,923 L 1198,924 L 1196,925 L 1192,927 L 1188,928 L 1188,930 L 1188,932 L 1186,935 L 1185,941 L 1184,943 L 1183,944 L 1181,944 L 1179,944 L 1175,939 L 1172,938 L 1170,938 L 1168,939 L 1165,942 L 1161,947 L 1157,958 L 1152,963 L 1151,965 L 1150,969 L 1148,974 L 1148,976 L 1148,977 L 1149,979 L 1152,983 L 1153,984 L 1154,985 L 1154,987 L 1153,988 L 1152,989 L 1149,989 L 1144,991 L 1142,993 L 1140,995 L 1138,996 L 1136,997 L 1135,997 L 1128,998 L 1125,999 L 1123,1000 L 1122,1002 L 1121,1003 L 1121,1005 L 1120,1007 L 1120,1010 L 1121,1012 L 1122,1015 L 1123,1017 L 1123,1021 L 1124,1023 L 1125,1026 L 1126,1027 L 1127,1029 L 1127,1030 L 1127,1033 L 1125,1038 L 1121,1044 L 1120,1047 L 1118,1060 L 1116,1065 L 1114,1070 L 1113,1074 L 1110,1080 L 1109,1079 L 1107,1079 L 1106,1079 L 1104,1079 L 1101,1081 L 1100,1082 L 1098,1083 L 1097,1084 L 1093,1086 L 1093,1087 L 1091,1087 L 1088,1086 L 1085,1082 L 1079,1074 L 1077,1072 L 1076,1070 L 1068,1060 L 1065,1058 L 1064,1057 L 1058,1055 L 1055,1055 L 1053,1055 L 1050,1056 L 1047,1056 L 1043,1056 L 1033,1057 L 1025,1056 L 1021,1055 L 1016,1054 L 1014,1053 L 1010,1051 L 1008,1050 L 1006,1048 L 1004,1046 L 1001,1044 L 999,1042 L 996,1040 L 994,1039 L 991,1038 L 987,1038 L 983,1039 L 980,1040 L 977,1041 L 969,1045 L 964,1048 L 963,1048 L 959,1049 L 958,1048 L 956,1046 L 954,1044 L 952,1039 L 950,1036 L 948,1033 L 944,1032 L 941,1031 L 940,1031 L 937,1031 L 936,1031 L 933,1031 L 928,1033 L 921,1035 L 920,1035 L 917,1036 L 915,1037 L 908,1037 L 901,1037 L 898,1037 L 896,1037 L 890,1036 L 880,1033 L 878,1033 L 875,1032 L 867,1032 L 860,1032 L 857,1032 L 855,1032 L 851,1032 L 848,1032 L 846,1031 L 844,1029 L 844,1028 L 844,1027 L 847,1019 L 847,1018 L 846,1016 L 846,1014 L 845,1014 L 844,1013 L 841,1012 L 838,1011 L 837,1011 L 834,1010 L 832,1008 L 830,1005 L 828,1004 L 825,1004 L 822,1002 L 821,1001 L 821,998 L 821,996 L 823,994 L 822,994 L 825,991 L 828,989 L 830,987 L 831,985 L 832,983 L 832,981 L 832,980 L 832,979 L 831,975 L 830,972 L 829,971 L 828,970 L 827,968 L 826,967 L 825,966 L 825,965 L 825,963 L 826,960 L 826,958 L 828,956 L 830,954 L 831,952 L 832,950 L 831,947 L 830,945 L 828,943 L 826,941 L 825,939 L 824,936 L 823,934 L 823,933 L 822,927 L 821,923 L 820,920 L 819,918 L 819,917 L 818,916 L 817,914 L 815,912 L 814,909 L 815,907 L 817,904 L 820,901 L 819,899 L 819,896 L 819,895 L 820,892 L 823,890 L 825,888 L 827,886 L 828,885 L 831,883 L 832,880 L 832,878 L 832,875 L 832,873 L 834,868 L 837,865 L 838,864 L 839,863 L 839,860 L 838,857 L 835,851 L 835,849 L 836,848 L 837,846 L 840,844 L 843,843 L 846,841 L 850,835 L 851,832 L 854,829 L 858,826 L 858,825 L 859,823 L 858,820 L 856,819 L 854,817 L 852,816 L 847,809 L 844,807 L 838,805 L 835,804 L 831,804 L 820,805 L 814,806 L 816,802 L 820,799 L 822,795 L 824,793 L 829,788 L 830,788 L 833,787 L 835,786 L 838,784 L 841,782 L 843,780 L 844,777 L 846,772 L 847,770 L 847,769 L 849,766 L 849,765 L 850,764 L 852,761 L 853,760 L 855,760 L 860,759 L 862,759 L 867,759 L 875,759 L 881,758 L 884,755 L 888,751 L 889,750 L 892,748 L 896,744 L 898,743 L 899,742 L 901,741 L 906,741 L 908,741 L 912,742 L 917,742 L 921,742 L 926,742 L 926,741 L 929,741 L 931,740 L 932,738 L 932,735 L 930,733 L 927,729 L 922,723 L 918,717 L 917,714 L 918,712 L 918,710 L 914,705 L 912,703 L 912,702 L 913,701 L 921,693 L 925,688 L 926,684 L 927,682 L 928,679 L 930,673 L 930,669 L 930,663 L 930,660 L 927,651 L 927,649 L 927,645 L 928,639 L 929,635 L 930,633 L 935,627 L 939,622 L 941,619 L 944,613 L 945,609 L 945,605 L 946,603 L 948,602 L 949,601 L 952,602 L 953,602 L 954,602 L 955,602 L 956,601 L 957,599 L 958,596 L 959,592 L 959,587 L 960,575 L 961,559 L 961,552 L 962,545 L 964,545 L 967,547 L 970,551 L 974,555 L 978,563 L 982,572 L 982,576 L 982,579 L 982,586 L 981,594 L 981,595 L 980,599 L 980,600 L 980,603 L 981,607 L 985,615 L 988,619 L 994,622 L 997,625 L 999,626 L 1003,627 L 1004,627 L 1006,628 L 1010,628 L 1011,629 L 1013,630 L 1019,631 L 1026,634 L 1029,634 L 1032,633 L 1037,631 L 1038,630 L 1040,629 L 1043,627 L 1044,630 L 1044,629 L 1046,633 L 1047,635 L 1048,643 L 1049,649 L 1050,655 L 1049,659 L 1048,663 L 1046,671 L 1045,675 L 1043,679 L 1040,682 L 1037,684 L 1033,686 L 1029,689 L 1024,692 L 1022,695 L 1020,699 L 1019,702 L 1017,703 L 1014,706 L 1009,711 L 998,727 L 994,730 L 991,733 L 990,735 L 990,738 L 989,744 L 988,747 L 985,751 L 983,752 L 980,754 L 979,754 L 977,755 L 975,767 L 971,778 L 970,784 L 968,788 L 972,789 L 976,790 L 983,792 L 985,793 L 988,793 L 994,792 L 997,793 L 1000,794 L 1002,795 L 1005,795 L 1009,795 L 1011,795 L 1018,794 L 1023,795 L 1030,796 L 1033,796 L 1034,796 L 1038,794 L 1042,793 L 1045,792 L 1048,792 L 1055,794 L 1055,795 L 1066,800 L 1068,801 L 1069,801 L 1072,802 L 1072,799 L 1072,797 L 1072,796 L 1073,795 L 1076,793 L 1079,793 L 1083,793 L 1096,790 L 1097,790 L 1101,789 L 1115,787 L 1120,786 L 1132,788 L 1142,789 L 1146,789 L 1148,790 L 1150,790 L 1153,790 L 1157,790 L 1159,790 L 1161,789 L 1164,786 L 1165,786 L 1166,784 L 1168,787 L 1169,790 L 1171,804 L 1172,807 L 1174,811 L 1177,815 L 1181,820 L 1183,821 L 1185,822 L 1187,822 L 1189,822 L 1191,822 L 1194,820 L 1202,815 L 1203,814 L 1209,812 L 1211,812 L 1213,813 L 1218,821 L 1220,825 L 1224,831 L 1227,835 L 1231,838 L 1235,840 L 1240,842 L 1244,844 " />
</g>
<g id="union_lektiko_δημοσ_αγραφων_2" >
<path d="M 1342,426 L 1345,426 L 1346,426 L 1350,424 L 1358,423 L 1359,423 L 1360,423 L 1367,425 L 1368,426 L 1372,427 L 1377,427 L 1378,426 L 1381,426 L 1380,428 L 1381,429 L 1384,428 L 1385,427 L 1387,427 L 1389,428 L 1392,430 L 1393,430 L 1395,431 L 1396,431 L 1398,431 L 1402,428 L 1403,428 L 1407,426 L 1412,426 L 1414,426 L 1417,427 L 1418,430 L 1418,432 L 1417,434 L 1416,436 L 1415,438 L 1415,439 L 1416,440 L 1418,440 L 1419,441 L 1423,440 L 1425,445 L 1425,447 L 1425,450 L 1423,455 L 1424,458 L 1424,459 L 1425,459 L 1427,461 L 1428,462 L 1430,462 L 1433,462 L 1434,462 L 1435,462 L 1436,463 L 1436,467 L 1437,469 L 1442,472 L 1443,474 L 1443,476 L 1444,481 L 1444,483 L 1444,484 L 1443,485 L 1441,487 L 1441,488 L 1441,489 L 1443,495 L 1444,499 L 1444,501 L 1441,503 L 1436,505 L 1435,506 L 1434,507 L 1434,513 L 1433,517 L 1433,518 L 1433,521 L 1435,525 L 1436,526 L 1436,529 L 1435,531 L 1433,533 L 1428,534 L 1427,536 L 1426,537 L 1426,538 L 1428,540 L 1428,542 L 1422,550 L 1421,551 L 1419,551 L 1417,550 L 1416,550 L 1415,550 L 1414,551 L 1413,551 L 1413,550 L 1411,550 L 1410,551 L 1409,551 L 1407,551 L 1406,550 L 1404,551 L 1403,552 L 1400,554 L 1399,557 L 1399,561 L 1397,566 L 1397,571 L 1394,578 L 1394,581 L 1394,585 L 1394,587 L 1395,590 L 1396,592 L 1397,592 L 1400,593 L 1402,593 L 1405,594 L 1406,595 L 1407,595 L 1407,596 L 1408,599 L 1409,600 L 1410,602 L 1411,604 L 1413,606 L 1414,609 L 1412,611 L 1410,612 L 1409,613 L 1409,616 L 1412,622 L 1410,625 L 1409,628 L 1407,630 L 1406,633 L 1406,636 L 1407,638 L 1407,641 L 1408,642 L 1410,648 L 1410,650 L 1409,653 L 1407,656 L 1405,657 L 1404,657 L 1403,657 L 1401,657 L 1398,656 L 1395,655 L 1393,654 L 1391,654 L 1388,655 L 1386,657 L 1383,659 L 1381,661 L 1378,662 L 1376,662 L 1375,661 L 1372,660 L 1368,659 L 1366,658 L 1365,659 L 1362,660 L 1361,660 L 1360,660 L 1359,659 L 1358,655 L 1357,654 L 1354,652 L 1351,652 L 1348,653 L 1348,654 L 1346,656 L 1342,666 L 1341,668 L 1340,670 L 1339,673 L 1338,674 L 1337,676 L 1336,677 L 1333,679 L 1329,682 L 1328,683 L 1327,684 L 1321,688 L 1320,690 L 1318,691 L 1317,694 L 1317,696 L 1318,703 L 1318,706 L 1318,708 L 1316,710 L 1312,711 L 1311,712 L 1310,714 L 1309,719 L 1308,719 L 1308,720 L 1307,721 L 1305,721 L 1304,721 L 1302,719 L 1299,719 L 1297,720 L 1295,723 L 1293,726 L 1290,731 L 1289,733 L 1285,739 L 1283,742 L 1281,746 L 1280,752 L 1279,754 L 1276,757 L 1274,759 L 1266,762 L 1264,763 L 1262,764 L 1261,765 L 1261,767 L 1261,770 L 1261,771 L 1261,773 L 1258,775 L 1255,779 L 1254,780 L 1254,782 L 1255,784 L 1255,786 L 1256,786 L 1260,793 L 1262,795 L 1264,796 L 1265,798 L 1266,799 L 1266,801 L 1264,805 L 1261,808 L 1257,811 L 1256,811 L 1255,812 L 1253,813 L 1251,814 L 1250,814 L 1249,815 L 1248,816 L 1247,819 L 1248,823 L 1251,830 L 1252,831 L 1252,832 L 1251,834 L 1251,836 L 1250,838 L 1249,838 L 1247,840 L 1244,844 L 1240,842 L 1235,840 L 1231,838 L 1227,835 L 1224,831 L 1220,825 L 1218,821 L 1213,813 L 1211,812 L 1209,812 L 1203,814 L 1202,815 L 1194,820 L 1191,822 L 1189,822 L 1187,822 L 1185,822 L 1183,821 L 1181,820 L 1177,815 L 1174,811 L 1172,807 L 1171,804 L 1169,790 L 1168,787 L 1166,784 L 1165,786 L 1164,786 L 1161,789 L 1159,790 L 1157,790 L 1153,790 L 1150,790 L 1148,790 L 1146,789 L 1142,789 L 1132,788 L 1120,786 L 1115,787 L 1101,789 L 1097,790 L 1096,790 L 1083,793 L 1079,793 L 1076,793 L 1073,795 L 1072,796 L 1072,797 L 1072,799 L 1072,802 L 1069,801 L 1068,801 L 1066,800 L 1055,795 L 1055,794 L 1048,792 L 1045,792 L 1042,793 L 1038,794 L 1034,796 L 1033,796 L 1030,796 L 1023,795 L 1018,794 L 1011,795 L 1009,795 L 1005,795 L 1002,795 L 1000,794 L 997,793 L 994,792 L 988,793 L 985,793 L 983,792 L 976,790 L 972,789 L 968,788 L 970,784 L 971,778 L 975,767 L 977,755 L 979,754 L 980,754 L 983,752 L 985,751 L 988,747 L 989,744 L 990,738 L 990,735 L 991,733 L 994,730 L 998,727 L 1009,711 L 1014,706 L 1017,703 L 1019,702 L 1020,699 L 1022,695 L 1024,692 L 1029,689 L 1033,686 L 1037,684 L 1040,682 L 1043,679 L 1045,675 L 1046,671 L 1048,663 L 1049,659 L 1050,655 L 1049,649 L 1048,643 L 1047,635 L 1046,633 L 1044,629 L 1044,630 L 1043,627 L 1049,628 L 1057,632 L 1067,637 L 1078,643 L 1081,644 L 1084,645 L 1088,645 L 1100,639 L 1105,637 L 1110,635 L 1117,634 L 1121,633 L 1128,633 L 1134,632 L 1137,630 L 1140,626 L 1145,619 L 1153,605 L 1155,602 L 1159,591 L 1160,588 L 1162,585 L 1164,580 L 1165,575 L 1166,572 L 1166,571 L 1170,557 L 1171,549 L 1173,539 L 1175,533 L 1176,531 L 1177,530 L 1184,525 L 1185,524 L 1188,521 L 1190,518 L 1191,516 L 1200,509 L 1207,501 L 1214,493 L 1216,481 L 1217,478 L 1217,477 L 1219,473 L 1221,472 L 1226,469 L 1232,467 L 1235,466 L 1237,467 L 1242,467 L 1259,469 L 1266,472 L 1267,472 L 1272,475 L 1281,482 L 1289,489 L 1295,494 L 1298,498 L 1303,500 L 1302,494 L 1301,491 L 1302,485 L 1301,475 L 1302,468 L 1302,462 L 1301,454 L 1300,449 L 1301,441 L 1302,439 L 1303,438 L 1304,438 L 1306,438 L 1309,440 L 1315,439 L 1320,437 L 1322,436 L 1328,432 L 1330,430 L 1332,430 L 1333,429 L 1338,428 L 1340,427 L 1342,426 " />
</g>
<g id="union_lektiko_δημοσ_αγραφων_3" >
<path d="M 814,806 L 810,804 L 808,803 L 800,794 L 796,789 L 793,786 L 791,783 L 788,782 L 783,780 L 780,778 L 776,776 L 771,772 L 770,771 L 768,769 L 767,768 L 767,767 L 766,767 L 765,764 L 762,761 L 759,760 L 756,760 L 754,761 L 753,762 L 752,765 L 752,766 L 751,766 L 750,767 L 748,767 L 739,765 L 736,765 L 733,766 L 731,766 L 728,765 L 727,765 L 726,764 L 722,761 L 720,760 L 717,757 L 716,755 L 714,755 L 712,755 L 711,754 L 709,752 L 708,751 L 707,750 L 704,747 L 701,746 L 698,746 L 694,747 L 689,746 L 687,745 L 685,744 L 683,743 L 681,742 L 678,740 L 675,737 L 675,736 L 674,735 L 673,733 L 672,730 L 671,726 L 671,724 L 671,721 L 670,719 L 667,715 L 663,711 L 661,709 L 659,707 L 658,706 L 657,706 L 655,704 L 654,704 L 654,703 L 650,701 L 647,699 L 646,698 L 644,697 L 640,695 L 639,694 L 636,693 L 633,691 L 632,690 L 630,689 L 629,688 L 628,688 L 628,687 L 624,685 L 622,684 L 617,683 L 615,684 L 613,686 L 613,687 L 613,688 L 613,690 L 615,694 L 615,695 L 614,696 L 610,698 L 609,698 L 607,698 L 605,697 L 603,695 L 602,694 L 601,693 L 599,692 L 598,691 L 593,690 L 592,689 L 591,687 L 589,686 L 588,685 L 586,685 L 585,685 L 583,684 L 581,684 L 580,684 L 578,683 L 577,681 L 575,678 L 572,675 L 571,674 L 569,673 L 569,672 L 568,672 L 567,671 L 567,670 L 566,668 L 566,664 L 566,661 L 567,659 L 567,658 L 568,655 L 568,653 L 568,652 L 569,650 L 568,649 L 568,648 L 568,647 L 569,643 L 569,640 L 571,634 L 572,631 L 574,628 L 575,627 L 577,626 L 578,626 L 578,625 L 580,622 L 581,621 L 581,620 L 582,620 L 582,619 L 583,618 L 584,618 L 588,618 L 590,618 L 591,617 L 592,617 L 593,616 L 593,615 L 595,612 L 595,611 L 596,610 L 597,609 L 598,607 L 599,606 L 600,605 L 601,604 L 602,603 L 604,602 L 605,602 L 606,601 L 607,601 L 607,600 L 606,598 L 607,596 L 608,594 L 609,590 L 610,589 L 609,586 L 609,584 L 610,583 L 611,582 L 612,582 L 618,581 L 620,581 L 623,580 L 625,579 L 628,578 L 629,577 L 632,576 L 633,576 L 634,575 L 635,575 L 638,575 L 642,574 L 644,574 L 646,573 L 649,573 L 650,573 L 651,573 L 652,574 L 655,576 L 656,577 L 658,577 L 659,577 L 660,578 L 661,578 L 664,578 L 666,578 L 667,576 L 668,574 L 667,572 L 667,571 L 667,570 L 666,569 L 665,568 L 664,568 L 663,567 L 662,567 L 660,565 L 659,565 L 658,564 L 657,564 L 655,562 L 650,557 L 649,556 L 647,553 L 647,552 L 647,551 L 648,550 L 649,549 L 650,549 L 652,549 L 653,550 L 654,551 L 655,552 L 656,552 L 657,552 L 657,551 L 658,551 L 659,550 L 658,549 L 658,547 L 656,543 L 655,541 L 654,540 L 652,536 L 652,534 L 652,533 L 652,532 L 653,531 L 654,530 L 656,528 L 658,525 L 659,523 L 660,522 L 660,521 L 659,521 L 659,519 L 658,519 L 657,517 L 656,516 L 656,515 L 655,514 L 655,512 L 656,510 L 656,509 L 657,508 L 659,507 L 661,505 L 662,505 L 663,504 L 665,503 L 667,502 L 668,502 L 669,501 L 670,501 L 672,500 L 673,499 L 675,497 L 675,496 L 676,495 L 676,494 L 676,493 L 677,491 L 677,490 L 677,489 L 676,486 L 677,482 L 677,481 L 677,478 L 678,475 L 679,474 L 679,472 L 679,471 L 679,470 L 680,470 L 680,469 L 681,469 L 682,469 L 683,469 L 684,469 L 687,468 L 688,468 L 689,467 L 691,465 L 693,467 L 698,470 L 702,472 L 705,473 L 709,472 L 711,472 L 713,471 L 717,471 L 723,471 L 728,472 L 732,474 L 736,477 L 737,478 L 737,480 L 738,484 L 738,485 L 739,487 L 740,489 L 742,492 L 743,494 L 744,498 L 744,501 L 745,502 L 746,505 L 747,506 L 747,507 L 748,508 L 755,511 L 758,513 L 760,515 L 762,514 L 763,514 L 768,511 L 772,510 L 773,510 L 773,509 L 775,508 L 776,507 L 776,506 L 778,501 L 779,499 L 780,498 L 781,497 L 789,490 L 793,486 L 794,483 L 799,476 L 802,469 L 803,465 L 805,463 L 806,462 L 806,459 L 808,455 L 811,451 L 813,449 L 815,446 L 818,440 L 820,437 L 822,435 L 825,433 L 829,431 L 833,429 L 835,428 L 835,427 L 838,425 L 840,422 L 841,418 L 842,416 L 841,413 L 841,410 L 840,406 L 838,403 L 837,399 L 836,396 L 836,393 L 836,392 L 837,391 L 837,390 L 838,388 L 839,387 L 838,385 L 838,383 L 837,379 L 836,376 L 835,372 L 833,366 L 833,364 L 832,361 L 832,360 L 833,353 L 834,344 L 834,340 L 835,337 L 838,329 L 839,326 L 840,322 L 841,318 L 842,316 L 842,314 L 843,314 L 843,313 L 846,309 L 848,304 L 850,301 L 853,301 L 864,302 L 868,302 L 877,301 L 882,301 L 890,303 L 902,305 L 910,306 L 922,307 L 929,306 L 933,305 L 936,304 L 943,301 L 944,305 L 945,314 L 945,317 L 944,326 L 944,332 L 944,338 L 945,344 L 946,349 L 947,353 L 949,357 L 950,361 L 952,371 L 952,387 L 952,388 L 955,394 L 956,401 L 957,406 L 961,406 L 964,407 L 968,409 L 971,411 L 975,415 L 977,418 L 979,421 L 978,421 L 980,426 L 980,432 L 980,441 L 979,446 L 979,447 L 978,450 L 976,456 L 974,458 L 973,458 L 967,462 L 961,466 L 959,468 L 957,470 L 956,471 L 955,474 L 953,478 L 953,481 L 954,487 L 955,499 L 956,505 L 957,508 L 958,511 L 959,513 L 959,515 L 960,519 L 961,523 L 961,527 L 962,534 L 962,537 L 962,545 L 961,552 L 961,559 L 960,575 L 959,587 L 959,592 L 958,596 L 957,599 L 956,601 L 955,602 L 954,602 L 953,602 L 952,602 L 949,601 L 948,602 L 946,603 L 945,605 L 945,609 L 944,613 L 941,619 L 939,622 L 935,627 L 930,633 L 929,635 L 928,639 L 927,645 L 927,649 L 927,651 L 930,660 L 930,663 L 930,669 L 930,673 L 928,679 L 927,682 L 926,684 L 925,688 L 921,693 L 913,701 L 912,702 L 912,703 L 914,705 L 918,710 L 918,712 L 917,714 L 918,717 L 922,723 L 927,729 L 930,733 L 932,735 L 932,738 L 931,740 L 929,741 L 926,741 L 926,742 L 921,742 L 917,742 L 912,742 L 908,741 L 906,741 L 901,741 L 899,742 L 898,743 L 896,744 L 892,748 L 889,750 L 888,751 L 884,755 L 881,758 L 875,759 L 867,759 L 862,759 L 860,759 L 855,760 L 853,760 L 852,761 L 850,764 L 849,765 L 849,766 L 847,769 L 847,770 L 846,772 L 844,777 L 843,780 L 841,782 L 838,784 L 835,786 L 833,787 L 830,788 L 829,788 L 824,793 L 822,795 L 820,799 L 816,802 L 814,806 " />
</g>
<g id="union_lektiko_δημοσ_αγραφων_4" >
<path d="M 1154,42 L 1155,45 L 1156,47 L 1157,49 L 1158,51 L 1158,52 L 1161,55 L 1165,57 L 1167,58 L 1170,58 L 1178,57 L 1182,55 L 1188,54 L 1195,50 L 1200,49 L 1202,48 L 1203,48 L 1205,48 L 1208,48 L 1209,48 L 1210,47 L 1211,46 L 1213,45 L 1213,47 L 1215,49 L 1217,50 L 1220,50 L 1223,51 L 1226,51 L 1233,49 L 1236,48 L 1245,45 L 1249,44 L 1253,43 L 1254,43 L 1255,43 L 1256,45 L 1256,47 L 1256,49 L 1257,51 L 1258,55 L 1259,60 L 1260,66 L 1261,72 L 1263,87 L 1264,90 L 1265,92 L 1268,96 L 1270,98 L 1274,100 L 1279,100 L 1280,100 L 1285,99 L 1288,98 L 1290,99 L 1291,101 L 1292,102 L 1293,103 L 1293,106 L 1293,109 L 1293,111 L 1292,113 L 1292,114 L 1291,115 L 1289,116 L 1286,118 L 1284,119 L 1283,119 L 1279,121 L 1279,120 L 1270,122 L 1264,123 L 1261,125 L 1261,126 L 1259,128 L 1258,132 L 1258,151 L 1256,159 L 1256,160 L 1258,164 L 1261,170 L 1265,173 L 1269,178 L 1271,181 L 1272,185 L 1273,189 L 1274,193 L 1274,194 L 1274,198 L 1274,205 L 1275,211 L 1275,228 L 1276,231 L 1277,232 L 1278,234 L 1280,236 L 1283,237 L 1292,238 L 1293,238 L 1296,237 L 1303,235 L 1308,233 L 1311,233 L 1317,233 L 1321,233 L 1329,234 L 1330,234 L 1336,234 L 1339,234 L 1345,235 L 1347,236 L 1352,238 L 1360,241 L 1361,241 L 1365,242 L 1369,244 L 1370,244 L 1372,246 L 1373,249 L 1372,254 L 1370,258 L 1367,260 L 1360,265 L 1356,268 L 1352,273 L 1350,278 L 1347,294 L 1348,300 L 1348,302 L 1349,306 L 1349,309 L 1349,310 L 1350,316 L 1350,318 L 1347,320 L 1342,321 L 1330,323 L 1328,324 L 1326,325 L 1326,327 L 1326,330 L 1327,332 L 1327,337 L 1329,344 L 1333,357 L 1333,360 L 1332,367 L 1332,369 L 1333,372 L 1335,374 L 1337,377 L 1337,378 L 1337,382 L 1336,385 L 1335,386 L 1336,389 L 1336,390 L 1338,391 L 1340,393 L 1341,393 L 1342,394 L 1343,394 L 1343,397 L 1342,398 L 1339,402 L 1334,405 L 1333,408 L 1332,410 L 1334,414 L 1336,417 L 1336,418 L 1339,423 L 1340,424 L 1342,426 L 1340,427 L 1338,428 L 1333,429 L 1332,430 L 1330,430 L 1328,432 L 1322,436 L 1320,437 L 1315,439 L 1309,440 L 1306,438 L 1304,438 L 1303,438 L 1302,439 L 1301,441 L 1300,449 L 1301,454 L 1302,462 L 1302,468 L 1301,475 L 1302,485 L 1301,491 L 1302,494 L 1303,500 L 1298,498 L 1295,494 L 1289,489 L 1281,482 L 1272,475 L 1267,472 L 1266,472 L 1259,469 L 1242,467 L 1237,467 L 1235,466 L 1232,467 L 1226,469 L 1221,472 L 1219,473 L 1217,477 L 1217,478 L 1216,481 L 1214,493 L 1207,501 L 1200,509 L 1191,516 L 1190,518 L 1188,521 L 1185,524 L 1184,525 L 1177,530 L 1176,531 L 1175,533 L 1173,539 L 1171,549 L 1170,557 L 1166,571 L 1166,572 L 1165,575 L 1164,580 L 1162,585 L 1160,588 L 1159,591 L 1155,602 L 1153,605 L 1145,619 L 1140,626 L 1137,630 L 1134,632 L 1128,633 L 1121,633 L 1117,634 L 1110,635 L 1105,637 L 1100,639 L 1088,645 L 1084,645 L 1081,644 L 1078,643 L 1067,637 L 1057,632 L 1049,628 L 1043,627 L 1040,629 L 1038,630 L 1037,631 L 1032,633 L 1029,634 L 1026,634 L 1019,631 L 1013,630 L 1011,629 L 1010,628 L 1006,628 L 1004,627 L 1003,627 L 999,626 L 997,625 L 994,622 L 988,619 L 985,615 L 981,607 L 980,603 L 980,600 L 980,599 L 981,595 L 981,594 L 982,586 L 982,579 L 982,576 L 982,572 L 978,563 L 974,555 L 970,551 L 967,547 L 964,545 L 962,545 L 962,537 L 962,534 L 961,527 L 961,523 L 960,519 L 959,515 L 959,513 L 958,511 L 957,508 L 956,505 L 955,499 L 954,487 L 953,481 L 953,478 L 955,474 L 956,471 L 957,470 L 959,468 L 961,466 L 967,462 L 973,458 L 974,458 L 976,456 L 978,450 L 979,447 L 979,446 L 980,441 L 980,432 L 980,426 L 978,421 L 979,421 L 977,418 L 975,415 L 971,411 L 968,409 L 964,407 L 961,406 L 957,406 L 956,401 L 955,394 L 952,388 L 952,387 L 952,371 L 950,361 L 949,357 L 947,353 L 946,349 L 945,344 L 944,338 L 944,332 L 944,326 L 945,317 L 945,314 L 944,305 L 943,301 L 950,300 L 955,298 L 961,295 L 965,293 L 968,292 L 970,291 L 970,289 L 970,287 L 971,277 L 971,269 L 971,268 L 972,261 L 973,257 L 973,254 L 972,250 L 968,246 L 964,242 L 961,239 L 960,238 L 959,235 L 956,231 L 956,230 L 954,226 L 952,225 L 950,222 L 947,218 L 943,213 L 938,207 L 928,194 L 925,187 L 924,183 L 924,178 L 925,176 L 926,171 L 929,161 L 930,160 L 931,155 L 930,145 L 928,142 L 925,139 L 924,137 L 925,136 L 929,135 L 933,133 L 936,131 L 937,131 L 940,132 L 941,132 L 943,131 L 951,132 L 952,132 L 961,131 L 963,131 L 970,127 L 975,127 L 978,127 L 980,127 L 981,127 L 981,126 L 982,125 L 982,123 L 983,121 L 982,116 L 984,113 L 985,110 L 988,107 L 988,102 L 990,98 L 994,91 L 995,90 L 998,84 L 999,84 L 1002,81 L 1012,76 L 1014,75 L 1016,73 L 1019,71 L 1025,65 L 1026,65 L 1027,64 L 1028,63 L 1032,61 L 1042,61 L 1043,61 L 1050,59 L 1052,60 L 1053,60 L 1060,65 L 1062,65 L 1066,65 L 1074,63 L 1078,63 L 1081,63 L 1086,65 L 1089,65 L 1090,65 L 1092,63 L 1092,62 L 1095,58 L 1101,53 L 1104,51 L 1108,49 L 1112,46 L 1113,46 L 1115,45 L 1116,45 L 1118,45 L 1119,44 L 1121,43 L 1122,40 L 1123,38 L 1123,37 L 1127,33 L 1129,31 L 1130,31 L 1131,31 L 1133,30 L 1138,29 L 1144,27 L 1144,26 L 1146,26 L 1147,27 L 1147,31 L 1147,33 L 1150,35 L 1151,36 L 1152,37 L 1154,40 L 1154,42 " />
</g>
<g id="union_lektiko_δημοσ_αγραφων_5" >
<path d="M 691,465 L 692,463 L 692,462 L 693,461 L 693,460 L 692,459 L 693,457 L 693,455 L 694,452 L 695,451 L 696,451 L 697,450 L 699,449 L 700,448 L 701,447 L 701,446 L 702,442 L 702,437 L 703,437 L 703,435 L 703,433 L 704,432 L 704,431 L 705,430 L 705,429 L 703,428 L 701,426 L 700,426 L 699,425 L 697,424 L 696,424 L 694,423 L 692,423 L 688,422 L 681,421 L 679,420 L 678,420 L 677,420 L 676,419 L 675,418 L 672,416 L 669,412 L 668,410 L 666,408 L 665,406 L 664,405 L 663,404 L 662,403 L 658,400 L 657,399 L 656,397 L 654,395 L 653,394 L 652,393 L 650,392 L 649,390 L 647,389 L 645,386 L 644,384 L 644,382 L 644,381 L 643,378 L 642,374 L 641,372 L 642,371 L 641,369 L 641,367 L 641,366 L 640,365 L 640,363 L 638,362 L 635,358 L 633,356 L 631,353 L 629,350 L 628,348 L 626,345 L 623,342 L 622,341 L 621,340 L 620,338 L 620,336 L 620,335 L 620,334 L 621,333 L 623,331 L 624,329 L 626,326 L 627,325 L 626,321 L 626,320 L 626,319 L 626,318 L 626,316 L 625,314 L 624,312 L 623,310 L 622,309 L 622,308 L 621,308 L 620,307 L 620,306 L 619,305 L 618,303 L 618,302 L 619,301 L 619,300 L 619,299 L 620,299 L 621,297 L 621,296 L 621,295 L 621,294 L 621,293 L 620,292 L 620,291 L 620,288 L 620,285 L 621,283 L 622,282 L 623,280 L 624,278 L 626,276 L 627,272 L 626,271 L 626,269 L 625,267 L 625,265 L 626,262 L 627,260 L 628,259 L 642,254 L 644,252 L 645,250 L 647,250 L 649,249 L 650,249 L 651,250 L 652,250 L 655,249 L 658,245 L 659,244 L 660,243 L 664,240 L 668,237 L 669,236 L 670,234 L 671,233 L 672,232 L 673,232 L 673,233 L 674,233 L 675,232 L 676,232 L 677,232 L 687,232 L 689,232 L 691,231 L 693,229 L 694,228 L 695,228 L 695,227 L 696,226 L 696,224 L 698,222 L 702,219 L 705,218 L 706,217 L 714,215 L 721,212 L 728,208 L 731,205 L 737,200 L 740,195 L 740,192 L 740,189 L 740,188 L 739,185 L 738,184 L 736,181 L 733,176 L 732,173 L 732,170 L 731,167 L 731,164 L 731,160 L 732,158 L 732,156 L 734,156 L 739,157 L 740,157 L 742,157 L 744,156 L 744,155 L 745,155 L 746,156 L 746,155 L 751,158 L 753,160 L 754,160 L 759,163 L 764,165 L 767,166 L 768,162 L 770,156 L 771,155 L 772,152 L 775,147 L 778,143 L 779,142 L 780,140 L 783,136 L 787,133 L 792,131 L 794,131 L 795,131 L 798,131 L 799,130 L 802,127 L 805,125 L 807,124 L 810,123 L 813,121 L 817,120 L 819,119 L 822,117 L 823,116 L 824,114 L 826,113 L 838,112 L 842,108 L 843,106 L 845,104 L 847,102 L 851,101 L 852,100 L 854,99 L 856,97 L 859,94 L 861,89 L 863,86 L 865,77 L 866,76 L 868,75 L 870,75 L 871,76 L 875,79 L 886,91 L 888,94 L 895,103 L 897,105 L 901,107 L 905,106 L 906,106 L 908,106 L 910,107 L 913,109 L 917,111 L 923,114 L 926,117 L 927,119 L 931,124 L 935,130 L 936,131 L 933,133 L 929,135 L 925,136 L 924,137 L 925,139 L 928,142 L 930,145 L 931,155 L 930,160 L 929,161 L 926,171 L 925,176 L 924,178 L 924,183 L 925,187 L 928,194 L 938,207 L 943,213 L 947,218 L 950,222 L 952,225 L 954,226 L 956,230 L 956,231 L 959,235 L 960,238 L 961,239 L 964,242 L 968,246 L 972,250 L 973,254 L 973,257 L 972,261 L 971,268 L 971,269 L 971,277 L 970,287 L 970,289 L 970,291 L 968,292 L 965,293 L 961,295 L 955,298 L 950,300 L 943,301 L 936,304 L 933,305 L 929,306 L 922,307 L 910,306 L 902,305 L 890,303 L 882,301 L 877,301 L 868,302 L 864,302 L 853,301 L 850,301 L 848,304 L 846,309 L 843,313 L 843,314 L 842,314 L 842,316 L 841,318 L 840,322 L 839,326 L 838,329 L 835,337 L 834,340 L 834,344 L 833,353 L 832,360 L 832,361 L 833,364 L 833,366 L 835,372 L 836,376 L 837,379 L 838,383 L 838,385 L 839,387 L 838,388 L 837,390 L 837,391 L 836,392 L 836,393 L 836,396 L 837,399 L 838,403 L 840,406 L 841,410 L 841,413 L 842,416 L 841,418 L 840,422 L 838,425 L 835,427 L 835,428 L 833,429 L 829,431 L 825,433 L 822,435 L 820,437 L 818,440 L 815,446 L 813,449 L 811,451 L 808,455 L 806,459 L 806,462 L 805,463 L 803,465 L 802,469 L 799,476 L 794,483 L 793,486 L 789,490 L 781,497 L 780,498 L 779,499 L 778,501 L 776,506 L 776,507 L 775,508 L 773,509 L 773,510 L 772,510 L 768,511 L 763,514 L 762,514 L 760,515 L 758,513 L 755,511 L 748,508 L 747,507 L 747,506 L 746,505 L 745,502 L 744,501 L 744,498 L 743,494 L 742,492 L 740,489 L 739,487 L 738,485 L 738,484 L 737,480 L 737,478 L 736,477 L 732,474 L 728,472 L 723,471 L 717,471 L 713,471 L 711,472 L 709,472 L 705,473 L 702,472 L 698,470 L 693,467 L 691,465 " />
</g>
</g>
</g>
<!-- QGIS extent for clipping, eg in Inkscape -->
<g id="qgisviewbox" inkscape:groupmode="layer" inkscape:label="qgisviewbox" stroke="rgb(255,0,0)" stroke-width="1" fill="none" >
<path d="M 0,1114 L 2011,1114 L 2011,0 L 0,0 L 0,1114 " />
</g></svg>