<?xml version="1.0" standalone="no"?>
<!DOCTYPE svg PUBLIC "-//W3C//DTD SVG 1.1//EN" "http://www.w3.org/Graphics/SVG/1.1/DTD/svg11.dtd">
<svg xmlns="http://www.w3.org/2000/svg" xmlns:inkscape="http://www.inkscape.org/namespaces/inkscape" xmlns:xlink="http://www.w3.org/1999/xlink" viewBox = "0 0 2013 1116" version = "1.1">
<!-- svg generated using QGIS www.qgis.org -->
<g id="union_lektiko_δημοσ_αγκιστριου" inkscape:groupmode="layer" inkscape:label="union_lektiko_δημοσ_αγκιστριου">
<g stroke="none" fill="rgb(71,37,144)" stroke-linejoin="round" stroke-width="0.26">
<g id="union_lektiko_δημοσ_αγκιστριου_1" >
<path d="M 1068,847 L 1064,854 L 1063,857 L 1063,864 L 1064,871 L 1066,878 L 1071,882 L 1077,886 L 1079,893 L 1078,896 L 1076,899 L 1071,903 L 1064,904 L 1057,901 L 1054,900 L 1048,895 L 1043,891 L 1036,889 L 1034,886 L 1029,881 L 1024,876 L 1018,874 L 1011,877 L 1004,878 L 997,880 L 994,881 L 987,880 L 984,882 L 974,880 L 971,880 L 964,879 L 960,873 L 961,870 L 964,864 L 967,857 L 969,850 L 972,844 L 976,844 L 979,846 L 982,847 L 989,849 L 992,847 L 997,842 L 1000,840 L 1007,837 L 1014,837 L 1017,838 L 1021,843 L 1022,847 L 1028,851 L 1033,848 L 1034,844 L 1035,840 L 1036,834 L 1037,830 L 1038,823 L 1039,816 L 1040,811 L 1034,807 L 1031,805 L 1029,799 L 1035,795 L 1039,794 L 1045,790 L 1048,784 L 1052,785 L 1055,786 L 1062,788 L 1068,792 L 1073,797 L 1076,803 L 1077,807 L 1075,813 L 1073,816 L 1072,823 L 1071,830 L 1070,837 L 1070,841 L 1068,847 " />
<path d="M 1132,801 L 1130,806 L 1123,805 L 1120,802 L 1116,797 L 1111,791 L 1106,787 L 1105,779 L 1108,775 L 1115,775 L 1119,780 L 1122,787 L 1126,792 L 1130,798 L 1132,801 " />
<path d="M 433,572 L 432,572 L 431,571 L 430,570 L 429,569 L 428,567 L 428,565 L 428,563 L 429,562 L 430,563 L 432,564 L 433,566 L 433,568 L 433,570 L 433,572 " />
<path d="M 82,498 L 80,501 L 78,504 L 76,506 L 73,509 L 71,512 L 69,514 L 66,517 L 63,518 L 59,519 L 55,518 L 53,515 L 51,512 L 49,509 L 47,506 L 48,500 L 51,498 L 55,499 L 58,499 L 62,500 L 65,500 L 69,499 L 71,496 L 74,494 L 76,491 L 78,488 L 84,491 L 82,498 " />
<path d="M 480,405 L 481,412 L 481,419 L 483,426 L 484,433 L 483,440 L 479,445 L 474,450 L 470,456 L 467,462 L 467,466 L 465,473 L 462,479 L 459,481 L 457,484 L 461,489 L 465,495 L 462,501 L 457,506 L 457,513 L 457,520 L 452,524 L 448,525 L 441,525 L 435,522 L 433,515 L 430,509 L 423,512 L 421,518 L 424,524 L 421,531 L 416,535 L 416,542 L 416,545 L 415,549 L 409,549 L 403,553 L 400,555 L 402,561 L 403,565 L 398,569 L 392,567 L 391,563 L 387,560 L 385,563 L 378,562 L 371,559 L 368,559 L 361,562 L 354,564 L 348,568 L 343,573 L 337,574 L 334,576 L 332,579 L 326,581 L 322,580 L 313,579 L 307,576 L 304,575 L 298,571 L 295,564 L 296,561 L 298,558 L 302,552 L 307,547 L 309,541 L 307,534 L 304,528 L 301,522 L 294,525 L 293,515 L 289,509 L 291,502 L 295,496 L 292,491 L 285,489 L 279,485 L 272,483 L 269,481 L 264,476 L 263,473 L 265,468 L 276,468 L 283,470 L 288,474 L 298,476 L 305,474 L 311,471 L 314,469 L 319,474 L 324,478 L 330,475 L 336,472 L 343,468 L 346,467 L 351,463 L 355,457 L 357,454 L 359,451 L 361,447 L 365,441 L 368,435 L 368,432 L 366,425 L 373,425 L 380,424 L 387,423 L 391,418 L 393,411 L 400,410 L 407,409 L 414,407 L 421,405 L 427,403 L 434,400 L 438,404 L 439,408 L 444,410 L 450,409 L 461,408 L 464,402 L 471,399 L 477,403 L 480,405 " />
<path d="M 1436,335 L 1437,339 L 1425,343 L 1424,345 L 1426,348 L 1433,350 L 1438,355 L 1443,360 L 1449,365 L 1455,368 L 1461,370 L 1468,373 L 1475,375 L 1482,377 L 1489,377 L 1496,377 L 1503,378 L 1513,377 L 1520,376 L 1531,376 L 1534,376 L 1541,375 L 1548,377 L 1551,378 L 1558,379 L 1562,379 L 1569,377 L 1572,377 L 1579,380 L 1585,383 L 1591,386 L 1595,388 L 1601,388 L 1605,388 L 1612,387 L 1619,388 L 1623,389 L 1626,390 L 1636,389 L 1643,387 L 1649,383 L 1655,380 L 1658,380 L 1665,378 L 1672,376 L 1675,377 L 1675,383 L 1674,386 L 1673,393 L 1674,396 L 1676,403 L 1672,408 L 1672,415 L 1674,417 L 1680,421 L 1683,422 L 1684,429 L 1690,430 L 1694,435 L 1695,440 L 1702,439 L 1706,445 L 1713,445 L 1720,446 L 1727,447 L 1730,451 L 1728,454 L 1732,460 L 1733,466 L 1734,473 L 1739,478 L 1741,481 L 1744,487 L 1741,494 L 1742,499 L 1746,500 L 1748,503 L 1750,509 L 1750,513 L 1755,518 L 1758,519 L 1761,521 L 1766,525 L 1769,528 L 1763,533 L 1760,534 L 1754,538 L 1752,540 L 1748,546 L 1746,553 L 1744,560 L 1744,567 L 1747,574 L 1748,577 L 1751,579 L 1751,585 L 1751,592 L 1751,598 L 1753,601 L 1757,607 L 1757,614 L 1758,617 L 1760,624 L 1759,627 L 1761,634 L 1762,641 L 1761,648 L 1757,653 L 1751,657 L 1747,657 L 1741,661 L 1735,664 L 1731,663 L 1724,665 L 1718,667 L 1707,669 L 1701,666 L 1695,670 L 1692,672 L 1686,674 L 1686,678 L 1673,681 L 1675,685 L 1673,690 L 1669,695 L 1663,698 L 1658,701 L 1651,704 L 1647,710 L 1646,713 L 1641,718 L 1638,720 L 1631,722 L 1626,727 L 1620,728 L 1616,727 L 1612,731 L 1607,737 L 1597,739 L 1594,738 L 1590,743 L 1584,746 L 1577,745 L 1574,744 L 1570,749 L 1567,755 L 1560,757 L 1553,759 L 1544,756 L 1542,753 L 1537,749 L 1531,745 L 1527,743 L 1526,749 L 1526,752 L 1523,759 L 1521,762 L 1519,769 L 1518,772 L 1511,771 L 1506,766 L 1503,765 L 1499,764 L 1494,760 L 1483,762 L 1477,765 L 1474,770 L 1471,773 L 1464,774 L 1457,776 L 1460,781 L 1467,781 L 1474,782 L 1481,784 L 1484,786 L 1487,792 L 1488,795 L 1488,799 L 1484,803 L 1484,807 L 1481,814 L 1481,817 L 1472,814 L 1469,815 L 1463,819 L 1457,822 L 1450,824 L 1443,826 L 1436,826 L 1436,831 L 1438,838 L 1436,841 L 1432,845 L 1425,844 L 1423,849 L 1421,855 L 1412,858 L 1406,856 L 1402,857 L 1399,856 L 1397,862 L 1398,865 L 1394,869 L 1397,875 L 1401,881 L 1402,884 L 1399,891 L 1397,893 L 1394,900 L 1390,906 L 1386,911 L 1382,917 L 1377,922 L 1372,927 L 1367,932 L 1363,937 L 1361,940 L 1361,947 L 1366,952 L 1364,959 L 1363,963 L 1362,966 L 1357,971 L 1354,973 L 1347,974 L 1341,972 L 1337,970 L 1330,968 L 1324,966 L 1317,963 L 1311,960 L 1304,958 L 1298,956 L 1291,954 L 1284,952 L 1277,953 L 1270,953 L 1263,954 L 1252,953 L 1245,952 L 1238,952 L 1231,952 L 1228,953 L 1218,952 L 1214,950 L 1207,949 L 1204,949 L 1200,949 L 1194,947 L 1189,942 L 1188,935 L 1182,931 L 1178,931 L 1171,929 L 1165,926 L 1158,924 L 1151,922 L 1145,920 L 1139,917 L 1141,912 L 1144,911 L 1150,907 L 1156,902 L 1162,899 L 1165,897 L 1170,893 L 1173,886 L 1173,883 L 1173,879 L 1173,875 L 1170,870 L 1163,869 L 1156,867 L 1149,864 L 1146,863 L 1140,859 L 1136,853 L 1133,847 L 1129,841 L 1128,838 L 1128,831 L 1129,828 L 1130,824 L 1131,817 L 1134,811 L 1137,805 L 1138,798 L 1137,791 L 1135,784 L 1134,777 L 1132,770 L 1133,767 L 1138,763 L 1142,763 L 1148,766 L 1154,769 L 1157,771 L 1161,771 L 1160,767 L 1157,761 L 1153,755 L 1150,749 L 1147,742 L 1146,735 L 1148,729 L 1151,729 L 1156,734 L 1158,737 L 1163,742 L 1165,745 L 1170,750 L 1174,751 L 1181,751 L 1184,746 L 1183,739 L 1182,736 L 1178,730 L 1176,726 L 1173,720 L 1172,717 L 1170,710 L 1168,703 L 1168,696 L 1168,693 L 1167,689 L 1167,682 L 1169,675 L 1170,672 L 1171,669 L 1173,662 L 1176,656 L 1178,652 L 1180,646 L 1183,639 L 1185,632 L 1186,629 L 1188,626 L 1189,622 L 1194,618 L 1198,618 L 1201,617 L 1208,614 L 1214,612 L 1221,609 L 1224,608 L 1227,606 L 1233,603 L 1236,600 L 1241,596 L 1244,593 L 1246,591 L 1249,584 L 1251,577 L 1251,574 L 1250,567 L 1244,563 L 1241,557 L 1244,551 L 1250,546 L 1253,540 L 1256,534 L 1258,528 L 1261,526 L 1266,522 L 1266,518 L 1264,512 L 1270,511 L 1273,504 L 1276,503 L 1282,498 L 1285,492 L 1287,485 L 1290,479 L 1294,473 L 1295,470 L 1294,463 L 1291,456 L 1290,449 L 1292,447 L 1298,445 L 1300,442 L 1305,438 L 1311,435 L 1316,431 L 1320,432 L 1330,431 L 1333,429 L 1336,425 L 1339,419 L 1340,415 L 1341,409 L 1342,401 L 1343,394 L 1343,387 L 1343,381 L 1346,378 L 1352,374 L 1359,372 L 1365,369 L 1369,363 L 1374,358 L 1381,359 L 1388,359 L 1391,358 L 1397,354 L 1402,349 L 1408,344 L 1415,342 L 1420,338 L 1425,338 L 1436,335 " />
<path d="M 1908,139 L 1911,142 L 1920,140 L 1923,142 L 1929,145 L 1936,145 L 1940,146 L 1945,151 L 1952,152 L 1959,154 L 1963,159 L 1957,163 L 1951,167 L 1945,171 L 1939,173 L 1932,175 L 1928,176 L 1922,178 L 1916,182 L 1910,186 L 1904,190 L 1898,193 L 1891,196 L 1885,200 L 1880,204 L 1874,208 L 1868,212 L 1862,216 L 1857,220 L 1852,225 L 1846,230 L 1840,234 L 1835,239 L 1830,243 L 1824,246 L 1820,247 L 1813,248 L 1810,247 L 1807,241 L 1808,234 L 1810,228 L 1813,221 L 1813,217 L 1814,211 L 1810,205 L 1811,198 L 1814,196 L 1820,192 L 1826,189 L 1832,184 L 1836,179 L 1838,172 L 1840,165 L 1846,161 L 1848,157 L 1852,151 L 1854,148 L 1860,144 L 1867,142 L 1874,141 L 1881,141 L 1888,141 L 1895,143 L 1902,141 L 1908,139 " />
</g>
</g>
</g>
<!-- QGIS extent for clipping, eg in Inkscape -->
<g id="qgisviewbox" inkscape:groupmode="layer" inkscape:label="qgisviewbox" stroke="rgb(255,0,0)" stroke-width="1" fill="none" >
<path d="M 0,1113 L 2011,1113 L 2011,0 L 0,0 L 0,1113 " />
</g></svg>