<?xml version="1.0" standalone="no"?>
<!DOCTYPE svg PUBLIC "-//W3C//DTD SVG 1.1//EN" "http://www.w3.org/Graphics/SVG/1.1/DTD/svg11.dtd">
<svg xmlns="http://www.w3.org/2000/svg" xmlns:inkscape="http://www.inkscape.org/namespaces/inkscape" xmlns:xlink="http://www.w3.org/1999/xlink" viewBox = "0 0 2013 1116" version = "1.1">
<!-- svg generated using QGIS www.qgis.org -->
<g id="union_lektiko_δημοσ_αγιου_βασιλειου" inkscape:groupmode="layer" inkscape:label="union_lektiko_δημοσ_αγιου_βασιλειου">
<g stroke="none" fill="rgb(21,42,149)" stroke-linejoin="round" stroke-width="0.26">
<g id="union_lektiko_δημοσ_αγιου_βασιλειου_1" >
<path d="M 921,513 L 920,513 L 919,512 L 918,513 L 917,513 L 916,514 L 915,515 L 914,515 L 913,516 L 912,516 L 911,515 L 911,516 L 910,517 L 908,517 L 907,517 L 907,516 L 908,515 L 909,514 L 909,513 L 909,512 L 909,511 L 908,511 L 908,509 L 907,508 L 907,507 L 906,506 L 906,505 L 906,504 L 906,503 L 905,502 L 904,502 L 904,503 L 904,504 L 905,505 L 905,507 L 906,508 L 906,509 L 907,510 L 907,512 L 907,513 L 907,514 L 906,515 L 906,516 L 905,517 L 905,518 L 905,519 L 905,520 L 905,521 L 904,521 L 903,522 L 902,522 L 901,523 L 900,523 L 899,523 L 898,523 L 897,524 L 896,525 L 895,525 L 894,525 L 893,524 L 891,524 L 891,525 L 891,526 L 891,527 L 890,528 L 889,528 L 888,528 L 888,529 L 887,530 L 886,530 L 885,530 L 884,530 L 884,529 L 883,529 L 882,529 L 882,530 L 881,530 L 880,530 L 879,530 L 878,530 L 877,530 L 877,531 L 877,532 L 875,532 L 874,531 L 873,531 L 873,530 L 872,530 L 870,529 L 869,529 L 867,529 L 866,528 L 865,528 L 864,528 L 863,527 L 861,528 L 859,529 L 858,528 L 856,528 L 855,528 L 854,528 L 853,527 L 852,527 L 852,526 L 851,526 L 851,525 L 850,525 L 850,524 L 849,524 L 849,523 L 848,523 L 848,522 L 848,521 L 847,521 L 846,521 L 844,521 L 843,520 L 841,520 L 840,520 L 839,520 L 838,520 L 837,520 L 836,520 L 836,519 L 835,519 L 835,518 L 834,518 L 833,518 L 832,518 L 831,517 L 831,516 L 830,516 L 829,516 L 828,515 L 827,514 L 826,513 L 826,512 L 825,512 L 825,511 L 824,510 L 823,510 L 822,510 L 820,510 L 818,511 L 817,510 L 816,510 L 815,510 L 815,509 L 814,509 L 813,508 L 812,507 L 811,507 L 811,506 L 810,506 L 809,507 L 808,507 L 807,506 L 807,505 L 807,504 L 807,503 L 806,503 L 805,503 L 804,502 L 804,501 L 803,500 L 802,500 L 801,499 L 799,499 L 799,498 L 798,498 L 798,497 L 798,496 L 797,495 L 796,494 L 795,494 L 794,493 L 793,493 L 792,493 L 791,492 L 790,492 L 790,491 L 789,491 L 788,490 L 787,490 L 786,490 L 786,489 L 785,489 L 785,488 L 784,488 L 783,488 L 782,488 L 781,488 L 780,487 L 779,487 L 778,487 L 777,487 L 777,486 L 776,486 L 775,486 L 773,485 L 772,485 L 771,485 L 770,485 L 770,484 L 769,484 L 768,483 L 767,483 L 766,483 L 765,483 L 764,483 L 763,482 L 762,482 L 761,482 L 759,481 L 758,481 L 758,480 L 758,479 L 757,479 L 756,479 L 755,479 L 754,478 L 753,478 L 752,477 L 752,476 L 751,476 L 750,475 L 749,475 L 747,475 L 747,474 L 745,474 L 744,473 L 744,472 L 742,472 L 742,471 L 741,471 L 741,470 L 740,469 L 740,468 L 740,467 L 740,466 L 741,466 L 742,466 L 743,466 L 744,466 L 744,465 L 744,464 L 744,463 L 743,462 L 742,462 L 741,462 L 740,462 L 739,462 L 738,462 L 737,462 L 736,462 L 735,462 L 735,461 L 736,460 L 737,459 L 737,458 L 737,457 L 737,456 L 737,455 L 737,454 L 738,454 L 738,453 L 739,452 L 739,451 L 739,450 L 739,449 L 739,448 L 739,447 L 738,447 L 738,446 L 737,445 L 737,444 L 736,443 L 735,442 L 734,441 L 734,440 L 733,439 L 732,438 L 731,437 L 730,436 L 729,435 L 728,435 L 727,435 L 726,435 L 721,434 L 718,433 L 717,434 L 716,434 L 715,434 L 714,434 L 713,435 L 713,436 L 712,437 L 712,438 L 711,438 L 710,438 L 710,439 L 710,440 L 710,441 L 709,443 L 708,444 L 707,445 L 706,445 L 704,445 L 703,446 L 702,445 L 701,445 L 700,444 L 699,444 L 697,445 L 696,445 L 695,446 L 694,446 L 693,446 L 692,446 L 691,446 L 690,446 L 689,446 L 688,445 L 687,445 L 686,445 L 685,445 L 684,445 L 684,444 L 683,444 L 683,443 L 682,443 L 682,442 L 681,442 L 681,443 L 680,443 L 679,443 L 678,442 L 677,442 L 676,441 L 675,441 L 674,441 L 673,440 L 672,440 L 672,441 L 671,441 L 670,442 L 669,442 L 668,441 L 667,441 L 666,441 L 665,441 L 664,441 L 663,441 L 661,440 L 660,440 L 659,440 L 659,441 L 658,441 L 657,441 L 656,441 L 655,441 L 654,440 L 653,440 L 653,439 L 654,439 L 654,438 L 654,437 L 655,437 L 655,436 L 656,436 L 657,435 L 656,435 L 656,434 L 656,433 L 656,432 L 656,431 L 656,430 L 655,430 L 655,429 L 656,428 L 657,427 L 658,426 L 658,425 L 658,424 L 657,423 L 656,423 L 656,422 L 655,422 L 655,421 L 654,421 L 654,420 L 655,419 L 656,419 L 657,419 L 658,419 L 660,418 L 661,418 L 662,418 L 664,418 L 665,418 L 665,417 L 666,416 L 667,415 L 668,415 L 669,414 L 670,413 L 671,413 L 673,413 L 675,412 L 676,412 L 677,411 L 678,411 L 678,410 L 678,409 L 678,408 L 679,406 L 678,405 L 678,402 L 678,401 L 677,399 L 677,398 L 676,396 L 675,394 L 674,392 L 674,391 L 673,389 L 672,387 L 672,386 L 671,385 L 670,383 L 669,382 L 667,380 L 666,378 L 666,377 L 665,377 L 664,376 L 663,375 L 662,374 L 661,373 L 660,373 L 659,373 L 658,372 L 657,373 L 656,372 L 654,372 L 653,373 L 652,373 L 652,372 L 651,371 L 651,370 L 650,370 L 649,370 L 648,369 L 647,369 L 646,368 L 645,368 L 645,367 L 644,366 L 644,365 L 643,365 L 643,364 L 642,363 L 641,363 L 640,362 L 639,362 L 638,362 L 637,362 L 635,362 L 634,361 L 633,360 L 631,360 L 630,360 L 629,360 L 629,359 L 628,359 L 626,359 L 625,359 L 623,358 L 622,358 L 621,358 L 620,358 L 619,357 L 618,356 L 617,357 L 616,357 L 615,358 L 614,359 L 614,360 L 613,361 L 612,362 L 611,363 L 610,363 L 609,364 L 608,364 L 607,364 L 606,364 L 605,365 L 604,366 L 604,367 L 603,368 L 602,368 L 601,367 L 601,366 L 600,366 L 599,366 L 598,366 L 597,365 L 596,365 L 596,366 L 594,366 L 593,365 L 593,366 L 593,368 L 592,369 L 590,369 L 589,370 L 588,370 L 587,371 L 586,371 L 586,372 L 584,372 L 582,372 L 580,371 L 580,370 L 580,369 L 579,368 L 579,367 L 578,367 L 577,366 L 576,366 L 574,366 L 573,366 L 572,366 L 570,367 L 569,367 L 568,368 L 567,368 L 566,368 L 565,369 L 564,369 L 563,371 L 563,374 L 563,375 L 562,376 L 562,377 L 562,378 L 563,379 L 563,380 L 562,380 L 561,380 L 560,380 L 560,381 L 559,381 L 558,381 L 558,380 L 557,381 L 557,382 L 556,382 L 556,383 L 555,383 L 555,384 L 553,384 L 552,384 L 551,384 L 550,383 L 549,383 L 548,383 L 547,383 L 546,383 L 545,383 L 544,383 L 543,384 L 542,384 L 541,385 L 542,385 L 542,387 L 541,388 L 540,389 L 539,389 L 538,389 L 536,390 L 536,391 L 536,392 L 536,393 L 535,394 L 535,395 L 535,396 L 535,397 L 536,397 L 536,398 L 537,399 L 538,399 L 539,400 L 539,402 L 538,402 L 537,403 L 535,403 L 534,403 L 533,404 L 531,405 L 530,406 L 529,406 L 528,406 L 527,405 L 527,404 L 526,403 L 525,403 L 523,403 L 522,402 L 520,402 L 519,402 L 518,402 L 517,401 L 516,401 L 515,400 L 514,400 L 513,401 L 512,401 L 511,402 L 509,402 L 508,402 L 507,402 L 506,402 L 505,403 L 505,402 L 505,401 L 504,400 L 503,400 L 502,400 L 501,400 L 501,399 L 501,398 L 501,397 L 501,396 L 500,395 L 499,394 L 498,393 L 496,391 L 495,391 L 494,391 L 493,390 L 492,390 L 491,389 L 490,388 L 489,389 L 488,390 L 487,390 L 486,389 L 484,389 L 483,389 L 482,389 L 481,390 L 480,390 L 478,390 L 477,389 L 476,388 L 476,387 L 475,385 L 475,384 L 474,383 L 473,382 L 472,382 L 471,382 L 470,381 L 469,381 L 468,382 L 468,383 L 468,384 L 467,384 L 466,385 L 465,385 L 464,384 L 462,384 L 462,383 L 461,383 L 460,384 L 460,385 L 459,385 L 459,386 L 458,386 L 456,386 L 455,386 L 454,385 L 453,385 L 452,385 L 451,384 L 451,383 L 450,382 L 450,381 L 450,380 L 450,379 L 449,378 L 448,378 L 447,378 L 446,377 L 445,377 L 444,377 L 443,378 L 442,378 L 441,378 L 440,378 L 439,379 L 438,379 L 436,379 L 436,380 L 435,380 L 434,380 L 433,380 L 432,380 L 431,380 L 430,380 L 429,380 L 427,381 L 425,382 L 425,383 L 424,384 L 424,385 L 423,386 L 423,387 L 421,388 L 420,388 L 419,387 L 418,386 L 417,386 L 416,386 L 415,386 L 413,386 L 412,387 L 411,387 L 410,387 L 409,388 L 408,388 L 407,388 L 407,389 L 406,389 L 405,389 L 404,389 L 404,388 L 402,388 L 401,389 L 400,389 L 399,388 L 398,388 L 397,389 L 396,389 L 395,389 L 394,389 L 393,389 L 392,390 L 391,390 L 390,390 L 389,390 L 389,391 L 388,391 L 387,392 L 385,392 L 384,392 L 383,393 L 382,393 L 380,394 L 379,394 L 378,394 L 378,395 L 378,396 L 378,397 L 378,398 L 377,398 L 378,399 L 378,400 L 378,401 L 377,401 L 376,401 L 376,402 L 375,403 L 375,404 L 375,405 L 374,405 L 373,406 L 372,406 L 371,405 L 370,405 L 369,405 L 368,405 L 368,404 L 367,404 L 366,404 L 366,405 L 365,405 L 364,405 L 362,406 L 361,406 L 360,406 L 360,407 L 359,407 L 358,408 L 357,408 L 356,408 L 355,408 L 354,409 L 353,409 L 352,409 L 351,410 L 350,410 L 349,411 L 348,411 L 348,412 L 347,413 L 347,414 L 346,414 L 345,415 L 344,416 L 343,416 L 342,416 L 341,416 L 340,417 L 339,417 L 338,417 L 338,418 L 337,418 L 336,418 L 336,419 L 336,420 L 336,421 L 335,421 L 335,422 L 335,423 L 335,424 L 334,424 L 334,425 L 334,426 L 334,427 L 333,428 L 332,428 L 332,429 L 331,429 L 330,429 L 329,429 L 328,429 L 327,430 L 326,430 L 329,428 L 329,422 L 328,418 L 327,407 L 326,400 L 323,392 L 316,378 L 315,373 L 317,370 L 318,367 L 323,363 L 333,352 L 336,347 L 339,341 L 340,338 L 342,335 L 345,326 L 345,322 L 345,315 L 345,309 L 345,308 L 344,299 L 345,297 L 347,280 L 354,261 L 360,244 L 362,241 L 368,225 L 370,220 L 369,216 L 382,192 L 383,188 L 386,186 L 394,180 L 395,180 L 401,178 L 405,179 L 410,180 L 413,183 L 418,184 L 419,185 L 423,185 L 434,185 L 442,186 L 447,188 L 450,189 L 457,191 L 461,193 L 468,197 L 479,205 L 483,209 L 486,211 L 490,210 L 497,210 L 505,210 L 525,209 L 537,207 L 541,205 L 542,205 L 545,201 L 547,197 L 547,186 L 548,178 L 548,173 L 548,169 L 553,167 L 564,165 L 568,163 L 574,160 L 580,157 L 597,160 L 602,158 L 610,155 L 614,155 L 616,154 L 620,155 L 628,156 L 631,157 L 653,167 L 661,167 L 675,167 L 689,167 L 695,166 L 700,164 L 705,162 L 712,158 L 715,156 L 719,149 L 727,135 L 733,123 L 734,121 L 737,119 L 744,116 L 755,113 L 759,112 L 773,112 L 779,113 L 785,116 L 790,120 L 793,121 L 794,121 L 804,124 L 807,124 L 814,124 L 821,124 L 833,122 L 836,120 L 843,113 L 846,111 L 850,113 L 894,124 L 906,130 L 913,136 L 916,138 L 918,141 L 924,140 L 932,140 L 935,141 L 937,142 L 942,144 L 946,148 L 947,149 L 947,154 L 950,159 L 953,162 L 962,169 L 966,173 L 969,176 L 975,184 L 977,189 L 979,196 L 978,202 L 973,214 L 973,215 L 966,225 L 962,230 L 950,239 L 946,243 L 941,247 L 941,248 L 936,259 L 932,266 L 931,267 L 923,271 L 918,278 L 911,283 L 907,286 L 903,287 L 902,288 L 901,291 L 900,297 L 903,305 L 903,311 L 900,317 L 897,320 L 896,320 L 893,322 L 889,324 L 893,332 L 897,345 L 901,350 L 906,355 L 913,359 L 920,362 L 928,364 L 938,365 L 950,368 L 954,369 L 957,371 L 959,372 L 960,374 L 966,382 L 964,387 L 962,390 L 960,393 L 958,397 L 958,401 L 957,407 L 953,421 L 951,433 L 944,453 L 940,462 L 940,465 L 944,469 L 947,471 L 945,475 L 942,481 L 942,487 L 939,488 L 938,490 L 937,493 L 935,497 L 933,503 L 931,505 L 926,509 L 923,511 L 921,513 " />
</g>
<g id="union_lektiko_δημοσ_αγιου_βασιλειου_2" >
<path d="M 1277,1061 L 1278,1061 L 1279,1061 L 1280,1061 L 1281,1061 L 1282,1062 L 1283,1062 L 1284,1062 L 1285,1062 L 1286,1062 L 1287,1062 L 1288,1062 L 1289,1062 L 1290,1062 L 1291,1062 L 1292,1062 L 1293,1062 L 1293,1063 L 1292,1063 L 1292,1064 L 1292,1065 L 1291,1065 L 1290,1066 L 1290,1067 L 1289,1068 L 1288,1069 L 1287,1070 L 1286,1070 L 1285,1070 L 1284,1070 L 1283,1070 L 1282,1070 L 1281,1070 L 1279,1071 L 1278,1071 L 1277,1071 L 1276,1072 L 1275,1073 L 1275,1074 L 1274,1075 L 1273,1076 L 1273,1077 L 1272,1077 L 1272,1078 L 1271,1079 L 1271,1080 L 1270,1080 L 1270,1081 L 1269,1081 L 1269,1082 L 1269,1083 L 1269,1084 L 1269,1085 L 1268,1085 L 1268,1086 L 1267,1086 L 1266,1086 L 1266,1087 L 1265,1087 L 1264,1087 L 1263,1087 L 1262,1086 L 1261,1086 L 1261,1085 L 1260,1085 L 1260,1084 L 1259,1084 L 1258,1084 L 1257,1084 L 1256,1084 L 1255,1084 L 1254,1084 L 1253,1084 L 1252,1084 L 1251,1084 L 1251,1085 L 1250,1085 L 1249,1085 L 1248,1086 L 1247,1086 L 1246,1086 L 1246,1085 L 1245,1085 L 1244,1085 L 1244,1086 L 1243,1086 L 1242,1086 L 1241,1085 L 1240,1085 L 1239,1084 L 1238,1084 L 1237,1084 L 1237,1083 L 1236,1083 L 1235,1082 L 1234,1082 L 1234,1081 L 1233,1081 L 1232,1081 L 1231,1082 L 1230,1082 L 1229,1082 L 1228,1083 L 1227,1083 L 1226,1083 L 1225,1083 L 1224,1083 L 1223,1083 L 1222,1083 L 1221,1083 L 1220,1083 L 1220,1082 L 1219,1081 L 1219,1080 L 1218,1080 L 1217,1080 L 1217,1079 L 1217,1078 L 1218,1077 L 1219,1077 L 1220,1077 L 1220,1076 L 1221,1076 L 1222,1076 L 1223,1076 L 1224,1075 L 1225,1075 L 1226,1075 L 1227,1075 L 1228,1075 L 1230,1075 L 1231,1075 L 1232,1075 L 1233,1075 L 1234,1075 L 1235,1075 L 1236,1075 L 1237,1075 L 1238,1075 L 1239,1075 L 1240,1075 L 1241,1075 L 1242,1075 L 1243,1075 L 1244,1075 L 1245,1075 L 1246,1075 L 1247,1075 L 1248,1074 L 1249,1073 L 1250,1073 L 1251,1073 L 1251,1072 L 1252,1072 L 1253,1072 L 1253,1071 L 1254,1071 L 1255,1071 L 1256,1070 L 1257,1070 L 1258,1070 L 1258,1069 L 1259,1069 L 1259,1068 L 1260,1068 L 1261,1067 L 1262,1066 L 1263,1066 L 1263,1065 L 1264,1064 L 1265,1064 L 1266,1063 L 1267,1063 L 1268,1062 L 1269,1062 L 1270,1062 L 1271,1062 L 1272,1061 L 1273,1061 L 1274,1060 L 1275,1060 L 1276,1060 L 1277,1061 " />
<path d="M 1326,1037 L 1326,1038 L 1327,1038 L 1327,1039 L 1327,1040 L 1327,1041 L 1327,1042 L 1327,1043 L 1327,1044 L 1327,1045 L 1327,1046 L 1328,1046 L 1328,1047 L 1327,1048 L 1327,1049 L 1327,1050 L 1327,1051 L 1327,1052 L 1327,1053 L 1327,1054 L 1327,1055 L 1327,1056 L 1327,1057 L 1327,1058 L 1327,1059 L 1328,1060 L 1328,1061 L 1328,1062 L 1328,1063 L 1327,1063 L 1327,1064 L 1327,1065 L 1327,1066 L 1326,1066 L 1325,1067 L 1325,1068 L 1325,1069 L 1324,1069 L 1323,1069 L 1322,1069 L 1321,1069 L 1320,1069 L 1319,1069 L 1319,1068 L 1318,1068 L 1318,1067 L 1317,1067 L 1317,1066 L 1316,1066 L 1316,1065 L 1316,1064 L 1315,1063 L 1314,1063 L 1313,1063 L 1312,1063 L 1311,1063 L 1310,1063 L 1309,1062 L 1308,1061 L 1307,1061 L 1306,1061 L 1305,1061 L 1304,1061 L 1303,1061 L 1302,1061 L 1301,1061 L 1301,1062 L 1300,1062 L 1299,1062 L 1298,1061 L 1297,1061 L 1297,1060 L 1296,1060 L 1295,1060 L 1295,1059 L 1295,1058 L 1296,1058 L 1297,1058 L 1297,1057 L 1298,1057 L 1298,1056 L 1298,1055 L 1297,1055 L 1297,1054 L 1297,1053 L 1298,1053 L 1298,1052 L 1299,1052 L 1300,1052 L 1300,1051 L 1301,1051 L 1301,1050 L 1302,1050 L 1301,1049 L 1301,1048 L 1300,1048 L 1300,1047 L 1299,1047 L 1298,1046 L 1297,1045 L 1297,1044 L 1297,1043 L 1298,1043 L 1299,1043 L 1300,1043 L 1301,1043 L 1302,1043 L 1302,1042 L 1303,1042 L 1304,1042 L 1304,1041 L 1305,1041 L 1306,1041 L 1307,1041 L 1308,1041 L 1309,1041 L 1309,1042 L 1310,1043 L 1310,1044 L 1311,1044 L 1311,1045 L 1312,1044 L 1313,1044 L 1313,1043 L 1313,1042 L 1313,1041 L 1314,1041 L 1314,1040 L 1314,1039 L 1315,1039 L 1315,1038 L 1316,1038 L 1317,1038 L 1317,1037 L 1318,1037 L 1319,1037 L 1320,1037 L 1321,1037 L 1322,1037 L 1323,1037 L 1324,1037 L 1325,1037 L 1326,1037 " />
<path d="M 1158,56 L 1159,58 L 1162,56 L 1168,52 L 1172,50 L 1178,49 L 1187,49 L 1200,54 L 1206,55 L 1210,56 L 1212,60 L 1208,61 L 1179,75 L 1171,79 L 1160,86 L 1157,88 L 1154,90 L 1154,91 L 1154,93 L 1154,94 L 1156,98 L 1160,105 L 1161,108 L 1160,112 L 1160,113 L 1157,117 L 1153,120 L 1149,124 L 1147,126 L 1147,128 L 1147,131 L 1148,140 L 1149,141 L 1150,143 L 1156,144 L 1161,149 L 1160,152 L 1158,155 L 1156,156 L 1154,157 L 1152,158 L 1151,161 L 1150,164 L 1144,166 L 1141,169 L 1144,170 L 1145,172 L 1146,174 L 1147,175 L 1149,176 L 1158,172 L 1162,172 L 1165,173 L 1173,181 L 1175,184 L 1176,190 L 1178,209 L 1179,214 L 1179,217 L 1176,220 L 1167,227 L 1165,232 L 1165,233 L 1164,235 L 1167,238 L 1169,239 L 1174,243 L 1185,253 L 1186,253 L 1188,255 L 1191,260 L 1196,270 L 1199,280 L 1198,282 L 1199,285 L 1202,288 L 1204,289 L 1211,290 L 1221,290 L 1226,291 L 1227,292 L 1230,294 L 1235,304 L 1239,315 L 1241,326 L 1241,331 L 1239,338 L 1238,340 L 1238,343 L 1240,346 L 1241,349 L 1241,350 L 1239,352 L 1239,354 L 1240,356 L 1247,359 L 1266,367 L 1297,375 L 1309,378 L 1311,378 L 1313,379 L 1318,380 L 1332,387 L 1348,397 L 1355,400 L 1360,401 L 1361,404 L 1363,407 L 1382,424 L 1387,427 L 1399,434 L 1419,444 L 1439,455 L 1454,464 L 1465,473 L 1469,475 L 1475,477 L 1485,476 L 1486,475 L 1496,476 L 1502,477 L 1506,478 L 1521,482 L 1524,483 L 1529,483 L 1537,485 L 1538,485 L 1554,492 L 1557,493 L 1560,493 L 1570,495 L 1579,498 L 1586,501 L 1589,502 L 1587,505 L 1587,506 L 1585,512 L 1585,520 L 1586,524 L 1592,532 L 1594,538 L 1593,543 L 1590,555 L 1590,558 L 1592,561 L 1593,562 L 1595,563 L 1598,560 L 1601,558 L 1605,556 L 1621,553 L 1625,553 L 1627,557 L 1632,575 L 1636,584 L 1645,595 L 1659,605 L 1663,610 L 1663,615 L 1662,621 L 1661,623 L 1659,627 L 1654,631 L 1649,633 L 1651,635 L 1654,641 L 1657,641 L 1659,640 L 1661,642 L 1662,642 L 1666,643 L 1667,644 L 1673,652 L 1676,666 L 1678,668 L 1682,670 L 1686,671 L 1690,670 L 1692,673 L 1691,673 L 1693,677 L 1695,685 L 1695,689 L 1695,693 L 1692,704 L 1692,707 L 1690,714 L 1688,723 L 1688,726 L 1688,733 L 1688,734 L 1689,739 L 1689,741 L 1688,741 L 1687,741 L 1686,741 L 1685,741 L 1684,741 L 1683,741 L 1682,740 L 1681,741 L 1680,741 L 1678,741 L 1676,740 L 1675,740 L 1673,740 L 1672,740 L 1671,740 L 1669,740 L 1667,741 L 1666,741 L 1665,741 L 1663,741 L 1662,742 L 1660,742 L 1658,741 L 1657,741 L 1656,742 L 1655,741 L 1654,741 L 1653,741 L 1652,741 L 1651,741 L 1650,740 L 1649,740 L 1648,741 L 1647,741 L 1646,741 L 1645,741 L 1644,740 L 1642,738 L 1641,738 L 1639,737 L 1638,737 L 1636,737 L 1636,736 L 1634,735 L 1633,734 L 1631,734 L 1630,733 L 1628,732 L 1627,732 L 1626,731 L 1625,731 L 1624,731 L 1623,730 L 1623,729 L 1621,729 L 1620,729 L 1618,728 L 1616,727 L 1614,726 L 1613,727 L 1612,726 L 1611,725 L 1610,725 L 1609,725 L 1608,725 L 1607,724 L 1606,724 L 1605,723 L 1604,724 L 1603,724 L 1602,723 L 1602,722 L 1601,721 L 1600,721 L 1600,722 L 1600,723 L 1601,723 L 1601,724 L 1601,725 L 1600,725 L 1599,725 L 1597,724 L 1596,724 L 1596,723 L 1595,723 L 1594,722 L 1593,721 L 1592,721 L 1591,721 L 1590,720 L 1589,721 L 1589,722 L 1589,723 L 1588,724 L 1588,725 L 1587,725 L 1586,726 L 1585,727 L 1585,728 L 1584,728 L 1583,728 L 1583,729 L 1583,730 L 1583,731 L 1583,732 L 1585,734 L 1585,735 L 1582,733 L 1582,734 L 1581,734 L 1580,734 L 1579,733 L 1578,733 L 1577,734 L 1576,734 L 1575,733 L 1575,734 L 1574,734 L 1574,735 L 1573,735 L 1572,734 L 1571,734 L 1570,733 L 1570,734 L 1569,734 L 1568,734 L 1568,733 L 1567,733 L 1566,733 L 1565,733 L 1564,733 L 1563,732 L 1562,731 L 1561,732 L 1560,732 L 1559,732 L 1558,731 L 1557,730 L 1555,730 L 1553,729 L 1552,729 L 1551,728 L 1550,727 L 1549,727 L 1547,726 L 1546,725 L 1545,724 L 1544,724 L 1542,723 L 1541,723 L 1540,723 L 1539,723 L 1538,723 L 1537,722 L 1536,722 L 1535,722 L 1534,722 L 1533,722 L 1532,721 L 1531,720 L 1529,720 L 1530,721 L 1529,721 L 1528,721 L 1527,721 L 1527,722 L 1526,721 L 1525,721 L 1524,720 L 1523,720 L 1522,721 L 1521,721 L 1520,721 L 1519,722 L 1518,722 L 1517,722 L 1516,722 L 1515,722 L 1514,722 L 1513,722 L 1511,722 L 1510,723 L 1509,724 L 1508,724 L 1508,725 L 1507,724 L 1506,725 L 1505,725 L 1504,726 L 1503,726 L 1502,726 L 1502,725 L 1501,726 L 1500,726 L 1498,725 L 1498,726 L 1497,726 L 1496,727 L 1495,727 L 1494,727 L 1493,727 L 1493,728 L 1492,728 L 1491,729 L 1490,729 L 1490,730 L 1489,730 L 1488,730 L 1487,730 L 1486,730 L 1485,730 L 1484,729 L 1483,729 L 1482,729 L 1482,728 L 1482,727 L 1481,726 L 1481,725 L 1480,725 L 1480,724 L 1479,724 L 1478,724 L 1477,725 L 1476,725 L 1475,725 L 1474,725 L 1473,725 L 1472,725 L 1471,726 L 1470,726 L 1469,726 L 1468,726 L 1467,726 L 1466,726 L 1465,726 L 1464,725 L 1463,725 L 1462,725 L 1461,724 L 1460,724 L 1459,723 L 1458,723 L 1457,723 L 1456,723 L 1455,724 L 1453,725 L 1451,726 L 1449,726 L 1448,726 L 1447,726 L 1446,727 L 1445,728 L 1444,728 L 1443,728 L 1443,729 L 1442,729 L 1441,729 L 1440,729 L 1439,729 L 1439,730 L 1438,731 L 1437,731 L 1436,731 L 1435,732 L 1435,731 L 1434,731 L 1433,731 L 1432,732 L 1431,732 L 1431,733 L 1430,734 L 1429,733 L 1428,734 L 1427,733 L 1427,732 L 1427,731 L 1426,730 L 1425,730 L 1425,729 L 1424,729 L 1424,728 L 1423,728 L 1422,728 L 1422,727 L 1421,728 L 1420,728 L 1419,728 L 1418,728 L 1417,728 L 1416,728 L 1415,728 L 1414,729 L 1413,729 L 1412,729 L 1411,729 L 1410,729 L 1409,729 L 1408,729 L 1407,728 L 1406,728 L 1406,727 L 1405,727 L 1405,726 L 1404,726 L 1403,726 L 1402,726 L 1401,726 L 1401,725 L 1400,725 L 1399,725 L 1398,724 L 1397,724 L 1396,725 L 1395,725 L 1395,724 L 1394,724 L 1393,724 L 1392,724 L 1391,724 L 1390,724 L 1388,723 L 1388,722 L 1388,721 L 1387,720 L 1386,720 L 1385,720 L 1384,721 L 1382,720 L 1381,720 L 1380,720 L 1379,720 L 1378,721 L 1376,721 L 1372,722 L 1368,724 L 1366,724 L 1362,725 L 1361,725 L 1359,724 L 1356,721 L 1353,720 L 1351,720 L 1349,720 L 1345,720 L 1342,719 L 1340,718 L 1340,717 L 1339,716 L 1337,715 L 1334,715 L 1331,713 L 1328,714 L 1327,713 L 1322,714 L 1317,713 L 1314,714 L 1310,715 L 1309,716 L 1308,717 L 1305,717 L 1303,718 L 1301,718 L 1298,717 L 1295,718 L 1293,718 L 1290,719 L 1285,718 L 1284,719 L 1283,720 L 1282,721 L 1279,722 L 1279,723 L 1277,724 L 1275,724 L 1273,725 L 1270,726 L 1269,725 L 1268,725 L 1267,724 L 1267,722 L 1266,721 L 1264,721 L 1262,723 L 1261,723 L 1257,723 L 1256,722 L 1253,722 L 1249,721 L 1248,719 L 1248,718 L 1245,716 L 1245,715 L 1248,714 L 1247,712 L 1248,711 L 1249,711 L 1249,710 L 1247,708 L 1246,707 L 1245,707 L 1245,708 L 1244,708 L 1243,708 L 1242,709 L 1241,709 L 1240,707 L 1239,706 L 1238,706 L 1237,705 L 1235,703 L 1234,703 L 1234,702 L 1232,700 L 1229,697 L 1228,696 L 1226,695 L 1225,695 L 1225,696 L 1223,695 L 1221,695 L 1219,696 L 1218,696 L 1217,695 L 1215,694 L 1212,696 L 1210,695 L 1209,696 L 1207,698 L 1207,699 L 1206,699 L 1206,701 L 1205,701 L 1203,705 L 1203,706 L 1204,706 L 1204,707 L 1204,708 L 1204,710 L 1202,710 L 1201,709 L 1200,709 L 1199,711 L 1198,711 L 1197,711 L 1197,710 L 1195,710 L 1194,709 L 1194,707 L 1194,706 L 1193,705 L 1189,704 L 1187,705 L 1187,707 L 1187,708 L 1187,709 L 1185,710 L 1184,711 L 1183,712 L 1178,713 L 1177,712 L 1174,712 L 1173,712 L 1172,713 L 1171,712 L 1171,711 L 1171,709 L 1172,708 L 1173,709 L 1174,708 L 1177,708 L 1178,706 L 1178,702 L 1177,698 L 1177,697 L 1177,696 L 1176,693 L 1174,689 L 1173,687 L 1172,685 L 1171,685 L 1170,683 L 1170,681 L 1168,679 L 1166,676 L 1165,676 L 1165,675 L 1164,675 L 1164,674 L 1163,674 L 1163,673 L 1163,672 L 1163,671 L 1162,670 L 1162,668 L 1161,667 L 1160,666 L 1160,665 L 1159,665 L 1158,664 L 1157,663 L 1157,662 L 1157,661 L 1157,660 L 1157,658 L 1157,657 L 1156,656 L 1156,655 L 1155,654 L 1154,653 L 1153,653 L 1152,653 L 1151,652 L 1150,652 L 1149,652 L 1148,652 L 1148,653 L 1147,653 L 1147,654 L 1146,655 L 1145,655 L 1144,655 L 1144,656 L 1143,656 L 1143,657 L 1142,657 L 1141,658 L 1140,657 L 1140,656 L 1140,655 L 1139,654 L 1139,653 L 1138,652 L 1138,650 L 1137,649 L 1136,648 L 1136,647 L 1135,646 L 1135,645 L 1134,643 L 1134,642 L 1134,641 L 1133,640 L 1133,639 L 1132,638 L 1131,637 L 1131,636 L 1130,635 L 1130,634 L 1130,633 L 1129,632 L 1129,631 L 1128,630 L 1127,629 L 1127,628 L 1126,627 L 1126,626 L 1125,624 L 1124,623 L 1123,622 L 1121,620 L 1120,618 L 1117,615 L 1115,614 L 1115,613 L 1113,612 L 1112,611 L 1111,611 L 1110,610 L 1108,610 L 1107,610 L 1106,609 L 1104,609 L 1103,609 L 1102,608 L 1102,607 L 1101,606 L 1100,605 L 1100,604 L 1099,603 L 1099,602 L 1098,601 L 1098,599 L 1097,598 L 1097,597 L 1097,596 L 1096,595 L 1096,594 L 1095,593 L 1095,592 L 1094,591 L 1094,590 L 1094,589 L 1093,588 L 1092,586 L 1091,586 L 1091,585 L 1090,585 L 1090,584 L 1090,583 L 1089,582 L 1089,581 L 1088,580 L 1087,579 L 1087,578 L 1086,577 L 1086,576 L 1085,575 L 1085,574 L 1084,574 L 1084,573 L 1082,571 L 1082,570 L 1081,570 L 1080,570 L 1080,569 L 1079,569 L 1078,569 L 1077,569 L 1076,569 L 1075,569 L 1074,569 L 1073,569 L 1072,569 L 1071,568 L 1070,568 L 1070,567 L 1069,566 L 1069,565 L 1069,564 L 1068,564 L 1067,563 L 1067,562 L 1066,562 L 1065,560 L 1064,560 L 1064,559 L 1063,558 L 1062,558 L 1061,556 L 1060,556 L 1059,555 L 1059,554 L 1058,554 L 1057,553 L 1056,552 L 1056,551 L 1055,551 L 1053,550 L 1052,550 L 1051,550 L 1050,550 L 1049,549 L 1048,549 L 1048,548 L 1047,547 L 1046,547 L 1045,546 L 1044,546 L 1043,545 L 1042,545 L 1041,544 L 1040,544 L 1039,544 L 1038,544 L 1037,544 L 1036,544 L 1035,544 L 1034,544 L 1033,544 L 1032,544 L 1032,545 L 1031,544 L 1031,545 L 1030,546 L 1029,546 L 1028,547 L 1027,547 L 1026,547 L 1025,547 L 1024,546 L 1023,546 L 1023,547 L 1022,547 L 1021,546 L 1020,545 L 1019,545 L 1018,544 L 1017,544 L 1016,544 L 1015,544 L 1014,544 L 1014,543 L 1013,543 L 1013,542 L 1012,542 L 1011,541 L 1010,541 L 1009,540 L 1008,539 L 1007,538 L 1007,537 L 1006,537 L 1005,536 L 1004,536 L 1003,536 L 1002,535 L 1001,535 L 1000,535 L 999,535 L 998,534 L 997,533 L 996,533 L 996,532 L 994,531 L 993,531 L 992,530 L 991,530 L 990,530 L 989,529 L 989,530 L 988,530 L 986,529 L 985,529 L 983,530 L 982,530 L 981,530 L 979,530 L 977,530 L 976,530 L 976,529 L 975,529 L 974,528 L 973,527 L 972,527 L 971,527 L 970,527 L 969,527 L 968,527 L 967,527 L 966,526 L 965,525 L 964,525 L 964,524 L 963,524 L 962,524 L 960,524 L 959,524 L 958,523 L 956,522 L 955,521 L 954,521 L 952,520 L 951,520 L 950,519 L 949,519 L 947,519 L 945,519 L 944,519 L 943,519 L 941,518 L 940,518 L 938,518 L 937,517 L 935,517 L 934,516 L 933,516 L 931,516 L 930,515 L 929,515 L 927,514 L 926,514 L 925,514 L 923,514 L 922,514 L 921,513 L 923,511 L 926,509 L 931,505 L 933,503 L 935,497 L 937,493 L 938,490 L 939,488 L 942,487 L 942,481 L 945,475 L 947,471 L 944,469 L 940,465 L 940,462 L 944,453 L 951,433 L 953,421 L 957,407 L 958,401 L 958,397 L 960,393 L 962,390 L 964,387 L 966,382 L 960,374 L 959,372 L 957,371 L 954,369 L 950,368 L 938,365 L 928,364 L 920,362 L 913,359 L 906,355 L 901,350 L 897,345 L 893,332 L 889,324 L 893,322 L 896,320 L 897,320 L 900,317 L 903,311 L 903,305 L 900,297 L 901,291 L 902,288 L 903,287 L 907,286 L 911,283 L 918,278 L 923,271 L 931,267 L 932,266 L 936,259 L 941,248 L 941,247 L 946,243 L 950,239 L 962,230 L 966,225 L 973,215 L 973,214 L 978,202 L 979,196 L 977,189 L 975,184 L 969,176 L 966,173 L 962,169 L 953,162 L 950,159 L 947,154 L 947,149 L 946,148 L 942,144 L 937,142 L 935,141 L 932,140 L 924,140 L 918,141 L 916,138 L 919,136 L 931,121 L 932,120 L 944,107 L 960,96 L 970,92 L 975,91 L 979,92 L 987,94 L 991,94 L 1025,98 L 1027,99 L 1047,99 L 1051,99 L 1055,95 L 1060,94 L 1066,93 L 1068,93 L 1071,91 L 1078,83 L 1081,81 L 1086,67 L 1091,62 L 1100,56 L 1103,54 L 1106,53 L 1117,48 L 1123,45 L 1128,41 L 1135,34 L 1140,30 L 1143,28 L 1146,26 L 1147,31 L 1150,42 L 1158,56 " />
</g>
</g>
</g>
<!-- QGIS extent for clipping, eg in Inkscape -->
<g id="qgisviewbox" inkscape:groupmode="layer" inkscape:label="qgisviewbox" stroke="rgb(255,0,0)" stroke-width="1" fill="none" >
<path d="M 0,1114 L 2010,1114 L 2010,0 L 0,0 L 0,1114 " />
</g></svg>