<?xml version="1.0" standalone="no"?>
<!DOCTYPE svg PUBLIC "-//W3C//DTD SVG 1.1//EN" "http://www.w3.org/Graphics/SVG/1.1/DTD/svg11.dtd">
<svg xmlns="http://www.w3.org/2000/svg" xmlns:inkscape="http://www.inkscape.org/namespaces/inkscape" xmlns:xlink="http://www.w3.org/1999/xlink" viewBox = "0 0 2013 1116" version = "1.1">
<!-- svg generated using QGIS www.qgis.org -->
<g id="union_lektiko_δημοσ_αγιασ_βαρβαρασ" inkscape:groupmode="layer" inkscape:label="union_lektiko_δημοσ_αγιασ_βαρβαρασ">
<g stroke="none" fill="rgb(107,170,221)" stroke-linejoin="round" stroke-width="0.26">
<g id="union_lektiko_δημοσ_αγιασ_βαρβαρασ_1" >
<path d="M 1513,981 L 1515,980 L 1515,989 L 1513,981 " />
<path d="M 1513,981 L 1468,980 L 1437,974 L 1403,979 L 1391,1006 L 1386,1033 L 1380,1074 L 1384,1087 L 1381,1085 L 1349,1062 L 1186,945 L 1035,837 L 1005,816 L 984,801 L 958,774 L 943,723 L 906,681 L 588,469 L 499,400 L 437,342 L 404,266 L 403,260 L 396,214 L 417,57 L 418,56 L 543,81 L 654,67 L 691,58 L 711,60 L 742,64 L 787,57 L 824,52 L 869,73 L 873,75 L 1005,190 L 1083,224 L 1102,233 L 1110,236 L 1164,178 L 1178,164 L 1187,158 L 1217,140 L 1248,143 L 1281,145 L 1333,169 L 1350,177 L 1359,177 L 1366,177 L 1370,177 L 1401,137 L 1485,26 L 1519,73 L 1545,92 L 1583,135 L 1614,174 L 1584,214 L 1554,266 L 1511,339 L 1466,448 L 1464,458 L 1462,469 L 1457,505 L 1472,774 L 1474,806 L 1513,978 L 1513,981 " />
</g>
</g>
</g>
<!-- QGIS extent for clipping, eg in Inkscape -->
<g id="qgisviewbox" inkscape:groupmode="layer" inkscape:label="qgisviewbox" stroke="rgb(255,0,0)" stroke-width="1" fill="none" >
<path d="M 0,1114 L 2011,1114 L 2011,0 L 0,0 L 0,1114 " />
</g></svg>