<?xml version="1.0" standalone="no"?>
<!DOCTYPE svg PUBLIC "-//W3C//DTD SVG 1.1//EN" "http://www.w3.org/Graphics/SVG/1.1/DTD/svg11.dtd">
<svg xmlns="http://www.w3.org/2000/svg" xmlns:inkscape="http://www.inkscape.org/namespaces/inkscape" xmlns:xlink="http://www.w3.org/1999/xlink" viewBox = "0 0 2013 1116" version = "1.1">
<!-- svg generated using QGIS www.qgis.org -->
<g id="union_lektiko_δημοσ_αλοννησου" inkscape:groupmode="layer" inkscape:label="union_lektiko_δημοσ_αλοννησου">
<g stroke="none" fill="rgb(249,36,29)" stroke-linejoin="round" stroke-width="0.26">
<g id="union_lektiko_δημοσ_αλοννησου_1" >
<path d="M 995,1077 L 995,1078 L 994,1079 L 994,1080 L 994,1081 L 994,1082 L 993,1082 L 993,1083 L 992,1083 L 991,1084 L 990,1085 L 990,1086 L 990,1087 L 989,1087 L 989,1086 L 989,1085 L 988,1084 L 988,1083 L 988,1082 L 987,1082 L 987,1081 L 988,1080 L 989,1079 L 990,1079 L 990,1078 L 990,1077 L 991,1076 L 991,1075 L 992,1075 L 993,1075 L 994,1075 L 994,1076 L 994,1077 L 995,1077 " />
<path d="M 1025,1057 L 1025,1058 L 1024,1058 L 1023,1058 L 1022,1058 L 1022,1057 L 1021,1057 L 1020,1057 L 1019,1057 L 1019,1056 L 1019,1055 L 1020,1055 L 1020,1054 L 1021,1054 L 1022,1054 L 1023,1053 L 1023,1052 L 1024,1052 L 1024,1051 L 1024,1050 L 1024,1049 L 1024,1048 L 1024,1047 L 1023,1046 L 1024,1045 L 1024,1044 L 1025,1043 L 1026,1042 L 1026,1041 L 1027,1041 L 1028,1041 L 1028,1042 L 1028,1043 L 1028,1044 L 1028,1045 L 1029,1045 L 1030,1046 L 1030,1047 L 1030,1048 L 1030,1049 L 1030,1050 L 1029,1050 L 1028,1050 L 1028,1051 L 1028,1052 L 1028,1053 L 1028,1054 L 1028,1055 L 1027,1055 L 1026,1055 L 1026,1056 L 1025,1056 L 1025,1057 " />
<path d="M 1028,1039 L 1028,1040 L 1028,1039 L 1027,1039 L 1027,1038 L 1027,1037 L 1028,1037 L 1028,1036 L 1029,1036 L 1029,1037 L 1029,1038 L 1028,1039 " />
<path d="M 797,1007 L 797,1008 L 796,1009 L 795,1009 L 795,1008 L 795,1007 L 796,1007 L 796,1006 L 796,1005 L 797,1005 L 797,1004 L 798,1004 L 798,1005 L 798,1006 L 797,1006 L 797,1007 " />
<path d="M 1054,995 L 1055,995 L 1056,995 L 1056,994 L 1057,994 L 1058,994 L 1059,994 L 1059,995 L 1060,996 L 1060,997 L 1060,998 L 1059,998 L 1059,999 L 1059,1000 L 1058,1000 L 1058,1001 L 1057,1001 L 1056,1001 L 1056,1000 L 1055,1000 L 1055,999 L 1054,999 L 1054,998 L 1053,998 L 1052,998 L 1052,999 L 1052,1000 L 1051,1000 L 1051,1001 L 1051,1002 L 1051,1003 L 1050,1003 L 1050,1004 L 1050,1005 L 1049,1005 L 1048,1006 L 1047,1006 L 1046,1006 L 1045,1006 L 1044,1006 L 1044,1005 L 1044,1004 L 1045,1003 L 1045,1002 L 1045,1001 L 1044,1001 L 1044,1000 L 1044,999 L 1045,999 L 1045,998 L 1046,998 L 1047,998 L 1047,997 L 1048,997 L 1048,996 L 1049,996 L 1050,995 L 1050,994 L 1050,993 L 1049,992 L 1050,992 L 1050,993 L 1051,994 L 1052,994 L 1053,994 L 1054,994 L 1054,995 " />
<path d="M 806,992 L 805,992 L 805,991 L 805,990 L 806,990 L 806,991 L 806,992 " />
<path d="M 1034,975 L 1033,975 L 1033,974 L 1033,973 L 1034,973 L 1034,972 L 1034,973 L 1035,973 L 1036,973 L 1036,974 L 1035,975 L 1034,975 " />
<path d="M 1063,928 L 1063,929 L 1063,930 L 1063,931 L 1062,932 L 1061,933 L 1060,933 L 1060,934 L 1059,934 L 1059,935 L 1058,935 L 1057,935 L 1056,935 L 1055,935 L 1054,935 L 1053,935 L 1053,934 L 1052,933 L 1052,932 L 1053,932 L 1054,932 L 1055,932 L 1055,931 L 1056,931 L 1056,930 L 1057,930 L 1058,929 L 1059,929 L 1060,929 L 1061,928 L 1062,928 L 1063,928 " />
<path d="M 1088,928 L 1088,929 L 1089,929 L 1089,930 L 1090,931 L 1090,932 L 1091,933 L 1091,934 L 1092,935 L 1092,936 L 1092,937 L 1092,938 L 1091,939 L 1091,940 L 1090,940 L 1090,941 L 1089,941 L 1088,942 L 1087,942 L 1086,943 L 1086,944 L 1086,946 L 1087,946 L 1088,946 L 1089,947 L 1090,948 L 1090,949 L 1090,950 L 1090,951 L 1090,952 L 1091,953 L 1091,954 L 1092,954 L 1092,955 L 1093,956 L 1093,957 L 1092,958 L 1092,959 L 1092,960 L 1093,961 L 1093,962 L 1092,963 L 1091,963 L 1090,963 L 1090,964 L 1091,965 L 1091,966 L 1091,967 L 1092,967 L 1091,968 L 1091,969 L 1091,970 L 1091,971 L 1091,972 L 1090,972 L 1089,972 L 1088,972 L 1086,973 L 1085,974 L 1084,975 L 1085,975 L 1086,975 L 1087,975 L 1087,976 L 1087,977 L 1086,977 L 1086,978 L 1086,979 L 1087,979 L 1087,980 L 1088,980 L 1088,981 L 1088,982 L 1087,982 L 1087,983 L 1086,984 L 1086,985 L 1085,986 L 1084,986 L 1083,987 L 1083,988 L 1084,990 L 1084,991 L 1084,992 L 1085,991 L 1086,991 L 1087,991 L 1087,992 L 1087,993 L 1087,994 L 1087,995 L 1088,995 L 1088,996 L 1089,996 L 1090,996 L 1091,996 L 1092,995 L 1092,994 L 1093,994 L 1093,993 L 1094,993 L 1094,992 L 1095,992 L 1096,992 L 1097,993 L 1096,993 L 1096,994 L 1096,995 L 1097,995 L 1097,996 L 1098,995 L 1098,996 L 1099,996 L 1100,997 L 1101,997 L 1101,996 L 1102,996 L 1103,996 L 1104,996 L 1104,997 L 1104,998 L 1104,999 L 1103,999 L 1103,1000 L 1102,1000 L 1101,1000 L 1100,1000 L 1099,1001 L 1099,1002 L 1098,1003 L 1098,1004 L 1097,1004 L 1096,1004 L 1095,1005 L 1094,1005 L 1094,1006 L 1095,1006 L 1096,1007 L 1096,1008 L 1096,1009 L 1095,1010 L 1096,1010 L 1096,1011 L 1097,1010 L 1098,1010 L 1099,1010 L 1100,1010 L 1100,1011 L 1101,1010 L 1102,1010 L 1103,1009 L 1104,1009 L 1105,1009 L 1105,1010 L 1105,1011 L 1105,1012 L 1105,1013 L 1104,1013 L 1104,1014 L 1103,1014 L 1103,1015 L 1103,1016 L 1102,1017 L 1102,1018 L 1102,1019 L 1101,1019 L 1100,1020 L 1099,1020 L 1099,1021 L 1099,1022 L 1099,1023 L 1098,1023 L 1098,1024 L 1098,1025 L 1097,1025 L 1097,1026 L 1096,1026 L 1096,1025 L 1095,1025 L 1095,1024 L 1094,1024 L 1093,1024 L 1093,1025 L 1092,1026 L 1091,1026 L 1091,1025 L 1090,1025 L 1090,1024 L 1090,1023 L 1089,1022 L 1088,1022 L 1088,1023 L 1087,1024 L 1087,1025 L 1086,1026 L 1086,1027 L 1086,1028 L 1086,1029 L 1085,1029 L 1085,1030 L 1084,1030 L 1083,1030 L 1082,1029 L 1081,1029 L 1080,1029 L 1079,1028 L 1079,1027 L 1079,1026 L 1079,1025 L 1079,1024 L 1079,1023 L 1080,1023 L 1080,1022 L 1080,1021 L 1080,1020 L 1080,1021 L 1079,1021 L 1078,1022 L 1077,1023 L 1076,1024 L 1075,1025 L 1075,1026 L 1074,1026 L 1074,1027 L 1073,1027 L 1073,1028 L 1072,1029 L 1071,1029 L 1071,1030 L 1070,1030 L 1069,1030 L 1068,1029 L 1068,1028 L 1067,1029 L 1067,1030 L 1066,1030 L 1066,1031 L 1066,1032 L 1065,1033 L 1065,1034 L 1065,1035 L 1065,1036 L 1064,1037 L 1063,1037 L 1063,1036 L 1063,1035 L 1062,1034 L 1061,1034 L 1060,1034 L 1060,1035 L 1059,1035 L 1058,1036 L 1057,1037 L 1056,1037 L 1056,1036 L 1055,1036 L 1055,1035 L 1056,1035 L 1057,1034 L 1057,1033 L 1058,1033 L 1058,1032 L 1059,1032 L 1059,1031 L 1060,1031 L 1060,1030 L 1060,1029 L 1060,1028 L 1060,1027 L 1061,1026 L 1062,1025 L 1063,1025 L 1063,1024 L 1064,1024 L 1064,1023 L 1064,1022 L 1065,1021 L 1066,1019 L 1067,1018 L 1068,1018 L 1069,1017 L 1070,1017 L 1070,1016 L 1071,1015 L 1072,1014 L 1073,1013 L 1074,1013 L 1075,1012 L 1076,1012 L 1077,1011 L 1078,1011 L 1079,1011 L 1080,1011 L 1081,1011 L 1081,1012 L 1082,1012 L 1083,1012 L 1083,1011 L 1082,1011 L 1082,1010 L 1082,1009 L 1082,1008 L 1082,1007 L 1082,1006 L 1082,1005 L 1082,1004 L 1082,1005 L 1081,1005 L 1081,1006 L 1080,1006 L 1079,1005 L 1078,1004 L 1078,1003 L 1077,1002 L 1076,1002 L 1076,1003 L 1075,1003 L 1075,1002 L 1075,1001 L 1075,1000 L 1074,999 L 1074,998 L 1073,998 L 1073,997 L 1073,996 L 1072,996 L 1072,995 L 1072,994 L 1071,995 L 1070,995 L 1069,995 L 1068,995 L 1068,994 L 1067,994 L 1067,993 L 1066,993 L 1065,992 L 1064,992 L 1063,991 L 1063,990 L 1064,989 L 1064,988 L 1064,987 L 1065,987 L 1066,987 L 1067,986 L 1066,986 L 1066,985 L 1065,985 L 1064,985 L 1064,984 L 1064,983 L 1065,982 L 1066,981 L 1066,980 L 1065,980 L 1065,979 L 1064,979 L 1064,978 L 1063,977 L 1063,976 L 1063,975 L 1064,975 L 1064,974 L 1065,973 L 1066,972 L 1066,971 L 1066,970 L 1066,969 L 1067,969 L 1068,968 L 1069,967 L 1069,966 L 1068,966 L 1067,966 L 1066,966 L 1065,966 L 1064,966 L 1064,967 L 1063,967 L 1062,966 L 1062,965 L 1062,964 L 1061,963 L 1060,962 L 1059,962 L 1058,961 L 1058,960 L 1058,959 L 1058,958 L 1057,957 L 1057,955 L 1058,954 L 1058,953 L 1059,952 L 1059,950 L 1060,949 L 1061,948 L 1062,947 L 1061,946 L 1062,945 L 1063,945 L 1063,944 L 1064,943 L 1064,942 L 1065,942 L 1066,941 L 1067,940 L 1067,939 L 1068,939 L 1069,938 L 1069,937 L 1070,936 L 1071,935 L 1072,934 L 1073,934 L 1074,934 L 1074,935 L 1075,936 L 1076,936 L 1077,936 L 1078,935 L 1078,934 L 1078,933 L 1078,932 L 1078,931 L 1078,930 L 1078,929 L 1079,929 L 1080,929 L 1081,929 L 1082,928 L 1083,928 L 1083,927 L 1084,926 L 1085,926 L 1085,925 L 1086,925 L 1087,925 L 1087,926 L 1088,927 L 1088,928 " />
<path d="M 846,927 L 846,926 L 846,925 L 847,925 L 847,924 L 847,925 L 847,926 L 847,927 L 846,927 " />
<path d="M 1052,923 L 1053,923 L 1054,924 L 1054,925 L 1054,926 L 1053,926 L 1053,927 L 1052,927 L 1051,927 L 1051,928 L 1051,929 L 1050,929 L 1050,928 L 1050,927 L 1050,926 L 1049,926 L 1049,925 L 1049,924 L 1049,923 L 1050,923 L 1050,922 L 1050,923 L 1051,923 L 1052,923 " />
<path d="M 1044,921 L 1044,922 L 1043,922 L 1043,921 L 1043,920 L 1044,920 L 1044,921 " />
<path d="M 852,892 L 853,892 L 853,893 L 854,893 L 854,894 L 855,894 L 855,895 L 854,895 L 854,896 L 853,896 L 852,896 L 852,897 L 851,898 L 851,899 L 851,900 L 852,900 L 852,901 L 851,901 L 852,902 L 852,903 L 852,904 L 852,905 L 852,906 L 852,907 L 852,908 L 853,908 L 853,909 L 852,910 L 852,911 L 852,912 L 852,913 L 852,914 L 852,915 L 852,916 L 852,917 L 852,918 L 852,919 L 851,920 L 850,921 L 850,922 L 849,922 L 849,923 L 849,924 L 848,924 L 847,924 L 847,923 L 846,922 L 847,922 L 847,921 L 847,920 L 846,920 L 846,921 L 846,922 L 845,922 L 844,923 L 843,923 L 843,924 L 842,924 L 841,924 L 840,924 L 840,923 L 841,922 L 840,921 L 840,920 L 839,920 L 839,919 L 838,919 L 837,919 L 837,918 L 838,918 L 838,917 L 839,917 L 839,916 L 840,915 L 839,915 L 839,914 L 838,914 L 837,914 L 837,913 L 836,913 L 837,912 L 836,911 L 836,910 L 836,909 L 835,909 L 835,908 L 835,907 L 835,906 L 836,906 L 837,906 L 838,906 L 839,906 L 840,906 L 840,905 L 840,904 L 840,903 L 841,903 L 841,904 L 842,904 L 843,904 L 844,904 L 844,903 L 844,902 L 843,901 L 843,900 L 843,899 L 843,898 L 843,897 L 844,897 L 845,897 L 845,896 L 846,896 L 846,895 L 846,894 L 845,894 L 845,893 L 845,892 L 844,892 L 844,891 L 844,890 L 845,890 L 845,889 L 845,888 L 846,888 L 846,887 L 846,886 L 845,885 L 845,884 L 845,883 L 845,882 L 846,882 L 847,882 L 847,883 L 848,883 L 848,884 L 849,884 L 850,885 L 851,886 L 851,887 L 852,887 L 852,888 L 852,889 L 852,890 L 852,891 L 852,892 " />
<path d="M 867,872 L 867,873 L 867,874 L 866,875 L 866,876 L 866,877 L 866,878 L 866,879 L 866,880 L 865,881 L 865,882 L 864,883 L 864,884 L 863,884 L 863,885 L 862,885 L 861,885 L 861,886 L 860,887 L 860,888 L 859,888 L 858,888 L 857,887 L 857,886 L 857,885 L 857,884 L 857,883 L 858,883 L 859,883 L 859,882 L 859,881 L 858,881 L 857,880 L 856,880 L 855,880 L 855,879 L 854,879 L 854,878 L 854,877 L 854,876 L 854,875 L 854,874 L 855,874 L 855,873 L 856,873 L 856,872 L 857,872 L 857,871 L 858,871 L 859,871 L 860,871 L 860,872 L 861,872 L 862,872 L 863,872 L 863,871 L 863,870 L 864,870 L 864,869 L 864,868 L 864,867 L 865,866 L 866,866 L 866,867 L 867,868 L 867,869 L 867,870 L 867,871 L 867,872 " />
<path d="M 867,865 L 867,864 L 867,863 L 868,863 L 868,864 L 868,865 L 867,865 " />
<path d="M 629,864 L 628,864 L 627,864 L 627,863 L 628,863 L 628,864 L 629,864 " />
<path d="M 654,849 L 653,849 L 653,848 L 654,848 L 655,848 L 654,848 L 654,849 " />
<path d="M 656,850 L 655,850 L 655,849 L 655,848 L 655,847 L 656,847 L 656,848 L 656,849 L 656,850 " />
<path d="M 556,839 L 555,839 L 555,840 L 554,841 L 553,842 L 553,843 L 552,843 L 552,844 L 552,845 L 551,845 L 550,845 L 550,846 L 550,847 L 549,847 L 549,846 L 549,845 L 548,845 L 548,844 L 548,843 L 548,842 L 549,842 L 549,841 L 549,840 L 550,840 L 551,839 L 552,839 L 553,839 L 554,839 L 554,838 L 555,838 L 556,838 L 556,839 " />
<path d="M 717,797 L 718,798 L 717,799 L 716,799 L 715,800 L 714,799 L 714,798 L 715,798 L 715,797 L 716,797 L 717,797 " />
<path d="M 629,786 L 628,786 L 629,786 L 629,785 L 630,786 L 629,786 " />
<path d="M 854,782 L 853,782 L 853,781 L 854,781 L 854,782 " />
<path d="M 851,775 L 850,774 L 851,774 L 851,773 L 851,774 L 851,775 " />
<path d="M 648,729 L 647,729 L 647,728 L 648,728 L 648,729 " />
<path d="M 647,710 L 647,709 L 648,709 L 648,710 L 647,710 " />
<path d="M 650,706 L 649,706 L 649,705 L 650,705 L 650,706 " />
<path d="M 642,704 L 643,705 L 644,705 L 645,705 L 645,706 L 645,707 L 646,706 L 647,706 L 647,707 L 648,707 L 647,707 L 647,708 L 646,708 L 646,709 L 646,710 L 646,711 L 645,711 L 644,711 L 644,712 L 643,712 L 642,711 L 642,710 L 641,709 L 641,708 L 640,708 L 640,707 L 639,707 L 639,706 L 638,706 L 639,706 L 639,705 L 640,705 L 641,705 L 641,704 L 642,704 " />
<path d="M 663,701 L 663,702 L 662,702 L 662,701 L 663,701 " />
<path d="M 880,629 L 881,629 L 881,630 L 882,630 L 883,630 L 883,631 L 884,631 L 884,632 L 884,633 L 883,633 L 883,634 L 882,634 L 882,635 L 882,636 L 883,636 L 883,637 L 884,637 L 884,638 L 884,639 L 885,640 L 885,641 L 885,642 L 885,643 L 886,643 L 886,644 L 886,645 L 886,646 L 886,647 L 886,648 L 886,649 L 887,650 L 887,651 L 888,651 L 889,651 L 890,651 L 890,650 L 891,650 L 892,651 L 893,651 L 894,651 L 895,651 L 895,652 L 894,652 L 894,653 L 893,653 L 892,654 L 891,654 L 890,654 L 889,655 L 888,655 L 887,655 L 886,655 L 885,655 L 885,656 L 884,656 L 883,656 L 883,657 L 884,658 L 884,659 L 883,659 L 883,658 L 882,658 L 881,658 L 880,658 L 879,659 L 880,659 L 879,659 L 878,659 L 878,658 L 877,657 L 876,656 L 876,655 L 875,655 L 875,654 L 874,654 L 874,653 L 873,652 L 873,651 L 873,650 L 874,650 L 874,649 L 873,648 L 873,647 L 873,646 L 873,647 L 874,646 L 875,645 L 875,644 L 875,643 L 876,642 L 877,642 L 877,641 L 878,641 L 879,640 L 879,639 L 879,638 L 879,637 L 878,637 L 878,636 L 877,636 L 877,635 L 877,634 L 878,634 L 878,633 L 879,633 L 878,632 L 878,631 L 878,630 L 878,629 L 879,629 L 880,629 " />
<path d="M 837,627 L 838,627 L 839,627 L 840,627 L 841,627 L 841,628 L 842,628 L 842,629 L 842,630 L 841,630 L 842,631 L 842,632 L 842,633 L 843,634 L 843,635 L 843,636 L 843,637 L 842,637 L 842,638 L 842,639 L 841,640 L 841,641 L 841,642 L 841,643 L 841,644 L 840,644 L 840,645 L 840,646 L 841,646 L 842,645 L 843,645 L 843,644 L 844,644 L 844,643 L 845,643 L 846,643 L 847,643 L 847,642 L 848,642 L 849,642 L 849,643 L 849,644 L 849,645 L 849,646 L 849,647 L 849,648 L 849,649 L 849,650 L 849,651 L 849,652 L 849,653 L 848,653 L 848,654 L 848,655 L 847,655 L 847,656 L 847,657 L 847,658 L 846,659 L 846,660 L 846,661 L 846,662 L 846,663 L 846,664 L 845,664 L 845,665 L 845,666 L 846,667 L 846,668 L 847,670 L 846,671 L 845,672 L 845,673 L 844,673 L 844,674 L 843,675 L 844,675 L 845,675 L 846,675 L 846,676 L 846,677 L 847,677 L 847,678 L 846,678 L 846,679 L 846,680 L 846,681 L 846,682 L 847,682 L 847,683 L 847,684 L 847,685 L 847,686 L 847,687 L 848,688 L 848,689 L 848,690 L 848,691 L 848,692 L 849,692 L 850,692 L 851,692 L 851,691 L 852,691 L 852,690 L 853,689 L 854,689 L 854,688 L 855,688 L 855,687 L 856,686 L 857,686 L 857,685 L 858,685 L 858,684 L 859,684 L 859,683 L 860,683 L 860,682 L 861,682 L 862,682 L 863,682 L 863,681 L 864,681 L 865,680 L 866,680 L 867,680 L 867,681 L 868,681 L 868,682 L 867,682 L 867,683 L 868,684 L 868,685 L 867,685 L 867,686 L 866,687 L 866,688 L 865,689 L 865,690 L 866,690 L 865,691 L 864,692 L 864,693 L 864,694 L 863,694 L 863,695 L 863,696 L 863,697 L 862,697 L 862,698 L 862,699 L 862,700 L 861,701 L 861,702 L 860,702 L 859,703 L 860,703 L 860,704 L 860,705 L 859,705 L 859,706 L 859,707 L 859,708 L 859,709 L 859,710 L 859,711 L 859,712 L 858,713 L 858,714 L 857,715 L 858,716 L 858,717 L 858,718 L 858,719 L 858,720 L 858,721 L 859,722 L 859,723 L 858,723 L 858,724 L 857,724 L 857,725 L 856,725 L 856,726 L 855,726 L 854,726 L 853,726 L 853,725 L 852,725 L 852,724 L 852,723 L 851,723 L 850,723 L 850,724 L 849,724 L 849,725 L 848,726 L 848,727 L 847,727 L 847,728 L 847,729 L 846,730 L 845,731 L 844,731 L 844,732 L 844,733 L 844,734 L 844,735 L 844,736 L 845,735 L 845,734 L 846,734 L 847,733 L 848,734 L 849,734 L 849,733 L 850,733 L 850,734 L 850,733 L 851,734 L 852,734 L 853,734 L 854,734 L 855,735 L 855,736 L 854,736 L 854,737 L 854,738 L 853,738 L 853,739 L 853,740 L 853,741 L 853,742 L 854,741 L 854,740 L 855,740 L 855,739 L 856,739 L 857,739 L 857,740 L 858,740 L 858,741 L 858,742 L 859,743 L 859,744 L 859,745 L 859,746 L 859,747 L 859,748 L 860,748 L 860,749 L 859,750 L 860,751 L 859,751 L 859,752 L 858,753 L 858,754 L 858,755 L 858,756 L 858,757 L 857,757 L 857,758 L 857,759 L 856,760 L 856,761 L 856,762 L 855,763 L 855,764 L 855,765 L 854,765 L 854,766 L 853,767 L 853,768 L 852,767 L 852,768 L 852,769 L 851,769 L 851,770 L 851,771 L 850,772 L 850,773 L 850,774 L 850,775 L 850,776 L 850,777 L 851,777 L 852,777 L 852,778 L 853,778 L 853,779 L 853,780 L 852,780 L 852,781 L 852,782 L 852,783 L 852,784 L 852,785 L 852,786 L 853,786 L 853,785 L 853,784 L 854,785 L 854,786 L 855,786 L 855,787 L 855,788 L 854,788 L 855,788 L 855,789 L 854,789 L 853,788 L 852,788 L 852,789 L 851,790 L 850,790 L 849,790 L 849,791 L 848,791 L 847,791 L 846,791 L 845,791 L 845,790 L 844,789 L 844,788 L 845,787 L 844,786 L 844,787 L 843,787 L 842,787 L 841,787 L 841,786 L 840,786 L 840,785 L 839,785 L 838,784 L 837,783 L 837,784 L 836,784 L 836,785 L 835,785 L 835,786 L 835,787 L 835,788 L 835,789 L 834,789 L 833,789 L 833,790 L 832,791 L 831,791 L 830,791 L 829,791 L 828,791 L 827,790 L 826,790 L 825,790 L 825,789 L 825,788 L 826,788 L 827,788 L 827,787 L 827,786 L 827,785 L 826,785 L 826,784 L 826,783 L 825,783 L 825,782 L 824,782 L 824,781 L 824,780 L 825,780 L 825,779 L 826,779 L 827,778 L 828,778 L 828,777 L 829,777 L 829,776 L 830,775 L 830,774 L 829,774 L 828,773 L 827,774 L 826,775 L 825,776 L 825,775 L 824,775 L 823,775 L 823,776 L 822,776 L 821,776 L 821,777 L 821,778 L 820,778 L 820,779 L 819,780 L 819,781 L 818,781 L 817,781 L 817,782 L 816,782 L 815,783 L 814,783 L 813,783 L 812,783 L 811,783 L 811,784 L 810,785 L 810,786 L 809,786 L 809,787 L 809,788 L 809,789 L 808,790 L 807,790 L 807,791 L 806,791 L 805,791 L 804,791 L 803,791 L 803,790 L 802,790 L 803,790 L 803,789 L 804,789 L 804,788 L 804,787 L 804,786 L 803,786 L 803,785 L 802,786 L 801,786 L 801,785 L 801,784 L 800,784 L 799,784 L 798,784 L 797,784 L 796,784 L 795,784 L 795,783 L 795,782 L 795,781 L 796,781 L 796,780 L 797,779 L 797,778 L 798,778 L 799,777 L 799,776 L 800,776 L 800,775 L 801,775 L 801,774 L 802,774 L 802,773 L 801,773 L 800,773 L 799,773 L 798,773 L 797,773 L 797,774 L 796,774 L 795,774 L 795,775 L 794,775 L 793,775 L 792,775 L 791,775 L 790,775 L 789,775 L 788,775 L 787,774 L 786,774 L 785,774 L 784,774 L 784,773 L 784,772 L 783,771 L 783,770 L 782,770 L 781,769 L 781,768 L 780,767 L 780,766 L 780,765 L 780,764 L 780,763 L 780,762 L 781,762 L 781,761 L 780,761 L 779,761 L 778,761 L 778,760 L 778,759 L 777,759 L 776,759 L 776,758 L 776,757 L 776,756 L 775,756 L 775,755 L 774,754 L 774,753 L 775,752 L 775,751 L 776,750 L 777,749 L 778,749 L 778,748 L 779,747 L 779,746 L 780,745 L 780,744 L 781,744 L 782,744 L 783,744 L 784,744 L 785,744 L 786,745 L 787,746 L 788,746 L 789,746 L 790,747 L 790,746 L 790,745 L 790,744 L 790,743 L 791,742 L 792,742 L 793,742 L 794,742 L 795,742 L 796,742 L 797,742 L 798,742 L 799,742 L 800,741 L 801,741 L 802,741 L 802,740 L 803,740 L 804,740 L 805,740 L 806,739 L 807,739 L 808,739 L 809,738 L 809,737 L 810,736 L 811,736 L 812,736 L 813,736 L 814,735 L 815,735 L 815,736 L 816,736 L 816,735 L 817,735 L 817,734 L 818,734 L 818,733 L 818,732 L 817,732 L 817,731 L 818,731 L 818,730 L 819,729 L 820,729 L 821,729 L 822,729 L 822,730 L 822,731 L 823,731 L 823,732 L 824,732 L 825,732 L 826,732 L 827,731 L 828,731 L 829,731 L 829,732 L 830,732 L 831,732 L 832,732 L 833,732 L 834,732 L 835,732 L 836,732 L 836,731 L 836,730 L 836,729 L 837,729 L 837,728 L 837,727 L 838,727 L 838,726 L 839,726 L 840,725 L 841,725 L 842,725 L 843,724 L 844,724 L 844,723 L 844,722 L 844,721 L 843,720 L 843,719 L 844,718 L 844,717 L 844,716 L 843,716 L 843,715 L 843,714 L 843,712 L 843,711 L 844,709 L 844,708 L 844,707 L 843,707 L 842,708 L 841,709 L 840,709 L 840,710 L 839,710 L 839,711 L 838,711 L 837,712 L 836,711 L 835,712 L 835,711 L 835,710 L 836,710 L 836,709 L 836,708 L 836,707 L 836,706 L 835,706 L 835,705 L 835,704 L 834,703 L 834,702 L 834,701 L 834,700 L 833,700 L 833,699 L 832,699 L 832,698 L 831,699 L 830,699 L 830,700 L 829,700 L 828,700 L 828,699 L 829,698 L 830,697 L 830,696 L 830,695 L 829,695 L 829,694 L 829,693 L 830,693 L 829,693 L 829,692 L 828,692 L 827,692 L 826,692 L 825,692 L 825,691 L 824,691 L 824,690 L 824,689 L 827,686 L 828,686 L 828,685 L 828,684 L 827,684 L 826,684 L 826,683 L 825,682 L 824,681 L 823,681 L 822,681 L 821,681 L 820,680 L 819,679 L 819,678 L 819,677 L 820,676 L 820,675 L 821,674 L 822,673 L 822,672 L 821,672 L 820,672 L 819,672 L 818,672 L 818,671 L 817,671 L 816,670 L 816,669 L 816,668 L 816,667 L 816,666 L 817,665 L 818,665 L 819,665 L 820,664 L 821,664 L 822,663 L 823,663 L 823,662 L 824,662 L 825,662 L 826,662 L 827,662 L 827,661 L 826,661 L 826,660 L 826,659 L 825,658 L 825,657 L 825,656 L 825,655 L 826,655 L 827,654 L 827,653 L 829,653 L 829,652 L 830,652 L 830,651 L 829,651 L 829,650 L 828,650 L 828,649 L 828,648 L 827,648 L 827,647 L 827,646 L 827,645 L 827,644 L 827,643 L 827,642 L 827,641 L 827,640 L 827,639 L 828,639 L 828,638 L 828,637 L 828,636 L 828,635 L 829,635 L 829,634 L 829,633 L 829,632 L 830,631 L 830,630 L 831,629 L 831,628 L 831,627 L 831,626 L 831,625 L 831,624 L 831,623 L 831,622 L 832,622 L 832,621 L 833,621 L 833,622 L 834,622 L 834,623 L 834,624 L 835,624 L 835,625 L 836,625 L 836,626 L 837,626 L 837,627 " />
<path d="M 854,554 L 854,553 L 855,553 L 855,554 L 854,554 " />
<path d="M 862,550 L 861,550 L 861,549 L 862,549 L 863,548 L 863,547 L 864,547 L 864,548 L 864,549 L 863,549 L 862,550 " />
<path d="M 802,507 L 802,508 L 801,509 L 800,510 L 800,511 L 799,511 L 800,512 L 800,513 L 800,514 L 801,515 L 802,515 L 803,515 L 804,514 L 805,513 L 806,513 L 807,513 L 807,514 L 807,515 L 806,516 L 806,517 L 805,518 L 804,519 L 804,520 L 804,521 L 805,522 L 804,522 L 804,523 L 805,523 L 806,523 L 806,524 L 806,525 L 805,525 L 805,526 L 806,526 L 807,526 L 807,527 L 808,527 L 809,527 L 809,528 L 809,529 L 809,530 L 809,531 L 808,531 L 808,532 L 807,532 L 807,533 L 806,533 L 805,533 L 806,533 L 806,534 L 806,535 L 805,536 L 804,536 L 804,537 L 803,537 L 803,538 L 802,539 L 802,540 L 801,540 L 800,541 L 799,541 L 798,542 L 797,542 L 797,543 L 796,543 L 796,544 L 795,544 L 794,544 L 794,545 L 794,546 L 793,547 L 793,548 L 792,549 L 791,550 L 790,550 L 789,550 L 788,550 L 787,550 L 786,550 L 785,550 L 784,551 L 783,551 L 783,552 L 784,553 L 785,553 L 786,553 L 787,553 L 789,553 L 790,553 L 791,553 L 792,553 L 793,553 L 794,553 L 794,552 L 795,551 L 796,551 L 797,552 L 797,551 L 798,551 L 799,551 L 800,551 L 800,550 L 799,550 L 798,550 L 798,549 L 797,549 L 798,549 L 798,548 L 798,547 L 799,547 L 800,547 L 800,546 L 801,546 L 802,546 L 804,546 L 804,545 L 805,544 L 806,544 L 807,543 L 808,543 L 809,543 L 810,544 L 810,545 L 809,546 L 809,547 L 808,547 L 808,548 L 807,548 L 807,549 L 808,549 L 809,549 L 809,550 L 809,551 L 810,551 L 811,551 L 811,552 L 812,552 L 812,551 L 813,551 L 813,550 L 813,549 L 814,548 L 814,547 L 815,546 L 816,546 L 816,547 L 816,548 L 816,549 L 816,550 L 816,551 L 816,552 L 817,552 L 817,551 L 818,550 L 819,550 L 819,549 L 820,549 L 820,550 L 821,550 L 821,551 L 821,552 L 822,552 L 822,553 L 823,553 L 824,554 L 824,555 L 825,555 L 825,554 L 824,553 L 824,552 L 824,551 L 825,551 L 825,550 L 826,550 L 827,551 L 828,551 L 829,551 L 829,550 L 830,549 L 831,549 L 832,549 L 832,550 L 832,549 L 833,549 L 834,549 L 835,549 L 836,550 L 837,550 L 836,551 L 836,552 L 837,552 L 838,552 L 839,552 L 839,551 L 840,551 L 840,552 L 841,553 L 842,554 L 842,555 L 842,556 L 843,556 L 843,557 L 844,557 L 844,558 L 843,558 L 842,558 L 842,559 L 841,559 L 841,560 L 841,561 L 841,562 L 841,563 L 842,563 L 842,562 L 842,561 L 843,561 L 844,560 L 845,560 L 846,560 L 847,559 L 848,559 L 849,559 L 849,558 L 850,558 L 851,558 L 851,559 L 852,559 L 852,560 L 852,561 L 852,562 L 852,563 L 853,563 L 853,564 L 853,565 L 852,565 L 851,566 L 850,566 L 851,567 L 851,568 L 850,568 L 850,569 L 849,569 L 849,570 L 848,571 L 848,572 L 847,572 L 847,573 L 847,574 L 846,575 L 846,576 L 845,576 L 845,577 L 846,577 L 847,577 L 847,576 L 848,577 L 847,578 L 847,579 L 847,580 L 846,580 L 846,581 L 846,582 L 846,583 L 845,584 L 844,584 L 844,585 L 844,586 L 843,587 L 842,588 L 842,589 L 841,590 L 840,590 L 839,590 L 838,590 L 837,590 L 837,591 L 836,591 L 835,592 L 835,591 L 834,591 L 834,592 L 835,592 L 835,593 L 834,594 L 834,595 L 834,596 L 834,597 L 834,598 L 834,599 L 834,600 L 834,601 L 835,601 L 835,602 L 834,602 L 833,603 L 832,603 L 831,603 L 830,603 L 829,603 L 829,604 L 828,604 L 828,605 L 828,606 L 827,606 L 827,607 L 827,608 L 826,608 L 825,608 L 824,609 L 824,610 L 823,610 L 823,611 L 823,612 L 823,613 L 822,613 L 822,614 L 822,615 L 822,616 L 821,616 L 820,617 L 819,618 L 819,619 L 818,619 L 817,620 L 817,621 L 816,621 L 816,622 L 815,623 L 815,624 L 814,624 L 814,625 L 813,626 L 812,626 L 812,627 L 812,628 L 811,628 L 811,629 L 810,630 L 809,631 L 808,632 L 808,633 L 807,633 L 806,634 L 805,634 L 804,635 L 803,637 L 802,637 L 801,639 L 800,640 L 800,642 L 800,643 L 799,644 L 799,645 L 799,646 L 798,647 L 798,648 L 797,648 L 796,649 L 795,650 L 795,651 L 794,651 L 794,652 L 793,653 L 792,654 L 791,654 L 791,655 L 790,655 L 789,656 L 789,657 L 788,657 L 788,658 L 787,658 L 786,659 L 786,660 L 786,661 L 786,662 L 786,663 L 786,664 L 786,665 L 786,666 L 787,666 L 787,667 L 788,668 L 787,669 L 786,669 L 785,669 L 784,669 L 783,669 L 782,669 L 781,670 L 781,671 L 781,672 L 781,673 L 780,674 L 779,675 L 779,677 L 778,678 L 778,679 L 778,680 L 777,680 L 777,681 L 777,682 L 776,682 L 775,682 L 775,683 L 774,684 L 773,686 L 773,687 L 772,687 L 771,688 L 770,689 L 770,690 L 769,690 L 768,691 L 768,692 L 767,693 L 766,694 L 765,694 L 764,694 L 764,695 L 764,696 L 763,697 L 763,698 L 762,699 L 762,700 L 761,700 L 761,701 L 761,702 L 761,703 L 761,704 L 761,705 L 760,705 L 760,706 L 760,707 L 760,708 L 760,709 L 760,710 L 760,711 L 759,711 L 759,712 L 759,713 L 758,714 L 758,715 L 757,715 L 757,716 L 757,717 L 756,717 L 755,717 L 755,718 L 754,719 L 754,720 L 754,722 L 754,723 L 754,724 L 755,724 L 755,725 L 756,725 L 757,725 L 757,726 L 758,726 L 758,727 L 757,728 L 756,728 L 755,728 L 754,728 L 754,729 L 753,729 L 752,729 L 751,728 L 750,728 L 750,729 L 751,730 L 752,730 L 752,731 L 753,731 L 754,731 L 754,732 L 754,733 L 754,734 L 753,734 L 753,735 L 752,735 L 751,735 L 751,736 L 752,737 L 753,737 L 754,737 L 755,737 L 755,738 L 755,739 L 754,739 L 754,740 L 753,741 L 752,741 L 751,742 L 751,743 L 752,743 L 753,744 L 754,744 L 754,745 L 754,746 L 753,746 L 752,746 L 751,746 L 751,747 L 750,747 L 749,747 L 749,748 L 749,749 L 750,749 L 750,750 L 749,750 L 749,751 L 748,751 L 748,752 L 747,752 L 747,751 L 746,752 L 745,752 L 745,751 L 744,751 L 744,752 L 744,753 L 744,754 L 745,754 L 745,755 L 745,756 L 746,756 L 746,757 L 746,758 L 745,758 L 744,758 L 744,757 L 743,758 L 744,758 L 744,759 L 745,759 L 745,760 L 744,760 L 745,761 L 744,761 L 744,762 L 743,763 L 742,763 L 741,763 L 740,763 L 739,763 L 740,763 L 740,764 L 741,764 L 741,765 L 741,766 L 742,766 L 742,767 L 741,767 L 740,767 L 740,768 L 739,768 L 739,769 L 738,769 L 738,770 L 737,770 L 736,770 L 735,770 L 735,771 L 734,771 L 733,771 L 732,771 L 732,770 L 731,770 L 731,769 L 730,768 L 729,768 L 729,769 L 728,769 L 727,769 L 726,769 L 725,770 L 724,770 L 723,770 L 722,770 L 722,769 L 721,769 L 721,770 L 720,770 L 720,771 L 720,772 L 720,773 L 721,773 L 722,774 L 723,774 L 724,774 L 725,774 L 725,775 L 725,776 L 725,777 L 724,778 L 723,778 L 722,778 L 722,779 L 721,779 L 720,779 L 719,779 L 718,779 L 717,779 L 717,778 L 716,778 L 715,778 L 715,779 L 714,779 L 713,779 L 712,779 L 711,779 L 711,778 L 710,778 L 709,778 L 708,778 L 707,778 L 706,778 L 706,779 L 706,780 L 706,781 L 706,782 L 707,782 L 707,783 L 707,784 L 708,784 L 708,785 L 708,786 L 709,786 L 710,786 L 711,787 L 712,787 L 713,787 L 714,787 L 715,786 L 716,786 L 716,787 L 716,788 L 716,789 L 717,789 L 718,789 L 719,789 L 720,789 L 721,790 L 722,789 L 722,790 L 722,791 L 722,792 L 721,792 L 720,792 L 720,793 L 721,794 L 720,794 L 719,794 L 718,794 L 718,793 L 717,792 L 717,791 L 716,791 L 715,791 L 714,791 L 714,792 L 713,792 L 713,793 L 712,794 L 712,795 L 712,796 L 711,796 L 710,796 L 709,796 L 708,795 L 707,795 L 706,795 L 706,794 L 705,794 L 704,794 L 704,795 L 703,795 L 702,794 L 701,794 L 700,794 L 699,795 L 698,795 L 697,796 L 697,797 L 697,798 L 698,798 L 699,799 L 699,800 L 699,801 L 698,801 L 698,802 L 697,802 L 696,802 L 696,803 L 695,803 L 695,804 L 694,804 L 694,805 L 693,805 L 692,804 L 692,803 L 691,803 L 691,802 L 691,801 L 690,800 L 690,799 L 689,799 L 689,798 L 688,798 L 687,798 L 686,797 L 686,796 L 685,796 L 684,796 L 683,796 L 683,797 L 682,797 L 682,798 L 682,799 L 683,799 L 683,800 L 684,800 L 684,801 L 683,802 L 682,802 L 682,803 L 681,803 L 681,804 L 680,804 L 679,804 L 679,805 L 678,805 L 678,806 L 677,806 L 676,806 L 675,806 L 674,807 L 673,807 L 672,807 L 672,808 L 672,809 L 671,810 L 671,811 L 671,812 L 670,812 L 670,813 L 670,814 L 671,814 L 672,815 L 673,816 L 673,817 L 674,817 L 675,817 L 675,818 L 675,819 L 676,819 L 677,820 L 677,819 L 677,820 L 678,820 L 678,819 L 679,819 L 679,820 L 678,821 L 677,822 L 678,822 L 678,823 L 677,823 L 677,824 L 676,824 L 675,824 L 674,824 L 673,824 L 672,824 L 671,825 L 670,825 L 670,826 L 669,826 L 668,826 L 668,827 L 667,827 L 666,828 L 665,828 L 665,827 L 665,826 L 665,825 L 665,824 L 666,824 L 666,823 L 665,822 L 664,822 L 663,822 L 663,823 L 663,824 L 662,824 L 661,824 L 660,824 L 660,825 L 659,826 L 659,827 L 659,828 L 659,829 L 659,830 L 660,831 L 660,832 L 659,832 L 658,832 L 658,831 L 657,831 L 657,830 L 657,829 L 657,828 L 657,827 L 656,827 L 655,827 L 655,828 L 654,828 L 655,829 L 654,830 L 654,831 L 654,832 L 654,833 L 653,833 L 653,832 L 652,833 L 652,834 L 652,835 L 653,835 L 653,836 L 652,836 L 652,837 L 651,837 L 650,836 L 649,836 L 649,835 L 648,835 L 647,835 L 646,836 L 646,837 L 645,837 L 645,838 L 645,839 L 646,840 L 647,840 L 647,841 L 648,841 L 648,842 L 649,842 L 650,841 L 651,841 L 651,842 L 651,843 L 652,843 L 652,844 L 652,845 L 653,845 L 653,846 L 653,847 L 654,847 L 654,848 L 653,848 L 652,849 L 651,849 L 651,850 L 650,850 L 650,851 L 649,851 L 649,852 L 648,851 L 648,850 L 647,850 L 647,851 L 646,851 L 646,852 L 646,853 L 645,853 L 644,853 L 643,853 L 642,853 L 641,853 L 641,854 L 641,853 L 640,853 L 639,854 L 638,854 L 638,855 L 637,855 L 636,855 L 635,855 L 635,856 L 634,855 L 634,856 L 633,856 L 633,857 L 633,858 L 633,859 L 633,860 L 632,860 L 633,859 L 632,859 L 632,860 L 631,860 L 631,861 L 630,862 L 629,862 L 628,862 L 627,862 L 627,861 L 626,861 L 625,860 L 625,861 L 624,861 L 624,862 L 624,863 L 625,863 L 625,864 L 624,864 L 623,864 L 622,864 L 622,863 L 621,863 L 621,862 L 620,862 L 619,862 L 619,861 L 620,861 L 620,860 L 620,859 L 621,859 L 621,858 L 620,858 L 620,857 L 619,857 L 619,856 L 618,856 L 618,855 L 618,854 L 618,853 L 618,852 L 617,852 L 617,851 L 616,850 L 615,850 L 614,850 L 614,849 L 614,848 L 614,847 L 614,846 L 614,845 L 613,845 L 613,844 L 612,844 L 611,844 L 611,843 L 610,842 L 609,842 L 608,842 L 608,841 L 607,841 L 607,842 L 606,843 L 605,843 L 604,843 L 603,843 L 602,843 L 602,842 L 603,842 L 603,841 L 602,841 L 602,840 L 602,839 L 601,839 L 601,838 L 601,837 L 600,837 L 600,838 L 599,839 L 599,840 L 598,840 L 597,840 L 597,841 L 596,841 L 595,840 L 595,839 L 594,839 L 594,840 L 593,840 L 593,841 L 592,841 L 592,842 L 592,843 L 591,843 L 591,844 L 590,844 L 589,844 L 589,845 L 588,845 L 587,845 L 587,846 L 586,846 L 585,846 L 585,845 L 586,844 L 586,843 L 586,842 L 585,841 L 585,840 L 586,840 L 585,839 L 586,839 L 585,838 L 585,837 L 584,836 L 584,835 L 584,834 L 584,833 L 584,832 L 584,831 L 584,830 L 584,829 L 584,828 L 584,827 L 583,826 L 583,825 L 583,824 L 583,823 L 584,823 L 583,822 L 583,821 L 584,821 L 584,820 L 584,819 L 584,820 L 585,820 L 586,820 L 587,820 L 588,819 L 587,818 L 587,817 L 587,816 L 588,815 L 588,814 L 589,814 L 589,813 L 590,813 L 590,812 L 591,812 L 591,811 L 592,811 L 592,810 L 593,810 L 594,810 L 595,810 L 595,809 L 596,809 L 596,808 L 597,807 L 598,807 L 598,808 L 599,808 L 599,807 L 600,807 L 601,807 L 602,807 L 602,808 L 603,809 L 604,809 L 604,808 L 605,808 L 605,807 L 605,806 L 606,806 L 606,805 L 606,804 L 607,803 L 607,802 L 608,803 L 608,802 L 609,801 L 610,801 L 611,801 L 612,802 L 613,802 L 613,803 L 613,804 L 613,805 L 614,805 L 615,806 L 615,807 L 615,808 L 616,808 L 616,809 L 617,809 L 617,808 L 617,807 L 617,806 L 617,805 L 618,804 L 618,805 L 619,805 L 619,806 L 620,806 L 620,807 L 621,807 L 621,808 L 622,808 L 623,808 L 623,807 L 622,807 L 622,806 L 621,805 L 621,804 L 621,803 L 621,802 L 622,802 L 622,801 L 622,800 L 623,800 L 624,800 L 624,799 L 625,799 L 625,798 L 626,798 L 627,798 L 627,797 L 627,796 L 627,795 L 627,794 L 628,793 L 628,792 L 629,792 L 629,791 L 630,790 L 629,790 L 630,789 L 630,788 L 631,788 L 631,787 L 630,787 L 630,786 L 631,786 L 631,785 L 631,784 L 631,783 L 632,783 L 632,782 L 632,781 L 632,780 L 633,780 L 633,779 L 634,779 L 635,779 L 635,778 L 635,777 L 636,777 L 636,776 L 637,776 L 638,776 L 638,777 L 638,778 L 639,778 L 639,779 L 639,780 L 640,780 L 641,781 L 641,782 L 642,782 L 643,782 L 644,781 L 645,781 L 646,781 L 647,781 L 648,781 L 649,781 L 650,781 L 651,781 L 652,781 L 652,780 L 653,779 L 654,779 L 655,779 L 656,779 L 657,779 L 658,778 L 657,778 L 657,777 L 657,776 L 656,775 L 656,774 L 657,774 L 658,774 L 659,774 L 660,774 L 661,774 L 662,774 L 663,774 L 664,774 L 665,773 L 666,773 L 666,772 L 666,771 L 667,770 L 667,769 L 667,768 L 667,767 L 667,766 L 667,765 L 667,764 L 668,764 L 668,763 L 668,762 L 668,761 L 669,761 L 669,762 L 670,763 L 670,764 L 671,764 L 672,764 L 673,764 L 673,763 L 673,762 L 673,761 L 674,761 L 673,761 L 673,760 L 672,759 L 672,758 L 671,758 L 672,758 L 672,757 L 673,757 L 673,756 L 672,756 L 672,755 L 671,755 L 670,754 L 670,753 L 670,752 L 670,751 L 669,751 L 668,751 L 667,751 L 666,751 L 665,751 L 664,751 L 663,751 L 662,751 L 661,751 L 660,750 L 661,749 L 662,748 L 663,748 L 664,748 L 664,747 L 663,747 L 662,747 L 661,747 L 660,747 L 659,747 L 659,746 L 658,746 L 657,746 L 657,745 L 657,744 L 658,744 L 658,743 L 658,742 L 659,742 L 659,741 L 660,741 L 659,740 L 659,739 L 658,738 L 657,737 L 656,737 L 656,736 L 657,735 L 657,736 L 658,736 L 658,737 L 659,737 L 659,738 L 660,738 L 661,737 L 661,736 L 662,735 L 663,735 L 664,735 L 665,735 L 665,734 L 664,733 L 664,732 L 665,731 L 665,730 L 665,729 L 665,728 L 666,728 L 667,727 L 668,727 L 668,726 L 667,725 L 667,724 L 667,723 L 666,722 L 666,721 L 666,720 L 667,720 L 667,719 L 666,719 L 666,718 L 665,717 L 664,716 L 663,716 L 663,715 L 662,715 L 662,714 L 661,714 L 661,715 L 660,715 L 659,715 L 658,714 L 657,713 L 657,712 L 656,712 L 656,711 L 655,711 L 654,710 L 653,709 L 652,708 L 652,707 L 652,706 L 651,706 L 650,706 L 651,706 L 651,705 L 652,705 L 652,704 L 652,705 L 653,705 L 653,704 L 654,704 L 654,703 L 654,702 L 655,702 L 655,701 L 655,700 L 655,699 L 656,699 L 657,699 L 658,699 L 658,700 L 659,700 L 660,700 L 661,701 L 662,701 L 662,702 L 663,702 L 664,702 L 665,702 L 666,701 L 667,701 L 668,700 L 669,700 L 669,699 L 670,698 L 669,697 L 669,696 L 670,695 L 671,695 L 672,694 L 673,694 L 674,693 L 674,692 L 675,692 L 675,691 L 676,690 L 676,689 L 676,688 L 675,687 L 675,686 L 675,685 L 675,684 L 676,683 L 676,682 L 677,682 L 678,682 L 678,681 L 679,681 L 679,680 L 680,680 L 680,679 L 681,679 L 681,678 L 681,677 L 682,677 L 682,676 L 682,675 L 683,675 L 683,674 L 683,673 L 683,672 L 682,672 L 681,672 L 681,671 L 682,671 L 683,671 L 683,670 L 684,670 L 685,669 L 685,668 L 685,667 L 684,667 L 684,666 L 683,666 L 682,666 L 681,665 L 680,665 L 679,665 L 679,664 L 680,664 L 681,664 L 682,664 L 683,664 L 684,664 L 685,664 L 686,664 L 687,664 L 688,664 L 689,664 L 690,664 L 691,664 L 692,665 L 691,665 L 691,666 L 692,666 L 692,667 L 693,667 L 694,667 L 695,667 L 696,666 L 697,666 L 698,665 L 699,664 L 699,663 L 699,662 L 700,662 L 700,661 L 701,661 L 701,660 L 701,659 L 700,659 L 700,658 L 701,658 L 702,658 L 702,657 L 702,656 L 703,656 L 703,657 L 704,657 L 705,657 L 706,657 L 707,657 L 708,657 L 709,657 L 710,657 L 710,656 L 711,656 L 710,655 L 709,655 L 709,654 L 710,654 L 710,653 L 711,652 L 712,651 L 713,651 L 713,650 L 714,650 L 714,649 L 713,649 L 714,648 L 715,649 L 715,650 L 716,650 L 717,649 L 718,649 L 719,648 L 719,647 L 718,647 L 718,646 L 719,646 L 720,646 L 721,646 L 722,646 L 723,646 L 724,646 L 725,645 L 725,644 L 726,644 L 726,643 L 727,643 L 728,642 L 728,641 L 729,641 L 729,640 L 730,640 L 730,639 L 730,638 L 731,638 L 731,637 L 732,637 L 732,636 L 733,635 L 733,634 L 734,634 L 734,633 L 734,632 L 734,631 L 734,630 L 735,630 L 735,629 L 735,628 L 735,627 L 735,626 L 734,625 L 734,624 L 734,623 L 734,622 L 734,621 L 733,621 L 733,620 L 733,619 L 732,619 L 732,618 L 731,618 L 731,617 L 730,617 L 730,616 L 730,615 L 730,614 L 730,613 L 731,613 L 732,613 L 733,614 L 734,614 L 734,613 L 734,612 L 734,611 L 734,610 L 735,610 L 735,609 L 736,608 L 736,607 L 737,607 L 737,606 L 737,605 L 737,604 L 736,603 L 736,602 L 736,601 L 736,600 L 737,600 L 737,599 L 737,598 L 738,597 L 739,596 L 740,596 L 740,595 L 740,594 L 740,593 L 741,593 L 741,592 L 740,592 L 740,591 L 740,590 L 741,590 L 741,589 L 741,588 L 742,587 L 742,586 L 741,585 L 742,585 L 742,584 L 743,585 L 744,585 L 744,584 L 745,584 L 745,583 L 746,583 L 746,582 L 747,582 L 748,582 L 749,582 L 750,582 L 751,582 L 752,582 L 753,582 L 754,582 L 754,581 L 755,581 L 754,581 L 754,580 L 754,579 L 755,579 L 755,578 L 755,577 L 756,577 L 757,576 L 758,576 L 759,576 L 759,575 L 760,575 L 761,574 L 761,573 L 761,572 L 761,571 L 762,570 L 763,570 L 764,570 L 764,569 L 764,568 L 764,567 L 765,566 L 765,565 L 765,564 L 765,563 L 766,563 L 766,562 L 766,561 L 767,561 L 767,560 L 767,559 L 768,559 L 768,558 L 768,557 L 769,557 L 769,556 L 769,555 L 770,555 L 770,554 L 770,553 L 769,553 L 769,552 L 769,551 L 769,550 L 770,550 L 771,551 L 771,550 L 772,550 L 772,549 L 773,549 L 774,548 L 774,547 L 774,546 L 774,545 L 774,544 L 774,543 L 774,542 L 773,542 L 772,541 L 772,540 L 772,539 L 772,538 L 772,537 L 773,537 L 774,536 L 775,536 L 776,536 L 777,536 L 778,536 L 778,535 L 779,535 L 779,534 L 780,534 L 780,533 L 780,532 L 781,532 L 781,531 L 782,531 L 783,531 L 783,532 L 784,532 L 785,532 L 786,531 L 787,531 L 787,530 L 788,529 L 789,529 L 789,528 L 788,528 L 787,527 L 786,526 L 786,525 L 786,524 L 786,523 L 785,522 L 785,521 L 786,519 L 787,518 L 786,518 L 785,517 L 786,517 L 786,516 L 787,515 L 787,514 L 788,514 L 788,515 L 788,516 L 788,517 L 789,516 L 790,516 L 791,516 L 791,515 L 792,515 L 792,514 L 793,514 L 793,513 L 794,513 L 794,512 L 794,511 L 795,511 L 795,510 L 794,509 L 793,508 L 793,507 L 794,507 L 795,507 L 796,507 L 797,507 L 798,507 L 798,506 L 799,506 L 799,505 L 800,505 L 800,504 L 801,504 L 801,503 L 802,503 L 802,504 L 803,504 L 803,505 L 803,506 L 802,507 " />
<path d="M 1041,504 L 1040,504 L 1039,503 L 1040,503 L 1040,502 L 1040,503 L 1041,503 L 1041,504 " />
<path d="M 1052,457 L 1051,457 L 1051,456 L 1052,456 L 1052,457 " />
<path d="M 951,453 L 952,453 L 953,453 L 954,453 L 955,453 L 955,454 L 955,455 L 954,455 L 954,456 L 954,457 L 954,458 L 953,458 L 953,459 L 952,460 L 952,461 L 951,461 L 951,462 L 950,462 L 950,463 L 949,463 L 948,462 L 947,462 L 946,462 L 945,462 L 944,462 L 944,461 L 944,460 L 944,459 L 945,459 L 945,458 L 945,457 L 946,457 L 946,456 L 946,455 L 947,455 L 947,454 L 948,454 L 949,454 L 949,453 L 950,453 L 951,453 " />
<path d="M 979,440 L 978,440 L 978,439 L 978,438 L 979,438 L 980,438 L 980,439 L 980,440 L 979,440 " />
<path d="M 955,428 L 956,428 L 957,429 L 957,430 L 956,430 L 955,430 L 955,429 L 954,428 L 953,428 L 953,427 L 954,427 L 955,427 L 955,428 " />
<path d="M 1450,418 L 1449,418 L 1450,418 " />
<path d="M 1449,418 L 1448,419 L 1448,418 L 1449,418 " />
<path d="M 1448,418 L 1447,418 L 1447,417 L 1448,417 L 1448,418 " />
<path d="M 1450,418 L 1449,418 L 1449,417 L 1450,417 L 1450,418 " />
<path d="M 1449,417 L 1448,417 L 1449,417 " />
<path d="M 1450,416 L 1449,416 L 1450,415 L 1450,416 " />
<path d="M 1451,414 L 1450,414 L 1450,413 L 1451,413 L 1451,414 " />
<path d="M 1452,413 L 1451,412 L 1452,412 L 1452,413 " />
<path d="M 1451,413 L 1450,413 L 1450,412 L 1451,412 L 1451,413 " />
<path d="M 1452,411 L 1451,411 L 1452,411 " />
<path d="M 1451,404 L 1451,405 L 1450,404 L 1451,404 " />
<path d="M 1452,403 L 1451,403 L 1451,402 L 1452,402 L 1452,403 " />
<path d="M 1452,401 L 1452,402 L 1452,401 " />
<path d="M 1453,396 L 1453,395 L 1453,396 " />
<path d="M 1453,394 L 1452,394 L 1453,394 L 1453,393 L 1453,394 " />
<path d="M 1054,394 L 1053,393 L 1054,393 L 1054,394 " />
<path d="M 1116,381 L 1117,381 L 1118,381 L 1119,381 L 1119,382 L 1120,382 L 1121,382 L 1122,382 L 1122,383 L 1123,384 L 1124,385 L 1125,385 L 1126,386 L 1127,386 L 1128,386 L 1128,387 L 1129,387 L 1129,388 L 1130,388 L 1130,389 L 1131,389 L 1131,390 L 1131,391 L 1131,392 L 1131,393 L 1132,393 L 1132,394 L 1132,395 L 1132,396 L 1132,397 L 1132,398 L 1132,399 L 1132,400 L 1132,401 L 1132,402 L 1132,403 L 1131,403 L 1130,404 L 1129,404 L 1128,404 L 1127,404 L 1127,405 L 1127,406 L 1126,406 L 1126,405 L 1125,405 L 1125,404 L 1124,404 L 1123,404 L 1122,404 L 1122,403 L 1122,402 L 1121,402 L 1121,401 L 1120,401 L 1119,401 L 1118,401 L 1117,401 L 1117,400 L 1116,400 L 1117,399 L 1118,399 L 1118,398 L 1119,398 L 1118,397 L 1117,397 L 1116,397 L 1116,396 L 1115,396 L 1114,396 L 1113,395 L 1112,394 L 1112,393 L 1112,392 L 1112,391 L 1112,390 L 1112,389 L 1113,389 L 1114,388 L 1114,387 L 1114,386 L 1113,385 L 1113,384 L 1112,383 L 1112,382 L 1111,381 L 1111,380 L 1111,379 L 1112,379 L 1113,379 L 1114,379 L 1114,380 L 1115,380 L 1116,380 L 1116,381 " />
<path d="M 1106,374 L 1107,374 L 1107,375 L 1107,376 L 1106,376 L 1105,376 L 1104,377 L 1104,376 L 1103,376 L 1104,375 L 1104,374 L 1104,373 L 1105,373 L 1106,373 L 1106,374 " />
<path d="M 1094,366 L 1095,366 L 1096,366 L 1096,367 L 1096,368 L 1096,369 L 1096,370 L 1095,370 L 1094,370 L 1094,371 L 1093,371 L 1092,371 L 1091,370 L 1091,369 L 1091,368 L 1090,368 L 1090,367 L 1091,367 L 1092,367 L 1092,366 L 1091,366 L 1091,365 L 1090,365 L 1090,364 L 1090,363 L 1091,363 L 1092,363 L 1093,363 L 1093,364 L 1094,364 L 1094,365 L 1094,366 " />
<path d="M 1462,357 L 1461,357 L 1462,357 L 1462,356 L 1462,357 " />
<path d="M 1019,358 L 1018,357 L 1018,356 L 1018,355 L 1018,354 L 1019,354 L 1019,353 L 1019,352 L 1020,352 L 1020,351 L 1019,350 L 1019,349 L 1020,349 L 1020,348 L 1021,348 L 1022,348 L 1022,349 L 1022,350 L 1021,350 L 1021,351 L 1021,352 L 1021,353 L 1021,354 L 1021,355 L 1021,356 L 1020,356 L 1020,357 L 1020,358 L 1019,358 " />
<path d="M 1018,335 L 1017,335 L 1017,334 L 1018,334 L 1018,335 " />
<path d="M 1010,335 L 1011,335 L 1012,335 L 1012,336 L 1013,336 L 1013,337 L 1014,337 L 1014,336 L 1015,335 L 1016,335 L 1017,336 L 1017,337 L 1018,337 L 1018,338 L 1017,339 L 1017,340 L 1018,341 L 1017,342 L 1017,343 L 1017,344 L 1017,345 L 1017,346 L 1017,347 L 1017,348 L 1016,348 L 1016,349 L 1016,350 L 1016,351 L 1017,352 L 1018,352 L 1018,353 L 1017,354 L 1017,355 L 1016,356 L 1016,357 L 1016,358 L 1016,359 L 1016,360 L 1015,360 L 1015,361 L 1015,362 L 1015,363 L 1014,364 L 1014,365 L 1014,366 L 1014,367 L 1013,367 L 1013,368 L 1012,368 L 1012,369 L 1012,370 L 1012,371 L 1011,372 L 1010,372 L 1010,373 L 1009,373 L 1008,373 L 1007,373 L 1007,374 L 1006,374 L 1006,375 L 1005,375 L 1005,376 L 1005,377 L 1004,377 L 1003,378 L 1002,379 L 1001,379 L 1000,380 L 999,381 L 998,382 L 998,383 L 998,384 L 997,384 L 997,385 L 997,386 L 996,386 L 996,387 L 996,388 L 995,388 L 994,388 L 994,389 L 995,390 L 996,391 L 997,391 L 998,392 L 999,392 L 1000,392 L 1001,392 L 1002,393 L 1003,392 L 1004,392 L 1004,391 L 1005,390 L 1005,391 L 1006,391 L 1006,390 L 1005,389 L 1005,388 L 1004,388 L 1004,387 L 1004,386 L 1004,385 L 1005,385 L 1006,385 L 1007,386 L 1008,386 L 1009,386 L 1009,385 L 1010,385 L 1011,385 L 1012,385 L 1013,386 L 1014,386 L 1015,387 L 1015,388 L 1015,389 L 1016,390 L 1016,391 L 1016,392 L 1017,392 L 1018,392 L 1019,393 L 1019,392 L 1020,392 L 1020,391 L 1021,391 L 1021,390 L 1021,389 L 1020,388 L 1021,388 L 1021,387 L 1022,387 L 1022,386 L 1022,385 L 1021,385 L 1020,385 L 1019,384 L 1018,384 L 1017,384 L 1017,383 L 1016,383 L 1016,382 L 1016,381 L 1016,380 L 1015,380 L 1015,379 L 1015,378 L 1014,378 L 1014,377 L 1014,376 L 1014,375 L 1014,374 L 1014,373 L 1013,373 L 1013,372 L 1014,371 L 1015,370 L 1015,369 L 1016,369 L 1016,368 L 1017,368 L 1017,367 L 1018,366 L 1019,365 L 1020,364 L 1021,364 L 1022,364 L 1023,364 L 1024,364 L 1025,364 L 1025,365 L 1026,366 L 1026,367 L 1026,368 L 1026,369 L 1026,370 L 1027,370 L 1027,371 L 1027,372 L 1027,373 L 1027,374 L 1027,375 L 1028,375 L 1028,376 L 1029,376 L 1029,375 L 1029,374 L 1029,373 L 1030,372 L 1031,371 L 1032,371 L 1032,372 L 1033,372 L 1033,371 L 1033,370 L 1033,369 L 1033,368 L 1034,368 L 1034,367 L 1034,366 L 1034,365 L 1035,364 L 1036,364 L 1036,365 L 1037,365 L 1038,365 L 1039,365 L 1039,364 L 1040,363 L 1041,363 L 1041,364 L 1042,365 L 1042,366 L 1043,367 L 1044,367 L 1044,368 L 1044,369 L 1044,370 L 1045,370 L 1045,371 L 1045,372 L 1045,373 L 1044,374 L 1044,375 L 1044,376 L 1044,377 L 1043,378 L 1043,379 L 1043,380 L 1043,381 L 1043,382 L 1043,383 L 1042,384 L 1041,385 L 1040,385 L 1041,385 L 1042,385 L 1042,386 L 1042,387 L 1042,388 L 1043,388 L 1043,387 L 1043,386 L 1044,385 L 1045,385 L 1045,384 L 1046,384 L 1046,383 L 1046,382 L 1046,381 L 1047,380 L 1048,380 L 1049,380 L 1050,380 L 1050,379 L 1051,379 L 1051,378 L 1052,378 L 1052,377 L 1053,377 L 1054,377 L 1055,377 L 1055,378 L 1054,378 L 1054,379 L 1055,379 L 1055,380 L 1054,380 L 1054,381 L 1054,382 L 1054,383 L 1054,384 L 1054,385 L 1054,386 L 1054,387 L 1054,388 L 1054,389 L 1054,390 L 1054,391 L 1053,392 L 1053,393 L 1053,394 L 1052,394 L 1052,395 L 1053,396 L 1053,397 L 1053,398 L 1053,399 L 1052,400 L 1051,401 L 1052,402 L 1052,403 L 1052,404 L 1052,405 L 1051,405 L 1051,406 L 1051,407 L 1051,408 L 1051,409 L 1051,410 L 1050,411 L 1050,412 L 1049,412 L 1049,413 L 1049,414 L 1048,414 L 1048,415 L 1048,416 L 1047,417 L 1047,418 L 1047,419 L 1047,420 L 1047,421 L 1047,422 L 1048,422 L 1047,422 L 1048,423 L 1048,424 L 1048,425 L 1049,424 L 1050,424 L 1050,425 L 1050,426 L 1049,427 L 1049,428 L 1048,428 L 1048,429 L 1047,429 L 1047,428 L 1046,428 L 1045,428 L 1045,429 L 1044,430 L 1044,431 L 1044,432 L 1044,433 L 1044,434 L 1045,434 L 1046,433 L 1047,433 L 1048,433 L 1048,434 L 1048,438 L 1048,439 L 1048,440 L 1048,441 L 1048,442 L 1048,443 L 1048,444 L 1048,445 L 1048,446 L 1049,447 L 1049,448 L 1050,449 L 1050,450 L 1049,451 L 1049,452 L 1048,452 L 1048,453 L 1048,454 L 1048,455 L 1047,455 L 1047,456 L 1048,456 L 1049,456 L 1049,457 L 1050,457 L 1051,457 L 1051,458 L 1051,459 L 1050,459 L 1049,460 L 1049,461 L 1048,461 L 1048,462 L 1048,463 L 1048,464 L 1048,465 L 1047,465 L 1047,466 L 1047,467 L 1046,467 L 1046,468 L 1046,469 L 1046,470 L 1045,471 L 1045,470 L 1044,470 L 1043,471 L 1042,472 L 1041,471 L 1040,471 L 1040,470 L 1039,470 L 1039,471 L 1038,472 L 1038,473 L 1038,474 L 1038,475 L 1037,476 L 1036,477 L 1036,478 L 1036,479 L 1036,480 L 1037,481 L 1037,482 L 1036,482 L 1036,483 L 1035,483 L 1035,484 L 1034,484 L 1033,485 L 1032,486 L 1031,487 L 1030,487 L 1029,486 L 1028,486 L 1027,486 L 1027,485 L 1026,485 L 1025,485 L 1025,484 L 1024,484 L 1023,484 L 1022,485 L 1021,486 L 1020,487 L 1020,488 L 1019,488 L 1019,489 L 1018,490 L 1017,490 L 1017,491 L 1017,492 L 1016,493 L 1015,494 L 1014,494 L 1013,494 L 1012,495 L 1012,496 L 1011,497 L 1010,497 L 1009,498 L 1008,498 L 1008,499 L 1007,499 L 1007,500 L 1006,501 L 1005,502 L 1004,502 L 1003,502 L 1002,502 L 1001,502 L 1000,502 L 999,501 L 999,500 L 998,500 L 998,499 L 997,499 L 997,498 L 996,497 L 996,496 L 995,496 L 994,496 L 994,495 L 994,494 L 994,493 L 994,492 L 994,491 L 994,490 L 993,490 L 992,490 L 991,490 L 991,489 L 990,488 L 989,488 L 988,487 L 988,486 L 988,485 L 988,484 L 988,483 L 987,484 L 987,485 L 986,485 L 986,486 L 985,485 L 984,485 L 983,485 L 982,485 L 982,484 L 981,484 L 980,484 L 979,484 L 978,484 L 977,484 L 976,484 L 975,484 L 974,484 L 973,484 L 972,484 L 971,484 L 970,484 L 970,483 L 969,483 L 969,482 L 968,482 L 968,481 L 968,480 L 967,480 L 967,479 L 967,478 L 967,477 L 967,476 L 968,476 L 968,475 L 969,474 L 969,473 L 969,472 L 969,471 L 969,470 L 970,469 L 970,468 L 970,467 L 971,466 L 972,465 L 973,465 L 974,465 L 975,465 L 975,464 L 976,464 L 977,463 L 977,462 L 977,461 L 977,460 L 978,459 L 978,458 L 979,458 L 979,457 L 980,457 L 981,457 L 982,457 L 982,458 L 983,458 L 984,458 L 985,459 L 986,459 L 986,460 L 987,460 L 988,461 L 989,461 L 989,462 L 990,462 L 990,463 L 991,463 L 991,464 L 992,464 L 992,465 L 993,465 L 993,464 L 992,463 L 992,462 L 991,461 L 990,460 L 990,459 L 989,459 L 989,458 L 989,457 L 988,457 L 988,456 L 988,455 L 989,455 L 990,455 L 991,456 L 992,456 L 993,456 L 993,457 L 994,457 L 995,457 L 995,458 L 996,458 L 996,459 L 997,459 L 998,459 L 999,459 L 999,458 L 1000,458 L 1000,457 L 999,457 L 999,456 L 999,455 L 999,454 L 999,453 L 998,453 L 998,452 L 999,452 L 999,451 L 999,450 L 998,450 L 997,450 L 996,450 L 995,449 L 994,449 L 993,448 L 992,448 L 992,447 L 991,447 L 990,446 L 989,446 L 988,446 L 987,446 L 986,446 L 986,445 L 986,444 L 987,444 L 986,443 L 985,443 L 984,443 L 984,442 L 983,442 L 983,441 L 983,440 L 982,440 L 982,439 L 982,438 L 983,438 L 984,437 L 984,436 L 984,435 L 983,435 L 982,434 L 981,433 L 980,434 L 979,434 L 979,435 L 978,435 L 978,436 L 977,436 L 977,437 L 976,437 L 975,437 L 974,437 L 974,436 L 974,435 L 973,434 L 973,435 L 973,436 L 972,436 L 972,437 L 971,438 L 972,439 L 972,440 L 971,440 L 971,441 L 970,441 L 970,442 L 969,442 L 969,443 L 968,443 L 968,444 L 967,444 L 966,445 L 965,446 L 964,446 L 963,446 L 962,446 L 962,445 L 961,445 L 960,445 L 960,446 L 959,446 L 958,446 L 957,446 L 957,447 L 956,446 L 956,447 L 956,446 L 956,445 L 956,444 L 957,444 L 957,443 L 957,442 L 956,442 L 956,441 L 956,440 L 956,439 L 955,439 L 955,438 L 955,437 L 954,437 L 953,437 L 953,436 L 953,435 L 952,435 L 953,435 L 953,434 L 954,434 L 955,435 L 956,434 L 957,434 L 957,433 L 958,433 L 958,432 L 958,431 L 958,430 L 959,430 L 959,429 L 959,428 L 960,428 L 961,427 L 960,426 L 960,425 L 960,424 L 960,423 L 961,423 L 961,422 L 962,421 L 961,421 L 961,420 L 962,420 L 962,421 L 963,421 L 963,420 L 962,420 L 962,419 L 962,418 L 962,417 L 961,416 L 961,415 L 962,415 L 963,415 L 964,416 L 965,416 L 965,417 L 966,418 L 967,418 L 968,418 L 969,418 L 970,418 L 970,419 L 971,419 L 971,420 L 972,419 L 971,419 L 971,418 L 971,417 L 970,417 L 970,416 L 969,416 L 968,416 L 967,416 L 967,415 L 966,415 L 966,414 L 966,413 L 966,412 L 965,412 L 965,411 L 964,411 L 965,411 L 965,410 L 965,409 L 964,409 L 964,410 L 963,410 L 962,410 L 961,410 L 960,410 L 959,410 L 958,409 L 958,408 L 958,407 L 958,406 L 957,406 L 957,405 L 958,405 L 959,405 L 960,405 L 960,404 L 961,404 L 961,403 L 962,403 L 962,402 L 962,401 L 963,400 L 963,399 L 962,399 L 962,398 L 961,398 L 961,397 L 961,396 L 961,395 L 962,395 L 962,393 L 963,392 L 963,391 L 964,391 L 964,390 L 965,389 L 965,388 L 966,387 L 966,386 L 967,386 L 967,385 L 968,384 L 968,383 L 969,382 L 969,381 L 970,380 L 970,379 L 970,378 L 970,377 L 970,376 L 971,376 L 971,375 L 971,374 L 972,374 L 972,373 L 972,372 L 972,371 L 973,370 L 973,369 L 974,369 L 974,368 L 975,367 L 976,366 L 976,365 L 977,365 L 977,364 L 978,364 L 979,364 L 980,364 L 981,364 L 981,363 L 981,362 L 980,362 L 980,361 L 981,361 L 981,360 L 982,360 L 983,359 L 983,360 L 984,360 L 984,361 L 985,361 L 985,362 L 986,362 L 987,362 L 987,361 L 988,361 L 989,362 L 990,362 L 990,361 L 989,361 L 989,360 L 988,360 L 987,359 L 987,358 L 986,358 L 986,357 L 985,356 L 986,355 L 987,355 L 988,355 L 988,354 L 989,354 L 990,354 L 991,353 L 991,352 L 990,351 L 990,350 L 989,349 L 989,348 L 989,347 L 989,346 L 990,345 L 991,344 L 991,343 L 992,343 L 993,342 L 994,341 L 995,341 L 996,340 L 997,340 L 998,340 L 998,339 L 999,339 L 1000,338 L 1001,337 L 1002,336 L 1002,335 L 1003,335 L 1004,335 L 1005,334 L 1006,333 L 1007,333 L 1008,333 L 1009,334 L 1009,335 L 1010,335 " />
<path d="M 1016,334 L 1015,334 L 1016,334 L 1016,333 L 1016,332 L 1016,333 L 1017,333 L 1017,334 L 1016,334 " />
<path d="M 1459,331 L 1459,332 L 1460,332 L 1460,333 L 1460,334 L 1459,334 L 1459,335 L 1458,335 L 1457,335 L 1457,336 L 1457,337 L 1457,338 L 1458,338 L 1459,338 L 1459,339 L 1459,340 L 1459,341 L 1460,341 L 1461,343 L 1461,345 L 1461,346 L 1462,347 L 1462,348 L 1462,349 L 1462,350 L 1462,351 L 1462,352 L 1462,354 L 1462,355 L 1461,356 L 1461,358 L 1460,360 L 1459,360 L 1459,361 L 1458,362 L 1458,363 L 1458,365 L 1458,366 L 1458,367 L 1459,367 L 1460,368 L 1461,370 L 1462,370 L 1462,371 L 1461,372 L 1461,373 L 1461,374 L 1459,374 L 1458,373 L 1457,374 L 1457,375 L 1457,376 L 1458,376 L 1457,377 L 1456,377 L 1456,378 L 1457,378 L 1456,380 L 1456,381 L 1457,382 L 1456,383 L 1455,384 L 1454,386 L 1454,387 L 1453,388 L 1452,389 L 1452,390 L 1452,392 L 1452,393 L 1452,394 L 1452,395 L 1452,396 L 1451,396 L 1451,397 L 1451,398 L 1451,400 L 1451,402 L 1450,403 L 1450,404 L 1449,406 L 1449,407 L 1449,408 L 1450,409 L 1451,409 L 1452,409 L 1453,409 L 1453,410 L 1452,410 L 1452,411 L 1451,411 L 1451,412 L 1450,412 L 1450,413 L 1450,414 L 1449,415 L 1448,416 L 1448,417 L 1448,416 L 1447,416 L 1447,417 L 1446,417 L 1446,416 L 1445,416 L 1444,416 L 1443,415 L 1442,414 L 1441,414 L 1440,414 L 1439,414 L 1439,413 L 1439,412 L 1438,412 L 1437,412 L 1437,413 L 1436,413 L 1435,413 L 1434,413 L 1433,413 L 1432,413 L 1432,412 L 1431,411 L 1430,411 L 1430,410 L 1430,409 L 1431,409 L 1431,408 L 1430,408 L 1430,407 L 1428,407 L 1427,405 L 1426,403 L 1426,402 L 1427,401 L 1427,400 L 1428,399 L 1428,398 L 1428,397 L 1427,396 L 1428,395 L 1428,394 L 1429,393 L 1430,393 L 1430,392 L 1431,391 L 1432,390 L 1432,389 L 1431,389 L 1431,388 L 1432,388 L 1431,387 L 1432,387 L 1433,386 L 1433,385 L 1433,384 L 1433,383 L 1433,382 L 1433,381 L 1433,380 L 1433,378 L 1435,378 L 1437,377 L 1437,376 L 1438,376 L 1439,375 L 1440,373 L 1440,372 L 1440,371 L 1439,370 L 1439,369 L 1439,368 L 1440,368 L 1440,366 L 1440,365 L 1439,364 L 1440,363 L 1440,362 L 1439,362 L 1438,362 L 1438,361 L 1437,361 L 1437,360 L 1437,359 L 1438,358 L 1438,357 L 1437,356 L 1436,356 L 1436,355 L 1435,354 L 1436,353 L 1437,353 L 1438,353 L 1439,353 L 1439,351 L 1440,351 L 1441,351 L 1441,350 L 1441,349 L 1440,349 L 1440,348 L 1441,347 L 1440,347 L 1440,346 L 1440,345 L 1441,345 L 1441,344 L 1441,343 L 1441,342 L 1442,341 L 1441,341 L 1441,340 L 1440,340 L 1440,339 L 1441,338 L 1441,339 L 1442,338 L 1442,337 L 1443,337 L 1443,336 L 1444,336 L 1444,335 L 1443,334 L 1444,334 L 1445,333 L 1446,333 L 1446,334 L 1447,333 L 1448,333 L 1448,332 L 1449,333 L 1451,334 L 1452,334 L 1453,336 L 1453,337 L 1453,336 L 1454,335 L 1454,334 L 1454,333 L 1455,332 L 1455,331 L 1456,331 L 1457,331 L 1458,331 L 1459,331 " />
<path d="M 1016,332 L 1016,331 L 1015,331 L 1016,330 L 1016,331 L 1017,331 L 1016,331 L 1016,332 " />
<path d="M 1208,270 L 1209,271 L 1209,270 L 1209,271 L 1210,271 L 1210,272 L 1209,272 L 1208,272 L 1207,272 L 1206,272 L 1206,271 L 1207,271 L 1207,270 L 1208,270 " />
<path d="M 1190,204 L 1191,205 L 1191,206 L 1191,207 L 1192,208 L 1192,209 L 1193,209 L 1193,210 L 1194,210 L 1194,211 L 1195,211 L 1195,212 L 1195,213 L 1194,213 L 1194,214 L 1195,215 L 1195,216 L 1194,217 L 1194,218 L 1193,219 L 1193,220 L 1193,221 L 1192,222 L 1192,223 L 1193,223 L 1193,224 L 1193,225 L 1193,226 L 1193,227 L 1193,228 L 1193,229 L 1192,230 L 1192,231 L 1192,232 L 1192,233 L 1193,234 L 1193,235 L 1193,236 L 1193,237 L 1193,238 L 1193,239 L 1194,239 L 1194,240 L 1194,241 L 1194,242 L 1194,243 L 1193,243 L 1193,244 L 1192,244 L 1191,244 L 1191,245 L 1192,245 L 1193,245 L 1192,245 L 1192,246 L 1191,247 L 1191,248 L 1191,249 L 1191,250 L 1192,250 L 1192,251 L 1193,251 L 1193,252 L 1193,253 L 1193,254 L 1194,254 L 1194,255 L 1195,255 L 1195,256 L 1196,257 L 1197,258 L 1197,259 L 1198,259 L 1198,260 L 1199,260 L 1200,261 L 1201,261 L 1202,261 L 1202,260 L 1203,259 L 1203,258 L 1204,258 L 1205,258 L 1206,257 L 1206,258 L 1207,258 L 1208,258 L 1209,259 L 1208,259 L 1207,260 L 1206,261 L 1206,262 L 1205,263 L 1205,264 L 1205,265 L 1205,266 L 1205,267 L 1204,267 L 1203,267 L 1203,268 L 1202,268 L 1202,269 L 1202,270 L 1202,271 L 1202,272 L 1203,272 L 1203,273 L 1204,273 L 1205,273 L 1205,272 L 1206,272 L 1206,273 L 1206,274 L 1206,275 L 1205,276 L 1204,276 L 1205,277 L 1204,277 L 1204,278 L 1203,278 L 1202,278 L 1203,279 L 1203,280 L 1202,280 L 1201,280 L 1201,281 L 1201,282 L 1202,282 L 1202,283 L 1202,284 L 1201,284 L 1200,284 L 1199,284 L 1199,285 L 1199,286 L 1199,287 L 1199,288 L 1200,288 L 1200,289 L 1200,290 L 1199,290 L 1199,291 L 1199,292 L 1198,292 L 1198,293 L 1198,294 L 1198,295 L 1197,296 L 1196,297 L 1195,298 L 1194,298 L 1193,298 L 1193,299 L 1192,299 L 1191,299 L 1190,299 L 1190,300 L 1190,299 L 1189,299 L 1189,300 L 1189,301 L 1190,301 L 1191,302 L 1191,303 L 1191,304 L 1190,305 L 1190,306 L 1189,306 L 1188,306 L 1188,307 L 1188,308 L 1189,308 L 1189,309 L 1188,310 L 1188,311 L 1188,312 L 1187,313 L 1186,313 L 1185,314 L 1184,313 L 1183,313 L 1182,313 L 1181,313 L 1181,314 L 1180,314 L 1179,314 L 1178,314 L 1177,314 L 1177,315 L 1177,316 L 1176,317 L 1176,318 L 1175,318 L 1174,318 L 1173,318 L 1173,319 L 1172,319 L 1171,319 L 1170,320 L 1171,321 L 1171,322 L 1171,323 L 1170,324 L 1170,325 L 1170,326 L 1170,327 L 1169,328 L 1168,328 L 1168,329 L 1167,329 L 1167,330 L 1167,331 L 1166,332 L 1165,332 L 1165,333 L 1165,334 L 1164,335 L 1164,336 L 1164,337 L 1164,338 L 1164,339 L 1164,340 L 1164,341 L 1164,342 L 1163,342 L 1163,343 L 1162,344 L 1162,345 L 1161,346 L 1161,347 L 1161,348 L 1161,349 L 1161,350 L 1160,350 L 1160,351 L 1159,351 L 1158,351 L 1158,352 L 1157,352 L 1156,352 L 1155,351 L 1154,351 L 1154,350 L 1153,350 L 1153,351 L 1152,351 L 1152,350 L 1151,350 L 1150,350 L 1150,349 L 1150,348 L 1150,347 L 1151,347 L 1151,346 L 1151,345 L 1151,344 L 1152,344 L 1152,343 L 1152,342 L 1152,341 L 1152,340 L 1153,340 L 1153,339 L 1152,339 L 1151,338 L 1151,337 L 1151,336 L 1152,335 L 1152,334 L 1153,333 L 1153,332 L 1153,331 L 1152,331 L 1151,332 L 1150,333 L 1149,333 L 1148,334 L 1148,333 L 1147,333 L 1146,334 L 1145,334 L 1144,334 L 1144,333 L 1144,332 L 1143,332 L 1142,332 L 1141,332 L 1140,333 L 1140,334 L 1139,334 L 1138,334 L 1137,334 L 1136,334 L 1135,334 L 1134,334 L 1134,335 L 1133,335 L 1132,334 L 1131,334 L 1130,334 L 1130,333 L 1129,333 L 1128,333 L 1127,333 L 1126,333 L 1125,333 L 1124,333 L 1124,332 L 1123,332 L 1123,331 L 1122,331 L 1121,330 L 1120,330 L 1119,330 L 1118,330 L 1117,330 L 1117,329 L 1118,329 L 1119,329 L 1119,328 L 1120,328 L 1121,328 L 1121,327 L 1122,327 L 1123,327 L 1124,327 L 1125,327 L 1125,326 L 1125,325 L 1126,325 L 1127,325 L 1127,324 L 1127,323 L 1128,323 L 1129,323 L 1129,322 L 1130,322 L 1130,321 L 1131,321 L 1132,320 L 1133,320 L 1134,321 L 1135,321 L 1136,321 L 1136,320 L 1136,319 L 1137,318 L 1138,318 L 1138,317 L 1139,317 L 1140,317 L 1141,317 L 1141,318 L 1142,318 L 1143,318 L 1144,317 L 1143,316 L 1143,315 L 1143,314 L 1144,314 L 1145,314 L 1146,314 L 1147,313 L 1146,313 L 1146,312 L 1147,312 L 1147,311 L 1146,311 L 1146,310 L 1145,310 L 1144,309 L 1145,308 L 1145,307 L 1146,307 L 1146,306 L 1147,306 L 1148,306 L 1149,305 L 1149,304 L 1150,304 L 1150,303 L 1151,303 L 1152,304 L 1152,303 L 1153,303 L 1153,302 L 1154,302 L 1155,302 L 1155,301 L 1155,300 L 1156,300 L 1156,299 L 1156,298 L 1157,298 L 1157,297 L 1157,296 L 1156,296 L 1156,295 L 1155,294 L 1155,293 L 1155,292 L 1155,291 L 1156,291 L 1157,291 L 1157,290 L 1157,289 L 1156,288 L 1155,289 L 1155,288 L 1155,287 L 1154,286 L 1153,286 L 1152,285 L 1151,284 L 1152,284 L 1153,284 L 1153,283 L 1152,283 L 1152,282 L 1153,281 L 1153,280 L 1152,280 L 1152,279 L 1153,278 L 1153,277 L 1154,277 L 1155,277 L 1156,278 L 1156,277 L 1157,277 L 1158,277 L 1158,278 L 1159,278 L 1160,278 L 1161,278 L 1162,278 L 1163,278 L 1163,277 L 1162,277 L 1161,276 L 1161,275 L 1162,274 L 1162,273 L 1162,272 L 1162,271 L 1161,271 L 1160,271 L 1159,271 L 1159,270 L 1158,270 L 1157,270 L 1156,270 L 1155,270 L 1155,269 L 1154,268 L 1153,268 L 1152,268 L 1152,267 L 1151,266 L 1151,265 L 1152,265 L 1152,264 L 1153,265 L 1154,265 L 1154,266 L 1155,266 L 1156,266 L 1156,265 L 1157,265 L 1158,266 L 1158,265 L 1158,264 L 1159,264 L 1159,263 L 1159,262 L 1158,261 L 1158,260 L 1158,259 L 1158,258 L 1159,258 L 1160,258 L 1161,258 L 1160,257 L 1159,257 L 1159,256 L 1159,255 L 1159,254 L 1158,253 L 1158,252 L 1158,251 L 1158,250 L 1159,250 L 1159,249 L 1159,248 L 1160,248 L 1160,247 L 1160,246 L 1161,246 L 1162,246 L 1162,245 L 1163,245 L 1164,245 L 1163,245 L 1163,244 L 1164,243 L 1165,242 L 1166,242 L 1167,242 L 1167,243 L 1168,243 L 1169,243 L 1170,243 L 1171,243 L 1172,244 L 1172,245 L 1173,245 L 1174,245 L 1174,244 L 1174,243 L 1174,242 L 1174,241 L 1174,240 L 1174,239 L 1173,238 L 1173,237 L 1173,236 L 1173,235 L 1174,235 L 1174,234 L 1174,235 L 1175,235 L 1175,236 L 1176,236 L 1177,236 L 1177,237 L 1177,236 L 1177,235 L 1177,234 L 1177,233 L 1176,233 L 1175,233 L 1175,232 L 1174,232 L 1175,231 L 1176,230 L 1177,230 L 1178,230 L 1177,229 L 1176,228 L 1177,228 L 1178,228 L 1178,227 L 1179,227 L 1180,227 L 1181,227 L 1181,226 L 1181,225 L 1180,225 L 1180,224 L 1180,223 L 1181,222 L 1180,222 L 1180,221 L 1181,221 L 1182,220 L 1183,220 L 1183,219 L 1184,219 L 1184,218 L 1183,218 L 1182,217 L 1181,217 L 1180,217 L 1179,216 L 1179,215 L 1180,215 L 1180,214 L 1181,214 L 1182,213 L 1182,212 L 1183,212 L 1182,212 L 1182,211 L 1183,210 L 1184,210 L 1184,209 L 1183,208 L 1184,208 L 1184,207 L 1183,206 L 1184,206 L 1184,205 L 1183,205 L 1183,204 L 1183,203 L 1184,203 L 1184,204 L 1185,204 L 1186,204 L 1186,203 L 1186,202 L 1187,202 L 1187,201 L 1187,200 L 1186,199 L 1187,199 L 1187,198 L 1187,197 L 1188,196 L 1188,195 L 1189,194 L 1189,195 L 1189,196 L 1189,197 L 1189,198 L 1188,199 L 1188,200 L 1189,202 L 1189,203 L 1189,204 L 1190,204 " />
<path d="M 1199,77 L 1200,77 L 1200,78 L 1200,79 L 1199,79 L 1199,80 L 1198,79 L 1197,79 L 1196,78 L 1195,78 L 1196,77 L 1197,77 L 1198,77 L 1199,77 " />
<path d="M 1207,45 L 1206,45 L 1206,44 L 1207,44 L 1208,44 L 1208,45 L 1207,45 " />
<path d="M 1204,30 L 1204,31 L 1203,32 L 1204,33 L 1204,34 L 1204,35 L 1203,35 L 1203,36 L 1202,36 L 1202,37 L 1202,38 L 1201,38 L 1201,39 L 1201,40 L 1201,42 L 1202,42 L 1203,42 L 1203,43 L 1204,43 L 1205,42 L 1206,42 L 1206,43 L 1205,43 L 1205,44 L 1205,45 L 1205,46 L 1204,46 L 1204,47 L 1204,48 L 1203,49 L 1203,50 L 1202,50 L 1202,51 L 1201,51 L 1201,52 L 1202,52 L 1203,52 L 1203,53 L 1202,53 L 1202,54 L 1201,55 L 1200,55 L 1200,56 L 1199,56 L 1198,56 L 1198,55 L 1197,55 L 1197,56 L 1196,56 L 1195,56 L 1195,55 L 1194,55 L 1194,54 L 1193,53 L 1192,53 L 1191,53 L 1190,53 L 1190,54 L 1189,54 L 1189,53 L 1188,52 L 1188,51 L 1188,50 L 1188,49 L 1188,48 L 1188,47 L 1188,46 L 1188,45 L 1188,44 L 1189,44 L 1189,43 L 1189,42 L 1189,41 L 1190,41 L 1190,40 L 1191,39 L 1191,38 L 1192,37 L 1193,37 L 1193,36 L 1194,35 L 1194,34 L 1195,34 L 1195,33 L 1196,33 L 1197,32 L 1198,31 L 1198,30 L 1199,30 L 1200,30 L 1201,30 L 1201,29 L 1202,29 L 1203,28 L 1203,27 L 1204,26 L 1205,26 L 1205,27 L 1206,28 L 1206,29 L 1205,29 L 1205,30 L 1204,30 " />
</g>
</g>
</g>
<!-- QGIS extent for clipping, eg in Inkscape -->
<g id="qgisviewbox" inkscape:groupmode="layer" inkscape:label="qgisviewbox" stroke="rgb(255,0,0)" stroke-width="1" fill="none" >
<path d="M 0,1114 L 2010,1114 L 2010,0 L 0,0 L 0,1114 " />
</g></svg>