<?xml version="1.0" standalone="no"?>
<!DOCTYPE svg PUBLIC "-//W3C//DTD SVG 1.1//EN" "http://www.w3.org/Graphics/SVG/1.1/DTD/svg11.dtd">
<svg xmlns="http://www.w3.org/2000/svg" xmlns:inkscape="http://www.inkscape.org/namespaces/inkscape" xmlns:xlink="http://www.w3.org/1999/xlink" viewBox = "0 0 2013 1116" version = "1.1">
<!-- svg generated using QGIS www.qgis.org -->
<g id="union_lektiko_δημοσ_αλιμου" inkscape:groupmode="layer" inkscape:label="union_lektiko_δημοσ_αλιμου">
<g stroke="none" fill="rgb(167,212,125)" stroke-linejoin="round" stroke-width="0.26">
<g id="union_lektiko_δημοσ_αλιμου_1" >
<path d="M 1686,385 L 1689,500 L 1685,520 L 1644,466 L 1631,544 L 1606,625 L 1527,631 L 1496,623 L 1458,633 L 1438,655 L 1433,684 L 1435,817 L 1482,814 L 1476,917 L 1469,954 L 1407,932 L 1375,932 L 1251,980 L 1037,1020 L 874,1087 L 872,1086 L 862,1068 L 866,1056 L 875,1047 L 883,1046 L 896,1037 L 902,1016 L 896,996 L 889,985 L 887,980 L 881,971 L 879,962 L 867,941 L 858,925 L 849,918 L 833,905 L 823,883 L 815,867 L 806,850 L 796,836 L 779,821 L 762,796 L 752,781 L 737,763 L 721,752 L 705,744 L 690,745 L 680,751 L 675,758 L 676,764 L 679,771 L 676,774 L 663,765 L 653,761 L 639,756 L 627,739 L 619,723 L 609,710 L 601,702 L 597,699 L 441,690 L 441,683 L 549,689 L 552,686 L 556,682 L 569,680 L 576,675 L 573,669 L 563,667 L 553,664 L 550,657 L 556,653 L 563,648 L 568,639 L 572,640 L 578,651 L 588,658 L 598,650 L 603,636 L 597,625 L 584,627 L 575,628 L 566,615 L 555,598 L 543,583 L 531,566 L 516,550 L 491,533 L 479,534 L 468,529 L 462,521 L 455,511 L 441,503 L 430,504 L 417,507 L 406,498 L 406,485 L 402,475 L 391,479 L 375,488 L 363,502 L 351,525 L 340,549 L 335,569 L 392,654 L 384,660 L 322,568 L 321,563 L 321,547 L 321,529 L 327,508 L 331,491 L 336,474 L 339,460 L 410,420 L 454,293 L 479,273 L 556,334 L 658,366 L 835,318 L 908,277 L 922,285 L 996,321 L 1094,368 L 1123,388 L 1130,389 L 1136,389 L 1210,301 L 1242,254 L 1283,253 L 1367,247 L 1374,242 L 1377,231 L 1381,191 L 1397,151 L 1451,84 L 1457,77 L 1470,67 L 1489,63 L 1582,59 L 1594,56 L 1635,46 L 1685,26 L 1686,385 " />
</g>
</g>
</g>
<!-- QGIS extent for clipping, eg in Inkscape -->
<g id="qgisviewbox" inkscape:groupmode="layer" inkscape:label="qgisviewbox" stroke="rgb(255,0,0)" stroke-width="1" fill="none" >
<path d="M 0,1114 L 2010,1114 L 2010,0 L 0,0 L 0,1114 " />
</g></svg>