<?xml version="1.0" standalone="no"?>
<!DOCTYPE svg PUBLIC "-//W3C//DTD SVG 1.1//EN" "http://www.w3.org/Graphics/SVG/1.1/DTD/svg11.dtd">
<svg xmlns="http://www.w3.org/2000/svg" xmlns:inkscape="http://www.inkscape.org/namespaces/inkscape" xmlns:xlink="http://www.w3.org/1999/xlink" viewBox = "0 0 2013 1116" version = "1.1">
<!-- svg generated using QGIS www.qgis.org -->
<g id="union_lektiko_δημοσ_αμπελοκηπων_-_μενεμενησ" inkscape:groupmode="layer" inkscape:label="union_lektiko_δημοσ_αμπελοκηπων_-_μενεμενησ">
<g stroke="none" fill="rgb(27,199,173)" stroke-linejoin="round" stroke-width="0.26">
<g id="union_lektiko_δημοσ_αμπελοκηπων_-_μενεμενησ_1" >
<path d="M 384,37 L 386,56 L 387,60 L 389,63 L 391,67 L 394,70 L 399,75 L 409,83 L 414,87 L 416,88 L 417,89 L 431,96 L 441,99 L 444,99 L 448,99 L 467,114 L 485,131 L 491,135 L 502,144 L 514,156 L 523,165 L 527,169 L 536,182 L 542,190 L 552,205 L 560,214 L 571,230 L 578,239 L 581,242 L 592,261 L 599,271 L 611,292 L 614,298 L 616,302 L 619,310 L 627,337 L 629,342 L 632,348 L 634,352 L 636,356 L 639,359 L 642,362 L 645,364 L 649,367 L 659,372 L 668,378 L 677,382 L 683,384 L 687,385 L 691,385 L 697,385 L 705,384 L 714,383 L 728,380 L 737,378 L 749,378 L 757,379 L 770,382 L 775,383 L 777,384 L 780,386 L 787,391 L 790,393 L 794,395 L 803,397 L 809,399 L 817,404 L 822,406 L 829,410 L 832,413 L 836,416 L 846,427 L 850,431 L 857,437 L 865,443 L 873,449 L 877,452 L 883,458 L 887,450 L 890,445 L 891,439 L 892,437 L 892,433 L 891,425 L 890,421 L 890,419 L 887,414 L 883,407 L 881,404 L 879,400 L 878,396 L 877,390 L 877,384 L 878,369 L 879,359 L 880,354 L 881,350 L 883,347 L 885,343 L 888,340 L 892,337 L 896,336 L 900,336 L 907,336 L 916,338 L 924,340 L 929,343 L 936,347 L 945,354 L 959,366 L 964,370 L 973,376 L 983,383 L 997,393 L 1001,396 L 1005,397 L 1009,399 L 1014,400 L 1027,402 L 1039,415 L 1039,416 L 1042,420 L 1056,443 L 1060,450 L 1062,457 L 1063,459 L 1066,464 L 1070,468 L 1074,472 L 1081,483 L 1087,495 L 1091,502 L 1099,513 L 1113,529 L 1123,541 L 1128,548 L 1133,557 L 1137,562 L 1140,565 L 1142,566 L 1143,566 L 1146,567 L 1150,567 L 1153,566 L 1156,565 L 1158,564 L 1160,562 L 1164,558 L 1169,552 L 1173,547 L 1182,537 L 1187,533 L 1197,523 L 1203,519 L 1210,514 L 1216,511 L 1225,508 L 1231,505 L 1238,502 L 1256,492 L 1260,491 L 1265,489 L 1285,483 L 1307,477 L 1320,474 L 1335,471 L 1354,468 L 1357,500 L 1365,514 L 1371,527 L 1375,533 L 1379,538 L 1395,553 L 1399,556 L 1408,562 L 1424,572 L 1423,576 L 1423,578 L 1422,580 L 1421,581 L 1410,590 L 1408,593 L 1406,596 L 1405,599 L 1405,603 L 1405,606 L 1406,609 L 1408,614 L 1410,620 L 1413,624 L 1416,628 L 1418,632 L 1421,644 L 1428,653 L 1434,662 L 1439,671 L 1443,679 L 1446,683 L 1449,691 L 1451,697 L 1452,701 L 1454,709 L 1452,717 L 1453,725 L 1452,726 L 1448,733 L 1442,741 L 1437,746 L 1431,751 L 1419,757 L 1404,755 L 1397,754 L 1391,753 L 1374,748 L 1365,745 L 1355,741 L 1349,738 L 1346,736 L 1334,729 L 1329,726 L 1316,719 L 1304,714 L 1270,700 L 1256,695 L 1243,690 L 1239,689 L 1230,684 L 1222,682 L 1219,681 L 1217,682 L 1214,682 L 1212,684 L 1209,686 L 1207,689 L 1206,693 L 1202,703 L 1196,717 L 1179,755 L 1172,771 L 1168,781 L 1165,788 L 1160,799 L 1154,803 L 1150,806 L 1147,807 L 1144,808 L 1141,808 L 1138,808 L 1135,806 L 1131,804 L 1123,799 L 1115,782 L 1109,771 L 1105,759 L 1103,755 L 1099,748 L 1097,746 L 1095,745 L 1091,744 L 1088,743 L 1085,744 L 1083,745 L 1082,746 L 1080,749 L 1078,753 L 1077,758 L 1077,764 L 1077,774 L 1077,786 L 1078,798 L 1078,806 L 1080,822 L 1083,842 L 1084,857 L 1087,880 L 1087,886 L 1088,894 L 1087,922 L 1090,930 L 1088,936 L 1087,940 L 1085,945 L 1082,950 L 1081,955 L 1081,959 L 1081,962 L 1082,967 L 1083,970 L 1084,975 L 1084,982 L 1081,980 L 1076,979 L 1073,977 L 1067,973 L 1064,972 L 1059,971 L 1055,971 L 1050,971 L 1047,971 L 1042,971 L 1034,972 L 1027,972 L 1026,970 L 1027,964 L 1027,961 L 1026,957 L 1025,954 L 1022,953 L 1018,951 L 1013,948 L 1006,945 L 999,943 L 990,941 L 984,941 L 976,941 L 968,941 L 963,941 L 956,945 L 948,948 L 942,951 L 937,952 L 932,952 L 925,952 L 920,955 L 914,956 L 906,959 L 900,962 L 891,964 L 887,971 L 884,977 L 884,982 L 883,987 L 883,994 L 883,1000 L 884,1003 L 885,1007 L 887,1013 L 889,1024 L 890,1029 L 890,1036 L 888,1041 L 884,1043 L 876,1047 L 870,1049 L 862,1052 L 861,1057 L 860,1062 L 857,1065 L 854,1065 L 849,1065 L 845,1064 L 841,1064 L 834,1060 L 824,1059 L 819,1060 L 815,1062 L 808,1064 L 795,1061 L 787,1060 L 781,1058 L 777,1056 L 773,1055 L 769,1055 L 763,1054 L 760,1054 L 757,1054 L 751,1054 L 745,1055 L 739,1057 L 736,1057 L 731,1058 L 724,1061 L 719,1063 L 713,1065 L 707,1069 L 702,1073 L 696,1077 L 691,1080 L 687,1083 L 681,1086 L 679,1087 L 677,1079 L 672,1072 L 670,1056 L 666,1043 L 658,1012 L 657,1011 L 652,990 L 645,968 L 638,942 L 630,917 L 618,879 L 610,848 L 605,833 L 597,813 L 590,789 L 582,768 L 564,732 L 555,709 L 544,688 L 533,665 L 525,642 L 524,639 L 518,619 L 500,564 L 497,556 L 480,516 L 476,508 L 472,503 L 466,498 L 457,493 L 444,486 L 432,482 L 398,471 L 361,460 L 341,453 L 308,445 L 256,430 L 203,413 L 183,404 L 176,389 L 185,376 L 187,355 L 191,341 L 194,325 L 207,317 L 210,304 L 211,287 L 212,274 L 214,259 L 217,249 L 226,220 L 229,203 L 230,196 L 229,189 L 225,165 L 224,156 L 225,151 L 226,147 L 230,137 L 231,135 L 237,127 L 265,96 L 266,95 L 281,82 L 293,73 L 319,55 L 336,46 L 351,39 L 352,40 L 381,26 L 384,37 " />
</g>
<g id="union_lektiko_δημοσ_αμπελοκηπων_-_μενεμενησ_2" >
<path d="M 1354,468 L 1371,468 L 1388,468 L 1427,466 L 1462,463 L 1504,460 L 1545,457 L 1558,473 L 1570,486 L 1591,510 L 1626,545 L 1650,560 L 1658,566 L 1701,583 L 1710,585 L 1743,591 L 1779,592 L 1811,594 L 1820,651 L 1831,679 L 1834,705 L 1814,706 L 1799,711 L 1798,722 L 1799,722 L 1798,728 L 1798,738 L 1798,763 L 1798,768 L 1798,773 L 1794,789 L 1792,807 L 1785,813 L 1780,817 L 1773,820 L 1765,823 L 1747,827 L 1714,832 L 1695,835 L 1688,836 L 1678,838 L 1654,844 L 1647,846 L 1641,847 L 1634,847 L 1630,847 L 1626,847 L 1619,846 L 1612,843 L 1596,835 L 1586,831 L 1576,827 L 1572,824 L 1559,816 L 1553,811 L 1548,807 L 1535,798 L 1530,793 L 1526,790 L 1521,785 L 1513,779 L 1503,768 L 1482,749 L 1473,741 L 1464,730 L 1453,725 L 1452,717 L 1454,709 L 1452,701 L 1451,697 L 1449,691 L 1446,683 L 1443,679 L 1439,671 L 1434,662 L 1428,653 L 1421,644 L 1418,632 L 1416,628 L 1413,624 L 1410,620 L 1408,614 L 1406,609 L 1405,606 L 1405,603 L 1405,599 L 1406,596 L 1408,593 L 1410,590 L 1421,581 L 1422,580 L 1423,578 L 1423,576 L 1424,572 L 1408,562 L 1399,556 L 1395,553 L 1379,538 L 1375,533 L 1371,527 L 1365,514 L 1357,500 L 1354,468 " />
</g>
</g>
</g>
<!-- QGIS extent for clipping, eg in Inkscape -->
<g id="qgisviewbox" inkscape:groupmode="layer" inkscape:label="qgisviewbox" stroke="rgb(255,0,0)" stroke-width="1" fill="none" >
<path d="M 0,1114 L 2011,1114 L 2011,0 L 0,0 L 0,1114 " />
</g></svg>