<?xml version="1.0" standalone="no"?>
<!DOCTYPE svg PUBLIC "-//W3C//DTD SVG 1.1//EN" "http://www.w3.org/Graphics/SVG/1.1/DTD/svg11.dtd">
<svg xmlns="http://www.w3.org/2000/svg" xmlns:inkscape="http://www.inkscape.org/namespaces/inkscape" xmlns:xlink="http://www.w3.org/1999/xlink" viewBox = "0 0 2013 1116" version = "1.1">
<!-- svg generated using QGIS www.qgis.org -->
<g id="union_lektiko_δημοσ_αμαρουσιου" inkscape:groupmode="layer" inkscape:label="union_lektiko_δημοσ_αμαρουσιου">
<g stroke="none" fill="rgb(51,144,99)" stroke-linejoin="round" stroke-width="0.26">
<g id="union_lektiko_δημοσ_αμαρουσιου_1" >
<path d="M 1019,97 L 1027,101 L 1045,99 L 1057,111 L 1061,114 L 1072,124 L 1077,125 L 1081,126 L 1090,123 L 1118,86 L 1135,77 L 1156,74 L 1232,70 L 1251,70 L 1313,103 L 1348,130 L 1366,142 L 1377,151 L 1380,153 L 1399,173 L 1408,174 L 1414,172 L 1423,167 L 1425,166 L 1433,166 L 1484,204 L 1485,221 L 1487,228 L 1492,231 L 1494,231 L 1528,231 L 1533,234 L 1535,240 L 1534,249 L 1528,311 L 1523,316 L 1496,326 L 1484,335 L 1477,349 L 1472,379 L 1471,380 L 1471,393 L 1475,401 L 1508,420 L 1516,428 L 1519,450 L 1495,497 L 1484,519 L 1481,524 L 1488,533 L 1523,557 L 1527,559 L 1528,561 L 1530,565 L 1530,566 L 1528,573 L 1512,590 L 1508,590 L 1494,590 L 1490,593 L 1494,629 L 1462,641 L 1435,657 L 1426,667 L 1409,683 L 1401,697 L 1392,713 L 1382,745 L 1378,761 L 1370,797 L 1361,818 L 1354,835 L 1343,836 L 1322,854 L 1292,870 L 1260,894 L 1221,898 L 1201,912 L 1195,914 L 1179,909 L 1170,919 L 1166,920 L 1132,900 L 1127,900 L 1122,907 L 1118,908 L 1092,894 L 1088,896 L 1082,907 L 1078,909 L 1022,879 L 1015,882 L 1005,893 L 989,910 L 979,914 L 975,910 L 965,886 L 948,871 L 937,870 L 926,884 L 921,885 L 894,868 L 870,857 L 850,848 L 842,853 L 839,858 L 820,886 L 817,889 L 794,927 L 761,968 L 761,969 L 748,991 L 736,1033 L 735,1050 L 733,1063 L 732,1087 L 646,1018 L 623,1001 L 581,972 L 581,959 L 582,957 L 581,943 L 576,883 L 576,882 L 574,866 L 574,858 L 570,836 L 568,823 L 552,774 L 532,732 L 484,668 L 475,658 L 485,648 L 501,625 L 521,597 L 548,549 L 559,534 L 572,515 L 575,511 L 589,502 L 607,498 L 617,493 L 626,484 L 633,470 L 640,447 L 666,453 L 692,437 L 700,438 L 705,438 L 789,470 L 798,469 L 801,468 L 820,425 L 834,376 L 833,363 L 820,336 L 819,325 L 829,303 L 835,291 L 837,288 L 845,286 L 858,292 L 872,296 L 878,285 L 880,280 L 881,279 L 898,266 L 899,266 L 911,186 L 914,179 L 916,175 L 929,163 L 944,159 L 955,157 L 965,154 L 962,113 L 966,71 L 974,46 L 982,27 L 982,26 L 996,33 L 1003,44 L 1003,63 L 1008,83 L 1019,97 " />
</g>
</g>
</g>
<!-- QGIS extent for clipping, eg in Inkscape -->
<g id="qgisviewbox" inkscape:groupmode="layer" inkscape:label="qgisviewbox" stroke="rgb(255,0,0)" stroke-width="1" fill="none" >
<path d="M 0,1114 L 2011,1114 L 2011,0 L 0,0 L 0,1114 " />
</g></svg>