<?xml version="1.0" standalone="no"?>
<!DOCTYPE svg PUBLIC "-//W3C//DTD SVG 1.1//EN" "http://www.w3.org/Graphics/SVG/1.1/DTD/svg11.dtd">
<svg xmlns="http://www.w3.org/2000/svg" xmlns:inkscape="http://www.inkscape.org/namespaces/inkscape" xmlns:xlink="http://www.w3.org/1999/xlink" viewBox = "0 0 2013 1116" version = "1.1">
<!-- svg generated using QGIS www.qgis.org -->
<g id="union_lektiko_δημοσ_αμαριου" inkscape:groupmode="layer" inkscape:label="union_lektiko_δημοσ_αμαριου">
<g stroke="none" fill="rgb(177,94,10)" stroke-linejoin="round" stroke-width="0.26">
<g id="union_lektiko_δημοσ_αμαριου_1" >
<path d="M 1364,303 L 1367,312 L 1385,343 L 1387,345 L 1403,362 L 1418,381 L 1420,385 L 1423,388 L 1431,405 L 1435,411 L 1437,414 L 1439,415 L 1439,416 L 1449,420 L 1472,425 L 1477,427 L 1481,429 L 1499,436 L 1504,439 L 1507,441 L 1520,451 L 1530,456 L 1534,456 L 1534,457 L 1538,456 L 1546,456 L 1554,454 L 1561,451 L 1564,448 L 1566,447 L 1566,452 L 1569,466 L 1571,473 L 1573,482 L 1575,490 L 1582,508 L 1586,528 L 1587,535 L 1588,548 L 1590,556 L 1592,568 L 1594,591 L 1595,602 L 1598,624 L 1602,639 L 1603,644 L 1605,662 L 1605,666 L 1604,669 L 1603,671 L 1602,677 L 1598,687 L 1597,689 L 1597,690 L 1594,695 L 1589,703 L 1572,723 L 1569,727 L 1565,732 L 1563,736 L 1560,744 L 1559,747 L 1558,751 L 1558,756 L 1560,765 L 1559,769 L 1560,779 L 1564,790 L 1564,791 L 1565,802 L 1566,803 L 1566,804 L 1565,808 L 1565,809 L 1565,818 L 1565,824 L 1564,834 L 1563,840 L 1561,844 L 1558,849 L 1556,852 L 1555,854 L 1552,859 L 1550,863 L 1549,868 L 1550,875 L 1549,883 L 1548,891 L 1547,896 L 1546,899 L 1545,904 L 1544,910 L 1545,915 L 1545,916 L 1546,922 L 1546,930 L 1546,933 L 1546,936 L 1546,940 L 1545,948 L 1546,952 L 1548,960 L 1547,960 L 1551,968 L 1551,971 L 1553,974 L 1554,974 L 1559,981 L 1562,984 L 1562,988 L 1563,996 L 1560,1001 L 1560,1005 L 1555,1016 L 1554,1019 L 1549,1024 L 1547,1026 L 1543,1029 L 1542,1029 L 1532,1034 L 1528,1035 L 1527,1035 L 1523,1035 L 1520,1034 L 1515,1032 L 1508,1026 L 1506,1024 L 1503,1022 L 1498,1021 L 1493,1023 L 1486,1027 L 1479,1026 L 1478,1025 L 1477,1023 L 1471,1016 L 1470,1012 L 1469,1011 L 1467,1008 L 1462,1002 L 1459,1000 L 1456,1001 L 1454,1005 L 1453,1008 L 1450,1014 L 1445,1022 L 1437,1032 L 1430,1037 L 1422,1040 L 1413,1042 L 1407,1044 L 1405,1044 L 1384,1050 L 1380,1052 L 1374,1053 L 1369,1054 L 1366,1056 L 1359,1059 L 1355,1058 L 1342,1058 L 1334,1059 L 1329,1059 L 1322,1060 L 1318,1059 L 1314,1056 L 1312,1055 L 1307,1054 L 1305,1055 L 1305,1057 L 1304,1060 L 1304,1066 L 1304,1067 L 1301,1073 L 1299,1076 L 1298,1076 L 1292,1078 L 1286,1075 L 1279,1075 L 1274,1076 L 1274,1077 L 1268,1080 L 1263,1082 L 1261,1082 L 1250,1085 L 1242,1086 L 1238,1087 L 1231,1087 L 1224,1086 L 1220,1084 L 1217,1080 L 1211,1059 L 1203,1047 L 1200,1045 L 1195,1044 L 1194,1043 L 1190,1041 L 1187,1041 L 1182,1042 L 1178,1034 L 1175,1031 L 1183,1026 L 1190,1020 L 1194,1015 L 1195,1012 L 1197,1003 L 1196,995 L 1190,988 L 1169,973 L 1155,955 L 1149,942 L 1141,915 L 1138,909 L 1132,909 L 1108,913 L 1102,917 L 1098,920 L 1094,923 L 1091,923 L 1088,921 L 1086,916 L 1085,911 L 1091,894 L 1092,886 L 1088,876 L 1080,865 L 1077,859 L 1078,846 L 1081,837 L 1084,831 L 1087,826 L 1094,816 L 1094,803 L 1101,790 L 1103,781 L 1103,778 L 1108,770 L 1109,766 L 1107,757 L 1106,747 L 1105,745 L 1099,738 L 1097,735 L 1099,732 L 1110,727 L 1114,723 L 1114,720 L 1112,714 L 1112,710 L 1114,706 L 1128,692 L 1129,687 L 1125,682 L 1126,682 L 1122,678 L 1121,675 L 1113,656 L 1111,653 L 1107,655 L 1097,661 L 1092,661 L 1086,655 L 1081,651 L 1063,634 L 1047,622 L 1028,607 L 1012,601 L 997,600 L 991,599 L 990,598 L 986,596 L 976,587 L 971,585 L 955,580 L 943,574 L 934,571 L 928,569 L 928,565 L 932,530 L 932,520 L 930,515 L 939,510 L 954,509 L 959,505 L 971,497 L 980,492 L 989,489 L 990,489 L 1008,486 L 1015,482 L 1017,482 L 1019,480 L 1032,469 L 1051,449 L 1057,441 L 1059,439 L 1062,434 L 1060,433 L 1053,429 L 1044,426 L 1038,424 L 1034,424 L 1025,419 L 1019,415 L 1028,409 L 1039,402 L 1039,401 L 1047,395 L 1050,390 L 1058,376 L 1063,371 L 1064,370 L 1081,357 L 1086,351 L 1098,340 L 1108,334 L 1142,328 L 1147,328 L 1208,324 L 1233,319 L 1243,316 L 1262,311 L 1269,310 L 1288,310 L 1311,311 L 1334,309 L 1345,309 L 1364,303 " />
</g>
<g id="union_lektiko_δημοσ_αμαριου_2" >
<path d="M 606,45 L 611,46 L 614,46 L 624,40 L 635,35 L 638,34 L 640,33 L 648,32 L 649,31 L 652,31 L 659,31 L 664,33 L 672,36 L 678,40 L 687,45 L 697,50 L 701,52 L 705,54 L 710,56 L 716,58 L 723,58 L 728,58 L 739,54 L 750,52 L 753,50 L 757,44 L 759,43 L 762,50 L 773,72 L 775,75 L 780,79 L 783,82 L 792,80 L 796,81 L 797,81 L 809,82 L 810,82 L 822,80 L 832,82 L 860,88 L 865,90 L 871,95 L 880,100 L 900,103 L 915,103 L 921,102 L 925,101 L 927,100 L 934,96 L 947,81 L 951,73 L 955,56 L 956,52 L 960,57 L 963,60 L 979,75 L 1000,102 L 1004,106 L 1015,117 L 1033,130 L 1037,134 L 1045,138 L 1075,149 L 1099,156 L 1113,161 L 1122,163 L 1131,163 L 1145,165 L 1151,166 L 1160,170 L 1167,174 L 1180,181 L 1203,189 L 1214,194 L 1233,203 L 1242,210 L 1254,215 L 1261,218 L 1273,221 L 1280,223 L 1287,224 L 1297,223 L 1302,222 L 1310,221 L 1317,221 L 1325,225 L 1333,232 L 1338,237 L 1342,241 L 1354,253 L 1367,263 L 1379,269 L 1385,276 L 1393,285 L 1395,289 L 1388,293 L 1364,303 L 1345,309 L 1334,309 L 1311,311 L 1288,310 L 1269,310 L 1262,311 L 1243,316 L 1233,319 L 1208,324 L 1147,328 L 1142,328 L 1108,334 L 1098,340 L 1086,351 L 1081,357 L 1064,370 L 1063,371 L 1058,376 L 1050,390 L 1047,395 L 1039,401 L 1039,402 L 1028,409 L 1019,415 L 1025,419 L 1034,424 L 1038,424 L 1044,426 L 1053,429 L 1060,433 L 1062,434 L 1059,439 L 1057,441 L 1051,449 L 1032,469 L 1019,480 L 1017,482 L 1015,482 L 1008,486 L 990,489 L 989,489 L 980,492 L 971,497 L 959,505 L 954,509 L 939,510 L 930,515 L 932,520 L 932,530 L 928,565 L 928,569 L 934,571 L 943,574 L 955,580 L 971,585 L 976,587 L 986,596 L 990,598 L 991,599 L 997,600 L 1012,601 L 1028,607 L 1047,622 L 1063,634 L 1081,651 L 1086,655 L 1092,661 L 1097,661 L 1107,655 L 1111,653 L 1113,656 L 1121,675 L 1122,678 L 1126,682 L 1125,682 L 1129,687 L 1128,692 L 1114,706 L 1112,710 L 1112,714 L 1114,720 L 1114,723 L 1110,727 L 1099,732 L 1097,735 L 1099,738 L 1105,745 L 1106,747 L 1107,757 L 1109,766 L 1108,770 L 1103,778 L 1103,781 L 1101,790 L 1094,803 L 1094,816 L 1087,826 L 1084,831 L 1080,829 L 1069,825 L 1055,821 L 1040,818 L 1035,818 L 1031,817 L 1007,806 L 1006,805 L 993,803 L 986,803 L 981,802 L 959,795 L 953,794 L 944,792 L 928,791 L 926,791 L 912,794 L 903,791 L 896,787 L 879,773 L 857,759 L 827,744 L 796,728 L 778,718 L 770,712 L 742,688 L 738,683 L 738,679 L 729,676 L 719,673 L 695,657 L 674,647 L 666,644 L 663,643 L 660,643 L 641,639 L 594,626 L 566,615 L 554,610 L 553,606 L 554,605 L 556,602 L 557,599 L 555,595 L 553,590 L 552,585 L 553,583 L 557,573 L 557,564 L 553,548 L 548,532 L 540,517 L 536,513 L 534,512 L 526,510 L 512,510 L 501,509 L 497,507 L 494,502 L 492,499 L 492,495 L 489,480 L 482,464 L 477,457 L 473,454 L 472,453 L 455,438 L 447,433 L 445,432 L 441,426 L 441,424 L 441,422 L 445,415 L 458,404 L 463,400 L 462,394 L 461,388 L 459,358 L 457,350 L 454,345 L 441,333 L 438,331 L 437,331 L 431,331 L 417,338 L 414,336 L 412,334 L 411,332 L 412,332 L 409,328 L 405,326 L 410,323 L 418,319 L 420,315 L 422,311 L 425,308 L 427,307 L 430,306 L 434,301 L 435,297 L 428,290 L 419,287 L 417,285 L 415,283 L 414,269 L 414,265 L 415,262 L 417,258 L 424,253 L 429,247 L 433,241 L 434,240 L 435,235 L 433,229 L 434,229 L 428,219 L 425,213 L 425,212 L 424,209 L 425,207 L 429,203 L 433,201 L 451,190 L 463,184 L 507,163 L 512,161 L 510,156 L 503,154 L 495,152 L 474,145 L 461,144 L 453,147 L 446,150 L 437,156 L 432,159 L 430,156 L 419,134 L 415,118 L 414,118 L 413,110 L 416,108 L 438,93 L 444,88 L 464,66 L 466,64 L 473,54 L 472,54 L 473,49 L 478,47 L 482,46 L 485,45 L 493,40 L 526,28 L 533,26 L 539,26 L 559,26 L 572,28 L 579,31 L 597,41 L 602,43 L 606,45 " />
</g>
</g>
</g>
<!-- QGIS extent for clipping, eg in Inkscape -->
<g id="qgisviewbox" inkscape:groupmode="layer" inkscape:label="qgisviewbox" stroke="rgb(255,0,0)" stroke-width="1" fill="none" >
<path d="M 0,1114 L 2010,1114 L 2010,0 L 0,0 L 0,1114 " />
</g></svg>