<?xml version="1.0" standalone="no"?>
<!DOCTYPE svg PUBLIC "-//W3C//DTD SVG 1.1//EN" "http://www.w3.org/Graphics/SVG/1.1/DTD/svg11.dtd">
<svg xmlns="http://www.w3.org/2000/svg" xmlns:inkscape="http://www.inkscape.org/namespaces/inkscape" xmlns:xlink="http://www.w3.org/1999/xlink" viewBox = "0 0 2013 1116" version = "1.1">
<!-- svg generated using QGIS www.qgis.org -->
<g id="union_lektiko_δημοσ_αμφιπολησ" inkscape:groupmode="layer" inkscape:label="union_lektiko_δημοσ_αμφιπολησ">
<g stroke="none" fill="rgb(183,141,123)" stroke-linejoin="round" stroke-width="0.26">
<g id="union_lektiko_δημοσ_αμφιπολησ_1" >
<path d="M 1424,506 L 1423,508 L 1423,509 L 1423,511 L 1425,514 L 1426,518 L 1428,524 L 1430,531 L 1432,534 L 1434,539 L 1435,544 L 1436,547 L 1437,551 L 1439,554 L 1442,560 L 1445,565 L 1446,567 L 1446,568 L 1447,571 L 1449,575 L 1450,579 L 1452,583 L 1451,584 L 1450,584 L 1448,584 L 1441,584 L 1437,585 L 1435,585 L 1432,586 L 1429,588 L 1424,589 L 1421,589 L 1419,589 L 1416,589 L 1411,587 L 1405,586 L 1401,585 L 1396,584 L 1391,583 L 1386,583 L 1383,583 L 1380,584 L 1378,585 L 1377,587 L 1376,589 L 1374,591 L 1371,593 L 1367,596 L 1364,598 L 1359,601 L 1357,602 L 1355,602 L 1354,602 L 1351,601 L 1350,600 L 1348,600 L 1347,600 L 1345,600 L 1342,603 L 1338,605 L 1337,607 L 1336,609 L 1335,611 L 1335,612 L 1334,615 L 1334,616 L 1336,619 L 1337,621 L 1339,624 L 1341,628 L 1342,630 L 1343,632 L 1342,633 L 1340,635 L 1335,638 L 1327,642 L 1321,645 L 1317,648 L 1314,650 L 1310,654 L 1307,657 L 1305,659 L 1304,660 L 1299,663 L 1293,667 L 1289,671 L 1287,674 L 1286,677 L 1285,679 L 1283,680 L 1281,683 L 1279,684 L 1278,686 L 1278,689 L 1276,691 L 1275,693 L 1272,694 L 1270,695 L 1267,695 L 1266,695 L 1264,693 L 1263,691 L 1262,688 L 1260,685 L 1258,684 L 1255,682 L 1254,682 L 1250,681 L 1245,681 L 1242,682 L 1239,681 L 1234,680 L 1229,679 L 1220,679 L 1212,677 L 1206,676 L 1196,676 L 1185,675 L 1177,674 L 1168,674 L 1159,673 L 1151,673 L 1151,672 L 1148,672 L 1146,671 L 1142,669 L 1132,664 L 1126,663 L 1120,662 L 1115,661 L 1107,660 L 1098,657 L 1085,653 L 1070,648 L 1064,645 L 1053,640 L 1044,637 L 1036,635 L 1028,633 L 1020,631 L 1015,630 L 1011,630 L 1007,629 L 1003,628 L 992,626 L 984,624 L 979,624 L 975,625 L 969,625 L 962,625 L 953,624 L 945,623 L 939,621 L 932,618 L 927,615 L 922,612 L 917,607 L 915,606 L 912,605 L 904,606 L 899,607 L 897,608 L 893,612 L 888,616 L 884,617 L 879,617 L 873,614 L 867,611 L 864,610 L 858,610 L 852,611 L 848,611 L 847,610 L 846,609 L 846,608 L 845,607 L 844,604 L 841,598 L 839,590 L 837,581 L 834,569 L 831,558 L 830,551 L 829,549 L 829,546 L 829,545 L 828,538 L 827,533 L 825,527 L 824,520 L 824,518 L 827,518 L 829,518 L 833,521 L 838,523 L 841,524 L 843,526 L 851,531 L 856,535 L 862,538 L 864,539 L 865,539 L 869,540 L 872,541 L 877,543 L 881,546 L 883,546 L 886,544 L 892,543 L 897,543 L 903,543 L 908,543 L 914,543 L 918,544 L 924,546 L 930,549 L 936,551 L 939,551 L 943,550 L 947,549 L 952,547 L 957,543 L 958,542 L 960,541 L 961,540 L 963,538 L 966,536 L 975,530 L 979,528 L 981,528 L 984,524 L 986,521 L 988,516 L 989,511 L 991,507 L 992,503 L 993,500 L 995,495 L 997,491 L 1002,486 L 1005,483 L 1007,480 L 1009,477 L 1009,475 L 1009,474 L 1008,470 L 1007,468 L 1006,466 L 1006,465 L 1007,463 L 1008,462 L 1009,458 L 1012,451 L 1015,444 L 1017,441 L 1016,440 L 1015,439 L 1013,438 L 1010,436 L 1005,432 L 1003,429 L 1001,427 L 1002,425 L 1006,425 L 1011,423 L 1016,421 L 1017,420 L 1018,419 L 1019,418 L 1019,417 L 1019,416 L 1019,414 L 1018,414 L 1017,413 L 1018,411 L 1019,409 L 1018,408 L 1015,406 L 1014,404 L 1012,402 L 1011,402 L 1013,399 L 1016,399 L 1018,399 L 1018,398 L 1017,396 L 1011,388 L 1005,384 L 1001,381 L 994,377 L 990,373 L 987,368 L 984,366 L 980,365 L 975,364 L 968,360 L 960,355 L 954,349 L 951,343 L 949,338 L 949,336 L 949,334 L 953,333 L 961,330 L 968,326 L 975,321 L 982,315 L 987,309 L 987,308 L 992,302 L 997,295 L 999,291 L 1001,286 L 1002,287 L 1004,287 L 1007,287 L 1009,287 L 1014,287 L 1017,286 L 1020,285 L 1023,287 L 1026,289 L 1031,293 L 1035,299 L 1036,301 L 1037,302 L 1040,309 L 1049,319 L 1054,325 L 1060,330 L 1063,335 L 1067,340 L 1071,343 L 1072,344 L 1073,344 L 1075,345 L 1077,348 L 1083,357 L 1086,364 L 1089,371 L 1090,375 L 1093,373 L 1100,370 L 1112,367 L 1116,364 L 1119,361 L 1125,358 L 1128,358 L 1133,354 L 1141,351 L 1148,350 L 1154,349 L 1160,348 L 1164,349 L 1169,358 L 1177,372 L 1184,385 L 1189,393 L 1191,396 L 1194,401 L 1195,402 L 1195,403 L 1198,402 L 1201,399 L 1207,395 L 1209,395 L 1209,397 L 1209,403 L 1210,405 L 1210,407 L 1212,412 L 1214,412 L 1215,411 L 1216,411 L 1219,411 L 1220,412 L 1220,414 L 1219,417 L 1220,421 L 1222,429 L 1225,435 L 1227,437 L 1233,445 L 1244,455 L 1250,460 L 1257,464 L 1259,466 L 1259,470 L 1258,473 L 1257,475 L 1258,479 L 1261,483 L 1264,485 L 1267,486 L 1271,486 L 1275,485 L 1282,484 L 1286,484 L 1290,486 L 1300,490 L 1306,492 L 1309,491 L 1321,491 L 1325,492 L 1327,493 L 1340,495 L 1344,497 L 1346,498 L 1348,498 L 1354,495 L 1361,492 L 1369,490 L 1377,490 L 1383,491 L 1389,493 L 1398,497 L 1404,498 L 1409,499 L 1414,500 L 1416,500 L 1420,502 L 1423,504 L 1424,506 " />
</g>
<g id="union_lektiko_δημοσ_αμφιπολησ_2" >
<path d="M 1520,445 L 1521,446 L 1521,448 L 1523,450 L 1524,451 L 1525,453 L 1526,454 L 1527,456 L 1528,457 L 1529,459 L 1530,461 L 1531,462 L 1531,464 L 1532,466 L 1532,469 L 1533,472 L 1533,473 L 1533,476 L 1534,478 L 1534,480 L 1535,482 L 1537,486 L 1539,488 L 1541,491 L 1542,492 L 1543,493 L 1543,495 L 1544,496 L 1544,498 L 1544,500 L 1543,503 L 1543,505 L 1542,508 L 1541,510 L 1540,512 L 1539,514 L 1537,516 L 1534,517 L 1532,517 L 1530,518 L 1527,518 L 1525,518 L 1523,518 L 1520,518 L 1519,518 L 1517,518 L 1515,517 L 1513,516 L 1510,515 L 1507,512 L 1503,509 L 1500,506 L 1497,503 L 1494,499 L 1491,495 L 1489,493 L 1488,492 L 1486,492 L 1485,491 L 1483,489 L 1482,488 L 1480,486 L 1478,486 L 1476,485 L 1475,485 L 1474,485 L 1472,485 L 1470,487 L 1467,489 L 1465,491 L 1462,493 L 1458,495 L 1456,497 L 1454,498 L 1451,499 L 1451,500 L 1450,501 L 1449,501 L 1443,503 L 1441,504 L 1438,504 L 1435,505 L 1431,505 L 1429,505 L 1426,505 L 1424,506 L 1423,504 L 1420,502 L 1416,500 L 1414,500 L 1409,499 L 1404,498 L 1398,497 L 1389,493 L 1383,491 L 1377,490 L 1369,490 L 1361,492 L 1354,495 L 1348,498 L 1346,498 L 1344,497 L 1340,495 L 1327,493 L 1325,492 L 1321,491 L 1309,491 L 1306,492 L 1300,490 L 1290,486 L 1286,484 L 1282,484 L 1275,485 L 1271,486 L 1267,486 L 1264,485 L 1261,483 L 1258,479 L 1257,475 L 1258,473 L 1259,470 L 1259,466 L 1257,464 L 1250,460 L 1244,455 L 1233,445 L 1227,437 L 1225,435 L 1222,429 L 1220,421 L 1219,417 L 1220,414 L 1220,412 L 1219,411 L 1216,411 L 1215,411 L 1214,412 L 1212,412 L 1210,407 L 1210,405 L 1209,403 L 1209,397 L 1209,395 L 1207,395 L 1201,399 L 1198,402 L 1195,403 L 1195,402 L 1194,401 L 1191,396 L 1189,393 L 1184,385 L 1177,372 L 1169,358 L 1164,349 L 1160,348 L 1154,349 L 1148,350 L 1141,351 L 1133,354 L 1128,358 L 1125,358 L 1119,361 L 1116,364 L 1112,367 L 1100,370 L 1093,373 L 1090,375 L 1089,371 L 1086,364 L 1083,357 L 1077,348 L 1075,345 L 1073,344 L 1072,344 L 1071,343 L 1067,340 L 1063,335 L 1060,330 L 1054,325 L 1049,319 L 1040,309 L 1037,302 L 1036,301 L 1035,299 L 1031,293 L 1026,289 L 1023,287 L 1020,285 L 1025,282 L 1026,281 L 1033,274 L 1035,270 L 1035,269 L 1035,266 L 1034,262 L 1032,256 L 1030,251 L 1030,249 L 1032,248 L 1039,248 L 1050,247 L 1056,248 L 1063,249 L 1068,251 L 1070,252 L 1071,252 L 1072,251 L 1076,249 L 1083,248 L 1093,248 L 1097,248 L 1099,248 L 1099,246 L 1096,243 L 1095,243 L 1092,241 L 1090,239 L 1088,234 L 1087,229 L 1088,228 L 1097,226 L 1108,224 L 1118,222 L 1130,219 L 1134,217 L 1138,215 L 1141,214 L 1141,212 L 1140,210 L 1141,209 L 1145,209 L 1150,210 L 1150,208 L 1149,207 L 1147,206 L 1145,205 L 1142,203 L 1140,200 L 1137,197 L 1136,193 L 1134,190 L 1132,186 L 1130,184 L 1129,182 L 1128,181 L 1128,179 L 1127,175 L 1127,164 L 1128,156 L 1129,154 L 1130,155 L 1131,155 L 1133,156 L 1134,157 L 1135,157 L 1136,157 L 1137,157 L 1137,156 L 1137,155 L 1137,154 L 1137,153 L 1138,152 L 1139,151 L 1139,150 L 1140,149 L 1140,148 L 1140,147 L 1140,146 L 1140,144 L 1141,144 L 1141,143 L 1142,143 L 1144,143 L 1146,144 L 1147,144 L 1147,145 L 1148,145 L 1149,146 L 1150,145 L 1151,145 L 1152,145 L 1153,146 L 1154,146 L 1156,147 L 1157,147 L 1158,148 L 1159,149 L 1160,149 L 1161,149 L 1162,149 L 1162,148 L 1163,147 L 1164,147 L 1165,146 L 1166,146 L 1167,145 L 1168,145 L 1169,145 L 1170,146 L 1170,147 L 1171,148 L 1172,148 L 1172,149 L 1173,149 L 1173,148 L 1174,148 L 1175,147 L 1176,147 L 1177,146 L 1178,147 L 1178,148 L 1178,149 L 1177,150 L 1176,151 L 1175,152 L 1175,153 L 1175,154 L 1176,154 L 1178,153 L 1179,153 L 1181,153 L 1181,154 L 1182,155 L 1184,155 L 1185,155 L 1186,155 L 1188,155 L 1191,155 L 1192,155 L 1195,154 L 1196,153 L 1198,152 L 1200,148 L 1201,147 L 1201,145 L 1202,143 L 1204,141 L 1206,140 L 1207,139 L 1208,138 L 1209,137 L 1213,134 L 1216,131 L 1216,130 L 1217,129 L 1219,128 L 1221,128 L 1222,128 L 1225,128 L 1226,128 L 1227,128 L 1228,127 L 1228,126 L 1229,124 L 1232,121 L 1236,119 L 1238,117 L 1239,117 L 1242,117 L 1245,117 L 1246,117 L 1247,118 L 1248,118 L 1250,119 L 1251,119 L 1255,119 L 1259,119 L 1261,119 L 1264,119 L 1267,120 L 1269,121 L 1270,122 L 1274,123 L 1275,123 L 1277,123 L 1280,123 L 1283,122 L 1286,121 L 1289,120 L 1289,119 L 1290,119 L 1291,119 L 1292,118 L 1294,117 L 1295,117 L 1298,116 L 1298,115 L 1299,115 L 1302,113 L 1304,112 L 1312,106 L 1313,105 L 1314,105 L 1316,104 L 1318,104 L 1321,103 L 1322,103 L 1323,102 L 1324,100 L 1325,101 L 1326,102 L 1327,102 L 1328,102 L 1330,104 L 1330,106 L 1331,109 L 1331,111 L 1332,114 L 1334,116 L 1334,117 L 1335,118 L 1335,119 L 1337,123 L 1339,129 L 1340,132 L 1340,136 L 1340,139 L 1340,140 L 1340,141 L 1340,142 L 1340,144 L 1340,147 L 1339,148 L 1338,153 L 1336,157 L 1334,162 L 1332,164 L 1331,165 L 1328,168 L 1325,170 L 1322,170 L 1320,170 L 1317,170 L 1312,169 L 1308,168 L 1306,168 L 1306,169 L 1305,170 L 1305,172 L 1304,177 L 1303,183 L 1303,188 L 1302,195 L 1302,202 L 1302,206 L 1301,208 L 1300,210 L 1299,212 L 1298,215 L 1297,219 L 1297,222 L 1297,225 L 1298,228 L 1299,233 L 1299,237 L 1299,240 L 1300,242 L 1300,246 L 1301,254 L 1302,258 L 1302,260 L 1302,262 L 1302,264 L 1302,265 L 1303,266 L 1304,271 L 1306,278 L 1306,281 L 1307,285 L 1308,290 L 1310,296 L 1313,303 L 1314,306 L 1316,308 L 1317,309 L 1321,314 L 1323,317 L 1324,318 L 1327,322 L 1329,327 L 1331,331 L 1332,334 L 1335,343 L 1336,348 L 1338,352 L 1340,357 L 1343,362 L 1344,366 L 1347,372 L 1350,377 L 1351,381 L 1352,382 L 1353,386 L 1355,388 L 1357,393 L 1358,397 L 1359,398 L 1361,402 L 1362,405 L 1364,408 L 1366,410 L 1367,412 L 1369,414 L 1373,416 L 1376,418 L 1380,421 L 1382,422 L 1384,422 L 1386,422 L 1388,421 L 1390,421 L 1392,421 L 1394,421 L 1397,421 L 1400,421 L 1403,421 L 1406,421 L 1410,421 L 1412,420 L 1415,418 L 1418,416 L 1421,415 L 1424,413 L 1427,411 L 1429,408 L 1433,405 L 1435,402 L 1438,400 L 1442,397 L 1445,394 L 1446,393 L 1447,393 L 1448,394 L 1449,395 L 1451,397 L 1454,399 L 1458,402 L 1462,403 L 1469,407 L 1473,409 L 1478,412 L 1480,415 L 1484,418 L 1489,421 L 1490,421 L 1491,422 L 1496,425 L 1498,427 L 1499,429 L 1498,430 L 1497,433 L 1495,437 L 1494,439 L 1493,442 L 1493,444 L 1494,444 L 1494,445 L 1496,444 L 1499,444 L 1505,444 L 1512,445 L 1515,445 L 1518,445 L 1520,445 " />
</g>
<g id="union_lektiko_δημοσ_αμφιπολησ_3" >
<path d="M 1410,57 L 1411,57 L 1413,57 L 1414,57 L 1417,57 L 1419,57 L 1421,57 L 1424,57 L 1426,57 L 1427,57 L 1428,57 L 1429,57 L 1430,58 L 1430,59 L 1429,61 L 1428,63 L 1428,64 L 1428,65 L 1429,66 L 1430,67 L 1431,68 L 1433,69 L 1439,71 L 1440,71 L 1442,73 L 1442,74 L 1442,76 L 1442,78 L 1440,81 L 1440,83 L 1443,84 L 1444,84 L 1445,84 L 1447,85 L 1450,86 L 1453,88 L 1455,88 L 1457,88 L 1460,89 L 1461,89 L 1464,90 L 1465,90 L 1467,91 L 1469,92 L 1472,93 L 1473,93 L 1475,94 L 1476,94 L 1477,95 L 1478,95 L 1479,96 L 1480,96 L 1480,97 L 1483,98 L 1485,99 L 1486,101 L 1488,102 L 1489,103 L 1492,106 L 1493,107 L 1495,109 L 1496,110 L 1499,112 L 1501,114 L 1502,117 L 1503,117 L 1504,118 L 1506,120 L 1505,121 L 1508,124 L 1509,125 L 1509,126 L 1511,128 L 1512,130 L 1514,132 L 1515,133 L 1516,135 L 1517,135 L 1517,136 L 1518,137 L 1519,138 L 1520,140 L 1521,140 L 1522,142 L 1522,143 L 1523,144 L 1524,145 L 1527,148 L 1528,149 L 1529,150 L 1530,151 L 1531,151 L 1533,154 L 1534,154 L 1537,156 L 1539,157 L 1541,158 L 1543,159 L 1544,160 L 1545,160 L 1547,161 L 1549,161 L 1550,162 L 1552,162 L 1553,163 L 1558,166 L 1564,169 L 1568,171 L 1571,174 L 1573,175 L 1575,176 L 1576,177 L 1577,178 L 1578,178 L 1579,179 L 1581,179 L 1583,180 L 1584,181 L 1585,181 L 1587,181 L 1588,181 L 1591,182 L 1594,183 L 1595,183 L 1594,185 L 1593,186 L 1593,189 L 1592,191 L 1592,192 L 1591,192 L 1591,193 L 1591,194 L 1590,196 L 1589,198 L 1589,200 L 1588,201 L 1588,202 L 1586,205 L 1585,207 L 1584,208 L 1584,209 L 1583,210 L 1583,211 L 1584,212 L 1584,213 L 1585,216 L 1586,220 L 1586,221 L 1586,223 L 1586,226 L 1586,229 L 1585,231 L 1584,233 L 1583,235 L 1582,237 L 1581,240 L 1579,242 L 1578,243 L 1576,246 L 1575,247 L 1574,248 L 1573,249 L 1569,252 L 1567,255 L 1567,256 L 1566,257 L 1564,259 L 1563,261 L 1563,262 L 1562,263 L 1561,265 L 1560,266 L 1559,267 L 1558,268 L 1557,271 L 1557,273 L 1557,274 L 1557,275 L 1558,276 L 1558,277 L 1558,278 L 1558,279 L 1558,281 L 1557,282 L 1556,284 L 1556,285 L 1555,286 L 1554,287 L 1553,288 L 1552,289 L 1549,292 L 1548,293 L 1548,294 L 1548,296 L 1550,300 L 1551,303 L 1551,304 L 1552,305 L 1552,307 L 1552,308 L 1553,309 L 1553,310 L 1554,310 L 1554,311 L 1554,312 L 1554,313 L 1555,314 L 1555,315 L 1556,316 L 1557,318 L 1558,319 L 1558,321 L 1559,321 L 1559,322 L 1560,323 L 1561,325 L 1561,326 L 1563,330 L 1564,331 L 1565,333 L 1565,335 L 1566,336 L 1567,337 L 1567,338 L 1568,339 L 1568,340 L 1569,341 L 1570,343 L 1571,344 L 1572,346 L 1574,349 L 1575,351 L 1576,352 L 1576,353 L 1577,354 L 1579,355 L 1580,356 L 1581,356 L 1583,358 L 1583,359 L 1583,360 L 1583,361 L 1582,363 L 1581,364 L 1581,365 L 1580,367 L 1580,368 L 1578,371 L 1577,373 L 1577,374 L 1576,375 L 1575,376 L 1575,377 L 1574,378 L 1573,381 L 1572,383 L 1571,384 L 1571,385 L 1569,388 L 1568,389 L 1566,391 L 1563,393 L 1563,394 L 1562,395 L 1561,396 L 1560,397 L 1558,399 L 1556,401 L 1554,402 L 1552,404 L 1551,404 L 1549,405 L 1547,407 L 1544,408 L 1542,410 L 1541,410 L 1539,412 L 1538,413 L 1536,415 L 1534,417 L 1533,419 L 1531,420 L 1531,421 L 1530,422 L 1529,424 L 1528,425 L 1527,426 L 1526,428 L 1525,428 L 1525,429 L 1525,430 L 1523,432 L 1523,433 L 1522,434 L 1521,436 L 1520,437 L 1520,438 L 1520,440 L 1519,440 L 1519,441 L 1519,443 L 1520,445 L 1518,445 L 1515,445 L 1512,445 L 1505,444 L 1499,444 L 1496,444 L 1494,445 L 1494,444 L 1493,444 L 1493,442 L 1494,439 L 1495,437 L 1497,433 L 1498,430 L 1499,429 L 1498,427 L 1496,425 L 1491,422 L 1490,421 L 1489,421 L 1484,418 L 1480,415 L 1478,412 L 1473,409 L 1469,407 L 1462,403 L 1458,402 L 1454,399 L 1451,397 L 1449,395 L 1448,394 L 1447,393 L 1446,393 L 1445,394 L 1442,397 L 1438,400 L 1435,402 L 1433,405 L 1429,408 L 1427,411 L 1424,413 L 1421,415 L 1418,416 L 1415,418 L 1412,420 L 1410,421 L 1406,421 L 1403,421 L 1400,421 L 1397,421 L 1394,421 L 1392,421 L 1390,421 L 1388,421 L 1386,422 L 1384,422 L 1382,422 L 1380,421 L 1376,418 L 1373,416 L 1369,414 L 1367,412 L 1366,410 L 1364,408 L 1362,405 L 1361,402 L 1359,398 L 1358,397 L 1357,393 L 1355,388 L 1353,386 L 1352,382 L 1351,381 L 1350,377 L 1347,372 L 1344,366 L 1343,362 L 1340,357 L 1338,352 L 1336,348 L 1335,343 L 1332,334 L 1331,331 L 1329,327 L 1327,322 L 1324,318 L 1323,317 L 1321,314 L 1317,309 L 1316,308 L 1314,306 L 1313,303 L 1310,296 L 1308,290 L 1307,285 L 1306,281 L 1306,278 L 1304,271 L 1303,266 L 1302,265 L 1302,264 L 1302,262 L 1302,260 L 1302,258 L 1301,254 L 1300,246 L 1300,242 L 1299,240 L 1299,237 L 1299,233 L 1298,228 L 1297,225 L 1297,222 L 1297,219 L 1298,215 L 1299,212 L 1300,210 L 1301,208 L 1302,206 L 1302,202 L 1302,195 L 1303,188 L 1303,183 L 1304,177 L 1305,172 L 1305,170 L 1306,169 L 1306,168 L 1308,168 L 1312,169 L 1317,170 L 1320,170 L 1322,170 L 1325,170 L 1328,168 L 1331,165 L 1332,164 L 1334,162 L 1336,157 L 1338,153 L 1339,148 L 1340,147 L 1340,144 L 1340,142 L 1340,141 L 1340,140 L 1340,139 L 1340,136 L 1340,132 L 1339,129 L 1337,123 L 1335,119 L 1335,118 L 1334,117 L 1334,116 L 1332,114 L 1331,111 L 1331,109 L 1330,106 L 1330,104 L 1328,102 L 1327,102 L 1326,102 L 1325,101 L 1324,100 L 1326,100 L 1327,98 L 1329,96 L 1331,95 L 1333,94 L 1336,92 L 1338,89 L 1339,87 L 1340,85 L 1340,82 L 1340,80 L 1340,76 L 1339,73 L 1338,70 L 1337,68 L 1336,67 L 1336,66 L 1337,65 L 1338,64 L 1340,64 L 1342,66 L 1345,68 L 1347,71 L 1348,73 L 1348,74 L 1348,76 L 1347,78 L 1347,80 L 1347,82 L 1348,84 L 1350,86 L 1351,87 L 1353,88 L 1354,89 L 1355,89 L 1356,90 L 1356,91 L 1357,92 L 1357,93 L 1358,92 L 1358,91 L 1358,90 L 1359,88 L 1358,85 L 1358,83 L 1356,80 L 1355,78 L 1354,74 L 1354,72 L 1355,70 L 1355,67 L 1358,62 L 1361,57 L 1364,53 L 1366,50 L 1368,47 L 1369,43 L 1369,38 L 1370,33 L 1370,30 L 1370,29 L 1370,27 L 1372,26 L 1374,26 L 1378,26 L 1380,26 L 1382,27 L 1386,27 L 1390,27 L 1393,27 L 1397,28 L 1400,28 L 1402,28 L 1405,29 L 1406,29 L 1406,30 L 1406,32 L 1406,34 L 1406,40 L 1406,42 L 1407,49 L 1407,51 L 1407,52 L 1407,55 L 1408,56 L 1410,57 " />
</g>
<g id="union_lektiko_δημοσ_αμφιπολησ_4" >
<path d="M 1266,695 L 1265,696 L 1264,696 L 1261,697 L 1258,698 L 1255,700 L 1252,702 L 1251,702 L 1251,706 L 1251,708 L 1251,709 L 1251,711 L 1250,713 L 1249,714 L 1248,716 L 1248,718 L 1248,720 L 1247,722 L 1245,724 L 1244,726 L 1243,728 L 1242,730 L 1242,733 L 1243,736 L 1242,740 L 1242,741 L 1240,744 L 1239,747 L 1238,749 L 1236,749 L 1234,750 L 1231,751 L 1226,751 L 1223,752 L 1221,752 L 1220,753 L 1218,754 L 1215,758 L 1213,759 L 1210,760 L 1207,762 L 1202,765 L 1200,766 L 1198,768 L 1197,769 L 1196,772 L 1195,775 L 1195,777 L 1194,779 L 1192,780 L 1188,782 L 1181,787 L 1175,790 L 1172,793 L 1170,795 L 1167,798 L 1165,801 L 1164,804 L 1163,809 L 1162,814 L 1161,816 L 1160,817 L 1158,818 L 1156,818 L 1153,818 L 1152,817 L 1151,818 L 1150,818 L 1147,821 L 1145,822 L 1144,822 L 1140,823 L 1135,824 L 1134,825 L 1133,826 L 1132,828 L 1132,829 L 1130,831 L 1128,831 L 1126,831 L 1124,831 L 1122,831 L 1121,832 L 1118,835 L 1117,838 L 1115,840 L 1113,842 L 1109,844 L 1107,846 L 1106,847 L 1105,849 L 1103,850 L 1099,851 L 1097,852 L 1095,854 L 1094,856 L 1092,858 L 1090,859 L 1089,860 L 1088,862 L 1087,864 L 1085,865 L 1084,863 L 1083,863 L 1080,862 L 1077,862 L 1074,862 L 1073,863 L 1071,864 L 1068,865 L 1066,867 L 1064,870 L 1062,872 L 1061,873 L 1060,873 L 1060,872 L 1059,871 L 1058,870 L 1056,869 L 1053,869 L 1050,869 L 1049,870 L 1045,871 L 1043,872 L 1042,873 L 1040,876 L 1039,876 L 1037,877 L 1036,878 L 1035,880 L 1032,881 L 1030,881 L 1028,881 L 1027,881 L 1024,881 L 1021,881 L 1017,881 L 1012,880 L 1009,880 L 1005,879 L 1002,879 L 998,878 L 997,877 L 995,877 L 991,876 L 989,875 L 987,875 L 985,875 L 983,875 L 981,875 L 978,875 L 975,876 L 971,878 L 969,879 L 967,880 L 964,882 L 961,884 L 960,885 L 958,886 L 957,887 L 955,890 L 954,891 L 953,893 L 952,895 L 952,898 L 952,901 L 952,903 L 951,904 L 949,905 L 946,906 L 942,906 L 939,907 L 936,907 L 932,908 L 930,909 L 928,911 L 925,913 L 924,914 L 921,916 L 917,920 L 914,923 L 910,926 L 906,929 L 902,931 L 898,933 L 893,936 L 889,937 L 886,939 L 884,940 L 882,942 L 881,944 L 881,945 L 880,948 L 881,950 L 882,952 L 883,954 L 887,955 L 893,957 L 898,958 L 901,959 L 902,960 L 903,961 L 903,963 L 903,964 L 903,965 L 903,967 L 904,968 L 905,970 L 907,973 L 909,977 L 912,980 L 915,983 L 916,986 L 918,989 L 919,991 L 919,992 L 919,994 L 919,996 L 917,998 L 914,1001 L 912,1003 L 909,1007 L 907,1009 L 904,1011 L 903,1012 L 902,1012 L 901,1012 L 900,1012 L 899,1012 L 898,1012 L 897,1012 L 896,1012 L 895,1012 L 894,1012 L 893,1013 L 892,1013 L 891,1013 L 890,1013 L 889,1013 L 888,1013 L 887,1013 L 886,1013 L 885,1013 L 884,1013 L 883,1013 L 882,1013 L 881,1013 L 880,1013 L 879,1013 L 878,1013 L 877,1013 L 876,1013 L 875,1013 L 874,1013 L 873,1012 L 872,1012 L 871,1012 L 870,1011 L 869,1011 L 868,1010 L 867,1010 L 866,1009 L 864,1008 L 861,1006 L 860,1005 L 859,1004 L 858,1003 L 856,1002 L 855,1001 L 854,1000 L 852,999 L 851,998 L 849,998 L 848,997 L 847,996 L 845,995 L 844,994 L 843,993 L 841,993 L 839,992 L 838,992 L 836,992 L 834,992 L 833,992 L 831,992 L 830,992 L 829,992 L 828,992 L 827,992 L 826,992 L 825,992 L 824,992 L 823,992 L 822,992 L 821,992 L 820,992 L 819,992 L 818,992 L 817,992 L 816,992 L 815,992 L 814,992 L 813,992 L 812,992 L 811,992 L 810,992 L 809,993 L 808,993 L 807,993 L 806,993 L 805,994 L 804,994 L 804,995 L 803,995 L 802,995 L 801,996 L 800,996 L 799,997 L 798,997 L 798,998 L 797,998 L 796,998 L 796,999 L 795,999 L 794,1000 L 793,1000 L 792,1000 L 791,1000 L 790,1001 L 789,1001 L 788,1002 L 787,1003 L 786,1003 L 786,1004 L 785,1004 L 784,1005 L 784,1006 L 783,1006 L 783,1007 L 782,1007 L 781,1008 L 780,1009 L 779,1009 L 779,1010 L 778,1010 L 777,1011 L 776,1011 L 775,1011 L 774,1012 L 773,1012 L 772,1012 L 771,1012 L 770,1012 L 769,1012 L 768,1011 L 767,1011 L 767,1010 L 766,1010 L 765,1009 L 764,1009 L 763,1009 L 762,1009 L 761,1009 L 760,1010 L 759,1010 L 758,1010 L 758,1011 L 757,1011 L 756,1011 L 755,1012 L 754,1012 L 753,1013 L 752,1013 L 751,1014 L 750,1014 L 750,1015 L 749,1015 L 748,1016 L 747,1016 L 746,1016 L 745,1017 L 744,1017 L 743,1016 L 742,1016 L 741,1016 L 740,1016 L 739,1016 L 738,1017 L 737,1017 L 736,1017 L 735,1018 L 734,1019 L 733,1019 L 733,1020 L 732,1020 L 731,1021 L 730,1022 L 729,1023 L 728,1024 L 727,1025 L 726,1026 L 725,1026 L 725,1027 L 724,1027 L 723,1027 L 722,1027 L 722,1028 L 721,1028 L 720,1028 L 719,1028 L 718,1028 L 717,1028 L 717,1029 L 716,1029 L 715,1029 L 714,1029 L 713,1029 L 712,1030 L 711,1030 L 710,1030 L 709,1030 L 708,1030 L 707,1030 L 706,1030 L 705,1029 L 704,1030 L 703,1030 L 702,1030 L 701,1031 L 700,1032 L 699,1032 L 698,1033 L 697,1033 L 697,1034 L 696,1034 L 695,1035 L 694,1036 L 693,1036 L 693,1037 L 692,1037 L 691,1038 L 690,1038 L 689,1039 L 688,1039 L 687,1039 L 686,1040 L 685,1040 L 684,1040 L 683,1040 L 682,1040 L 681,1040 L 680,1039 L 679,1039 L 678,1038 L 677,1038 L 676,1038 L 675,1038 L 674,1038 L 673,1039 L 672,1039 L 671,1040 L 670,1040 L 669,1041 L 668,1041 L 668,1042 L 667,1042 L 666,1042 L 665,1043 L 664,1044 L 663,1044 L 662,1045 L 661,1046 L 660,1047 L 659,1047 L 659,1048 L 658,1048 L 658,1049 L 657,1049 L 656,1050 L 655,1051 L 654,1052 L 653,1052 L 653,1053 L 652,1053 L 652,1054 L 651,1054 L 650,1055 L 649,1056 L 649,1057 L 648,1057 L 647,1058 L 646,1059 L 645,1060 L 644,1061 L 643,1062 L 642,1063 L 642,1064 L 641,1064 L 641,1065 L 640,1065 L 639,1066 L 639,1067 L 638,1067 L 638,1068 L 637,1068 L 637,1069 L 636,1070 L 635,1071 L 635,1072 L 634,1072 L 634,1073 L 633,1073 L 632,1074 L 632,1075 L 631,1075 L 631,1076 L 630,1076 L 630,1077 L 629,1077 L 628,1078 L 628,1079 L 627,1079 L 626,1080 L 625,1081 L 624,1082 L 623,1082 L 623,1083 L 622,1084 L 621,1085 L 620,1085 L 620,1086 L 619,1086 L 618,1087 L 615,1084 L 613,1082 L 612,1081 L 611,1079 L 611,1076 L 610,1074 L 610,1073 L 608,1071 L 606,1068 L 603,1064 L 602,1063 L 599,1060 L 597,1058 L 596,1055 L 595,1052 L 594,1050 L 593,1044 L 592,1040 L 591,1037 L 590,1034 L 589,1032 L 587,1029 L 585,1027 L 584,1027 L 582,1027 L 579,1026 L 578,1025 L 578,1024 L 576,1020 L 575,1019 L 574,1018 L 573,1018 L 571,1018 L 569,1018 L 568,1018 L 566,1017 L 564,1016 L 562,1015 L 561,1014 L 558,1014 L 556,1013 L 554,1011 L 551,1009 L 548,1006 L 546,1004 L 543,1003 L 541,1002 L 538,1001 L 534,1001 L 529,1002 L 523,1003 L 520,1003 L 517,1002 L 514,1002 L 512,1002 L 510,1001 L 507,1000 L 506,999 L 503,999 L 502,999 L 500,1000 L 498,1001 L 496,1002 L 493,1004 L 492,1005 L 490,1006 L 487,1007 L 485,1007 L 483,1007 L 481,1006 L 479,1005 L 477,1004 L 474,1003 L 471,1002 L 467,1003 L 463,1003 L 461,1003 L 458,1004 L 456,1005 L 454,1005 L 451,1006 L 448,1006 L 447,1005 L 446,1005 L 445,1005 L 444,1005 L 440,1003 L 438,1001 L 437,1001 L 434,1000 L 432,999 L 430,999 L 429,999 L 426,999 L 424,998 L 422,997 L 421,996 L 419,995 L 418,994 L 416,993 L 415,992 L 418,988 L 421,982 L 423,979 L 424,978 L 425,977 L 426,975 L 427,973 L 429,971 L 430,971 L 432,969 L 434,966 L 436,964 L 439,961 L 441,956 L 442,951 L 443,944 L 445,940 L 447,936 L 447,932 L 448,927 L 450,924 L 453,921 L 454,918 L 456,916 L 457,913 L 458,912 L 459,911 L 461,911 L 464,911 L 467,912 L 475,912 L 482,912 L 486,911 L 491,910 L 498,908 L 498,907 L 499,906 L 503,904 L 504,903 L 505,902 L 506,901 L 509,899 L 510,898 L 511,898 L 514,897 L 517,896 L 521,893 L 528,888 L 536,884 L 538,882 L 539,879 L 539,877 L 540,875 L 541,875 L 543,875 L 544,875 L 545,876 L 546,877 L 547,879 L 548,880 L 549,884 L 550,886 L 551,889 L 551,890 L 552,890 L 553,889 L 555,887 L 556,886 L 556,885 L 558,884 L 560,882 L 562,881 L 563,881 L 564,881 L 565,879 L 566,877 L 568,875 L 569,873 L 571,870 L 574,867 L 577,865 L 579,863 L 584,861 L 585,861 L 586,861 L 588,862 L 589,863 L 589,864 L 588,867 L 586,874 L 585,876 L 583,879 L 583,881 L 583,885 L 583,887 L 581,891 L 580,897 L 580,898 L 580,900 L 581,902 L 583,905 L 585,908 L 587,910 L 590,911 L 593,910 L 594,908 L 597,907 L 598,906 L 600,905 L 603,905 L 606,904 L 607,903 L 610,904 L 611,903 L 613,903 L 613,902 L 616,900 L 617,899 L 618,899 L 622,899 L 625,899 L 628,900 L 630,900 L 631,900 L 634,898 L 635,898 L 646,893 L 648,892 L 649,891 L 650,887 L 651,886 L 651,884 L 652,882 L 654,877 L 657,872 L 660,869 L 664,866 L 666,864 L 668,862 L 669,860 L 670,859 L 674,858 L 677,858 L 679,856 L 681,855 L 684,855 L 687,855 L 690,854 L 692,853 L 694,850 L 698,842 L 700,839 L 705,831 L 710,824 L 715,816 L 718,813 L 721,811 L 725,810 L 729,810 L 732,810 L 735,810 L 741,810 L 746,811 L 751,814 L 756,816 L 762,820 L 766,821 L 768,822 L 770,821 L 772,820 L 774,816 L 777,811 L 778,811 L 779,809 L 780,808 L 781,808 L 782,808 L 784,811 L 787,815 L 790,818 L 796,825 L 799,829 L 802,832 L 804,833 L 807,830 L 810,827 L 813,826 L 817,825 L 821,825 L 827,823 L 832,820 L 834,818 L 836,814 L 838,810 L 839,806 L 839,804 L 838,800 L 835,796 L 829,790 L 821,783 L 816,779 L 805,770 L 797,762 L 793,755 L 789,748 L 787,742 L 787,738 L 787,732 L 788,722 L 788,717 L 790,711 L 791,707 L 792,702 L 795,694 L 796,690 L 796,686 L 795,682 L 794,676 L 792,671 L 789,663 L 786,656 L 783,649 L 781,646 L 780,643 L 779,641 L 778,639 L 777,636 L 776,633 L 785,629 L 797,625 L 805,621 L 811,618 L 818,615 L 821,613 L 823,612 L 824,612 L 829,610 L 832,610 L 837,610 L 844,610 L 848,611 L 852,611 L 858,610 L 864,610 L 867,611 L 873,614 L 879,617 L 884,617 L 888,616 L 893,612 L 897,608 L 899,607 L 904,606 L 912,605 L 915,606 L 917,607 L 922,612 L 927,615 L 932,618 L 939,621 L 945,623 L 953,624 L 962,625 L 969,625 L 975,625 L 979,624 L 984,624 L 992,626 L 1003,628 L 1007,629 L 1011,630 L 1015,630 L 1020,631 L 1028,633 L 1036,635 L 1044,637 L 1053,640 L 1064,645 L 1070,648 L 1085,653 L 1098,657 L 1107,660 L 1115,661 L 1120,662 L 1126,663 L 1132,664 L 1142,669 L 1146,671 L 1148,672 L 1151,672 L 1151,673 L 1159,673 L 1168,674 L 1177,674 L 1185,675 L 1196,676 L 1206,676 L 1212,677 L 1220,679 L 1229,679 L 1234,680 L 1239,681 L 1242,682 L 1245,681 L 1250,681 L 1254,682 L 1255,682 L 1258,684 L 1260,685 L 1262,688 L 1263,691 L 1264,693 L 1266,695 " />
</g>
</g>
</g>
<!-- QGIS extent for clipping, eg in Inkscape -->
<g id="qgisviewbox" inkscape:groupmode="layer" inkscape:label="qgisviewbox" stroke="rgb(255,0,0)" stroke-width="1" fill="none" >
<path d="M 0,1114 L 2010,1114 L 2010,0 L 0,0 L 0,1114 " />
</g></svg>