<?xml version="1.0" standalone="no"?>
<!DOCTYPE svg PUBLIC "-//W3C//DTD SVG 1.1//EN" "http://www.w3.org/Graphics/SVG/1.1/DTD/svg11.dtd">
<svg xmlns="http://www.w3.org/2000/svg" xmlns:inkscape="http://www.inkscape.org/namespaces/inkscape" xmlns:xlink="http://www.w3.org/1999/xlink" viewBox = "0 0 2013 1116" version = "1.1">
<!-- svg generated using QGIS www.qgis.org -->
<g id="union_lektiko_δημοσ_αμοργου" inkscape:groupmode="layer" inkscape:label="union_lektiko_δημοσ_αμοργου">
<g stroke="none" fill="rgb(57,207,155)" stroke-linejoin="round" stroke-width="0.26">
<g id="union_lektiko_δημοσ_αμοργου_1" >
<path d="M 443,1076 L 442,1076 L 441,1076 L 440,1076 L 439,1076 L 439,1075 L 440,1075 L 441,1074 L 442,1074 L 443,1075 L 443,1076 " />
<path d="M 380,1049 L 380,1048 L 381,1048 L 381,1047 L 382,1047 L 382,1046 L 382,1047 L 382,1048 L 381,1048 L 380,1049 " />
<path d="M 399,1046 L 400,1047 L 401,1047 L 401,1048 L 402,1048 L 402,1049 L 403,1050 L 403,1051 L 402,1052 L 402,1053 L 402,1054 L 402,1055 L 402,1056 L 403,1057 L 403,1056 L 404,1056 L 405,1056 L 406,1056 L 407,1055 L 408,1054 L 409,1054 L 409,1053 L 410,1053 L 411,1053 L 412,1053 L 412,1052 L 413,1052 L 413,1053 L 413,1054 L 413,1053 L 414,1053 L 415,1053 L 416,1053 L 417,1053 L 417,1054 L 418,1054 L 419,1053 L 420,1053 L 421,1054 L 422,1054 L 423,1054 L 423,1055 L 422,1055 L 422,1056 L 423,1056 L 424,1056 L 424,1057 L 425,1057 L 426,1057 L 426,1058 L 427,1059 L 427,1060 L 428,1060 L 428,1061 L 429,1061 L 429,1062 L 430,1062 L 431,1063 L 432,1063 L 433,1063 L 434,1063 L 435,1063 L 435,1064 L 436,1064 L 436,1065 L 435,1066 L 436,1067 L 437,1068 L 437,1069 L 437,1070 L 438,1071 L 438,1072 L 438,1073 L 438,1074 L 437,1074 L 436,1074 L 436,1073 L 435,1073 L 435,1072 L 434,1073 L 434,1072 L 433,1072 L 432,1072 L 431,1072 L 430,1072 L 430,1071 L 429,1071 L 428,1071 L 428,1072 L 428,1073 L 429,1073 L 428,1074 L 427,1074 L 426,1074 L 425,1074 L 424,1074 L 423,1075 L 422,1075 L 421,1074 L 420,1074 L 420,1075 L 419,1075 L 418,1075 L 417,1075 L 417,1076 L 416,1076 L 416,1077 L 415,1077 L 415,1078 L 414,1079 L 413,1079 L 413,1080 L 413,1081 L 414,1082 L 414,1083 L 414,1084 L 415,1084 L 416,1084 L 417,1084 L 417,1085 L 417,1086 L 416,1086 L 415,1087 L 414,1087 L 414,1086 L 413,1086 L 413,1085 L 412,1085 L 412,1084 L 411,1084 L 411,1083 L 410,1083 L 409,1083 L 409,1082 L 408,1082 L 408,1081 L 407,1081 L 406,1081 L 406,1080 L 405,1080 L 405,1079 L 404,1079 L 404,1078 L 403,1078 L 403,1077 L 402,1076 L 401,1076 L 401,1075 L 401,1074 L 400,1074 L 399,1073 L 398,1073 L 398,1072 L 397,1072 L 396,1071 L 396,1070 L 395,1070 L 395,1069 L 395,1068 L 395,1067 L 395,1066 L 395,1065 L 396,1064 L 397,1064 L 397,1063 L 397,1062 L 396,1062 L 395,1061 L 396,1060 L 395,1060 L 396,1059 L 396,1058 L 395,1058 L 395,1059 L 394,1059 L 394,1058 L 393,1058 L 392,1058 L 391,1058 L 390,1058 L 390,1057 L 389,1057 L 388,1057 L 388,1056 L 389,1056 L 388,1056 L 388,1055 L 387,1055 L 387,1054 L 386,1054 L 385,1054 L 384,1054 L 383,1054 L 382,1054 L 381,1053 L 381,1052 L 382,1052 L 382,1051 L 382,1050 L 383,1050 L 384,1050 L 385,1050 L 385,1049 L 386,1049 L 386,1048 L 387,1048 L 388,1048 L 388,1047 L 389,1047 L 390,1047 L 391,1047 L 392,1047 L 393,1046 L 394,1046 L 395,1046 L 396,1046 L 397,1045 L 398,1045 L 398,1046 L 399,1046 " />
<path d="M 553,523 L 553,524 L 553,525 L 552,525 L 552,524 L 551,524 L 550,524 L 549,524 L 548,524 L 548,523 L 548,522 L 548,521 L 549,521 L 550,521 L 550,520 L 551,520 L 551,521 L 552,521 L 552,522 L 552,523 L 553,523 " />
<path d="M 594,497 L 594,498 L 593,499 L 593,498 L 593,497 L 594,497 " />
<path d="M 626,475 L 625,475 L 625,474 L 624,473 L 624,472 L 625,472 L 625,473 L 626,473 L 626,474 L 626,475 " />
<path d="M 956,449 L 955,449 L 955,448 L 956,447 L 956,448 L 956,449 " />
<path d="M 568,450 L 569,450 L 570,450 L 571,451 L 572,451 L 573,451 L 574,451 L 575,451 L 575,452 L 574,452 L 573,452 L 573,453 L 572,453 L 572,454 L 571,455 L 570,455 L 570,456 L 569,456 L 568,456 L 569,457 L 570,458 L 570,459 L 570,460 L 570,461 L 569,462 L 569,463 L 569,464 L 570,464 L 571,464 L 572,463 L 573,463 L 574,464 L 575,465 L 576,465 L 576,466 L 577,466 L 578,466 L 578,467 L 579,467 L 579,468 L 580,469 L 580,470 L 581,471 L 581,472 L 581,473 L 581,474 L 581,475 L 581,476 L 580,477 L 579,477 L 578,477 L 577,477 L 576,477 L 575,477 L 574,477 L 573,477 L 573,478 L 572,478 L 572,479 L 573,479 L 574,480 L 575,480 L 575,481 L 574,482 L 573,481 L 572,481 L 572,482 L 571,481 L 570,481 L 569,482 L 568,482 L 567,482 L 567,483 L 566,483 L 566,484 L 566,485 L 567,486 L 567,487 L 567,488 L 568,488 L 568,489 L 569,489 L 569,490 L 569,491 L 569,492 L 568,492 L 567,492 L 566,492 L 565,491 L 565,490 L 564,490 L 563,489 L 564,489 L 563,488 L 563,487 L 562,487 L 562,486 L 561,485 L 561,484 L 562,484 L 562,483 L 562,482 L 562,481 L 562,480 L 562,479 L 561,479 L 561,478 L 560,478 L 560,477 L 559,476 L 559,475 L 558,475 L 557,474 L 556,474 L 556,473 L 555,473 L 556,472 L 555,472 L 555,471 L 555,470 L 554,470 L 553,470 L 553,469 L 552,469 L 552,468 L 551,468 L 551,467 L 550,467 L 550,466 L 550,465 L 551,465 L 552,465 L 552,464 L 552,463 L 551,463 L 551,462 L 550,462 L 550,461 L 549,460 L 548,460 L 549,459 L 550,459 L 550,460 L 551,460 L 551,459 L 551,458 L 551,457 L 551,456 L 551,455 L 552,455 L 552,454 L 553,454 L 554,454 L 555,453 L 555,452 L 556,452 L 557,452 L 558,452 L 558,451 L 559,451 L 560,450 L 561,450 L 561,449 L 562,448 L 563,448 L 563,447 L 562,447 L 563,447 L 562,446 L 563,446 L 562,446 L 562,445 L 563,444 L 563,443 L 564,442 L 565,443 L 565,444 L 565,445 L 565,446 L 565,447 L 566,448 L 566,449 L 567,449 L 568,450 " />
<path d="M 584,436 L 583,436 L 582,436 L 582,435 L 583,435 L 584,435 L 585,435 L 584,436 " />
<path d="M 562,434 L 563,434 L 563,435 L 563,436 L 564,436 L 564,437 L 565,437 L 565,438 L 566,438 L 566,439 L 567,438 L 568,438 L 568,437 L 569,437 L 569,438 L 570,438 L 570,439 L 569,439 L 569,440 L 569,441 L 568,441 L 567,441 L 566,441 L 565,441 L 564,441 L 564,440 L 564,439 L 565,439 L 564,439 L 563,439 L 562,439 L 562,438 L 561,438 L 561,437 L 561,436 L 561,435 L 561,434 L 562,434 " />
<path d="M 562,430 L 562,429 L 562,428 L 562,427 L 563,426 L 564,427 L 564,428 L 563,428 L 563,429 L 563,430 L 562,430 " />
<path d="M 676,425 L 676,424 L 675,424 L 676,424 L 677,424 L 677,425 L 676,425 " />
<path d="M 995,423 L 996,423 L 996,424 L 997,424 L 998,424 L 999,425 L 999,426 L 998,426 L 999,427 L 999,428 L 998,428 L 997,429 L 996,429 L 996,428 L 995,428 L 994,428 L 993,427 L 993,426 L 993,425 L 992,425 L 992,424 L 992,423 L 993,423 L 994,423 L 995,423 " />
<path d="M 687,422 L 687,423 L 687,424 L 688,424 L 689,424 L 689,425 L 689,424 L 690,424 L 691,424 L 692,424 L 693,424 L 694,424 L 695,424 L 696,424 L 697,424 L 697,425 L 698,425 L 698,426 L 697,426 L 696,427 L 695,427 L 694,427 L 694,428 L 693,428 L 692,429 L 691,429 L 690,429 L 689,429 L 688,428 L 687,428 L 687,427 L 686,427 L 686,426 L 685,426 L 684,426 L 683,426 L 682,425 L 681,425 L 681,426 L 680,426 L 679,426 L 679,425 L 680,425 L 681,424 L 682,424 L 682,423 L 683,423 L 683,422 L 684,422 L 685,422 L 686,422 L 687,422 " />
<path d="M 1014,377 L 1013,377 L 1013,376 L 1012,375 L 1013,375 L 1014,375 L 1014,376 L 1014,377 " />
<path d="M 356,345 L 358,346 L 359,347 L 359,348 L 359,350 L 360,351 L 361,353 L 361,354 L 360,356 L 359,357 L 359,358 L 360,358 L 361,358 L 362,358 L 363,359 L 363,360 L 364,361 L 364,362 L 366,363 L 367,363 L 369,363 L 371,363 L 372,364 L 374,364 L 375,365 L 375,364 L 376,364 L 377,364 L 377,365 L 378,365 L 378,366 L 378,368 L 377,369 L 376,369 L 376,368 L 375,368 L 375,367 L 374,368 L 373,369 L 372,369 L 371,369 L 371,370 L 371,371 L 370,372 L 370,373 L 370,374 L 370,375 L 370,376 L 371,378 L 371,379 L 371,380 L 370,380 L 369,381 L 368,381 L 368,382 L 367,383 L 366,384 L 365,384 L 364,384 L 364,385 L 363,386 L 363,387 L 363,388 L 362,389 L 361,390 L 359,390 L 358,391 L 357,390 L 356,389 L 357,389 L 357,388 L 358,388 L 359,387 L 360,386 L 361,385 L 362,384 L 363,383 L 363,382 L 363,381 L 362,380 L 361,380 L 360,379 L 358,379 L 358,378 L 357,377 L 356,376 L 355,375 L 354,374 L 353,374 L 352,373 L 351,372 L 348,372 L 347,372 L 346,372 L 345,372 L 344,372 L 343,370 L 343,369 L 342,369 L 342,368 L 341,367 L 341,365 L 342,364 L 342,363 L 341,363 L 340,363 L 339,363 L 339,362 L 338,362 L 338,361 L 337,361 L 336,360 L 335,359 L 335,358 L 334,358 L 334,356 L 334,355 L 334,354 L 335,353 L 335,352 L 335,350 L 336,349 L 336,348 L 338,347 L 339,346 L 339,345 L 340,344 L 342,344 L 343,345 L 344,345 L 346,345 L 347,344 L 348,344 L 350,344 L 351,344 L 353,344 L 355,344 L 356,345 " />
<path d="M 402,333 L 402,334 L 402,335 L 401,335 L 400,336 L 400,337 L 401,337 L 402,338 L 403,338 L 404,338 L 404,339 L 405,339 L 406,339 L 407,339 L 408,339 L 408,340 L 408,341 L 409,341 L 409,342 L 409,343 L 409,344 L 410,344 L 410,343 L 411,343 L 412,342 L 412,341 L 413,341 L 414,341 L 415,341 L 416,342 L 416,341 L 417,341 L 418,341 L 418,340 L 418,339 L 419,339 L 419,338 L 420,338 L 421,338 L 421,339 L 422,339 L 422,340 L 422,341 L 423,341 L 423,342 L 423,343 L 423,344 L 423,345 L 424,346 L 424,347 L 424,348 L 424,349 L 424,350 L 424,351 L 423,352 L 422,352 L 421,352 L 420,352 L 419,353 L 418,353 L 418,354 L 418,355 L 417,355 L 417,356 L 417,357 L 417,358 L 416,358 L 415,359 L 415,360 L 414,360 L 413,360 L 412,360 L 411,360 L 410,359 L 409,359 L 409,358 L 408,357 L 407,358 L 406,359 L 405,359 L 404,358 L 404,357 L 405,357 L 405,356 L 405,355 L 405,354 L 405,353 L 405,352 L 404,352 L 404,351 L 403,351 L 403,350 L 402,350 L 401,349 L 400,349 L 399,349 L 398,349 L 397,349 L 397,350 L 396,350 L 395,351 L 394,352 L 393,352 L 392,353 L 390,354 L 389,354 L 387,354 L 386,355 L 386,356 L 385,357 L 384,358 L 383,358 L 382,358 L 381,358 L 379,358 L 377,358 L 375,358 L 373,358 L 372,358 L 371,358 L 370,357 L 370,356 L 370,355 L 369,354 L 369,353 L 369,352 L 368,350 L 368,349 L 369,348 L 370,348 L 371,348 L 372,348 L 373,348 L 373,349 L 373,348 L 373,347 L 371,346 L 370,345 L 369,344 L 369,343 L 369,342 L 370,340 L 371,339 L 372,338 L 373,337 L 375,337 L 376,336 L 377,336 L 378,336 L 379,336 L 381,336 L 382,336 L 384,336 L 385,336 L 386,336 L 387,336 L 389,335 L 390,335 L 391,334 L 393,334 L 394,334 L 395,334 L 396,334 L 396,333 L 397,333 L 397,332 L 397,331 L 398,331 L 399,331 L 400,331 L 400,332 L 400,333 L 401,333 L 402,333 " />
<path d="M 1134,260 L 1135,260 L 1136,260 L 1135,260 L 1135,261 L 1134,261 L 1133,260 L 1134,260 " />
<path d="M 949,220 L 950,220 L 951,220 L 951,221 L 952,221 L 952,222 L 953,222 L 954,223 L 953,224 L 952,224 L 952,225 L 952,226 L 951,226 L 951,227 L 950,227 L 950,228 L 949,228 L 949,229 L 949,230 L 948,231 L 947,231 L 946,232 L 946,233 L 945,233 L 944,233 L 943,233 L 942,233 L 941,233 L 940,232 L 939,232 L 939,231 L 939,230 L 938,230 L 938,229 L 939,229 L 939,228 L 940,228 L 940,227 L 939,226 L 938,226 L 938,225 L 937,225 L 937,224 L 938,224 L 939,224 L 939,223 L 940,223 L 941,223 L 942,223 L 943,223 L 943,222 L 944,221 L 945,221 L 944,220 L 945,220 L 946,220 L 947,219 L 948,219 L 949,219 L 949,220 " />
<path d="M 982,187 L 982,188 L 982,189 L 983,189 L 984,188 L 985,188 L 986,188 L 988,188 L 989,188 L 991,187 L 991,188 L 992,188 L 993,188 L 994,188 L 995,188 L 996,188 L 996,189 L 997,189 L 998,189 L 999,189 L 1000,189 L 1000,190 L 1001,190 L 1002,191 L 1003,191 L 1004,191 L 1005,191 L 1006,191 L 1006,192 L 1007,192 L 1008,192 L 1009,192 L 1010,192 L 1011,192 L 1012,193 L 1013,193 L 1014,193 L 1015,193 L 1015,194 L 1016,194 L 1017,194 L 1018,194 L 1019,195 L 1020,196 L 1021,196 L 1021,197 L 1022,197 L 1023,197 L 1024,197 L 1024,198 L 1025,198 L 1026,197 L 1027,197 L 1028,197 L 1028,198 L 1029,198 L 1030,198 L 1031,198 L 1031,197 L 1032,197 L 1032,196 L 1033,196 L 1034,196 L 1034,197 L 1035,197 L 1036,197 L 1036,198 L 1037,198 L 1037,199 L 1038,199 L 1038,200 L 1039,200 L 1040,200 L 1040,201 L 1041,201 L 1042,202 L 1043,202 L 1044,202 L 1045,202 L 1046,202 L 1047,203 L 1048,204 L 1048,205 L 1049,205 L 1049,206 L 1050,206 L 1050,207 L 1051,207 L 1051,206 L 1052,206 L 1052,207 L 1053,207 L 1054,208 L 1055,208 L 1055,209 L 1056,209 L 1057,210 L 1057,211 L 1058,211 L 1058,212 L 1057,213 L 1056,214 L 1055,214 L 1055,215 L 1054,215 L 1053,215 L 1052,215 L 1052,216 L 1051,216 L 1051,217 L 1050,217 L 1049,216 L 1048,216 L 1048,215 L 1047,214 L 1046,214 L 1045,213 L 1044,212 L 1044,211 L 1043,210 L 1042,209 L 1041,209 L 1040,208 L 1039,207 L 1039,206 L 1038,206 L 1036,205 L 1035,205 L 1034,205 L 1033,205 L 1032,204 L 1031,204 L 1031,203 L 1029,203 L 1028,203 L 1027,203 L 1026,203 L 1025,203 L 1024,203 L 1022,203 L 1022,204 L 1021,205 L 1020,205 L 1019,206 L 1019,207 L 1018,207 L 1017,208 L 1016,208 L 1016,209 L 1015,210 L 1015,211 L 1015,212 L 1014,212 L 1014,213 L 1013,213 L 1013,214 L 1013,215 L 1014,216 L 1014,217 L 1013,218 L 1012,218 L 1011,219 L 1010,219 L 1009,219 L 1008,220 L 1007,220 L 1007,221 L 1007,222 L 1006,223 L 1005,223 L 1004,223 L 1003,223 L 1002,222 L 1002,221 L 1001,221 L 1001,222 L 1000,222 L 1000,223 L 999,223 L 998,223 L 997,223 L 996,223 L 995,223 L 994,223 L 993,223 L 992,222 L 991,222 L 991,221 L 990,221 L 989,221 L 988,221 L 986,221 L 985,221 L 984,221 L 983,220 L 982,220 L 982,221 L 981,220 L 980,220 L 980,221 L 979,220 L 978,221 L 977,220 L 976,221 L 975,221 L 975,220 L 974,219 L 974,218 L 973,218 L 972,218 L 972,217 L 971,217 L 970,217 L 969,217 L 968,217 L 967,216 L 966,216 L 965,215 L 964,216 L 963,216 L 962,216 L 961,215 L 960,215 L 959,216 L 958,216 L 957,216 L 956,216 L 955,216 L 955,215 L 954,215 L 953,215 L 952,215 L 952,214 L 951,213 L 951,212 L 950,212 L 949,211 L 949,210 L 950,210 L 950,209 L 951,209 L 951,208 L 950,208 L 949,207 L 949,206 L 948,205 L 947,205 L 946,204 L 945,204 L 944,204 L 944,203 L 943,204 L 942,204 L 941,203 L 940,203 L 940,202 L 940,201 L 939,201 L 938,201 L 937,201 L 936,201 L 936,202 L 935,202 L 935,201 L 934,201 L 934,200 L 933,200 L 932,200 L 931,200 L 930,200 L 930,201 L 929,201 L 928,200 L 928,199 L 928,198 L 929,198 L 928,197 L 929,197 L 929,196 L 930,196 L 930,195 L 931,195 L 931,194 L 932,194 L 933,194 L 934,194 L 935,194 L 937,193 L 938,193 L 939,193 L 940,193 L 941,193 L 942,193 L 943,193 L 944,194 L 944,193 L 945,194 L 946,194 L 947,194 L 948,194 L 948,195 L 949,195 L 950,195 L 951,195 L 952,195 L 953,195 L 954,195 L 955,195 L 956,195 L 958,195 L 959,195 L 961,195 L 962,194 L 963,194 L 964,193 L 965,193 L 965,192 L 966,192 L 967,191 L 967,190 L 968,190 L 969,190 L 970,190 L 971,190 L 971,189 L 972,188 L 972,187 L 973,187 L 974,187 L 975,187 L 976,187 L 977,187 L 978,188 L 979,188 L 981,187 L 982,187 " />
<path d="M 1676,142 L 1676,143 L 1676,144 L 1676,145 L 1675,145 L 1674,145 L 1673,144 L 1672,143 L 1672,142 L 1671,142 L 1670,142 L 1669,143 L 1668,142 L 1668,141 L 1669,140 L 1668,140 L 1668,139 L 1667,139 L 1666,138 L 1666,137 L 1666,136 L 1667,136 L 1668,136 L 1669,136 L 1669,137 L 1670,137 L 1671,137 L 1672,138 L 1673,138 L 1674,138 L 1675,138 L 1676,139 L 1676,140 L 1675,141 L 1676,142 " />
<path d="M 1657,135 L 1657,136 L 1657,135 L 1656,135 L 1656,134 L 1657,134 L 1658,134 L 1658,135 L 1657,135 " />
<path d="M 1675,124 L 1674,124 L 1674,123 L 1673,123 L 1673,122 L 1674,122 L 1675,122 L 1675,123 L 1675,124 " />
<path d="M 1667,125 L 1666,125 L 1665,126 L 1664,125 L 1663,125 L 1663,126 L 1662,126 L 1662,127 L 1661,127 L 1660,126 L 1659,126 L 1658,126 L 1657,126 L 1656,126 L 1656,125 L 1655,125 L 1655,124 L 1654,124 L 1654,123 L 1653,122 L 1652,122 L 1652,121 L 1651,120 L 1652,119 L 1653,119 L 1654,118 L 1655,117 L 1655,116 L 1656,116 L 1656,115 L 1656,113 L 1656,112 L 1656,111 L 1656,109 L 1656,108 L 1656,107 L 1656,106 L 1657,105 L 1658,104 L 1659,104 L 1660,103 L 1661,103 L 1662,103 L 1663,104 L 1664,104 L 1665,105 L 1666,106 L 1667,106 L 1668,107 L 1669,108 L 1669,109 L 1669,110 L 1669,111 L 1668,112 L 1668,113 L 1668,114 L 1667,115 L 1667,116 L 1668,116 L 1668,117 L 1669,117 L 1669,118 L 1669,119 L 1670,119 L 1670,120 L 1670,121 L 1670,122 L 1669,122 L 1669,123 L 1668,123 L 1668,124 L 1667,124 L 1667,125 " />
<path d="M 1244,31 L 1244,32 L 1245,32 L 1245,33 L 1246,34 L 1247,34 L 1248,34 L 1249,34 L 1250,34 L 1251,34 L 1252,34 L 1253,34 L 1254,34 L 1255,34 L 1256,34 L 1256,35 L 1257,35 L 1258,35 L 1258,36 L 1259,36 L 1260,37 L 1261,37 L 1262,37 L 1263,37 L 1264,38 L 1265,38 L 1266,39 L 1267,38 L 1267,39 L 1268,39 L 1269,40 L 1270,41 L 1271,42 L 1272,43 L 1274,43 L 1274,44 L 1275,45 L 1276,46 L 1276,47 L 1276,48 L 1277,49 L 1278,50 L 1279,52 L 1280,53 L 1281,53 L 1281,54 L 1281,55 L 1282,56 L 1283,57 L 1284,59 L 1285,60 L 1285,61 L 1285,63 L 1286,64 L 1287,64 L 1287,65 L 1289,66 L 1289,67 L 1290,68 L 1290,69 L 1291,70 L 1292,72 L 1292,73 L 1293,73 L 1293,74 L 1294,74 L 1294,75 L 1295,75 L 1296,75 L 1296,76 L 1297,76 L 1298,76 L 1298,75 L 1299,75 L 1300,75 L 1301,75 L 1301,74 L 1302,74 L 1303,75 L 1304,75 L 1306,75 L 1306,76 L 1307,77 L 1308,78 L 1308,79 L 1309,79 L 1309,80 L 1310,81 L 1311,81 L 1312,80 L 1313,81 L 1313,82 L 1314,82 L 1315,82 L 1316,82 L 1316,83 L 1317,83 L 1318,83 L 1318,84 L 1318,85 L 1318,86 L 1319,87 L 1320,87 L 1320,88 L 1321,88 L 1322,89 L 1323,90 L 1324,91 L 1325,91 L 1326,91 L 1327,91 L 1328,91 L 1329,92 L 1330,93 L 1330,94 L 1331,95 L 1331,96 L 1332,96 L 1332,97 L 1332,98 L 1332,99 L 1333,99 L 1334,100 L 1335,101 L 1336,101 L 1337,102 L 1338,102 L 1339,103 L 1339,104 L 1340,105 L 1341,106 L 1343,106 L 1344,105 L 1345,105 L 1346,105 L 1347,104 L 1348,104 L 1349,104 L 1350,104 L 1349,103 L 1349,102 L 1350,102 L 1351,103 L 1351,104 L 1352,105 L 1353,106 L 1354,107 L 1355,108 L 1355,109 L 1355,110 L 1356,111 L 1356,112 L 1357,113 L 1358,114 L 1359,113 L 1360,112 L 1361,112 L 1362,113 L 1363,113 L 1364,113 L 1366,114 L 1367,115 L 1368,116 L 1369,116 L 1370,116 L 1372,116 L 1373,117 L 1374,117 L 1375,117 L 1375,116 L 1376,116 L 1377,117 L 1378,118 L 1379,118 L 1380,119 L 1381,120 L 1382,121 L 1382,122 L 1383,121 L 1384,121 L 1385,121 L 1386,121 L 1387,121 L 1388,120 L 1389,120 L 1390,120 L 1391,120 L 1392,121 L 1393,121 L 1395,121 L 1396,121 L 1396,122 L 1397,122 L 1398,122 L 1398,123 L 1398,124 L 1398,125 L 1399,126 L 1400,127 L 1401,127 L 1402,128 L 1402,129 L 1402,130 L 1403,130 L 1404,130 L 1405,130 L 1406,130 L 1407,130 L 1407,131 L 1408,132 L 1409,132 L 1410,132 L 1411,133 L 1412,133 L 1413,134 L 1414,134 L 1415,135 L 1416,135 L 1417,136 L 1418,136 L 1420,137 L 1421,137 L 1423,138 L 1424,138 L 1426,139 L 1428,140 L 1430,141 L 1431,142 L 1432,143 L 1433,144 L 1433,145 L 1434,145 L 1435,146 L 1436,147 L 1437,148 L 1438,148 L 1439,148 L 1439,149 L 1440,149 L 1441,149 L 1442,150 L 1443,151 L 1445,151 L 1446,151 L 1447,152 L 1447,153 L 1448,153 L 1449,154 L 1450,154 L 1451,155 L 1452,155 L 1453,156 L 1454,156 L 1455,157 L 1456,158 L 1456,159 L 1457,160 L 1457,161 L 1456,161 L 1455,162 L 1455,163 L 1454,164 L 1453,165 L 1453,166 L 1452,166 L 1451,166 L 1450,166 L 1449,166 L 1448,167 L 1448,168 L 1447,168 L 1445,168 L 1444,169 L 1443,170 L 1442,170 L 1442,171 L 1441,171 L 1440,171 L 1439,170 L 1438,170 L 1437,170 L 1436,171 L 1435,171 L 1434,171 L 1433,171 L 1432,172 L 1430,172 L 1429,172 L 1428,172 L 1427,173 L 1426,174 L 1425,174 L 1423,175 L 1422,174 L 1421,175 L 1420,175 L 1419,175 L 1418,174 L 1417,174 L 1416,174 L 1415,174 L 1414,175 L 1413,175 L 1413,174 L 1412,174 L 1411,174 L 1410,174 L 1409,174 L 1408,174 L 1407,174 L 1406,174 L 1405,175 L 1403,175 L 1402,175 L 1401,175 L 1400,175 L 1399,175 L 1398,175 L 1397,175 L 1396,175 L 1395,175 L 1395,174 L 1394,174 L 1393,174 L 1393,173 L 1392,173 L 1391,172 L 1391,171 L 1390,171 L 1389,171 L 1389,170 L 1388,170 L 1387,170 L 1386,169 L 1385,168 L 1385,167 L 1385,166 L 1384,164 L 1384,163 L 1383,163 L 1382,163 L 1381,163 L 1380,163 L 1379,162 L 1378,161 L 1377,160 L 1376,160 L 1375,159 L 1373,160 L 1373,159 L 1373,158 L 1372,158 L 1372,157 L 1371,157 L 1370,157 L 1369,157 L 1369,156 L 1368,156 L 1368,155 L 1368,154 L 1367,154 L 1366,153 L 1365,153 L 1365,152 L 1365,151 L 1364,150 L 1363,150 L 1362,150 L 1360,150 L 1359,150 L 1358,151 L 1357,151 L 1356,151 L 1355,151 L 1354,152 L 1353,153 L 1352,153 L 1352,154 L 1352,155 L 1351,156 L 1349,156 L 1349,157 L 1349,158 L 1348,158 L 1347,158 L 1346,158 L 1345,158 L 1345,159 L 1346,159 L 1345,159 L 1344,159 L 1344,164 L 1343,164 L 1343,160 L 1343,159 L 1342,159 L 1341,159 L 1341,160 L 1341,161 L 1340,161 L 1339,161 L 1337,161 L 1336,161 L 1335,160 L 1334,160 L 1333,159 L 1333,158 L 1332,158 L 1331,159 L 1330,159 L 1329,159 L 1329,160 L 1328,160 L 1326,159 L 1325,159 L 1324,159 L 1323,159 L 1323,160 L 1322,160 L 1321,160 L 1320,161 L 1319,162 L 1317,162 L 1316,162 L 1315,161 L 1314,161 L 1313,161 L 1312,161 L 1311,161 L 1310,161 L 1309,161 L 1309,160 L 1308,161 L 1307,161 L 1306,161 L 1305,162 L 1304,162 L 1303,162 L 1302,162 L 1301,163 L 1300,163 L 1300,162 L 1299,162 L 1298,162 L 1297,162 L 1296,162 L 1295,162 L 1294,163 L 1293,163 L 1292,163 L 1291,163 L 1290,163 L 1290,164 L 1289,164 L 1288,164 L 1288,165 L 1287,165 L 1287,166 L 1286,166 L 1285,166 L 1284,166 L 1282,166 L 1281,167 L 1280,168 L 1278,168 L 1277,168 L 1275,168 L 1275,169 L 1274,170 L 1274,171 L 1273,171 L 1273,172 L 1272,173 L 1271,173 L 1270,174 L 1269,174 L 1267,175 L 1265,176 L 1264,176 L 1263,176 L 1261,177 L 1260,177 L 1259,177 L 1258,177 L 1257,177 L 1256,177 L 1255,177 L 1254,177 L 1253,177 L 1252,177 L 1251,177 L 1250,177 L 1249,177 L 1249,176 L 1248,176 L 1247,176 L 1247,175 L 1247,174 L 1246,174 L 1245,174 L 1244,174 L 1244,175 L 1244,176 L 1244,177 L 1244,178 L 1244,179 L 1243,180 L 1243,181 L 1242,181 L 1241,181 L 1241,182 L 1240,182 L 1239,183 L 1239,182 L 1238,182 L 1237,182 L 1236,182 L 1236,183 L 1237,183 L 1236,184 L 1236,185 L 1235,185 L 1234,185 L 1234,186 L 1233,186 L 1232,186 L 1232,187 L 1231,187 L 1230,187 L 1229,187 L 1229,188 L 1229,189 L 1228,189 L 1227,190 L 1226,191 L 1225,191 L 1225,192 L 1224,193 L 1223,194 L 1223,195 L 1224,195 L 1225,195 L 1224,195 L 1223,196 L 1222,197 L 1221,198 L 1220,199 L 1218,200 L 1217,201 L 1216,202 L 1214,203 L 1213,204 L 1212,204 L 1211,203 L 1210,203 L 1210,202 L 1209,203 L 1209,204 L 1208,205 L 1207,206 L 1206,206 L 1205,207 L 1205,208 L 1204,208 L 1204,209 L 1203,210 L 1202,211 L 1201,212 L 1200,213 L 1199,213 L 1198,212 L 1197,212 L 1197,211 L 1196,211 L 1195,210 L 1194,210 L 1194,209 L 1193,208 L 1193,207 L 1191,206 L 1190,206 L 1188,205 L 1186,205 L 1185,205 L 1184,205 L 1183,206 L 1182,206 L 1181,206 L 1180,206 L 1179,206 L 1177,207 L 1177,208 L 1178,208 L 1179,208 L 1180,208 L 1181,208 L 1181,209 L 1182,209 L 1182,210 L 1183,211 L 1184,211 L 1185,211 L 1186,212 L 1186,213 L 1187,214 L 1186,214 L 1186,215 L 1185,216 L 1184,216 L 1183,217 L 1182,218 L 1181,218 L 1180,218 L 1179,218 L 1178,217 L 1177,217 L 1176,218 L 1174,218 L 1174,219 L 1172,219 L 1170,220 L 1169,220 L 1168,220 L 1167,220 L 1166,220 L 1165,220 L 1164,220 L 1163,221 L 1162,222 L 1161,223 L 1159,223 L 1158,223 L 1157,224 L 1156,224 L 1155,225 L 1154,227 L 1153,228 L 1152,229 L 1151,230 L 1150,231 L 1149,232 L 1149,234 L 1148,235 L 1147,235 L 1146,236 L 1144,237 L 1143,238 L 1142,239 L 1142,240 L 1141,242 L 1141,243 L 1140,244 L 1140,245 L 1139,245 L 1139,246 L 1139,247 L 1139,248 L 1138,248 L 1138,249 L 1137,250 L 1136,250 L 1135,251 L 1134,252 L 1133,253 L 1133,254 L 1133,255 L 1132,257 L 1132,258 L 1132,259 L 1131,258 L 1130,259 L 1129,260 L 1129,259 L 1128,260 L 1127,260 L 1127,261 L 1126,262 L 1125,263 L 1125,264 L 1125,265 L 1124,265 L 1124,266 L 1123,267 L 1123,268 L 1122,269 L 1121,269 L 1120,270 L 1119,272 L 1118,273 L 1117,273 L 1116,274 L 1115,274 L 1115,275 L 1115,276 L 1115,277 L 1115,278 L 1114,279 L 1113,280 L 1112,281 L 1111,281 L 1111,282 L 1110,283 L 1110,284 L 1109,284 L 1108,285 L 1107,285 L 1106,286 L 1105,286 L 1104,287 L 1104,288 L 1103,288 L 1103,289 L 1103,290 L 1104,290 L 1103,291 L 1102,292 L 1101,292 L 1099,292 L 1098,292 L 1097,292 L 1096,292 L 1095,293 L 1095,294 L 1094,294 L 1093,295 L 1093,296 L 1093,297 L 1093,298 L 1092,299 L 1091,300 L 1090,300 L 1089,300 L 1088,300 L 1087,300 L 1086,299 L 1086,298 L 1086,297 L 1085,297 L 1084,297 L 1083,298 L 1083,299 L 1082,300 L 1081,299 L 1080,299 L 1079,299 L 1078,299 L 1076,299 L 1076,300 L 1075,300 L 1074,300 L 1073,301 L 1073,302 L 1073,303 L 1072,303 L 1071,303 L 1071,302 L 1070,302 L 1069,302 L 1068,303 L 1067,303 L 1066,303 L 1065,303 L 1064,303 L 1063,304 L 1062,304 L 1061,305 L 1061,306 L 1061,307 L 1061,308 L 1061,309 L 1061,310 L 1060,311 L 1059,311 L 1058,311 L 1057,311 L 1056,311 L 1056,312 L 1055,312 L 1055,313 L 1054,313 L 1054,314 L 1053,314 L 1053,315 L 1053,316 L 1052,316 L 1052,317 L 1053,317 L 1053,318 L 1053,319 L 1053,320 L 1052,321 L 1052,322 L 1052,323 L 1051,324 L 1051,325 L 1051,326 L 1051,327 L 1051,328 L 1051,329 L 1050,330 L 1050,331 L 1050,332 L 1049,333 L 1049,334 L 1048,335 L 1047,336 L 1046,336 L 1046,337 L 1045,337 L 1044,338 L 1044,337 L 1043,337 L 1043,338 L 1042,339 L 1041,339 L 1040,340 L 1039,341 L 1039,342 L 1039,343 L 1040,344 L 1041,344 L 1041,345 L 1041,346 L 1040,347 L 1040,348 L 1040,349 L 1039,350 L 1039,351 L 1038,352 L 1037,352 L 1036,353 L 1035,353 L 1035,354 L 1034,355 L 1033,355 L 1032,355 L 1031,356 L 1030,356 L 1029,356 L 1028,356 L 1027,357 L 1026,357 L 1026,358 L 1025,359 L 1025,360 L 1024,361 L 1023,361 L 1022,361 L 1021,362 L 1020,362 L 1019,362 L 1019,363 L 1018,363 L 1017,363 L 1017,362 L 1016,362 L 1016,363 L 1015,363 L 1014,363 L 1014,364 L 1014,365 L 1013,366 L 1013,367 L 1012,368 L 1011,369 L 1011,370 L 1011,371 L 1011,372 L 1010,372 L 1009,372 L 1009,371 L 1008,371 L 1007,371 L 1007,372 L 1006,372 L 1005,372 L 1005,371 L 1004,372 L 1003,372 L 1002,372 L 1001,372 L 1000,373 L 1000,374 L 999,375 L 998,376 L 998,377 L 997,377 L 997,378 L 996,378 L 995,379 L 995,380 L 995,381 L 995,382 L 995,383 L 994,382 L 994,383 L 994,384 L 993,384 L 993,385 L 994,385 L 994,386 L 993,387 L 992,387 L 992,388 L 991,388 L 991,389 L 990,390 L 989,391 L 989,392 L 988,392 L 987,392 L 987,393 L 986,393 L 986,394 L 986,395 L 986,396 L 986,397 L 985,397 L 984,397 L 985,398 L 984,399 L 985,399 L 985,400 L 986,400 L 987,400 L 987,401 L 987,402 L 986,402 L 985,402 L 984,402 L 984,403 L 984,404 L 985,405 L 985,406 L 985,407 L 985,408 L 985,409 L 985,410 L 984,411 L 983,411 L 983,412 L 983,413 L 984,413 L 984,414 L 984,415 L 984,416 L 984,417 L 984,418 L 984,419 L 984,420 L 984,421 L 984,422 L 984,423 L 984,424 L 984,425 L 983,427 L 982,428 L 982,429 L 982,430 L 981,430 L 981,432 L 980,432 L 979,432 L 978,432 L 977,432 L 977,433 L 977,434 L 978,435 L 977,435 L 976,436 L 976,435 L 975,435 L 974,435 L 974,434 L 973,434 L 973,435 L 972,435 L 971,435 L 971,436 L 970,436 L 970,437 L 970,438 L 969,439 L 968,439 L 967,439 L 966,440 L 965,440 L 964,441 L 964,442 L 963,443 L 962,443 L 961,444 L 960,444 L 959,444 L 958,444 L 957,444 L 956,444 L 956,445 L 955,445 L 955,446 L 954,447 L 953,448 L 952,449 L 951,449 L 950,449 L 950,450 L 949,450 L 948,451 L 948,452 L 947,452 L 947,453 L 947,454 L 946,454 L 946,455 L 946,456 L 946,457 L 945,458 L 945,459 L 944,459 L 944,460 L 943,460 L 942,461 L 941,461 L 940,461 L 940,462 L 939,462 L 938,462 L 937,462 L 937,463 L 936,464 L 936,465 L 936,466 L 937,466 L 938,466 L 938,467 L 937,467 L 937,468 L 936,469 L 935,469 L 934,469 L 933,469 L 932,469 L 932,468 L 931,468 L 930,468 L 929,469 L 929,470 L 928,470 L 927,471 L 927,472 L 928,473 L 928,474 L 927,475 L 927,476 L 927,477 L 927,478 L 928,478 L 928,479 L 929,480 L 929,481 L 928,481 L 928,482 L 927,483 L 928,483 L 928,484 L 929,484 L 929,485 L 928,485 L 928,486 L 927,486 L 927,487 L 926,487 L 925,487 L 924,486 L 923,487 L 922,487 L 921,486 L 920,486 L 919,487 L 918,487 L 917,487 L 917,488 L 918,489 L 918,490 L 917,490 L 917,491 L 917,492 L 916,492 L 916,493 L 916,494 L 917,494 L 917,495 L 917,496 L 916,497 L 916,498 L 916,499 L 916,500 L 916,501 L 915,502 L 915,503 L 915,504 L 914,505 L 913,505 L 912,505 L 912,504 L 911,504 L 910,504 L 909,503 L 908,502 L 908,503 L 907,503 L 906,504 L 905,505 L 904,506 L 903,507 L 902,508 L 901,508 L 900,509 L 899,510 L 898,511 L 897,512 L 897,513 L 896,514 L 896,515 L 895,516 L 894,517 L 894,518 L 893,518 L 892,519 L 890,519 L 889,520 L 888,520 L 886,521 L 885,521 L 884,521 L 883,521 L 883,522 L 882,523 L 881,524 L 881,525 L 879,526 L 878,526 L 878,525 L 878,526 L 877,527 L 876,528 L 875,528 L 874,528 L 873,527 L 872,527 L 872,528 L 871,528 L 870,529 L 869,529 L 868,529 L 867,529 L 867,528 L 866,528 L 865,528 L 865,529 L 864,529 L 863,530 L 862,531 L 863,532 L 863,533 L 863,534 L 862,534 L 861,533 L 861,532 L 860,532 L 860,531 L 859,531 L 859,530 L 858,529 L 858,530 L 857,531 L 856,532 L 856,533 L 855,534 L 855,533 L 855,532 L 855,531 L 855,530 L 855,529 L 854,528 L 853,528 L 852,527 L 851,527 L 850,527 L 849,527 L 848,527 L 847,528 L 846,528 L 846,527 L 845,527 L 844,527 L 843,527 L 842,528 L 841,529 L 840,529 L 839,530 L 838,530 L 837,529 L 837,530 L 836,531 L 835,531 L 834,533 L 833,534 L 832,535 L 831,535 L 830,535 L 829,535 L 828,535 L 827,535 L 827,537 L 826,537 L 825,538 L 824,538 L 823,538 L 822,538 L 821,537 L 820,537 L 819,537 L 818,537 L 817,537 L 816,538 L 815,538 L 814,538 L 813,538 L 812,537 L 811,537 L 811,538 L 810,538 L 810,539 L 809,540 L 808,541 L 808,542 L 808,543 L 808,544 L 807,544 L 807,543 L 807,542 L 806,541 L 805,541 L 804,540 L 803,539 L 802,539 L 802,538 L 801,538 L 800,537 L 799,536 L 798,535 L 797,535 L 796,534 L 795,534 L 794,533 L 793,533 L 791,533 L 790,533 L 789,533 L 788,534 L 786,534 L 785,534 L 784,533 L 784,532 L 783,532 L 782,532 L 781,532 L 780,532 L 780,533 L 779,534 L 779,533 L 778,533 L 778,534 L 778,535 L 778,536 L 777,536 L 777,537 L 776,537 L 776,538 L 777,538 L 776,538 L 776,539 L 777,539 L 778,539 L 778,540 L 777,540 L 776,540 L 775,540 L 774,540 L 774,541 L 773,540 L 773,539 L 773,538 L 772,539 L 771,539 L 770,540 L 769,540 L 769,541 L 768,541 L 768,542 L 768,543 L 767,543 L 766,544 L 765,544 L 764,544 L 764,545 L 763,545 L 762,545 L 761,545 L 760,546 L 759,547 L 758,547 L 757,548 L 756,549 L 756,550 L 755,550 L 755,551 L 754,551 L 754,552 L 755,552 L 754,553 L 754,554 L 753,555 L 752,556 L 751,556 L 751,557 L 751,558 L 750,558 L 750,559 L 749,559 L 749,560 L 749,561 L 748,561 L 748,562 L 747,563 L 747,564 L 747,565 L 746,565 L 745,565 L 744,565 L 744,566 L 743,565 L 743,566 L 742,567 L 742,568 L 742,569 L 742,570 L 742,571 L 741,572 L 740,572 L 740,573 L 740,574 L 739,574 L 739,575 L 738,575 L 738,576 L 737,577 L 736,578 L 736,579 L 736,580 L 736,581 L 735,582 L 734,582 L 733,582 L 732,582 L 731,582 L 730,582 L 729,582 L 728,582 L 728,583 L 728,584 L 728,585 L 727,586 L 727,587 L 727,588 L 727,589 L 726,590 L 725,590 L 724,591 L 723,591 L 722,591 L 722,592 L 721,592 L 721,593 L 720,593 L 720,594 L 719,594 L 719,595 L 718,595 L 717,595 L 716,595 L 715,596 L 714,596 L 713,596 L 711,596 L 710,596 L 709,596 L 708,596 L 707,597 L 706,596 L 705,596 L 704,596 L 703,595 L 702,595 L 701,595 L 700,595 L 699,595 L 698,595 L 697,595 L 696,596 L 695,596 L 694,596 L 693,596 L 692,596 L 691,596 L 690,596 L 690,597 L 689,597 L 688,597 L 688,596 L 687,596 L 686,596 L 685,596 L 684,596 L 683,596 L 682,596 L 681,596 L 680,596 L 679,596 L 678,596 L 677,596 L 676,595 L 675,595 L 675,596 L 674,596 L 673,596 L 672,596 L 671,596 L 670,596 L 669,596 L 669,595 L 668,595 L 667,595 L 666,595 L 665,595 L 664,595 L 663,595 L 662,595 L 661,595 L 660,595 L 659,594 L 658,594 L 657,594 L 656,593 L 655,593 L 654,593 L 653,593 L 652,593 L 651,593 L 650,594 L 649,593 L 648,593 L 647,593 L 646,593 L 645,593 L 644,593 L 643,593 L 642,593 L 641,592 L 640,591 L 639,591 L 638,590 L 637,590 L 636,589 L 635,589 L 634,589 L 633,588 L 632,588 L 632,587 L 632,586 L 631,586 L 630,585 L 629,584 L 630,584 L 630,583 L 629,583 L 628,583 L 627,583 L 627,582 L 627,581 L 626,581 L 626,580 L 626,579 L 625,579 L 624,579 L 623,579 L 623,578 L 622,578 L 622,577 L 621,576 L 620,577 L 619,576 L 618,576 L 618,575 L 617,575 L 616,574 L 615,573 L 613,573 L 612,572 L 611,572 L 611,573 L 610,573 L 609,574 L 608,574 L 607,574 L 606,574 L 605,574 L 605,575 L 605,576 L 604,577 L 603,577 L 602,577 L 602,578 L 601,578 L 600,578 L 600,577 L 599,576 L 598,575 L 597,575 L 597,574 L 597,573 L 596,573 L 595,573 L 595,572 L 594,571 L 594,570 L 594,569 L 594,568 L 593,567 L 593,566 L 593,565 L 592,565 L 591,565 L 591,566 L 590,566 L 589,567 L 588,566 L 587,566 L 586,565 L 585,565 L 585,564 L 584,564 L 584,563 L 584,562 L 583,562 L 582,562 L 581,561 L 580,560 L 580,559 L 579,559 L 578,558 L 578,557 L 577,557 L 576,556 L 576,555 L 575,555 L 574,554 L 574,553 L 573,553 L 573,552 L 572,552 L 572,551 L 572,550 L 571,550 L 570,549 L 570,548 L 569,548 L 569,547 L 569,546 L 569,545 L 569,544 L 569,543 L 568,543 L 568,542 L 567,541 L 567,540 L 567,539 L 566,539 L 565,538 L 564,538 L 564,537 L 564,536 L 564,535 L 565,534 L 565,533 L 564,532 L 564,531 L 563,531 L 562,531 L 561,530 L 560,530 L 560,529 L 559,529 L 558,529 L 558,528 L 558,527 L 557,526 L 556,526 L 556,525 L 556,524 L 556,522 L 557,521 L 556,520 L 556,519 L 556,518 L 555,517 L 554,517 L 553,517 L 552,517 L 552,516 L 551,516 L 551,515 L 552,514 L 552,513 L 552,512 L 551,512 L 551,511 L 552,511 L 551,510 L 551,509 L 551,508 L 552,508 L 553,508 L 553,507 L 553,506 L 552,505 L 553,505 L 553,504 L 553,503 L 554,503 L 555,502 L 556,502 L 557,503 L 558,503 L 559,503 L 559,504 L 559,505 L 560,505 L 560,506 L 560,507 L 561,507 L 561,508 L 562,508 L 562,509 L 563,508 L 564,508 L 565,508 L 566,508 L 567,508 L 567,509 L 568,509 L 569,510 L 568,511 L 568,512 L 567,512 L 566,512 L 565,512 L 564,512 L 563,512 L 562,512 L 561,512 L 561,513 L 560,513 L 560,514 L 560,515 L 560,516 L 561,516 L 562,516 L 563,517 L 564,517 L 565,518 L 566,518 L 567,518 L 568,517 L 569,517 L 570,516 L 571,515 L 572,515 L 572,514 L 573,514 L 573,513 L 574,513 L 574,512 L 575,512 L 575,511 L 575,510 L 576,510 L 576,509 L 577,508 L 578,508 L 579,508 L 580,507 L 581,508 L 582,508 L 583,508 L 584,509 L 585,510 L 586,510 L 587,511 L 588,512 L 587,513 L 587,514 L 587,515 L 587,516 L 588,516 L 588,517 L 588,518 L 588,519 L 588,520 L 588,521 L 587,522 L 587,523 L 588,523 L 589,522 L 590,522 L 590,521 L 591,521 L 592,521 L 593,521 L 593,522 L 593,523 L 594,523 L 594,524 L 594,525 L 594,526 L 594,527 L 594,528 L 595,528 L 595,527 L 596,526 L 597,525 L 597,523 L 597,522 L 597,521 L 597,520 L 598,519 L 598,518 L 599,518 L 600,518 L 600,517 L 601,517 L 602,517 L 602,516 L 602,515 L 602,514 L 602,513 L 602,512 L 602,511 L 603,511 L 603,510 L 604,509 L 605,509 L 606,510 L 607,510 L 608,509 L 609,509 L 610,509 L 610,508 L 610,507 L 610,506 L 609,505 L 609,504 L 610,503 L 609,503 L 610,502 L 610,501 L 611,500 L 612,500 L 613,501 L 613,502 L 614,502 L 614,503 L 615,504 L 616,504 L 617,504 L 617,505 L 618,505 L 619,504 L 620,504 L 620,503 L 620,502 L 619,502 L 619,501 L 618,500 L 618,499 L 619,499 L 619,498 L 620,498 L 620,497 L 620,496 L 620,495 L 619,494 L 620,493 L 619,492 L 618,492 L 617,491 L 616,491 L 616,490 L 615,490 L 614,490 L 614,489 L 614,488 L 615,488 L 616,488 L 617,488 L 617,487 L 618,487 L 618,488 L 619,488 L 619,487 L 620,486 L 619,486 L 620,486 L 620,485 L 619,485 L 619,484 L 620,483 L 620,484 L 621,484 L 622,484 L 623,485 L 623,484 L 624,484 L 625,484 L 625,483 L 626,483 L 626,482 L 626,481 L 626,480 L 625,480 L 625,479 L 624,479 L 624,478 L 624,477 L 625,477 L 625,476 L 626,476 L 627,476 L 628,476 L 629,476 L 628,475 L 627,475 L 627,474 L 628,474 L 629,474 L 630,475 L 630,474 L 630,473 L 630,472 L 631,472 L 631,471 L 631,470 L 631,469 L 632,468 L 632,467 L 633,467 L 634,468 L 634,467 L 634,466 L 633,466 L 633,465 L 633,464 L 634,464 L 634,463 L 634,462 L 634,461 L 634,460 L 635,460 L 636,460 L 637,461 L 637,462 L 637,463 L 638,463 L 639,463 L 640,463 L 641,463 L 642,463 L 642,464 L 643,464 L 644,464 L 645,465 L 646,465 L 647,465 L 647,464 L 648,464 L 649,464 L 649,465 L 650,465 L 650,466 L 651,466 L 652,466 L 653,467 L 654,467 L 655,467 L 656,468 L 657,468 L 658,467 L 658,466 L 658,465 L 658,464 L 658,463 L 659,462 L 659,461 L 659,460 L 659,459 L 659,458 L 660,458 L 660,457 L 660,456 L 660,455 L 660,454 L 660,453 L 660,452 L 660,451 L 659,451 L 659,450 L 659,449 L 659,448 L 659,447 L 659,446 L 659,445 L 660,445 L 661,444 L 662,444 L 663,444 L 663,443 L 664,443 L 664,442 L 665,442 L 666,442 L 667,442 L 668,442 L 669,441 L 670,441 L 671,441 L 672,441 L 673,441 L 674,441 L 674,442 L 675,442 L 676,442 L 677,442 L 678,443 L 678,444 L 678,445 L 677,446 L 676,446 L 675,446 L 674,446 L 674,447 L 673,447 L 673,448 L 673,449 L 673,450 L 673,451 L 672,451 L 672,452 L 671,452 L 670,453 L 670,454 L 669,455 L 669,456 L 669,457 L 669,458 L 669,459 L 669,460 L 669,461 L 668,461 L 668,462 L 667,463 L 667,464 L 667,465 L 666,465 L 666,466 L 666,467 L 665,467 L 665,468 L 665,469 L 664,469 L 663,470 L 664,470 L 665,470 L 666,470 L 667,470 L 668,470 L 668,471 L 669,470 L 669,469 L 670,469 L 671,468 L 671,467 L 671,466 L 672,466 L 672,465 L 672,464 L 672,463 L 673,463 L 673,461 L 673,460 L 674,460 L 674,459 L 674,458 L 675,457 L 676,456 L 677,455 L 678,454 L 679,453 L 680,453 L 681,452 L 682,452 L 682,451 L 683,451 L 684,451 L 684,450 L 685,450 L 685,449 L 685,448 L 686,448 L 687,448 L 688,448 L 689,448 L 690,448 L 690,449 L 690,450 L 690,451 L 690,452 L 689,452 L 689,453 L 689,454 L 688,454 L 688,455 L 689,454 L 690,453 L 691,453 L 691,452 L 692,452 L 692,451 L 692,450 L 692,449 L 693,449 L 694,449 L 694,448 L 695,448 L 696,449 L 697,450 L 698,449 L 699,449 L 699,448 L 700,448 L 701,448 L 702,448 L 703,448 L 703,449 L 704,449 L 704,450 L 704,451 L 705,452 L 706,452 L 706,451 L 706,450 L 707,450 L 707,449 L 707,448 L 708,448 L 708,449 L 709,449 L 710,450 L 711,450 L 712,451 L 713,452 L 713,453 L 712,454 L 712,455 L 711,456 L 711,457 L 711,458 L 710,458 L 710,459 L 709,460 L 709,461 L 709,462 L 710,462 L 710,461 L 711,461 L 712,460 L 713,460 L 713,459 L 714,460 L 714,461 L 715,462 L 715,463 L 716,464 L 716,465 L 716,466 L 716,467 L 717,467 L 717,466 L 717,465 L 717,464 L 717,463 L 717,462 L 718,462 L 718,461 L 719,461 L 719,460 L 719,459 L 720,458 L 720,457 L 721,457 L 722,457 L 722,458 L 723,458 L 724,458 L 724,459 L 724,460 L 725,460 L 725,461 L 725,462 L 725,463 L 726,463 L 726,462 L 726,461 L 727,461 L 727,460 L 727,459 L 728,459 L 727,458 L 727,457 L 728,456 L 728,455 L 729,455 L 729,454 L 729,453 L 729,452 L 729,451 L 728,450 L 728,449 L 728,448 L 727,447 L 727,446 L 728,446 L 728,445 L 728,444 L 728,443 L 728,442 L 729,442 L 730,442 L 731,443 L 732,443 L 733,444 L 734,444 L 735,445 L 735,446 L 736,447 L 737,447 L 737,448 L 738,449 L 739,449 L 740,449 L 741,449 L 741,450 L 742,450 L 743,450 L 743,451 L 744,452 L 745,452 L 746,453 L 747,453 L 747,454 L 748,454 L 748,453 L 747,453 L 747,452 L 747,451 L 747,450 L 748,449 L 749,448 L 750,448 L 751,447 L 752,447 L 753,447 L 754,447 L 754,448 L 755,449 L 756,449 L 756,450 L 757,451 L 757,452 L 758,453 L 758,454 L 759,455 L 759,456 L 760,456 L 760,457 L 759,458 L 760,458 L 761,457 L 761,456 L 761,455 L 761,454 L 762,453 L 763,453 L 764,452 L 765,451 L 766,451 L 766,452 L 767,453 L 768,453 L 769,453 L 770,453 L 771,453 L 772,454 L 773,455 L 774,455 L 774,456 L 775,457 L 775,458 L 776,458 L 777,458 L 778,458 L 779,459 L 780,459 L 780,460 L 781,460 L 781,461 L 782,461 L 783,462 L 784,462 L 784,461 L 785,461 L 785,460 L 786,459 L 787,459 L 788,459 L 789,459 L 789,460 L 789,461 L 789,462 L 790,462 L 790,461 L 790,460 L 791,460 L 791,459 L 791,458 L 791,457 L 791,456 L 791,455 L 791,454 L 792,454 L 793,454 L 793,455 L 794,455 L 794,454 L 795,454 L 796,454 L 796,453 L 796,452 L 797,452 L 798,452 L 798,451 L 798,450 L 799,449 L 800,449 L 800,448 L 800,447 L 800,446 L 801,445 L 801,444 L 801,443 L 801,442 L 802,442 L 803,441 L 804,441 L 805,441 L 806,441 L 806,440 L 807,440 L 808,441 L 808,442 L 807,442 L 807,443 L 808,443 L 809,442 L 809,441 L 810,441 L 810,440 L 810,439 L 811,439 L 811,438 L 811,437 L 812,437 L 812,436 L 812,435 L 813,434 L 814,434 L 815,434 L 815,435 L 815,436 L 816,437 L 817,438 L 817,439 L 817,440 L 817,441 L 817,442 L 817,443 L 818,444 L 819,444 L 820,444 L 820,445 L 821,445 L 821,446 L 820,446 L 820,447 L 820,448 L 821,448 L 821,449 L 822,449 L 822,450 L 823,450 L 824,450 L 825,451 L 825,452 L 825,453 L 826,454 L 827,454 L 828,453 L 829,453 L 829,452 L 829,451 L 830,451 L 830,450 L 829,450 L 829,449 L 828,449 L 828,448 L 829,448 L 829,447 L 829,446 L 828,446 L 828,445 L 828,444 L 828,443 L 828,442 L 828,441 L 828,440 L 829,440 L 829,439 L 829,438 L 830,438 L 831,438 L 832,437 L 832,436 L 833,436 L 834,436 L 835,436 L 836,436 L 836,437 L 836,438 L 837,439 L 838,439 L 838,438 L 839,438 L 839,437 L 840,437 L 840,436 L 840,435 L 841,435 L 842,434 L 843,434 L 843,433 L 844,433 L 845,433 L 846,432 L 846,431 L 846,430 L 846,429 L 845,429 L 845,428 L 845,427 L 844,426 L 844,425 L 843,424 L 843,423 L 843,422 L 842,422 L 842,421 L 842,420 L 841,419 L 840,419 L 840,420 L 839,420 L 839,419 L 839,418 L 839,417 L 839,416 L 838,416 L 838,415 L 837,415 L 837,414 L 837,413 L 836,412 L 836,411 L 835,410 L 835,409 L 834,408 L 834,407 L 833,406 L 832,405 L 831,405 L 831,404 L 831,403 L 830,402 L 830,401 L 829,401 L 829,400 L 828,399 L 828,398 L 828,397 L 828,396 L 828,395 L 827,395 L 827,394 L 828,394 L 829,394 L 830,394 L 830,395 L 831,395 L 832,395 L 832,396 L 833,397 L 834,397 L 834,398 L 835,398 L 836,398 L 836,397 L 837,397 L 838,397 L 839,397 L 839,396 L 839,395 L 839,394 L 840,394 L 840,393 L 841,393 L 841,394 L 842,394 L 843,395 L 844,395 L 845,395 L 846,396 L 846,395 L 847,395 L 848,395 L 849,395 L 849,394 L 850,394 L 851,394 L 852,394 L 853,394 L 853,395 L 852,395 L 853,396 L 853,397 L 854,397 L 854,398 L 855,398 L 855,399 L 856,399 L 857,399 L 858,399 L 859,399 L 860,399 L 861,399 L 862,398 L 863,397 L 864,397 L 865,396 L 866,396 L 867,396 L 868,396 L 869,396 L 870,396 L 870,397 L 871,397 L 872,397 L 872,398 L 873,398 L 874,398 L 875,398 L 876,398 L 876,397 L 877,397 L 877,396 L 878,396 L 878,395 L 878,394 L 878,393 L 878,392 L 879,391 L 879,390 L 879,389 L 879,388 L 879,387 L 879,386 L 878,386 L 877,386 L 877,387 L 876,386 L 876,385 L 875,384 L 874,384 L 873,384 L 872,384 L 871,384 L 870,383 L 869,383 L 868,383 L 868,382 L 867,382 L 866,382 L 865,381 L 864,380 L 864,379 L 862,378 L 862,377 L 861,376 L 861,375 L 860,375 L 860,374 L 859,374 L 858,374 L 858,373 L 857,373 L 856,373 L 855,374 L 854,374 L 853,375 L 852,376 L 851,376 L 850,376 L 851,375 L 851,374 L 851,373 L 851,372 L 850,371 L 849,372 L 848,372 L 848,371 L 849,371 L 849,370 L 848,370 L 848,369 L 847,369 L 847,368 L 846,368 L 845,368 L 845,369 L 845,370 L 844,370 L 844,371 L 843,372 L 842,372 L 841,373 L 840,373 L 840,374 L 839,375 L 838,376 L 837,376 L 836,377 L 835,378 L 834,378 L 833,378 L 832,378 L 831,378 L 831,377 L 830,377 L 829,377 L 828,376 L 827,376 L 826,376 L 826,375 L 825,375 L 825,374 L 826,373 L 826,372 L 827,372 L 827,371 L 828,371 L 829,370 L 830,369 L 829,369 L 828,369 L 827,369 L 825,368 L 824,368 L 823,368 L 823,369 L 822,369 L 821,368 L 820,368 L 819,368 L 818,368 L 817,367 L 816,367 L 815,368 L 814,367 L 813,368 L 812,367 L 812,368 L 811,368 L 811,369 L 810,370 L 809,371 L 808,371 L 808,370 L 807,370 L 806,369 L 806,368 L 806,367 L 806,366 L 807,365 L 807,364 L 807,363 L 808,362 L 808,361 L 809,360 L 810,360 L 811,361 L 811,362 L 812,362 L 813,361 L 813,360 L 812,360 L 812,359 L 812,358 L 812,357 L 812,356 L 812,355 L 811,354 L 812,353 L 812,352 L 812,351 L 812,350 L 811,350 L 811,349 L 811,348 L 812,348 L 812,347 L 812,346 L 812,345 L 812,344 L 812,343 L 811,342 L 812,341 L 812,340 L 811,340 L 811,339 L 812,339 L 812,338 L 813,337 L 814,336 L 815,336 L 816,335 L 817,336 L 818,336 L 819,337 L 820,337 L 821,337 L 822,337 L 823,337 L 823,336 L 822,336 L 822,335 L 821,334 L 821,333 L 821,332 L 822,332 L 823,332 L 824,332 L 825,331 L 826,331 L 827,331 L 828,331 L 828,330 L 829,330 L 829,329 L 830,329 L 829,328 L 828,328 L 827,328 L 826,328 L 825,328 L 824,327 L 823,327 L 823,326 L 823,325 L 823,324 L 823,323 L 822,323 L 822,322 L 821,322 L 821,321 L 821,320 L 822,320 L 823,320 L 823,319 L 824,319 L 825,319 L 825,318 L 826,318 L 826,317 L 827,317 L 828,316 L 828,317 L 829,317 L 830,317 L 831,317 L 832,317 L 832,316 L 833,316 L 834,316 L 835,316 L 836,316 L 836,317 L 837,317 L 838,317 L 838,316 L 839,316 L 840,316 L 840,315 L 841,315 L 842,315 L 843,315 L 844,315 L 845,315 L 845,316 L 846,316 L 846,317 L 847,318 L 847,319 L 848,319 L 848,320 L 848,321 L 848,322 L 849,322 L 848,323 L 847,323 L 846,323 L 845,324 L 845,325 L 844,326 L 844,327 L 844,328 L 843,328 L 843,329 L 844,329 L 844,330 L 845,330 L 846,330 L 846,329 L 846,328 L 846,327 L 847,327 L 847,326 L 848,325 L 849,325 L 850,325 L 851,325 L 852,324 L 852,323 L 853,322 L 852,322 L 852,321 L 852,320 L 853,319 L 853,318 L 852,317 L 853,316 L 853,315 L 854,314 L 854,313 L 855,313 L 855,312 L 855,311 L 854,311 L 854,310 L 855,310 L 855,309 L 856,309 L 856,308 L 857,308 L 858,308 L 859,308 L 859,309 L 860,308 L 861,309 L 862,309 L 862,310 L 863,310 L 863,311 L 863,312 L 864,312 L 864,313 L 865,313 L 865,314 L 865,313 L 865,312 L 865,311 L 865,310 L 866,309 L 866,308 L 866,307 L 866,306 L 865,306 L 865,305 L 865,304 L 865,303 L 865,302 L 866,301 L 866,300 L 866,299 L 866,298 L 866,297 L 867,297 L 867,298 L 868,299 L 868,300 L 868,301 L 869,301 L 870,302 L 870,303 L 871,304 L 872,305 L 872,306 L 873,307 L 874,307 L 874,308 L 874,309 L 874,310 L 875,311 L 875,312 L 876,312 L 877,312 L 878,312 L 878,311 L 877,310 L 876,309 L 876,308 L 877,307 L 877,306 L 876,305 L 875,304 L 875,303 L 876,302 L 875,301 L 875,300 L 875,299 L 875,298 L 874,298 L 875,298 L 876,298 L 877,299 L 878,299 L 878,298 L 879,298 L 879,297 L 879,296 L 879,295 L 879,294 L 880,294 L 881,294 L 882,294 L 883,294 L 883,293 L 884,293 L 885,294 L 886,294 L 887,294 L 887,293 L 888,293 L 889,293 L 889,292 L 890,292 L 891,292 L 891,293 L 892,294 L 893,294 L 894,294 L 895,295 L 896,295 L 896,296 L 897,296 L 897,297 L 898,298 L 899,298 L 899,299 L 900,299 L 900,300 L 900,301 L 900,302 L 900,303 L 901,302 L 902,302 L 902,301 L 902,300 L 903,299 L 902,299 L 902,298 L 902,297 L 902,296 L 901,295 L 900,294 L 900,293 L 900,292 L 900,291 L 899,290 L 899,289 L 899,288 L 900,288 L 901,287 L 902,287 L 902,288 L 903,288 L 903,287 L 904,287 L 905,287 L 905,286 L 906,286 L 907,287 L 908,288 L 907,289 L 908,289 L 909,289 L 910,290 L 911,291 L 912,291 L 912,290 L 913,290 L 914,290 L 914,289 L 913,289 L 912,289 L 912,288 L 913,288 L 912,287 L 912,286 L 912,285 L 913,284 L 914,284 L 914,283 L 915,283 L 916,283 L 916,282 L 917,282 L 918,282 L 919,282 L 919,283 L 920,283 L 920,282 L 921,282 L 921,281 L 922,281 L 923,281 L 924,281 L 925,280 L 926,280 L 927,279 L 926,279 L 926,280 L 925,280 L 924,279 L 923,279 L 922,279 L 922,278 L 921,278 L 921,277 L 922,277 L 922,276 L 923,276 L 923,275 L 924,275 L 925,275 L 927,275 L 928,274 L 929,274 L 930,274 L 932,273 L 933,273 L 934,272 L 936,272 L 937,272 L 938,273 L 939,273 L 940,274 L 941,273 L 942,273 L 943,273 L 944,273 L 945,273 L 946,273 L 947,273 L 947,274 L 947,275 L 947,276 L 948,276 L 948,275 L 949,275 L 949,274 L 949,273 L 950,273 L 951,272 L 952,272 L 953,272 L 954,272 L 954,273 L 955,273 L 956,273 L 957,273 L 958,273 L 957,272 L 957,271 L 957,270 L 958,270 L 959,270 L 960,270 L 961,269 L 962,269 L 964,269 L 965,268 L 966,268 L 967,267 L 968,267 L 969,267 L 970,267 L 971,267 L 972,267 L 973,267 L 974,267 L 975,267 L 976,268 L 977,268 L 977,269 L 978,269 L 978,268 L 979,268 L 980,268 L 982,267 L 983,267 L 985,266 L 986,266 L 987,266 L 988,266 L 989,266 L 990,266 L 991,266 L 992,266 L 993,265 L 994,264 L 994,263 L 995,262 L 995,261 L 996,260 L 997,260 L 997,259 L 997,258 L 998,258 L 999,257 L 1001,257 L 1002,256 L 1002,255 L 1004,255 L 1006,254 L 1007,254 L 1009,253 L 1011,253 L 1012,252 L 1013,252 L 1014,251 L 1015,250 L 1015,249 L 1015,248 L 1016,247 L 1017,247 L 1018,246 L 1019,245 L 1020,245 L 1021,245 L 1022,245 L 1023,245 L 1024,245 L 1025,245 L 1025,244 L 1025,243 L 1026,243 L 1027,243 L 1027,242 L 1028,242 L 1029,242 L 1029,241 L 1030,241 L 1031,241 L 1032,241 L 1032,240 L 1033,240 L 1033,239 L 1034,239 L 1035,238 L 1035,237 L 1036,237 L 1036,236 L 1036,235 L 1037,235 L 1037,234 L 1037,233 L 1037,232 L 1038,232 L 1038,231 L 1039,231 L 1039,230 L 1040,230 L 1041,230 L 1041,229 L 1041,228 L 1042,228 L 1043,228 L 1044,227 L 1045,226 L 1045,225 L 1045,224 L 1045,223 L 1046,223 L 1047,223 L 1047,224 L 1047,225 L 1047,226 L 1048,226 L 1049,226 L 1049,227 L 1050,227 L 1051,227 L 1052,227 L 1052,226 L 1053,226 L 1053,225 L 1054,224 L 1055,223 L 1056,223 L 1056,222 L 1057,222 L 1058,222 L 1059,221 L 1060,220 L 1060,219 L 1061,218 L 1062,218 L 1063,217 L 1064,217 L 1064,216 L 1065,215 L 1066,215 L 1066,214 L 1067,214 L 1068,214 L 1070,213 L 1071,213 L 1072,213 L 1074,212 L 1076,212 L 1077,212 L 1078,212 L 1079,212 L 1080,211 L 1081,211 L 1082,211 L 1084,210 L 1084,209 L 1085,208 L 1086,208 L 1087,208 L 1087,207 L 1087,206 L 1088,206 L 1088,205 L 1089,204 L 1090,203 L 1090,202 L 1091,202 L 1092,202 L 1093,201 L 1093,200 L 1094,200 L 1095,199 L 1096,198 L 1097,197 L 1098,196 L 1098,195 L 1099,194 L 1100,193 L 1101,192 L 1101,191 L 1102,190 L 1103,190 L 1104,189 L 1105,188 L 1106,187 L 1107,187 L 1108,185 L 1109,185 L 1110,185 L 1110,186 L 1111,186 L 1112,186 L 1112,185 L 1113,184 L 1113,183 L 1114,182 L 1115,182 L 1116,181 L 1117,181 L 1118,181 L 1120,180 L 1121,180 L 1122,179 L 1124,179 L 1125,178 L 1126,177 L 1127,176 L 1129,175 L 1129,174 L 1130,173 L 1130,172 L 1131,171 L 1132,171 L 1133,170 L 1134,170 L 1136,170 L 1137,169 L 1138,169 L 1139,168 L 1140,167 L 1142,166 L 1143,165 L 1144,165 L 1145,165 L 1145,164 L 1145,163 L 1146,163 L 1147,162 L 1148,162 L 1148,161 L 1149,160 L 1150,159 L 1151,159 L 1152,158 L 1153,158 L 1154,157 L 1155,157 L 1156,157 L 1156,156 L 1157,155 L 1158,154 L 1159,154 L 1160,153 L 1161,152 L 1162,152 L 1162,151 L 1163,150 L 1162,149 L 1163,149 L 1161,149 L 1160,147 L 1161,146 L 1162,148 L 1163,148 L 1164,149 L 1165,149 L 1166,148 L 1167,147 L 1167,146 L 1167,144 L 1167,143 L 1167,142 L 1167,141 L 1167,140 L 1167,139 L 1166,138 L 1166,137 L 1165,135 L 1164,135 L 1164,134 L 1163,132 L 1162,132 L 1161,130 L 1161,129 L 1160,129 L 1159,129 L 1158,129 L 1157,130 L 1156,130 L 1155,129 L 1154,128 L 1152,128 L 1152,127 L 1151,127 L 1149,126 L 1148,127 L 1147,127 L 1146,127 L 1145,127 L 1144,128 L 1142,128 L 1142,129 L 1141,129 L 1140,129 L 1139,129 L 1138,128 L 1137,128 L 1135,127 L 1134,128 L 1133,128 L 1133,129 L 1133,128 L 1132,128 L 1131,128 L 1130,128 L 1129,128 L 1127,128 L 1126,129 L 1125,129 L 1124,128 L 1123,128 L 1122,128 L 1121,129 L 1120,129 L 1119,128 L 1119,127 L 1118,126 L 1117,126 L 1115,125 L 1115,124 L 1114,124 L 1112,124 L 1111,124 L 1110,124 L 1109,124 L 1108,124 L 1107,123 L 1107,122 L 1106,121 L 1107,120 L 1107,119 L 1108,118 L 1108,117 L 1108,115 L 1109,114 L 1109,113 L 1108,112 L 1109,112 L 1109,111 L 1110,111 L 1111,110 L 1112,111 L 1113,112 L 1114,112 L 1114,111 L 1114,110 L 1114,108 L 1114,107 L 1114,105 L 1114,104 L 1115,102 L 1115,100 L 1116,99 L 1116,97 L 1116,96 L 1117,96 L 1118,95 L 1119,94 L 1120,93 L 1120,92 L 1122,91 L 1123,90 L 1124,90 L 1125,89 L 1126,89 L 1127,88 L 1128,88 L 1129,87 L 1130,87 L 1131,87 L 1132,86 L 1134,86 L 1135,85 L 1136,85 L 1137,85 L 1138,85 L 1140,85 L 1140,84 L 1141,84 L 1142,84 L 1144,83 L 1145,82 L 1145,81 L 1146,80 L 1146,79 L 1146,78 L 1146,77 L 1146,76 L 1145,76 L 1145,75 L 1144,74 L 1143,73 L 1142,72 L 1141,71 L 1141,70 L 1141,69 L 1141,68 L 1142,67 L 1143,67 L 1144,67 L 1145,67 L 1146,67 L 1146,66 L 1147,66 L 1148,66 L 1148,65 L 1149,65 L 1150,65 L 1151,64 L 1152,64 L 1153,63 L 1154,63 L 1155,62 L 1156,62 L 1157,62 L 1158,62 L 1158,63 L 1158,64 L 1159,65 L 1160,65 L 1160,66 L 1162,66 L 1162,67 L 1162,68 L 1162,69 L 1162,70 L 1162,71 L 1162,72 L 1163,72 L 1163,73 L 1164,73 L 1165,73 L 1165,72 L 1165,71 L 1165,70 L 1165,69 L 1165,68 L 1165,67 L 1166,67 L 1167,67 L 1167,66 L 1166,65 L 1166,64 L 1165,64 L 1164,63 L 1164,62 L 1164,61 L 1165,60 L 1166,59 L 1167,58 L 1169,58 L 1170,57 L 1171,56 L 1172,56 L 1173,55 L 1174,55 L 1175,55 L 1176,55 L 1178,55 L 1179,55 L 1180,56 L 1181,57 L 1183,57 L 1184,56 L 1185,56 L 1186,56 L 1187,56 L 1188,56 L 1190,55 L 1191,55 L 1191,56 L 1192,57 L 1193,56 L 1194,56 L 1196,56 L 1197,56 L 1198,56 L 1199,56 L 1200,56 L 1201,56 L 1202,55 L 1204,55 L 1205,55 L 1207,54 L 1208,54 L 1209,54 L 1211,53 L 1212,53 L 1211,52 L 1210,52 L 1210,51 L 1210,50 L 1211,50 L 1212,50 L 1213,51 L 1214,51 L 1215,52 L 1216,51 L 1217,51 L 1218,51 L 1219,52 L 1220,52 L 1221,53 L 1221,54 L 1222,55 L 1223,56 L 1222,57 L 1222,58 L 1223,59 L 1223,60 L 1224,60 L 1225,61 L 1226,62 L 1227,63 L 1227,64 L 1228,64 L 1228,65 L 1229,65 L 1229,64 L 1230,64 L 1230,63 L 1229,62 L 1229,61 L 1228,60 L 1228,59 L 1227,59 L 1228,58 L 1228,57 L 1229,56 L 1229,55 L 1230,55 L 1231,55 L 1232,55 L 1233,55 L 1233,54 L 1233,53 L 1232,52 L 1231,51 L 1231,50 L 1230,50 L 1230,49 L 1229,48 L 1229,47 L 1228,46 L 1228,45 L 1227,44 L 1227,43 L 1226,42 L 1226,41 L 1226,40 L 1225,40 L 1225,39 L 1224,39 L 1224,38 L 1223,37 L 1222,37 L 1222,36 L 1222,35 L 1221,35 L 1220,34 L 1220,33 L 1221,32 L 1222,31 L 1223,31 L 1223,30 L 1224,30 L 1225,30 L 1226,30 L 1227,30 L 1227,29 L 1228,29 L 1229,29 L 1230,29 L 1231,29 L 1232,29 L 1233,29 L 1234,30 L 1235,30 L 1235,31 L 1236,31 L 1236,30 L 1237,30 L 1237,29 L 1237,28 L 1238,28 L 1238,27 L 1239,26 L 1240,26 L 1241,27 L 1242,28 L 1243,29 L 1243,30 L 1244,31 " />
</g>
</g>
</g>
<!-- QGIS extent for clipping, eg in Inkscape -->
<g id="qgisviewbox" inkscape:groupmode="layer" inkscape:label="qgisviewbox" stroke="rgb(255,0,0)" stroke-width="1" fill="none" >
<path d="M 0,1114 L 2011,1114 L 2011,0 L 0,0 L 0,1114 " />
</g></svg>