<?xml version="1.0" standalone="no"?>
<!DOCTYPE svg PUBLIC "-//W3C//DTD SVG 1.1//EN" "http://www.w3.org/Graphics/SVG/1.1/DTD/svg11.dtd">
<svg xmlns="http://www.w3.org/2000/svg" xmlns:inkscape="http://www.inkscape.org/namespaces/inkscape" xmlns:xlink="http://www.w3.org/1999/xlink" viewBox = "0 0 2013 1116" version = "1.1">
<!-- svg generated using QGIS www.qgis.org -->
<g id="union_lektiko_δημοσ_ανωγειων" inkscape:groupmode="layer" inkscape:label="union_lektiko_δημοσ_ανωγειων">
<g stroke="none" fill="rgb(117,106,142)" stroke-linejoin="round" stroke-width="0.26">
<g id="union_lektiko_δημοσ_ανωγειων_1" >
<path d="M 1013,26 L 1029,27 L 1029,26 L 1034,26 L 1035,30 L 1041,32 L 1048,34 L 1053,38 L 1063,56 L 1069,61 L 1073,64 L 1082,65 L 1094,64 L 1112,65 L 1117,65 L 1123,65 L 1129,68 L 1140,72 L 1151,76 L 1157,79 L 1170,88 L 1172,91 L 1181,104 L 1193,126 L 1197,130 L 1202,134 L 1209,139 L 1231,150 L 1240,153 L 1242,154 L 1249,154 L 1262,153 L 1264,153 L 1269,151 L 1273,148 L 1277,145 L 1283,141 L 1286,137 L 1294,140 L 1295,141 L 1297,143 L 1307,151 L 1309,153 L 1329,171 L 1334,177 L 1337,182 L 1339,190 L 1339,197 L 1337,205 L 1332,220 L 1329,227 L 1327,235 L 1325,243 L 1323,251 L 1317,269 L 1316,279 L 1314,285 L 1312,293 L 1305,311 L 1299,318 L 1296,321 L 1290,324 L 1286,323 L 1283,322 L 1280,323 L 1278,324 L 1275,330 L 1275,331 L 1271,342 L 1270,345 L 1267,354 L 1267,356 L 1266,360 L 1266,361 L 1264,369 L 1263,380 L 1261,384 L 1265,389 L 1274,393 L 1275,394 L 1279,397 L 1284,407 L 1285,414 L 1288,423 L 1292,427 L 1297,432 L 1302,437 L 1314,455 L 1324,467 L 1328,476 L 1333,495 L 1335,504 L 1337,513 L 1340,524 L 1342,530 L 1338,535 L 1331,544 L 1324,550 L 1315,559 L 1312,564 L 1310,566 L 1305,571 L 1301,577 L 1290,598 L 1285,605 L 1277,620 L 1275,628 L 1271,637 L 1267,647 L 1261,657 L 1252,670 L 1249,673 L 1243,677 L 1233,687 L 1232,688 L 1223,699 L 1221,703 L 1216,727 L 1215,731 L 1213,739 L 1214,747 L 1212,753 L 1214,762 L 1215,781 L 1213,806 L 1213,819 L 1214,827 L 1214,833 L 1216,847 L 1217,861 L 1218,864 L 1220,876 L 1219,885 L 1219,893 L 1221,912 L 1221,917 L 1223,923 L 1222,923 L 1222,929 L 1219,932 L 1217,934 L 1213,938 L 1208,941 L 1201,944 L 1193,952 L 1185,961 L 1176,973 L 1167,983 L 1164,989 L 1159,994 L 1158,995 L 1152,1005 L 1153,1005 L 1149,1011 L 1143,1021 L 1134,1036 L 1125,1045 L 1119,1051 L 1104,1064 L 1094,1072 L 1086,1078 L 1081,1081 L 1075,1084 L 1071,1086 L 1068,1087 L 1064,1087 L 1057,1085 L 1054,1084 L 1045,1081 L 1034,1075 L 1033,1075 L 1027,1074 L 1022,1070 L 1007,1058 L 996,1046 L 985,1035 L 968,1018 L 958,1008 L 955,1005 L 954,1004 L 953,1004 L 947,1003 L 937,1002 L 925,1003 L 912,1011 L 907,1016 L 901,1018 L 894,1024 L 888,1028 L 881,1027 L 877,1028 L 875,1028 L 870,1030 L 868,1031 L 867,1031 L 860,1033 L 848,1036 L 835,1039 L 827,1042 L 815,1044 L 806,1044 L 788,1044 L 767,1041 L 759,1042 L 755,1037 L 753,1034 L 752,1032 L 752,1030 L 742,1009 L 741,1008 L 739,1000 L 739,993 L 740,986 L 741,983 L 743,975 L 744,963 L 746,934 L 746,928 L 747,917 L 747,916 L 746,906 L 745,905 L 739,898 L 737,893 L 731,887 L 727,880 L 726,878 L 725,873 L 719,861 L 711,839 L 708,831 L 702,817 L 701,817 L 691,804 L 687,797 L 675,784 L 673,782 L 671,781 L 670,778 L 668,771 L 671,767 L 673,764 L 680,760 L 680,759 L 684,755 L 689,749 L 693,742 L 697,732 L 699,722 L 700,713 L 700,698 L 704,683 L 706,667 L 706,649 L 708,633 L 710,616 L 712,607 L 713,603 L 719,589 L 726,578 L 737,568 L 751,560 L 761,552 L 768,540 L 768,531 L 766,526 L 766,525 L 763,520 L 762,519 L 757,512 L 755,508 L 755,505 L 757,499 L 762,488 L 762,481 L 767,464 L 767,457 L 768,454 L 770,451 L 771,450 L 774,449 L 788,449 L 794,449 L 799,447 L 803,444 L 805,440 L 805,437 L 806,418 L 805,412 L 805,408 L 806,402 L 808,397 L 810,394 L 820,390 L 821,389 L 832,384 L 835,382 L 846,375 L 852,372 L 860,369 L 867,368 L 869,369 L 879,368 L 887,364 L 891,362 L 900,356 L 906,349 L 914,339 L 919,327 L 922,319 L 928,312 L 928,309 L 928,303 L 929,300 L 931,297 L 935,293 L 937,290 L 936,288 L 932,283 L 931,281 L 931,268 L 932,264 L 934,262 L 937,260 L 939,258 L 940,256 L 940,252 L 939,249 L 938,245 L 935,242 L 935,241 L 929,235 L 928,232 L 929,208 L 931,187 L 931,174 L 931,171 L 931,168 L 929,164 L 926,158 L 925,154 L 924,151 L 922,144 L 920,132 L 920,115 L 921,111 L 925,106 L 927,104 L 929,97 L 931,96 L 935,94 L 937,89 L 939,76 L 942,62 L 943,59 L 945,55 L 948,53 L 954,50 L 956,48 L 959,46 L 960,45 L 961,42 L 961,41 L 965,39 L 969,37 L 979,31 L 987,28 L 1004,26 L 1013,26 " />
</g>
</g>
</g>
<!-- QGIS extent for clipping, eg in Inkscape -->
<g id="qgisviewbox" inkscape:groupmode="layer" inkscape:label="qgisviewbox" stroke="rgb(255,0,0)" stroke-width="1" fill="none" >
<path d="M 0,1114 L 2011,1114 L 2011,0 L 0,0 L 0,1114 " />
</g></svg>