<?xml version="1.0" standalone="no"?>
<!DOCTYPE svg PUBLIC "-//W3C//DTD SVG 1.1//EN" "http://www.w3.org/Graphics/SVG/1.1/DTD/svg11.dtd">
<svg xmlns="http://www.w3.org/2000/svg" xmlns:inkscape="http://www.inkscape.org/namespaces/inkscape" xmlns:xlink="http://www.w3.org/1999/xlink" viewBox = "0 0 2013 1116" version = "1.1">
<!-- svg generated using QGIS www.qgis.org -->
<g id="union_lektiko_δημοσ_ανδριτσαινασ_-_κρεστενων" inkscape:groupmode="layer" inkscape:label="union_lektiko_δημοσ_ανδριτσαινασ_-_κρεστενων">
<g stroke="none" fill="rgb(130,234,193)" stroke-linejoin="round" stroke-width="0.26">
<g id="union_lektiko_δημοσ_ανδριτσαινασ_-_κρεστενων_1" >
<path d="M 1104,280 L 1107,282 L 1112,283 L 1119,284 L 1122,286 L 1123,287 L 1127,287 L 1132,286 L 1139,284 L 1142,284 L 1147,283 L 1150,282 L 1153,281 L 1153,280 L 1156,278 L 1157,277 L 1162,271 L 1163,270 L 1168,267 L 1169,267 L 1174,265 L 1175,265 L 1178,264 L 1179,263 L 1182,263 L 1184,261 L 1185,260 L 1187,259 L 1189,256 L 1189,254 L 1191,252 L 1195,249 L 1196,249 L 1204,247 L 1207,246 L 1211,246 L 1213,245 L 1214,245 L 1219,242 L 1223,237 L 1224,235 L 1227,233 L 1227,232 L 1228,231 L 1229,231 L 1232,229 L 1236,226 L 1241,221 L 1242,220 L 1243,219 L 1246,216 L 1248,216 L 1249,216 L 1255,220 L 1255,221 L 1260,223 L 1262,224 L 1264,225 L 1269,226 L 1273,226 L 1278,226 L 1283,224 L 1287,221 L 1296,215 L 1297,214 L 1302,211 L 1307,209 L 1308,208 L 1309,208 L 1312,208 L 1320,208 L 1322,208 L 1323,209 L 1319,211 L 1314,216 L 1311,220 L 1307,232 L 1306,235 L 1305,255 L 1304,264 L 1304,276 L 1304,278 L 1304,282 L 1305,299 L 1307,312 L 1308,321 L 1314,340 L 1315,346 L 1313,356 L 1308,369 L 1307,374 L 1307,377 L 1313,378 L 1326,379 L 1331,379 L 1335,378 L 1337,378 L 1349,375 L 1353,374 L 1361,371 L 1370,366 L 1375,357 L 1379,351 L 1383,359 L 1385,363 L 1392,376 L 1389,381 L 1379,390 L 1374,402 L 1369,425 L 1369,433 L 1369,438 L 1369,439 L 1370,446 L 1374,455 L 1384,470 L 1391,478 L 1396,484 L 1405,500 L 1406,501 L 1410,505 L 1416,508 L 1414,509 L 1412,511 L 1409,513 L 1401,520 L 1397,523 L 1391,526 L 1383,529 L 1380,531 L 1368,545 L 1366,547 L 1363,552 L 1360,554 L 1349,559 L 1336,562 L 1334,562 L 1327,563 L 1316,564 L 1308,563 L 1308,565 L 1309,570 L 1309,575 L 1310,580 L 1309,582 L 1309,588 L 1309,607 L 1309,608 L 1308,616 L 1307,628 L 1308,632 L 1311,644 L 1312,647 L 1311,652 L 1310,652 L 1309,659 L 1305,678 L 1304,680 L 1303,684 L 1301,691 L 1300,695 L 1298,701 L 1298,702 L 1296,717 L 1295,725 L 1293,732 L 1292,736 L 1292,740 L 1289,748 L 1287,754 L 1286,758 L 1286,759 L 1291,764 L 1292,764 L 1298,769 L 1299,771 L 1292,777 L 1276,789 L 1270,795 L 1265,792 L 1263,790 L 1239,770 L 1237,770 L 1229,771 L 1218,769 L 1214,767 L 1210,764 L 1210,765 L 1205,759 L 1196,760 L 1191,759 L 1188,759 L 1186,758 L 1173,755 L 1167,756 L 1162,758 L 1154,760 L 1148,758 L 1143,757 L 1131,755 L 1128,755 L 1127,755 L 1120,755 L 1110,755 L 1103,755 L 1099,754 L 1097,754 L 1096,754 L 1093,753 L 1084,746 L 1079,745 L 1073,747 L 1060,749 L 1058,749 L 1055,749 L 1056,744 L 1056,742 L 1056,729 L 1055,713 L 1057,708 L 1058,706 L 1071,702 L 1073,698 L 1073,697 L 1074,692 L 1079,687 L 1083,682 L 1082,676 L 1083,670 L 1084,662 L 1083,658 L 1082,656 L 1076,651 L 1075,650 L 1073,647 L 1072,646 L 1072,645 L 1071,645 L 1070,644 L 1057,624 L 1055,621 L 1051,616 L 1040,600 L 1036,595 L 1034,595 L 1029,590 L 1023,587 L 1014,586 L 1010,585 L 1003,583 L 995,580 L 997,574 L 998,573 L 1006,558 L 1007,554 L 1010,547 L 1012,541 L 1020,509 L 1023,496 L 1023,487 L 1024,482 L 1029,481 L 1034,482 L 1038,482 L 1043,483 L 1045,483 L 1065,486 L 1070,485 L 1072,482 L 1072,480 L 1076,473 L 1077,460 L 1079,457 L 1075,453 L 1066,443 L 1052,438 L 1046,433 L 1042,426 L 1042,419 L 1042,415 L 1043,407 L 1044,403 L 1048,403 L 1053,403 L 1066,403 L 1075,402 L 1077,401 L 1081,400 L 1082,399 L 1083,397 L 1083,394 L 1084,393 L 1086,391 L 1087,390 L 1088,390 L 1091,389 L 1095,389 L 1097,388 L 1098,386 L 1098,383 L 1098,377 L 1098,375 L 1099,373 L 1100,370 L 1101,368 L 1102,368 L 1103,368 L 1104,368 L 1106,369 L 1107,370 L 1110,369 L 1110,368 L 1111,365 L 1110,364 L 1110,363 L 1109,361 L 1108,360 L 1108,359 L 1108,358 L 1109,358 L 1110,357 L 1114,358 L 1115,357 L 1115,356 L 1114,351 L 1113,346 L 1114,339 L 1115,330 L 1116,326 L 1116,324 L 1116,316 L 1116,313 L 1116,310 L 1115,305 L 1114,304 L 1114,303 L 1111,303 L 1111,301 L 1110,301 L 1111,298 L 1112,295 L 1112,294 L 1111,292 L 1110,291 L 1107,286 L 1105,282 L 1104,280 " />
</g>
<g id="union_lektiko_δημοσ_ανδριτσαινασ_-_κρεστενων_2" >
<path d="M 872,44 L 874,46 L 878,50 L 878,55 L 877,62 L 874,67 L 871,69 L 870,70 L 869,71 L 865,73 L 864,73 L 863,74 L 864,79 L 870,88 L 870,90 L 870,92 L 870,104 L 872,112 L 873,115 L 876,120 L 879,122 L 882,125 L 883,125 L 883,126 L 893,131 L 900,135 L 903,139 L 903,138 L 908,142 L 915,146 L 925,148 L 930,148 L 937,148 L 938,148 L 947,148 L 959,149 L 963,149 L 965,151 L 966,154 L 970,160 L 970,161 L 971,164 L 971,167 L 971,172 L 973,179 L 975,183 L 976,183 L 980,186 L 985,184 L 993,182 L 999,184 L 1004,184 L 1005,184 L 1006,185 L 1015,191 L 1019,196 L 1024,200 L 1028,202 L 1032,203 L 1039,202 L 1044,202 L 1053,206 L 1058,213 L 1063,224 L 1065,235 L 1067,240 L 1081,261 L 1094,274 L 1100,278 L 1104,280 L 1105,282 L 1107,286 L 1110,291 L 1111,292 L 1112,294 L 1112,295 L 1111,298 L 1110,301 L 1111,301 L 1111,303 L 1114,303 L 1114,304 L 1115,305 L 1116,310 L 1116,313 L 1116,316 L 1116,324 L 1116,326 L 1115,330 L 1114,339 L 1113,346 L 1114,351 L 1115,356 L 1115,357 L 1114,358 L 1110,357 L 1109,358 L 1108,358 L 1108,359 L 1108,360 L 1109,361 L 1110,363 L 1110,364 L 1111,365 L 1110,368 L 1110,369 L 1107,370 L 1106,369 L 1104,368 L 1103,368 L 1102,368 L 1101,368 L 1100,370 L 1099,373 L 1098,375 L 1098,377 L 1098,383 L 1098,386 L 1097,388 L 1095,389 L 1091,389 L 1088,390 L 1087,390 L 1086,391 L 1084,393 L 1083,394 L 1083,397 L 1082,399 L 1081,400 L 1077,401 L 1075,402 L 1066,403 L 1053,403 L 1048,403 L 1044,403 L 1043,407 L 1042,415 L 1042,419 L 1042,426 L 1046,433 L 1052,438 L 1066,443 L 1075,453 L 1079,457 L 1077,460 L 1076,473 L 1072,480 L 1072,482 L 1070,485 L 1065,486 L 1045,483 L 1043,483 L 1038,482 L 1034,482 L 1029,481 L 1024,482 L 1019,480 L 1011,477 L 1002,476 L 988,477 L 981,477 L 963,476 L 959,474 L 959,475 L 953,471 L 948,468 L 946,467 L 941,467 L 941,468 L 940,468 L 935,467 L 930,467 L 926,466 L 923,466 L 920,465 L 911,468 L 909,466 L 908,464 L 910,459 L 909,457 L 899,452 L 898,451 L 896,453 L 895,458 L 892,463 L 889,464 L 884,465 L 866,461 L 860,458 L 859,458 L 853,456 L 849,452 L 846,450 L 840,447 L 836,446 L 833,446 L 823,447 L 812,449 L 803,454 L 795,458 L 787,459 L 786,459 L 785,459 L 780,458 L 775,456 L 772,455 L 767,451 L 762,447 L 754,438 L 751,435 L 748,432 L 741,427 L 739,427 L 739,426 L 734,425 L 717,421 L 710,419 L 708,416 L 707,412 L 706,411 L 708,398 L 708,392 L 705,385 L 700,379 L 696,375 L 693,375 L 690,375 L 686,376 L 681,378 L 680,378 L 674,381 L 670,384 L 666,387 L 663,391 L 660,394 L 654,407 L 649,418 L 643,427 L 639,430 L 626,447 L 617,462 L 612,468 L 612,469 L 609,472 L 606,477 L 602,483 L 589,497 L 584,503 L 564,522 L 551,530 L 545,531 L 542,530 L 540,527 L 537,524 L 537,525 L 533,520 L 529,514 L 510,496 L 506,492 L 497,487 L 478,480 L 467,478 L 459,478 L 456,479 L 450,481 L 441,488 L 437,491 L 433,494 L 426,501 L 420,508 L 407,527 L 404,529 L 398,533 L 397,534 L 396,534 L 396,533 L 395,533 L 394,532 L 394,531 L 393,530 L 393,529 L 393,528 L 392,528 L 391,527 L 391,526 L 390,525 L 389,524 L 388,523 L 387,522 L 386,521 L 386,520 L 385,520 L 385,519 L 384,518 L 383,518 L 383,517 L 382,516 L 382,515 L 381,514 L 380,513 L 380,512 L 379,511 L 378,511 L 378,510 L 377,509 L 377,508 L 376,507 L 375,506 L 375,505 L 374,504 L 373,503 L 372,502 L 372,501 L 371,501 L 371,500 L 370,499 L 370,498 L 369,497 L 369,496 L 368,496 L 368,495 L 367,494 L 367,493 L 366,493 L 366,492 L 365,491 L 364,490 L 363,489 L 363,488 L 362,487 L 361,487 L 361,486 L 360,485 L 360,484 L 359,483 L 358,482 L 358,481 L 357,480 L 356,479 L 355,478 L 355,477 L 354,477 L 354,476 L 353,475 L 352,474 L 351,473 L 351,472 L 350,471 L 350,470 L 349,470 L 349,469 L 348,468 L 347,468 L 347,467 L 346,466 L 345,465 L 344,464 L 344,463 L 343,463 L 342,462 L 342,461 L 341,460 L 340,459 L 339,458 L 338,457 L 337,456 L 337,455 L 336,455 L 336,454 L 335,453 L 334,452 L 333,451 L 333,450 L 332,450 L 331,449 L 331,448 L 330,447 L 330,446 L 330,445 L 329,445 L 328,444 L 328,443 L 327,443 L 327,442 L 326,441 L 325,440 L 324,439 L 323,438 L 323,437 L 322,437 L 322,436 L 321,435 L 320,435 L 320,434 L 319,433 L 319,432 L 318,432 L 317,431 L 317,430 L 316,430 L 315,429 L 315,428 L 314,428 L 313,427 L 313,426 L 312,425 L 311,424 L 310,423 L 309,422 L 308,421 L 308,420 L 307,420 L 307,419 L 306,418 L 306,417 L 305,417 L 304,416 L 304,415 L 303,414 L 302,413 L 301,412 L 300,411 L 299,410 L 299,409 L 298,409 L 298,408 L 297,407 L 297,406 L 296,405 L 295,405 L 295,404 L 294,404 L 293,403 L 293,402 L 292,402 L 291,401 L 290,400 L 289,399 L 288,398 L 287,397 L 286,396 L 285,395 L 285,394 L 284,393 L 283,393 L 283,392 L 282,391 L 281,391 L 281,390 L 280,389 L 280,388 L 279,388 L 278,387 L 278,386 L 277,386 L 276,385 L 276,384 L 275,383 L 274,382 L 273,381 L 273,380 L 272,380 L 272,379 L 271,378 L 270,378 L 269,377 L 268,376 L 267,375 L 266,374 L 266,373 L 265,372 L 264,371 L 263,370 L 263,369 L 262,369 L 261,368 L 260,368 L 260,367 L 259,366 L 258,366 L 257,365 L 257,364 L 256,364 L 256,363 L 255,362 L 254,361 L 253,360 L 252,359 L 251,358 L 250,357 L 249,356 L 248,356 L 247,355 L 247,354 L 246,354 L 245,353 L 245,352 L 244,352 L 243,351 L 243,350 L 242,350 L 241,349 L 241,348 L 240,348 L 239,347 L 238,347 L 238,346 L 237,345 L 237,344 L 236,344 L 235,343 L 235,342 L 234,342 L 233,341 L 232,340 L 231,339 L 230,339 L 229,338 L 228,337 L 227,337 L 226,336 L 225,336 L 225,335 L 224,335 L 223,334 L 228,328 L 234,324 L 241,319 L 245,315 L 259,334 L 266,342 L 276,354 L 297,377 L 308,390 L 314,397 L 323,408 L 332,420 L 338,425 L 345,429 L 346,430 L 358,440 L 363,444 L 367,448 L 373,454 L 377,456 L 389,449 L 402,443 L 406,441 L 404,438 L 402,435 L 398,428 L 395,423 L 393,421 L 391,419 L 389,418 L 386,417 L 383,417 L 379,416 L 378,414 L 377,412 L 379,409 L 381,406 L 381,405 L 384,403 L 387,401 L 390,398 L 393,395 L 394,392 L 395,390 L 396,388 L 396,385 L 395,380 L 394,376 L 389,369 L 387,365 L 384,361 L 381,358 L 373,351 L 366,344 L 362,339 L 358,334 L 352,327 L 347,318 L 344,313 L 338,305 L 337,304 L 331,299 L 323,292 L 318,287 L 315,283 L 314,280 L 313,279 L 310,273 L 314,271 L 314,270 L 316,269 L 319,266 L 320,265 L 320,264 L 322,262 L 323,258 L 325,256 L 326,254 L 335,252 L 339,251 L 341,250 L 342,250 L 342,248 L 343,246 L 342,242 L 343,242 L 347,239 L 347,238 L 348,235 L 347,232 L 343,228 L 339,224 L 331,214 L 323,196 L 318,188 L 314,184 L 303,173 L 301,169 L 302,163 L 304,158 L 307,154 L 309,153 L 315,153 L 319,152 L 322,151 L 328,147 L 329,146 L 335,142 L 349,136 L 358,130 L 365,124 L 367,123 L 371,121 L 370,116 L 371,116 L 372,110 L 373,106 L 374,99 L 375,90 L 375,85 L 374,81 L 374,80 L 375,76 L 375,74 L 377,70 L 380,65 L 380,64 L 382,62 L 385,60 L 388,58 L 393,54 L 394,57 L 395,60 L 396,61 L 397,63 L 403,66 L 410,69 L 415,71 L 418,71 L 419,71 L 425,72 L 440,71 L 444,71 L 446,71 L 456,74 L 463,77 L 467,78 L 473,77 L 474,77 L 479,74 L 485,71 L 489,70 L 491,71 L 493,72 L 496,76 L 497,77 L 500,79 L 504,80 L 507,79 L 512,80 L 512,81 L 520,86 L 525,87 L 528,86 L 534,80 L 539,77 L 542,76 L 545,75 L 549,75 L 557,76 L 565,76 L 569,75 L 571,75 L 574,74 L 577,75 L 580,76 L 586,77 L 595,80 L 602,80 L 603,80 L 604,78 L 607,74 L 611,72 L 617,70 L 624,63 L 625,63 L 632,61 L 638,61 L 639,61 L 642,62 L 643,62 L 645,63 L 648,65 L 653,68 L 654,68 L 657,69 L 658,69 L 659,69 L 661,69 L 662,68 L 663,68 L 665,66 L 667,62 L 666,62 L 672,54 L 677,47 L 682,43 L 686,41 L 691,40 L 693,39 L 697,39 L 699,38 L 707,31 L 710,30 L 718,27 L 723,28 L 730,29 L 736,29 L 749,27 L 752,26 L 753,26 L 755,27 L 756,27 L 760,29 L 762,33 L 766,38 L 768,42 L 770,45 L 777,49 L 781,50 L 785,48 L 788,46 L 791,44 L 794,39 L 798,36 L 801,35 L 804,34 L 813,33 L 821,30 L 830,27 L 832,26 L 833,26 L 837,26 L 842,28 L 844,30 L 845,31 L 848,33 L 850,34 L 853,35 L 858,36 L 862,38 L 864,38 L 869,42 L 872,44 " />
</g>
<g id="union_lektiko_δημοσ_ανδριτσαινασ_-_κρεστενων_3" >
<path d="M 1323,209 L 1327,210 L 1333,216 L 1335,216 L 1336,217 L 1339,218 L 1344,219 L 1350,219 L 1351,219 L 1352,219 L 1353,219 L 1358,218 L 1363,216 L 1366,215 L 1370,214 L 1373,213 L 1376,212 L 1384,211 L 1385,211 L 1388,211 L 1389,212 L 1390,212 L 1392,214 L 1396,217 L 1398,219 L 1400,221 L 1401,224 L 1403,231 L 1404,235 L 1404,236 L 1405,236 L 1406,237 L 1407,238 L 1408,239 L 1409,238 L 1415,242 L 1420,245 L 1422,247 L 1423,248 L 1424,249 L 1423,250 L 1424,250 L 1426,257 L 1428,261 L 1431,265 L 1432,266 L 1432,267 L 1433,270 L 1434,272 L 1436,276 L 1437,279 L 1437,282 L 1436,298 L 1437,307 L 1438,311 L 1439,312 L 1440,314 L 1440,315 L 1441,315 L 1443,316 L 1447,317 L 1451,317 L 1455,318 L 1456,318 L 1456,319 L 1458,320 L 1459,322 L 1462,325 L 1464,327 L 1469,335 L 1472,338 L 1473,342 L 1472,346 L 1470,349 L 1469,349 L 1469,350 L 1468,351 L 1468,352 L 1467,353 L 1466,355 L 1465,356 L 1464,358 L 1463,361 L 1463,363 L 1464,367 L 1465,369 L 1465,370 L 1467,373 L 1469,374 L 1471,374 L 1472,374 L 1477,375 L 1481,376 L 1485,378 L 1486,378 L 1487,379 L 1488,379 L 1489,380 L 1493,384 L 1497,387 L 1499,389 L 1501,392 L 1504,397 L 1505,401 L 1505,405 L 1504,406 L 1502,413 L 1502,414 L 1501,420 L 1500,422 L 1501,425 L 1502,427 L 1503,428 L 1505,430 L 1507,428 L 1508,426 L 1508,425 L 1510,423 L 1513,421 L 1517,421 L 1520,421 L 1521,421 L 1523,422 L 1527,425 L 1539,436 L 1544,440 L 1553,446 L 1554,446 L 1559,450 L 1562,451 L 1566,452 L 1570,453 L 1573,453 L 1580,453 L 1585,455 L 1586,456 L 1588,457 L 1589,457 L 1590,458 L 1594,462 L 1595,463 L 1598,466 L 1599,466 L 1604,466 L 1609,465 L 1614,464 L 1616,464 L 1618,465 L 1620,466 L 1621,469 L 1622,470 L 1624,473 L 1625,476 L 1625,479 L 1625,489 L 1627,492 L 1629,496 L 1632,498 L 1632,499 L 1636,502 L 1640,506 L 1649,511 L 1649,512 L 1650,513 L 1652,514 L 1653,516 L 1655,519 L 1657,524 L 1657,525 L 1661,536 L 1661,537 L 1663,542 L 1664,544 L 1668,551 L 1670,553 L 1673,557 L 1674,557 L 1675,558 L 1680,562 L 1681,563 L 1682,563 L 1685,565 L 1686,566 L 1690,567 L 1691,567 L 1692,568 L 1694,569 L 1695,569 L 1701,573 L 1705,576 L 1705,577 L 1710,582 L 1712,586 L 1716,590 L 1718,591 L 1725,593 L 1728,594 L 1734,598 L 1739,603 L 1742,608 L 1744,611 L 1746,613 L 1750,617 L 1754,621 L 1757,623 L 1758,622 L 1761,623 L 1762,623 L 1763,623 L 1769,624 L 1772,627 L 1775,630 L 1775,631 L 1777,635 L 1778,636 L 1781,640 L 1783,643 L 1785,646 L 1786,652 L 1787,657 L 1787,659 L 1787,664 L 1787,666 L 1785,667 L 1782,668 L 1779,668 L 1778,669 L 1775,669 L 1771,670 L 1763,672 L 1758,675 L 1755,676 L 1749,678 L 1745,679 L 1744,680 L 1734,685 L 1729,688 L 1727,691 L 1725,694 L 1725,695 L 1723,698 L 1723,699 L 1723,700 L 1720,703 L 1716,708 L 1715,708 L 1712,710 L 1711,710 L 1706,712 L 1704,713 L 1701,715 L 1697,717 L 1696,717 L 1689,721 L 1686,723 L 1684,724 L 1683,725 L 1682,726 L 1680,726 L 1677,728 L 1675,729 L 1672,728 L 1670,726 L 1670,727 L 1666,725 L 1665,725 L 1658,723 L 1657,723 L 1656,723 L 1652,722 L 1651,721 L 1646,721 L 1646,720 L 1642,721 L 1641,720 L 1640,721 L 1636,721 L 1635,721 L 1634,721 L 1630,721 L 1627,722 L 1626,723 L 1625,723 L 1624,723 L 1619,725 L 1616,726 L 1612,728 L 1611,730 L 1608,731 L 1605,733 L 1601,735 L 1600,735 L 1599,736 L 1595,737 L 1594,738 L 1591,740 L 1588,741 L 1587,741 L 1583,743 L 1578,746 L 1573,749 L 1561,756 L 1560,756 L 1557,758 L 1556,758 L 1555,759 L 1549,761 L 1547,762 L 1547,763 L 1544,765 L 1542,767 L 1539,768 L 1538,768 L 1537,769 L 1535,769 L 1533,770 L 1532,771 L 1530,775 L 1529,779 L 1530,783 L 1532,785 L 1538,791 L 1540,793 L 1541,796 L 1541,797 L 1542,799 L 1539,799 L 1537,799 L 1533,800 L 1529,801 L 1528,801 L 1527,800 L 1523,799 L 1523,798 L 1521,797 L 1520,797 L 1520,796 L 1517,795 L 1517,794 L 1513,791 L 1509,788 L 1506,786 L 1506,785 L 1504,784 L 1501,781 L 1499,781 L 1499,780 L 1496,779 L 1495,779 L 1494,783 L 1492,787 L 1491,792 L 1491,793 L 1490,798 L 1490,801 L 1489,803 L 1489,805 L 1488,807 L 1485,811 L 1483,815 L 1482,815 L 1479,818 L 1477,820 L 1474,823 L 1472,824 L 1470,826 L 1467,833 L 1468,833 L 1466,837 L 1467,838 L 1466,839 L 1464,843 L 1463,846 L 1463,847 L 1462,849 L 1459,856 L 1459,857 L 1458,860 L 1458,861 L 1457,865 L 1458,866 L 1457,869 L 1456,870 L 1456,871 L 1454,872 L 1452,873 L 1449,875 L 1448,874 L 1444,875 L 1439,877 L 1436,878 L 1434,879 L 1432,878 L 1431,877 L 1430,876 L 1426,870 L 1424,868 L 1423,868 L 1421,865 L 1416,860 L 1414,856 L 1412,853 L 1410,850 L 1407,847 L 1405,845 L 1404,848 L 1402,864 L 1402,872 L 1403,873 L 1401,881 L 1401,883 L 1399,891 L 1398,893 L 1397,894 L 1396,896 L 1399,897 L 1408,900 L 1409,899 L 1412,901 L 1412,900 L 1415,902 L 1413,903 L 1409,905 L 1406,908 L 1403,912 L 1403,915 L 1404,915 L 1404,918 L 1405,918 L 1406,921 L 1406,922 L 1407,926 L 1407,928 L 1408,928 L 1409,931 L 1409,933 L 1410,933 L 1410,936 L 1411,938 L 1412,939 L 1413,942 L 1415,946 L 1416,947 L 1416,948 L 1417,948 L 1418,951 L 1420,955 L 1420,956 L 1420,957 L 1421,960 L 1422,961 L 1422,963 L 1424,969 L 1424,976 L 1424,982 L 1423,982 L 1423,984 L 1421,991 L 1421,996 L 1422,998 L 1424,1010 L 1426,1013 L 1429,1017 L 1430,1019 L 1431,1020 L 1435,1021 L 1438,1022 L 1439,1022 L 1440,1022 L 1441,1023 L 1443,1025 L 1444,1026 L 1445,1033 L 1447,1037 L 1447,1039 L 1448,1042 L 1449,1045 L 1449,1046 L 1449,1048 L 1450,1048 L 1451,1051 L 1450,1055 L 1448,1059 L 1446,1061 L 1446,1062 L 1443,1065 L 1439,1067 L 1437,1067 L 1437,1068 L 1435,1067 L 1432,1066 L 1429,1064 L 1426,1060 L 1426,1059 L 1425,1059 L 1425,1058 L 1423,1057 L 1421,1056 L 1415,1058 L 1412,1060 L 1411,1060 L 1411,1061 L 1409,1062 L 1407,1063 L 1403,1065 L 1398,1066 L 1392,1066 L 1388,1066 L 1384,1066 L 1378,1066 L 1374,1066 L 1368,1068 L 1364,1071 L 1360,1074 L 1356,1076 L 1356,1077 L 1352,1078 L 1352,1079 L 1343,1084 L 1336,1087 L 1334,1082 L 1330,1076 L 1320,1069 L 1317,1069 L 1315,1068 L 1306,1064 L 1302,1061 L 1297,1056 L 1295,1050 L 1295,1051 L 1296,1046 L 1297,1042 L 1299,1035 L 1300,1030 L 1301,1023 L 1301,1015 L 1300,997 L 1299,992 L 1315,978 L 1315,977 L 1324,967 L 1327,962 L 1323,958 L 1317,954 L 1314,952 L 1310,949 L 1303,947 L 1298,947 L 1296,945 L 1294,941 L 1289,934 L 1288,933 L 1286,931 L 1275,919 L 1272,915 L 1269,910 L 1268,908 L 1267,899 L 1269,888 L 1275,872 L 1283,852 L 1287,835 L 1292,819 L 1293,816 L 1290,813 L 1283,806 L 1280,803 L 1276,800 L 1276,799 L 1270,795 L 1276,789 L 1292,777 L 1299,771 L 1298,769 L 1292,764 L 1291,764 L 1286,759 L 1286,758 L 1287,754 L 1289,748 L 1292,740 L 1292,736 L 1293,732 L 1295,725 L 1296,717 L 1298,702 L 1298,701 L 1300,695 L 1301,691 L 1303,684 L 1304,680 L 1305,678 L 1309,659 L 1310,652 L 1311,652 L 1312,647 L 1311,644 L 1308,632 L 1307,628 L 1308,616 L 1309,608 L 1309,607 L 1309,588 L 1309,582 L 1310,580 L 1309,575 L 1309,570 L 1308,565 L 1308,563 L 1316,564 L 1327,563 L 1334,562 L 1336,562 L 1349,559 L 1360,554 L 1363,552 L 1366,547 L 1368,545 L 1380,531 L 1383,529 L 1391,526 L 1397,523 L 1401,520 L 1409,513 L 1412,511 L 1414,509 L 1416,508 L 1410,505 L 1406,501 L 1405,500 L 1396,484 L 1391,478 L 1384,470 L 1374,455 L 1370,446 L 1369,439 L 1369,438 L 1369,433 L 1369,425 L 1374,402 L 1379,390 L 1389,381 L 1392,376 L 1385,363 L 1383,359 L 1379,351 L 1375,357 L 1370,366 L 1361,371 L 1353,374 L 1349,375 L 1337,378 L 1335,378 L 1331,379 L 1326,379 L 1313,378 L 1307,377 L 1307,374 L 1308,369 L 1313,356 L 1315,346 L 1314,340 L 1308,321 L 1307,312 L 1305,299 L 1304,282 L 1304,278 L 1304,276 L 1304,264 L 1305,255 L 1306,235 L 1307,232 L 1311,220 L 1314,216 L 1319,211 L 1323,209 " />
</g>
</g>
</g>
<!-- QGIS extent for clipping, eg in Inkscape -->
<g id="qgisviewbox" inkscape:groupmode="layer" inkscape:label="qgisviewbox" stroke="rgb(255,0,0)" stroke-width="1" fill="none" >
<path d="M 0,1114 L 2011,1114 L 2011,0 L 0,0 L 0,1114 " />
</g></svg>