<?xml version="1.0" standalone="no"?>
<!DOCTYPE svg PUBLIC "-//W3C//DTD SVG 1.1//EN" "http://www.w3.org/Graphics/SVG/1.1/DTD/svg11.dtd">
<svg xmlns="http://www.w3.org/2000/svg" xmlns:inkscape="http://www.inkscape.org/namespaces/inkscape" xmlns:xlink="http://www.w3.org/1999/xlink" viewBox = "0 0 2013 1116" version = "1.1">
<!-- svg generated using QGIS www.qgis.org -->
<g id="union_lektiko_δημοσ_ανατολικησ_μανησ" inkscape:groupmode="layer" inkscape:label="union_lektiko_δημοσ_ανατολικησ_μανησ">
<g stroke="none" fill="rgb(107,203,147)" stroke-linejoin="round" stroke-width="0.26">
<g id="union_lektiko_δημοσ_ανατολικησ_μανησ_1" >
<path d="M 1090,535 L 1091,535 L 1091,536 L 1091,537 L 1092,538 L 1093,539 L 1094,540 L 1094,541 L 1095,541 L 1095,542 L 1096,542 L 1096,543 L 1096,544 L 1097,545 L 1097,546 L 1098,547 L 1098,548 L 1099,548 L 1099,549 L 1099,550 L 1099,551 L 1100,552 L 1100,553 L 1100,554 L 1101,555 L 1102,556 L 1103,556 L 1104,557 L 1104,558 L 1104,559 L 1105,559 L 1106,559 L 1106,560 L 1106,561 L 1107,561 L 1107,562 L 1108,563 L 1109,563 L 1110,564 L 1111,564 L 1112,565 L 1113,565 L 1114,565 L 1115,566 L 1116,566 L 1116,567 L 1117,567 L 1117,568 L 1118,569 L 1118,570 L 1119,570 L 1119,571 L 1120,572 L 1120,573 L 1119,574 L 1119,575 L 1119,576 L 1118,576 L 1119,577 L 1119,578 L 1120,578 L 1120,579 L 1121,580 L 1121,581 L 1122,582 L 1122,583 L 1122,584 L 1122,585 L 1122,586 L 1122,587 L 1123,587 L 1123,588 L 1124,588 L 1125,589 L 1125,590 L 1125,591 L 1125,592 L 1126,593 L 1126,594 L 1126,595 L 1125,596 L 1125,597 L 1124,598 L 1123,599 L 1122,599 L 1122,598 L 1122,597 L 1121,597 L 1121,598 L 1120,598 L 1120,599 L 1120,600 L 1119,600 L 1119,601 L 1118,602 L 1118,603 L 1117,603 L 1117,604 L 1116,604 L 1115,605 L 1115,606 L 1114,606 L 1114,607 L 1113,608 L 1112,608 L 1111,608 L 1111,609 L 1112,609 L 1113,610 L 1114,610 L 1114,611 L 1114,612 L 1113,612 L 1113,613 L 1112,614 L 1112,615 L 1111,616 L 1110,616 L 1109,616 L 1108,616 L 1107,617 L 1106,617 L 1106,618 L 1105,618 L 1105,619 L 1104,620 L 1103,621 L 1102,621 L 1101,622 L 1100,622 L 1100,623 L 1099,623 L 1098,624 L 1097,624 L 1097,625 L 1096,625 L 1096,626 L 1095,626 L 1094,626 L 1093,626 L 1092,626 L 1091,626 L 1090,626 L 1089,626 L 1088,625 L 1087,625 L 1087,624 L 1086,624 L 1086,623 L 1086,622 L 1085,622 L 1085,621 L 1084,621 L 1084,620 L 1083,619 L 1083,618 L 1082,617 L 1082,616 L 1081,615 L 1081,614 L 1081,613 L 1081,612 L 1081,611 L 1081,610 L 1080,610 L 1080,609 L 1080,608 L 1080,607 L 1080,606 L 1080,605 L 1080,604 L 1079,604 L 1079,603 L 1080,603 L 1080,602 L 1080,601 L 1080,600 L 1080,599 L 1080,598 L 1079,597 L 1079,596 L 1078,596 L 1078,595 L 1077,595 L 1076,594 L 1074,595 L 1074,594 L 1074,593 L 1073,592 L 1072,592 L 1072,593 L 1071,593 L 1071,594 L 1071,593 L 1070,593 L 1070,592 L 1070,591 L 1069,591 L 1068,591 L 1067,590 L 1066,591 L 1065,591 L 1065,592 L 1064,592 L 1064,593 L 1063,593 L 1062,593 L 1062,592 L 1061,593 L 1060,593 L 1060,594 L 1059,593 L 1058,594 L 1057,595 L 1057,596 L 1056,595 L 1056,596 L 1055,595 L 1054,596 L 1055,597 L 1056,597 L 1056,598 L 1056,599 L 1057,599 L 1056,600 L 1057,600 L 1056,601 L 1056,602 L 1055,602 L 1054,601 L 1054,600 L 1054,599 L 1054,598 L 1053,597 L 1054,596 L 1053,596 L 1052,596 L 1051,596 L 1051,595 L 1050,595 L 1049,595 L 1049,596 L 1049,597 L 1048,597 L 1047,596 L 1047,597 L 1046,596 L 1045,595 L 1045,594 L 1044,594 L 1043,593 L 1042,594 L 1041,595 L 1040,596 L 1039,596 L 1039,597 L 1038,597 L 1037,597 L 1037,598 L 1036,598 L 1036,599 L 1036,600 L 1037,600 L 1037,601 L 1036,601 L 1035,601 L 1035,602 L 1035,603 L 1034,604 L 1034,605 L 1034,606 L 1034,607 L 1034,608 L 1035,608 L 1035,609 L 1035,610 L 1035,611 L 1034,611 L 1034,612 L 1034,613 L 1033,614 L 1033,615 L 1034,616 L 1034,617 L 1034,618 L 1034,619 L 1035,620 L 1035,621 L 1035,622 L 1035,623 L 1035,624 L 1035,625 L 1034,626 L 1034,627 L 1033,627 L 1033,628 L 1032,628 L 1032,629 L 1033,630 L 1032,630 L 1032,631 L 1032,632 L 1031,632 L 1031,633 L 1030,634 L 1029,635 L 1029,636 L 1029,637 L 1029,638 L 1029,639 L 1029,640 L 1029,641 L 1028,641 L 1029,642 L 1029,643 L 1029,644 L 1029,645 L 1029,646 L 1029,647 L 1028,647 L 1028,648 L 1027,648 L 1027,649 L 1028,650 L 1027,651 L 1027,652 L 1027,653 L 1028,653 L 1028,654 L 1029,654 L 1029,655 L 1030,655 L 1031,655 L 1032,656 L 1032,657 L 1033,657 L 1032,658 L 1032,659 L 1032,660 L 1032,661 L 1032,662 L 1033,662 L 1033,663 L 1033,664 L 1033,665 L 1033,666 L 1034,667 L 1034,668 L 1034,669 L 1035,669 L 1035,670 L 1036,670 L 1036,671 L 1037,672 L 1037,673 L 1037,674 L 1036,674 L 1036,675 L 1036,676 L 1035,676 L 1034,676 L 1034,677 L 1034,678 L 1034,679 L 1034,680 L 1034,681 L 1033,681 L 1033,682 L 1034,683 L 1034,684 L 1034,685 L 1034,686 L 1035,687 L 1035,688 L 1035,689 L 1036,689 L 1036,690 L 1036,691 L 1036,692 L 1037,693 L 1037,694 L 1037,695 L 1038,695 L 1038,696 L 1038,697 L 1038,698 L 1037,698 L 1038,698 L 1038,699 L 1037,700 L 1036,700 L 1035,700 L 1035,701 L 1034,701 L 1035,702 L 1035,701 L 1036,701 L 1037,701 L 1038,701 L 1038,702 L 1039,702 L 1040,703 L 1040,704 L 1041,704 L 1041,705 L 1041,706 L 1042,706 L 1042,707 L 1041,707 L 1041,708 L 1040,709 L 1040,710 L 1040,711 L 1041,712 L 1041,713 L 1041,714 L 1041,715 L 1041,716 L 1041,717 L 1042,718 L 1042,719 L 1042,720 L 1042,721 L 1042,722 L 1042,723 L 1042,724 L 1042,725 L 1042,726 L 1042,727 L 1042,728 L 1042,729 L 1042,730 L 1042,731 L 1041,731 L 1041,732 L 1040,732 L 1040,733 L 1040,734 L 1040,735 L 1039,735 L 1039,736 L 1039,737 L 1038,737 L 1038,738 L 1038,739 L 1039,739 L 1039,740 L 1039,741 L 1038,741 L 1037,741 L 1036,741 L 1036,742 L 1037,743 L 1038,744 L 1038,745 L 1038,746 L 1037,746 L 1036,746 L 1036,747 L 1036,748 L 1036,749 L 1035,749 L 1035,750 L 1034,750 L 1033,751 L 1033,752 L 1033,753 L 1033,754 L 1033,755 L 1033,756 L 1033,757 L 1033,758 L 1033,759 L 1033,760 L 1033,761 L 1033,762 L 1032,763 L 1032,764 L 1031,764 L 1030,764 L 1030,765 L 1030,766 L 1030,767 L 1029,767 L 1028,768 L 1028,769 L 1027,770 L 1028,770 L 1028,771 L 1027,771 L 1027,772 L 1026,773 L 1026,774 L 1026,775 L 1025,775 L 1025,776 L 1024,776 L 1025,777 L 1025,778 L 1025,779 L 1026,780 L 1025,781 L 1025,782 L 1025,783 L 1025,784 L 1025,785 L 1025,786 L 1026,786 L 1026,787 L 1027,787 L 1028,787 L 1029,787 L 1030,787 L 1030,788 L 1031,788 L 1031,789 L 1032,789 L 1032,790 L 1033,790 L 1033,791 L 1034,792 L 1034,793 L 1034,794 L 1034,795 L 1034,796 L 1033,796 L 1032,797 L 1032,798 L 1033,798 L 1034,798 L 1034,799 L 1034,800 L 1034,801 L 1035,802 L 1035,803 L 1036,804 L 1036,805 L 1037,806 L 1037,807 L 1038,807 L 1038,808 L 1039,809 L 1039,810 L 1040,810 L 1040,811 L 1040,812 L 1041,813 L 1042,813 L 1042,814 L 1043,814 L 1044,814 L 1045,814 L 1045,815 L 1045,816 L 1045,817 L 1044,818 L 1044,819 L 1045,819 L 1046,820 L 1046,819 L 1047,819 L 1048,819 L 1049,819 L 1050,819 L 1051,819 L 1052,820 L 1053,821 L 1053,822 L 1054,822 L 1054,823 L 1054,824 L 1054,825 L 1055,825 L 1055,826 L 1055,827 L 1055,828 L 1054,828 L 1054,829 L 1053,830 L 1052,831 L 1051,832 L 1050,833 L 1049,834 L 1049,835 L 1050,835 L 1050,836 L 1051,836 L 1051,837 L 1052,837 L 1052,838 L 1053,838 L 1054,839 L 1054,840 L 1055,840 L 1055,841 L 1056,841 L 1056,842 L 1057,842 L 1057,843 L 1058,842 L 1059,842 L 1059,843 L 1060,843 L 1060,844 L 1060,845 L 1060,846 L 1060,847 L 1061,847 L 1061,848 L 1062,849 L 1062,850 L 1061,850 L 1061,851 L 1061,852 L 1062,852 L 1063,852 L 1064,851 L 1065,850 L 1066,850 L 1067,850 L 1068,850 L 1069,850 L 1070,850 L 1070,851 L 1071,851 L 1072,852 L 1073,852 L 1074,852 L 1074,853 L 1075,853 L 1075,854 L 1075,855 L 1075,856 L 1075,857 L 1075,858 L 1076,859 L 1075,860 L 1075,861 L 1076,862 L 1076,863 L 1077,863 L 1077,864 L 1077,865 L 1077,866 L 1077,867 L 1077,868 L 1076,868 L 1076,869 L 1076,870 L 1075,870 L 1075,871 L 1076,871 L 1077,871 L 1077,872 L 1078,872 L 1078,873 L 1078,874 L 1078,875 L 1078,876 L 1077,877 L 1076,877 L 1076,878 L 1075,879 L 1076,879 L 1077,880 L 1077,881 L 1077,882 L 1077,883 L 1077,884 L 1077,885 L 1077,886 L 1077,887 L 1077,888 L 1077,889 L 1077,890 L 1077,891 L 1077,892 L 1077,893 L 1077,894 L 1077,895 L 1077,896 L 1077,897 L 1077,898 L 1077,899 L 1076,899 L 1076,900 L 1076,901 L 1077,902 L 1077,903 L 1077,904 L 1077,905 L 1077,906 L 1077,907 L 1078,907 L 1078,908 L 1077,909 L 1077,910 L 1077,911 L 1077,912 L 1076,912 L 1076,913 L 1076,914 L 1076,915 L 1075,916 L 1074,916 L 1074,917 L 1074,918 L 1075,918 L 1075,919 L 1075,920 L 1075,921 L 1075,922 L 1075,923 L 1075,924 L 1075,925 L 1076,925 L 1076,926 L 1076,927 L 1076,928 L 1076,929 L 1075,929 L 1074,929 L 1074,930 L 1073,930 L 1073,931 L 1072,931 L 1072,932 L 1071,931 L 1071,932 L 1070,932 L 1069,931 L 1068,931 L 1067,931 L 1067,930 L 1066,930 L 1065,930 L 1064,930 L 1063,930 L 1062,929 L 1061,929 L 1061,930 L 1061,931 L 1061,932 L 1062,932 L 1062,933 L 1063,933 L 1063,934 L 1064,935 L 1064,936 L 1063,936 L 1064,936 L 1065,937 L 1066,937 L 1067,937 L 1068,937 L 1069,937 L 1070,937 L 1070,938 L 1070,939 L 1070,940 L 1070,941 L 1070,942 L 1069,942 L 1069,943 L 1068,943 L 1068,944 L 1067,944 L 1067,945 L 1066,945 L 1066,946 L 1065,946 L 1066,947 L 1067,947 L 1068,947 L 1069,947 L 1070,947 L 1071,947 L 1072,948 L 1072,949 L 1073,949 L 1073,950 L 1073,951 L 1074,951 L 1074,952 L 1074,953 L 1074,954 L 1074,955 L 1074,956 L 1074,957 L 1074,958 L 1073,959 L 1072,959 L 1072,960 L 1073,960 L 1073,961 L 1073,962 L 1073,963 L 1073,964 L 1073,965 L 1072,966 L 1071,967 L 1071,968 L 1071,969 L 1070,969 L 1070,970 L 1070,971 L 1069,972 L 1068,973 L 1067,974 L 1066,975 L 1065,975 L 1065,976 L 1064,976 L 1064,977 L 1063,977 L 1062,978 L 1061,978 L 1061,979 L 1060,979 L 1059,979 L 1059,978 L 1058,978 L 1057,978 L 1057,979 L 1056,979 L 1055,980 L 1054,980 L 1054,979 L 1054,978 L 1054,977 L 1054,976 L 1054,975 L 1054,974 L 1053,974 L 1052,974 L 1052,975 L 1051,975 L 1051,976 L 1050,976 L 1050,977 L 1049,978 L 1048,978 L 1047,978 L 1047,979 L 1046,979 L 1046,980 L 1045,980 L 1044,980 L 1044,981 L 1044,982 L 1044,983 L 1043,983 L 1043,984 L 1042,984 L 1041,984 L 1040,984 L 1039,984 L 1039,985 L 1039,986 L 1039,987 L 1040,987 L 1040,988 L 1041,989 L 1041,990 L 1042,991 L 1042,992 L 1043,992 L 1043,993 L 1043,994 L 1044,994 L 1044,995 L 1045,995 L 1045,996 L 1046,996 L 1047,996 L 1048,996 L 1048,995 L 1048,994 L 1049,994 L 1049,993 L 1049,992 L 1050,992 L 1051,992 L 1051,991 L 1052,990 L 1053,990 L 1053,989 L 1054,989 L 1054,990 L 1054,991 L 1053,992 L 1053,993 L 1053,994 L 1053,995 L 1054,995 L 1054,996 L 1054,997 L 1054,998 L 1053,998 L 1053,999 L 1053,1000 L 1054,1000 L 1054,1001 L 1055,1001 L 1055,1000 L 1056,1000 L 1057,1000 L 1058,1000 L 1059,1000 L 1060,1001 L 1061,1001 L 1061,1002 L 1062,1002 L 1062,1003 L 1063,1003 L 1063,1004 L 1063,1005 L 1063,1006 L 1063,1007 L 1063,1008 L 1063,1009 L 1062,1009 L 1062,1010 L 1062,1011 L 1062,1012 L 1062,1013 L 1063,1013 L 1063,1014 L 1063,1015 L 1062,1016 L 1062,1017 L 1062,1018 L 1061,1018 L 1061,1019 L 1061,1020 L 1060,1020 L 1060,1021 L 1060,1022 L 1059,1023 L 1059,1024 L 1060,1024 L 1060,1025 L 1060,1026 L 1060,1027 L 1061,1027 L 1061,1028 L 1061,1029 L 1062,1029 L 1062,1030 L 1063,1030 L 1063,1031 L 1063,1032 L 1063,1033 L 1064,1034 L 1064,1035 L 1063,1035 L 1063,1036 L 1063,1037 L 1062,1037 L 1061,1037 L 1060,1036 L 1059,1035 L 1059,1034 L 1058,1034 L 1058,1033 L 1057,1033 L 1057,1032 L 1057,1031 L 1056,1031 L 1055,1030 L 1055,1029 L 1055,1028 L 1054,1027 L 1054,1028 L 1053,1029 L 1052,1029 L 1051,1028 L 1051,1029 L 1051,1030 L 1052,1030 L 1053,1031 L 1054,1032 L 1054,1033 L 1054,1034 L 1055,1034 L 1055,1035 L 1055,1036 L 1055,1037 L 1055,1038 L 1056,1039 L 1057,1040 L 1057,1041 L 1056,1042 L 1056,1043 L 1056,1044 L 1057,1044 L 1058,1044 L 1058,1045 L 1058,1046 L 1059,1047 L 1059,1048 L 1060,1048 L 1060,1049 L 1061,1049 L 1062,1050 L 1063,1050 L 1064,1050 L 1065,1050 L 1066,1050 L 1067,1050 L 1068,1050 L 1069,1050 L 1070,1050 L 1070,1051 L 1070,1052 L 1070,1053 L 1070,1054 L 1070,1055 L 1069,1055 L 1068,1055 L 1068,1056 L 1067,1056 L 1066,1056 L 1066,1057 L 1065,1057 L 1065,1058 L 1064,1058 L 1064,1059 L 1063,1059 L 1063,1058 L 1062,1058 L 1061,1058 L 1060,1058 L 1059,1057 L 1059,1056 L 1058,1056 L 1058,1055 L 1057,1055 L 1057,1054 L 1056,1054 L 1056,1055 L 1056,1056 L 1055,1057 L 1056,1057 L 1056,1058 L 1056,1059 L 1055,1059 L 1054,1059 L 1053,1059 L 1053,1060 L 1052,1060 L 1052,1061 L 1051,1061 L 1051,1060 L 1050,1060 L 1050,1059 L 1050,1058 L 1050,1057 L 1050,1056 L 1050,1055 L 1049,1055 L 1049,1054 L 1048,1054 L 1048,1053 L 1048,1052 L 1047,1052 L 1047,1053 L 1047,1054 L 1046,1054 L 1046,1053 L 1045,1053 L 1045,1052 L 1044,1052 L 1044,1053 L 1044,1054 L 1045,1054 L 1045,1055 L 1045,1056 L 1044,1056 L 1043,1056 L 1043,1057 L 1043,1058 L 1044,1058 L 1044,1059 L 1044,1060 L 1044,1061 L 1045,1061 L 1045,1062 L 1045,1063 L 1045,1064 L 1045,1065 L 1046,1065 L 1047,1065 L 1047,1066 L 1048,1067 L 1048,1068 L 1048,1069 L 1048,1070 L 1048,1071 L 1047,1071 L 1046,1072 L 1046,1073 L 1045,1074 L 1044,1075 L 1043,1075 L 1043,1076 L 1042,1076 L 1042,1077 L 1042,1078 L 1041,1078 L 1041,1079 L 1041,1080 L 1041,1081 L 1041,1082 L 1041,1083 L 1041,1084 L 1041,1085 L 1041,1086 L 1040,1086 L 1040,1087 L 1039,1087 L 1039,1086 L 1038,1085 L 1038,1084 L 1038,1083 L 1038,1082 L 1037,1082 L 1037,1081 L 1037,1080 L 1037,1079 L 1037,1078 L 1037,1077 L 1036,1076 L 1036,1075 L 1035,1074 L 1035,1073 L 1035,1072 L 1035,1071 L 1035,1070 L 1035,1069 L 1035,1068 L 1035,1067 L 1035,1066 L 1035,1065 L 1035,1064 L 1035,1063 L 1035,1062 L 1034,1062 L 1034,1061 L 1033,1061 L 1033,1060 L 1032,1059 L 1031,1058 L 1030,1057 L 1030,1056 L 1029,1056 L 1029,1055 L 1029,1054 L 1028,1054 L 1027,1053 L 1027,1052 L 1027,1051 L 1026,1051 L 1025,1051 L 1024,1051 L 1023,1051 L 1022,1051 L 1022,1050 L 1021,1049 L 1020,1049 L 1019,1048 L 1018,1048 L 1018,1047 L 1017,1047 L 1017,1046 L 1017,1045 L 1016,1044 L 1016,1043 L 1016,1042 L 1016,1041 L 1019,1039 L 1036,1036 L 1037,1034 L 1038,1031 L 1037,1027 L 1034,1021 L 1032,1018 L 1027,1010 L 1025,1007 L 1025,1006 L 1026,1006 L 1026,1005 L 1026,1004 L 1026,1003 L 1027,1002 L 1028,1002 L 1028,1001 L 1028,1000 L 1029,999 L 1029,998 L 1028,998 L 1028,997 L 1028,996 L 1027,996 L 1027,995 L 1027,994 L 1028,994 L 1029,993 L 1029,992 L 1028,992 L 1028,991 L 1028,990 L 1027,990 L 1026,990 L 1026,989 L 1025,989 L 1024,989 L 1023,990 L 1023,985 L 1023,981 L 1022,973 L 1021,967 L 1018,959 L 1018,956 L 1019,955 L 1022,954 L 1025,953 L 1027,952 L 1029,948 L 1030,945 L 1028,938 L 1028,931 L 1028,925 L 1028,924 L 1027,922 L 1026,920 L 1022,914 L 1022,911 L 1022,908 L 1022,907 L 1021,905 L 1020,902 L 1018,899 L 1008,891 L 1001,880 L 998,873 L 993,864 L 990,861 L 986,857 L 984,851 L 983,847 L 982,846 L 981,843 L 981,840 L 981,837 L 981,833 L 980,832 L 978,830 L 977,828 L 977,827 L 978,824 L 978,823 L 978,822 L 979,820 L 978,816 L 977,810 L 975,803 L 975,802 L 974,797 L 974,795 L 972,786 L 972,785 L 972,784 L 971,778 L 971,773 L 971,770 L 971,767 L 969,761 L 967,749 L 967,747 L 968,743 L 969,741 L 971,740 L 972,739 L 977,738 L 980,738 L 982,738 L 983,731 L 983,724 L 983,718 L 983,716 L 984,709 L 984,706 L 982,704 L 981,702 L 978,699 L 978,696 L 978,694 L 978,692 L 978,687 L 977,684 L 975,683 L 972,680 L 971,678 L 969,677 L 967,669 L 966,669 L 965,667 L 963,666 L 962,665 L 960,663 L 961,661 L 962,655 L 962,639 L 962,633 L 962,632 L 961,631 L 960,628 L 959,626 L 958,624 L 957,623 L 955,622 L 954,618 L 953,611 L 954,607 L 954,605 L 961,595 L 963,589 L 965,584 L 967,573 L 968,567 L 968,561 L 968,557 L 968,553 L 967,549 L 966,544 L 965,543 L 963,538 L 960,531 L 957,526 L 955,523 L 953,521 L 951,519 L 951,518 L 948,515 L 945,512 L 944,511 L 942,507 L 938,503 L 937,502 L 936,501 L 935,499 L 933,498 L 933,497 L 934,496 L 935,496 L 937,494 L 942,493 L 949,492 L 955,492 L 960,490 L 962,489 L 963,489 L 965,487 L 967,485 L 969,482 L 973,484 L 988,493 L 995,495 L 997,496 L 999,496 L 1001,497 L 1004,497 L 1008,498 L 1011,498 L 1013,499 L 1015,500 L 1020,503 L 1022,505 L 1024,506 L 1027,509 L 1029,511 L 1030,512 L 1035,517 L 1036,519 L 1039,523 L 1043,523 L 1050,523 L 1054,523 L 1058,524 L 1059,525 L 1060,525 L 1061,527 L 1061,528 L 1063,531 L 1063,533 L 1062,534 L 1062,535 L 1062,536 L 1063,537 L 1064,537 L 1065,538 L 1065,540 L 1066,540 L 1067,540 L 1068,540 L 1072,540 L 1074,539 L 1076,539 L 1078,538 L 1079,538 L 1082,537 L 1084,536 L 1085,536 L 1088,536 L 1090,535 " />
</g>
<g id="union_lektiko_δημοσ_ανατολικησ_μανησ_2" >
<path d="M 1016,1041 L 1016,1040 L 1017,1040 L 1017,1039 L 1017,1038 L 1016,1038 L 1015,1038 L 1015,1037 L 1015,1036 L 1016,1035 L 1015,1035 L 1015,1034 L 1016,1034 L 1016,1033 L 1015,1033 L 1014,1032 L 1014,1031 L 1014,1030 L 1014,1029 L 1014,1028 L 1015,1028 L 1015,1027 L 1015,1026 L 1014,1026 L 1014,1025 L 1014,1024 L 1015,1024 L 1015,1023 L 1016,1023 L 1016,1022 L 1017,1021 L 1017,1020 L 1017,1019 L 1017,1018 L 1016,1018 L 1016,1017 L 1016,1016 L 1016,1015 L 1015,1015 L 1015,1014 L 1015,1013 L 1016,1012 L 1016,1011 L 1016,1010 L 1017,1010 L 1017,1009 L 1017,1008 L 1016,1008 L 1015,1008 L 1015,1007 L 1015,1006 L 1015,1005 L 1015,1004 L 1016,1004 L 1017,1004 L 1018,1004 L 1019,1004 L 1019,1005 L 1020,1005 L 1021,1005 L 1021,1004 L 1022,1004 L 1022,1005 L 1023,1005 L 1023,1006 L 1024,1007 L 1025,1007 L 1027,1010 L 1032,1018 L 1034,1021 L 1037,1027 L 1038,1031 L 1037,1034 L 1036,1036 L 1019,1039 L 1016,1041 " />
<path d="M 1023,990 L 1022,990 L 1021,990 L 1020,991 L 1019,990 L 1018,990 L 1017,989 L 1016,990 L 1015,989 L 1015,988 L 1015,987 L 1014,987 L 1013,987 L 1012,987 L 1011,987 L 1011,986 L 1010,986 L 1009,985 L 1008,984 L 1008,983 L 1007,982 L 1006,982 L 1006,981 L 1005,981 L 1004,980 L 1004,979 L 1003,978 L 1003,977 L 1002,976 L 1001,975 L 1000,974 L 1000,973 L 1001,973 L 1001,972 L 1001,971 L 1001,970 L 1000,969 L 999,968 L 998,967 L 998,968 L 997,968 L 996,969 L 995,969 L 995,968 L 995,967 L 996,967 L 996,966 L 996,965 L 997,965 L 997,964 L 997,963 L 998,962 L 998,961 L 998,960 L 998,959 L 999,959 L 999,958 L 999,957 L 1000,956 L 1000,955 L 1000,954 L 1000,953 L 999,952 L 998,952 L 998,951 L 998,950 L 998,949 L 999,949 L 999,948 L 999,947 L 999,946 L 998,945 L 997,945 L 997,944 L 996,944 L 995,944 L 995,943 L 994,943 L 993,943 L 992,943 L 991,943 L 991,942 L 991,941 L 990,941 L 990,940 L 989,940 L 989,941 L 988,941 L 987,942 L 986,942 L 986,941 L 985,941 L 984,941 L 985,941 L 985,940 L 984,939 L 983,939 L 982,939 L 981,939 L 981,938 L 980,938 L 980,937 L 979,937 L 979,936 L 979,935 L 979,934 L 979,935 L 978,935 L 977,934 L 977,933 L 976,932 L 976,931 L 975,931 L 975,930 L 976,930 L 976,929 L 975,929 L 974,929 L 974,930 L 973,930 L 972,931 L 971,931 L 970,930 L 970,929 L 969,929 L 969,930 L 969,931 L 968,931 L 967,932 L 966,933 L 965,933 L 965,934 L 964,934 L 964,933 L 963,933 L 963,932 L 963,931 L 962,931 L 962,930 L 962,929 L 962,928 L 961,927 L 960,926 L 960,925 L 960,924 L 959,924 L 958,924 L 957,925 L 956,926 L 956,927 L 955,928 L 954,928 L 954,927 L 954,926 L 953,925 L 952,925 L 951,925 L 950,925 L 949,925 L 949,924 L 949,923 L 948,922 L 947,923 L 946,923 L 946,922 L 946,921 L 945,921 L 944,921 L 943,921 L 942,921 L 941,921 L 940,921 L 939,921 L 938,920 L 937,920 L 936,920 L 935,920 L 934,920 L 934,919 L 933,919 L 932,919 L 932,918 L 931,918 L 931,917 L 930,917 L 930,916 L 929,916 L 929,915 L 928,915 L 928,914 L 927,914 L 927,913 L 926,913 L 926,912 L 925,911 L 925,910 L 925,909 L 924,908 L 924,907 L 923,907 L 923,906 L 922,905 L 922,904 L 921,903 L 921,902 L 920,901 L 920,900 L 921,900 L 921,899 L 922,899 L 922,898 L 923,898 L 923,897 L 923,896 L 922,896 L 922,897 L 921,897 L 920,897 L 920,898 L 919,898 L 918,898 L 917,898 L 917,897 L 916,897 L 916,896 L 915,896 L 915,895 L 914,895 L 914,894 L 913,894 L 912,894 L 912,893 L 911,893 L 910,893 L 909,893 L 908,893 L 907,892 L 906,891 L 906,890 L 905,889 L 905,888 L 904,888 L 903,887 L 902,887 L 902,886 L 902,885 L 902,884 L 902,883 L 902,882 L 901,882 L 901,881 L 900,881 L 899,881 L 899,882 L 899,883 L 898,884 L 898,885 L 897,885 L 897,886 L 897,887 L 897,888 L 896,888 L 896,889 L 895,890 L 895,891 L 895,892 L 895,893 L 894,894 L 893,895 L 892,896 L 892,897 L 892,898 L 892,899 L 891,900 L 891,901 L 892,902 L 892,903 L 891,903 L 891,904 L 892,904 L 892,905 L 891,905 L 891,906 L 891,907 L 891,908 L 891,909 L 890,909 L 890,910 L 890,911 L 890,912 L 889,912 L 889,913 L 889,914 L 888,914 L 887,914 L 887,913 L 886,913 L 885,913 L 885,912 L 884,912 L 884,911 L 884,910 L 883,910 L 883,909 L 883,908 L 884,908 L 884,907 L 884,906 L 884,905 L 884,904 L 883,903 L 883,904 L 882,904 L 882,905 L 882,906 L 881,906 L 880,906 L 880,905 L 879,904 L 878,903 L 877,903 L 876,902 L 875,902 L 874,902 L 873,901 L 872,901 L 871,901 L 870,900 L 870,899 L 869,899 L 869,898 L 869,897 L 869,896 L 869,895 L 868,895 L 868,896 L 867,896 L 867,897 L 866,897 L 866,898 L 865,898 L 864,898 L 864,897 L 864,896 L 864,895 L 864,894 L 865,893 L 864,893 L 864,894 L 863,894 L 863,895 L 862,896 L 862,897 L 861,898 L 860,898 L 859,898 L 859,897 L 859,896 L 859,895 L 858,894 L 858,895 L 858,894 L 857,894 L 857,893 L 857,892 L 857,891 L 856,890 L 855,889 L 854,888 L 853,888 L 853,889 L 853,890 L 852,890 L 851,890 L 851,889 L 850,890 L 849,891 L 848,890 L 847,890 L 847,889 L 846,889 L 846,888 L 845,888 L 845,887 L 845,886 L 844,886 L 844,885 L 844,884 L 843,883 L 843,882 L 842,882 L 842,881 L 841,881 L 841,880 L 840,880 L 840,879 L 839,878 L 839,877 L 839,876 L 839,875 L 839,874 L 839,873 L 839,872 L 839,871 L 838,871 L 837,871 L 837,870 L 837,869 L 836,869 L 836,868 L 836,867 L 836,866 L 836,865 L 836,864 L 836,863 L 836,862 L 836,861 L 835,861 L 835,860 L 834,860 L 833,859 L 832,859 L 831,859 L 831,858 L 830,858 L 830,857 L 830,856 L 829,855 L 828,854 L 828,853 L 827,852 L 827,851 L 826,851 L 826,850 L 826,849 L 826,848 L 825,847 L 825,846 L 824,846 L 824,845 L 824,844 L 824,843 L 823,843 L 823,842 L 822,842 L 821,841 L 821,840 L 820,839 L 820,838 L 820,837 L 819,836 L 819,835 L 819,834 L 819,833 L 819,832 L 818,832 L 818,831 L 818,830 L 817,829 L 817,828 L 817,827 L 816,827 L 816,826 L 815,825 L 815,824 L 814,824 L 814,823 L 813,823 L 813,822 L 814,822 L 814,821 L 813,820 L 812,820 L 812,819 L 812,818 L 812,817 L 812,816 L 812,815 L 811,814 L 811,813 L 811,812 L 811,811 L 811,810 L 810,810 L 810,809 L 810,808 L 810,807 L 811,807 L 811,806 L 811,805 L 811,804 L 810,803 L 810,802 L 810,801 L 809,800 L 809,799 L 809,798 L 809,797 L 810,797 L 810,796 L 810,795 L 810,794 L 810,793 L 810,792 L 810,791 L 810,790 L 810,789 L 810,788 L 810,787 L 810,786 L 810,785 L 810,784 L 811,784 L 811,783 L 811,782 L 812,782 L 812,781 L 813,781 L 814,782 L 815,782 L 815,783 L 816,784 L 816,785 L 817,785 L 817,786 L 818,786 L 818,787 L 819,787 L 819,788 L 820,789 L 821,790 L 821,789 L 822,789 L 823,789 L 824,789 L 825,789 L 826,788 L 827,788 L 827,787 L 827,786 L 828,785 L 828,784 L 829,784 L 829,783 L 830,783 L 830,782 L 831,782 L 832,781 L 833,780 L 834,779 L 835,779 L 836,779 L 836,778 L 836,777 L 836,776 L 837,776 L 837,775 L 838,775 L 839,775 L 839,774 L 840,774 L 840,773 L 840,772 L 841,771 L 841,770 L 842,769 L 843,769 L 843,770 L 844,770 L 845,770 L 845,769 L 844,769 L 844,768 L 844,767 L 844,766 L 844,765 L 844,764 L 845,764 L 845,763 L 846,763 L 845,763 L 844,762 L 844,761 L 845,760 L 844,760 L 845,759 L 845,758 L 846,757 L 845,757 L 845,756 L 844,755 L 844,754 L 844,753 L 844,752 L 843,752 L 843,751 L 843,750 L 843,749 L 842,749 L 842,748 L 841,747 L 840,747 L 839,746 L 839,745 L 839,744 L 840,744 L 840,743 L 840,742 L 840,741 L 841,741 L 842,741 L 843,741 L 844,742 L 844,743 L 845,744 L 845,745 L 845,746 L 845,747 L 846,747 L 846,748 L 846,749 L 846,750 L 846,751 L 847,751 L 847,752 L 848,752 L 848,753 L 849,754 L 850,755 L 851,756 L 851,757 L 852,758 L 852,759 L 852,760 L 852,761 L 852,762 L 853,762 L 854,762 L 854,763 L 854,764 L 855,764 L 855,765 L 856,765 L 856,766 L 857,766 L 858,766 L 859,766 L 860,766 L 861,766 L 862,766 L 863,765 L 864,765 L 865,765 L 866,764 L 867,764 L 867,763 L 868,763 L 869,763 L 870,763 L 871,763 L 871,762 L 872,762 L 873,762 L 873,761 L 874,761 L 875,761 L 875,760 L 876,760 L 877,760 L 878,760 L 878,759 L 879,759 L 879,758 L 880,758 L 880,757 L 881,757 L 882,756 L 883,755 L 884,755 L 885,755 L 885,754 L 886,754 L 886,753 L 886,752 L 885,752 L 885,751 L 886,751 L 885,750 L 884,750 L 883,750 L 883,749 L 883,748 L 883,747 L 882,748 L 881,748 L 881,747 L 880,747 L 881,747 L 881,746 L 882,746 L 881,746 L 880,746 L 879,745 L 878,745 L 877,745 L 877,744 L 876,744 L 875,743 L 874,743 L 873,742 L 873,741 L 872,740 L 872,739 L 872,738 L 873,738 L 873,737 L 873,736 L 874,736 L 874,735 L 875,735 L 875,734 L 874,733 L 873,732 L 873,731 L 873,730 L 872,730 L 872,729 L 872,728 L 872,727 L 871,727 L 871,726 L 871,725 L 871,724 L 871,723 L 871,722 L 872,721 L 872,720 L 872,719 L 873,719 L 873,718 L 874,718 L 874,717 L 875,717 L 876,717 L 876,716 L 877,716 L 877,715 L 878,715 L 879,714 L 880,714 L 880,713 L 879,713 L 879,712 L 878,712 L 877,712 L 877,711 L 876,711 L 876,710 L 875,710 L 875,709 L 874,709 L 874,708 L 873,708 L 873,707 L 872,707 L 872,706 L 872,705 L 871,705 L 871,704 L 871,703 L 871,702 L 871,701 L 871,700 L 870,700 L 870,699 L 870,698 L 870,697 L 870,696 L 870,695 L 870,694 L 871,693 L 872,693 L 873,692 L 874,692 L 875,692 L 876,692 L 877,692 L 877,691 L 878,691 L 879,691 L 879,690 L 880,690 L 880,689 L 880,688 L 881,688 L 880,688 L 880,687 L 879,686 L 879,685 L 879,684 L 879,683 L 880,683 L 880,682 L 880,681 L 879,681 L 878,681 L 878,680 L 877,680 L 876,680 L 875,680 L 874,680 L 874,679 L 873,679 L 872,679 L 871,679 L 870,679 L 869,679 L 868,679 L 868,678 L 867,678 L 866,678 L 865,678 L 864,678 L 863,678 L 862,678 L 861,678 L 860,678 L 859,678 L 858,678 L 857,678 L 856,678 L 855,677 L 855,676 L 855,675 L 856,674 L 856,673 L 856,672 L 856,671 L 856,670 L 857,669 L 857,668 L 857,667 L 857,666 L 857,665 L 857,664 L 856,663 L 856,662 L 856,661 L 857,660 L 857,659 L 858,658 L 857,657 L 858,657 L 858,656 L 859,656 L 859,655 L 860,655 L 860,654 L 861,654 L 861,653 L 862,653 L 863,653 L 864,653 L 864,652 L 865,652 L 865,651 L 866,651 L 867,651 L 868,651 L 869,651 L 870,651 L 871,652 L 872,652 L 873,652 L 873,653 L 874,653 L 874,652 L 875,652 L 876,652 L 877,652 L 877,651 L 878,651 L 879,650 L 880,650 L 880,649 L 880,648 L 881,648 L 881,647 L 881,646 L 881,645 L 880,644 L 880,643 L 879,643 L 879,642 L 878,642 L 878,641 L 878,640 L 877,640 L 877,639 L 876,639 L 877,638 L 877,637 L 878,636 L 877,636 L 876,636 L 876,635 L 875,635 L 875,634 L 874,634 L 873,634 L 872,633 L 871,633 L 870,633 L 869,633 L 868,632 L 867,632 L 866,632 L 866,631 L 865,631 L 864,631 L 864,630 L 863,630 L 863,629 L 862,629 L 861,629 L 860,629 L 859,629 L 858,629 L 857,629 L 857,628 L 856,629 L 855,629 L 854,629 L 853,629 L 852,629 L 851,629 L 850,628 L 849,628 L 848,629 L 847,629 L 846,628 L 845,628 L 844,627 L 843,627 L 843,626 L 843,625 L 842,625 L 843,624 L 843,623 L 843,622 L 842,622 L 842,621 L 843,620 L 843,619 L 843,618 L 843,617 L 843,616 L 843,615 L 842,615 L 842,614 L 842,613 L 842,612 L 842,611 L 842,610 L 843,610 L 842,609 L 842,608 L 843,607 L 843,606 L 844,606 L 845,606 L 846,606 L 847,606 L 847,605 L 848,605 L 848,604 L 849,604 L 850,604 L 851,604 L 852,604 L 853,604 L 854,604 L 855,603 L 856,603 L 857,603 L 858,603 L 858,602 L 859,602 L 859,601 L 860,601 L 860,600 L 861,600 L 861,599 L 861,598 L 862,597 L 862,596 L 863,596 L 863,595 L 864,594 L 864,593 L 865,592 L 864,592 L 864,591 L 864,590 L 863,590 L 863,589 L 862,589 L 861,588 L 860,588 L 859,588 L 858,588 L 857,588 L 856,588 L 855,588 L 854,588 L 854,587 L 853,587 L 852,587 L 851,586 L 850,586 L 849,586 L 849,585 L 849,584 L 848,584 L 848,583 L 847,583 L 847,582 L 847,581 L 847,580 L 847,579 L 847,578 L 847,577 L 847,576 L 846,575 L 846,574 L 846,573 L 846,572 L 847,571 L 847,570 L 847,569 L 847,568 L 847,567 L 846,566 L 846,565 L 846,564 L 846,563 L 846,562 L 845,561 L 845,560 L 845,559 L 844,559 L 844,558 L 844,557 L 844,556 L 844,555 L 844,554 L 844,553 L 844,552 L 844,551 L 844,550 L 844,549 L 843,549 L 843,548 L 842,548 L 842,547 L 842,546 L 842,545 L 843,544 L 844,544 L 845,544 L 846,544 L 847,544 L 848,545 L 849,545 L 850,545 L 851,545 L 852,546 L 853,546 L 853,547 L 854,547 L 855,547 L 856,547 L 857,547 L 858,547 L 859,547 L 859,546 L 860,546 L 861,547 L 862,547 L 863,547 L 864,547 L 865,547 L 865,546 L 866,546 L 867,546 L 868,546 L 869,546 L 869,547 L 870,547 L 871,547 L 872,547 L 872,546 L 873,546 L 874,546 L 874,545 L 874,544 L 875,544 L 875,543 L 876,543 L 876,542 L 876,541 L 876,540 L 877,539 L 877,538 L 877,537 L 876,537 L 876,536 L 875,535 L 876,535 L 876,534 L 876,533 L 876,532 L 876,531 L 875,531 L 874,531 L 874,530 L 873,530 L 873,529 L 872,529 L 871,529 L 871,530 L 870,530 L 869,529 L 868,529 L 867,530 L 866,530 L 865,530 L 864,530 L 863,530 L 863,529 L 862,529 L 862,528 L 862,527 L 861,527 L 860,527 L 859,527 L 859,526 L 858,526 L 858,525 L 857,525 L 857,524 L 856,524 L 855,523 L 854,523 L 854,522 L 853,522 L 852,522 L 852,521 L 851,520 L 850,519 L 850,518 L 849,518 L 849,517 L 848,517 L 848,516 L 848,515 L 847,515 L 847,514 L 846,513 L 846,512 L 846,511 L 846,510 L 846,509 L 846,508 L 846,507 L 847,507 L 847,506 L 848,506 L 847,505 L 847,504 L 847,503 L 846,503 L 846,502 L 845,502 L 845,501 L 845,500 L 844,500 L 844,499 L 843,499 L 843,498 L 843,497 L 843,496 L 842,496 L 842,495 L 841,495 L 841,494 L 841,493 L 841,492 L 841,491 L 840,491 L 840,490 L 841,490 L 841,489 L 842,489 L 842,488 L 842,487 L 841,487 L 841,486 L 841,485 L 840,485 L 840,484 L 841,484 L 841,483 L 841,482 L 842,482 L 842,481 L 843,480 L 843,479 L 843,478 L 843,477 L 843,476 L 843,475 L 844,475 L 844,474 L 844,473 L 845,473 L 844,472 L 844,471 L 844,470 L 844,469 L 845,468 L 845,467 L 846,467 L 846,466 L 846,465 L 847,464 L 847,463 L 848,463 L 848,462 L 849,462 L 849,461 L 850,461 L 851,460 L 852,460 L 853,459 L 854,459 L 855,459 L 856,458 L 857,458 L 857,457 L 858,457 L 859,457 L 860,457 L 861,458 L 862,458 L 863,458 L 864,458 L 864,459 L 865,459 L 866,459 L 867,460 L 868,460 L 869,459 L 870,459 L 870,458 L 870,457 L 869,457 L 869,456 L 869,455 L 869,454 L 869,453 L 869,452 L 870,452 L 870,451 L 871,450 L 871,449 L 872,449 L 872,448 L 873,448 L 873,447 L 874,446 L 874,445 L 875,445 L 876,444 L 877,444 L 877,443 L 878,443 L 879,443 L 880,443 L 880,442 L 881,442 L 882,442 L 883,442 L 884,442 L 885,442 L 886,442 L 886,441 L 887,441 L 887,440 L 888,440 L 888,439 L 888,438 L 889,438 L 889,437 L 889,436 L 889,435 L 889,434 L 889,433 L 889,432 L 889,431 L 888,431 L 888,430 L 887,429 L 886,428 L 885,428 L 884,427 L 883,427 L 883,426 L 882,426 L 881,426 L 880,425 L 879,424 L 878,423 L 877,423 L 877,422 L 876,422 L 875,423 L 874,424 L 873,424 L 873,425 L 872,425 L 871,425 L 871,426 L 870,426 L 869,426 L 868,427 L 867,427 L 866,427 L 865,427 L 864,427 L 863,427 L 862,428 L 861,428 L 861,429 L 860,429 L 860,430 L 859,430 L 859,431 L 858,431 L 857,431 L 857,432 L 856,432 L 856,433 L 855,433 L 854,433 L 853,433 L 852,433 L 852,432 L 851,432 L 850,432 L 849,432 L 848,432 L 847,432 L 846,432 L 845,432 L 844,432 L 843,432 L 842,432 L 842,431 L 841,431 L 840,431 L 839,431 L 839,430 L 838,430 L 837,430 L 836,430 L 835,430 L 834,430 L 833,430 L 832,429 L 831,429 L 830,429 L 830,428 L 829,428 L 828,427 L 827,426 L 826,426 L 825,425 L 824,425 L 824,424 L 823,424 L 823,423 L 822,423 L 822,422 L 822,421 L 821,420 L 820,420 L 820,419 L 819,419 L 819,418 L 819,417 L 818,416 L 818,415 L 818,414 L 818,413 L 818,412 L 818,411 L 818,410 L 818,409 L 818,408 L 818,407 L 818,406 L 818,405 L 819,405 L 819,404 L 819,403 L 818,403 L 818,402 L 818,401 L 818,400 L 819,400 L 819,399 L 820,399 L 821,398 L 821,397 L 820,397 L 819,397 L 818,396 L 817,396 L 816,396 L 815,396 L 815,395 L 814,395 L 813,395 L 813,394 L 812,394 L 812,393 L 811,392 L 810,392 L 809,393 L 808,393 L 808,394 L 807,394 L 806,394 L 805,394 L 804,393 L 803,392 L 803,391 L 803,390 L 804,389 L 804,388 L 803,388 L 803,387 L 803,386 L 803,385 L 803,384 L 803,383 L 803,382 L 803,381 L 802,381 L 802,380 L 802,379 L 802,378 L 801,378 L 801,377 L 800,377 L 800,376 L 800,375 L 800,374 L 799,373 L 798,373 L 798,372 L 798,371 L 798,370 L 798,369 L 799,369 L 799,368 L 799,367 L 798,367 L 798,366 L 797,365 L 797,364 L 796,364 L 796,363 L 796,362 L 796,361 L 795,360 L 795,359 L 795,358 L 795,357 L 795,356 L 796,356 L 796,355 L 796,354 L 796,353 L 796,352 L 796,351 L 797,350 L 796,350 L 795,350 L 794,350 L 794,349 L 794,348 L 794,347 L 794,346 L 793,346 L 794,345 L 793,345 L 793,344 L 792,344 L 792,343 L 792,342 L 793,342 L 793,341 L 794,341 L 794,340 L 795,340 L 794,340 L 794,339 L 793,338 L 793,337 L 792,336 L 792,335 L 791,335 L 793,334 L 797,333 L 800,332 L 801,332 L 805,331 L 808,330 L 810,329 L 814,328 L 822,326 L 835,322 L 839,321 L 841,320 L 842,320 L 844,319 L 845,319 L 847,318 L 848,318 L 850,317 L 851,315 L 852,315 L 852,314 L 853,313 L 853,312 L 853,313 L 855,315 L 856,315 L 859,318 L 863,322 L 865,323 L 869,322 L 872,320 L 875,319 L 880,316 L 884,316 L 888,317 L 891,318 L 893,319 L 895,318 L 900,316 L 901,316 L 903,316 L 905,316 L 906,316 L 910,317 L 912,317 L 920,320 L 929,320 L 930,320 L 932,321 L 934,323 L 936,328 L 937,329 L 938,330 L 941,330 L 951,330 L 953,331 L 955,332 L 954,333 L 954,337 L 954,339 L 955,344 L 956,348 L 959,357 L 962,362 L 965,367 L 967,369 L 969,370 L 973,371 L 975,372 L 977,373 L 989,379 L 992,380 L 994,382 L 996,386 L 998,388 L 1002,395 L 1003,397 L 1002,399 L 999,401 L 997,402 L 995,404 L 994,406 L 993,406 L 991,406 L 991,408 L 991,410 L 993,415 L 994,418 L 994,421 L 994,420 L 996,428 L 996,431 L 994,435 L 993,437 L 990,442 L 986,447 L 985,448 L 983,450 L 983,452 L 983,453 L 986,457 L 986,459 L 986,460 L 984,462 L 981,464 L 980,464 L 978,466 L 977,468 L 975,471 L 974,475 L 971,480 L 969,482 L 967,485 L 965,487 L 963,489 L 962,489 L 960,490 L 955,492 L 949,492 L 942,493 L 937,494 L 935,496 L 934,496 L 933,497 L 933,498 L 935,499 L 936,501 L 937,502 L 938,503 L 942,507 L 944,511 L 945,512 L 948,515 L 951,518 L 951,519 L 953,521 L 955,523 L 957,526 L 960,531 L 963,538 L 965,543 L 966,544 L 967,549 L 968,553 L 968,557 L 968,561 L 968,567 L 967,573 L 965,584 L 963,589 L 961,595 L 954,605 L 954,607 L 953,611 L 954,618 L 955,622 L 957,623 L 958,624 L 959,626 L 960,628 L 961,631 L 962,632 L 962,633 L 962,639 L 962,655 L 961,661 L 960,663 L 962,665 L 963,666 L 965,667 L 966,669 L 967,669 L 969,677 L 971,678 L 972,680 L 975,683 L 977,684 L 978,687 L 978,692 L 978,694 L 978,696 L 978,699 L 981,702 L 982,704 L 984,706 L 984,709 L 983,716 L 983,718 L 983,724 L 983,731 L 982,738 L 980,738 L 977,738 L 972,739 L 971,740 L 969,741 L 968,743 L 967,747 L 967,749 L 969,761 L 971,767 L 971,770 L 971,773 L 971,778 L 972,784 L 972,785 L 972,786 L 974,795 L 974,797 L 975,802 L 975,803 L 977,810 L 978,816 L 979,820 L 978,822 L 978,823 L 978,824 L 977,827 L 977,828 L 978,830 L 980,832 L 981,833 L 981,837 L 981,840 L 981,843 L 982,846 L 983,847 L 984,851 L 986,857 L 990,861 L 993,864 L 998,873 L 1001,880 L 1008,891 L 1018,899 L 1020,902 L 1021,905 L 1022,907 L 1022,908 L 1022,911 L 1022,914 L 1026,920 L 1027,922 L 1028,924 L 1028,925 L 1028,931 L 1028,938 L 1030,945 L 1029,948 L 1027,952 L 1025,953 L 1022,954 L 1019,955 L 1018,956 L 1018,959 L 1021,967 L 1022,973 L 1023,981 L 1023,985 L 1023,990 " />
</g>
<g id="union_lektiko_δημοσ_ανατολικησ_μανησ_3" >
<path d="M 1170,206 L 1171,207 L 1172,208 L 1172,211 L 1173,211 L 1177,210 L 1178,210 L 1179,211 L 1180,211 L 1180,214 L 1180,215 L 1181,215 L 1182,215 L 1183,215 L 1183,216 L 1184,217 L 1184,218 L 1184,220 L 1183,224 L 1183,225 L 1184,226 L 1185,226 L 1188,226 L 1194,224 L 1196,224 L 1200,223 L 1202,223 L 1203,223 L 1205,223 L 1206,224 L 1207,225 L 1208,226 L 1209,227 L 1209,228 L 1213,234 L 1214,235 L 1216,238 L 1218,240 L 1218,241 L 1218,242 L 1219,243 L 1218,243 L 1218,244 L 1218,245 L 1217,245 L 1216,245 L 1216,246 L 1215,246 L 1214,246 L 1213,247 L 1212,248 L 1211,248 L 1210,248 L 1209,249 L 1208,249 L 1208,250 L 1207,250 L 1206,251 L 1205,251 L 1204,252 L 1203,252 L 1203,253 L 1202,253 L 1201,254 L 1200,254 L 1199,255 L 1198,256 L 1197,257 L 1196,257 L 1196,258 L 1195,258 L 1194,259 L 1194,260 L 1193,260 L 1192,261 L 1192,262 L 1191,262 L 1191,263 L 1191,264 L 1191,265 L 1190,266 L 1190,267 L 1190,268 L 1189,269 L 1189,270 L 1189,271 L 1188,272 L 1188,273 L 1188,274 L 1188,275 L 1188,276 L 1188,277 L 1189,277 L 1189,278 L 1189,279 L 1189,280 L 1189,281 L 1189,282 L 1189,283 L 1190,283 L 1191,284 L 1192,284 L 1193,284 L 1194,284 L 1194,285 L 1194,286 L 1194,287 L 1194,288 L 1194,289 L 1194,290 L 1194,291 L 1194,295 L 1195,297 L 1197,299 L 1198,299 L 1199,299 L 1198,297 L 1199,297 L 1199,302 L 1200,302 L 1199,303 L 1199,305 L 1199,309 L 1202,307 L 1201,306 L 1202,306 L 1202,305 L 1203,305 L 1204,305 L 1204,304 L 1205,304 L 1206,304 L 1207,304 L 1208,304 L 1209,304 L 1210,305 L 1210,306 L 1209,306 L 1208,306 L 1207,307 L 1206,307 L 1205,307 L 1204,307 L 1203,307 L 1200,309 L 1200,310 L 1200,311 L 1201,312 L 1201,313 L 1201,314 L 1201,315 L 1202,316 L 1202,317 L 1202,318 L 1201,319 L 1201,320 L 1201,321 L 1201,322 L 1200,323 L 1200,324 L 1200,325 L 1200,326 L 1199,327 L 1199,328 L 1198,329 L 1199,329 L 1200,329 L 1200,330 L 1201,331 L 1200,331 L 1200,332 L 1200,333 L 1200,334 L 1200,335 L 1201,335 L 1201,336 L 1202,336 L 1203,337 L 1203,338 L 1204,339 L 1204,340 L 1204,341 L 1205,341 L 1206,342 L 1206,343 L 1207,343 L 1207,344 L 1207,345 L 1208,345 L 1208,346 L 1209,346 L 1209,347 L 1209,348 L 1210,349 L 1209,350 L 1209,351 L 1208,352 L 1208,353 L 1207,353 L 1206,352 L 1205,351 L 1204,351 L 1203,351 L 1202,351 L 1201,351 L 1201,352 L 1200,352 L 1199,352 L 1198,352 L 1197,353 L 1196,353 L 1195,353 L 1194,354 L 1193,354 L 1192,354 L 1191,355 L 1190,355 L 1189,355 L 1188,355 L 1187,356 L 1186,356 L 1185,357 L 1184,357 L 1183,357 L 1182,358 L 1181,358 L 1180,358 L 1179,358 L 1178,359 L 1177,359 L 1176,360 L 1175,360 L 1174,360 L 1173,361 L 1172,361 L 1171,361 L 1170,362 L 1169,362 L 1169,363 L 1168,363 L 1167,363 L 1166,364 L 1165,364 L 1164,365 L 1163,365 L 1162,365 L 1162,366 L 1161,366 L 1160,367 L 1159,367 L 1158,367 L 1157,368 L 1156,368 L 1156,369 L 1155,369 L 1154,370 L 1153,370 L 1152,370 L 1151,371 L 1150,371 L 1150,372 L 1149,372 L 1148,373 L 1147,373 L 1146,374 L 1145,374 L 1145,375 L 1144,375 L 1143,375 L 1142,376 L 1141,376 L 1140,377 L 1139,378 L 1138,378 L 1137,379 L 1136,380 L 1136,381 L 1136,382 L 1136,383 L 1137,384 L 1137,385 L 1138,385 L 1138,386 L 1137,387 L 1136,387 L 1136,388 L 1135,388 L 1135,389 L 1135,390 L 1134,390 L 1133,390 L 1132,390 L 1131,390 L 1130,390 L 1130,391 L 1129,391 L 1129,392 L 1128,392 L 1127,393 L 1126,393 L 1126,394 L 1125,395 L 1124,395 L 1123,396 L 1122,397 L 1121,398 L 1120,399 L 1120,400 L 1119,400 L 1119,401 L 1119,402 L 1118,402 L 1118,403 L 1117,404 L 1117,405 L 1116,405 L 1116,406 L 1116,407 L 1116,408 L 1116,409 L 1115,410 L 1115,411 L 1115,412 L 1115,413 L 1116,414 L 1116,415 L 1116,416 L 1116,417 L 1116,418 L 1117,418 L 1117,419 L 1118,419 L 1118,420 L 1119,420 L 1119,421 L 1120,422 L 1121,422 L 1122,423 L 1122,424 L 1123,424 L 1124,425 L 1125,425 L 1126,425 L 1127,425 L 1128,425 L 1128,424 L 1129,423 L 1129,424 L 1129,425 L 1129,426 L 1130,426 L 1130,427 L 1130,428 L 1130,429 L 1129,430 L 1128,430 L 1128,431 L 1127,431 L 1127,432 L 1126,433 L 1125,433 L 1124,434 L 1123,435 L 1123,436 L 1122,437 L 1121,437 L 1121,438 L 1120,438 L 1119,439 L 1118,439 L 1117,439 L 1116,439 L 1115,439 L 1114,439 L 1113,439 L 1113,440 L 1112,441 L 1112,442 L 1112,443 L 1112,444 L 1112,445 L 1112,446 L 1112,447 L 1112,448 L 1112,449 L 1112,450 L 1112,451 L 1112,452 L 1112,453 L 1112,454 L 1113,455 L 1113,456 L 1113,457 L 1114,458 L 1114,459 L 1114,460 L 1114,461 L 1115,461 L 1115,462 L 1115,463 L 1116,464 L 1116,465 L 1117,466 L 1118,467 L 1118,468 L 1118,469 L 1119,469 L 1119,470 L 1120,470 L 1121,471 L 1121,470 L 1122,470 L 1122,469 L 1123,469 L 1124,468 L 1125,468 L 1126,467 L 1127,466 L 1128,466 L 1129,466 L 1130,466 L 1131,466 L 1132,466 L 1133,466 L 1134,466 L 1135,466 L 1136,465 L 1137,465 L 1138,465 L 1139,466 L 1140,466 L 1141,466 L 1142,466 L 1143,466 L 1143,467 L 1144,467 L 1144,468 L 1144,469 L 1144,470 L 1144,471 L 1144,472 L 1144,473 L 1143,474 L 1143,475 L 1142,475 L 1142,476 L 1142,477 L 1143,477 L 1144,477 L 1145,477 L 1146,477 L 1147,478 L 1148,478 L 1149,478 L 1150,477 L 1150,478 L 1151,478 L 1152,478 L 1153,478 L 1154,478 L 1155,478 L 1155,479 L 1156,479 L 1157,479 L 1158,479 L 1158,480 L 1159,480 L 1159,481 L 1160,481 L 1160,482 L 1160,483 L 1160,484 L 1160,485 L 1160,486 L 1160,487 L 1159,487 L 1159,488 L 1159,489 L 1159,490 L 1159,491 L 1160,491 L 1160,492 L 1159,492 L 1158,492 L 1158,493 L 1157,493 L 1156,494 L 1155,494 L 1155,495 L 1154,495 L 1154,496 L 1154,497 L 1155,498 L 1155,499 L 1156,499 L 1156,500 L 1155,500 L 1154,500 L 1153,500 L 1152,500 L 1151,499 L 1151,500 L 1152,501 L 1153,501 L 1154,501 L 1155,502 L 1156,502 L 1156,503 L 1156,504 L 1155,504 L 1155,505 L 1155,506 L 1156,506 L 1157,506 L 1157,507 L 1157,508 L 1157,509 L 1157,510 L 1156,510 L 1156,511 L 1156,512 L 1157,512 L 1158,512 L 1159,511 L 1160,512 L 1161,512 L 1162,511 L 1163,510 L 1164,511 L 1164,512 L 1164,513 L 1164,514 L 1165,514 L 1165,515 L 1165,516 L 1165,517 L 1165,518 L 1165,519 L 1165,520 L 1165,521 L 1165,522 L 1164,522 L 1164,523 L 1164,524 L 1164,525 L 1164,526 L 1164,527 L 1163,527 L 1163,528 L 1162,528 L 1161,529 L 1160,529 L 1159,529 L 1159,530 L 1158,530 L 1157,530 L 1156,530 L 1155,530 L 1154,530 L 1153,530 L 1152,531 L 1151,531 L 1150,531 L 1149,531 L 1148,532 L 1147,532 L 1145,532 L 1145,531 L 1144,531 L 1144,530 L 1143,530 L 1143,529 L 1143,528 L 1142,528 L 1142,527 L 1141,526 L 1140,525 L 1140,524 L 1140,523 L 1139,521 L 1139,520 L 1139,519 L 1138,519 L 1137,518 L 1138,517 L 1139,517 L 1139,516 L 1140,516 L 1141,516 L 1141,515 L 1140,514 L 1139,514 L 1138,514 L 1137,515 L 1136,515 L 1136,514 L 1135,514 L 1134,514 L 1134,515 L 1133,515 L 1132,514 L 1131,513 L 1132,513 L 1132,512 L 1133,511 L 1134,511 L 1135,510 L 1136,510 L 1137,510 L 1138,511 L 1138,510 L 1138,509 L 1138,508 L 1137,508 L 1136,508 L 1136,507 L 1135,507 L 1135,506 L 1135,505 L 1134,505 L 1134,504 L 1134,503 L 1134,502 L 1134,501 L 1133,500 L 1132,500 L 1132,499 L 1131,499 L 1130,498 L 1129,497 L 1128,497 L 1127,497 L 1127,496 L 1126,496 L 1126,495 L 1125,495 L 1124,494 L 1123,493 L 1122,493 L 1121,494 L 1120,494 L 1119,494 L 1118,495 L 1117,495 L 1116,495 L 1116,494 L 1115,494 L 1114,494 L 1113,494 L 1112,493 L 1112,492 L 1111,492 L 1111,491 L 1110,491 L 1109,491 L 1109,490 L 1108,489 L 1107,488 L 1106,488 L 1105,488 L 1104,487 L 1103,487 L 1102,487 L 1101,487 L 1100,486 L 1099,486 L 1098,486 L 1097,486 L 1096,486 L 1095,487 L 1095,488 L 1094,489 L 1094,490 L 1093,490 L 1092,490 L 1091,490 L 1090,489 L 1089,489 L 1089,490 L 1088,491 L 1087,492 L 1086,492 L 1085,493 L 1084,494 L 1083,495 L 1083,496 L 1082,496 L 1081,496 L 1081,497 L 1080,498 L 1079,498 L 1079,499 L 1078,499 L 1078,500 L 1077,501 L 1077,502 L 1077,503 L 1076,503 L 1076,504 L 1076,505 L 1076,506 L 1076,507 L 1077,508 L 1077,509 L 1077,510 L 1077,511 L 1077,512 L 1077,513 L 1077,514 L 1076,514 L 1076,515 L 1077,515 L 1077,516 L 1077,517 L 1078,517 L 1078,518 L 1079,519 L 1080,520 L 1080,521 L 1080,522 L 1081,522 L 1082,523 L 1082,524 L 1083,524 L 1083,525 L 1084,525 L 1085,525 L 1086,525 L 1087,525 L 1087,526 L 1088,526 L 1088,527 L 1088,528 L 1088,529 L 1088,530 L 1088,531 L 1089,532 L 1089,533 L 1090,534 L 1090,535 L 1088,536 L 1085,536 L 1084,536 L 1082,537 L 1079,538 L 1078,538 L 1076,539 L 1074,539 L 1072,540 L 1068,540 L 1067,540 L 1066,540 L 1065,540 L 1065,538 L 1064,537 L 1063,537 L 1062,536 L 1062,535 L 1062,534 L 1063,533 L 1063,531 L 1061,528 L 1061,527 L 1060,525 L 1059,525 L 1058,524 L 1054,523 L 1050,523 L 1043,523 L 1039,523 L 1036,519 L 1035,517 L 1030,512 L 1029,511 L 1027,509 L 1024,506 L 1022,505 L 1020,503 L 1015,500 L 1013,499 L 1011,498 L 1008,498 L 1004,497 L 1001,497 L 999,496 L 997,496 L 995,495 L 988,493 L 973,484 L 969,482 L 971,480 L 974,475 L 975,471 L 977,468 L 978,466 L 980,464 L 981,464 L 984,462 L 986,460 L 986,459 L 986,457 L 983,453 L 983,452 L 983,450 L 985,448 L 986,447 L 990,442 L 993,437 L 994,435 L 996,431 L 996,428 L 994,420 L 994,421 L 994,418 L 993,415 L 991,410 L 991,408 L 991,406 L 993,406 L 994,406 L 995,404 L 997,402 L 999,401 L 1002,399 L 1003,397 L 1002,395 L 998,388 L 996,386 L 994,382 L 992,380 L 989,379 L 977,373 L 975,372 L 973,371 L 969,370 L 967,369 L 965,367 L 962,362 L 959,357 L 956,348 L 955,344 L 954,339 L 954,337 L 954,333 L 955,332 L 953,331 L 951,330 L 941,330 L 938,330 L 937,329 L 936,328 L 934,323 L 932,321 L 930,320 L 929,320 L 920,320 L 912,317 L 910,317 L 906,316 L 905,316 L 903,316 L 901,316 L 900,316 L 895,318 L 893,319 L 891,318 L 888,317 L 884,316 L 880,316 L 875,319 L 872,320 L 869,322 L 865,323 L 863,322 L 859,318 L 856,315 L 855,315 L 853,313 L 853,312 L 855,311 L 857,307 L 858,306 L 859,303 L 859,301 L 860,298 L 861,294 L 861,292 L 861,291 L 861,289 L 861,288 L 862,287 L 863,286 L 864,286 L 868,286 L 869,284 L 870,283 L 870,282 L 870,281 L 870,280 L 869,280 L 869,279 L 868,277 L 869,272 L 868,270 L 868,267 L 868,265 L 869,264 L 868,261 L 868,259 L 868,258 L 869,258 L 871,256 L 872,256 L 873,255 L 875,252 L 876,252 L 876,251 L 877,251 L 878,250 L 878,249 L 878,248 L 879,246 L 879,243 L 879,240 L 880,238 L 880,236 L 881,235 L 882,233 L 883,233 L 884,231 L 885,230 L 887,229 L 889,227 L 891,226 L 893,226 L 896,225 L 900,226 L 903,226 L 904,226 L 906,226 L 906,225 L 906,224 L 906,223 L 906,221 L 905,218 L 905,215 L 905,213 L 904,210 L 904,208 L 903,208 L 903,207 L 903,204 L 903,202 L 904,199 L 904,196 L 907,191 L 908,189 L 907,188 L 907,187 L 905,184 L 904,180 L 903,179 L 903,177 L 905,177 L 917,173 L 925,172 L 931,172 L 936,174 L 938,175 L 939,178 L 940,181 L 941,185 L 943,188 L 944,189 L 946,193 L 948,194 L 958,192 L 962,193 L 965,194 L 967,196 L 975,198 L 979,199 L 980,200 L 989,202 L 998,203 L 1008,206 L 1010,206 L 1012,206 L 1014,206 L 1017,205 L 1020,203 L 1026,200 L 1030,198 L 1039,197 L 1044,197 L 1048,197 L 1051,198 L 1053,200 L 1058,203 L 1059,203 L 1063,203 L 1068,203 L 1070,203 L 1074,204 L 1079,206 L 1080,207 L 1081,206 L 1084,202 L 1087,199 L 1092,192 L 1093,191 L 1095,190 L 1097,187 L 1098,186 L 1103,185 L 1104,185 L 1107,184 L 1111,181 L 1113,182 L 1115,183 L 1116,184 L 1119,187 L 1120,188 L 1125,190 L 1126,191 L 1127,190 L 1129,188 L 1129,187 L 1130,186 L 1131,186 L 1133,186 L 1134,186 L 1135,186 L 1137,187 L 1138,188 L 1139,189 L 1141,191 L 1142,193 L 1144,196 L 1149,200 L 1151,201 L 1152,202 L 1155,202 L 1160,202 L 1163,203 L 1164,203 L 1165,204 L 1167,204 L 1170,206 " />
</g>
<g id="union_lektiko_δημοσ_ανατολικησ_μανησ_4" >
<path d="M 1040,42 L 1042,43 L 1042,42 L 1044,43 L 1046,45 L 1048,46 L 1051,48 L 1053,50 L 1055,54 L 1056,57 L 1058,66 L 1059,69 L 1063,67 L 1065,66 L 1067,66 L 1068,66 L 1071,66 L 1072,67 L 1073,67 L 1074,68 L 1076,69 L 1079,71 L 1080,71 L 1084,72 L 1088,73 L 1090,74 L 1095,74 L 1101,75 L 1103,75 L 1109,75 L 1110,76 L 1111,76 L 1112,77 L 1115,78 L 1115,79 L 1118,80 L 1119,81 L 1128,85 L 1133,87 L 1134,88 L 1135,88 L 1136,90 L 1138,92 L 1139,94 L 1144,104 L 1146,107 L 1149,111 L 1152,115 L 1156,121 L 1160,129 L 1162,132 L 1166,140 L 1167,143 L 1167,144 L 1168,148 L 1168,154 L 1168,155 L 1168,159 L 1168,162 L 1167,168 L 1167,170 L 1168,171 L 1169,172 L 1175,175 L 1179,177 L 1181,178 L 1182,179 L 1184,180 L 1184,181 L 1184,182 L 1185,183 L 1185,184 L 1186,185 L 1186,186 L 1185,187 L 1184,188 L 1183,189 L 1183,191 L 1182,193 L 1181,194 L 1180,195 L 1178,196 L 1177,197 L 1176,198 L 1176,201 L 1175,202 L 1175,203 L 1173,204 L 1171,205 L 1170,206 L 1167,204 L 1165,204 L 1164,203 L 1163,203 L 1160,202 L 1155,202 L 1152,202 L 1151,201 L 1149,200 L 1144,196 L 1142,193 L 1141,191 L 1139,189 L 1138,188 L 1137,187 L 1135,186 L 1134,186 L 1133,186 L 1131,186 L 1130,186 L 1129,187 L 1129,188 L 1127,190 L 1126,191 L 1125,190 L 1120,188 L 1119,187 L 1116,184 L 1115,183 L 1113,182 L 1111,181 L 1107,184 L 1104,185 L 1103,185 L 1098,186 L 1097,187 L 1095,190 L 1093,191 L 1092,192 L 1087,199 L 1084,202 L 1081,206 L 1080,207 L 1079,206 L 1074,204 L 1070,203 L 1068,203 L 1063,203 L 1059,203 L 1058,203 L 1053,200 L 1051,198 L 1048,197 L 1044,197 L 1039,197 L 1030,198 L 1026,200 L 1020,203 L 1017,205 L 1014,206 L 1012,206 L 1010,206 L 1008,206 L 998,203 L 989,202 L 980,200 L 979,199 L 975,198 L 967,196 L 965,194 L 962,193 L 958,192 L 948,194 L 946,193 L 944,189 L 943,188 L 941,185 L 940,181 L 939,178 L 938,175 L 936,174 L 931,172 L 925,172 L 917,173 L 905,177 L 903,177 L 902,174 L 902,172 L 902,170 L 903,168 L 904,168 L 905,167 L 905,166 L 906,166 L 906,165 L 908,165 L 909,165 L 910,165 L 911,163 L 913,162 L 914,162 L 914,161 L 915,161 L 915,159 L 915,156 L 914,155 L 914,152 L 913,150 L 913,149 L 912,148 L 911,146 L 910,143 L 909,141 L 909,140 L 907,139 L 907,138 L 906,137 L 904,135 L 904,134 L 901,130 L 901,129 L 900,127 L 899,125 L 897,123 L 896,122 L 895,121 L 894,119 L 893,116 L 892,116 L 892,115 L 890,114 L 890,113 L 889,112 L 889,111 L 889,110 L 889,109 L 889,107 L 889,105 L 890,104 L 890,102 L 890,100 L 890,98 L 890,96 L 890,92 L 889,90 L 889,89 L 889,88 L 888,87 L 887,87 L 883,86 L 881,86 L 879,86 L 878,85 L 875,84 L 874,84 L 873,84 L 871,82 L 870,81 L 869,79 L 867,69 L 865,66 L 864,64 L 862,63 L 856,55 L 855,53 L 854,53 L 853,52 L 852,51 L 851,49 L 849,47 L 849,44 L 849,43 L 848,41 L 848,34 L 847,31 L 846,29 L 846,27 L 847,27 L 851,28 L 857,32 L 858,33 L 859,35 L 861,38 L 865,42 L 872,46 L 876,54 L 878,55 L 880,56 L 890,56 L 896,59 L 901,60 L 903,61 L 905,62 L 908,62 L 909,63 L 910,64 L 913,67 L 917,69 L 928,70 L 931,70 L 932,71 L 939,73 L 943,76 L 947,82 L 951,85 L 953,89 L 954,90 L 955,91 L 958,90 L 959,90 L 962,88 L 965,85 L 967,83 L 970,80 L 971,77 L 972,76 L 975,72 L 976,72 L 985,65 L 995,59 L 998,57 L 997,56 L 996,50 L 997,42 L 1000,28 L 1001,26 L 1003,27 L 1010,28 L 1017,35 L 1024,37 L 1028,38 L 1040,42 " />
</g>
</g>
</g>
<!-- QGIS extent for clipping, eg in Inkscape -->
<g id="qgisviewbox" inkscape:groupmode="layer" inkscape:label="qgisviewbox" stroke="rgb(255,0,0)" stroke-width="1" fill="none" >
<path d="M 0,1114 L 2010,1114 L 2010,0 L 0,0 L 0,1114 " />
</g></svg>