<?xml version="1.0" standalone="no"?>
<!DOCTYPE svg PUBLIC "-//W3C//DTD SVG 1.1//EN" "http://www.w3.org/Graphics/SVG/1.1/DTD/svg11.dtd">
<svg xmlns="http://www.w3.org/2000/svg" xmlns:inkscape="http://www.inkscape.org/namespaces/inkscape" xmlns:xlink="http://www.w3.org/1999/xlink" viewBox = "0 0 2013 1116" version = "1.1">
<!-- svg generated using QGIS www.qgis.org -->
<g id="union_lektiko_δημοσ_αντιπαρου" inkscape:groupmode="layer" inkscape:label="union_lektiko_δημοσ_αντιπαρου">
<g stroke="none" fill="rgb(158,86,52)" stroke-linejoin="round" stroke-width="0.26">
<g id="union_lektiko_δημοσ_αντιπαρου_1" >
<path d="M 1315,1087 L 1314,1087 L 1314,1086 L 1313,1086 L 1314,1085 L 1315,1085 L 1315,1086 L 1315,1087 " />
<path d="M 1283,1061 L 1282,1061 L 1281,1060 L 1281,1059 L 1282,1059 L 1282,1058 L 1283,1059 L 1283,1060 L 1283,1061 " />
<path d="M 1321,963 L 1321,964 L 1321,965 L 1321,966 L 1320,966 L 1319,966 L 1318,966 L 1318,965 L 1318,964 L 1319,963 L 1320,963 L 1321,963 " />
<path d="M 1341,963 L 1342,963 L 1343,963 L 1343,964 L 1344,964 L 1345,964 L 1346,965 L 1346,966 L 1345,967 L 1345,968 L 1345,969 L 1345,970 L 1345,971 L 1344,971 L 1343,971 L 1342,971 L 1340,970 L 1339,970 L 1338,970 L 1338,969 L 1337,968 L 1337,967 L 1338,967 L 1339,966 L 1339,965 L 1339,964 L 1339,963 L 1340,963 L 1341,963 " />
<path d="M 638,936 L 637,936 L 636,936 L 636,935 L 637,934 L 637,935 L 638,935 L 638,936 " />
<path d="M 608,933 L 610,933 L 612,933 L 613,933 L 614,933 L 616,932 L 617,932 L 619,932 L 620,932 L 621,933 L 621,934 L 622,935 L 623,936 L 624,937 L 625,937 L 625,938 L 626,938 L 628,938 L 630,938 L 631,937 L 632,937 L 634,937 L 635,937 L 636,938 L 637,938 L 638,938 L 638,939 L 639,940 L 639,941 L 639,942 L 639,943 L 639,944 L 639,945 L 638,946 L 638,947 L 638,948 L 638,949 L 639,950 L 640,951 L 640,952 L 640,954 L 640,955 L 640,956 L 641,957 L 641,958 L 642,959 L 643,960 L 643,961 L 643,962 L 643,963 L 643,964 L 642,965 L 642,966 L 641,966 L 641,967 L 640,968 L 640,969 L 640,970 L 640,971 L 640,972 L 639,973 L 639,974 L 639,975 L 639,976 L 639,977 L 637,978 L 636,979 L 635,980 L 634,981 L 634,982 L 634,983 L 633,984 L 633,985 L 633,986 L 632,987 L 633,988 L 632,989 L 631,990 L 631,991 L 631,992 L 631,993 L 631,994 L 631,995 L 631,996 L 630,997 L 629,997 L 629,998 L 629,999 L 628,999 L 628,1000 L 628,1001 L 628,1002 L 629,1003 L 629,1004 L 629,1005 L 629,1006 L 628,1007 L 628,1008 L 629,1009 L 629,1010 L 630,1010 L 630,1011 L 630,1012 L 629,1013 L 629,1014 L 628,1015 L 627,1016 L 626,1016 L 625,1017 L 624,1018 L 623,1019 L 621,1019 L 621,1020 L 620,1020 L 619,1021 L 618,1022 L 618,1023 L 619,1024 L 620,1024 L 621,1025 L 622,1025 L 622,1026 L 621,1027 L 621,1028 L 621,1029 L 620,1029 L 619,1030 L 618,1031 L 618,1032 L 619,1033 L 620,1033 L 621,1033 L 621,1034 L 622,1035 L 623,1036 L 623,1037 L 623,1038 L 623,1039 L 623,1040 L 623,1041 L 622,1041 L 621,1042 L 622,1043 L 622,1044 L 622,1045 L 622,1046 L 621,1047 L 620,1048 L 619,1048 L 619,1047 L 618,1046 L 618,1045 L 617,1045 L 617,1044 L 616,1044 L 615,1044 L 613,1044 L 612,1044 L 611,1044 L 610,1043 L 609,1044 L 608,1044 L 607,1043 L 606,1043 L 605,1043 L 605,1044 L 604,1044 L 604,1045 L 603,1046 L 602,1046 L 601,1046 L 600,1047 L 600,1048 L 599,1048 L 598,1048 L 597,1048 L 596,1048 L 595,1048 L 594,1049 L 593,1049 L 592,1050 L 592,1051 L 592,1052 L 592,1053 L 592,1054 L 592,1055 L 593,1056 L 593,1057 L 594,1057 L 595,1058 L 596,1058 L 597,1058 L 599,1058 L 599,1059 L 599,1060 L 599,1061 L 599,1062 L 598,1063 L 597,1063 L 596,1062 L 595,1062 L 594,1062 L 593,1061 L 592,1060 L 591,1060 L 590,1060 L 589,1061 L 588,1061 L 588,1062 L 588,1063 L 588,1064 L 587,1064 L 587,1065 L 585,1065 L 584,1064 L 583,1064 L 582,1065 L 580,1064 L 580,1063 L 578,1063 L 577,1063 L 576,1063 L 575,1063 L 573,1063 L 571,1063 L 570,1062 L 569,1060 L 567,1060 L 566,1060 L 565,1060 L 564,1059 L 563,1059 L 562,1058 L 560,1058 L 559,1059 L 558,1059 L 556,1059 L 555,1058 L 554,1058 L 553,1058 L 552,1058 L 552,1059 L 551,1059 L 550,1059 L 548,1058 L 547,1057 L 546,1056 L 546,1055 L 547,1055 L 547,1054 L 548,1054 L 548,1053 L 548,1051 L 548,1050 L 547,1049 L 547,1048 L 546,1047 L 545,1046 L 545,1045 L 543,1045 L 542,1045 L 541,1045 L 540,1045 L 538,1045 L 538,1044 L 537,1044 L 536,1044 L 535,1043 L 534,1042 L 534,1041 L 535,1040 L 536,1039 L 537,1039 L 538,1038 L 538,1037 L 538,1035 L 538,1034 L 538,1033 L 537,1032 L 537,1031 L 538,1030 L 538,1028 L 538,1027 L 538,1026 L 538,1025 L 538,1023 L 538,1022 L 538,1021 L 539,1021 L 540,1020 L 540,1019 L 540,1018 L 540,1017 L 540,1016 L 540,1015 L 541,1014 L 541,1013 L 541,1012 L 541,1011 L 542,1010 L 543,1010 L 544,1008 L 544,1007 L 545,1006 L 545,1005 L 545,1004 L 546,1003 L 547,1002 L 549,1001 L 550,1000 L 550,999 L 551,997 L 551,995 L 552,993 L 552,991 L 552,990 L 552,989 L 553,987 L 553,986 L 554,985 L 554,984 L 555,982 L 556,980 L 556,979 L 557,979 L 558,978 L 559,977 L 559,976 L 560,976 L 560,975 L 561,973 L 561,972 L 562,972 L 563,971 L 564,970 L 565,970 L 567,969 L 568,967 L 569,966 L 569,965 L 569,964 L 569,963 L 570,962 L 571,962 L 571,961 L 572,961 L 575,960 L 576,960 L 577,959 L 578,959 L 578,958 L 578,957 L 578,956 L 578,955 L 579,955 L 579,954 L 580,953 L 581,952 L 581,951 L 581,950 L 582,950 L 583,950 L 584,950 L 585,949 L 586,948 L 587,948 L 589,948 L 590,948 L 590,947 L 590,946 L 591,945 L 591,944 L 593,943 L 593,942 L 594,941 L 595,940 L 596,939 L 598,939 L 599,938 L 600,938 L 602,936 L 602,935 L 603,935 L 603,934 L 603,932 L 604,932 L 606,932 L 607,933 L 608,933 " />
<path d="M 990,843 L 992,843 L 993,844 L 994,844 L 994,845 L 994,846 L 994,847 L 993,848 L 992,848 L 991,847 L 990,846 L 989,846 L 989,845 L 988,845 L 987,845 L 986,845 L 986,844 L 986,843 L 986,842 L 987,841 L 988,842 L 989,842 L 990,843 " />
<path d="M 744,787 L 745,787 L 745,788 L 747,790 L 747,791 L 747,792 L 747,793 L 746,793 L 745,793 L 744,793 L 743,793 L 742,792 L 741,792 L 741,791 L 740,790 L 739,790 L 738,790 L 738,789 L 738,788 L 739,788 L 740,788 L 740,787 L 741,787 L 742,787 L 743,786 L 744,786 L 744,787 " />
<path d="M 735,787 L 734,787 L 734,786 L 734,785 L 734,784 L 734,783 L 735,783 L 736,782 L 737,782 L 737,783 L 737,784 L 737,785 L 738,786 L 737,786 L 737,787 L 736,787 L 735,787 " />
<path d="M 769,783 L 770,783 L 770,782 L 772,782 L 774,782 L 775,783 L 776,784 L 776,785 L 777,786 L 777,787 L 777,788 L 778,788 L 778,789 L 779,789 L 780,788 L 781,788 L 782,789 L 782,790 L 782,791 L 783,791 L 784,792 L 784,793 L 785,793 L 786,793 L 787,794 L 787,795 L 787,797 L 786,798 L 786,799 L 787,800 L 786,801 L 786,802 L 786,803 L 785,804 L 784,804 L 784,805 L 785,805 L 786,806 L 787,806 L 787,807 L 788,808 L 788,809 L 788,810 L 789,811 L 790,811 L 791,811 L 792,810 L 793,809 L 793,810 L 794,811 L 794,812 L 794,813 L 794,814 L 793,814 L 793,815 L 792,815 L 791,816 L 791,817 L 791,818 L 791,820 L 792,821 L 792,822 L 793,823 L 795,822 L 796,821 L 797,821 L 797,820 L 797,819 L 797,818 L 798,818 L 798,817 L 798,816 L 798,815 L 799,815 L 801,815 L 802,815 L 804,815 L 805,815 L 806,816 L 806,817 L 805,818 L 804,819 L 804,820 L 803,820 L 802,821 L 803,822 L 804,822 L 805,823 L 806,824 L 807,825 L 808,826 L 807,827 L 807,828 L 807,829 L 807,830 L 806,831 L 806,832 L 806,833 L 806,835 L 806,836 L 807,836 L 807,837 L 808,837 L 809,838 L 810,838 L 811,838 L 811,837 L 812,837 L 814,837 L 816,836 L 818,835 L 820,835 L 821,835 L 822,836 L 823,836 L 824,836 L 825,837 L 826,837 L 828,838 L 829,838 L 830,839 L 831,839 L 833,840 L 834,841 L 835,842 L 836,843 L 837,844 L 838,845 L 839,846 L 840,846 L 842,847 L 843,848 L 845,848 L 846,848 L 848,847 L 849,847 L 850,847 L 851,846 L 852,846 L 854,845 L 855,845 L 855,844 L 856,844 L 857,844 L 858,844 L 859,843 L 860,843 L 861,843 L 862,843 L 862,844 L 863,845 L 864,846 L 866,845 L 867,845 L 868,845 L 869,845 L 870,845 L 871,844 L 871,843 L 871,842 L 871,841 L 871,840 L 872,840 L 872,841 L 874,841 L 875,840 L 876,839 L 877,839 L 878,839 L 879,839 L 880,839 L 880,838 L 881,837 L 882,837 L 883,837 L 884,837 L 885,836 L 886,836 L 887,836 L 888,836 L 889,836 L 890,837 L 891,837 L 892,836 L 893,835 L 894,834 L 895,834 L 896,834 L 897,833 L 897,832 L 898,832 L 898,830 L 898,829 L 899,828 L 901,828 L 902,829 L 903,828 L 903,827 L 903,826 L 902,824 L 903,824 L 904,823 L 906,824 L 907,825 L 908,825 L 909,825 L 911,825 L 912,825 L 912,824 L 913,823 L 914,823 L 915,822 L 915,821 L 915,820 L 916,819 L 917,819 L 918,819 L 919,819 L 921,820 L 921,821 L 922,821 L 923,822 L 924,822 L 925,823 L 926,822 L 927,821 L 928,820 L 929,820 L 930,820 L 931,820 L 932,820 L 934,820 L 935,820 L 935,818 L 935,817 L 935,816 L 936,816 L 938,816 L 938,815 L 938,814 L 937,814 L 937,813 L 937,812 L 937,811 L 938,810 L 939,809 L 939,808 L 940,808 L 941,808 L 942,808 L 942,807 L 942,806 L 941,805 L 941,804 L 941,803 L 941,801 L 942,801 L 942,800 L 943,799 L 944,799 L 945,800 L 946,802 L 947,803 L 947,804 L 948,804 L 949,804 L 950,805 L 951,805 L 951,806 L 951,807 L 950,808 L 952,810 L 953,811 L 953,812 L 953,813 L 954,816 L 955,816 L 957,816 L 958,817 L 959,818 L 960,819 L 961,821 L 962,822 L 963,823 L 964,824 L 964,825 L 965,826 L 965,827 L 966,828 L 967,829 L 968,831 L 968,832 L 970,834 L 971,836 L 972,837 L 973,838 L 974,839 L 975,840 L 977,842 L 978,843 L 979,844 L 980,845 L 981,845 L 983,846 L 984,846 L 985,847 L 986,848 L 987,848 L 988,849 L 989,849 L 990,849 L 991,850 L 992,851 L 994,853 L 995,854 L 997,855 L 998,856 L 999,857 L 1002,858 L 1003,858 L 1006,859 L 1007,860 L 1010,860 L 1011,860 L 1013,859 L 1017,859 L 1020,858 L 1022,858 L 1023,858 L 1024,857 L 1025,857 L 1026,857 L 1027,857 L 1028,857 L 1029,857 L 1031,857 L 1033,858 L 1035,858 L 1036,859 L 1037,859 L 1038,860 L 1039,861 L 1040,862 L 1041,862 L 1042,862 L 1043,862 L 1045,863 L 1046,864 L 1047,865 L 1048,866 L 1049,866 L 1050,866 L 1051,866 L 1053,867 L 1054,868 L 1055,868 L 1056,869 L 1057,870 L 1059,871 L 1061,872 L 1061,873 L 1063,874 L 1063,875 L 1063,876 L 1063,877 L 1063,879 L 1063,880 L 1063,881 L 1063,882 L 1063,883 L 1064,884 L 1064,885 L 1065,885 L 1065,886 L 1064,886 L 1064,887 L 1063,887 L 1062,887 L 1061,887 L 1060,887 L 1059,887 L 1058,887 L 1057,887 L 1056,888 L 1055,888 L 1054,888 L 1052,888 L 1051,888 L 1050,888 L 1049,888 L 1046,889 L 1045,889 L 1044,889 L 1043,889 L 1041,889 L 1039,888 L 1038,888 L 1037,887 L 1036,888 L 1036,889 L 1035,889 L 1035,890 L 1036,892 L 1036,893 L 1037,894 L 1037,895 L 1038,895 L 1039,896 L 1040,897 L 1041,898 L 1042,899 L 1043,900 L 1042,900 L 1041,900 L 1040,900 L 1039,900 L 1039,901 L 1038,901 L 1037,901 L 1037,902 L 1036,902 L 1034,903 L 1033,903 L 1032,902 L 1031,902 L 1030,902 L 1029,901 L 1028,901 L 1027,901 L 1026,901 L 1024,901 L 1023,901 L 1022,901 L 1020,901 L 1019,901 L 1018,900 L 1017,901 L 1017,902 L 1017,903 L 1017,904 L 1017,905 L 1017,906 L 1017,907 L 1016,908 L 1015,908 L 1014,908 L 1013,908 L 1011,908 L 1010,908 L 1009,908 L 1007,907 L 1006,907 L 1006,908 L 1006,909 L 1006,910 L 1006,911 L 1006,912 L 1007,912 L 1007,913 L 1008,913 L 1009,913 L 1010,914 L 1011,915 L 1011,916 L 1011,917 L 1010,917 L 1008,917 L 1008,916 L 1007,915 L 1006,915 L 1005,915 L 1004,915 L 1003,915 L 1002,915 L 1002,916 L 1002,917 L 1003,918 L 1003,919 L 1003,920 L 1003,921 L 1003,922 L 1003,923 L 1003,924 L 1003,925 L 1002,925 L 1001,926 L 999,926 L 998,927 L 996,927 L 995,927 L 995,928 L 995,929 L 994,929 L 993,930 L 992,931 L 991,931 L 990,931 L 989,932 L 988,933 L 988,934 L 987,934 L 987,935 L 987,936 L 987,937 L 987,938 L 987,939 L 986,940 L 985,940 L 984,941 L 984,942 L 984,943 L 984,944 L 984,945 L 983,945 L 983,946 L 982,947 L 981,948 L 981,949 L 981,950 L 981,951 L 980,952 L 979,953 L 978,953 L 977,952 L 977,951 L 977,950 L 976,949 L 975,949 L 974,949 L 973,948 L 972,948 L 971,947 L 970,947 L 970,948 L 970,949 L 970,950 L 970,951 L 970,952 L 971,954 L 970,954 L 970,955 L 969,955 L 968,955 L 967,956 L 966,956 L 965,956 L 964,957 L 963,958 L 962,958 L 961,959 L 960,959 L 960,960 L 959,960 L 957,960 L 956,960 L 956,961 L 956,962 L 956,963 L 955,964 L 954,964 L 953,964 L 951,964 L 949,964 L 947,964 L 945,964 L 943,963 L 941,963 L 941,962 L 940,962 L 939,962 L 938,962 L 937,961 L 936,961 L 935,960 L 935,959 L 934,959 L 934,960 L 933,961 L 932,962 L 930,962 L 929,963 L 928,963 L 927,962 L 927,961 L 928,960 L 928,959 L 927,959 L 926,958 L 926,957 L 926,956 L 926,955 L 926,954 L 924,954 L 922,954 L 921,954 L 920,953 L 919,951 L 919,950 L 918,949 L 917,948 L 916,947 L 915,945 L 915,944 L 916,943 L 916,942 L 916,941 L 918,937 L 920,931 L 920,930 L 919,930 L 918,930 L 917,931 L 917,932 L 916,933 L 916,934 L 915,935 L 914,935 L 913,936 L 912,937 L 911,937 L 910,936 L 907,936 L 905,935 L 904,935 L 902,935 L 901,933 L 899,933 L 900,933 L 900,934 L 900,935 L 901,937 L 901,938 L 902,939 L 902,940 L 902,941 L 902,943 L 902,944 L 904,945 L 904,946 L 905,948 L 905,949 L 905,950 L 905,951 L 905,952 L 905,954 L 904,955 L 903,956 L 902,956 L 901,956 L 900,956 L 899,956 L 898,956 L 898,957 L 897,959 L 896,960 L 896,961 L 895,961 L 894,962 L 894,963 L 893,964 L 891,964 L 891,965 L 891,966 L 890,967 L 888,969 L 886,970 L 885,970 L 883,971 L 882,972 L 880,973 L 878,974 L 877,974 L 875,974 L 873,974 L 871,974 L 869,974 L 868,973 L 867,972 L 866,971 L 866,970 L 865,970 L 865,969 L 864,968 L 863,967 L 863,966 L 862,966 L 861,965 L 860,965 L 858,964 L 857,963 L 856,962 L 855,961 L 854,959 L 853,958 L 852,957 L 851,956 L 851,955 L 849,955 L 848,955 L 846,955 L 844,956 L 843,956 L 842,957 L 841,957 L 840,958 L 839,958 L 839,959 L 839,960 L 839,961 L 840,962 L 841,963 L 841,965 L 842,966 L 842,967 L 843,968 L 843,969 L 843,970 L 843,971 L 843,973 L 843,974 L 843,976 L 842,977 L 842,978 L 842,979 L 841,980 L 841,982 L 840,983 L 840,984 L 839,986 L 838,987 L 836,988 L 836,989 L 834,991 L 833,992 L 831,992 L 830,993 L 829,993 L 828,994 L 828,995 L 827,997 L 826,998 L 823,999 L 821,999 L 818,999 L 817,999 L 816,999 L 815,1000 L 813,1001 L 811,1002 L 809,1003 L 807,1003 L 804,1003 L 803,1003 L 800,1003 L 798,1003 L 797,1003 L 795,1004 L 794,1004 L 793,1005 L 790,1005 L 789,1006 L 787,1005 L 786,1005 L 784,1004 L 782,1003 L 781,1003 L 781,1002 L 780,1001 L 779,1001 L 778,1000 L 777,1000 L 777,999 L 776,998 L 775,997 L 775,995 L 774,994 L 773,994 L 772,994 L 771,994 L 770,994 L 768,992 L 767,991 L 766,991 L 765,989 L 765,988 L 765,987 L 764,985 L 763,984 L 763,983 L 762,983 L 761,982 L 760,982 L 758,981 L 757,980 L 756,979 L 756,977 L 756,976 L 754,974 L 754,972 L 753,970 L 753,969 L 752,967 L 752,966 L 753,965 L 754,964 L 754,963 L 755,962 L 756,961 L 756,959 L 754,959 L 754,958 L 753,958 L 752,958 L 751,957 L 750,956 L 750,955 L 750,954 L 750,953 L 750,952 L 750,951 L 749,950 L 749,949 L 749,948 L 750,948 L 749,947 L 749,946 L 749,945 L 749,944 L 748,943 L 747,943 L 746,943 L 746,942 L 745,942 L 743,941 L 742,942 L 741,944 L 741,945 L 740,946 L 740,947 L 739,948 L 738,949 L 736,948 L 735,947 L 734,946 L 732,945 L 731,944 L 731,943 L 731,942 L 731,941 L 731,940 L 730,939 L 729,938 L 729,937 L 728,936 L 728,934 L 727,934 L 726,934 L 726,935 L 725,935 L 724,936 L 723,937 L 721,937 L 720,938 L 719,938 L 718,937 L 718,936 L 717,936 L 717,935 L 718,934 L 718,933 L 715,931 L 715,930 L 714,929 L 713,926 L 711,924 L 710,922 L 707,920 L 705,918 L 703,916 L 702,915 L 701,915 L 699,916 L 698,916 L 697,916 L 695,915 L 694,915 L 692,914 L 690,913 L 689,911 L 688,909 L 687,907 L 686,905 L 685,904 L 683,903 L 682,902 L 681,902 L 681,901 L 680,899 L 680,898 L 680,897 L 681,897 L 682,897 L 683,897 L 683,896 L 684,896 L 684,894 L 685,893 L 686,892 L 687,891 L 687,889 L 686,887 L 685,886 L 685,885 L 686,885 L 687,885 L 689,885 L 690,886 L 691,886 L 693,886 L 694,887 L 695,887 L 696,886 L 697,885 L 698,885 L 699,885 L 699,886 L 700,886 L 701,886 L 703,886 L 703,885 L 704,885 L 705,886 L 706,886 L 707,887 L 708,887 L 709,887 L 710,887 L 711,886 L 712,885 L 713,885 L 713,884 L 714,883 L 715,883 L 716,883 L 717,882 L 719,882 L 720,881 L 720,880 L 720,878 L 720,877 L 721,877 L 722,875 L 723,874 L 724,873 L 725,873 L 726,872 L 727,871 L 727,870 L 728,869 L 729,869 L 730,870 L 731,870 L 731,869 L 730,868 L 730,867 L 731,867 L 731,866 L 731,864 L 731,862 L 731,860 L 732,859 L 732,858 L 732,857 L 732,856 L 733,856 L 734,856 L 735,856 L 737,855 L 739,855 L 739,854 L 739,853 L 739,852 L 739,851 L 740,850 L 741,850 L 742,849 L 743,848 L 744,848 L 745,847 L 745,846 L 746,845 L 746,844 L 747,844 L 746,843 L 745,842 L 744,842 L 744,841 L 744,840 L 743,839 L 742,839 L 741,839 L 740,839 L 740,838 L 739,838 L 738,837 L 737,836 L 737,835 L 737,834 L 736,834 L 735,833 L 735,832 L 735,831 L 735,830 L 734,830 L 734,829 L 735,828 L 736,828 L 737,828 L 738,828 L 739,827 L 739,826 L 739,825 L 739,823 L 740,822 L 742,822 L 742,821 L 743,821 L 744,820 L 745,819 L 746,818 L 747,816 L 748,816 L 748,814 L 749,814 L 749,812 L 749,811 L 751,810 L 752,809 L 753,808 L 753,807 L 753,806 L 754,805 L 754,804 L 754,803 L 753,803 L 753,802 L 753,800 L 753,799 L 752,799 L 751,799 L 751,798 L 752,798 L 752,797 L 752,796 L 752,795 L 752,794 L 751,793 L 750,792 L 750,791 L 749,790 L 750,790 L 751,790 L 752,790 L 753,790 L 754,790 L 755,790 L 756,789 L 756,788 L 756,787 L 756,786 L 757,786 L 757,787 L 757,788 L 758,788 L 759,788 L 760,788 L 760,787 L 761,787 L 761,785 L 760,784 L 759,783 L 760,782 L 761,782 L 762,783 L 763,783 L 765,783 L 766,783 L 767,783 L 768,782 L 767,781 L 767,780 L 767,779 L 768,779 L 768,780 L 769,780 L 769,781 L 769,782 L 769,783 " />
<path d="M 955,776 L 956,776 L 957,776 L 957,777 L 958,777 L 959,777 L 960,777 L 961,776 L 962,776 L 963,776 L 964,776 L 965,776 L 966,777 L 967,777 L 967,778 L 969,779 L 970,778 L 970,777 L 971,777 L 972,777 L 973,777 L 974,777 L 975,777 L 976,777 L 976,778 L 976,779 L 975,779 L 975,780 L 977,781 L 979,783 L 980,784 L 981,784 L 981,785 L 982,786 L 983,787 L 983,788 L 983,789 L 982,789 L 982,791 L 981,791 L 980,791 L 979,791 L 978,792 L 977,792 L 976,792 L 974,792 L 973,792 L 972,792 L 971,792 L 970,792 L 969,792 L 967,792 L 966,793 L 965,793 L 962,793 L 961,793 L 959,794 L 958,795 L 957,795 L 955,795 L 955,794 L 954,794 L 954,793 L 953,793 L 953,792 L 952,792 L 952,791 L 951,790 L 951,789 L 952,789 L 952,788 L 952,787 L 951,786 L 950,785 L 949,784 L 949,783 L 950,782 L 951,782 L 951,781 L 950,780 L 950,779 L 950,777 L 950,776 L 951,776 L 952,775 L 953,775 L 955,776 " />
<path d="M 1307,744 L 1306,744 L 1305,743 L 1305,742 L 1305,741 L 1306,741 L 1307,741 L 1307,742 L 1307,743 L 1307,744 " />
<path d="M 935,713 L 936,713 L 937,714 L 937,715 L 937,716 L 936,716 L 936,715 L 935,715 L 935,714 L 934,714 L 934,713 L 935,713 " />
<path d="M 1470,206 L 1471,207 L 1472,207 L 1473,206 L 1474,207 L 1475,209 L 1475,210 L 1475,212 L 1476,214 L 1475,216 L 1474,217 L 1474,219 L 1475,220 L 1475,222 L 1474,223 L 1472,224 L 1471,224 L 1470,225 L 1470,226 L 1469,226 L 1467,225 L 1466,224 L 1466,223 L 1465,223 L 1462,222 L 1461,221 L 1460,220 L 1459,219 L 1459,217 L 1459,216 L 1460,215 L 1460,214 L 1461,214 L 1461,213 L 1461,212 L 1462,211 L 1463,211 L 1464,210 L 1463,208 L 1462,206 L 1462,204 L 1464,203 L 1465,202 L 1466,203 L 1467,204 L 1468,205 L 1470,206 " />
<path d="M 1469,181 L 1467,181 L 1466,180 L 1465,179 L 1464,177 L 1464,175 L 1464,174 L 1467,173 L 1468,173 L 1469,174 L 1469,176 L 1469,177 L 1469,178 L 1469,179 L 1469,181 " />
<path d="M 1378,173 L 1380,173 L 1382,173 L 1385,172 L 1387,171 L 1389,171 L 1393,172 L 1396,172 L 1398,173 L 1401,173 L 1404,175 L 1405,177 L 1405,179 L 1406,181 L 1407,181 L 1410,180 L 1412,179 L 1415,179 L 1417,177 L 1419,175 L 1421,175 L 1426,176 L 1429,177 L 1432,179 L 1436,182 L 1437,185 L 1438,189 L 1439,192 L 1438,197 L 1438,202 L 1437,206 L 1436,209 L 1435,212 L 1434,214 L 1433,216 L 1434,218 L 1434,221 L 1433,222 L 1432,222 L 1429,223 L 1427,225 L 1427,228 L 1427,231 L 1427,233 L 1427,235 L 1424,236 L 1421,236 L 1417,235 L 1415,234 L 1413,234 L 1411,232 L 1411,229 L 1411,226 L 1412,223 L 1411,220 L 1411,216 L 1412,213 L 1412,212 L 1411,209 L 1407,209 L 1404,209 L 1402,209 L 1399,210 L 1399,214 L 1400,217 L 1400,219 L 1399,222 L 1397,224 L 1395,225 L 1392,225 L 1390,225 L 1388,225 L 1386,227 L 1386,229 L 1387,233 L 1388,235 L 1389,237 L 1391,239 L 1392,240 L 1395,239 L 1395,240 L 1394,242 L 1393,245 L 1395,246 L 1397,248 L 1398,250 L 1398,254 L 1398,257 L 1397,260 L 1397,264 L 1397,267 L 1396,270 L 1395,272 L 1393,274 L 1391,275 L 1387,275 L 1384,277 L 1380,278 L 1376,280 L 1374,282 L 1373,284 L 1373,286 L 1375,289 L 1376,291 L 1377,294 L 1376,296 L 1375,298 L 1372,298 L 1369,298 L 1366,300 L 1364,302 L 1362,303 L 1360,305 L 1358,307 L 1357,310 L 1357,312 L 1359,316 L 1359,319 L 1359,321 L 1360,324 L 1361,326 L 1363,329 L 1363,332 L 1364,334 L 1364,337 L 1364,339 L 1365,342 L 1366,346 L 1367,351 L 1367,353 L 1366,355 L 1365,357 L 1365,360 L 1365,363 L 1362,366 L 1360,368 L 1358,370 L 1355,371 L 1352,373 L 1349,375 L 1348,377 L 1347,379 L 1347,382 L 1347,385 L 1347,387 L 1347,388 L 1348,390 L 1349,392 L 1351,393 L 1352,395 L 1353,399 L 1351,401 L 1350,404 L 1349,406 L 1349,409 L 1347,411 L 1347,412 L 1348,415 L 1350,416 L 1351,418 L 1352,420 L 1350,423 L 1349,426 L 1348,429 L 1347,431 L 1345,433 L 1343,435 L 1340,437 L 1337,440 L 1336,441 L 1334,443 L 1334,446 L 1335,449 L 1336,451 L 1336,453 L 1334,456 L 1333,459 L 1332,462 L 1333,465 L 1335,468 L 1336,470 L 1337,474 L 1335,477 L 1333,480 L 1333,482 L 1333,486 L 1333,488 L 1332,491 L 1332,493 L 1334,495 L 1336,495 L 1338,495 L 1339,496 L 1339,497 L 1338,498 L 1336,498 L 1334,500 L 1332,503 L 1331,505 L 1330,507 L 1329,510 L 1328,513 L 1327,517 L 1326,519 L 1326,523 L 1326,525 L 1326,528 L 1327,530 L 1328,533 L 1329,535 L 1330,538 L 1333,539 L 1335,540 L 1337,540 L 1340,540 L 1344,541 L 1347,541 L 1349,542 L 1353,543 L 1355,544 L 1356,545 L 1356,547 L 1356,550 L 1356,552 L 1356,555 L 1353,556 L 1350,559 L 1348,562 L 1346,564 L 1345,566 L 1343,567 L 1340,569 L 1338,571 L 1338,573 L 1338,576 L 1337,579 L 1337,580 L 1336,583 L 1336,585 L 1337,587 L 1338,589 L 1338,590 L 1338,591 L 1338,593 L 1339,594 L 1339,595 L 1340,597 L 1340,598 L 1340,599 L 1340,600 L 1340,602 L 1340,603 L 1340,604 L 1341,605 L 1341,606 L 1341,607 L 1341,608 L 1341,610 L 1339,611 L 1339,612 L 1339,613 L 1339,614 L 1338,615 L 1338,616 L 1337,616 L 1336,616 L 1335,616 L 1334,616 L 1333,615 L 1333,616 L 1332,617 L 1332,618 L 1331,619 L 1330,621 L 1330,622 L 1329,623 L 1329,624 L 1329,625 L 1328,627 L 1328,629 L 1328,630 L 1328,631 L 1327,632 L 1327,633 L 1326,634 L 1325,636 L 1325,637 L 1324,638 L 1323,639 L 1323,640 L 1323,642 L 1323,644 L 1322,646 L 1322,647 L 1322,648 L 1323,649 L 1324,650 L 1325,651 L 1326,652 L 1327,653 L 1328,654 L 1328,657 L 1328,659 L 1328,660 L 1327,662 L 1327,664 L 1327,665 L 1326,667 L 1326,668 L 1325,669 L 1324,669 L 1324,670 L 1325,671 L 1325,672 L 1326,672 L 1325,673 L 1325,675 L 1324,676 L 1324,677 L 1323,677 L 1323,676 L 1322,676 L 1321,676 L 1321,677 L 1321,678 L 1321,679 L 1321,680 L 1321,681 L 1320,683 L 1321,683 L 1321,684 L 1322,685 L 1323,687 L 1322,689 L 1322,691 L 1321,692 L 1320,693 L 1320,694 L 1318,695 L 1318,696 L 1317,698 L 1316,699 L 1315,700 L 1314,701 L 1315,702 L 1315,703 L 1316,704 L 1317,705 L 1318,706 L 1318,707 L 1319,708 L 1320,708 L 1321,708 L 1322,708 L 1323,708 L 1324,708 L 1326,709 L 1328,709 L 1328,710 L 1328,711 L 1328,712 L 1328,713 L 1327,714 L 1327,715 L 1327,716 L 1325,718 L 1325,719 L 1324,720 L 1323,720 L 1322,721 L 1322,722 L 1321,723 L 1320,723 L 1319,724 L 1318,724 L 1318,725 L 1317,725 L 1317,726 L 1316,726 L 1315,726 L 1315,727 L 1314,727 L 1314,728 L 1313,728 L 1312,729 L 1311,729 L 1310,730 L 1309,730 L 1308,730 L 1307,731 L 1306,731 L 1304,730 L 1303,731 L 1302,731 L 1301,731 L 1300,732 L 1300,734 L 1300,735 L 1301,735 L 1301,736 L 1302,736 L 1303,736 L 1303,737 L 1303,738 L 1303,739 L 1302,740 L 1301,740 L 1301,741 L 1300,742 L 1300,743 L 1299,743 L 1298,744 L 1297,745 L 1296,746 L 1295,747 L 1294,748 L 1293,749 L 1292,749 L 1292,750 L 1291,750 L 1290,750 L 1290,751 L 1290,752 L 1290,753 L 1289,753 L 1288,754 L 1287,754 L 1286,754 L 1285,754 L 1284,754 L 1283,754 L 1282,754 L 1280,754 L 1279,755 L 1279,756 L 1279,757 L 1279,758 L 1279,759 L 1279,760 L 1278,761 L 1278,762 L 1277,763 L 1275,763 L 1274,762 L 1272,761 L 1271,761 L 1270,762 L 1269,762 L 1269,763 L 1267,764 L 1267,765 L 1266,766 L 1266,767 L 1265,768 L 1264,769 L 1263,771 L 1263,772 L 1262,772 L 1261,773 L 1261,774 L 1260,775 L 1260,776 L 1259,777 L 1259,778 L 1259,780 L 1258,780 L 1257,781 L 1257,782 L 1256,782 L 1255,783 L 1254,784 L 1254,785 L 1253,785 L 1252,786 L 1251,787 L 1251,789 L 1250,790 L 1250,791 L 1249,791 L 1249,792 L 1248,793 L 1247,793 L 1247,794 L 1246,795 L 1245,796 L 1245,797 L 1244,798 L 1244,799 L 1243,800 L 1242,801 L 1242,803 L 1241,804 L 1241,805 L 1240,806 L 1240,808 L 1239,809 L 1239,810 L 1239,811 L 1239,812 L 1239,813 L 1238,813 L 1237,813 L 1236,813 L 1236,814 L 1236,815 L 1235,815 L 1235,816 L 1235,817 L 1234,817 L 1234,818 L 1234,819 L 1234,820 L 1234,821 L 1234,822 L 1234,823 L 1234,824 L 1234,825 L 1235,826 L 1235,827 L 1236,827 L 1237,827 L 1237,828 L 1237,829 L 1236,829 L 1235,830 L 1234,831 L 1233,832 L 1232,833 L 1232,834 L 1233,835 L 1232,836 L 1232,837 L 1232,838 L 1233,839 L 1233,840 L 1233,841 L 1233,842 L 1233,843 L 1233,844 L 1234,845 L 1235,845 L 1236,846 L 1236,847 L 1237,847 L 1238,848 L 1239,848 L 1239,849 L 1240,850 L 1241,851 L 1243,851 L 1244,851 L 1245,852 L 1244,853 L 1244,854 L 1244,855 L 1243,855 L 1243,856 L 1243,857 L 1244,858 L 1244,859 L 1245,860 L 1246,860 L 1247,860 L 1248,861 L 1249,861 L 1250,862 L 1250,863 L 1251,864 L 1252,864 L 1252,865 L 1251,866 L 1251,867 L 1251,868 L 1252,869 L 1253,869 L 1254,870 L 1255,870 L 1256,870 L 1257,871 L 1258,871 L 1259,871 L 1260,871 L 1261,871 L 1262,872 L 1263,872 L 1264,872 L 1265,873 L 1265,874 L 1265,875 L 1266,876 L 1267,876 L 1267,877 L 1267,878 L 1267,879 L 1267,880 L 1267,881 L 1269,881 L 1270,882 L 1271,882 L 1272,883 L 1273,883 L 1274,884 L 1276,885 L 1277,885 L 1278,886 L 1280,887 L 1280,888 L 1280,889 L 1279,889 L 1277,890 L 1275,890 L 1274,891 L 1273,891 L 1272,892 L 1271,893 L 1271,894 L 1270,895 L 1271,896 L 1271,897 L 1272,898 L 1273,898 L 1274,898 L 1275,898 L 1276,897 L 1277,897 L 1279,897 L 1280,897 L 1281,898 L 1283,898 L 1284,898 L 1285,898 L 1286,899 L 1287,899 L 1288,900 L 1289,900 L 1290,901 L 1290,902 L 1291,904 L 1291,905 L 1291,906 L 1290,907 L 1289,908 L 1289,909 L 1288,909 L 1287,910 L 1286,910 L 1285,910 L 1284,910 L 1282,910 L 1281,910 L 1280,911 L 1279,912 L 1278,913 L 1277,914 L 1276,915 L 1275,916 L 1274,916 L 1273,916 L 1272,916 L 1271,916 L 1270,917 L 1269,917 L 1269,918 L 1269,919 L 1268,919 L 1268,920 L 1268,922 L 1269,923 L 1270,924 L 1271,924 L 1272,925 L 1274,925 L 1275,925 L 1276,925 L 1277,926 L 1279,926 L 1280,927 L 1281,928 L 1281,929 L 1281,930 L 1280,931 L 1279,932 L 1278,933 L 1276,933 L 1275,934 L 1274,935 L 1273,936 L 1274,937 L 1274,938 L 1274,939 L 1275,940 L 1276,940 L 1277,941 L 1279,941 L 1279,942 L 1280,943 L 1280,944 L 1280,945 L 1280,946 L 1280,947 L 1281,948 L 1282,949 L 1283,949 L 1284,949 L 1285,949 L 1286,949 L 1287,948 L 1287,946 L 1288,945 L 1289,944 L 1290,943 L 1291,942 L 1292,940 L 1293,940 L 1294,938 L 1295,938 L 1296,937 L 1296,936 L 1297,936 L 1298,936 L 1299,935 L 1300,935 L 1302,936 L 1303,936 L 1304,937 L 1305,937 L 1306,938 L 1306,939 L 1307,939 L 1307,940 L 1307,942 L 1307,943 L 1307,944 L 1307,945 L 1308,946 L 1308,947 L 1309,948 L 1309,949 L 1310,950 L 1310,951 L 1311,953 L 1312,955 L 1312,956 L 1312,958 L 1312,959 L 1311,961 L 1311,962 L 1311,963 L 1310,966 L 1310,967 L 1309,969 L 1309,971 L 1309,972 L 1308,973 L 1308,974 L 1307,974 L 1306,974 L 1305,974 L 1304,975 L 1303,975 L 1302,975 L 1301,975 L 1300,975 L 1299,975 L 1299,976 L 1300,978 L 1302,979 L 1303,980 L 1304,981 L 1305,981 L 1306,982 L 1307,983 L 1308,983 L 1308,984 L 1308,985 L 1308,986 L 1308,987 L 1307,989 L 1307,990 L 1307,991 L 1308,991 L 1308,992 L 1309,993 L 1309,994 L 1310,996 L 1310,997 L 1310,998 L 1310,999 L 1310,1000 L 1310,1001 L 1311,1001 L 1311,1002 L 1312,1003 L 1313,1003 L 1314,1003 L 1315,1003 L 1317,1003 L 1318,1003 L 1318,1002 L 1319,1001 L 1319,1000 L 1320,999 L 1321,999 L 1322,999 L 1323,999 L 1324,1000 L 1324,1001 L 1323,1002 L 1323,1003 L 1323,1004 L 1323,1005 L 1323,1006 L 1322,1006 L 1322,1007 L 1321,1008 L 1320,1008 L 1319,1008 L 1318,1009 L 1316,1010 L 1315,1011 L 1314,1012 L 1313,1012 L 1313,1013 L 1313,1014 L 1313,1015 L 1313,1016 L 1313,1017 L 1313,1018 L 1313,1019 L 1314,1020 L 1315,1021 L 1316,1021 L 1317,1021 L 1317,1020 L 1317,1019 L 1318,1019 L 1319,1019 L 1320,1020 L 1320,1021 L 1320,1022 L 1321,1023 L 1321,1024 L 1321,1025 L 1322,1025 L 1323,1026 L 1325,1025 L 1326,1025 L 1327,1025 L 1328,1025 L 1328,1024 L 1328,1023 L 1328,1022 L 1328,1020 L 1329,1019 L 1329,1018 L 1330,1017 L 1331,1016 L 1332,1015 L 1332,1014 L 1334,1014 L 1335,1013 L 1336,1013 L 1337,1012 L 1338,1012 L 1339,1012 L 1340,1012 L 1341,1013 L 1342,1013 L 1342,1014 L 1343,1015 L 1343,1017 L 1343,1018 L 1344,1019 L 1344,1020 L 1343,1021 L 1343,1023 L 1343,1024 L 1343,1025 L 1343,1026 L 1343,1027 L 1344,1028 L 1344,1029 L 1344,1030 L 1343,1031 L 1343,1032 L 1342,1033 L 1341,1034 L 1341,1035 L 1341,1036 L 1341,1037 L 1341,1038 L 1342,1039 L 1342,1040 L 1343,1041 L 1343,1042 L 1344,1043 L 1343,1043 L 1342,1042 L 1341,1041 L 1341,1040 L 1340,1040 L 1340,1039 L 1339,1038 L 1338,1038 L 1337,1037 L 1336,1037 L 1334,1036 L 1333,1036 L 1331,1036 L 1330,1036 L 1329,1036 L 1328,1036 L 1327,1036 L 1327,1037 L 1327,1038 L 1327,1039 L 1327,1040 L 1327,1041 L 1327,1042 L 1327,1043 L 1327,1045 L 1327,1046 L 1326,1048 L 1326,1049 L 1325,1050 L 1324,1051 L 1324,1052 L 1323,1053 L 1323,1055 L 1322,1056 L 1322,1058 L 1322,1059 L 1322,1060 L 1321,1062 L 1320,1063 L 1320,1066 L 1319,1067 L 1319,1068 L 1319,1070 L 1319,1072 L 1319,1073 L 1319,1074 L 1318,1076 L 1318,1077 L 1318,1079 L 1318,1080 L 1318,1081 L 1317,1082 L 1317,1083 L 1317,1084 L 1316,1085 L 1315,1085 L 1314,1085 L 1313,1085 L 1312,1085 L 1311,1084 L 1310,1083 L 1310,1082 L 1310,1081 L 1310,1080 L 1311,1079 L 1311,1078 L 1312,1077 L 1313,1076 L 1315,1075 L 1316,1073 L 1316,1072 L 1316,1071 L 1317,1070 L 1317,1069 L 1316,1069 L 1316,1068 L 1315,1068 L 1314,1068 L 1313,1068 L 1312,1068 L 1311,1068 L 1310,1067 L 1310,1066 L 1310,1065 L 1311,1064 L 1311,1063 L 1311,1062 L 1311,1061 L 1311,1060 L 1310,1060 L 1309,1060 L 1309,1061 L 1308,1061 L 1308,1060 L 1307,1060 L 1307,1059 L 1307,1058 L 1307,1057 L 1307,1056 L 1308,1056 L 1308,1055 L 1308,1054 L 1309,1053 L 1308,1053 L 1308,1052 L 1307,1051 L 1306,1052 L 1305,1053 L 1304,1054 L 1303,1055 L 1302,1055 L 1301,1056 L 1300,1056 L 1298,1056 L 1298,1055 L 1297,1054 L 1298,1053 L 1298,1050 L 1298,1049 L 1299,1047 L 1300,1046 L 1301,1044 L 1301,1043 L 1302,1042 L 1303,1041 L 1303,1040 L 1303,1039 L 1303,1038 L 1302,1038 L 1301,1038 L 1301,1039 L 1300,1040 L 1299,1041 L 1298,1042 L 1297,1043 L 1296,1044 L 1295,1045 L 1294,1045 L 1293,1045 L 1292,1044 L 1292,1043 L 1292,1042 L 1293,1041 L 1293,1039 L 1292,1039 L 1291,1038 L 1292,1036 L 1292,1035 L 1292,1034 L 1293,1032 L 1293,1031 L 1293,1030 L 1293,1029 L 1293,1028 L 1293,1026 L 1292,1026 L 1291,1025 L 1290,1025 L 1289,1025 L 1288,1026 L 1287,1027 L 1287,1028 L 1286,1029 L 1285,1030 L 1285,1031 L 1284,1031 L 1284,1032 L 1283,1033 L 1283,1034 L 1282,1035 L 1281,1036 L 1280,1037 L 1279,1037 L 1278,1038 L 1277,1038 L 1277,1039 L 1276,1038 L 1275,1038 L 1275,1037 L 1274,1035 L 1273,1034 L 1273,1033 L 1274,1032 L 1274,1031 L 1273,1031 L 1273,1030 L 1272,1030 L 1273,1029 L 1272,1028 L 1272,1027 L 1271,1027 L 1270,1026 L 1270,1024 L 1269,1024 L 1269,1023 L 1269,1022 L 1269,1021 L 1270,1021 L 1270,1019 L 1269,1019 L 1268,1018 L 1268,1017 L 1268,1015 L 1267,1015 L 1266,1015 L 1265,1014 L 1264,1014 L 1263,1013 L 1262,1013 L 1261,1012 L 1261,1011 L 1260,1010 L 1259,1009 L 1259,1008 L 1258,1007 L 1258,1005 L 1259,1005 L 1260,1005 L 1262,1004 L 1263,1003 L 1263,1001 L 1262,1000 L 1261,1000 L 1260,1000 L 1260,999 L 1259,999 L 1259,998 L 1259,997 L 1258,997 L 1258,995 L 1259,995 L 1259,993 L 1257,993 L 1256,993 L 1255,992 L 1254,992 L 1253,992 L 1253,993 L 1253,994 L 1252,994 L 1252,995 L 1251,995 L 1250,995 L 1249,995 L 1248,995 L 1247,995 L 1246,994 L 1246,993 L 1247,993 L 1247,992 L 1248,991 L 1248,990 L 1249,990 L 1249,989 L 1248,988 L 1249,987 L 1250,987 L 1250,986 L 1251,985 L 1251,984 L 1252,984 L 1252,983 L 1252,982 L 1251,982 L 1250,981 L 1249,981 L 1248,981 L 1247,980 L 1246,980 L 1245,980 L 1244,981 L 1243,982 L 1242,983 L 1241,983 L 1239,983 L 1238,983 L 1236,983 L 1235,983 L 1233,982 L 1232,981 L 1231,980 L 1230,980 L 1230,979 L 1229,977 L 1228,976 L 1227,975 L 1226,974 L 1225,973 L 1224,972 L 1224,971 L 1224,969 L 1225,968 L 1226,968 L 1226,967 L 1225,966 L 1225,965 L 1224,963 L 1223,963 L 1223,962 L 1222,962 L 1220,961 L 1219,960 L 1218,960 L 1217,960 L 1216,959 L 1215,958 L 1214,957 L 1213,955 L 1212,954 L 1211,952 L 1211,950 L 1211,949 L 1211,948 L 1211,946 L 1211,945 L 1211,944 L 1210,943 L 1209,942 L 1208,941 L 1207,941 L 1207,940 L 1206,939 L 1206,938 L 1205,937 L 1204,937 L 1203,935 L 1202,935 L 1201,934 L 1199,934 L 1198,934 L 1197,934 L 1195,933 L 1194,934 L 1193,934 L 1192,935 L 1192,936 L 1191,936 L 1190,937 L 1190,938 L 1189,938 L 1188,938 L 1188,937 L 1188,936 L 1188,935 L 1188,934 L 1188,933 L 1187,933 L 1186,933 L 1185,933 L 1184,933 L 1183,933 L 1182,934 L 1181,935 L 1181,936 L 1180,937 L 1179,938 L 1178,939 L 1177,940 L 1175,940 L 1174,940 L 1173,940 L 1172,941 L 1171,941 L 1170,941 L 1169,940 L 1168,940 L 1167,940 L 1166,940 L 1165,940 L 1164,939 L 1163,938 L 1163,937 L 1163,936 L 1163,935 L 1163,933 L 1164,932 L 1165,932 L 1165,933 L 1166,933 L 1167,932 L 1167,931 L 1168,931 L 1169,931 L 1170,931 L 1170,930 L 1171,930 L 1172,930 L 1173,930 L 1173,928 L 1172,928 L 1171,927 L 1170,927 L 1169,926 L 1168,926 L 1168,925 L 1167,924 L 1166,923 L 1165,922 L 1165,921 L 1164,920 L 1163,918 L 1162,917 L 1161,916 L 1160,915 L 1160,914 L 1159,913 L 1159,912 L 1158,911 L 1158,910 L 1158,909 L 1158,908 L 1158,907 L 1157,907 L 1157,906 L 1158,905 L 1158,904 L 1157,903 L 1157,902 L 1157,901 L 1157,900 L 1156,899 L 1155,898 L 1154,898 L 1154,897 L 1154,896 L 1154,895 L 1153,894 L 1153,893 L 1154,893 L 1155,893 L 1155,894 L 1156,894 L 1157,894 L 1157,893 L 1157,892 L 1156,890 L 1156,889 L 1155,888 L 1155,887 L 1153,886 L 1153,885 L 1152,884 L 1152,883 L 1152,882 L 1152,881 L 1151,880 L 1151,879 L 1151,878 L 1150,878 L 1149,877 L 1149,876 L 1148,875 L 1147,874 L 1146,873 L 1145,873 L 1144,872 L 1143,871 L 1141,870 L 1140,870 L 1139,871 L 1138,871 L 1137,871 L 1137,870 L 1137,869 L 1137,868 L 1136,867 L 1135,867 L 1134,866 L 1133,866 L 1132,866 L 1131,865 L 1129,865 L 1129,864 L 1128,864 L 1127,864 L 1126,864 L 1125,864 L 1124,864 L 1124,863 L 1123,863 L 1122,863 L 1122,862 L 1121,862 L 1120,862 L 1119,862 L 1119,861 L 1119,859 L 1119,858 L 1120,857 L 1120,856 L 1120,855 L 1121,855 L 1120,854 L 1120,853 L 1120,852 L 1120,851 L 1120,850 L 1121,849 L 1121,848 L 1122,848 L 1122,847 L 1123,846 L 1123,845 L 1123,844 L 1122,844 L 1121,842 L 1120,842 L 1120,841 L 1119,840 L 1119,839 L 1119,838 L 1120,838 L 1121,837 L 1121,836 L 1121,835 L 1122,835 L 1123,834 L 1123,833 L 1123,832 L 1124,832 L 1124,831 L 1124,830 L 1124,829 L 1123,828 L 1123,827 L 1123,826 L 1123,825 L 1122,824 L 1122,823 L 1122,822 L 1122,821 L 1122,820 L 1122,819 L 1122,818 L 1121,818 L 1120,818 L 1119,818 L 1118,818 L 1117,818 L 1116,818 L 1115,818 L 1114,818 L 1113,816 L 1113,815 L 1112,814 L 1111,813 L 1110,813 L 1109,813 L 1108,813 L 1107,813 L 1107,812 L 1106,811 L 1105,811 L 1105,810 L 1104,809 L 1103,809 L 1102,809 L 1101,808 L 1100,807 L 1099,806 L 1098,806 L 1097,805 L 1096,805 L 1095,805 L 1094,805 L 1092,804 L 1091,804 L 1090,804 L 1088,804 L 1086,804 L 1085,804 L 1084,804 L 1082,804 L 1081,804 L 1080,804 L 1079,804 L 1078,805 L 1077,805 L 1076,805 L 1074,806 L 1073,806 L 1072,806 L 1071,806 L 1070,806 L 1069,806 L 1068,806 L 1067,806 L 1066,805 L 1065,805 L 1064,804 L 1063,804 L 1062,804 L 1061,804 L 1060,804 L 1059,804 L 1057,804 L 1055,804 L 1054,804 L 1053,804 L 1052,804 L 1051,804 L 1049,804 L 1049,803 L 1048,803 L 1047,802 L 1046,802 L 1044,801 L 1043,802 L 1041,802 L 1040,802 L 1039,802 L 1038,802 L 1036,801 L 1035,801 L 1035,800 L 1034,800 L 1033,800 L 1032,799 L 1031,799 L 1030,799 L 1029,798 L 1028,798 L 1027,798 L 1027,797 L 1026,797 L 1025,796 L 1024,795 L 1023,795 L 1022,795 L 1021,795 L 1020,795 L 1019,795 L 1018,795 L 1017,795 L 1016,794 L 1016,793 L 1015,793 L 1014,792 L 1012,791 L 1011,791 L 1010,791 L 1009,791 L 1008,792 L 1007,792 L 1006,792 L 1006,793 L 1005,793 L 1005,794 L 1004,795 L 1003,795 L 1003,794 L 1003,793 L 1003,791 L 1003,790 L 1003,789 L 1002,788 L 1001,787 L 1001,786 L 1001,785 L 1002,784 L 1002,783 L 1002,782 L 1003,781 L 1003,780 L 1002,779 L 1002,778 L 1002,777 L 1002,775 L 1002,774 L 1002,773 L 1002,772 L 1001,771 L 1000,771 L 999,771 L 998,770 L 997,770 L 996,769 L 996,768 L 995,767 L 995,766 L 994,766 L 993,765 L 992,764 L 991,764 L 990,764 L 989,764 L 988,764 L 987,765 L 986,765 L 986,764 L 987,763 L 987,762 L 987,761 L 988,760 L 987,759 L 986,759 L 985,757 L 984,757 L 984,756 L 984,754 L 983,753 L 982,752 L 981,751 L 980,750 L 979,749 L 978,749 L 977,749 L 976,750 L 975,750 L 974,750 L 973,750 L 973,751 L 973,752 L 973,753 L 972,753 L 971,753 L 971,752 L 970,752 L 969,751 L 968,750 L 967,750 L 967,748 L 966,747 L 966,746 L 966,744 L 965,744 L 965,743 L 964,742 L 964,741 L 963,741 L 962,740 L 962,739 L 961,738 L 960,737 L 959,736 L 957,736 L 957,735 L 956,735 L 956,734 L 955,734 L 954,733 L 954,732 L 953,731 L 952,729 L 952,728 L 952,727 L 952,726 L 952,725 L 951,724 L 951,723 L 951,722 L 950,721 L 949,720 L 948,719 L 948,718 L 947,717 L 946,717 L 945,716 L 944,716 L 943,716 L 943,715 L 942,715 L 941,713 L 941,712 L 942,712 L 942,711 L 941,710 L 941,709 L 943,709 L 945,709 L 946,709 L 947,709 L 948,709 L 949,709 L 950,709 L 951,709 L 952,710 L 953,710 L 954,711 L 955,711 L 956,711 L 957,711 L 958,711 L 959,712 L 960,713 L 961,713 L 962,713 L 963,713 L 964,713 L 965,713 L 966,714 L 967,714 L 968,713 L 968,712 L 969,712 L 970,711 L 971,710 L 971,709 L 971,708 L 972,707 L 972,706 L 972,705 L 973,705 L 974,704 L 975,703 L 974,702 L 975,701 L 976,700 L 976,699 L 976,698 L 977,698 L 978,698 L 979,698 L 980,698 L 981,698 L 982,698 L 983,698 L 984,698 L 984,697 L 985,697 L 986,697 L 987,697 L 988,697 L 989,697 L 989,696 L 989,695 L 990,695 L 991,695 L 992,696 L 993,697 L 994,697 L 995,698 L 996,699 L 996,700 L 997,700 L 997,701 L 998,701 L 999,702 L 999,703 L 1000,703 L 1001,704 L 1002,705 L 1003,705 L 1004,705 L 1005,704 L 1006,704 L 1007,702 L 1007,701 L 1007,700 L 1007,698 L 1007,697 L 1007,696 L 1007,695 L 1007,694 L 1006,693 L 1005,693 L 1005,692 L 1004,691 L 1004,690 L 1004,689 L 1003,689 L 1002,689 L 1001,689 L 1001,688 L 1001,687 L 1001,686 L 1002,686 L 1003,684 L 1003,683 L 1003,682 L 1002,681 L 1002,680 L 1001,679 L 1000,679 L 999,679 L 998,679 L 998,678 L 997,677 L 997,676 L 996,676 L 996,675 L 995,675 L 994,675 L 994,674 L 993,673 L 993,672 L 992,672 L 992,671 L 992,670 L 991,669 L 991,668 L 991,667 L 992,666 L 992,665 L 992,664 L 992,663 L 992,662 L 991,661 L 991,660 L 990,659 L 990,658 L 990,657 L 990,656 L 991,655 L 992,654 L 991,652 L 991,651 L 990,650 L 990,649 L 989,647 L 988,645 L 988,644 L 987,642 L 986,641 L 985,640 L 985,639 L 985,638 L 986,638 L 989,638 L 990,637 L 991,637 L 992,636 L 992,635 L 990,635 L 989,635 L 988,634 L 987,634 L 986,634 L 985,633 L 985,632 L 984,632 L 984,631 L 984,630 L 984,628 L 984,627 L 984,626 L 984,624 L 984,623 L 985,622 L 985,621 L 985,620 L 984,620 L 984,619 L 984,618 L 986,618 L 987,618 L 987,617 L 989,617 L 990,617 L 992,617 L 992,616 L 993,616 L 993,615 L 992,614 L 991,614 L 990,613 L 989,613 L 988,613 L 988,612 L 986,612 L 986,611 L 984,610 L 983,608 L 983,607 L 983,606 L 983,605 L 983,604 L 984,603 L 984,602 L 984,601 L 984,599 L 984,598 L 983,598 L 983,597 L 983,596 L 983,595 L 984,594 L 984,593 L 985,593 L 984,592 L 984,591 L 982,589 L 981,588 L 980,588 L 979,588 L 980,587 L 981,586 L 981,584 L 980,582 L 980,581 L 979,578 L 978,576 L 979,574 L 978,572 L 979,571 L 980,569 L 982,568 L 985,567 L 987,565 L 989,565 L 991,565 L 993,564 L 995,561 L 997,560 L 1000,559 L 1002,558 L 1006,557 L 1008,556 L 1009,555 L 1009,553 L 1009,551 L 1009,549 L 1007,547 L 1006,546 L 1003,546 L 1001,546 L 998,547 L 996,548 L 995,549 L 993,550 L 990,551 L 986,552 L 984,553 L 983,555 L 981,556 L 980,556 L 978,556 L 976,554 L 974,552 L 972,549 L 971,547 L 971,544 L 970,542 L 969,541 L 969,539 L 968,537 L 968,535 L 969,533 L 971,532 L 974,531 L 976,530 L 978,530 L 981,530 L 981,529 L 984,528 L 987,528 L 989,527 L 991,525 L 991,523 L 989,521 L 988,521 L 986,521 L 985,519 L 983,517 L 981,517 L 979,518 L 976,519 L 974,519 L 971,519 L 970,520 L 969,519 L 968,519 L 968,517 L 969,515 L 969,514 L 970,512 L 971,511 L 971,509 L 972,507 L 972,506 L 972,504 L 970,504 L 970,503 L 969,501 L 969,500 L 967,499 L 967,498 L 968,497 L 970,497 L 971,496 L 972,494 L 974,494 L 976,494 L 977,493 L 976,491 L 976,488 L 976,485 L 977,483 L 978,483 L 979,484 L 981,484 L 982,483 L 982,481 L 982,478 L 983,478 L 985,476 L 987,477 L 988,479 L 991,479 L 994,479 L 996,480 L 997,481 L 1000,481 L 1003,481 L 1006,480 L 1008,480 L 1009,479 L 1011,477 L 1011,476 L 1011,475 L 1011,473 L 1012,471 L 1012,470 L 1012,469 L 1013,467 L 1015,465 L 1015,464 L 1014,462 L 1015,461 L 1016,462 L 1017,464 L 1018,465 L 1021,464 L 1023,464 L 1026,463 L 1028,462 L 1029,460 L 1028,458 L 1027,455 L 1027,452 L 1027,451 L 1027,449 L 1027,448 L 1026,447 L 1025,446 L 1025,445 L 1026,444 L 1027,443 L 1027,442 L 1027,441 L 1026,440 L 1026,438 L 1027,437 L 1028,436 L 1031,435 L 1031,434 L 1032,432 L 1032,431 L 1032,430 L 1034,430 L 1035,430 L 1037,431 L 1039,431 L 1040,431 L 1041,431 L 1043,430 L 1045,430 L 1046,429 L 1048,429 L 1050,428 L 1050,427 L 1050,426 L 1049,425 L 1049,424 L 1050,423 L 1053,423 L 1055,424 L 1058,424 L 1059,423 L 1061,423 L 1063,423 L 1066,423 L 1067,422 L 1067,421 L 1067,419 L 1069,417 L 1069,416 L 1068,414 L 1069,412 L 1069,410 L 1069,409 L 1070,409 L 1071,408 L 1072,408 L 1074,407 L 1074,406 L 1075,406 L 1077,406 L 1079,406 L 1081,406 L 1083,406 L 1086,406 L 1087,406 L 1089,405 L 1089,402 L 1091,402 L 1093,401 L 1094,401 L 1096,401 L 1097,402 L 1098,403 L 1101,405 L 1101,406 L 1100,407 L 1102,407 L 1103,407 L 1105,406 L 1107,407 L 1107,409 L 1108,410 L 1109,411 L 1111,411 L 1113,410 L 1115,408 L 1117,408 L 1118,406 L 1119,404 L 1120,403 L 1122,402 L 1124,403 L 1127,405 L 1128,408 L 1129,409 L 1131,410 L 1135,410 L 1138,409 L 1140,407 L 1142,405 L 1142,402 L 1142,399 L 1140,396 L 1139,393 L 1138,390 L 1138,387 L 1139,384 L 1140,384 L 1141,382 L 1142,380 L 1143,378 L 1143,376 L 1142,374 L 1141,372 L 1142,370 L 1142,368 L 1143,366 L 1145,365 L 1146,362 L 1147,360 L 1151,360 L 1153,361 L 1155,362 L 1157,362 L 1159,363 L 1161,364 L 1162,363 L 1162,360 L 1161,358 L 1162,356 L 1164,354 L 1166,351 L 1168,350 L 1170,349 L 1172,347 L 1172,346 L 1170,344 L 1168,343 L 1167,342 L 1167,339 L 1167,337 L 1169,336 L 1171,334 L 1173,332 L 1175,330 L 1176,328 L 1178,326 L 1178,323 L 1178,320 L 1178,316 L 1178,315 L 1180,312 L 1181,310 L 1181,307 L 1181,305 L 1180,300 L 1179,298 L 1180,295 L 1183,294 L 1184,292 L 1184,289 L 1184,287 L 1185,284 L 1186,283 L 1186,279 L 1186,275 L 1185,271 L 1185,269 L 1186,267 L 1188,267 L 1190,267 L 1193,269 L 1195,270 L 1198,271 L 1201,270 L 1201,268 L 1203,265 L 1203,264 L 1205,263 L 1207,263 L 1209,262 L 1211,262 L 1213,263 L 1215,264 L 1217,263 L 1220,262 L 1220,263 L 1220,265 L 1220,266 L 1222,266 L 1225,265 L 1227,265 L 1230,266 L 1233,266 L 1236,264 L 1238,262 L 1238,261 L 1239,257 L 1239,255 L 1240,251 L 1243,249 L 1245,247 L 1247,245 L 1247,242 L 1247,240 L 1248,238 L 1248,237 L 1248,234 L 1249,233 L 1251,234 L 1252,235 L 1255,235 L 1258,234 L 1261,231 L 1264,230 L 1266,229 L 1269,229 L 1272,229 L 1275,228 L 1278,228 L 1282,226 L 1284,226 L 1286,226 L 1287,227 L 1289,227 L 1290,226 L 1292,225 L 1293,223 L 1293,222 L 1293,219 L 1296,219 L 1298,220 L 1299,221 L 1300,223 L 1302,224 L 1303,226 L 1303,228 L 1304,230 L 1305,231 L 1306,232 L 1309,232 L 1311,231 L 1313,230 L 1316,228 L 1319,228 L 1320,231 L 1321,233 L 1323,236 L 1325,237 L 1328,236 L 1331,235 L 1333,233 L 1333,232 L 1335,231 L 1336,230 L 1337,229 L 1336,226 L 1336,224 L 1336,223 L 1335,221 L 1335,218 L 1334,216 L 1334,214 L 1333,212 L 1331,211 L 1330,210 L 1330,208 L 1330,206 L 1329,204 L 1328,202 L 1327,201 L 1325,201 L 1323,200 L 1321,199 L 1319,197 L 1318,196 L 1317,196 L 1317,195 L 1317,194 L 1318,192 L 1319,191 L 1320,189 L 1320,187 L 1320,185 L 1320,183 L 1320,182 L 1318,180 L 1318,179 L 1318,177 L 1319,177 L 1321,178 L 1322,180 L 1324,181 L 1326,183 L 1327,184 L 1330,184 L 1332,184 L 1333,183 L 1333,181 L 1332,179 L 1333,177 L 1333,175 L 1333,173 L 1334,172 L 1336,172 L 1338,171 L 1338,170 L 1338,168 L 1339,168 L 1341,167 L 1342,167 L 1343,165 L 1346,165 L 1348,167 L 1350,168 L 1352,169 L 1353,171 L 1354,173 L 1356,174 L 1358,174 L 1361,174 L 1363,172 L 1365,171 L 1368,170 L 1368,169 L 1368,168 L 1367,167 L 1367,165 L 1368,164 L 1369,163 L 1371,163 L 1372,166 L 1372,168 L 1372,169 L 1372,171 L 1373,171 L 1375,173 L 1378,173 " />
<path d="M 1445,145 L 1444,146 L 1443,145 L 1442,144 L 1442,143 L 1441,140 L 1441,137 L 1441,135 L 1442,134 L 1444,133 L 1445,132 L 1446,132 L 1447,134 L 1447,135 L 1448,136 L 1448,137 L 1449,137 L 1449,138 L 1449,140 L 1448,142 L 1447,144 L 1445,145 " />
<path d="M 1367,84 L 1368,84 L 1371,84 L 1372,84 L 1373,83 L 1374,83 L 1375,84 L 1377,85 L 1379,86 L 1380,88 L 1381,90 L 1382,93 L 1383,95 L 1385,94 L 1386,95 L 1385,96 L 1384,97 L 1383,99 L 1382,100 L 1382,103 L 1383,106 L 1385,109 L 1386,112 L 1388,113 L 1390,114 L 1393,114 L 1396,115 L 1398,116 L 1399,117 L 1400,120 L 1402,124 L 1403,128 L 1404,130 L 1406,133 L 1407,135 L 1408,139 L 1408,142 L 1410,145 L 1412,147 L 1414,147 L 1416,148 L 1418,149 L 1419,151 L 1419,153 L 1418,156 L 1417,157 L 1415,158 L 1413,158 L 1411,158 L 1409,157 L 1407,156 L 1405,156 L 1404,157 L 1402,159 L 1400,160 L 1398,160 L 1396,159 L 1395,158 L 1394,156 L 1392,153 L 1390,149 L 1388,146 L 1386,146 L 1382,145 L 1380,143 L 1378,142 L 1376,143 L 1374,144 L 1372,144 L 1370,145 L 1369,146 L 1367,147 L 1366,145 L 1366,143 L 1367,142 L 1367,140 L 1366,136 L 1365,135 L 1363,132 L 1361,130 L 1359,129 L 1358,127 L 1357,125 L 1356,124 L 1355,122 L 1354,121 L 1353,119 L 1352,117 L 1350,116 L 1349,115 L 1347,113 L 1347,111 L 1347,109 L 1346,107 L 1346,104 L 1345,101 L 1344,99 L 1343,97 L 1342,95 L 1343,93 L 1344,93 L 1346,94 L 1347,94 L 1349,94 L 1351,94 L 1352,94 L 1354,94 L 1355,93 L 1356,92 L 1357,90 L 1358,89 L 1359,88 L 1359,87 L 1361,87 L 1361,85 L 1361,83 L 1362,83 L 1362,80 L 1363,79 L 1364,79 L 1364,80 L 1365,80 L 1365,81 L 1367,82 L 1367,84 " />
<path d="M 1430,43 L 1432,43 L 1433,43 L 1434,43 L 1435,45 L 1436,46 L 1436,47 L 1437,49 L 1438,52 L 1438,54 L 1438,57 L 1437,60 L 1437,64 L 1437,68 L 1436,71 L 1435,74 L 1432,74 L 1431,73 L 1427,73 L 1425,74 L 1424,75 L 1423,77 L 1422,79 L 1422,82 L 1421,84 L 1419,85 L 1417,84 L 1416,83 L 1413,82 L 1412,81 L 1411,80 L 1410,81 L 1409,83 L 1407,85 L 1405,87 L 1404,89 L 1402,91 L 1400,92 L 1399,92 L 1396,92 L 1395,92 L 1392,93 L 1390,95 L 1389,95 L 1389,94 L 1389,93 L 1391,92 L 1392,91 L 1393,90 L 1393,88 L 1393,86 L 1391,83 L 1389,83 L 1389,85 L 1389,87 L 1387,88 L 1386,87 L 1385,85 L 1382,85 L 1380,85 L 1379,84 L 1379,82 L 1378,79 L 1378,76 L 1379,73 L 1381,71 L 1381,68 L 1382,66 L 1383,66 L 1384,64 L 1384,62 L 1384,60 L 1384,58 L 1383,56 L 1383,54 L 1384,53 L 1385,52 L 1386,50 L 1388,50 L 1389,50 L 1389,51 L 1389,52 L 1390,54 L 1391,57 L 1391,59 L 1392,60 L 1393,61 L 1393,60 L 1394,58 L 1394,57 L 1396,56 L 1398,56 L 1400,56 L 1402,55 L 1403,54 L 1404,54 L 1405,55 L 1406,56 L 1407,58 L 1408,58 L 1409,60 L 1409,61 L 1409,63 L 1410,65 L 1411,66 L 1412,67 L 1414,66 L 1416,65 L 1417,65 L 1419,66 L 1421,65 L 1421,64 L 1420,62 L 1418,60 L 1418,59 L 1419,57 L 1419,55 L 1419,52 L 1420,52 L 1421,52 L 1421,53 L 1422,54 L 1423,54 L 1424,55 L 1426,55 L 1426,53 L 1426,51 L 1426,49 L 1427,47 L 1427,45 L 1425,43 L 1426,42 L 1428,42 L 1429,42 L 1430,43 " />
<path d="M 1447,28 L 1446,28 L 1445,28 L 1445,27 L 1446,26 L 1448,26 L 1448,27 L 1448,28 L 1447,28 " />
</g>
</g>
</g>
<!-- QGIS extent for clipping, eg in Inkscape -->
<g id="qgisviewbox" inkscape:groupmode="layer" inkscape:label="qgisviewbox" stroke="rgb(255,0,0)" stroke-width="1" fill="none" >
<path d="M 0,1114 L 2011,1114 L 2011,0 L 0,0 L 0,1114 " />
</g></svg>