<?xml version="1.0" standalone="no"?>
<!DOCTYPE svg PUBLIC "-//W3C//DTD SVG 1.1//EN" "http://www.w3.org/Graphics/SVG/1.1/DTD/svg11.dtd">
<svg xmlns="http://www.w3.org/2000/svg" xmlns:inkscape="http://www.inkscape.org/namespaces/inkscape" xmlns:xlink="http://www.w3.org/1999/xlink" viewBox = "0 0 2013 1116" version = "1.1">
<!-- svg generated using QGIS www.qgis.org -->
<g id="union_lektiko_δημοσ_αποκορωνου" inkscape:groupmode="layer" inkscape:label="union_lektiko_δημοσ_αποκορωνου">
<g stroke="none" fill="rgb(133,2,107)" stroke-linejoin="round" stroke-width="0.26">
<g id="union_lektiko_δημοσ_αποκορωνου_1" >
<path d="M 506,660 L 504,656 L 500,654 L 499,653 L 491,651 L 484,648 L 473,640 L 465,632 L 463,631 L 463,630 L 455,627 L 452,626 L 459,618 L 465,611 L 484,587 L 490,577 L 496,563 L 515,532 L 556,490 L 559,481 L 559,479 L 559,473 L 558,470 L 563,455 L 590,411 L 594,402 L 602,382 L 603,377 L 603,375 L 599,350 L 610,329 L 614,316 L 615,298 L 615,284 L 615,281 L 617,280 L 634,285 L 644,288 L 649,278 L 648,278 L 657,259 L 665,247 L 671,238 L 677,230 L 698,213 L 702,210 L 705,206 L 706,202 L 707,198 L 713,173 L 717,165 L 718,164 L 730,147 L 731,146 L 735,136 L 737,127 L 737,121 L 743,122 L 759,131 L 766,134 L 766,135 L 774,137 L 787,140 L 803,141 L 815,141 L 819,138 L 829,132 L 831,129 L 830,124 L 831,124 L 832,122 L 836,121 L 837,120 L 840,116 L 841,116 L 847,114 L 849,114 L 855,108 L 873,83 L 879,71 L 881,69 L 881,70 L 883,72 L 884,75 L 886,77 L 887,78 L 890,82 L 891,83 L 893,85 L 895,86 L 898,88 L 899,90 L 902,93 L 904,95 L 906,97 L 909,99 L 911,101 L 915,104 L 918,105 L 922,107 L 923,109 L 924,109 L 925,110 L 925,111 L 928,112 L 930,115 L 932,117 L 935,120 L 939,122 L 943,125 L 946,127 L 947,128 L 947,129 L 948,129 L 949,130 L 950,131 L 951,132 L 953,134 L 954,134 L 955,134 L 956,135 L 957,135 L 957,136 L 958,136 L 960,136 L 961,136 L 962,136 L 963,136 L 965,135 L 965,134 L 967,133 L 967,132 L 968,131 L 969,130 L 970,130 L 971,130 L 972,130 L 973,130 L 973,131 L 974,132 L 975,133 L 975,134 L 976,135 L 976,137 L 977,137 L 978,138 L 979,139 L 981,139 L 982,140 L 983,140 L 985,141 L 986,141 L 987,141 L 988,142 L 989,142 L 990,143 L 991,144 L 992,145 L 993,145 L 994,146 L 995,147 L 996,147 L 998,147 L 999,148 L 1001,148 L 1001,153 L 1003,156 L 1004,157 L 1011,162 L 1013,165 L 1012,189 L 1015,194 L 1023,209 L 1025,214 L 1021,222 L 1014,234 L 1007,242 L 1001,252 L 994,255 L 985,260 L 982,259 L 973,247 L 959,238 L 951,234 L 951,238 L 951,239 L 951,264 L 951,265 L 952,275 L 943,275 L 931,274 L 912,276 L 901,280 L 895,283 L 891,285 L 887,288 L 885,290 L 871,307 L 868,312 L 864,320 L 859,332 L 855,332 L 838,321 L 818,297 L 815,293 L 811,288 L 808,290 L 809,290 L 806,303 L 800,338 L 796,349 L 791,356 L 782,366 L 773,371 L 769,373 L 749,384 L 737,388 L 735,388 L 729,389 L 710,395 L 705,398 L 701,402 L 693,416 L 690,421 L 687,423 L 672,437 L 659,450 L 649,462 L 640,468 L 636,471 L 634,473 L 630,476 L 626,484 L 625,500 L 628,515 L 628,516 L 628,522 L 628,524 L 624,543 L 615,570 L 613,594 L 613,595 L 612,598 L 611,599 L 604,606 L 591,618 L 571,632 L 552,643 L 532,650 L 515,660 L 510,663 L 506,660 " />
</g>
<g id="union_lektiko_δημοσ_αποκορωνου_2" >
<path d="M 1025,117 L 1025,118 L 1026,118 L 1027,118 L 1027,117 L 1028,117 L 1029,117 L 1029,118 L 1029,119 L 1029,120 L 1029,121 L 1028,122 L 1028,123 L 1028,124 L 1028,125 L 1027,125 L 1026,125 L 1025,125 L 1025,124 L 1024,124 L 1024,123 L 1023,123 L 1023,122 L 1022,121 L 1021,120 L 1021,119 L 1020,119 L 1019,118 L 1019,117 L 1019,116 L 1020,115 L 1021,116 L 1022,116 L 1023,116 L 1023,117 L 1024,117 L 1025,117 " />
<path d="M 1211,44 L 1212,44 L 1214,45 L 1214,46 L 1215,47 L 1216,47 L 1216,48 L 1217,48 L 1218,49 L 1219,50 L 1220,50 L 1220,51 L 1219,52 L 1219,53 L 1218,53 L 1217,54 L 1216,54 L 1216,55 L 1217,55 L 1218,55 L 1219,56 L 1219,57 L 1219,58 L 1219,59 L 1218,60 L 1218,61 L 1219,61 L 1220,62 L 1220,63 L 1221,63 L 1222,63 L 1223,63 L 1225,63 L 1226,63 L 1227,63 L 1228,64 L 1228,65 L 1229,66 L 1229,67 L 1229,68 L 1230,69 L 1231,70 L 1231,71 L 1230,72 L 1230,73 L 1230,74 L 1230,75 L 1230,77 L 1231,77 L 1232,77 L 1232,78 L 1232,79 L 1232,80 L 1232,81 L 1232,82 L 1233,83 L 1234,83 L 1234,84 L 1234,85 L 1233,87 L 1233,88 L 1233,89 L 1234,89 L 1235,89 L 1236,89 L 1237,89 L 1239,89 L 1240,84 L 1240,85 L 1241,86 L 1241,87 L 1242,87 L 1242,88 L 1243,89 L 1244,89 L 1245,89 L 1246,90 L 1247,90 L 1248,90 L 1249,91 L 1250,91 L 1251,92 L 1251,93 L 1251,95 L 1252,96 L 1252,97 L 1252,98 L 1252,100 L 1252,101 L 1252,102 L 1252,103 L 1252,104 L 1251,105 L 1251,106 L 1252,107 L 1253,108 L 1254,109 L 1254,110 L 1254,111 L 1253,112 L 1254,112 L 1254,113 L 1254,114 L 1255,114 L 1255,115 L 1256,115 L 1257,115 L 1257,114 L 1258,114 L 1259,114 L 1260,114 L 1261,113 L 1262,112 L 1262,111 L 1263,111 L 1263,112 L 1264,112 L 1264,113 L 1265,113 L 1266,113 L 1266,114 L 1267,114 L 1267,115 L 1267,116 L 1267,117 L 1268,118 L 1269,118 L 1270,118 L 1271,118 L 1272,118 L 1272,119 L 1273,120 L 1273,122 L 1273,123 L 1273,124 L 1273,126 L 1274,126 L 1274,127 L 1274,128 L 1274,129 L 1274,130 L 1274,131 L 1274,132 L 1274,133 L 1274,134 L 1274,135 L 1275,136 L 1275,138 L 1275,139 L 1275,140 L 1275,141 L 1275,143 L 1275,144 L 1275,145 L 1275,146 L 1275,147 L 1275,148 L 1275,149 L 1275,151 L 1275,152 L 1275,153 L 1275,155 L 1275,156 L 1275,157 L 1275,158 L 1275,160 L 1275,161 L 1275,162 L 1275,163 L 1274,164 L 1274,165 L 1273,166 L 1273,167 L 1273,168 L 1272,170 L 1272,171 L 1272,173 L 1272,174 L 1272,175 L 1273,177 L 1274,179 L 1274,180 L 1275,182 L 1276,183 L 1276,184 L 1276,186 L 1277,187 L 1277,188 L 1278,190 L 1278,191 L 1278,192 L 1278,193 L 1278,194 L 1278,196 L 1278,197 L 1278,198 L 1278,199 L 1277,200 L 1277,201 L 1277,202 L 1276,203 L 1276,204 L 1274,205 L 1273,205 L 1272,206 L 1271,207 L 1270,208 L 1269,208 L 1268,209 L 1267,210 L 1266,211 L 1265,213 L 1264,215 L 1264,216 L 1263,217 L 1263,218 L 1262,219 L 1262,220 L 1261,221 L 1261,222 L 1261,223 L 1261,224 L 1260,225 L 1260,226 L 1259,226 L 1258,227 L 1258,228 L 1258,229 L 1258,230 L 1258,231 L 1258,233 L 1258,234 L 1259,235 L 1260,236 L 1261,238 L 1262,238 L 1263,239 L 1263,240 L 1263,241 L 1263,242 L 1263,243 L 1263,244 L 1264,245 L 1264,246 L 1265,246 L 1265,247 L 1265,248 L 1266,248 L 1267,248 L 1268,248 L 1269,248 L 1269,249 L 1269,250 L 1269,251 L 1269,252 L 1270,252 L 1270,253 L 1271,253 L 1271,254 L 1272,254 L 1272,255 L 1273,255 L 1273,256 L 1274,256 L 1275,256 L 1275,257 L 1276,257 L 1277,256 L 1278,256 L 1279,256 L 1279,257 L 1280,256 L 1281,255 L 1282,255 L 1282,254 L 1284,254 L 1284,253 L 1285,253 L 1286,252 L 1287,252 L 1288,252 L 1289,253 L 1290,253 L 1291,254 L 1291,255 L 1291,256 L 1292,257 L 1293,258 L 1293,260 L 1293,261 L 1293,262 L 1293,264 L 1293,265 L 1292,266 L 1291,267 L 1291,268 L 1290,269 L 1290,270 L 1290,271 L 1290,272 L 1289,273 L 1290,273 L 1289,273 L 1289,274 L 1289,275 L 1289,276 L 1288,277 L 1288,279 L 1288,280 L 1288,282 L 1288,284 L 1288,285 L 1289,286 L 1289,287 L 1289,288 L 1290,290 L 1290,291 L 1290,292 L 1290,293 L 1290,294 L 1291,294 L 1290,295 L 1290,296 L 1289,297 L 1290,298 L 1290,299 L 1290,300 L 1291,300 L 1291,302 L 1291,303 L 1291,304 L 1291,306 L 1292,306 L 1293,307 L 1294,307 L 1294,308 L 1294,309 L 1293,309 L 1293,310 L 1294,310 L 1294,311 L 1293,312 L 1292,313 L 1291,314 L 1292,315 L 1292,316 L 1292,317 L 1292,318 L 1293,319 L 1293,320 L 1293,321 L 1293,323 L 1293,324 L 1293,326 L 1294,327 L 1294,328 L 1293,330 L 1293,331 L 1293,332 L 1293,333 L 1293,334 L 1294,334 L 1294,335 L 1294,336 L 1293,337 L 1293,338 L 1292,339 L 1292,340 L 1293,340 L 1294,340 L 1295,340 L 1295,341 L 1296,341 L 1296,342 L 1296,343 L 1296,344 L 1296,345 L 1296,347 L 1295,348 L 1294,349 L 1293,349 L 1293,350 L 1293,351 L 1293,352 L 1293,353 L 1292,353 L 1291,354 L 1290,354 L 1290,355 L 1289,355 L 1288,356 L 1288,357 L 1288,358 L 1287,358 L 1286,359 L 1287,360 L 1287,361 L 1286,362 L 1285,363 L 1286,364 L 1287,367 L 1288,368 L 1289,370 L 1290,373 L 1291,375 L 1291,377 L 1291,379 L 1292,382 L 1292,385 L 1292,387 L 1292,389 L 1292,392 L 1292,394 L 1292,396 L 1291,398 L 1290,400 L 1289,401 L 1288,402 L 1287,402 L 1286,403 L 1285,404 L 1284,406 L 1284,408 L 1283,410 L 1283,411 L 1282,413 L 1281,415 L 1281,416 L 1280,418 L 1279,420 L 1279,421 L 1279,422 L 1280,424 L 1280,425 L 1281,427 L 1280,428 L 1280,429 L 1278,431 L 1277,432 L 1277,433 L 1276,434 L 1275,435 L 1275,436 L 1275,438 L 1274,439 L 1274,441 L 1274,443 L 1274,445 L 1274,446 L 1273,446 L 1272,447 L 1272,448 L 1273,449 L 1273,450 L 1273,452 L 1274,453 L 1274,454 L 1274,456 L 1273,456 L 1274,457 L 1274,458 L 1274,459 L 1274,460 L 1273,462 L 1273,463 L 1273,464 L 1272,465 L 1272,466 L 1272,469 L 1271,470 L 1270,471 L 1270,472 L 1270,474 L 1271,474 L 1270,474 L 1268,473 L 1247,472 L 1242,472 L 1237,473 L 1231,473 L 1217,474 L 1205,473 L 1196,473 L 1196,469 L 1196,465 L 1196,458 L 1194,454 L 1191,448 L 1190,446 L 1188,444 L 1187,439 L 1187,436 L 1185,433 L 1175,429 L 1158,428 L 1149,429 L 1153,437 L 1157,450 L 1159,459 L 1155,469 L 1152,474 L 1149,491 L 1145,501 L 1150,510 L 1153,520 L 1158,526 L 1154,529 L 1153,529 L 1149,534 L 1138,537 L 1133,540 L 1132,539 L 1130,533 L 1127,526 L 1126,523 L 1123,522 L 1119,522 L 1118,523 L 1115,525 L 1116,525 L 1113,527 L 1111,528 L 1106,526 L 1099,518 L 1090,510 L 1083,503 L 1076,490 L 1075,489 L 1074,485 L 1073,483 L 1073,478 L 1074,475 L 1076,472 L 1081,468 L 1088,459 L 1098,440 L 1100,435 L 1095,425 L 1093,421 L 1091,419 L 1089,411 L 1082,413 L 1049,416 L 1023,419 L 1014,420 L 1006,419 L 1004,419 L 992,417 L 983,413 L 975,409 L 976,413 L 976,418 L 975,421 L 969,422 L 965,417 L 960,413 L 950,407 L 943,406 L 939,406 L 933,408 L 928,408 L 922,404 L 920,405 L 916,409 L 913,409 L 903,400 L 900,400 L 896,401 L 892,402 L 890,403 L 888,402 L 888,397 L 888,380 L 880,363 L 879,354 L 878,353 L 879,351 L 883,333 L 883,326 L 881,323 L 881,322 L 880,321 L 874,315 L 868,312 L 871,307 L 885,290 L 887,288 L 891,285 L 895,283 L 901,280 L 912,276 L 931,274 L 943,275 L 952,275 L 951,265 L 951,264 L 951,239 L 951,238 L 951,234 L 959,238 L 973,247 L 982,259 L 985,260 L 994,255 L 1001,252 L 1007,242 L 1014,234 L 1021,222 L 1025,214 L 1023,209 L 1015,194 L 1012,189 L 1013,165 L 1011,162 L 1004,157 L 1003,156 L 1001,153 L 1001,148 L 1002,148 L 1003,148 L 1004,148 L 1005,147 L 1005,146 L 1006,146 L 1007,145 L 1007,144 L 1008,143 L 1009,142 L 1010,141 L 1010,140 L 1011,139 L 1018,139 L 1019,139 L 1020,138 L 1021,138 L 1022,138 L 1023,138 L 1024,137 L 1028,136 L 1029,135 L 1030,135 L 1031,135 L 1032,136 L 1032,137 L 1032,138 L 1033,141 L 1034,142 L 1034,143 L 1035,143 L 1037,144 L 1039,144 L 1040,144 L 1039,142 L 1040,142 L 1041,142 L 1042,143 L 1042,144 L 1043,145 L 1044,145 L 1045,146 L 1048,146 L 1053,147 L 1054,148 L 1055,147 L 1057,147 L 1057,146 L 1058,146 L 1059,145 L 1059,144 L 1060,143 L 1060,141 L 1060,140 L 1060,139 L 1061,138 L 1061,137 L 1061,136 L 1062,135 L 1062,134 L 1062,133 L 1063,132 L 1064,131 L 1065,130 L 1066,129 L 1066,128 L 1066,126 L 1066,125 L 1066,123 L 1067,121 L 1068,119 L 1069,118 L 1071,117 L 1072,117 L 1073,116 L 1072,116 L 1072,115 L 1071,115 L 1072,114 L 1072,113 L 1072,112 L 1072,111 L 1072,109 L 1072,108 L 1073,107 L 1074,105 L 1076,103 L 1076,101 L 1077,99 L 1077,98 L 1077,97 L 1076,97 L 1077,96 L 1077,94 L 1078,93 L 1078,92 L 1078,91 L 1077,90 L 1077,89 L 1078,89 L 1079,88 L 1081,87 L 1084,86 L 1086,86 L 1087,85 L 1088,85 L 1089,84 L 1090,82 L 1091,81 L 1092,81 L 1093,82 L 1094,82 L 1094,83 L 1095,84 L 1096,85 L 1097,85 L 1098,85 L 1099,85 L 1100,85 L 1100,84 L 1101,83 L 1102,82 L 1103,82 L 1104,83 L 1105,84 L 1105,85 L 1106,84 L 1107,83 L 1108,83 L 1109,83 L 1110,83 L 1111,83 L 1112,83 L 1113,82 L 1114,82 L 1114,81 L 1115,81 L 1116,81 L 1116,82 L 1115,83 L 1114,84 L 1113,86 L 1111,88 L 1111,89 L 1112,90 L 1113,90 L 1116,92 L 1117,93 L 1119,95 L 1120,96 L 1121,98 L 1122,99 L 1123,99 L 1124,99 L 1124,98 L 1125,98 L 1125,97 L 1126,97 L 1127,97 L 1128,97 L 1129,98 L 1129,96 L 1130,95 L 1130,94 L 1131,93 L 1132,93 L 1133,92 L 1134,91 L 1134,90 L 1135,89 L 1135,88 L 1136,87 L 1137,86 L 1138,86 L 1139,85 L 1140,85 L 1141,85 L 1142,85 L 1143,84 L 1144,84 L 1145,83 L 1146,83 L 1147,82 L 1147,81 L 1148,80 L 1149,79 L 1150,79 L 1152,78 L 1152,77 L 1153,76 L 1153,75 L 1154,74 L 1154,73 L 1156,73 L 1156,72 L 1155,72 L 1155,71 L 1156,70 L 1158,69 L 1159,68 L 1160,67 L 1161,67 L 1160,66 L 1159,66 L 1159,65 L 1160,64 L 1163,63 L 1164,63 L 1165,64 L 1166,64 L 1167,65 L 1168,65 L 1169,65 L 1169,64 L 1168,64 L 1167,63 L 1166,63 L 1165,62 L 1164,62 L 1164,61 L 1165,59 L 1166,57 L 1167,54 L 1168,53 L 1169,53 L 1170,52 L 1171,52 L 1171,51 L 1172,50 L 1173,49 L 1174,48 L 1175,47 L 1176,47 L 1177,47 L 1177,48 L 1178,49 L 1178,50 L 1179,49 L 1180,47 L 1182,44 L 1184,41 L 1185,40 L 1185,41 L 1186,42 L 1187,43 L 1187,44 L 1188,44 L 1189,44 L 1190,44 L 1191,44 L 1192,43 L 1193,43 L 1194,42 L 1195,41 L 1196,39 L 1196,38 L 1197,37 L 1198,37 L 1199,36 L 1200,35 L 1201,34 L 1202,34 L 1203,33 L 1204,32 L 1205,31 L 1206,30 L 1207,29 L 1207,28 L 1208,28 L 1208,27 L 1210,26 L 1211,26 L 1212,27 L 1212,28 L 1211,29 L 1211,30 L 1210,30 L 1210,31 L 1209,32 L 1209,33 L 1208,34 L 1208,35 L 1207,36 L 1207,37 L 1207,39 L 1208,41 L 1209,42 L 1210,43 L 1211,44 " />
</g>
<g id="union_lektiko_δημοσ_αποκορωνου_3" >
<path d="M 1270,474 L 1271,475 L 1270,476 L 1270,477 L 1270,478 L 1271,479 L 1271,481 L 1272,483 L 1272,485 L 1273,486 L 1274,486 L 1274,487 L 1274,488 L 1275,489 L 1275,491 L 1276,492 L 1277,493 L 1278,493 L 1279,495 L 1279,496 L 1280,497 L 1281,498 L 1281,499 L 1282,500 L 1282,501 L 1282,502 L 1282,504 L 1283,504 L 1283,505 L 1284,506 L 1284,507 L 1284,508 L 1285,510 L 1286,511 L 1286,512 L 1287,514 L 1288,515 L 1289,516 L 1290,518 L 1290,519 L 1291,520 L 1291,521 L 1292,522 L 1291,523 L 1291,525 L 1290,525 L 1289,526 L 1288,527 L 1287,527 L 1286,527 L 1285,526 L 1284,526 L 1283,527 L 1283,528 L 1283,529 L 1283,530 L 1283,531 L 1283,532 L 1283,533 L 1283,534 L 1283,535 L 1283,536 L 1284,536 L 1285,537 L 1286,537 L 1286,538 L 1285,539 L 1284,540 L 1283,541 L 1282,542 L 1281,543 L 1280,543 L 1279,544 L 1278,545 L 1277,546 L 1276,546 L 1275,547 L 1275,548 L 1276,549 L 1276,548 L 1277,548 L 1278,547 L 1278,546 L 1279,546 L 1280,545 L 1281,544 L 1282,544 L 1283,543 L 1284,543 L 1284,542 L 1285,541 L 1286,540 L 1287,539 L 1288,539 L 1289,539 L 1291,538 L 1291,537 L 1291,536 L 1292,536 L 1293,535 L 1294,535 L 1295,535 L 1296,535 L 1296,536 L 1297,536 L 1297,537 L 1297,538 L 1297,539 L 1296,539 L 1295,540 L 1294,541 L 1293,541 L 1292,540 L 1291,539 L 1289,541 L 1289,542 L 1289,543 L 1288,545 L 1289,546 L 1289,548 L 1290,549 L 1290,550 L 1290,551 L 1291,552 L 1292,553 L 1292,554 L 1294,556 L 1295,557 L 1296,558 L 1297,559 L 1298,559 L 1300,560 L 1301,561 L 1302,561 L 1304,562 L 1305,562 L 1306,562 L 1307,562 L 1308,563 L 1310,563 L 1311,564 L 1314,565 L 1315,566 L 1317,567 L 1319,568 L 1320,568 L 1322,569 L 1323,569 L 1325,569 L 1327,570 L 1331,571 L 1335,573 L 1337,574 L 1340,574 L 1342,575 L 1342,576 L 1344,576 L 1346,577 L 1349,578 L 1351,578 L 1354,579 L 1355,579 L 1358,580 L 1361,581 L 1363,581 L 1366,582 L 1367,582 L 1369,582 L 1370,583 L 1372,583 L 1374,583 L 1376,583 L 1378,584 L 1379,584 L 1380,584 L 1382,584 L 1383,584 L 1384,584 L 1386,584 L 1387,584 L 1388,584 L 1389,584 L 1390,584 L 1391,584 L 1392,584 L 1393,584 L 1394,584 L 1394,585 L 1395,586 L 1397,586 L 1398,587 L 1399,587 L 1400,588 L 1401,588 L 1402,588 L 1404,589 L 1405,589 L 1407,589 L 1408,590 L 1410,590 L 1412,590 L 1413,590 L 1415,591 L 1416,591 L 1418,592 L 1419,592 L 1421,592 L 1422,592 L 1424,592 L 1426,593 L 1427,593 L 1428,593 L 1429,593 L 1431,593 L 1433,593 L 1434,593 L 1435,593 L 1437,593 L 1438,593 L 1440,593 L 1441,594 L 1442,594 L 1443,594 L 1445,594 L 1446,594 L 1447,594 L 1448,594 L 1449,594 L 1450,594 L 1451,594 L 1452,595 L 1453,594 L 1454,594 L 1455,594 L 1456,594 L 1457,594 L 1458,594 L 1459,594 L 1460,594 L 1461,594 L 1462,594 L 1463,594 L 1465,594 L 1466,594 L 1467,595 L 1468,595 L 1469,595 L 1470,595 L 1471,594 L 1473,594 L 1474,594 L 1475,594 L 1476,595 L 1477,595 L 1479,596 L 1479,595 L 1481,596 L 1482,596 L 1484,597 L 1486,597 L 1487,597 L 1488,597 L 1489,597 L 1490,597 L 1491,597 L 1492,597 L 1494,597 L 1496,597 L 1498,596 L 1499,595 L 1500,595 L 1501,595 L 1501,596 L 1501,599 L 1502,604 L 1501,608 L 1501,611 L 1502,613 L 1504,614 L 1505,616 L 1504,616 L 1502,620 L 1502,623 L 1503,625 L 1505,629 L 1505,631 L 1504,639 L 1508,652 L 1508,659 L 1508,663 L 1509,666 L 1510,668 L 1510,672 L 1510,673 L 1510,674 L 1512,681 L 1513,684 L 1513,686 L 1514,689 L 1516,690 L 1517,692 L 1518,694 L 1518,696 L 1518,702 L 1519,714 L 1521,720 L 1523,723 L 1524,725 L 1525,729 L 1525,735 L 1528,739 L 1530,743 L 1537,751 L 1539,757 L 1540,763 L 1542,766 L 1547,769 L 1547,775 L 1551,781 L 1554,793 L 1553,802 L 1552,806 L 1553,824 L 1552,832 L 1553,835 L 1553,839 L 1553,849 L 1552,855 L 1553,862 L 1555,871 L 1558,879 L 1558,884 L 1557,888 L 1556,889 L 1553,894 L 1547,902 L 1544,905 L 1542,904 L 1529,901 L 1523,900 L 1495,890 L 1485,885 L 1453,884 L 1434,881 L 1428,880 L 1425,881 L 1422,883 L 1416,893 L 1415,895 L 1410,898 L 1409,898 L 1403,900 L 1402,900 L 1388,899 L 1379,896 L 1369,894 L 1364,892 L 1361,890 L 1353,884 L 1352,883 L 1343,884 L 1336,885 L 1332,885 L 1328,884 L 1326,884 L 1323,883 L 1318,881 L 1316,880 L 1316,879 L 1306,871 L 1303,870 L 1296,866 L 1295,865 L 1292,865 L 1272,861 L 1257,856 L 1249,853 L 1245,852 L 1246,846 L 1248,832 L 1248,828 L 1248,811 L 1247,801 L 1246,795 L 1247,792 L 1247,790 L 1251,778 L 1252,774 L 1253,767 L 1256,747 L 1258,714 L 1253,698 L 1247,688 L 1247,666 L 1245,652 L 1243,641 L 1243,636 L 1248,608 L 1249,597 L 1247,586 L 1248,581 L 1248,567 L 1244,554 L 1242,551 L 1236,548 L 1233,547 L 1231,544 L 1231,543 L 1229,544 L 1226,545 L 1222,545 L 1207,545 L 1201,539 L 1193,538 L 1190,533 L 1185,530 L 1180,524 L 1176,520 L 1175,520 L 1170,519 L 1163,522 L 1158,526 L 1153,520 L 1150,510 L 1145,501 L 1149,491 L 1152,474 L 1155,469 L 1159,459 L 1157,450 L 1153,437 L 1149,429 L 1158,428 L 1175,429 L 1185,433 L 1187,436 L 1187,439 L 1188,444 L 1190,446 L 1191,448 L 1194,454 L 1196,458 L 1196,465 L 1196,469 L 1196,473 L 1205,473 L 1217,474 L 1231,473 L 1237,473 L 1242,472 L 1247,472 L 1268,473 L 1270,474 " />
</g>
<g id="union_lektiko_δημοσ_αποκορωνου_4" >
<path d="M 1246,795 L 1232,793 L 1206,787 L 1188,789 L 1169,789 L 1149,786 L 1138,783 L 1124,779 L 1112,774 L 1112,767 L 1112,763 L 1110,757 L 1108,753 L 1105,752 L 1099,747 L 1092,747 L 1086,749 L 1077,752 L 1042,760 L 1013,764 L 1005,766 L 985,774 L 969,783 L 963,787 L 957,789 L 952,789 L 942,787 L 925,781 L 907,776 L 899,771 L 893,765 L 886,758 L 881,755 L 875,751 L 869,750 L 850,751 L 830,735 L 815,721 L 810,714 L 808,711 L 801,706 L 797,705 L 790,703 L 794,697 L 799,687 L 801,682 L 807,667 L 813,658 L 835,637 L 842,633 L 850,630 L 860,624 L 871,615 L 872,610 L 872,597 L 876,582 L 876,571 L 879,562 L 883,555 L 894,544 L 921,527 L 927,522 L 928,521 L 930,518 L 926,515 L 923,513 L 917,511 L 899,509 L 879,504 L 854,491 L 845,484 L 847,481 L 853,475 L 858,473 L 866,469 L 872,465 L 884,463 L 888,460 L 900,453 L 915,443 L 927,424 L 929,420 L 931,415 L 933,408 L 939,406 L 943,406 L 950,407 L 960,413 L 965,417 L 969,422 L 975,421 L 976,418 L 976,413 L 975,409 L 983,413 L 992,417 L 1004,419 L 1006,419 L 1014,420 L 1023,419 L 1049,416 L 1082,413 L 1089,411 L 1091,419 L 1093,421 L 1095,425 L 1100,435 L 1098,440 L 1088,459 L 1081,468 L 1076,472 L 1074,475 L 1073,478 L 1073,483 L 1074,485 L 1075,489 L 1076,490 L 1083,503 L 1090,510 L 1099,518 L 1106,526 L 1111,528 L 1113,527 L 1116,525 L 1115,525 L 1118,523 L 1119,522 L 1123,522 L 1126,523 L 1127,526 L 1130,533 L 1132,539 L 1133,540 L 1138,537 L 1149,534 L 1153,529 L 1154,529 L 1158,526 L 1163,522 L 1170,519 L 1175,520 L 1176,520 L 1180,524 L 1185,530 L 1190,533 L 1193,538 L 1201,539 L 1207,545 L 1222,545 L 1226,545 L 1229,544 L 1231,543 L 1231,544 L 1233,547 L 1236,548 L 1242,551 L 1244,554 L 1248,567 L 1248,581 L 1247,586 L 1249,597 L 1248,608 L 1243,636 L 1243,641 L 1245,652 L 1247,666 L 1247,688 L 1253,698 L 1258,714 L 1256,747 L 1253,767 L 1252,774 L 1251,778 L 1247,790 L 1247,792 L 1246,795 " />
</g>
<g id="union_lektiko_δημοσ_αποκορωνου_5" >
<path d="M 790,703 L 778,701 L 763,695 L 752,686 L 749,683 L 744,681 L 743,687 L 740,699 L 734,710 L 730,715 L 721,722 L 711,731 L 710,732 L 701,754 L 699,758 L 698,760 L 685,757 L 678,756 L 676,756 L 655,758 L 652,752 L 646,746 L 636,739 L 630,738 L 625,738 L 612,741 L 594,742 L 591,741 L 586,741 L 573,739 L 562,739 L 548,741 L 548,736 L 546,731 L 545,723 L 540,715 L 518,701 L 513,696 L 512,690 L 509,684 L 508,681 L 506,664 L 506,660 L 510,663 L 515,660 L 532,650 L 552,643 L 571,632 L 591,618 L 604,606 L 611,599 L 612,598 L 613,595 L 613,594 L 615,570 L 624,543 L 628,524 L 628,522 L 628,516 L 628,515 L 625,500 L 626,484 L 630,476 L 634,473 L 636,471 L 640,468 L 649,462 L 659,450 L 672,437 L 687,423 L 690,421 L 693,416 L 701,402 L 705,398 L 710,395 L 729,389 L 735,388 L 737,388 L 749,384 L 769,373 L 773,371 L 782,366 L 791,356 L 796,349 L 800,338 L 806,303 L 809,290 L 808,290 L 811,288 L 815,293 L 818,297 L 838,321 L 855,332 L 859,332 L 864,320 L 868,312 L 874,315 L 880,321 L 881,322 L 881,323 L 883,326 L 883,333 L 879,351 L 878,353 L 879,354 L 880,363 L 888,380 L 888,397 L 888,402 L 890,403 L 892,402 L 896,401 L 900,400 L 903,400 L 913,409 L 916,409 L 920,405 L 922,404 L 928,408 L 933,408 L 931,415 L 929,420 L 927,424 L 915,443 L 900,453 L 888,460 L 884,463 L 872,465 L 866,469 L 858,473 L 853,475 L 847,481 L 845,484 L 854,491 L 879,504 L 899,509 L 917,511 L 923,513 L 926,515 L 930,518 L 928,521 L 927,522 L 921,527 L 894,544 L 883,555 L 879,562 L 876,571 L 876,582 L 872,597 L 872,610 L 871,615 L 860,624 L 850,630 L 842,633 L 835,637 L 813,658 L 807,667 L 801,682 L 799,687 L 794,697 L 790,703 " />
</g>
<g id="union_lektiko_δημοσ_αποκορωνου_6" >
<path d="M 1544,905 L 1543,908 L 1536,917 L 1528,922 L 1524,921 L 1517,922 L 1509,926 L 1504,927 L 1503,926 L 1499,926 L 1497,927 L 1492,929 L 1487,930 L 1485,934 L 1484,938 L 1481,940 L 1479,942 L 1478,944 L 1479,945 L 1479,947 L 1478,950 L 1475,955 L 1473,957 L 1471,959 L 1465,963 L 1457,966 L 1445,965 L 1441,965 L 1435,969 L 1426,974 L 1419,976 L 1413,979 L 1409,980 L 1404,982 L 1398,988 L 1391,995 L 1380,1002 L 1370,1011 L 1357,1021 L 1346,1033 L 1339,1044 L 1335,1050 L 1330,1061 L 1330,1063 L 1325,1083 L 1324,1083 L 1324,1087 L 1316,1079 L 1299,1058 L 1272,1017 L 1265,1001 L 1262,982 L 1258,971 L 1250,958 L 1242,952 L 1239,937 L 1236,932 L 1228,923 L 1213,909 L 1204,903 L 1197,899 L 1201,894 L 1208,885 L 1238,855 L 1245,852 L 1249,853 L 1257,856 L 1272,861 L 1292,865 L 1295,865 L 1296,866 L 1303,870 L 1306,871 L 1316,879 L 1316,880 L 1318,881 L 1323,883 L 1326,884 L 1328,884 L 1332,885 L 1336,885 L 1343,884 L 1352,883 L 1353,884 L 1361,890 L 1364,892 L 1369,894 L 1379,896 L 1388,899 L 1402,900 L 1403,900 L 1409,898 L 1410,898 L 1415,895 L 1416,893 L 1422,883 L 1425,881 L 1428,880 L 1434,881 L 1453,884 L 1485,885 L 1495,890 L 1523,900 L 1529,901 L 1542,904 L 1544,905 " />
</g>
</g>
</g>
<!-- QGIS extent for clipping, eg in Inkscape -->
<g id="qgisviewbox" inkscape:groupmode="layer" inkscape:label="qgisviewbox" stroke="rgb(255,0,0)" stroke-width="1" fill="none" >
<path d="M 0,1114 L 2011,1114 L 2011,0 L 0,0 L 0,1114 " />
</g></svg>