<?xml version="1.0" standalone="no"?>
<!DOCTYPE svg PUBLIC "-//W3C//DTD SVG 1.1//EN" "http://www.w3.org/Graphics/SVG/1.1/DTD/svg11.dtd">
<svg xmlns="http://www.w3.org/2000/svg" xmlns:inkscape="http://www.inkscape.org/namespaces/inkscape" xmlns:xlink="http://www.w3.org/1999/xlink" viewBox = "0 0 2013 1116" version = "1.1">
<!-- svg generated using QGIS www.qgis.org -->
<g id="union_lektiko_δημοσ_αρταιων" inkscape:groupmode="layer" inkscape:label="union_lektiko_δημοσ_αρταιων">
<g stroke="none" fill="rgb(198,124,169)" stroke-linejoin="round" stroke-width="0.26">
<g id="union_lektiko_δημοσ_αρταιων_1" >
<path d="M 853,748 L 853,747 L 854,746 L 855,745 L 856,745 L 856,744 L 857,743 L 858,743 L 860,741 L 860,740 L 861,739 L 862,738 L 864,737 L 865,736 L 866,735 L 867,733 L 869,732 L 869,731 L 871,730 L 871,729 L 872,727 L 873,726 L 874,725 L 875,724 L 876,723 L 878,721 L 879,720 L 881,720 L 881,719 L 882,718 L 883,718 L 884,717 L 885,716 L 886,715 L 887,714 L 889,713 L 890,712 L 890,711 L 892,710 L 892,709 L 893,709 L 894,708 L 896,706 L 897,704 L 899,703 L 899,702 L 900,702 L 901,700 L 902,699 L 904,698 L 904,697 L 905,697 L 905,696 L 905,695 L 906,694 L 906,693 L 906,692 L 906,689 L 906,688 L 906,687 L 906,686 L 906,685 L 907,684 L 907,683 L 908,682 L 908,681 L 908,680 L 909,680 L 909,679 L 911,677 L 913,676 L 914,676 L 914,675 L 915,675 L 916,675 L 918,673 L 920,672 L 921,672 L 922,672 L 923,671 L 924,671 L 925,670 L 926,670 L 927,670 L 927,669 L 928,669 L 928,668 L 928,667 L 927,667 L 927,666 L 928,665 L 928,664 L 927,663 L 927,662 L 927,661 L 928,660 L 929,660 L 929,659 L 930,659 L 931,659 L 931,658 L 932,658 L 932,656 L 934,656 L 935,656 L 936,656 L 937,656 L 937,655 L 938,654 L 938,653 L 939,653 L 939,652 L 939,651 L 940,650 L 940,649 L 941,648 L 941,647 L 942,647 L 943,647 L 944,648 L 945,648 L 946,649 L 947,650 L 948,650 L 949,652 L 949,653 L 949,654 L 949,655 L 950,656 L 950,657 L 952,657 L 952,658 L 953,660 L 953,661 L 954,662 L 955,663 L 955,664 L 956,664 L 956,665 L 957,665 L 958,666 L 959,666 L 960,667 L 961,667 L 962,668 L 963,668 L 964,669 L 965,669 L 965,670 L 967,671 L 968,670 L 968,669 L 969,668 L 969,667 L 969,666 L 970,665 L 970,664 L 970,662 L 971,660 L 971,659 L 972,656 L 972,655 L 973,655 L 973,654 L 973,653 L 973,652 L 973,651 L 974,648 L 974,647 L 974,646 L 974,645 L 974,643 L 975,640 L 975,639 L 975,638 L 975,637 L 975,636 L 975,635 L 974,632 L 974,631 L 974,630 L 973,628 L 972,628 L 972,627 L 971,626 L 970,626 L 968,624 L 967,623 L 967,622 L 966,622 L 966,621 L 967,620 L 968,620 L 969,620 L 970,620 L 971,619 L 972,618 L 972,617 L 973,617 L 974,617 L 975,618 L 976,618 L 977,618 L 977,617 L 978,617 L 979,617 L 980,617 L 980,618 L 981,618 L 981,617 L 981,616 L 981,615 L 980,613 L 980,612 L 981,611 L 982,609 L 982,608 L 983,607 L 985,605 L 988,604 L 989,604 L 992,604 L 993,603 L 994,603 L 995,603 L 996,603 L 996,602 L 997,602 L 999,600 L 1000,599 L 1001,598 L 1002,597 L 1003,596 L 1006,593 L 1007,592 L 1009,591 L 1010,591 L 1011,590 L 1013,589 L 1015,588 L 1016,587 L 1016,588 L 1017,589 L 1018,589 L 1019,589 L 1020,589 L 1020,590 L 1021,590 L 1021,591 L 1022,591 L 1022,592 L 1022,593 L 1022,594 L 1022,595 L 1023,595 L 1029,596 L 1034,596 L 1036,596 L 1037,596 L 1040,597 L 1042,597 L 1043,597 L 1045,597 L 1046,598 L 1048,599 L 1049,599 L 1050,599 L 1052,600 L 1054,600 L 1061,600 L 1062,600 L 1063,600 L 1066,600 L 1067,601 L 1068,601 L 1068,602 L 1069,602 L 1069,603 L 1070,604 L 1070,605 L 1070,606 L 1070,607 L 1070,608 L 1070,609 L 1071,610 L 1070,611 L 1069,612 L 1068,612 L 1068,613 L 1068,614 L 1067,614 L 1067,615 L 1068,619 L 1069,623 L 1070,625 L 1070,627 L 1071,629 L 1072,632 L 1074,636 L 1075,639 L 1077,642 L 1078,645 L 1079,646 L 1079,648 L 1081,650 L 1083,649 L 1085,646 L 1087,649 L 1088,650 L 1090,652 L 1091,653 L 1091,654 L 1092,656 L 1092,657 L 1092,658 L 1093,660 L 1094,660 L 1094,661 L 1095,663 L 1095,665 L 1095,666 L 1096,667 L 1098,669 L 1096,671 L 1093,674 L 1091,676 L 1089,677 L 1087,678 L 1083,681 L 1081,682 L 1077,684 L 1074,685 L 1073,685 L 1071,686 L 1070,685 L 1069,685 L 1068,686 L 1067,686 L 1067,687 L 1067,689 L 1067,690 L 1067,692 L 1066,694 L 1064,699 L 1063,701 L 1063,702 L 1062,707 L 1061,710 L 1063,710 L 1063,711 L 1065,714 L 1067,716 L 1068,718 L 1069,720 L 1071,725 L 1073,731 L 1074,733 L 1074,734 L 1073,735 L 1073,736 L 1074,737 L 1074,738 L 1074,739 L 1075,739 L 1075,740 L 1077,740 L 1078,741 L 1078,742 L 1078,743 L 1077,744 L 1075,744 L 1074,744 L 1073,745 L 1073,746 L 1069,749 L 1068,750 L 1067,752 L 1065,754 L 1063,756 L 1062,757 L 1062,758 L 1059,761 L 1058,762 L 1056,764 L 1055,767 L 1054,767 L 1054,768 L 1053,773 L 1052,776 L 1049,784 L 1049,786 L 1048,789 L 1047,795 L 1047,798 L 1047,800 L 1044,799 L 1040,797 L 1036,796 L 1035,795 L 1032,794 L 1030,793 L 1029,792 L 1027,791 L 1027,790 L 1025,788 L 1024,785 L 1023,783 L 1022,781 L 1020,781 L 1018,781 L 1015,782 L 1012,783 L 1010,784 L 1009,785 L 1008,787 L 1007,788 L 1006,791 L 1006,792 L 1005,793 L 1005,794 L 1004,794 L 1003,795 L 1001,796 L 999,797 L 998,796 L 995,792 L 994,791 L 993,790 L 992,789 L 990,789 L 986,787 L 984,786 L 982,786 L 979,785 L 978,785 L 970,783 L 968,782 L 966,782 L 965,782 L 964,781 L 964,780 L 964,778 L 964,775 L 964,773 L 964,771 L 963,769 L 961,766 L 959,762 L 957,760 L 957,759 L 956,758 L 955,758 L 951,754 L 950,752 L 948,750 L 946,748 L 945,745 L 944,743 L 942,745 L 929,754 L 926,756 L 922,759 L 920,761 L 915,764 L 913,765 L 908,769 L 906,770 L 905,771 L 897,776 L 896,776 L 893,778 L 890,779 L 889,780 L 887,781 L 885,782 L 885,783 L 884,784 L 883,784 L 882,786 L 881,786 L 877,789 L 876,790 L 875,792 L 874,792 L 873,792 L 872,792 L 872,791 L 871,790 L 870,788 L 870,787 L 869,783 L 868,782 L 865,776 L 864,774 L 863,769 L 862,767 L 859,763 L 858,760 L 858,759 L 857,756 L 855,753 L 854,750 L 853,748 " />
</g>
<g id="union_lektiko_δημοσ_αρταιων_2" >
<path d="M 1193,672 L 1193,673 L 1193,676 L 1193,681 L 1192,688 L 1192,691 L 1192,693 L 1193,694 L 1193,695 L 1193,697 L 1193,698 L 1194,699 L 1195,700 L 1195,701 L 1196,702 L 1201,707 L 1205,711 L 1207,712 L 1210,714 L 1211,715 L 1213,716 L 1216,719 L 1218,720 L 1219,721 L 1221,724 L 1222,725 L 1226,729 L 1236,738 L 1238,740 L 1240,742 L 1244,746 L 1246,748 L 1248,750 L 1250,752 L 1253,755 L 1254,756 L 1255,757 L 1255,758 L 1254,758 L 1252,760 L 1251,760 L 1250,761 L 1248,763 L 1247,763 L 1247,764 L 1246,764 L 1246,765 L 1246,766 L 1247,767 L 1248,767 L 1248,768 L 1249,770 L 1249,771 L 1250,773 L 1251,775 L 1252,777 L 1252,778 L 1254,780 L 1255,780 L 1256,780 L 1257,781 L 1258,781 L 1261,782 L 1262,782 L 1264,783 L 1266,783 L 1267,783 L 1269,783 L 1272,784 L 1275,784 L 1277,784 L 1281,785 L 1282,784 L 1284,787 L 1284,788 L 1286,791 L 1287,794 L 1288,796 L 1289,798 L 1290,800 L 1291,804 L 1293,809 L 1294,812 L 1294,814 L 1294,815 L 1294,816 L 1294,817 L 1294,821 L 1294,822 L 1293,823 L 1292,824 L 1291,826 L 1288,830 L 1287,832 L 1286,834 L 1285,836 L 1282,838 L 1281,840 L 1280,839 L 1279,838 L 1277,836 L 1276,835 L 1275,834 L 1274,834 L 1273,834 L 1272,835 L 1270,835 L 1267,837 L 1262,839 L 1261,839 L 1259,840 L 1256,840 L 1253,841 L 1251,841 L 1249,842 L 1248,842 L 1246,842 L 1245,842 L 1244,842 L 1243,843 L 1240,846 L 1237,849 L 1234,851 L 1234,849 L 1232,847 L 1231,845 L 1230,843 L 1230,842 L 1230,841 L 1230,839 L 1230,836 L 1230,835 L 1230,834 L 1230,833 L 1229,831 L 1228,829 L 1227,825 L 1226,823 L 1225,821 L 1224,820 L 1224,819 L 1223,817 L 1223,816 L 1223,814 L 1223,812 L 1223,810 L 1223,807 L 1222,806 L 1222,804 L 1221,803 L 1220,801 L 1219,800 L 1216,796 L 1213,794 L 1213,793 L 1212,793 L 1210,793 L 1208,793 L 1207,793 L 1207,792 L 1206,792 L 1205,791 L 1204,790 L 1203,788 L 1202,787 L 1201,788 L 1201,790 L 1200,793 L 1200,797 L 1199,802 L 1199,804 L 1199,809 L 1198,813 L 1197,815 L 1197,817 L 1195,818 L 1192,818 L 1190,819 L 1189,819 L 1187,819 L 1184,820 L 1181,819 L 1180,818 L 1178,818 L 1176,818 L 1175,819 L 1173,818 L 1172,818 L 1170,818 L 1169,817 L 1168,816 L 1167,815 L 1167,813 L 1163,814 L 1155,814 L 1151,815 L 1147,816 L 1144,816 L 1139,817 L 1133,819 L 1129,819 L 1126,820 L 1125,820 L 1123,821 L 1122,820 L 1122,818 L 1121,815 L 1121,813 L 1121,811 L 1121,809 L 1121,806 L 1122,804 L 1122,802 L 1123,798 L 1120,799 L 1115,799 L 1113,800 L 1109,800 L 1100,800 L 1098,800 L 1093,800 L 1092,800 L 1089,800 L 1087,800 L 1083,800 L 1080,801 L 1077,801 L 1074,801 L 1072,801 L 1071,801 L 1068,802 L 1061,802 L 1059,802 L 1058,802 L 1054,802 L 1052,801 L 1051,801 L 1049,800 L 1047,800 L 1047,798 L 1047,795 L 1048,789 L 1049,786 L 1049,784 L 1052,776 L 1053,773 L 1054,768 L 1054,767 L 1055,767 L 1056,764 L 1058,762 L 1059,761 L 1062,758 L 1062,757 L 1063,756 L 1065,754 L 1067,752 L 1068,750 L 1069,749 L 1073,746 L 1073,745 L 1074,744 L 1075,744 L 1077,744 L 1078,743 L 1078,742 L 1078,741 L 1077,740 L 1075,740 L 1075,739 L 1074,739 L 1074,738 L 1074,737 L 1073,736 L 1073,735 L 1074,734 L 1074,733 L 1073,731 L 1071,725 L 1069,720 L 1068,718 L 1067,716 L 1065,714 L 1063,711 L 1063,710 L 1061,710 L 1062,707 L 1063,702 L 1063,701 L 1064,699 L 1066,694 L 1067,692 L 1067,690 L 1067,689 L 1067,687 L 1067,686 L 1068,686 L 1069,685 L 1070,685 L 1071,686 L 1073,685 L 1074,685 L 1077,684 L 1081,682 L 1083,681 L 1087,678 L 1089,677 L 1091,676 L 1093,674 L 1096,671 L 1098,669 L 1099,668 L 1102,663 L 1104,660 L 1106,657 L 1107,656 L 1109,654 L 1110,654 L 1110,653 L 1111,653 L 1112,653 L 1113,653 L 1114,653 L 1118,654 L 1121,655 L 1124,658 L 1127,660 L 1130,662 L 1133,663 L 1133,664 L 1135,665 L 1136,665 L 1137,665 L 1137,664 L 1138,664 L 1139,663 L 1139,662 L 1139,660 L 1139,657 L 1140,656 L 1140,654 L 1141,654 L 1141,653 L 1142,652 L 1145,650 L 1148,649 L 1149,648 L 1150,647 L 1152,646 L 1153,646 L 1154,646 L 1155,646 L 1155,647 L 1156,648 L 1157,648 L 1157,649 L 1158,650 L 1159,650 L 1161,652 L 1162,652 L 1164,654 L 1165,655 L 1166,656 L 1167,657 L 1168,657 L 1169,657 L 1170,657 L 1172,657 L 1175,657 L 1176,657 L 1177,657 L 1178,658 L 1179,658 L 1181,661 L 1183,663 L 1186,666 L 1187,667 L 1188,668 L 1189,669 L 1190,670 L 1191,670 L 1192,671 L 1193,672 " />
</g>
<g id="union_lektiko_δημοσ_αρταιων_3" >
<path d="M 1224,383 L 1224,385 L 1224,388 L 1224,390 L 1224,393 L 1224,395 L 1224,397 L 1223,398 L 1222,400 L 1215,408 L 1214,409 L 1213,411 L 1213,412 L 1212,414 L 1212,415 L 1212,417 L 1212,418 L 1213,419 L 1214,421 L 1214,422 L 1215,423 L 1218,426 L 1219,427 L 1219,428 L 1220,429 L 1221,430 L 1222,431 L 1222,432 L 1221,433 L 1220,435 L 1218,439 L 1214,447 L 1212,452 L 1213,455 L 1213,456 L 1214,459 L 1215,461 L 1216,462 L 1217,465 L 1218,466 L 1219,467 L 1221,468 L 1222,470 L 1225,472 L 1226,474 L 1229,476 L 1231,478 L 1232,479 L 1232,480 L 1233,480 L 1233,481 L 1234,481 L 1234,482 L 1235,483 L 1236,485 L 1237,486 L 1237,487 L 1237,488 L 1237,489 L 1236,490 L 1235,491 L 1234,491 L 1234,492 L 1233,492 L 1231,492 L 1228,493 L 1226,493 L 1224,494 L 1223,494 L 1222,495 L 1221,497 L 1220,499 L 1219,501 L 1219,503 L 1219,506 L 1219,508 L 1219,513 L 1219,514 L 1219,515 L 1220,517 L 1220,518 L 1221,520 L 1223,522 L 1224,522 L 1225,524 L 1228,525 L 1229,527 L 1230,527 L 1231,528 L 1235,531 L 1236,532 L 1236,533 L 1237,534 L 1237,535 L 1238,536 L 1238,537 L 1237,537 L 1237,538 L 1236,539 L 1233,542 L 1233,543 L 1232,544 L 1231,546 L 1231,548 L 1231,549 L 1232,551 L 1231,552 L 1232,553 L 1232,554 L 1235,557 L 1236,560 L 1237,562 L 1238,563 L 1238,564 L 1239,565 L 1239,567 L 1239,569 L 1239,570 L 1239,571 L 1238,575 L 1237,577 L 1237,579 L 1237,581 L 1238,583 L 1238,584 L 1239,586 L 1240,588 L 1242,594 L 1242,596 L 1243,598 L 1244,604 L 1245,607 L 1245,610 L 1245,611 L 1247,617 L 1247,618 L 1247,619 L 1247,620 L 1247,621 L 1247,622 L 1247,623 L 1245,625 L 1244,626 L 1243,627 L 1238,630 L 1237,631 L 1236,631 L 1232,632 L 1231,632 L 1230,632 L 1228,632 L 1224,631 L 1221,631 L 1219,632 L 1218,633 L 1217,633 L 1216,634 L 1215,635 L 1213,638 L 1212,641 L 1210,644 L 1209,646 L 1208,648 L 1208,649 L 1208,650 L 1207,652 L 1207,654 L 1206,656 L 1206,659 L 1206,660 L 1204,665 L 1204,666 L 1203,667 L 1203,668 L 1202,668 L 1201,669 L 1200,670 L 1198,671 L 1197,671 L 1196,672 L 1195,672 L 1193,672 L 1192,671 L 1191,670 L 1190,670 L 1189,669 L 1188,668 L 1187,667 L 1186,666 L 1183,663 L 1181,661 L 1179,658 L 1178,658 L 1177,657 L 1176,657 L 1175,657 L 1172,657 L 1170,657 L 1169,657 L 1168,657 L 1167,657 L 1166,656 L 1165,655 L 1164,654 L 1162,652 L 1161,652 L 1159,650 L 1158,650 L 1157,649 L 1157,648 L 1156,648 L 1155,647 L 1155,646 L 1154,646 L 1153,646 L 1152,646 L 1150,647 L 1149,648 L 1148,649 L 1145,650 L 1142,652 L 1141,653 L 1141,654 L 1140,654 L 1140,656 L 1139,657 L 1139,660 L 1139,662 L 1139,663 L 1138,664 L 1137,664 L 1137,665 L 1136,665 L 1135,665 L 1133,664 L 1133,663 L 1130,662 L 1127,660 L 1124,658 L 1121,655 L 1118,654 L 1114,653 L 1113,653 L 1112,653 L 1111,653 L 1110,653 L 1110,654 L 1109,654 L 1107,656 L 1106,657 L 1104,660 L 1102,663 L 1099,668 L 1098,669 L 1096,667 L 1095,666 L 1095,665 L 1095,663 L 1094,661 L 1094,660 L 1093,660 L 1092,658 L 1092,657 L 1092,656 L 1091,654 L 1091,653 L 1090,652 L 1088,650 L 1087,649 L 1085,646 L 1083,649 L 1081,650 L 1079,648 L 1079,646 L 1078,645 L 1077,642 L 1075,639 L 1074,636 L 1072,632 L 1071,629 L 1070,627 L 1070,625 L 1069,623 L 1068,619 L 1067,615 L 1067,614 L 1068,614 L 1068,613 L 1068,612 L 1069,612 L 1070,611 L 1071,610 L 1070,609 L 1070,608 L 1070,607 L 1070,606 L 1070,605 L 1070,604 L 1069,603 L 1069,602 L 1068,602 L 1068,601 L 1067,601 L 1066,600 L 1063,600 L 1062,600 L 1061,600 L 1054,600 L 1052,600 L 1050,599 L 1049,599 L 1048,599 L 1046,598 L 1045,597 L 1043,597 L 1042,597 L 1040,597 L 1037,596 L 1036,596 L 1034,596 L 1029,596 L 1023,595 L 1022,595 L 1022,594 L 1022,593 L 1022,592 L 1022,591 L 1021,591 L 1021,590 L 1020,590 L 1020,589 L 1019,589 L 1018,589 L 1017,589 L 1016,588 L 1016,587 L 1015,585 L 1015,584 L 1015,583 L 1014,582 L 1013,582 L 1011,581 L 1010,581 L 1009,581 L 1005,581 L 1003,581 L 1001,581 L 1000,581 L 1000,580 L 999,580 L 999,579 L 999,578 L 999,577 L 1001,575 L 1004,573 L 1006,571 L 1010,568 L 1013,566 L 1014,565 L 1016,563 L 1016,562 L 1017,560 L 1017,559 L 1017,558 L 1018,556 L 1020,556 L 1021,556 L 1026,557 L 1031,558 L 1031,559 L 1032,558 L 1033,558 L 1034,558 L 1035,557 L 1036,557 L 1036,556 L 1037,556 L 1038,556 L 1039,557 L 1040,557 L 1041,557 L 1042,557 L 1043,555 L 1045,555 L 1046,555 L 1048,554 L 1049,554 L 1050,554 L 1052,554 L 1053,553 L 1054,553 L 1055,552 L 1055,551 L 1054,549 L 1054,544 L 1053,543 L 1052,542 L 1051,542 L 1047,540 L 1044,540 L 1042,539 L 1039,538 L 1038,537 L 1038,536 L 1039,532 L 1039,530 L 1039,528 L 1039,525 L 1040,522 L 1040,519 L 1041,519 L 1041,518 L 1042,517 L 1043,517 L 1044,516 L 1048,516 L 1052,515 L 1054,515 L 1056,514 L 1058,514 L 1060,514 L 1064,513 L 1066,513 L 1069,512 L 1071,511 L 1075,510 L 1077,509 L 1078,509 L 1079,508 L 1079,506 L 1080,504 L 1080,502 L 1080,500 L 1080,499 L 1080,496 L 1081,491 L 1081,490 L 1080,487 L 1080,486 L 1079,484 L 1077,481 L 1076,480 L 1076,479 L 1076,478 L 1076,476 L 1076,475 L 1077,474 L 1077,472 L 1080,468 L 1081,467 L 1083,462 L 1084,459 L 1084,457 L 1085,457 L 1085,455 L 1085,452 L 1084,450 L 1084,448 L 1085,447 L 1086,444 L 1087,442 L 1089,440 L 1090,438 L 1091,438 L 1092,437 L 1095,435 L 1099,433 L 1100,432 L 1102,431 L 1104,429 L 1105,428 L 1106,427 L 1107,426 L 1108,424 L 1110,422 L 1112,418 L 1114,414 L 1115,412 L 1116,409 L 1118,406 L 1120,403 L 1121,401 L 1122,400 L 1123,398 L 1124,397 L 1125,397 L 1127,396 L 1128,395 L 1129,395 L 1132,394 L 1134,394 L 1137,393 L 1140,393 L 1145,392 L 1146,392 L 1147,391 L 1148,391 L 1149,390 L 1152,388 L 1153,387 L 1153,386 L 1155,383 L 1156,382 L 1157,382 L 1158,382 L 1161,382 L 1164,382 L 1166,382 L 1171,381 L 1175,381 L 1176,380 L 1178,380 L 1180,379 L 1181,379 L 1183,379 L 1184,379 L 1186,379 L 1187,379 L 1191,379 L 1193,380 L 1194,380 L 1199,382 L 1200,382 L 1201,383 L 1204,383 L 1206,383 L 1209,383 L 1212,384 L 1213,384 L 1214,384 L 1217,384 L 1217,383 L 1218,383 L 1222,383 L 1224,383 " />
</g>
<g id="union_lektiko_δημοσ_αρταιων_4" >
<path d="M 1021,1071 L 1021,1072 L 1021,1073 L 1021,1074 L 1021,1075 L 1021,1077 L 1022,1077 L 1022,1079 L 1022,1080 L 1022,1081 L 1021,1082 L 1020,1083 L 1020,1084 L 1019,1084 L 1018,1085 L 1017,1086 L 1017,1087 L 1016,1087 L 1015,1087 L 1014,1087 L 1013,1086 L 1012,1086 L 1011,1086 L 1010,1086 L 1009,1086 L 1008,1086 L 1008,1085 L 1007,1085 L 1007,1084 L 1006,1084 L 1005,1084 L 1004,1083 L 1003,1083 L 1002,1083 L 1001,1083 L 1001,1082 L 1001,1081 L 1001,1080 L 1002,1079 L 1002,1078 L 1003,1077 L 1004,1076 L 1004,1074 L 1004,1073 L 1004,1072 L 1004,1071 L 1004,1070 L 1005,1069 L 1005,1068 L 1006,1068 L 1007,1068 L 1007,1069 L 1007,1070 L 1006,1070 L 1006,1071 L 1006,1072 L 1006,1073 L 1006,1074 L 1005,1074 L 1005,1075 L 1005,1076 L 1005,1077 L 1006,1077 L 1006,1078 L 1007,1079 L 1008,1079 L 1009,1078 L 1010,1077 L 1011,1077 L 1011,1078 L 1011,1079 L 1011,1080 L 1011,1081 L 1012,1082 L 1012,1083 L 1012,1084 L 1013,1085 L 1014,1086 L 1015,1086 L 1016,1086 L 1017,1085 L 1017,1084 L 1018,1083 L 1019,1083 L 1019,1082 L 1019,1081 L 1020,1081 L 1020,1080 L 1020,1079 L 1020,1078 L 1019,1077 L 1018,1077 L 1017,1076 L 1016,1076 L 1016,1075 L 1016,1074 L 1016,1073 L 1016,1072 L 1016,1071 L 1016,1070 L 1017,1069 L 1018,1069 L 1018,1071 L 1019,1071 L 1019,1072 L 1020,1072 L 1020,1071 L 1020,1070 L 1020,1069 L 1020,1068 L 1021,1067 L 1021,1066 L 1022,1066 L 1022,1065 L 1023,1065 L 1023,1066 L 1022,1067 L 1022,1068 L 1022,1069 L 1021,1069 L 1021,1070 L 1021,1071 " />
<path d="M 1028,1060 L 1027,1061 L 1026,1061 L 1025,1062 L 1025,1063 L 1024,1064 L 1023,1064 L 1023,1063 L 1024,1063 L 1024,1062 L 1024,1061 L 1024,1060 L 1025,1060 L 1026,1060 L 1027,1059 L 1027,1058 L 1028,1058 L 1028,1057 L 1029,1056 L 1029,1055 L 1029,1054 L 1029,1055 L 1030,1055 L 1031,1056 L 1030,1057 L 1030,1058 L 1029,1059 L 1028,1059 L 1028,1060 " />
<path d="M 1030,1054 L 1029,1054 L 1030,1053 L 1031,1053 L 1031,1052 L 1031,1051 L 1032,1051 L 1032,1050 L 1033,1049 L 1033,1048 L 1034,1047 L 1035,1046 L 1036,1045 L 1036,1044 L 1036,1043 L 1037,1042 L 1037,1043 L 1038,1044 L 1039,1045 L 1038,1046 L 1037,1046 L 1037,1047 L 1036,1047 L 1036,1048 L 1035,1048 L 1035,1049 L 1034,1050 L 1034,1051 L 1033,1051 L 1033,1052 L 1032,1052 L 1032,1053 L 1031,1054 L 1030,1054 " />
<path d="M 1001,1048 L 1001,1049 L 1000,1049 L 999,1049 L 999,1050 L 1000,1050 L 1001,1051 L 1002,1051 L 1002,1050 L 1003,1050 L 1004,1050 L 1005,1050 L 1006,1050 L 1007,1050 L 1008,1051 L 1008,1052 L 1008,1053 L 1009,1054 L 1010,1055 L 1011,1056 L 1012,1057 L 1013,1058 L 1013,1059 L 1014,1059 L 1015,1060 L 1016,1061 L 1017,1061 L 1017,1062 L 1018,1062 L 1018,1063 L 1019,1064 L 1018,1065 L 1017,1065 L 1017,1064 L 1016,1064 L 1016,1063 L 1015,1063 L 1014,1063 L 1014,1064 L 1013,1065 L 1013,1066 L 1012,1067 L 1012,1068 L 1011,1069 L 1011,1070 L 1012,1071 L 1012,1072 L 1013,1072 L 1013,1073 L 1012,1074 L 1011,1073 L 1010,1072 L 1009,1071 L 1009,1070 L 1009,1069 L 1008,1069 L 1008,1068 L 1007,1068 L 1007,1067 L 1006,1066 L 1005,1066 L 1005,1065 L 1005,1064 L 1005,1063 L 1004,1063 L 1004,1064 L 1003,1065 L 1003,1064 L 1002,1063 L 1002,1062 L 1002,1061 L 1001,1060 L 1000,1059 L 999,1058 L 999,1057 L 999,1056 L 999,1054 L 998,1053 L 998,1052 L 997,1051 L 997,1050 L 996,1050 L 995,1048 L 994,1046 L 993,1044 L 991,1042 L 991,1040 L 990,1039 L 989,1038 L 989,1037 L 989,1036 L 989,1035 L 990,1035 L 990,1034 L 991,1034 L 991,1035 L 992,1035 L 992,1036 L 993,1036 L 993,1037 L 993,1038 L 993,1039 L 993,1040 L 993,1041 L 994,1041 L 995,1042 L 996,1043 L 996,1044 L 997,1044 L 997,1045 L 998,1045 L 999,1046 L 1000,1047 L 1001,1047 L 1001,1048 " />
<path d="M 1040,1044 L 1039,1044 L 1040,1043 L 1040,1042 L 1040,1041 L 1041,1041 L 1041,1040 L 1042,1040 L 1043,1039 L 1043,1038 L 1044,1038 L 1045,1037 L 1045,1036 L 1046,1036 L 1047,1035 L 1048,1034 L 1048,1033 L 1049,1033 L 1050,1032 L 1050,1031 L 1051,1031 L 1051,1030 L 1051,1029 L 1051,1028 L 1052,1028 L 1053,1028 L 1053,1029 L 1054,1030 L 1053,1030 L 1053,1031 L 1052,1031 L 1052,1032 L 1051,1033 L 1050,1034 L 1049,1034 L 1048,1035 L 1048,1036 L 1047,1037 L 1046,1038 L 1045,1039 L 1044,1040 L 1043,1041 L 1042,1042 L 1041,1043 L 1040,1044 " />
<path d="M 989,1034 L 988,1034 L 988,1033 L 987,1032 L 986,1031 L 986,1030 L 985,1029 L 984,1028 L 983,1028 L 983,1027 L 982,1027 L 981,1026 L 981,1025 L 980,1024 L 979,1023 L 978,1023 L 977,1022 L 976,1022 L 975,1021 L 974,1021 L 973,1020 L 972,1019 L 971,1019 L 970,1019 L 970,1018 L 969,1017 L 969,1016 L 968,1016 L 967,1015 L 967,1014 L 966,1014 L 965,1014 L 964,1013 L 963,1012 L 962,1012 L 961,1012 L 960,1012 L 959,1011 L 959,1010 L 960,1010 L 960,1009 L 961,1010 L 962,1010 L 963,1010 L 963,1011 L 964,1011 L 965,1011 L 966,1012 L 967,1012 L 967,1013 L 968,1014 L 969,1014 L 969,1015 L 970,1016 L 971,1016 L 972,1017 L 973,1017 L 973,1018 L 974,1018 L 974,1019 L 977,1020 L 977,1021 L 978,1021 L 979,1021 L 979,1022 L 980,1022 L 981,1023 L 982,1024 L 983,1024 L 983,1025 L 984,1025 L 984,1026 L 985,1026 L 985,1027 L 986,1027 L 987,1028 L 987,1029 L 988,1029 L 988,1030 L 988,1031 L 989,1031 L 989,1032 L 990,1032 L 991,1032 L 991,1033 L 990,1033 L 990,1034 L 989,1034 " />
<path d="M 953,1004 L 954,1005 L 955,1005 L 955,1006 L 956,1006 L 956,1007 L 957,1007 L 958,1007 L 958,1008 L 959,1009 L 959,1010 L 958,1010 L 957,1010 L 956,1009 L 955,1008 L 955,1007 L 954,1007 L 953,1006 L 952,1006 L 951,1006 L 951,1007 L 950,1007 L 949,1007 L 948,1007 L 947,1007 L 946,1007 L 945,1007 L 944,1007 L 944,1008 L 942,1009 L 942,1010 L 941,1009 L 942,1009 L 942,1008 L 942,1007 L 943,1007 L 943,1006 L 944,1005 L 945,1005 L 946,1005 L 947,1005 L 948,1005 L 949,1005 L 949,1004 L 950,1004 L 951,1004 L 952,1004 L 953,1004 " />
<path d="M 926,1001 L 927,1001 L 928,1001 L 929,1001 L 930,1001 L 931,1001 L 932,1001 L 933,1001 L 934,1002 L 935,1002 L 936,1002 L 937,1002 L 938,1002 L 939,1002 L 939,1003 L 939,1004 L 940,1004 L 941,1005 L 941,1006 L 942,1006 L 942,1007 L 941,1008 L 940,1008 L 940,1007 L 939,1007 L 939,1006 L 938,1006 L 937,1005 L 936,1004 L 935,1004 L 934,1003 L 933,1003 L 932,1003 L 931,1003 L 930,1003 L 929,1003 L 928,1003 L 927,1003 L 926,1003 L 926,1002 L 925,1002 L 925,1003 L 924,1003 L 923,1003 L 922,1003 L 922,1002 L 923,1001 L 924,1000 L 924,1001 L 925,1001 L 926,1001 " />
<path d="M 1008,1001 L 1009,1001 L 1010,1001 L 1011,1001 L 1011,1000 L 1012,1000 L 1012,1001 L 1013,1001 L 1013,1002 L 1012,1002 L 1011,1002 L 1010,1002 L 1008,1002 L 1007,1002 L 1006,1003 L 1005,1003 L 1004,1003 L 1004,1002 L 1004,1001 L 1005,1001 L 1005,1002 L 1005,1001 L 1005,1000 L 1006,1000 L 1007,1000 L 1008,1001 " />
<path d="M 1010,996 L 1009,996 L 1009,995 L 1009,994 L 1010,994 L 1010,993 L 1011,992 L 1011,993 L 1012,993 L 1011,994 L 1010,995 L 1010,996 " />
<path d="M 877,986 L 878,986 L 878,987 L 878,988 L 877,989 L 876,989 L 876,988 L 877,987 L 876,987 L 876,986 L 877,986 " />
<path d="M 846,988 L 845,988 L 845,987 L 846,987 L 847,986 L 848,985 L 848,984 L 848,983 L 849,983 L 849,984 L 849,985 L 850,985 L 850,986 L 849,986 L 849,987 L 848,987 L 847,988 L 846,988 " />
<path d="M 853,982 L 854,983 L 853,983 L 852,983 L 852,984 L 851,985 L 851,984 L 850,984 L 851,983 L 851,982 L 852,982 L 853,982 " />
<path d="M 1031,979 L 1031,980 L 1032,981 L 1032,982 L 1031,982 L 1031,981 L 1030,981 L 1029,981 L 1028,980 L 1029,980 L 1030,980 L 1030,979 L 1031,979 " />
<path d="M 877,978 L 877,979 L 877,980 L 877,981 L 877,982 L 876,983 L 875,983 L 875,982 L 874,982 L 874,981 L 874,980 L 873,980 L 872,980 L 871,980 L 871,979 L 870,979 L 870,978 L 871,978 L 871,977 L 872,977 L 873,978 L 873,979 L 874,979 L 875,978 L 876,978 L 876,977 L 877,976 L 878,976 L 878,975 L 879,974 L 880,974 L 880,975 L 881,976 L 880,976 L 879,976 L 878,977 L 877,977 L 877,978 " />
<path d="M 869,980 L 870,980 L 871,980 L 872,980 L 871,981 L 870,981 L 869,981 L 869,982 L 868,982 L 868,983 L 868,982 L 867,982 L 866,982 L 866,981 L 867,981 L 867,980 L 868,980 L 867,980 L 866,980 L 865,980 L 865,981 L 864,981 L 863,981 L 863,980 L 863,979 L 864,979 L 864,978 L 864,977 L 864,976 L 865,976 L 865,975 L 864,974 L 864,973 L 865,973 L 866,973 L 866,974 L 866,975 L 867,975 L 867,976 L 867,977 L 868,978 L 869,978 L 869,979 L 869,980 " />
<path d="M 861,976 L 860,976 L 860,975 L 859,975 L 859,974 L 858,974 L 858,973 L 859,973 L 859,974 L 860,974 L 860,975 L 861,975 L 861,976 L 862,976 L 861,976 " />
<path d="M 998,976 L 997,976 L 997,975 L 997,974 L 996,974 L 996,973 L 995,972 L 994,971 L 994,970 L 994,969 L 995,970 L 995,971 L 996,971 L 996,972 L 997,973 L 997,974 L 998,974 L 998,975 L 998,976 " />
<path d="M 824,970 L 825,970 L 826,970 L 826,969 L 827,969 L 828,969 L 828,970 L 827,971 L 826,972 L 826,973 L 826,974 L 827,974 L 827,975 L 827,976 L 828,976 L 829,976 L 829,975 L 830,975 L 830,976 L 831,976 L 831,977 L 831,978 L 831,979 L 832,980 L 831,981 L 831,982 L 831,983 L 831,984 L 832,985 L 832,986 L 833,986 L 833,987 L 832,987 L 832,988 L 831,988 L 831,989 L 831,990 L 831,991 L 832,991 L 833,991 L 832,991 L 832,992 L 831,992 L 831,993 L 832,993 L 833,992 L 834,992 L 834,991 L 835,991 L 835,990 L 836,991 L 836,992 L 835,992 L 835,993 L 834,993 L 833,993 L 833,994 L 832,994 L 832,995 L 833,995 L 833,996 L 833,997 L 834,997 L 834,996 L 835,995 L 835,994 L 836,994 L 836,995 L 836,996 L 837,996 L 838,996 L 838,997 L 837,998 L 837,999 L 837,1000 L 837,1001 L 838,1001 L 839,1000 L 840,1000 L 841,1001 L 842,1001 L 842,1002 L 843,1002 L 844,1002 L 844,1003 L 845,1003 L 846,1003 L 846,1004 L 847,1004 L 848,1004 L 849,1004 L 849,1003 L 850,1004 L 850,1005 L 851,1005 L 852,1005 L 853,1006 L 854,1006 L 855,1006 L 856,1006 L 857,1007 L 858,1007 L 859,1007 L 860,1007 L 861,1007 L 862,1007 L 863,1007 L 864,1007 L 865,1007 L 866,1007 L 867,1007 L 868,1007 L 868,1008 L 867,1008 L 867,1009 L 866,1009 L 865,1009 L 865,1008 L 864,1008 L 863,1008 L 862,1008 L 861,1008 L 860,1008 L 859,1009 L 858,1009 L 857,1009 L 856,1008 L 855,1008 L 854,1008 L 853,1008 L 853,1007 L 852,1007 L 851,1007 L 850,1006 L 849,1006 L 848,1006 L 847,1006 L 846,1006 L 844,1006 L 844,1005 L 843,1005 L 842,1005 L 841,1005 L 840,1004 L 839,1004 L 838,1004 L 837,1004 L 836,1003 L 835,1003 L 834,1002 L 833,1002 L 833,1001 L 832,1001 L 832,1000 L 831,1000 L 830,1000 L 829,1000 L 828,999 L 827,999 L 827,1000 L 826,1000 L 825,999 L 825,998 L 825,997 L 825,996 L 825,995 L 825,994 L 825,993 L 825,992 L 824,991 L 825,990 L 825,988 L 825,987 L 824,986 L 824,985 L 825,984 L 825,983 L 824,983 L 824,982 L 824,981 L 824,980 L 824,979 L 824,978 L 823,977 L 823,976 L 823,975 L 822,974 L 822,973 L 821,973 L 821,972 L 821,971 L 821,970 L 820,970 L 820,969 L 820,968 L 820,967 L 821,967 L 822,967 L 822,966 L 823,966 L 823,967 L 823,968 L 823,969 L 824,970 " />
<path d="M 818,957 L 819,958 L 819,959 L 820,959 L 820,960 L 821,961 L 821,962 L 821,963 L 822,963 L 822,964 L 822,965 L 821,966 L 820,967 L 820,966 L 820,965 L 820,964 L 819,964 L 819,963 L 819,962 L 818,962 L 818,961 L 817,960 L 817,959 L 816,959 L 815,958 L 816,958 L 817,957 L 818,957 " />
<path d="M 879,958 L 879,957 L 880,956 L 880,955 L 880,954 L 881,954 L 881,955 L 881,956 L 880,956 L 880,957 L 880,958 L 879,958 " />
<path d="M 876,952 L 876,953 L 875,953 L 875,952 L 874,952 L 874,953 L 874,954 L 874,955 L 873,954 L 873,953 L 873,952 L 873,951 L 873,950 L 874,950 L 875,951 L 876,951 L 876,952 " />
<path d="M 929,949 L 930,949 L 930,950 L 931,950 L 931,951 L 932,952 L 931,953 L 931,954 L 930,954 L 930,955 L 929,955 L 929,956 L 928,957 L 927,957 L 926,957 L 926,956 L 926,955 L 926,954 L 926,953 L 926,952 L 927,952 L 927,951 L 927,950 L 928,949 L 929,948 L 929,949 " />
<path d="M 962,932 L 961,932 L 960,932 L 960,931 L 960,930 L 961,930 L 961,931 L 962,931 L 963,932 L 962,932 " />
<path d="M 772,925 L 772,926 L 773,926 L 774,926 L 774,927 L 775,927 L 776,927 L 776,928 L 777,928 L 778,928 L 779,928 L 780,928 L 780,929 L 781,929 L 782,929 L 783,929 L 783,928 L 784,929 L 785,929 L 786,929 L 787,929 L 788,929 L 789,930 L 790,930 L 791,930 L 791,931 L 792,931 L 793,931 L 794,932 L 795,932 L 796,932 L 796,933 L 797,933 L 797,934 L 798,934 L 799,934 L 800,934 L 801,934 L 801,935 L 802,935 L 803,935 L 804,936 L 805,936 L 805,937 L 806,937 L 806,938 L 807,938 L 807,939 L 808,940 L 809,941 L 809,942 L 810,942 L 810,943 L 811,943 L 811,944 L 812,944 L 812,945 L 813,946 L 813,947 L 814,948 L 814,949 L 815,950 L 815,951 L 816,951 L 816,952 L 817,952 L 817,953 L 817,954 L 817,955 L 817,956 L 817,957 L 816,957 L 816,956 L 816,955 L 816,954 L 816,953 L 816,952 L 815,952 L 814,951 L 814,950 L 813,949 L 813,948 L 813,947 L 812,946 L 811,945 L 810,944 L 809,943 L 808,942 L 807,940 L 806,939 L 805,939 L 804,938 L 802,937 L 802,936 L 801,936 L 800,936 L 800,935 L 799,935 L 797,934 L 796,934 L 795,933 L 794,933 L 793,933 L 790,931 L 789,931 L 788,931 L 787,931 L 786,930 L 785,930 L 784,930 L 783,930 L 781,930 L 779,930 L 778,930 L 777,929 L 775,929 L 774,929 L 773,929 L 772,929 L 771,929 L 770,929 L 769,929 L 768,929 L 767,929 L 766,929 L 765,930 L 764,930 L 763,930 L 762,930 L 761,931 L 760,931 L 759,931 L 759,932 L 758,932 L 757,932 L 757,933 L 756,933 L 755,933 L 754,933 L 754,934 L 753,934 L 752,934 L 751,935 L 750,936 L 748,937 L 747,938 L 746,938 L 746,939 L 744,940 L 743,940 L 743,941 L 742,941 L 742,942 L 741,943 L 741,944 L 740,944 L 740,945 L 740,946 L 740,945 L 739,944 L 739,943 L 738,943 L 738,942 L 738,941 L 739,941 L 740,940 L 741,939 L 742,938 L 743,938 L 744,937 L 745,936 L 746,935 L 747,935 L 748,934 L 749,934 L 750,934 L 751,933 L 752,933 L 753,932 L 753,931 L 754,931 L 755,931 L 756,931 L 756,930 L 757,930 L 758,930 L 759,930 L 759,929 L 760,929 L 761,929 L 762,929 L 762,928 L 763,928 L 764,927 L 765,927 L 766,927 L 766,926 L 767,926 L 768,926 L 769,925 L 770,925 L 771,925 L 772,925 " />
<path d="M 843,924 L 844,924 L 844,925 L 844,926 L 844,927 L 843,927 L 843,926 L 843,925 L 842,925 L 842,924 L 841,924 L 841,923 L 842,923 L 842,924 L 843,924 " />
<path d="M 866,923 L 867,923 L 867,924 L 867,925 L 866,925 L 866,926 L 865,926 L 864,926 L 864,925 L 865,924 L 865,923 L 866,923 " />
<path d="M 964,927 L 963,927 L 962,927 L 961,926 L 961,925 L 960,925 L 960,924 L 959,924 L 959,923 L 959,922 L 958,921 L 957,920 L 956,920 L 956,919 L 956,918 L 956,917 L 957,917 L 957,916 L 958,916 L 959,915 L 959,916 L 959,917 L 959,918 L 960,919 L 961,920 L 961,921 L 962,921 L 963,921 L 964,922 L 964,923 L 964,924 L 964,925 L 965,926 L 965,927 L 964,927 " />
<path d="M 758,855 L 759,855 L 760,855 L 760,856 L 761,857 L 762,857 L 762,858 L 762,859 L 763,859 L 764,859 L 764,860 L 765,860 L 765,861 L 766,861 L 767,862 L 767,863 L 766,863 L 766,864 L 765,864 L 765,865 L 764,865 L 764,864 L 764,863 L 763,862 L 762,862 L 761,862 L 760,861 L 759,860 L 758,860 L 757,859 L 756,859 L 755,858 L 755,857 L 754,857 L 754,856 L 754,855 L 755,855 L 754,854 L 754,853 L 753,853 L 753,852 L 753,851 L 753,850 L 754,851 L 754,852 L 755,852 L 756,853 L 757,854 L 758,855 " />
<path d="M 769,802 L 770,802 L 770,803 L 771,803 L 771,804 L 772,804 L 772,805 L 773,805 L 774,806 L 774,807 L 775,808 L 776,808 L 776,809 L 777,809 L 778,810 L 779,810 L 780,810 L 781,810 L 782,810 L 782,811 L 783,811 L 784,811 L 785,811 L 786,811 L 788,812 L 788,811 L 789,811 L 790,811 L 790,810 L 791,810 L 792,810 L 793,810 L 794,811 L 795,811 L 796,811 L 797,811 L 797,812 L 798,813 L 798,814 L 799,815 L 800,815 L 800,816 L 799,816 L 798,816 L 797,817 L 796,817 L 795,818 L 794,818 L 793,818 L 792,818 L 791,818 L 789,819 L 788,819 L 787,820 L 786,820 L 785,820 L 784,820 L 784,821 L 783,821 L 782,821 L 781,821 L 781,822 L 780,822 L 780,823 L 779,823 L 779,824 L 778,824 L 778,825 L 777,825 L 776,824 L 775,824 L 774,824 L 774,823 L 773,822 L 773,821 L 773,820 L 773,819 L 774,819 L 774,818 L 774,817 L 775,817 L 775,816 L 776,815 L 777,814 L 777,813 L 777,812 L 776,812 L 776,811 L 775,811 L 775,810 L 774,810 L 773,811 L 772,811 L 772,812 L 771,812 L 771,811 L 771,812 L 770,812 L 770,811 L 769,811 L 769,810 L 768,810 L 768,809 L 767,808 L 767,807 L 766,806 L 766,805 L 765,805 L 765,804 L 764,803 L 763,802 L 762,802 L 761,803 L 760,803 L 759,803 L 759,804 L 758,804 L 758,805 L 758,806 L 757,806 L 757,807 L 757,808 L 758,808 L 758,809 L 758,810 L 757,810 L 756,810 L 755,810 L 755,811 L 754,811 L 754,812 L 754,813 L 754,814 L 755,814 L 756,814 L 756,813 L 757,813 L 757,812 L 758,812 L 758,813 L 757,813 L 757,814 L 756,815 L 755,815 L 755,816 L 754,816 L 753,816 L 752,816 L 751,815 L 750,814 L 750,813 L 749,813 L 749,812 L 748,812 L 748,811 L 747,811 L 747,810 L 747,809 L 746,809 L 746,808 L 745,808 L 745,807 L 744,807 L 743,807 L 744,808 L 745,808 L 745,809 L 746,809 L 746,810 L 747,810 L 747,811 L 747,812 L 748,812 L 748,813 L 749,813 L 749,814 L 750,814 L 750,815 L 750,816 L 749,816 L 749,817 L 749,818 L 748,819 L 748,820 L 749,820 L 749,819 L 750,819 L 750,818 L 751,818 L 751,817 L 752,817 L 753,817 L 754,817 L 755,817 L 756,817 L 756,816 L 757,816 L 757,815 L 758,814 L 759,813 L 759,812 L 760,811 L 760,810 L 761,809 L 761,808 L 762,808 L 762,807 L 762,806 L 763,806 L 764,806 L 764,805 L 764,806 L 765,806 L 765,807 L 765,808 L 766,809 L 766,810 L 767,810 L 767,811 L 767,812 L 768,812 L 769,813 L 770,813 L 770,814 L 771,814 L 772,814 L 772,815 L 773,815 L 773,816 L 773,817 L 773,818 L 772,818 L 772,819 L 771,819 L 771,820 L 770,821 L 771,821 L 771,822 L 772,822 L 772,823 L 773,823 L 773,824 L 773,825 L 772,825 L 772,826 L 772,827 L 772,828 L 772,829 L 772,830 L 771,831 L 770,832 L 769,832 L 769,833 L 768,833 L 768,834 L 768,835 L 767,836 L 767,837 L 766,837 L 766,838 L 765,838 L 764,838 L 763,838 L 762,839 L 761,839 L 760,839 L 759,840 L 758,840 L 757,839 L 756,839 L 755,838 L 754,838 L 753,838 L 753,837 L 752,837 L 752,836 L 751,836 L 750,835 L 749,835 L 748,835 L 748,834 L 747,834 L 746,834 L 745,834 L 745,833 L 744,833 L 744,832 L 744,831 L 743,831 L 743,830 L 742,830 L 742,829 L 741,829 L 740,828 L 739,828 L 738,828 L 738,827 L 737,827 L 737,826 L 737,825 L 737,824 L 737,823 L 736,823 L 736,822 L 736,821 L 736,820 L 735,820 L 735,819 L 734,819 L 734,818 L 734,817 L 734,816 L 733,816 L 732,816 L 732,815 L 731,815 L 731,814 L 730,814 L 729,814 L 729,815 L 728,815 L 728,816 L 727,816 L 726,816 L 726,817 L 725,817 L 724,817 L 723,817 L 722,817 L 721,817 L 720,817 L 719,817 L 718,817 L 717,817 L 716,818 L 716,819 L 716,820 L 716,821 L 716,822 L 716,823 L 716,824 L 715,824 L 715,825 L 715,826 L 715,827 L 715,828 L 715,829 L 715,830 L 716,831 L 717,831 L 717,832 L 717,833 L 717,834 L 717,835 L 718,835 L 719,835 L 719,834 L 720,834 L 721,833 L 722,833 L 723,833 L 724,833 L 725,833 L 725,832 L 726,832 L 726,831 L 727,831 L 728,830 L 729,830 L 730,830 L 731,829 L 732,828 L 733,828 L 733,827 L 734,827 L 735,827 L 736,827 L 737,828 L 738,829 L 738,830 L 738,831 L 738,832 L 737,833 L 737,834 L 736,834 L 736,835 L 735,836 L 735,837 L 734,837 L 734,838 L 733,838 L 733,839 L 732,840 L 733,840 L 733,841 L 734,841 L 734,840 L 735,840 L 736,840 L 737,839 L 738,839 L 739,838 L 740,837 L 741,837 L 741,836 L 741,835 L 742,835 L 742,834 L 743,834 L 744,834 L 745,834 L 745,835 L 746,835 L 747,836 L 748,836 L 749,836 L 750,836 L 750,837 L 751,837 L 751,838 L 751,839 L 750,839 L 750,840 L 750,841 L 749,842 L 749,843 L 749,844 L 749,845 L 749,846 L 749,847 L 750,847 L 750,848 L 751,849 L 751,850 L 752,850 L 752,851 L 752,852 L 751,852 L 750,853 L 749,853 L 748,853 L 748,854 L 747,854 L 746,854 L 745,855 L 744,855 L 743,856 L 742,856 L 741,857 L 740,858 L 740,859 L 739,859 L 738,860 L 737,860 L 736,861 L 735,861 L 734,861 L 733,861 L 732,861 L 731,862 L 730,862 L 729,862 L 728,862 L 727,863 L 726,863 L 725,863 L 725,864 L 724,864 L 723,864 L 722,864 L 722,865 L 721,865 L 720,865 L 719,865 L 719,866 L 718,866 L 717,867 L 716,867 L 716,868 L 715,869 L 714,869 L 714,870 L 714,871 L 715,871 L 716,871 L 717,871 L 717,872 L 718,872 L 719,872 L 720,873 L 721,874 L 722,874 L 722,873 L 723,873 L 724,873 L 725,873 L 726,872 L 727,872 L 728,871 L 729,872 L 729,873 L 730,873 L 730,874 L 731,874 L 731,875 L 732,876 L 732,877 L 733,877 L 734,877 L 735,876 L 736,876 L 737,875 L 738,875 L 739,875 L 739,874 L 740,874 L 741,874 L 742,873 L 743,874 L 744,874 L 744,875 L 745,876 L 746,876 L 747,875 L 748,874 L 749,874 L 750,874 L 750,873 L 751,873 L 751,872 L 752,872 L 753,871 L 754,871 L 755,871 L 755,872 L 755,873 L 754,873 L 754,874 L 753,874 L 753,875 L 752,876 L 751,876 L 751,877 L 750,877 L 749,878 L 748,878 L 747,878 L 746,878 L 745,879 L 744,879 L 744,880 L 745,880 L 746,880 L 746,881 L 747,881 L 747,882 L 748,882 L 749,882 L 750,882 L 751,882 L 751,881 L 752,881 L 753,881 L 754,881 L 755,881 L 756,881 L 757,881 L 758,881 L 759,881 L 760,880 L 760,881 L 761,881 L 762,881 L 763,881 L 764,881 L 765,881 L 765,882 L 766,882 L 767,881 L 768,881 L 768,880 L 769,880 L 769,879 L 770,879 L 771,879 L 771,880 L 772,880 L 772,881 L 773,881 L 773,882 L 773,883 L 774,883 L 775,883 L 776,883 L 776,884 L 777,884 L 778,884 L 779,884 L 780,884 L 781,884 L 781,885 L 782,885 L 783,885 L 784,885 L 784,886 L 785,886 L 786,886 L 787,886 L 788,886 L 789,886 L 790,886 L 791,886 L 792,887 L 793,887 L 794,887 L 794,888 L 795,888 L 795,889 L 794,890 L 795,890 L 795,891 L 795,893 L 794,893 L 794,892 L 793,892 L 792,892 L 792,891 L 791,890 L 791,889 L 791,890 L 790,890 L 790,891 L 789,891 L 788,891 L 787,891 L 787,892 L 786,892 L 786,891 L 785,891 L 784,891 L 783,891 L 782,891 L 781,891 L 780,891 L 779,891 L 778,891 L 778,890 L 777,890 L 776,890 L 776,891 L 775,891 L 774,891 L 773,891 L 772,891 L 771,891 L 770,891 L 770,890 L 769,890 L 769,889 L 768,888 L 767,888 L 765,888 L 764,888 L 763,888 L 762,887 L 762,888 L 761,888 L 760,888 L 759,888 L 758,888 L 758,889 L 757,889 L 756,889 L 755,890 L 754,890 L 753,890 L 752,891 L 751,891 L 750,891 L 750,892 L 749,892 L 748,892 L 748,893 L 747,893 L 747,894 L 746,894 L 746,895 L 745,895 L 745,896 L 745,897 L 745,898 L 745,899 L 745,900 L 745,901 L 745,902 L 745,903 L 745,904 L 746,905 L 746,906 L 745,907 L 745,908 L 745,909 L 745,910 L 744,911 L 744,912 L 745,913 L 745,914 L 746,915 L 746,916 L 747,917 L 747,918 L 747,919 L 748,919 L 748,920 L 749,920 L 749,921 L 750,921 L 750,922 L 749,923 L 748,922 L 747,922 L 746,922 L 745,922 L 744,922 L 744,923 L 743,923 L 742,922 L 742,923 L 741,923 L 740,923 L 739,924 L 739,925 L 738,925 L 737,925 L 737,926 L 737,927 L 737,928 L 736,929 L 735,929 L 735,930 L 735,931 L 734,932 L 734,933 L 733,933 L 733,934 L 733,935 L 732,935 L 732,936 L 731,936 L 731,937 L 730,937 L 730,938 L 730,939 L 730,940 L 730,941 L 731,941 L 732,941 L 733,941 L 734,941 L 735,941 L 736,941 L 736,942 L 736,943 L 737,943 L 737,942 L 738,942 L 738,943 L 738,944 L 739,944 L 739,945 L 740,945 L 740,946 L 741,947 L 741,948 L 741,949 L 740,950 L 739,951 L 738,951 L 738,952 L 737,952 L 737,953 L 737,954 L 736,955 L 736,956 L 735,957 L 734,958 L 734,959 L 733,960 L 733,961 L 732,962 L 732,963 L 730,964 L 730,965 L 729,966 L 728,966 L 727,967 L 726,968 L 725,969 L 725,968 L 724,967 L 723,964 L 723,963 L 723,962 L 722,961 L 722,960 L 721,960 L 721,959 L 720,959 L 719,958 L 718,958 L 716,957 L 715,956 L 714,955 L 713,955 L 713,954 L 712,954 L 711,952 L 711,951 L 710,950 L 710,948 L 710,947 L 710,946 L 711,945 L 711,944 L 711,943 L 711,942 L 712,942 L 712,941 L 712,940 L 713,939 L 713,938 L 714,937 L 714,936 L 714,933 L 714,932 L 714,931 L 714,930 L 714,928 L 713,927 L 713,926 L 713,925 L 712,924 L 712,922 L 711,922 L 711,921 L 710,919 L 709,916 L 708,915 L 708,913 L 708,912 L 708,911 L 708,909 L 707,908 L 707,907 L 707,906 L 708,905 L 707,904 L 707,902 L 708,900 L 707,898 L 707,897 L 707,896 L 707,895 L 707,893 L 706,892 L 706,891 L 706,890 L 706,889 L 706,888 L 705,885 L 705,883 L 704,881 L 704,880 L 704,879 L 703,878 L 703,877 L 702,876 L 702,875 L 701,874 L 701,873 L 701,872 L 700,872 L 700,871 L 700,869 L 699,869 L 699,867 L 699,866 L 698,865 L 698,864 L 698,863 L 697,861 L 696,860 L 696,859 L 696,858 L 695,857 L 695,856 L 695,854 L 695,853 L 695,851 L 695,849 L 695,847 L 695,846 L 695,845 L 696,843 L 696,842 L 696,841 L 696,839 L 696,838 L 696,837 L 696,836 L 696,835 L 696,834 L 696,833 L 697,833 L 697,832 L 697,831 L 697,830 L 697,829 L 697,828 L 697,826 L 698,824 L 697,823 L 698,823 L 699,822 L 700,822 L 701,821 L 702,821 L 703,821 L 704,821 L 705,821 L 705,820 L 706,820 L 707,820 L 709,820 L 710,820 L 712,819 L 713,819 L 716,817 L 717,817 L 719,816 L 721,815 L 723,815 L 726,814 L 729,812 L 730,812 L 731,811 L 732,811 L 734,810 L 735,810 L 736,809 L 738,809 L 739,809 L 739,808 L 740,808 L 743,806 L 744,806 L 745,806 L 746,805 L 747,804 L 749,804 L 749,803 L 750,803 L 751,802 L 753,801 L 755,800 L 755,799 L 756,800 L 756,801 L 756,802 L 757,802 L 758,802 L 759,801 L 760,801 L 760,800 L 761,800 L 762,800 L 762,799 L 763,799 L 764,799 L 764,798 L 765,798 L 766,798 L 767,798 L 768,798 L 768,799 L 768,800 L 768,801 L 769,801 L 769,802 " />
<path d="M 1123,821 L 1124,822 L 1124,823 L 1124,824 L 1126,826 L 1126,828 L 1126,829 L 1127,830 L 1127,831 L 1126,831 L 1126,833 L 1125,835 L 1124,836 L 1123,837 L 1122,838 L 1119,841 L 1117,842 L 1116,843 L 1115,843 L 1114,844 L 1113,844 L 1111,845 L 1113,847 L 1113,848 L 1113,849 L 1114,854 L 1114,856 L 1116,860 L 1117,862 L 1117,863 L 1119,866 L 1120,868 L 1120,869 L 1120,871 L 1120,874 L 1120,876 L 1120,877 L 1118,883 L 1118,884 L 1116,888 L 1115,891 L 1115,892 L 1114,894 L 1114,897 L 1113,902 L 1112,905 L 1112,906 L 1111,908 L 1110,909 L 1109,911 L 1109,913 L 1107,917 L 1105,921 L 1103,926 L 1103,927 L 1102,930 L 1102,932 L 1101,935 L 1100,937 L 1099,940 L 1098,943 L 1097,945 L 1096,948 L 1096,951 L 1094,957 L 1093,960 L 1091,968 L 1090,971 L 1088,977 L 1087,979 L 1086,982 L 1086,985 L 1084,991 L 1083,995 L 1083,997 L 1083,999 L 1083,1002 L 1083,1005 L 1083,1007 L 1082,1008 L 1083,1009 L 1084,1009 L 1084,1010 L 1085,1011 L 1085,1012 L 1085,1013 L 1084,1013 L 1083,1013 L 1083,1014 L 1082,1014 L 1081,1015 L 1080,1015 L 1079,1015 L 1078,1016 L 1077,1016 L 1076,1017 L 1075,1017 L 1075,1018 L 1074,1018 L 1073,1018 L 1073,1019 L 1072,1019 L 1071,1020 L 1070,1020 L 1069,1021 L 1068,1021 L 1067,1021 L 1066,1021 L 1066,1022 L 1065,1022 L 1064,1023 L 1064,1024 L 1063,1025 L 1062,1025 L 1061,1026 L 1060,1027 L 1059,1027 L 1059,1028 L 1058,1028 L 1057,1028 L 1056,1029 L 1055,1029 L 1054,1029 L 1054,1028 L 1055,1028 L 1055,1027 L 1056,1027 L 1057,1026 L 1058,1025 L 1059,1024 L 1060,1023 L 1061,1022 L 1061,1021 L 1060,1021 L 1060,1019 L 1059,1018 L 1059,1016 L 1059,1014 L 1058,1013 L 1058,1012 L 1058,1011 L 1058,1010 L 1059,1009 L 1060,1009 L 1061,1009 L 1062,1009 L 1063,1009 L 1064,1009 L 1064,1010 L 1064,1011 L 1064,1012 L 1064,1013 L 1063,1013 L 1064,1014 L 1064,1015 L 1065,1015 L 1066,1015 L 1066,1014 L 1067,1014 L 1068,1014 L 1068,1013 L 1069,1013 L 1069,1012 L 1069,1011 L 1068,1011 L 1067,1011 L 1066,1011 L 1066,1010 L 1066,1009 L 1066,1008 L 1066,1007 L 1066,1006 L 1065,1005 L 1065,1004 L 1065,1003 L 1064,1002 L 1063,1001 L 1063,1000 L 1062,999 L 1062,998 L 1061,997 L 1061,996 L 1060,996 L 1059,996 L 1058,996 L 1058,997 L 1058,998 L 1059,998 L 1060,999 L 1061,1001 L 1062,1002 L 1062,1003 L 1062,1004 L 1061,1005 L 1060,1006 L 1059,1006 L 1058,1007 L 1057,1006 L 1056,1005 L 1056,1004 L 1055,1003 L 1054,1001 L 1054,999 L 1053,997 L 1052,996 L 1052,994 L 1051,993 L 1051,991 L 1050,989 L 1049,987 L 1049,986 L 1048,985 L 1047,983 L 1047,982 L 1046,981 L 1045,979 L 1045,978 L 1046,978 L 1046,977 L 1047,977 L 1048,977 L 1048,976 L 1047,976 L 1046,976 L 1045,976 L 1044,976 L 1043,976 L 1043,975 L 1043,974 L 1043,973 L 1042,973 L 1042,972 L 1041,972 L 1040,971 L 1040,970 L 1039,969 L 1040,968 L 1040,967 L 1040,966 L 1040,965 L 1041,965 L 1042,965 L 1043,965 L 1044,965 L 1045,964 L 1046,964 L 1047,962 L 1048,961 L 1049,961 L 1049,960 L 1051,959 L 1052,959 L 1053,958 L 1054,957 L 1054,956 L 1054,955 L 1054,954 L 1054,953 L 1054,951 L 1054,950 L 1054,949 L 1054,948 L 1053,948 L 1053,949 L 1052,949 L 1051,950 L 1051,951 L 1051,952 L 1050,952 L 1050,953 L 1049,953 L 1048,953 L 1048,954 L 1047,954 L 1047,955 L 1046,955 L 1045,956 L 1044,956 L 1043,956 L 1043,957 L 1043,958 L 1043,959 L 1042,959 L 1041,959 L 1040,960 L 1039,961 L 1038,961 L 1038,960 L 1038,959 L 1038,958 L 1039,957 L 1041,955 L 1042,954 L 1043,953 L 1044,953 L 1045,952 L 1044,952 L 1044,951 L 1043,951 L 1043,952 L 1043,953 L 1042,953 L 1041,954 L 1040,955 L 1039,955 L 1039,956 L 1038,956 L 1037,956 L 1037,955 L 1037,954 L 1038,953 L 1039,953 L 1040,953 L 1041,953 L 1041,952 L 1042,952 L 1042,951 L 1042,950 L 1041,949 L 1040,948 L 1041,948 L 1041,947 L 1041,946 L 1042,946 L 1042,945 L 1043,945 L 1043,946 L 1043,947 L 1043,948 L 1043,949 L 1044,949 L 1045,949 L 1045,950 L 1046,950 L 1046,951 L 1047,951 L 1048,951 L 1049,950 L 1050,950 L 1050,949 L 1050,948 L 1050,947 L 1051,946 L 1051,945 L 1052,945 L 1053,945 L 1053,944 L 1053,943 L 1053,942 L 1052,942 L 1052,941 L 1053,940 L 1053,939 L 1054,939 L 1054,938 L 1054,937 L 1055,937 L 1055,936 L 1056,935 L 1057,935 L 1057,934 L 1058,934 L 1059,933 L 1060,933 L 1061,932 L 1062,932 L 1062,931 L 1061,931 L 1061,932 L 1060,932 L 1059,932 L 1059,931 L 1060,930 L 1061,930 L 1061,931 L 1062,931 L 1063,931 L 1064,931 L 1065,931 L 1066,931 L 1066,932 L 1067,932 L 1068,931 L 1069,931 L 1069,930 L 1069,929 L 1070,928 L 1070,927 L 1070,926 L 1070,925 L 1070,924 L 1070,923 L 1069,923 L 1068,923 L 1067,923 L 1067,924 L 1066,924 L 1065,925 L 1064,925 L 1064,926 L 1063,926 L 1062,927 L 1061,927 L 1061,928 L 1060,928 L 1059,928 L 1058,928 L 1056,929 L 1054,929 L 1053,930 L 1052,930 L 1052,931 L 1051,931 L 1051,932 L 1051,934 L 1051,935 L 1050,935 L 1050,936 L 1049,936 L 1048,938 L 1047,938 L 1047,939 L 1046,940 L 1045,940 L 1044,940 L 1043,940 L 1043,941 L 1042,941 L 1041,941 L 1040,941 L 1039,941 L 1038,941 L 1037,941 L 1036,942 L 1035,942 L 1034,943 L 1033,943 L 1032,944 L 1033,944 L 1033,945 L 1034,945 L 1034,946 L 1033,946 L 1033,945 L 1032,945 L 1031,945 L 1030,944 L 1029,944 L 1029,943 L 1029,942 L 1028,941 L 1028,940 L 1027,940 L 1027,939 L 1027,938 L 1027,937 L 1026,936 L 1026,935 L 1026,934 L 1026,933 L 1027,933 L 1028,934 L 1028,933 L 1028,932 L 1028,931 L 1027,930 L 1026,931 L 1025,931 L 1024,931 L 1024,932 L 1024,933 L 1023,934 L 1023,935 L 1022,936 L 1022,937 L 1021,938 L 1021,939 L 1020,939 L 1019,939 L 1018,939 L 1017,940 L 1017,941 L 1017,942 L 1016,942 L 1015,943 L 1014,943 L 1014,942 L 1014,941 L 1014,940 L 1014,939 L 1014,938 L 1015,937 L 1015,936 L 1016,936 L 1016,935 L 1017,935 L 1017,934 L 1017,933 L 1016,933 L 1016,932 L 1015,932 L 1015,931 L 1015,930 L 1016,930 L 1015,929 L 1014,929 L 1013,929 L 1012,929 L 1010,927 L 1009,927 L 1008,927 L 1007,927 L 1006,928 L 1005,928 L 1004,928 L 1003,928 L 1002,928 L 1001,928 L 1001,929 L 1001,930 L 1001,931 L 1000,931 L 1000,932 L 1001,932 L 1001,933 L 1002,933 L 1002,935 L 1002,936 L 1001,937 L 1000,937 L 1000,938 L 999,939 L 998,938 L 997,938 L 995,937 L 995,935 L 994,934 L 994,932 L 994,931 L 994,930 L 994,929 L 995,928 L 996,928 L 996,927 L 995,927 L 994,926 L 995,926 L 995,925 L 996,925 L 997,925 L 998,924 L 997,924 L 996,924 L 996,925 L 995,925 L 995,924 L 994,925 L 993,925 L 993,924 L 993,923 L 993,922 L 992,922 L 992,921 L 991,920 L 990,919 L 989,918 L 988,918 L 988,917 L 987,917 L 986,917 L 985,917 L 985,916 L 984,916 L 983,915 L 982,915 L 981,914 L 980,913 L 979,913 L 979,912 L 978,912 L 977,913 L 976,913 L 976,914 L 975,914 L 974,913 L 973,913 L 972,913 L 971,912 L 971,911 L 971,910 L 971,909 L 970,909 L 969,908 L 969,907 L 968,906 L 968,905 L 968,904 L 967,904 L 967,903 L 966,903 L 966,902 L 965,901 L 965,900 L 964,899 L 963,898 L 963,897 L 962,897 L 962,896 L 961,896 L 960,896 L 960,895 L 959,895 L 958,895 L 958,896 L 957,896 L 958,897 L 958,898 L 957,898 L 958,898 L 958,899 L 957,899 L 956,899 L 955,899 L 954,900 L 953,900 L 952,900 L 951,900 L 950,901 L 950,902 L 951,902 L 952,902 L 952,903 L 952,904 L 951,904 L 951,905 L 952,905 L 953,905 L 953,906 L 953,907 L 954,907 L 955,907 L 956,907 L 957,908 L 958,909 L 958,910 L 958,911 L 958,912 L 957,912 L 957,913 L 956,913 L 955,913 L 954,913 L 953,913 L 953,914 L 952,914 L 952,915 L 951,915 L 951,916 L 950,916 L 950,917 L 949,917 L 948,917 L 948,918 L 947,918 L 946,918 L 946,919 L 947,919 L 948,919 L 948,920 L 949,920 L 949,921 L 948,921 L 948,922 L 947,922 L 948,922 L 948,923 L 947,923 L 947,924 L 948,924 L 947,925 L 946,925 L 946,926 L 947,927 L 947,928 L 946,929 L 946,930 L 947,930 L 947,929 L 948,929 L 949,929 L 949,930 L 950,930 L 950,931 L 951,931 L 951,930 L 952,930 L 952,931 L 953,931 L 954,931 L 954,932 L 954,933 L 955,933 L 956,933 L 955,934 L 955,935 L 955,936 L 956,936 L 956,937 L 956,938 L 956,939 L 956,940 L 957,940 L 957,941 L 958,941 L 958,942 L 959,943 L 959,944 L 959,945 L 959,946 L 958,947 L 957,947 L 956,947 L 956,946 L 955,946 L 955,947 L 954,947 L 953,947 L 954,946 L 954,945 L 954,944 L 954,943 L 953,942 L 952,941 L 951,940 L 950,939 L 949,938 L 947,936 L 947,935 L 946,935 L 945,934 L 944,934 L 943,934 L 943,935 L 943,936 L 943,937 L 943,938 L 943,939 L 942,939 L 941,938 L 940,938 L 939,938 L 938,938 L 938,937 L 937,937 L 936,937 L 936,938 L 935,938 L 935,939 L 935,940 L 934,940 L 933,940 L 933,939 L 932,939 L 932,938 L 932,937 L 933,936 L 933,935 L 932,935 L 932,936 L 932,937 L 931,937 L 931,938 L 930,937 L 930,936 L 929,936 L 929,935 L 929,934 L 928,934 L 928,933 L 928,932 L 927,932 L 927,933 L 926,932 L 926,933 L 926,934 L 925,934 L 926,935 L 925,935 L 925,936 L 925,937 L 925,938 L 926,938 L 926,939 L 925,940 L 924,940 L 923,940 L 923,939 L 922,940 L 922,941 L 922,942 L 922,941 L 921,942 L 921,943 L 920,943 L 920,944 L 920,945 L 919,946 L 919,945 L 919,944 L 918,944 L 917,944 L 917,945 L 916,945 L 916,946 L 915,946 L 915,945 L 914,945 L 913,946 L 912,946 L 912,945 L 912,944 L 911,943 L 910,943 L 910,944 L 909,944 L 908,944 L 908,945 L 908,946 L 909,946 L 909,947 L 908,947 L 907,948 L 907,949 L 906,949 L 905,949 L 904,950 L 904,951 L 903,951 L 903,952 L 903,953 L 903,954 L 903,955 L 903,956 L 903,957 L 904,957 L 904,958 L 905,958 L 905,959 L 906,959 L 906,958 L 907,958 L 907,959 L 907,960 L 908,960 L 909,959 L 910,960 L 910,961 L 909,961 L 909,962 L 908,962 L 908,963 L 907,963 L 906,962 L 905,962 L 905,963 L 905,964 L 904,964 L 904,963 L 904,964 L 903,964 L 903,963 L 903,962 L 903,961 L 902,960 L 902,961 L 901,962 L 901,963 L 900,964 L 900,965 L 899,965 L 899,966 L 900,966 L 900,967 L 900,968 L 901,968 L 901,969 L 901,970 L 901,971 L 900,971 L 900,972 L 900,973 L 900,974 L 901,974 L 901,975 L 902,975 L 902,976 L 902,977 L 902,978 L 901,978 L 900,978 L 899,979 L 898,979 L 898,980 L 899,980 L 899,981 L 900,981 L 901,981 L 901,982 L 900,982 L 899,982 L 898,982 L 898,981 L 897,981 L 897,980 L 896,980 L 896,979 L 896,978 L 896,977 L 895,977 L 895,978 L 894,978 L 894,979 L 894,980 L 894,981 L 894,982 L 894,983 L 895,983 L 896,984 L 897,985 L 898,984 L 899,984 L 900,984 L 900,985 L 901,985 L 902,985 L 902,986 L 903,986 L 904,986 L 905,987 L 906,987 L 907,987 L 908,988 L 908,989 L 908,990 L 908,991 L 909,992 L 910,992 L 910,993 L 911,993 L 912,993 L 913,994 L 914,995 L 914,996 L 914,997 L 915,998 L 915,999 L 916,999 L 917,1000 L 917,1001 L 918,1001 L 919,1001 L 920,1001 L 920,1002 L 921,1002 L 921,1003 L 920,1003 L 919,1003 L 918,1004 L 918,1005 L 917,1005 L 917,1006 L 916,1007 L 916,1008 L 916,1009 L 915,1009 L 915,1010 L 915,1011 L 914,1012 L 913,1012 L 912,1012 L 911,1012 L 910,1012 L 909,1012 L 908,1012 L 907,1013 L 906,1013 L 904,1014 L 902,1014 L 901,1014 L 900,1014 L 899,1013 L 898,1013 L 897,1012 L 896,1012 L 895,1011 L 894,1011 L 893,1010 L 892,1010 L 892,1009 L 891,1009 L 891,1008 L 890,1008 L 888,1007 L 887,1007 L 886,1007 L 885,1007 L 884,1007 L 884,1006 L 883,1006 L 882,1006 L 881,1006 L 880,1007 L 879,1007 L 879,1006 L 878,1006 L 877,1006 L 877,1007 L 876,1007 L 876,1008 L 875,1007 L 874,1007 L 873,1007 L 872,1008 L 871,1007 L 870,1007 L 870,1006 L 871,1006 L 872,1006 L 873,1006 L 874,1006 L 875,1006 L 875,1005 L 876,1005 L 876,1006 L 877,1005 L 878,1005 L 879,1005 L 880,1005 L 881,1005 L 882,1004 L 883,1004 L 884,1005 L 885,1005 L 885,1006 L 886,1006 L 887,1006 L 888,1005 L 888,1004 L 888,1003 L 887,1002 L 888,1002 L 888,1001 L 888,1000 L 888,999 L 888,998 L 887,998 L 886,998 L 886,997 L 886,996 L 887,996 L 887,995 L 886,994 L 885,994 L 885,993 L 885,992 L 885,991 L 885,990 L 886,989 L 886,988 L 887,986 L 888,986 L 888,985 L 889,984 L 889,983 L 889,982 L 889,981 L 889,980 L 888,980 L 888,979 L 887,979 L 886,979 L 886,978 L 885,977 L 884,977 L 883,977 L 882,976 L 881,976 L 881,975 L 880,975 L 881,975 L 881,974 L 882,974 L 883,973 L 884,973 L 885,973 L 886,973 L 887,974 L 887,975 L 887,976 L 888,976 L 888,977 L 889,977 L 890,977 L 890,976 L 890,975 L 891,975 L 891,974 L 890,973 L 891,973 L 891,972 L 891,971 L 890,971 L 889,971 L 888,972 L 887,972 L 887,971 L 888,970 L 889,970 L 890,970 L 890,969 L 891,969 L 892,969 L 892,968 L 892,967 L 892,966 L 891,965 L 891,964 L 890,964 L 891,964 L 892,963 L 892,962 L 892,961 L 892,960 L 891,959 L 890,959 L 889,960 L 889,961 L 889,962 L 888,961 L 887,960 L 886,960 L 886,961 L 885,961 L 884,960 L 884,959 L 884,958 L 885,958 L 885,957 L 886,957 L 887,956 L 887,955 L 887,954 L 887,953 L 888,953 L 889,953 L 890,953 L 891,953 L 892,953 L 892,952 L 893,952 L 894,951 L 894,950 L 894,949 L 895,949 L 895,947 L 896,947 L 896,946 L 896,945 L 896,944 L 896,943 L 897,941 L 897,940 L 897,939 L 897,938 L 898,936 L 898,933 L 898,930 L 897,931 L 896,932 L 895,932 L 894,933 L 893,933 L 893,934 L 892,934 L 891,934 L 890,934 L 890,933 L 889,933 L 888,933 L 887,932 L 886,932 L 885,932 L 884,932 L 883,932 L 882,931 L 881,931 L 880,930 L 879,930 L 879,929 L 878,929 L 877,929 L 877,930 L 876,930 L 875,930 L 874,930 L 873,930 L 872,930 L 872,931 L 872,932 L 872,933 L 871,933 L 871,934 L 870,934 L 869,934 L 869,933 L 869,932 L 869,931 L 869,930 L 870,929 L 871,928 L 871,927 L 872,927 L 873,927 L 874,927 L 875,927 L 876,926 L 876,925 L 875,924 L 875,923 L 875,922 L 875,921 L 876,920 L 877,920 L 877,919 L 878,919 L 878,918 L 877,918 L 876,919 L 875,919 L 874,919 L 874,918 L 873,918 L 873,917 L 874,917 L 875,917 L 875,916 L 875,915 L 874,915 L 874,916 L 873,916 L 872,916 L 871,915 L 870,915 L 870,914 L 869,914 L 869,913 L 869,912 L 868,912 L 868,911 L 867,911 L 867,910 L 868,910 L 869,910 L 869,909 L 870,909 L 870,908 L 869,908 L 868,909 L 867,909 L 866,909 L 865,909 L 865,908 L 864,908 L 864,909 L 863,909 L 862,909 L 861,909 L 860,909 L 859,909 L 859,910 L 858,910 L 857,911 L 856,911 L 856,912 L 855,912 L 855,913 L 855,914 L 856,915 L 856,916 L 856,917 L 856,918 L 856,919 L 855,919 L 855,920 L 856,921 L 855,922 L 855,923 L 855,924 L 856,924 L 856,925 L 856,926 L 857,926 L 857,927 L 858,928 L 859,929 L 859,930 L 859,931 L 859,932 L 860,933 L 860,934 L 861,935 L 861,936 L 862,936 L 862,937 L 863,937 L 863,938 L 862,938 L 862,939 L 862,940 L 862,941 L 863,942 L 862,943 L 861,943 L 861,942 L 861,941 L 861,940 L 860,940 L 860,939 L 859,939 L 858,939 L 858,938 L 858,937 L 857,938 L 857,937 L 857,936 L 857,935 L 857,934 L 856,934 L 856,933 L 855,934 L 855,933 L 854,933 L 854,932 L 853,932 L 853,931 L 852,931 L 852,930 L 851,930 L 851,929 L 852,929 L 852,930 L 853,930 L 854,929 L 854,928 L 853,927 L 853,926 L 852,925 L 851,925 L 851,924 L 850,924 L 850,923 L 851,923 L 851,922 L 851,921 L 851,920 L 851,919 L 850,918 L 849,918 L 848,918 L 847,917 L 846,917 L 846,916 L 846,915 L 845,915 L 846,914 L 846,913 L 846,912 L 845,912 L 844,912 L 844,913 L 843,913 L 843,912 L 843,911 L 844,911 L 845,910 L 845,909 L 846,909 L 847,909 L 848,909 L 848,908 L 849,907 L 849,906 L 848,906 L 848,905 L 848,904 L 849,904 L 849,903 L 850,903 L 851,902 L 852,902 L 853,903 L 853,902 L 853,900 L 852,900 L 851,900 L 850,901 L 849,902 L 848,902 L 847,902 L 847,901 L 846,900 L 846,899 L 846,898 L 846,897 L 847,897 L 848,896 L 849,896 L 850,895 L 850,894 L 850,893 L 850,892 L 849,892 L 848,892 L 848,893 L 847,893 L 846,893 L 845,894 L 845,895 L 845,896 L 844,896 L 843,896 L 843,897 L 842,897 L 841,897 L 840,897 L 839,897 L 839,898 L 838,898 L 837,898 L 837,897 L 837,896 L 837,895 L 836,895 L 835,895 L 833,895 L 832,895 L 830,896 L 829,896 L 828,896 L 827,897 L 826,897 L 825,897 L 825,898 L 824,898 L 823,899 L 822,899 L 821,898 L 820,898 L 819,899 L 818,900 L 818,901 L 818,902 L 818,903 L 818,904 L 818,903 L 817,903 L 816,903 L 816,902 L 815,902 L 816,902 L 816,903 L 816,904 L 817,904 L 817,905 L 818,905 L 819,906 L 819,907 L 819,908 L 820,908 L 820,909 L 821,909 L 821,910 L 821,911 L 822,912 L 821,912 L 821,913 L 820,914 L 819,914 L 818,914 L 818,915 L 819,915 L 819,916 L 819,917 L 818,917 L 817,917 L 817,916 L 817,915 L 817,914 L 817,913 L 816,913 L 815,912 L 815,911 L 816,910 L 816,909 L 816,908 L 815,907 L 815,906 L 815,905 L 815,904 L 814,904 L 813,903 L 812,903 L 811,903 L 810,903 L 809,903 L 808,902 L 808,901 L 809,901 L 809,900 L 810,900 L 810,899 L 809,899 L 808,899 L 807,900 L 806,900 L 805,900 L 805,899 L 805,898 L 805,897 L 806,897 L 807,897 L 807,896 L 808,896 L 809,895 L 808,894 L 807,893 L 806,893 L 805,893 L 804,893 L 804,892 L 803,892 L 802,892 L 801,892 L 800,892 L 799,892 L 798,892 L 798,893 L 797,893 L 797,894 L 796,894 L 796,893 L 796,892 L 796,891 L 796,890 L 796,889 L 796,888 L 796,887 L 797,887 L 798,886 L 800,886 L 801,886 L 802,886 L 804,886 L 806,886 L 807,886 L 808,887 L 809,887 L 810,887 L 811,887 L 812,887 L 813,886 L 814,886 L 815,886 L 816,886 L 817,886 L 818,886 L 819,886 L 820,886 L 821,887 L 822,887 L 823,886 L 822,885 L 822,884 L 822,883 L 823,883 L 824,883 L 825,883 L 826,883 L 827,883 L 827,884 L 826,885 L 826,886 L 825,886 L 825,887 L 824,887 L 824,888 L 823,888 L 822,888 L 822,889 L 821,889 L 821,890 L 822,890 L 823,890 L 824,890 L 825,890 L 826,889 L 827,889 L 828,889 L 829,889 L 830,889 L 831,888 L 832,887 L 832,886 L 833,886 L 834,885 L 835,884 L 835,883 L 836,883 L 837,882 L 839,880 L 840,880 L 841,880 L 842,879 L 843,878 L 843,877 L 842,876 L 841,875 L 840,875 L 840,874 L 839,874 L 839,873 L 839,872 L 840,872 L 840,871 L 841,871 L 841,870 L 842,870 L 842,869 L 843,869 L 843,868 L 844,868 L 844,867 L 844,866 L 844,865 L 845,865 L 845,864 L 846,864 L 847,864 L 848,864 L 849,864 L 850,864 L 850,863 L 849,862 L 848,862 L 847,861 L 846,861 L 846,860 L 847,860 L 848,859 L 849,859 L 850,859 L 850,858 L 850,857 L 851,857 L 852,857 L 853,857 L 853,856 L 853,855 L 853,854 L 854,854 L 855,853 L 856,852 L 856,851 L 856,850 L 856,849 L 855,848 L 854,847 L 853,846 L 852,845 L 852,844 L 853,844 L 853,843 L 852,842 L 851,841 L 850,840 L 848,839 L 848,838 L 847,837 L 846,836 L 845,836 L 844,835 L 843,834 L 842,834 L 841,832 L 840,830 L 839,829 L 838,829 L 837,829 L 837,828 L 836,827 L 836,826 L 836,825 L 835,824 L 835,823 L 834,823 L 833,823 L 833,822 L 832,822 L 831,821 L 830,819 L 829,818 L 828,817 L 827,815 L 826,814 L 824,812 L 823,809 L 822,807 L 821,805 L 820,803 L 820,802 L 819,801 L 818,800 L 818,799 L 817,799 L 817,798 L 816,797 L 816,796 L 815,795 L 815,794 L 814,794 L 813,795 L 813,796 L 813,797 L 812,798 L 811,798 L 811,797 L 810,797 L 809,797 L 809,798 L 810,798 L 810,799 L 810,800 L 809,800 L 808,800 L 808,801 L 808,802 L 808,803 L 807,803 L 806,803 L 806,804 L 805,804 L 805,805 L 805,806 L 805,807 L 804,807 L 803,808 L 803,809 L 803,810 L 802,810 L 801,810 L 801,811 L 801,812 L 801,813 L 801,814 L 801,815 L 800,814 L 799,814 L 799,813 L 799,812 L 798,812 L 798,811 L 798,810 L 797,810 L 796,810 L 795,810 L 794,809 L 793,809 L 793,808 L 794,807 L 795,807 L 795,806 L 796,806 L 797,806 L 798,805 L 798,804 L 798,803 L 798,802 L 798,801 L 797,801 L 796,801 L 795,801 L 795,802 L 794,802 L 793,802 L 792,802 L 791,802 L 790,802 L 789,802 L 789,801 L 788,801 L 787,801 L 787,800 L 787,799 L 788,799 L 788,798 L 787,798 L 787,797 L 787,796 L 787,795 L 787,794 L 786,794 L 786,793 L 785,792 L 785,791 L 785,790 L 785,789 L 785,788 L 785,787 L 785,786 L 784,786 L 783,785 L 782,785 L 781,785 L 780,784 L 781,784 L 782,783 L 784,781 L 786,780 L 787,779 L 788,778 L 789,776 L 791,774 L 791,773 L 792,772 L 792,771 L 792,769 L 793,767 L 793,766 L 793,763 L 794,762 L 794,761 L 794,760 L 794,759 L 794,756 L 794,755 L 794,754 L 794,752 L 794,751 L 794,750 L 794,749 L 793,748 L 793,747 L 793,745 L 792,744 L 793,744 L 794,743 L 795,743 L 797,743 L 798,743 L 799,742 L 800,742 L 800,741 L 801,741 L 802,740 L 804,738 L 805,737 L 805,736 L 805,735 L 806,732 L 806,731 L 806,730 L 806,729 L 807,727 L 807,725 L 807,724 L 808,723 L 809,723 L 809,722 L 810,722 L 811,721 L 812,721 L 813,721 L 814,720 L 815,720 L 816,720 L 817,720 L 819,720 L 820,720 L 821,720 L 822,721 L 823,722 L 823,723 L 824,724 L 825,725 L 825,726 L 826,727 L 827,728 L 827,729 L 828,730 L 828,731 L 828,732 L 829,733 L 829,734 L 830,735 L 830,736 L 831,738 L 832,738 L 832,739 L 834,741 L 835,742 L 835,743 L 835,744 L 836,744 L 837,745 L 838,746 L 839,747 L 840,748 L 841,749 L 842,749 L 842,750 L 843,750 L 844,751 L 845,751 L 845,752 L 846,753 L 846,752 L 847,751 L 848,751 L 850,750 L 851,749 L 853,748 L 854,750 L 855,753 L 857,756 L 858,759 L 858,760 L 859,763 L 862,767 L 863,769 L 864,774 L 865,776 L 868,782 L 869,783 L 870,787 L 870,788 L 871,790 L 872,791 L 872,792 L 873,792 L 874,792 L 875,792 L 876,790 L 877,789 L 881,786 L 882,786 L 883,784 L 884,784 L 885,783 L 885,782 L 887,781 L 889,780 L 890,779 L 893,778 L 896,776 L 897,776 L 905,771 L 906,770 L 908,769 L 913,765 L 915,764 L 920,761 L 922,759 L 926,756 L 929,754 L 942,745 L 944,743 L 945,745 L 946,748 L 948,750 L 950,752 L 951,754 L 955,758 L 956,758 L 957,759 L 957,760 L 959,762 L 961,766 L 963,769 L 964,771 L 964,773 L 964,775 L 964,778 L 964,780 L 964,781 L 965,782 L 966,782 L 968,782 L 970,783 L 978,785 L 979,785 L 982,786 L 984,786 L 986,787 L 990,789 L 992,789 L 993,790 L 994,791 L 995,792 L 998,796 L 999,797 L 1001,796 L 1003,795 L 1004,794 L 1005,794 L 1005,793 L 1006,792 L 1006,791 L 1007,788 L 1008,787 L 1009,785 L 1010,784 L 1012,783 L 1015,782 L 1018,781 L 1020,781 L 1022,781 L 1023,783 L 1024,785 L 1025,788 L 1027,790 L 1027,791 L 1029,792 L 1030,793 L 1032,794 L 1035,795 L 1036,796 L 1040,797 L 1044,799 L 1047,800 L 1049,800 L 1051,801 L 1052,801 L 1054,802 L 1058,802 L 1059,802 L 1061,802 L 1068,802 L 1071,801 L 1072,801 L 1074,801 L 1077,801 L 1080,801 L 1083,800 L 1087,800 L 1089,800 L 1092,800 L 1093,800 L 1098,800 L 1100,800 L 1109,800 L 1113,800 L 1115,799 L 1120,799 L 1123,798 L 1122,802 L 1122,804 L 1121,806 L 1121,809 L 1121,811 L 1121,813 L 1121,815 L 1122,818 L 1122,820 L 1123,821 " />
</g>
<g id="union_lektiko_δημοσ_αρταιων_5" >
<path d="M 1271,48 L 1274,48 L 1278,48 L 1280,48 L 1281,48 L 1282,49 L 1283,49 L 1284,50 L 1285,51 L 1287,53 L 1288,55 L 1289,56 L 1290,59 L 1290,60 L 1292,62 L 1293,63 L 1294,64 L 1296,66 L 1296,67 L 1296,69 L 1295,71 L 1294,73 L 1294,75 L 1294,77 L 1294,80 L 1294,81 L 1295,82 L 1296,84 L 1298,85 L 1300,89 L 1301,91 L 1302,93 L 1303,95 L 1304,96 L 1305,100 L 1306,102 L 1307,103 L 1307,104 L 1308,105 L 1309,106 L 1311,108 L 1312,109 L 1312,110 L 1312,111 L 1312,112 L 1311,114 L 1311,115 L 1310,117 L 1311,118 L 1311,119 L 1311,120 L 1313,123 L 1314,125 L 1315,127 L 1314,130 L 1314,131 L 1313,133 L 1311,134 L 1311,135 L 1310,136 L 1310,139 L 1309,141 L 1309,142 L 1307,145 L 1306,147 L 1306,148 L 1306,149 L 1305,152 L 1304,153 L 1303,155 L 1302,155 L 1302,156 L 1301,156 L 1300,156 L 1297,155 L 1296,155 L 1295,155 L 1294,155 L 1293,155 L 1292,156 L 1291,157 L 1291,158 L 1291,163 L 1290,166 L 1290,168 L 1290,169 L 1290,171 L 1290,174 L 1291,178 L 1291,179 L 1291,181 L 1290,183 L 1289,183 L 1289,184 L 1287,185 L 1286,185 L 1284,186 L 1283,186 L 1281,187 L 1279,188 L 1278,189 L 1276,191 L 1276,194 L 1277,195 L 1277,196 L 1281,200 L 1283,202 L 1286,204 L 1286,205 L 1287,206 L 1287,207 L 1287,208 L 1286,209 L 1286,210 L 1283,213 L 1282,215 L 1281,216 L 1281,218 L 1281,219 L 1281,220 L 1281,221 L 1282,222 L 1284,224 L 1285,225 L 1285,226 L 1285,227 L 1284,227 L 1284,228 L 1284,229 L 1283,229 L 1282,230 L 1281,230 L 1280,231 L 1275,232 L 1274,232 L 1273,233 L 1271,234 L 1269,235 L 1268,236 L 1267,237 L 1265,238 L 1264,239 L 1263,240 L 1263,241 L 1262,242 L 1263,243 L 1263,245 L 1264,245 L 1264,246 L 1266,247 L 1267,248 L 1270,250 L 1272,252 L 1273,253 L 1273,254 L 1274,256 L 1275,257 L 1279,263 L 1280,265 L 1280,266 L 1279,268 L 1279,269 L 1277,270 L 1276,271 L 1271,273 L 1266,275 L 1261,277 L 1256,279 L 1254,280 L 1253,281 L 1252,282 L 1252,283 L 1252,285 L 1252,294 L 1252,297 L 1252,300 L 1253,305 L 1254,306 L 1254,307 L 1254,309 L 1253,311 L 1253,313 L 1252,314 L 1250,316 L 1249,317 L 1248,318 L 1246,319 L 1244,321 L 1243,321 L 1242,322 L 1242,325 L 1242,327 L 1242,331 L 1242,332 L 1242,334 L 1241,335 L 1241,336 L 1240,337 L 1239,340 L 1238,340 L 1238,341 L 1237,341 L 1236,342 L 1235,342 L 1234,341 L 1233,341 L 1232,340 L 1229,338 L 1229,337 L 1227,336 L 1226,336 L 1224,336 L 1223,336 L 1222,337 L 1221,339 L 1221,340 L 1222,342 L 1222,343 L 1222,344 L 1223,346 L 1225,348 L 1225,349 L 1226,350 L 1227,351 L 1228,351 L 1230,352 L 1232,351 L 1234,351 L 1236,351 L 1237,351 L 1237,352 L 1238,352 L 1238,353 L 1239,353 L 1239,354 L 1240,355 L 1239,356 L 1239,357 L 1239,358 L 1238,359 L 1237,360 L 1236,360 L 1234,361 L 1231,361 L 1229,361 L 1227,361 L 1223,360 L 1221,360 L 1219,360 L 1218,361 L 1216,361 L 1216,362 L 1215,363 L 1214,365 L 1213,366 L 1211,370 L 1210,371 L 1209,372 L 1209,374 L 1208,375 L 1208,376 L 1209,377 L 1210,377 L 1211,377 L 1214,377 L 1214,376 L 1219,375 L 1220,374 L 1221,375 L 1222,375 L 1222,376 L 1223,377 L 1224,380 L 1224,382 L 1224,383 L 1222,383 L 1218,383 L 1217,383 L 1217,384 L 1214,384 L 1213,384 L 1212,384 L 1209,383 L 1206,383 L 1204,383 L 1201,383 L 1200,382 L 1199,382 L 1194,380 L 1193,380 L 1191,379 L 1187,379 L 1186,379 L 1184,379 L 1183,379 L 1181,379 L 1180,379 L 1178,380 L 1176,380 L 1175,381 L 1171,381 L 1166,382 L 1164,382 L 1161,382 L 1158,382 L 1157,382 L 1156,382 L 1155,383 L 1153,386 L 1153,387 L 1152,388 L 1149,390 L 1148,391 L 1147,391 L 1146,392 L 1145,392 L 1140,393 L 1137,393 L 1134,394 L 1132,394 L 1129,395 L 1128,395 L 1127,396 L 1125,397 L 1124,397 L 1123,398 L 1122,400 L 1121,401 L 1120,403 L 1118,406 L 1116,409 L 1115,412 L 1114,414 L 1112,418 L 1110,422 L 1108,424 L 1107,426 L 1106,427 L 1105,428 L 1104,429 L 1102,431 L 1100,432 L 1099,433 L 1095,435 L 1092,437 L 1091,438 L 1090,438 L 1089,440 L 1087,442 L 1086,444 L 1085,447 L 1084,448 L 1084,450 L 1085,452 L 1085,455 L 1085,457 L 1084,457 L 1084,459 L 1083,462 L 1081,467 L 1080,468 L 1077,472 L 1077,474 L 1076,475 L 1076,476 L 1076,478 L 1076,479 L 1076,480 L 1077,481 L 1079,484 L 1080,486 L 1080,487 L 1081,490 L 1081,491 L 1080,496 L 1080,499 L 1080,500 L 1080,502 L 1080,504 L 1079,506 L 1079,508 L 1078,509 L 1077,509 L 1075,510 L 1071,511 L 1069,512 L 1066,513 L 1064,513 L 1060,514 L 1058,514 L 1056,514 L 1054,515 L 1052,515 L 1048,516 L 1044,516 L 1043,517 L 1042,517 L 1041,518 L 1041,519 L 1040,519 L 1040,522 L 1039,525 L 1039,528 L 1039,530 L 1039,532 L 1038,536 L 1038,537 L 1039,538 L 1042,539 L 1044,540 L 1047,540 L 1051,542 L 1052,542 L 1053,543 L 1054,544 L 1054,549 L 1055,551 L 1055,552 L 1054,553 L 1053,553 L 1052,554 L 1050,554 L 1049,554 L 1048,554 L 1046,555 L 1045,555 L 1043,555 L 1042,557 L 1041,557 L 1040,557 L 1039,557 L 1038,556 L 1037,556 L 1036,556 L 1036,557 L 1035,557 L 1034,558 L 1033,558 L 1032,558 L 1031,559 L 1031,558 L 1026,557 L 1021,556 L 1020,556 L 1018,556 L 1017,558 L 1017,559 L 1017,560 L 1016,562 L 1016,563 L 1014,565 L 1013,566 L 1010,568 L 1006,571 L 1004,573 L 1001,575 L 999,577 L 999,578 L 999,579 L 999,580 L 1000,580 L 1000,581 L 1001,581 L 1003,581 L 1005,581 L 1009,581 L 1010,581 L 1011,581 L 1013,582 L 1014,582 L 1015,583 L 1015,584 L 1015,585 L 1016,587 L 1015,588 L 1013,589 L 1011,590 L 1010,591 L 1009,591 L 1007,592 L 1006,593 L 1003,596 L 1002,597 L 1001,598 L 1000,599 L 999,600 L 997,602 L 996,602 L 996,603 L 995,603 L 994,603 L 993,603 L 992,604 L 989,604 L 988,604 L 985,605 L 986,603 L 987,601 L 987,600 L 988,600 L 988,599 L 988,598 L 988,597 L 988,595 L 989,594 L 989,593 L 989,592 L 989,590 L 989,589 L 988,587 L 988,585 L 987,583 L 987,581 L 987,580 L 986,579 L 986,578 L 986,577 L 985,576 L 985,575 L 985,574 L 985,573 L 984,572 L 984,571 L 985,570 L 984,568 L 984,566 L 983,566 L 983,565 L 983,564 L 982,563 L 982,562 L 981,561 L 980,561 L 980,560 L 979,559 L 977,558 L 977,557 L 976,556 L 974,555 L 974,554 L 973,553 L 971,552 L 970,551 L 967,549 L 966,549 L 965,548 L 964,547 L 964,546 L 963,545 L 962,544 L 961,542 L 960,542 L 959,541 L 958,542 L 958,541 L 957,541 L 957,540 L 956,539 L 956,538 L 956,537 L 955,535 L 954,534 L 954,533 L 953,532 L 952,531 L 951,530 L 950,530 L 949,530 L 948,531 L 947,531 L 945,531 L 945,530 L 944,530 L 943,530 L 942,530 L 942,529 L 941,529 L 941,528 L 941,527 L 941,526 L 941,525 L 940,525 L 940,524 L 940,522 L 939,521 L 939,520 L 938,519 L 938,518 L 938,517 L 937,516 L 935,515 L 935,514 L 934,514 L 935,513 L 935,512 L 935,511 L 935,509 L 935,508 L 936,507 L 936,506 L 936,505 L 937,503 L 937,501 L 937,500 L 938,500 L 938,499 L 938,497 L 937,497 L 937,496 L 937,495 L 936,495 L 936,494 L 936,492 L 936,491 L 935,490 L 934,489 L 931,486 L 931,485 L 930,484 L 929,482 L 928,480 L 927,478 L 927,476 L 927,475 L 926,474 L 926,473 L 926,471 L 925,469 L 924,468 L 924,467 L 923,466 L 923,465 L 923,464 L 922,463 L 921,461 L 921,460 L 920,460 L 920,459 L 919,458 L 918,457 L 917,456 L 915,454 L 914,453 L 913,453 L 912,452 L 911,452 L 910,452 L 909,453 L 908,453 L 907,453 L 906,453 L 905,452 L 905,450 L 904,449 L 905,448 L 906,446 L 906,445 L 907,444 L 908,443 L 909,442 L 909,441 L 910,441 L 911,440 L 912,439 L 913,438 L 914,438 L 915,437 L 916,435 L 917,434 L 918,433 L 918,432 L 919,431 L 919,430 L 919,429 L 920,429 L 920,428 L 920,427 L 921,427 L 921,426 L 922,425 L 922,424 L 923,423 L 924,422 L 925,421 L 925,420 L 926,419 L 926,418 L 927,417 L 927,416 L 929,414 L 931,414 L 932,414 L 933,414 L 937,414 L 938,414 L 939,414 L 941,414 L 942,413 L 945,413 L 946,413 L 947,414 L 948,414 L 949,414 L 950,415 L 951,415 L 952,415 L 953,416 L 953,417 L 953,418 L 953,420 L 954,421 L 954,422 L 955,423 L 955,424 L 955,426 L 955,427 L 956,428 L 957,428 L 957,429 L 958,429 L 958,430 L 958,431 L 958,432 L 958,433 L 959,434 L 958,434 L 959,435 L 960,435 L 960,436 L 961,435 L 962,435 L 963,435 L 963,434 L 964,434 L 964,433 L 965,432 L 965,431 L 966,430 L 967,429 L 968,427 L 969,426 L 969,425 L 970,425 L 971,423 L 971,422 L 972,421 L 973,421 L 974,420 L 975,419 L 976,418 L 977,418 L 978,418 L 979,418 L 980,418 L 981,419 L 982,419 L 983,419 L 985,419 L 986,420 L 987,420 L 988,420 L 989,421 L 990,422 L 991,421 L 991,420 L 992,419 L 993,418 L 993,417 L 993,416 L 994,415 L 994,414 L 995,413 L 995,412 L 995,411 L 996,410 L 996,409 L 997,408 L 998,407 L 999,406 L 999,405 L 1000,405 L 1001,404 L 1001,403 L 1002,402 L 1003,401 L 1005,400 L 1007,399 L 1007,398 L 1009,398 L 1010,397 L 1011,397 L 1013,396 L 1014,396 L 1016,396 L 1018,396 L 1019,396 L 1020,396 L 1022,395 L 1025,395 L 1027,395 L 1028,395 L 1031,395 L 1032,394 L 1033,394 L 1035,394 L 1035,393 L 1036,393 L 1037,393 L 1037,392 L 1039,391 L 1041,390 L 1042,389 L 1042,388 L 1043,388 L 1043,387 L 1044,386 L 1045,385 L 1045,384 L 1045,383 L 1046,381 L 1046,380 L 1046,379 L 1046,378 L 1046,377 L 1047,375 L 1047,374 L 1047,373 L 1047,372 L 1047,371 L 1047,370 L 1047,369 L 1047,368 L 1047,366 L 1047,365 L 1047,364 L 1046,364 L 1046,363 L 1047,362 L 1048,360 L 1049,358 L 1050,357 L 1051,355 L 1052,354 L 1053,353 L 1054,353 L 1056,352 L 1057,352 L 1059,351 L 1060,351 L 1061,351 L 1062,351 L 1064,351 L 1066,351 L 1067,351 L 1069,350 L 1071,349 L 1072,349 L 1073,348 L 1074,348 L 1075,347 L 1076,346 L 1077,346 L 1078,345 L 1079,345 L 1081,343 L 1082,341 L 1083,341 L 1084,339 L 1085,338 L 1086,337 L 1087,336 L 1088,336 L 1089,335 L 1091,334 L 1092,334 L 1092,333 L 1094,333 L 1095,333 L 1096,333 L 1097,333 L 1098,333 L 1099,333 L 1100,333 L 1101,333 L 1102,333 L 1103,333 L 1104,333 L 1105,333 L 1106,333 L 1106,332 L 1107,332 L 1107,331 L 1108,331 L 1109,330 L 1109,329 L 1110,329 L 1110,328 L 1111,327 L 1111,326 L 1112,325 L 1112,324 L 1112,323 L 1113,322 L 1113,321 L 1114,320 L 1114,318 L 1115,317 L 1115,315 L 1115,313 L 1116,312 L 1116,311 L 1117,310 L 1117,309 L 1117,308 L 1117,307 L 1118,304 L 1119,302 L 1119,301 L 1119,300 L 1120,299 L 1120,298 L 1120,297 L 1120,296 L 1121,295 L 1121,294 L 1121,293 L 1121,292 L 1122,289 L 1122,288 L 1122,286 L 1122,285 L 1123,283 L 1123,282 L 1123,281 L 1124,279 L 1124,278 L 1124,277 L 1124,276 L 1124,273 L 1124,272 L 1125,271 L 1125,270 L 1125,268 L 1126,267 L 1126,266 L 1127,265 L 1128,264 L 1129,263 L 1130,262 L 1131,261 L 1132,260 L 1134,258 L 1135,257 L 1136,255 L 1137,255 L 1137,254 L 1138,254 L 1138,253 L 1139,253 L 1142,250 L 1142,249 L 1143,249 L 1143,248 L 1144,248 L 1144,247 L 1145,246 L 1146,245 L 1148,244 L 1149,243 L 1150,242 L 1151,241 L 1152,240 L 1153,239 L 1154,239 L 1155,238 L 1155,237 L 1156,236 L 1157,236 L 1158,235 L 1159,234 L 1160,234 L 1160,233 L 1161,232 L 1164,230 L 1165,228 L 1166,227 L 1167,226 L 1168,224 L 1169,223 L 1169,222 L 1170,221 L 1170,220 L 1171,219 L 1172,219 L 1172,218 L 1173,217 L 1173,216 L 1174,215 L 1175,214 L 1176,213 L 1177,212 L 1177,211 L 1178,210 L 1178,209 L 1179,208 L 1180,206 L 1181,205 L 1181,204 L 1181,203 L 1181,202 L 1182,201 L 1182,200 L 1182,199 L 1183,198 L 1183,197 L 1183,196 L 1184,196 L 1184,195 L 1184,194 L 1182,194 L 1180,194 L 1179,193 L 1178,193 L 1174,193 L 1171,192 L 1170,192 L 1167,192 L 1166,192 L 1165,192 L 1163,192 L 1162,192 L 1160,192 L 1157,192 L 1156,192 L 1155,193 L 1154,193 L 1153,193 L 1152,193 L 1149,194 L 1148,194 L 1147,194 L 1146,195 L 1145,195 L 1143,196 L 1144,195 L 1144,193 L 1144,192 L 1143,192 L 1144,190 L 1144,189 L 1144,188 L 1144,187 L 1143,186 L 1143,185 L 1143,183 L 1143,182 L 1143,180 L 1143,179 L 1144,178 L 1144,176 L 1144,175 L 1144,174 L 1145,172 L 1145,170 L 1145,169 L 1146,168 L 1146,167 L 1145,166 L 1145,165 L 1145,164 L 1145,163 L 1146,161 L 1146,160 L 1146,159 L 1146,158 L 1146,157 L 1147,157 L 1147,155 L 1148,155 L 1149,154 L 1149,153 L 1150,153 L 1150,152 L 1151,152 L 1151,151 L 1152,150 L 1153,149 L 1154,148 L 1154,147 L 1155,146 L 1155,145 L 1155,144 L 1156,143 L 1156,142 L 1157,141 L 1158,141 L 1158,140 L 1159,139 L 1160,138 L 1160,137 L 1161,136 L 1161,135 L 1161,134 L 1162,134 L 1162,133 L 1163,132 L 1163,131 L 1163,130 L 1164,130 L 1165,128 L 1166,127 L 1167,126 L 1167,125 L 1168,124 L 1168,123 L 1169,122 L 1169,121 L 1170,121 L 1171,119 L 1172,118 L 1172,117 L 1173,116 L 1174,115 L 1175,113 L 1176,112 L 1177,110 L 1178,108 L 1178,107 L 1179,106 L 1179,105 L 1180,103 L 1181,101 L 1181,98 L 1182,97 L 1182,95 L 1183,94 L 1184,92 L 1185,90 L 1185,89 L 1186,88 L 1186,86 L 1187,86 L 1187,84 L 1188,82 L 1189,80 L 1189,79 L 1190,78 L 1190,77 L 1191,75 L 1192,73 L 1193,71 L 1194,71 L 1195,71 L 1196,71 L 1197,71 L 1198,71 L 1200,70 L 1202,70 L 1203,70 L 1204,70 L 1206,66 L 1207,65 L 1207,64 L 1208,63 L 1209,62 L 1209,61 L 1210,59 L 1213,57 L 1215,54 L 1216,53 L 1217,52 L 1218,51 L 1219,50 L 1220,50 L 1222,49 L 1223,49 L 1224,49 L 1226,48 L 1228,47 L 1229,47 L 1232,45 L 1233,44 L 1234,44 L 1235,43 L 1236,43 L 1238,41 L 1239,40 L 1240,40 L 1240,39 L 1241,38 L 1242,37 L 1243,36 L 1245,34 L 1246,33 L 1247,33 L 1247,32 L 1248,32 L 1249,31 L 1250,30 L 1250,29 L 1250,28 L 1251,26 L 1252,28 L 1254,30 L 1256,31 L 1259,33 L 1260,34 L 1262,35 L 1263,37 L 1264,38 L 1264,39 L 1265,39 L 1266,42 L 1267,43 L 1268,46 L 1269,47 L 1271,48 " />
</g>
</g>
</g>
<!-- QGIS extent for clipping, eg in Inkscape -->
<g id="qgisviewbox" inkscape:groupmode="layer" inkscape:label="qgisviewbox" stroke="rgb(255,0,0)" stroke-width="1" fill="none" >
<path d="M 0,1114 L 2010,1114 L 2010,0 L 0,0 L 0,1114 " />
</g></svg>