<?xml version="1.0" standalone="no"?>
<!DOCTYPE svg PUBLIC "-//W3C//DTD SVG 1.1//EN" "http://www.w3.org/Graphics/SVG/1.1/DTD/svg11.dtd">
<svg xmlns="http://www.w3.org/2000/svg" xmlns:inkscape="http://www.inkscape.org/namespaces/inkscape" xmlns:xlink="http://www.w3.org/1999/xlink" viewBox = "0 0 2013 1116" version = "1.1">
<!-- svg generated using QGIS www.qgis.org -->
<g id="union_lektiko_δημοσ_αργοστολιου" inkscape:groupmode="layer" inkscape:label="union_lektiko_δημοσ_αργοστολιου">
<g stroke="none" fill="rgb(214,131,68)" stroke-linejoin="round" stroke-width="0.26">
<g id="union_lektiko_δημοσ_αργοστολιου_1" >
<path d="M 774,952 L 773,952 L 772,952 L 772,951 L 771,951 L 771,950 L 772,950 L 772,949 L 773,949 L 774,949 L 775,949 L 776,950 L 776,951 L 776,952 L 775,952 L 774,952 " />
<path d="M 906,889 L 905,889 L 905,888 L 905,887 L 906,887 L 907,888 L 906,888 L 906,889 " />
<path d="M 1147,937 L 1146,937 L 1146,936 L 1144,936 L 1143,936 L 1142,937 L 1141,936 L 1139,935 L 1138,935 L 1137,934 L 1136,935 L 1134,935 L 1133,935 L 1132,935 L 1131,934 L 1130,933 L 1129,932 L 1128,932 L 1127,931 L 1126,931 L 1125,931 L 1124,932 L 1123,932 L 1122,932 L 1122,931 L 1121,930 L 1121,929 L 1121,928 L 1121,927 L 1121,926 L 1120,926 L 1119,925 L 1118,925 L 1117,925 L 1116,925 L 1115,925 L 1114,926 L 1113,927 L 1113,928 L 1112,928 L 1112,929 L 1112,930 L 1111,930 L 1110,930 L 1110,929 L 1109,928 L 1109,927 L 1110,926 L 1110,925 L 1110,924 L 1110,923 L 1109,921 L 1106,919 L 1105,917 L 1103,915 L 1102,914 L 1100,912 L 1099,911 L 1097,910 L 1097,909 L 1096,909 L 1095,908 L 1094,908 L 1093,908 L 1092,907 L 1091,907 L 1091,906 L 1090,905 L 1090,904 L 1088,903 L 1087,902 L 1085,900 L 1083,899 L 1082,898 L 1081,897 L 1080,896 L 1079,895 L 1078,895 L 1077,896 L 1076,896 L 1075,895 L 1074,894 L 1073,894 L 1072,893 L 1071,893 L 1070,892 L 1070,891 L 1071,889 L 1070,888 L 1070,887 L 1070,885 L 1070,884 L 1070,883 L 1070,882 L 1070,880 L 1071,880 L 1071,879 L 1071,878 L 1071,877 L 1070,876 L 1069,875 L 1067,874 L 1066,873 L 1064,871 L 1062,870 L 1061,869 L 1059,868 L 1057,867 L 1055,866 L 1054,865 L 1052,864 L 1050,862 L 1048,861 L 1047,860 L 1044,859 L 1043,859 L 1042,858 L 1040,857 L 1038,856 L 1036,855 L 1035,855 L 1034,855 L 1033,855 L 1032,855 L 1030,855 L 1028,854 L 1027,853 L 1025,852 L 1023,851 L 1022,850 L 1020,849 L 1018,849 L 1016,848 L 1015,848 L 1013,847 L 1011,846 L 1009,845 L 1008,845 L 1006,844 L 1005,844 L 1003,843 L 1002,843 L 1000,843 L 999,842 L 997,842 L 996,842 L 995,842 L 993,841 L 991,841 L 990,841 L 988,840 L 986,840 L 985,840 L 983,840 L 982,840 L 980,840 L 978,840 L 977,841 L 975,840 L 974,840 L 973,839 L 972,839 L 971,839 L 970,839 L 969,839 L 968,839 L 966,839 L 964,840 L 963,840 L 962,841 L 961,842 L 961,843 L 960,844 L 960,845 L 960,846 L 960,848 L 959,848 L 959,849 L 958,849 L 957,849 L 957,848 L 956,847 L 956,846 L 955,845 L 954,845 L 953,845 L 952,845 L 950,845 L 949,846 L 948,846 L 947,845 L 946,845 L 946,846 L 945,847 L 945,848 L 944,849 L 943,849 L 942,850 L 942,851 L 941,854 L 940,857 L 940,858 L 940,859 L 939,860 L 938,860 L 937,861 L 937,862 L 936,862 L 936,864 L 935,864 L 935,863 L 935,862 L 935,861 L 934,860 L 934,861 L 933,862 L 932,862 L 932,863 L 931,863 L 931,864 L 930,864 L 929,864 L 928,863 L 928,862 L 927,862 L 926,862 L 926,863 L 925,864 L 924,864 L 922,866 L 921,867 L 920,868 L 919,868 L 919,869 L 918,869 L 918,870 L 917,870 L 917,871 L 916,872 L 915,873 L 915,874 L 914,875 L 914,876 L 914,877 L 913,878 L 912,877 L 911,877 L 910,877 L 909,876 L 908,876 L 907,876 L 906,876 L 906,877 L 905,878 L 905,879 L 904,880 L 904,881 L 904,883 L 904,884 L 904,885 L 904,886 L 903,886 L 902,885 L 901,885 L 901,884 L 900,884 L 899,884 L 898,884 L 897,885 L 895,885 L 894,885 L 893,885 L 892,885 L 891,884 L 890,884 L 888,884 L 886,884 L 885,884 L 884,884 L 883,884 L 882,884 L 880,885 L 879,885 L 878,885 L 877,885 L 876,885 L 875,885 L 874,885 L 873,886 L 872,886 L 872,887 L 872,888 L 872,889 L 871,890 L 870,891 L 869,892 L 869,893 L 869,894 L 869,895 L 870,895 L 870,896 L 869,896 L 869,895 L 868,896 L 867,896 L 867,895 L 866,895 L 865,895 L 864,895 L 863,895 L 863,896 L 862,896 L 861,896 L 860,896 L 859,896 L 858,897 L 857,898 L 856,898 L 856,899 L 856,900 L 856,901 L 855,901 L 855,900 L 854,900 L 853,900 L 853,899 L 852,899 L 852,900 L 851,900 L 851,901 L 850,902 L 850,903 L 849,903 L 848,904 L 847,904 L 847,905 L 846,905 L 846,906 L 845,907 L 845,908 L 845,909 L 844,909 L 844,910 L 844,911 L 844,912 L 844,913 L 844,915 L 845,916 L 845,917 L 845,918 L 847,919 L 847,920 L 848,920 L 848,921 L 847,922 L 846,922 L 845,923 L 845,924 L 845,925 L 845,926 L 844,927 L 843,927 L 843,928 L 842,928 L 842,929 L 841,929 L 841,930 L 840,931 L 840,932 L 841,932 L 842,933 L 842,934 L 843,935 L 843,936 L 844,936 L 844,937 L 843,937 L 842,938 L 843,939 L 843,940 L 844,941 L 843,942 L 842,941 L 841,941 L 840,941 L 840,940 L 839,940 L 838,941 L 837,940 L 836,940 L 835,939 L 834,939 L 834,938 L 833,938 L 832,937 L 831,937 L 830,937 L 830,936 L 829,936 L 828,935 L 827,935 L 826,934 L 825,934 L 824,934 L 823,933 L 822,932 L 821,931 L 820,931 L 818,931 L 816,931 L 815,931 L 814,931 L 812,931 L 810,932 L 808,932 L 807,932 L 806,931 L 805,931 L 804,931 L 803,931 L 803,929 L 803,928 L 802,927 L 801,926 L 800,925 L 799,924 L 798,923 L 795,921 L 794,920 L 792,919 L 791,918 L 789,916 L 787,915 L 786,914 L 785,914 L 785,913 L 783,912 L 782,911 L 781,909 L 779,907 L 778,906 L 777,904 L 775,903 L 773,902 L 772,900 L 770,899 L 769,897 L 767,895 L 765,894 L 762,892 L 761,891 L 759,890 L 758,889 L 756,888 L 755,887 L 753,886 L 751,886 L 750,885 L 748,884 L 746,883 L 744,883 L 743,883 L 740,883 L 738,882 L 737,882 L 736,882 L 735,882 L 733,883 L 732,885 L 731,887 L 730,887 L 730,888 L 729,888 L 728,889 L 726,889 L 725,888 L 723,887 L 722,887 L 721,886 L 721,885 L 720,885 L 719,883 L 718,882 L 717,882 L 716,883 L 715,883 L 714,884 L 713,884 L 711,884 L 710,884 L 709,887 L 708,888 L 708,889 L 707,890 L 706,891 L 704,891 L 703,891 L 702,891 L 701,891 L 701,890 L 700,890 L 699,889 L 698,888 L 697,887 L 696,886 L 694,885 L 694,884 L 693,883 L 692,883 L 690,883 L 690,882 L 689,882 L 688,883 L 687,884 L 687,885 L 687,886 L 687,887 L 687,888 L 688,889 L 688,890 L 688,891 L 688,892 L 687,892 L 687,893 L 686,893 L 685,893 L 685,892 L 684,892 L 684,891 L 683,890 L 683,889 L 683,888 L 683,887 L 683,886 L 683,885 L 683,884 L 682,883 L 681,882 L 680,882 L 681,881 L 681,880 L 681,879 L 681,878 L 680,878 L 679,878 L 678,877 L 678,876 L 679,876 L 679,875 L 680,875 L 680,874 L 680,873 L 680,872 L 681,872 L 681,871 L 681,870 L 681,869 L 680,868 L 679,866 L 679,865 L 679,864 L 679,863 L 679,861 L 678,860 L 677,859 L 676,858 L 675,857 L 674,857 L 673,857 L 672,857 L 670,856 L 669,856 L 667,855 L 666,855 L 664,855 L 664,856 L 662,856 L 662,855 L 661,856 L 660,855 L 660,853 L 659,853 L 659,852 L 659,851 L 659,850 L 660,850 L 659,850 L 658,849 L 657,848 L 656,847 L 655,846 L 654,845 L 653,844 L 651,842 L 649,841 L 648,840 L 646,838 L 645,837 L 643,836 L 641,835 L 640,834 L 639,833 L 638,832 L 637,831 L 636,830 L 635,830 L 634,829 L 633,829 L 632,827 L 631,826 L 630,825 L 629,825 L 628,825 L 627,824 L 625,824 L 626,823 L 639,819 L 652,833 L 655,839 L 658,843 L 660,846 L 665,850 L 672,845 L 669,841 L 653,807 L 655,808 L 658,807 L 659,807 L 662,808 L 665,807 L 667,808 L 669,807 L 673,805 L 676,806 L 679,808 L 682,807 L 684,806 L 687,804 L 685,803 L 678,793 L 672,784 L 662,764 L 660,757 L 660,756 L 660,754 L 663,752 L 668,753 L 685,757 L 694,759 L 697,759 L 701,759 L 712,759 L 725,757 L 740,757 L 749,758 L 754,761 L 755,761 L 755,762 L 759,769 L 761,774 L 761,775 L 763,776 L 765,776 L 766,776 L 773,773 L 779,768 L 783,760 L 784,751 L 785,747 L 787,748 L 790,749 L 800,750 L 805,750 L 815,749 L 849,744 L 867,740 L 873,736 L 875,735 L 876,740 L 879,750 L 883,750 L 896,751 L 899,751 L 921,744 L 923,743 L 925,744 L 930,745 L 944,747 L 950,746 L 956,743 L 957,743 L 962,740 L 981,736 L 983,735 L 986,735 L 988,734 L 1020,725 L 1030,720 L 1036,717 L 1049,708 L 1049,707 L 1054,709 L 1057,710 L 1060,712 L 1065,716 L 1071,720 L 1079,725 L 1081,726 L 1082,726 L 1085,727 L 1090,731 L 1112,754 L 1118,758 L 1120,759 L 1122,761 L 1138,770 L 1145,774 L 1154,775 L 1161,776 L 1165,778 L 1167,779 L 1186,801 L 1188,803 L 1188,805 L 1190,809 L 1204,824 L 1223,848 L 1225,852 L 1226,854 L 1217,859 L 1210,864 L 1206,867 L 1199,874 L 1194,879 L 1192,881 L 1190,884 L 1182,892 L 1175,900 L 1170,906 L 1168,907 L 1164,911 L 1157,917 L 1153,920 L 1149,925 L 1149,927 L 1148,931 L 1147,934 L 1147,936 L 1147,937 " />
</g>
<g id="union_lektiko_δημοσ_αργοστολιου_2" >
<path d="M 907,461 L 911,462 L 913,464 L 914,465 L 922,475 L 932,485 L 947,497 L 972,519 L 1000,535 L 1009,538 L 1058,549 L 1060,550 L 1062,551 L 1065,553 L 1109,578 L 1119,584 L 1122,586 L 1123,587 L 1123,588 L 1126,593 L 1129,604 L 1129,606 L 1127,622 L 1122,631 L 1121,634 L 1108,647 L 1097,658 L 1087,669 L 1080,675 L 1063,690 L 1055,700 L 1051,705 L 1049,707 L 1049,708 L 1036,717 L 1030,720 L 1020,725 L 988,734 L 986,735 L 983,735 L 981,736 L 962,740 L 957,743 L 956,743 L 950,746 L 944,747 L 930,745 L 925,744 L 923,743 L 921,744 L 899,751 L 896,751 L 883,750 L 879,750 L 876,740 L 875,735 L 876,733 L 880,724 L 882,715 L 883,709 L 880,703 L 866,685 L 866,684 L 867,678 L 867,676 L 872,652 L 870,647 L 869,645 L 867,642 L 864,639 L 856,630 L 850,624 L 844,616 L 827,605 L 824,604 L 824,601 L 824,591 L 822,583 L 814,569 L 801,555 L 793,543 L 790,539 L 791,536 L 792,535 L 794,533 L 799,530 L 801,530 L 803,530 L 806,530 L 819,534 L 824,533 L 836,530 L 848,525 L 857,518 L 863,511 L 869,504 L 871,502 L 878,499 L 883,498 L 889,497 L 892,496 L 893,496 L 894,495 L 899,487 L 902,478 L 905,470 L 907,464 L 907,461 " />
</g>
<g id="union_lektiko_δημοσ_αργοστολιου_3" >
<path d="M 623,779 L 622,779 L 621,778 L 621,777 L 620,777 L 620,776 L 619,776 L 619,775 L 618,774 L 618,773 L 619,773 L 620,774 L 620,775 L 621,775 L 621,776 L 622,776 L 622,777 L 623,778 L 623,779 " />
<path d="M 605,810 L 604,810 L 603,810 L 602,810 L 602,809 L 601,809 L 601,808 L 602,808 L 603,808 L 603,807 L 604,807 L 604,806 L 605,806 L 605,807 L 605,808 L 605,809 L 605,810 " />
<path d="M 625,824 L 624,824 L 623,824 L 623,823 L 621,823 L 620,823 L 619,821 L 618,820 L 618,819 L 617,819 L 616,819 L 616,818 L 615,818 L 614,818 L 614,817 L 613,816 L 613,815 L 612,815 L 611,815 L 611,814 L 611,813 L 611,812 L 612,811 L 613,811 L 614,811 L 614,812 L 616,812 L 616,811 L 617,810 L 618,809 L 618,808 L 617,807 L 618,806 L 618,805 L 618,804 L 617,804 L 617,803 L 618,802 L 619,803 L 620,804 L 621,804 L 622,803 L 622,802 L 622,801 L 621,800 L 621,799 L 622,798 L 623,798 L 623,799 L 624,799 L 625,798 L 626,796 L 626,795 L 627,794 L 627,793 L 626,792 L 626,791 L 626,790 L 626,789 L 626,788 L 626,787 L 626,786 L 625,785 L 625,784 L 624,783 L 623,782 L 623,781 L 624,780 L 625,780 L 626,781 L 627,781 L 628,780 L 629,780 L 630,779 L 631,779 L 632,779 L 633,777 L 634,776 L 635,774 L 636,773 L 636,772 L 636,771 L 637,771 L 637,770 L 638,769 L 638,768 L 639,768 L 639,767 L 639,766 L 639,765 L 639,764 L 639,763 L 638,763 L 637,761 L 637,760 L 636,759 L 635,758 L 635,757 L 634,756 L 634,755 L 634,754 L 634,753 L 634,752 L 633,751 L 633,750 L 633,749 L 633,748 L 632,748 L 631,748 L 631,747 L 631,746 L 632,746 L 632,745 L 631,744 L 631,743 L 630,742 L 629,740 L 628,739 L 628,738 L 628,737 L 627,736 L 626,736 L 625,736 L 625,735 L 626,735 L 626,734 L 626,733 L 625,732 L 624,731 L 624,730 L 624,729 L 623,728 L 622,727 L 621,726 L 621,725 L 620,725 L 619,724 L 619,723 L 618,722 L 617,722 L 616,722 L 616,720 L 615,718 L 615,717 L 615,716 L 614,716 L 613,715 L 613,714 L 612,714 L 612,713 L 611,712 L 611,711 L 610,711 L 609,710 L 608,710 L 607,711 L 607,712 L 606,712 L 606,711 L 605,710 L 606,708 L 607,707 L 608,707 L 609,707 L 609,706 L 610,705 L 609,704 L 609,703 L 609,702 L 608,701 L 608,700 L 608,699 L 607,698 L 606,697 L 606,696 L 605,696 L 604,694 L 603,693 L 602,692 L 601,691 L 600,690 L 598,689 L 596,688 L 595,687 L 593,686 L 592,685 L 590,684 L 589,683 L 588,683 L 588,682 L 587,681 L 586,681 L 585,681 L 584,681 L 583,682 L 582,683 L 581,683 L 581,682 L 581,680 L 580,679 L 580,678 L 579,677 L 579,676 L 578,675 L 578,674 L 577,673 L 577,672 L 576,671 L 577,670 L 577,669 L 577,668 L 577,667 L 578,666 L 579,666 L 579,667 L 579,668 L 580,668 L 580,669 L 581,669 L 582,670 L 583,670 L 584,670 L 585,669 L 586,668 L 587,668 L 588,667 L 589,667 L 590,666 L 591,666 L 592,665 L 593,664 L 593,663 L 594,662 L 594,661 L 594,660 L 594,659 L 594,658 L 594,657 L 594,656 L 594,655 L 595,655 L 595,654 L 594,653 L 595,652 L 595,651 L 595,650 L 595,649 L 594,649 L 594,648 L 593,648 L 593,647 L 594,647 L 595,647 L 595,646 L 596,646 L 596,645 L 595,645 L 595,644 L 595,643 L 595,642 L 594,642 L 593,641 L 592,639 L 593,639 L 593,638 L 594,638 L 594,637 L 595,637 L 595,636 L 595,635 L 595,634 L 595,633 L 596,632 L 596,631 L 595,631 L 595,630 L 595,629 L 596,629 L 596,628 L 597,628 L 597,627 L 597,626 L 598,626 L 599,626 L 599,627 L 600,626 L 600,625 L 601,624 L 601,622 L 600,621 L 600,620 L 599,620 L 599,619 L 599,618 L 598,617 L 598,616 L 597,615 L 596,615 L 595,614 L 596,614 L 597,613 L 596,613 L 596,612 L 595,612 L 595,611 L 595,610 L 594,610 L 593,610 L 593,609 L 592,608 L 592,607 L 592,606 L 592,605 L 592,604 L 591,604 L 590,604 L 589,603 L 589,602 L 588,601 L 588,600 L 587,600 L 587,599 L 586,599 L 586,598 L 585,597 L 585,596 L 584,595 L 584,594 L 585,594 L 585,593 L 585,592 L 585,591 L 585,590 L 584,590 L 584,589 L 583,588 L 583,587 L 583,586 L 583,585 L 582,585 L 582,584 L 581,583 L 581,582 L 580,582 L 579,581 L 579,580 L 579,579 L 579,578 L 580,578 L 580,577 L 580,576 L 580,575 L 580,574 L 579,574 L 579,573 L 578,573 L 578,572 L 577,571 L 577,572 L 576,572 L 575,572 L 575,571 L 574,571 L 573,570 L 573,569 L 573,568 L 572,567 L 572,566 L 572,565 L 572,566 L 571,566 L 571,565 L 570,564 L 570,563 L 570,562 L 570,561 L 569,560 L 568,559 L 568,558 L 569,557 L 570,557 L 570,556 L 570,555 L 570,554 L 570,553 L 569,552 L 568,553 L 567,552 L 567,553 L 566,553 L 566,552 L 565,552 L 565,551 L 565,550 L 566,549 L 565,549 L 565,548 L 564,548 L 564,549 L 563,549 L 563,548 L 564,547 L 564,546 L 565,546 L 565,545 L 566,545 L 567,545 L 568,545 L 569,545 L 570,545 L 571,545 L 572,546 L 573,546 L 574,546 L 575,545 L 576,545 L 577,545 L 578,544 L 579,543 L 580,542 L 581,541 L 582,540 L 583,539 L 584,539 L 585,538 L 586,538 L 587,538 L 588,539 L 589,540 L 590,541 L 591,542 L 592,543 L 593,544 L 594,545 L 595,545 L 595,546 L 596,547 L 596,548 L 596,549 L 597,549 L 598,550 L 599,550 L 600,551 L 601,552 L 602,554 L 602,555 L 603,556 L 603,557 L 604,558 L 604,559 L 604,560 L 604,561 L 605,562 L 605,563 L 605,564 L 606,564 L 607,564 L 608,565 L 608,566 L 609,567 L 610,568 L 611,569 L 612,570 L 612,571 L 613,572 L 613,573 L 614,573 L 615,573 L 615,574 L 616,574 L 617,574 L 618,575 L 619,576 L 620,576 L 621,577 L 621,578 L 622,578 L 623,579 L 623,580 L 623,581 L 623,582 L 623,583 L 623,584 L 623,585 L 624,585 L 625,586 L 626,586 L 626,587 L 626,588 L 627,589 L 628,589 L 629,589 L 629,590 L 629,591 L 629,592 L 629,593 L 630,593 L 630,594 L 630,595 L 629,595 L 628,595 L 628,596 L 627,596 L 627,597 L 627,599 L 627,601 L 627,602 L 627,604 L 628,605 L 629,607 L 630,608 L 631,609 L 632,609 L 633,610 L 633,612 L 634,614 L 633,615 L 634,616 L 634,617 L 635,618 L 636,618 L 636,619 L 636,620 L 637,620 L 638,620 L 638,621 L 639,621 L 640,621 L 640,622 L 641,623 L 642,624 L 643,624 L 644,625 L 644,626 L 645,626 L 647,627 L 647,628 L 649,629 L 650,630 L 650,631 L 651,633 L 652,635 L 652,636 L 653,638 L 654,639 L 655,641 L 655,642 L 655,643 L 656,644 L 656,645 L 656,646 L 656,647 L 657,649 L 657,650 L 658,650 L 659,651 L 660,651 L 661,651 L 662,652 L 662,653 L 663,653 L 664,653 L 664,654 L 665,654 L 666,654 L 667,654 L 669,654 L 670,655 L 671,655 L 672,654 L 673,654 L 675,654 L 676,654 L 676,653 L 677,652 L 678,652 L 678,651 L 679,650 L 680,650 L 680,649 L 681,649 L 681,648 L 682,647 L 682,646 L 683,646 L 684,645 L 685,644 L 685,643 L 686,642 L 687,640 L 687,639 L 687,638 L 686,637 L 685,636 L 684,634 L 683,633 L 683,632 L 682,630 L 682,629 L 681,628 L 681,627 L 680,626 L 679,625 L 679,624 L 678,622 L 678,621 L 677,619 L 676,618 L 675,616 L 674,614 L 672,613 L 671,612 L 669,610 L 668,610 L 666,609 L 664,608 L 663,608 L 661,607 L 660,607 L 658,607 L 657,607 L 656,606 L 654,606 L 653,606 L 652,605 L 652,604 L 651,603 L 651,602 L 651,601 L 650,600 L 649,600 L 648,598 L 648,597 L 648,596 L 648,595 L 648,594 L 647,593 L 647,592 L 647,591 L 647,589 L 648,588 L 648,587 L 648,586 L 649,585 L 649,584 L 649,583 L 649,582 L 649,581 L 649,580 L 649,579 L 649,578 L 649,577 L 650,577 L 650,576 L 651,576 L 651,575 L 651,574 L 652,573 L 652,572 L 651,572 L 652,571 L 652,570 L 652,569 L 651,568 L 651,567 L 650,566 L 650,565 L 649,563 L 648,562 L 647,561 L 646,559 L 646,557 L 646,556 L 645,555 L 645,553 L 645,552 L 644,550 L 644,549 L 643,548 L 643,547 L 642,546 L 640,544 L 639,543 L 637,542 L 637,541 L 636,540 L 635,539 L 634,538 L 633,537 L 633,536 L 632,535 L 632,534 L 632,532 L 632,531 L 632,530 L 632,529 L 632,528 L 632,527 L 631,525 L 630,524 L 629,523 L 629,522 L 628,520 L 628,519 L 627,518 L 626,518 L 625,517 L 625,516 L 625,515 L 624,514 L 624,513 L 624,512 L 624,511 L 624,510 L 624,509 L 623,508 L 622,508 L 622,507 L 621,507 L 620,507 L 619,508 L 618,509 L 617,509 L 615,509 L 614,508 L 613,508 L 612,508 L 611,508 L 610,507 L 609,506 L 607,505 L 606,504 L 606,503 L 605,503 L 604,503 L 604,502 L 603,501 L 602,500 L 602,499 L 601,498 L 601,496 L 601,495 L 600,494 L 600,492 L 599,492 L 599,490 L 599,489 L 599,488 L 599,487 L 598,486 L 598,485 L 598,483 L 598,482 L 597,480 L 597,479 L 597,478 L 596,477 L 596,476 L 596,475 L 596,474 L 596,473 L 597,471 L 597,470 L 597,469 L 597,468 L 598,467 L 598,466 L 598,465 L 598,464 L 598,462 L 598,460 L 597,459 L 597,458 L 596,457 L 596,456 L 596,454 L 595,453 L 595,452 L 594,451 L 594,450 L 594,449 L 593,448 L 593,447 L 593,446 L 592,445 L 592,444 L 592,443 L 591,443 L 591,444 L 590,445 L 589,445 L 588,445 L 587,446 L 586,445 L 585,444 L 585,442 L 585,441 L 585,440 L 585,439 L 585,437 L 585,436 L 585,435 L 585,434 L 584,433 L 584,432 L 584,431 L 584,430 L 584,428 L 584,427 L 583,425 L 584,424 L 584,423 L 584,422 L 583,422 L 582,421 L 582,420 L 581,418 L 580,417 L 580,416 L 580,415 L 579,414 L 580,413 L 579,411 L 578,410 L 578,409 L 578,407 L 578,406 L 578,405 L 578,403 L 579,402 L 578,401 L 578,400 L 577,399 L 576,399 L 575,399 L 574,398 L 574,397 L 573,396 L 572,395 L 571,394 L 570,394 L 570,393 L 569,392 L 568,391 L 567,391 L 566,390 L 566,389 L 565,389 L 565,388 L 564,387 L 563,386 L 563,385 L 562,385 L 562,384 L 562,383 L 562,382 L 562,381 L 562,380 L 561,379 L 561,378 L 561,377 L 561,376 L 560,375 L 560,374 L 560,372 L 559,371 L 559,370 L 558,369 L 557,368 L 557,367 L 556,366 L 556,365 L 556,364 L 556,363 L 556,362 L 556,361 L 555,360 L 555,359 L 554,358 L 554,357 L 553,356 L 553,355 L 552,355 L 552,354 L 552,353 L 551,353 L 551,352 L 550,351 L 550,350 L 550,349 L 549,348 L 549,347 L 548,346 L 548,344 L 548,343 L 548,342 L 548,341 L 548,339 L 548,338 L 548,337 L 547,335 L 547,334 L 547,333 L 548,332 L 548,331 L 548,330 L 548,327 L 548,326 L 548,325 L 547,324 L 547,323 L 546,322 L 546,321 L 546,320 L 546,319 L 546,318 L 546,317 L 546,316 L 546,315 L 546,314 L 546,313 L 546,312 L 545,311 L 545,310 L 544,309 L 543,308 L 543,307 L 543,306 L 543,304 L 543,303 L 543,301 L 542,300 L 542,299 L 542,298 L 542,297 L 542,296 L 542,294 L 542,293 L 542,292 L 543,292 L 542,290 L 541,290 L 540,289 L 539,288 L 538,288 L 538,287 L 537,286 L 537,285 L 537,284 L 536,283 L 535,282 L 533,281 L 532,280 L 531,280 L 531,279 L 530,278 L 529,277 L 529,276 L 529,275 L 528,274 L 527,274 L 526,274 L 525,274 L 525,273 L 525,272 L 525,271 L 525,270 L 525,269 L 524,269 L 524,268 L 524,267 L 524,266 L 524,265 L 525,264 L 525,263 L 525,262 L 526,262 L 526,261 L 526,260 L 526,259 L 526,258 L 525,257 L 525,256 L 525,255 L 525,254 L 526,253 L 526,252 L 526,251 L 526,250 L 525,250 L 525,249 L 525,248 L 525,247 L 525,246 L 525,245 L 525,244 L 524,242 L 524,241 L 524,240 L 524,239 L 524,238 L 525,238 L 525,237 L 525,236 L 525,235 L 525,234 L 525,233 L 525,232 L 525,231 L 525,230 L 526,229 L 526,228 L 526,227 L 525,226 L 525,225 L 525,224 L 525,223 L 525,222 L 525,221 L 525,220 L 525,219 L 525,218 L 525,217 L 524,217 L 523,216 L 522,216 L 521,216 L 520,215 L 519,215 L 518,216 L 517,217 L 516,217 L 515,216 L 514,217 L 513,217 L 512,217 L 511,217 L 510,217 L 510,216 L 510,215 L 509,214 L 508,214 L 507,214 L 507,213 L 507,212 L 507,211 L 506,209 L 505,209 L 503,209 L 502,209 L 501,208 L 500,208 L 499,208 L 498,207 L 497,207 L 496,207 L 495,207 L 494,207 L 493,207 L 492,207 L 491,207 L 490,207 L 490,206 L 489,206 L 488,206 L 488,205 L 487,205 L 486,204 L 485,204 L 484,205 L 483,205 L 482,205 L 482,206 L 481,206 L 480,207 L 478,208 L 477,208 L 475,208 L 474,209 L 473,209 L 471,210 L 469,211 L 468,211 L 467,212 L 465,213 L 464,214 L 463,214 L 461,216 L 460,217 L 458,218 L 456,220 L 455,217 L 453,210 L 450,202 L 447,193 L 444,194 L 432,202 L 431,203 L 430,204 L 429,196 L 428,181 L 426,175 L 425,174 L 434,162 L 445,145 L 447,140 L 448,139 L 449,136 L 451,133 L 455,130 L 460,126 L 461,124 L 469,116 L 481,100 L 485,94 L 486,93 L 487,91 L 490,85 L 497,72 L 498,69 L 501,63 L 509,43 L 513,34 L 517,26 L 518,27 L 518,28 L 518,29 L 519,30 L 519,31 L 520,32 L 520,33 L 521,34 L 522,35 L 523,36 L 523,37 L 525,38 L 525,39 L 526,40 L 527,41 L 527,42 L 527,43 L 528,43 L 529,43 L 529,44 L 530,44 L 531,45 L 532,45 L 533,46 L 534,47 L 536,47 L 537,48 L 537,49 L 538,50 L 539,51 L 540,51 L 541,52 L 542,52 L 543,51 L 544,52 L 544,53 L 543,53 L 543,54 L 544,54 L 545,54 L 546,54 L 547,55 L 548,55 L 548,56 L 549,56 L 550,56 L 552,56 L 553,56 L 553,55 L 554,54 L 554,53 L 555,52 L 556,51 L 557,51 L 558,51 L 560,51 L 561,50 L 562,50 L 562,49 L 563,48 L 565,48 L 566,48 L 567,48 L 567,47 L 569,47 L 570,48 L 571,48 L 571,49 L 572,49 L 573,49 L 574,50 L 575,49 L 576,49 L 577,49 L 577,48 L 578,48 L 579,48 L 580,48 L 580,47 L 581,47 L 581,46 L 581,45 L 581,44 L 581,43 L 582,42 L 583,41 L 583,40 L 584,40 L 584,41 L 585,41 L 586,41 L 587,41 L 587,42 L 587,43 L 587,44 L 587,45 L 588,45 L 588,46 L 589,47 L 589,48 L 589,49 L 589,50 L 590,51 L 591,52 L 590,53 L 590,54 L 590,55 L 589,57 L 589,59 L 589,60 L 589,61 L 589,62 L 588,63 L 588,64 L 588,65 L 588,66 L 588,67 L 588,68 L 588,69 L 587,69 L 587,70 L 587,71 L 587,72 L 587,73 L 587,74 L 588,75 L 588,76 L 589,77 L 590,77 L 591,78 L 592,78 L 593,79 L 593,80 L 594,80 L 595,80 L 596,81 L 596,82 L 596,83 L 596,84 L 597,85 L 597,86 L 597,87 L 598,88 L 598,89 L 597,90 L 597,91 L 597,92 L 598,93 L 599,94 L 600,95 L 600,96 L 600,97 L 600,98 L 600,99 L 600,100 L 601,101 L 602,101 L 604,101 L 604,102 L 605,102 L 605,103 L 606,103 L 607,103 L 607,104 L 608,105 L 609,105 L 610,105 L 612,105 L 615,105 L 617,104 L 618,104 L 620,104 L 623,104 L 624,104 L 625,103 L 626,103 L 628,102 L 629,102 L 631,102 L 632,101 L 634,101 L 636,101 L 638,101 L 639,101 L 640,100 L 641,99 L 643,99 L 645,98 L 646,98 L 647,97 L 647,96 L 647,95 L 647,94 L 647,93 L 647,92 L 648,92 L 649,91 L 650,90 L 651,89 L 652,89 L 653,89 L 654,88 L 655,87 L 656,86 L 657,86 L 658,85 L 658,84 L 658,83 L 659,82 L 659,81 L 660,80 L 660,79 L 660,78 L 660,76 L 660,75 L 659,74 L 659,73 L 659,72 L 659,71 L 659,70 L 660,69 L 661,69 L 661,67 L 662,67 L 662,66 L 663,65 L 664,65 L 665,65 L 666,65 L 667,65 L 668,65 L 669,66 L 670,65 L 671,65 L 672,65 L 673,65 L 673,66 L 674,66 L 676,66 L 677,66 L 678,66 L 679,66 L 680,66 L 681,66 L 682,66 L 683,66 L 684,65 L 685,65 L 686,65 L 688,65 L 689,64 L 690,64 L 691,64 L 692,64 L 693,64 L 694,64 L 694,63 L 695,63 L 695,62 L 696,62 L 696,61 L 697,60 L 697,59 L 697,58 L 697,57 L 696,56 L 698,57 L 698,58 L 699,59 L 703,62 L 707,66 L 709,71 L 714,98 L 712,109 L 703,134 L 699,151 L 698,154 L 697,161 L 696,180 L 695,188 L 694,192 L 691,205 L 690,219 L 689,238 L 688,242 L 687,246 L 690,248 L 700,258 L 729,273 L 731,274 L 731,275 L 737,283 L 738,285 L 739,286 L 742,285 L 770,283 L 797,280 L 800,280 L 802,283 L 805,296 L 806,300 L 808,305 L 811,308 L 817,311 L 824,315 L 827,316 L 836,320 L 842,323 L 850,326 L 860,330 L 864,331 L 865,333 L 868,341 L 869,343 L 874,347 L 881,353 L 884,358 L 886,361 L 887,365 L 887,366 L 882,382 L 881,387 L 881,389 L 881,390 L 881,393 L 885,409 L 885,424 L 887,432 L 893,444 L 905,458 L 907,461 L 907,464 L 905,470 L 902,478 L 899,487 L 894,495 L 893,496 L 892,496 L 889,497 L 883,498 L 878,499 L 871,502 L 869,504 L 863,511 L 857,518 L 848,525 L 836,530 L 824,533 L 819,534 L 806,530 L 803,530 L 801,530 L 799,530 L 794,533 L 792,535 L 791,536 L 790,539 L 793,543 L 801,555 L 814,569 L 822,583 L 824,591 L 824,601 L 824,604 L 827,605 L 844,616 L 850,624 L 856,630 L 864,639 L 867,642 L 869,645 L 870,647 L 872,652 L 867,676 L 867,678 L 866,684 L 866,685 L 880,703 L 883,709 L 882,715 L 880,724 L 876,733 L 875,735 L 873,736 L 867,740 L 849,744 L 815,749 L 805,750 L 800,750 L 790,749 L 787,748 L 785,747 L 784,751 L 783,760 L 779,768 L 773,773 L 766,776 L 765,776 L 763,776 L 761,775 L 761,774 L 759,769 L 755,762 L 755,761 L 754,761 L 749,758 L 740,757 L 725,757 L 712,759 L 701,759 L 697,759 L 694,759 L 685,757 L 668,753 L 663,752 L 660,754 L 660,756 L 660,757 L 662,764 L 672,784 L 678,793 L 685,803 L 687,804 L 684,806 L 682,807 L 679,808 L 676,806 L 673,805 L 669,807 L 667,808 L 665,807 L 662,808 L 659,807 L 658,807 L 655,808 L 653,807 L 669,841 L 672,845 L 665,850 L 660,846 L 658,843 L 655,839 L 652,833 L 639,819 L 626,823 L 625,824 " />
</g>
<g id="union_lektiko_δημοσ_αργοστολιου_4" >
<path d="M 1445,661 L 1445,662 L 1445,664 L 1445,666 L 1445,668 L 1445,669 L 1445,671 L 1445,673 L 1444,674 L 1444,675 L 1444,676 L 1444,678 L 1443,679 L 1444,681 L 1444,682 L 1444,683 L 1445,685 L 1445,686 L 1445,688 L 1446,689 L 1446,690 L 1446,692 L 1447,693 L 1447,694 L 1448,696 L 1448,698 L 1448,699 L 1449,701 L 1450,703 L 1450,704 L 1451,705 L 1451,707 L 1452,708 L 1453,709 L 1453,710 L 1454,712 L 1454,713 L 1455,714 L 1455,715 L 1456,715 L 1457,715 L 1457,716 L 1458,717 L 1458,718 L 1459,719 L 1460,720 L 1460,721 L 1461,722 L 1461,723 L 1462,724 L 1463,725 L 1464,725 L 1465,726 L 1467,726 L 1468,726 L 1469,726 L 1470,727 L 1471,728 L 1471,729 L 1472,730 L 1473,731 L 1473,733 L 1474,734 L 1474,735 L 1475,736 L 1475,737 L 1476,738 L 1476,739 L 1477,741 L 1477,742 L 1478,743 L 1479,743 L 1479,744 L 1480,745 L 1484,746 L 1481,746 L 1481,747 L 1482,748 L 1483,749 L 1484,750 L 1485,750 L 1486,750 L 1487,750 L 1488,750 L 1489,749 L 1490,749 L 1491,748 L 1491,747 L 1492,746 L 1493,745 L 1494,744 L 1495,743 L 1497,742 L 1498,742 L 1499,741 L 1501,740 L 1502,740 L 1503,739 L 1504,740 L 1504,741 L 1505,743 L 1505,744 L 1506,745 L 1506,746 L 1505,748 L 1504,749 L 1504,750 L 1504,751 L 1504,753 L 1503,753 L 1503,754 L 1502,755 L 1501,757 L 1500,758 L 1500,759 L 1499,759 L 1499,760 L 1499,761 L 1499,762 L 1499,763 L 1499,764 L 1499,765 L 1500,766 L 1500,767 L 1501,769 L 1501,770 L 1501,771 L 1502,772 L 1502,773 L 1502,774 L 1503,775 L 1503,776 L 1504,778 L 1504,779 L 1504,780 L 1505,781 L 1505,782 L 1506,783 L 1507,783 L 1507,784 L 1508,784 L 1509,785 L 1510,786 L 1511,787 L 1511,788 L 1511,789 L 1511,790 L 1511,791 L 1511,793 L 1512,793 L 1512,794 L 1513,796 L 1514,797 L 1514,798 L 1514,799 L 1515,800 L 1515,801 L 1515,802 L 1516,804 L 1517,805 L 1517,806 L 1517,807 L 1518,808 L 1518,809 L 1519,810 L 1519,811 L 1519,812 L 1520,813 L 1521,814 L 1522,815 L 1523,816 L 1524,816 L 1524,817 L 1525,817 L 1526,817 L 1528,817 L 1529,817 L 1530,817 L 1532,817 L 1533,816 L 1534,815 L 1536,815 L 1537,814 L 1538,814 L 1539,814 L 1539,815 L 1540,815 L 1540,816 L 1541,816 L 1541,817 L 1541,818 L 1541,819 L 1541,820 L 1541,821 L 1542,821 L 1542,822 L 1542,823 L 1542,824 L 1543,826 L 1543,827 L 1544,828 L 1545,828 L 1546,829 L 1547,830 L 1548,831 L 1549,832 L 1550,833 L 1550,835 L 1551,835 L 1551,836 L 1552,837 L 1553,839 L 1555,841 L 1556,843 L 1557,845 L 1559,846 L 1559,848 L 1560,849 L 1560,850 L 1560,851 L 1561,852 L 1561,853 L 1561,854 L 1562,855 L 1562,856 L 1562,857 L 1563,857 L 1563,858 L 1564,858 L 1565,858 L 1566,858 L 1567,857 L 1568,857 L 1569,857 L 1571,857 L 1573,857 L 1573,858 L 1574,858 L 1575,858 L 1576,859 L 1577,860 L 1577,861 L 1578,861 L 1579,863 L 1579,864 L 1579,865 L 1580,867 L 1580,868 L 1581,869 L 1581,870 L 1582,871 L 1582,873 L 1583,873 L 1583,874 L 1584,875 L 1584,876 L 1584,877 L 1585,878 L 1585,879 L 1585,880 L 1585,882 L 1585,883 L 1584,884 L 1584,885 L 1584,887 L 1584,888 L 1584,889 L 1583,890 L 1583,891 L 1582,892 L 1582,893 L 1582,894 L 1582,895 L 1582,896 L 1581,897 L 1581,899 L 1580,901 L 1579,902 L 1578,903 L 1577,903 L 1577,904 L 1577,905 L 1577,906 L 1577,907 L 1576,908 L 1576,909 L 1575,909 L 1575,910 L 1574,911 L 1573,912 L 1572,913 L 1572,914 L 1572,915 L 1572,916 L 1571,917 L 1571,919 L 1570,919 L 1569,920 L 1568,920 L 1567,920 L 1566,921 L 1565,921 L 1564,921 L 1563,921 L 1563,922 L 1563,923 L 1563,924 L 1563,925 L 1563,926 L 1563,928 L 1563,929 L 1563,930 L 1562,930 L 1561,931 L 1560,931 L 1560,932 L 1559,932 L 1559,933 L 1559,934 L 1559,935 L 1559,936 L 1559,937 L 1560,937 L 1560,938 L 1561,938 L 1561,939 L 1561,940 L 1560,940 L 1559,940 L 1558,941 L 1558,942 L 1558,943 L 1557,943 L 1556,943 L 1556,944 L 1556,945 L 1555,945 L 1554,945 L 1554,946 L 1553,946 L 1552,947 L 1552,948 L 1552,949 L 1552,950 L 1552,951 L 1552,952 L 1552,953 L 1552,954 L 1552,955 L 1552,956 L 1551,956 L 1550,956 L 1549,957 L 1549,958 L 1548,959 L 1548,960 L 1547,960 L 1546,960 L 1546,961 L 1545,962 L 1545,963 L 1545,964 L 1545,965 L 1544,965 L 1544,966 L 1544,967 L 1544,968 L 1544,969 L 1544,970 L 1544,971 L 1544,972 L 1544,973 L 1543,974 L 1543,975 L 1542,975 L 1542,976 L 1542,977 L 1542,978 L 1542,979 L 1542,980 L 1541,981 L 1541,982 L 1540,982 L 1540,983 L 1539,984 L 1538,984 L 1538,985 L 1537,986 L 1537,987 L 1537,988 L 1536,989 L 1536,990 L 1536,991 L 1536,993 L 1536,994 L 1536,996 L 1535,997 L 1535,998 L 1535,1000 L 1535,1001 L 1535,1002 L 1535,1003 L 1535,1004 L 1535,1006 L 1535,1007 L 1535,1009 L 1535,1010 L 1535,1012 L 1535,1014 L 1535,1017 L 1535,1019 L 1535,1020 L 1534,1022 L 1534,1024 L 1534,1025 L 1532,1028 L 1532,1029 L 1531,1031 L 1530,1033 L 1529,1035 L 1528,1038 L 1527,1041 L 1526,1044 L 1525,1045 L 1525,1047 L 1524,1049 L 1523,1053 L 1523,1056 L 1523,1057 L 1522,1058 L 1521,1058 L 1520,1058 L 1518,1059 L 1516,1061 L 1514,1063 L 1511,1065 L 1509,1067 L 1507,1069 L 1505,1070 L 1505,1072 L 1504,1074 L 1503,1075 L 1502,1075 L 1501,1076 L 1500,1077 L 1498,1079 L 1497,1079 L 1496,1080 L 1495,1081 L 1494,1083 L 1494,1084 L 1492,1085 L 1491,1086 L 1490,1086 L 1489,1087 L 1488,1087 L 1488,1086 L 1487,1084 L 1487,1082 L 1486,1080 L 1485,1078 L 1484,1077 L 1483,1075 L 1482,1073 L 1481,1071 L 1479,1069 L 1477,1068 L 1476,1067 L 1474,1066 L 1473,1065 L 1472,1064 L 1469,1062 L 1468,1060 L 1466,1058 L 1464,1057 L 1463,1056 L 1460,1055 L 1458,1055 L 1456,1053 L 1454,1052 L 1453,1051 L 1451,1049 L 1450,1048 L 1448,1047 L 1446,1047 L 1445,1046 L 1444,1045 L 1442,1044 L 1441,1043 L 1439,1042 L 1438,1041 L 1437,1041 L 1435,1040 L 1434,1040 L 1432,1039 L 1430,1039 L 1429,1038 L 1427,1038 L 1426,1038 L 1423,1038 L 1422,1038 L 1421,1038 L 1419,1039 L 1418,1041 L 1416,1042 L 1414,1043 L 1412,1044 L 1411,1045 L 1410,1045 L 1409,1045 L 1408,1045 L 1407,1045 L 1405,1045 L 1404,1045 L 1403,1044 L 1402,1044 L 1400,1044 L 1400,1045 L 1399,1045 L 1396,1046 L 1393,1046 L 1391,1047 L 1389,1047 L 1387,1048 L 1386,1049 L 1385,1050 L 1384,1052 L 1383,1054 L 1382,1055 L 1381,1056 L 1380,1057 L 1378,1058 L 1377,1058 L 1377,1060 L 1376,1062 L 1375,1064 L 1373,1065 L 1372,1065 L 1371,1065 L 1369,1065 L 1368,1066 L 1367,1066 L 1366,1067 L 1365,1067 L 1364,1067 L 1363,1067 L 1361,1068 L 1360,1067 L 1359,1066 L 1359,1064 L 1358,1063 L 1357,1062 L 1356,1062 L 1355,1062 L 1354,1062 L 1353,1062 L 1352,1061 L 1351,1061 L 1350,1061 L 1349,1061 L 1348,1061 L 1347,1061 L 1345,1061 L 1343,1060 L 1342,1060 L 1341,1059 L 1340,1059 L 1338,1059 L 1337,1059 L 1336,1059 L 1334,1059 L 1332,1059 L 1332,1058 L 1332,1057 L 1331,1055 L 1331,1054 L 1330,1054 L 1329,1053 L 1328,1053 L 1327,1053 L 1326,1053 L 1325,1052 L 1324,1052 L 1323,1052 L 1321,1052 L 1320,1051 L 1319,1052 L 1318,1051 L 1317,1051 L 1316,1051 L 1315,1051 L 1314,1050 L 1313,1050 L 1312,1049 L 1311,1049 L 1310,1049 L 1308,1050 L 1307,1050 L 1304,1051 L 1302,1051 L 1301,1051 L 1300,1050 L 1298,1050 L 1297,1049 L 1296,1049 L 1295,1049 L 1294,1049 L 1292,1049 L 1291,1048 L 1290,1047 L 1289,1046 L 1288,1046 L 1287,1047 L 1287,1048 L 1286,1048 L 1286,1047 L 1286,1046 L 1285,1045 L 1284,1044 L 1282,1044 L 1281,1043 L 1280,1043 L 1279,1043 L 1278,1042 L 1277,1042 L 1275,1042 L 1273,1042 L 1271,1042 L 1270,1042 L 1269,1041 L 1268,1040 L 1267,1040 L 1266,1039 L 1265,1038 L 1263,1038 L 1262,1037 L 1261,1037 L 1259,1037 L 1258,1036 L 1257,1036 L 1256,1036 L 1254,1035 L 1253,1034 L 1252,1034 L 1250,1034 L 1249,1034 L 1247,1034 L 1246,1034 L 1244,1034 L 1243,1033 L 1242,1032 L 1240,1031 L 1239,1030 L 1238,1030 L 1237,1029 L 1235,1028 L 1234,1027 L 1233,1026 L 1232,1025 L 1231,1024 L 1229,1023 L 1228,1022 L 1227,1021 L 1226,1020 L 1226,1018 L 1225,1016 L 1225,1014 L 1224,1013 L 1224,1012 L 1223,1010 L 1222,1008 L 1221,1007 L 1220,1005 L 1219,1003 L 1217,1001 L 1215,999 L 1214,997 L 1212,995 L 1211,993 L 1210,991 L 1209,990 L 1208,989 L 1207,987 L 1206,986 L 1205,986 L 1204,985 L 1202,985 L 1202,984 L 1201,983 L 1200,982 L 1199,981 L 1198,980 L 1197,979 L 1196,978 L 1195,978 L 1194,977 L 1193,976 L 1193,975 L 1192,974 L 1190,974 L 1189,974 L 1188,973 L 1188,971 L 1187,970 L 1186,969 L 1184,968 L 1183,968 L 1182,967 L 1181,967 L 1180,967 L 1179,967 L 1178,967 L 1177,966 L 1176,966 L 1175,964 L 1174,962 L 1173,961 L 1171,958 L 1170,957 L 1168,955 L 1167,954 L 1166,953 L 1164,951 L 1163,950 L 1162,950 L 1162,949 L 1161,948 L 1159,947 L 1158,946 L 1157,946 L 1155,945 L 1154,943 L 1153,942 L 1152,941 L 1151,940 L 1150,939 L 1149,938 L 1148,937 L 1147,937 L 1147,936 L 1147,934 L 1148,931 L 1149,927 L 1149,925 L 1153,920 L 1157,917 L 1164,911 L 1168,907 L 1170,906 L 1175,900 L 1182,892 L 1190,884 L 1192,881 L 1194,879 L 1199,874 L 1206,867 L 1210,864 L 1217,859 L 1226,854 L 1225,852 L 1223,848 L 1204,824 L 1190,809 L 1188,805 L 1191,804 L 1198,798 L 1211,790 L 1215,785 L 1215,782 L 1216,773 L 1220,759 L 1220,749 L 1223,739 L 1226,732 L 1228,726 L 1230,722 L 1236,711 L 1241,704 L 1248,699 L 1251,698 L 1252,697 L 1262,685 L 1270,673 L 1280,657 L 1292,650 L 1297,648 L 1301,648 L 1305,648 L 1311,652 L 1319,661 L 1320,661 L 1331,651 L 1356,627 L 1366,619 L 1397,601 L 1401,599 L 1402,600 L 1403,601 L 1404,604 L 1406,606 L 1407,607 L 1408,609 L 1409,610 L 1410,611 L 1411,612 L 1412,612 L 1413,613 L 1414,615 L 1414,616 L 1415,618 L 1416,619 L 1416,620 L 1415,620 L 1415,621 L 1415,622 L 1414,623 L 1414,624 L 1414,625 L 1414,626 L 1415,627 L 1415,628 L 1416,628 L 1417,628 L 1418,629 L 1419,629 L 1420,630 L 1420,631 L 1420,632 L 1421,633 L 1421,634 L 1421,635 L 1422,636 L 1422,637 L 1423,638 L 1424,638 L 1425,640 L 1426,641 L 1426,642 L 1427,644 L 1428,646 L 1428,647 L 1429,649 L 1430,650 L 1431,651 L 1432,651 L 1433,652 L 1434,652 L 1435,652 L 1436,653 L 1437,653 L 1438,654 L 1439,654 L 1440,655 L 1441,656 L 1442,657 L 1443,658 L 1443,659 L 1444,659 L 1444,660 L 1445,661 " />
</g>
</g>
</g>
<!-- QGIS extent for clipping, eg in Inkscape -->
<g id="qgisviewbox" inkscape:groupmode="layer" inkscape:label="qgisviewbox" stroke="rgb(255,0,0)" stroke-width="1" fill="none" >
<path d="M 0,1114 L 2011,1114 L 2011,0 L 0,0 L 0,1114 " />
</g></svg>