<?xml version="1.0" standalone="no"?>
<!DOCTYPE svg PUBLIC "-//W3C//DTD SVG 1.1//EN" "http://www.w3.org/Graphics/SVG/1.1/DTD/svg11.dtd">
<svg xmlns="http://www.w3.org/2000/svg" xmlns:inkscape="http://www.inkscape.org/namespaces/inkscape" xmlns:xlink="http://www.w3.org/1999/xlink" viewBox = "0 0 2013 1116" version = "1.1">
<!-- svg generated using QGIS www.qgis.org -->
<g id="union_lektiko_δημοσ_αρχανων_-_αστερουσιων" inkscape:groupmode="layer" inkscape:label="union_lektiko_δημοσ_αρχανων_-_αστερουσιων">
<g stroke="none" fill="rgb(237,218,142)" stroke-linejoin="round" stroke-width="0.26">
<g id="union_lektiko_δημοσ_αρχανων_-_αστερουσιων_1" >
<path d="M 975,26 L 983,33 L 984,35 L 989,41 L 994,44 L 994,45 L 999,48 L 1002,47 L 1008,47 L 1013,46 L 1015,47 L 1021,51 L 1022,53 L 1023,55 L 1028,57 L 1033,60 L 1038,61 L 1037,62 L 1036,63 L 1035,65 L 1033,68 L 1033,75 L 1032,76 L 1029,78 L 1024,81 L 1021,82 L 1016,87 L 1011,91 L 1005,96 L 1004,98 L 1002,103 L 1002,106 L 1001,108 L 1000,113 L 1000,114 L 998,115 L 997,116 L 992,118 L 991,119 L 991,122 L 994,125 L 994,127 L 989,138 L 988,140 L 987,144 L 987,145 L 988,148 L 990,153 L 990,155 L 989,156 L 989,157 L 988,158 L 985,159 L 984,160 L 984,161 L 985,163 L 988,165 L 989,166 L 993,167 L 997,170 L 998,173 L 998,178 L 996,181 L 995,182 L 992,186 L 990,187 L 990,188 L 989,188 L 984,188 L 979,190 L 978,191 L 977,192 L 975,195 L 972,206 L 972,208 L 972,210 L 970,214 L 968,226 L 965,234 L 959,240 L 959,241 L 959,244 L 960,249 L 963,257 L 961,257 L 960,259 L 959,262 L 960,263 L 960,265 L 961,268 L 960,272 L 961,275 L 961,277 L 961,278 L 957,281 L 952,283 L 951,283 L 946,286 L 934,291 L 914,303 L 912,304 L 911,305 L 909,305 L 907,302 L 904,301 L 904,299 L 903,298 L 902,297 L 901,297 L 899,295 L 898,294 L 894,294 L 891,294 L 890,295 L 889,294 L 889,291 L 891,286 L 891,282 L 891,279 L 888,276 L 884,272 L 879,270 L 876,267 L 874,263 L 874,259 L 873,255 L 872,254 L 869,253 L 866,249 L 863,245 L 863,244 L 858,237 L 849,229 L 846,227 L 842,224 L 839,218 L 837,215 L 837,211 L 834,209 L 833,209 L 832,208 L 833,205 L 835,204 L 839,202 L 846,204 L 847,204 L 849,203 L 850,203 L 858,198 L 863,194 L 864,194 L 866,196 L 866,197 L 869,199 L 873,200 L 877,202 L 881,202 L 883,201 L 884,201 L 885,200 L 885,198 L 885,196 L 886,185 L 887,173 L 886,164 L 887,164 L 886,162 L 890,159 L 896,152 L 897,150 L 897,147 L 896,141 L 893,135 L 888,129 L 886,124 L 885,120 L 886,119 L 888,117 L 889,116 L 890,115 L 893,110 L 894,109 L 895,109 L 902,107 L 906,108 L 913,106 L 921,104 L 926,104 L 929,104 L 930,102 L 931,98 L 935,87 L 940,76 L 941,74 L 942,67 L 944,62 L 947,58 L 949,55 L 948,55 L 950,53 L 952,50 L 953,41 L 954,31 L 953,30 L 955,29 L 957,29 L 961,28 L 963,28 L 967,28 L 973,26 L 975,26 " />
</g>
<g id="union_lektiko_δημοσ_αρχανων_-_αστερουσιων_2" >
<path d="M 1038,61 L 1039,64 L 1044,81 L 1045,82 L 1046,86 L 1049,88 L 1050,89 L 1053,89 L 1062,87 L 1067,87 L 1069,88 L 1071,89 L 1073,92 L 1072,92 L 1075,97 L 1075,98 L 1075,99 L 1074,101 L 1073,102 L 1072,103 L 1072,104 L 1077,110 L 1081,117 L 1083,123 L 1087,128 L 1089,128 L 1091,130 L 1092,135 L 1093,137 L 1094,140 L 1095,144 L 1097,150 L 1099,154 L 1102,156 L 1103,159 L 1105,160 L 1109,161 L 1111,163 L 1112,165 L 1113,170 L 1115,173 L 1114,176 L 1114,175 L 1113,179 L 1113,181 L 1113,183 L 1112,187 L 1111,188 L 1110,196 L 1110,198 L 1112,203 L 1113,204 L 1113,206 L 1113,209 L 1112,212 L 1110,214 L 1107,216 L 1110,217 L 1110,218 L 1111,219 L 1118,226 L 1120,226 L 1122,225 L 1124,225 L 1130,230 L 1132,232 L 1138,235 L 1139,236 L 1140,238 L 1134,240 L 1119,241 L 1117,243 L 1114,245 L 1113,246 L 1110,247 L 1108,248 L 1108,250 L 1108,252 L 1109,255 L 1110,256 L 1111,259 L 1110,264 L 1110,267 L 1111,268 L 1119,273 L 1120,274 L 1120,276 L 1122,277 L 1123,278 L 1124,279 L 1125,281 L 1126,283 L 1127,288 L 1129,293 L 1131,308 L 1132,309 L 1135,311 L 1137,314 L 1137,318 L 1138,322 L 1138,323 L 1136,329 L 1136,332 L 1135,336 L 1136,351 L 1136,353 L 1132,351 L 1126,348 L 1123,348 L 1123,352 L 1123,353 L 1124,356 L 1124,357 L 1125,360 L 1124,365 L 1123,366 L 1121,366 L 1120,366 L 1119,366 L 1115,369 L 1113,370 L 1108,376 L 1104,381 L 1103,388 L 1101,390 L 1097,393 L 1090,394 L 1090,396 L 1090,397 L 1086,402 L 1084,403 L 1079,403 L 1077,403 L 1075,402 L 1072,402 L 1069,402 L 1067,401 L 1066,400 L 1063,395 L 1062,391 L 1060,390 L 1058,389 L 1048,386 L 1038,384 L 1035,383 L 1032,381 L 1030,380 L 1026,377 L 1025,377 L 1023,376 L 1016,375 L 1003,374 L 999,375 L 998,375 L 996,377 L 994,380 L 993,383 L 992,384 L 987,393 L 983,399 L 983,398 L 983,400 L 983,403 L 984,404 L 984,408 L 984,420 L 983,434 L 982,439 L 983,446 L 986,453 L 986,456 L 985,461 L 985,462 L 986,473 L 988,478 L 986,484 L 985,485 L 982,491 L 982,498 L 984,503 L 985,506 L 986,508 L 982,513 L 981,514 L 980,516 L 979,520 L 979,532 L 980,535 L 978,535 L 968,535 L 966,535 L 956,536 L 953,537 L 949,539 L 939,543 L 934,546 L 932,544 L 931,542 L 927,536 L 921,530 L 912,522 L 907,521 L 905,520 L 901,514 L 900,514 L 898,509 L 897,509 L 896,509 L 889,509 L 888,507 L 887,504 L 885,500 L 882,495 L 880,494 L 878,493 L 875,493 L 874,495 L 874,496 L 870,500 L 863,509 L 861,511 L 860,512 L 857,513 L 855,514 L 853,515 L 853,517 L 854,522 L 853,527 L 853,528 L 852,533 L 850,537 L 847,542 L 847,547 L 848,547 L 850,548 L 853,550 L 853,551 L 853,550 L 854,550 L 856,548 L 860,548 L 861,548 L 861,549 L 862,553 L 864,555 L 863,557 L 863,559 L 863,560 L 865,562 L 869,563 L 870,564 L 870,566 L 870,567 L 869,568 L 866,569 L 862,570 L 858,572 L 854,576 L 852,577 L 851,578 L 848,579 L 846,578 L 842,576 L 835,575 L 835,573 L 832,567 L 831,564 L 829,561 L 828,560 L 826,561 L 825,562 L 824,564 L 824,565 L 822,568 L 820,569 L 819,570 L 816,573 L 816,574 L 816,579 L 818,583 L 817,586 L 815,585 L 810,582 L 801,579 L 795,579 L 792,578 L 785,576 L 783,576 L 778,577 L 772,577 L 767,575 L 764,573 L 762,573 L 761,573 L 759,573 L 759,571 L 759,570 L 759,564 L 759,560 L 758,554 L 762,546 L 762,544 L 763,540 L 762,538 L 761,537 L 756,537 L 753,536 L 748,531 L 744,524 L 744,522 L 759,517 L 778,511 L 788,508 L 797,507 L 798,507 L 804,507 L 807,507 L 808,505 L 807,502 L 805,499 L 805,497 L 804,496 L 800,495 L 797,494 L 793,494 L 792,494 L 790,488 L 788,485 L 785,483 L 784,482 L 780,483 L 777,483 L 774,482 L 771,477 L 767,468 L 763,459 L 760,453 L 759,451 L 753,438 L 753,437 L 752,434 L 752,427 L 753,420 L 753,418 L 756,414 L 757,414 L 759,412 L 762,410 L 765,405 L 766,405 L 769,402 L 771,402 L 772,403 L 772,405 L 772,406 L 775,411 L 777,413 L 779,415 L 784,417 L 785,417 L 810,423 L 816,425 L 821,429 L 822,429 L 826,431 L 829,431 L 831,431 L 834,432 L 838,432 L 845,434 L 849,434 L 850,434 L 855,433 L 859,433 L 864,432 L 866,428 L 869,417 L 871,414 L 873,411 L 879,405 L 880,405 L 882,402 L 881,398 L 879,395 L 878,395 L 878,393 L 879,385 L 880,381 L 881,371 L 882,368 L 883,368 L 885,369 L 885,368 L 888,368 L 889,368 L 891,370 L 893,371 L 894,371 L 896,372 L 898,371 L 900,369 L 903,367 L 907,366 L 911,363 L 914,359 L 911,355 L 907,349 L 904,344 L 901,338 L 900,335 L 898,327 L 898,325 L 897,321 L 899,310 L 900,306 L 900,299 L 900,298 L 901,297 L 902,297 L 903,298 L 904,299 L 904,301 L 907,302 L 909,305 L 911,305 L 912,304 L 914,303 L 934,291 L 946,286 L 951,283 L 952,283 L 957,281 L 961,278 L 961,277 L 961,275 L 960,272 L 961,268 L 960,265 L 960,263 L 959,262 L 960,259 L 961,257 L 963,257 L 960,249 L 959,244 L 959,241 L 959,240 L 965,234 L 968,226 L 970,214 L 972,210 L 972,208 L 972,206 L 975,195 L 977,192 L 978,191 L 979,190 L 984,188 L 989,188 L 990,188 L 990,187 L 992,186 L 995,182 L 996,181 L 998,178 L 998,173 L 997,170 L 993,167 L 989,166 L 988,165 L 985,163 L 984,161 L 984,160 L 985,159 L 988,158 L 989,157 L 989,156 L 990,155 L 990,153 L 988,148 L 987,145 L 987,144 L 988,140 L 989,138 L 994,127 L 994,125 L 991,122 L 991,119 L 992,118 L 997,116 L 998,115 L 1000,114 L 1000,113 L 1001,108 L 1002,106 L 1002,103 L 1004,98 L 1005,96 L 1011,91 L 1016,87 L 1021,82 L 1024,81 L 1029,78 L 1032,76 L 1033,75 L 1033,68 L 1035,65 L 1036,63 L 1037,62 L 1038,61 " />
</g>
<g id="union_lektiko_δημοσ_αρχανων_-_αστερουσιων_3" >
<path d="M 980,535 L 982,538 L 997,552 L 1001,554 L 1005,556 L 1008,556 L 1010,555 L 1013,554 L 1017,551 L 1019,551 L 1021,551 L 1025,553 L 1031,555 L 1033,555 L 1035,555 L 1036,555 L 1038,554 L 1042,551 L 1044,549 L 1048,545 L 1052,545 L 1052,547 L 1052,548 L 1051,553 L 1051,559 L 1053,568 L 1058,584 L 1059,589 L 1060,594 L 1060,598 L 1060,609 L 1060,615 L 1060,621 L 1060,622 L 1059,622 L 1057,623 L 1057,625 L 1056,627 L 1057,628 L 1057,630 L 1061,635 L 1061,637 L 1060,637 L 1045,635 L 1044,636 L 1040,640 L 1037,643 L 1037,644 L 1037,647 L 1037,648 L 1039,652 L 1040,657 L 1041,662 L 1041,668 L 1043,673 L 1044,675 L 1044,680 L 1045,683 L 1044,685 L 1043,688 L 1044,690 L 1045,691 L 1048,692 L 1055,693 L 1063,692 L 1067,693 L 1068,693 L 1070,688 L 1073,682 L 1083,671 L 1085,668 L 1085,664 L 1086,656 L 1089,658 L 1091,659 L 1093,662 L 1093,664 L 1094,670 L 1095,674 L 1097,677 L 1101,681 L 1106,684 L 1107,685 L 1113,688 L 1118,689 L 1132,691 L 1134,693 L 1138,699 L 1140,700 L 1144,700 L 1146,700 L 1147,702 L 1147,703 L 1147,707 L 1147,708 L 1148,709 L 1149,709 L 1151,710 L 1152,712 L 1154,713 L 1156,714 L 1160,714 L 1160,715 L 1159,719 L 1161,723 L 1162,725 L 1159,727 L 1158,729 L 1155,733 L 1155,734 L 1154,735 L 1147,735 L 1143,736 L 1142,736 L 1141,740 L 1141,741 L 1140,743 L 1139,743 L 1137,743 L 1129,737 L 1128,737 L 1127,737 L 1125,738 L 1119,745 L 1116,747 L 1110,751 L 1109,753 L 1108,756 L 1109,758 L 1111,762 L 1112,768 L 1114,778 L 1116,784 L 1123,794 L 1126,796 L 1129,798 L 1131,799 L 1134,801 L 1159,814 L 1161,813 L 1164,811 L 1167,816 L 1167,817 L 1168,817 L 1172,822 L 1173,823 L 1176,828 L 1177,830 L 1181,833 L 1187,835 L 1192,839 L 1193,840 L 1193,844 L 1193,845 L 1194,845 L 1197,848 L 1197,849 L 1202,851 L 1205,853 L 1205,854 L 1207,857 L 1207,858 L 1208,861 L 1209,864 L 1214,868 L 1218,874 L 1223,876 L 1226,881 L 1230,882 L 1232,884 L 1235,885 L 1237,886 L 1238,887 L 1237,891 L 1237,892 L 1237,893 L 1240,896 L 1240,897 L 1242,903 L 1245,906 L 1247,910 L 1254,915 L 1261,923 L 1263,927 L 1266,932 L 1265,932 L 1264,932 L 1263,932 L 1262,932 L 1261,932 L 1260,932 L 1259,932 L 1258,932 L 1256,932 L 1256,933 L 1255,933 L 1254,933 L 1254,934 L 1253,934 L 1253,935 L 1253,936 L 1253,937 L 1253,938 L 1253,939 L 1252,939 L 1251,939 L 1251,940 L 1251,941 L 1250,942 L 1250,943 L 1250,944 L 1249,944 L 1249,945 L 1249,946 L 1248,946 L 1248,947 L 1248,948 L 1247,949 L 1246,949 L 1245,949 L 1245,950 L 1244,950 L 1245,950 L 1244,951 L 1243,951 L 1243,952 L 1242,952 L 1242,953 L 1241,953 L 1241,954 L 1240,954 L 1240,955 L 1239,956 L 1239,957 L 1239,958 L 1239,959 L 1240,959 L 1240,960 L 1240,961 L 1241,962 L 1241,963 L 1240,964 L 1239,964 L 1238,964 L 1237,963 L 1237,964 L 1236,964 L 1236,965 L 1236,966 L 1235,967 L 1235,968 L 1236,968 L 1236,969 L 1235,969 L 1235,970 L 1234,970 L 1234,971 L 1233,971 L 1233,972 L 1233,973 L 1232,974 L 1231,974 L 1231,975 L 1231,976 L 1230,976 L 1230,977 L 1231,978 L 1232,978 L 1233,978 L 1234,978 L 1235,978 L 1235,979 L 1235,980 L 1234,981 L 1234,982 L 1233,982 L 1233,983 L 1232,983 L 1231,983 L 1230,984 L 1229,984 L 1228,984 L 1227,984 L 1226,984 L 1225,984 L 1224,984 L 1223,985 L 1222,985 L 1221,985 L 1221,986 L 1220,986 L 1219,986 L 1218,986 L 1218,987 L 1217,987 L 1217,988 L 1217,989 L 1216,989 L 1215,989 L 1214,989 L 1213,989 L 1212,989 L 1211,990 L 1210,990 L 1209,990 L 1208,990 L 1207,990 L 1207,989 L 1206,990 L 1205,990 L 1205,989 L 1204,989 L 1204,988 L 1203,988 L 1202,988 L 1201,988 L 1201,989 L 1200,989 L 1200,990 L 1199,990 L 1199,991 L 1198,991 L 1197,991 L 1196,991 L 1196,992 L 1195,993 L 1195,994 L 1194,994 L 1194,995 L 1193,996 L 1193,997 L 1193,998 L 1194,999 L 1194,1000 L 1195,1000 L 1195,1001 L 1195,1002 L 1194,1002 L 1194,1003 L 1194,1004 L 1194,1005 L 1193,1004 L 1192,1004 L 1192,1003 L 1191,1003 L 1190,1003 L 1189,1003 L 1188,1002 L 1188,1003 L 1187,1003 L 1186,1003 L 1185,1003 L 1185,1004 L 1184,1004 L 1183,1005 L 1182,1005 L 1182,1006 L 1181,1006 L 1180,1006 L 1179,1007 L 1178,1007 L 1177,1007 L 1177,1008 L 1178,1009 L 1177,1009 L 1176,1009 L 1176,1010 L 1174,1011 L 1173,1011 L 1173,1012 L 1173,1013 L 1173,1014 L 1172,1014 L 1172,1015 L 1173,1015 L 1173,1016 L 1172,1017 L 1172,1018 L 1171,1018 L 1170,1019 L 1169,1019 L 1169,1018 L 1168,1018 L 1167,1017 L 1168,1016 L 1167,1015 L 1166,1015 L 1166,1014 L 1165,1013 L 1165,1012 L 1164,1012 L 1164,1011 L 1163,1011 L 1162,1011 L 1161,1011 L 1161,1010 L 1160,1010 L 1159,1010 L 1158,1010 L 1157,1010 L 1156,1010 L 1155,1010 L 1154,1011 L 1154,1012 L 1153,1013 L 1153,1014 L 1153,1015 L 1152,1016 L 1152,1017 L 1152,1018 L 1151,1018 L 1151,1019 L 1150,1019 L 1149,1019 L 1148,1019 L 1147,1019 L 1146,1018 L 1145,1018 L 1144,1018 L 1143,1018 L 1143,1017 L 1142,1017 L 1141,1017 L 1140,1017 L 1139,1017 L 1139,1018 L 1138,1018 L 1137,1018 L 1137,1019 L 1137,1020 L 1136,1021 L 1135,1021 L 1134,1021 L 1133,1021 L 1132,1022 L 1131,1022 L 1130,1022 L 1129,1023 L 1128,1023 L 1127,1023 L 1126,1024 L 1125,1025 L 1124,1026 L 1123,1025 L 1122,1026 L 1121,1027 L 1119,1027 L 1119,1026 L 1118,1026 L 1117,1027 L 1116,1027 L 1115,1028 L 1114,1028 L 1114,1029 L 1113,1029 L 1112,1030 L 1111,1030 L 1110,1029 L 1109,1030 L 1108,1030 L 1108,1031 L 1109,1032 L 1108,1033 L 1107,1033 L 1106,1033 L 1105,1033 L 1104,1033 L 1103,1033 L 1102,1033 L 1101,1033 L 1100,1034 L 1099,1034 L 1098,1034 L 1097,1034 L 1096,1034 L 1094,1033 L 1094,1034 L 1093,1034 L 1092,1034 L 1091,1034 L 1090,1034 L 1089,1034 L 1089,1033 L 1088,1033 L 1087,1033 L 1086,1033 L 1086,1032 L 1085,1032 L 1084,1032 L 1083,1032 L 1082,1032 L 1081,1032 L 1080,1032 L 1079,1033 L 1078,1033 L 1078,1034 L 1077,1034 L 1077,1035 L 1076,1036 L 1076,1037 L 1077,1037 L 1077,1038 L 1077,1039 L 1076,1039 L 1075,1038 L 1074,1038 L 1073,1038 L 1072,1038 L 1072,1039 L 1072,1040 L 1072,1041 L 1071,1041 L 1071,1042 L 1071,1043 L 1070,1043 L 1070,1044 L 1069,1044 L 1068,1044 L 1067,1044 L 1066,1044 L 1066,1043 L 1066,1042 L 1066,1041 L 1065,1041 L 1065,1040 L 1064,1040 L 1064,1039 L 1063,1039 L 1062,1039 L 1062,1038 L 1061,1038 L 1060,1038 L 1060,1039 L 1059,1040 L 1058,1040 L 1058,1041 L 1057,1041 L 1056,1041 L 1055,1041 L 1054,1041 L 1055,1042 L 1056,1043 L 1055,1044 L 1054,1044 L 1054,1043 L 1053,1043 L 1052,1043 L 1052,1042 L 1051,1043 L 1051,1044 L 1052,1045 L 1052,1046 L 1051,1046 L 1050,1045 L 1050,1046 L 1050,1047 L 1049,1048 L 1048,1048 L 1048,1049 L 1048,1050 L 1047,1050 L 1047,1051 L 1046,1051 L 1045,1051 L 1044,1051 L 1044,1052 L 1043,1052 L 1042,1053 L 1041,1053 L 1040,1053 L 1040,1054 L 1039,1054 L 1038,1054 L 1037,1054 L 1036,1054 L 1035,1054 L 1034,1054 L 1033,1054 L 1032,1054 L 1031,1054 L 1030,1054 L 1029,1054 L 1028,1053 L 1027,1053 L 1026,1053 L 1026,1052 L 1025,1052 L 1024,1052 L 1023,1052 L 1023,1051 L 1022,1051 L 1021,1051 L 1021,1050 L 1021,1049 L 1021,1048 L 1021,1047 L 1020,1047 L 1019,1047 L 1018,1047 L 1018,1046 L 1018,1045 L 1017,1044 L 1016,1044 L 1017,1043 L 1017,1042 L 1017,1041 L 1017,1040 L 1018,1040 L 1018,1039 L 1018,1038 L 1019,1037 L 1020,1037 L 1020,1036 L 1021,1036 L 1022,1036 L 1022,1035 L 1022,1034 L 1022,1033 L 1022,1032 L 1023,1031 L 1023,1030 L 1021,1030 L 1020,1030 L 1019,1030 L 1018,1030 L 1017,1030 L 1016,1030 L 1015,1029 L 1014,1029 L 1013,1029 L 1013,1030 L 1012,1030 L 1012,1029 L 1011,1029 L 1010,1030 L 1010,1031 L 1009,1031 L 1008,1030 L 1008,1031 L 1007,1031 L 1006,1030 L 1005,1031 L 1004,1031 L 1003,1031 L 1002,1031 L 1002,1030 L 1001,1030 L 1001,1031 L 1000,1031 L 1000,1030 L 999,1030 L 999,1031 L 998,1031 L 998,1030 L 997,1030 L 996,1030 L 996,1031 L 997,1032 L 997,1033 L 996,1034 L 995,1034 L 994,1034 L 993,1034 L 992,1035 L 991,1034 L 990,1035 L 989,1035 L 989,1036 L 988,1036 L 987,1036 L 986,1036 L 985,1036 L 985,1035 L 985,1034 L 984,1034 L 984,1033 L 984,1032 L 984,1031 L 984,1030 L 984,1029 L 984,1028 L 983,1028 L 982,1029 L 981,1029 L 980,1029 L 979,1029 L 978,1030 L 978,1031 L 977,1031 L 977,1032 L 976,1032 L 975,1031 L 974,1030 L 973,1029 L 972,1028 L 971,1028 L 969,1028 L 968,1028 L 967,1028 L 966,1028 L 965,1028 L 965,1029 L 965,1028 L 964,1028 L 964,1027 L 963,1027 L 963,1026 L 962,1025 L 961,1025 L 960,1024 L 960,1023 L 959,1022 L 958,1023 L 958,1024 L 957,1025 L 956,1025 L 955,1026 L 954,1026 L 953,1026 L 953,1025 L 952,1025 L 951,1025 L 950,1026 L 949,1027 L 948,1027 L 947,1028 L 946,1028 L 945,1028 L 944,1028 L 943,1028 L 943,1029 L 943,1030 L 942,1031 L 942,1032 L 941,1032 L 940,1032 L 939,1031 L 938,1031 L 937,1030 L 936,1030 L 936,1031 L 935,1032 L 934,1032 L 933,1032 L 933,1033 L 933,1034 L 932,1034 L 931,1034 L 930,1033 L 930,1032 L 929,1032 L 928,1031 L 927,1031 L 926,1031 L 926,1030 L 926,1029 L 925,1029 L 924,1029 L 924,1028 L 923,1028 L 921,1028 L 920,1029 L 919,1029 L 918,1030 L 917,1030 L 917,1031 L 916,1031 L 915,1031 L 914,1031 L 913,1031 L 913,1032 L 912,1032 L 911,1032 L 910,1033 L 910,1032 L 909,1032 L 909,1031 L 908,1031 L 907,1031 L 906,1031 L 905,1032 L 904,1032 L 903,1032 L 902,1032 L 901,1032 L 900,1032 L 899,1033 L 898,1032 L 897,1032 L 896,1032 L 895,1032 L 894,1033 L 893,1033 L 892,1034 L 892,1035 L 892,1036 L 892,1037 L 891,1037 L 890,1037 L 889,1037 L 888,1036 L 887,1036 L 886,1036 L 885,1036 L 884,1035 L 883,1035 L 882,1035 L 881,1036 L 880,1037 L 879,1037 L 879,1038 L 878,1038 L 877,1038 L 876,1039 L 875,1040 L 874,1040 L 873,1041 L 872,1042 L 871,1042 L 870,1043 L 869,1043 L 868,1044 L 868,1045 L 867,1045 L 866,1045 L 866,1046 L 866,1047 L 865,1047 L 864,1048 L 864,1049 L 863,1049 L 862,1049 L 861,1049 L 860,1050 L 859,1050 L 858,1050 L 858,1051 L 858,1052 L 857,1052 L 856,1051 L 855,1050 L 854,1050 L 852,1050 L 851,1050 L 849,1050 L 848,1050 L 847,1051 L 846,1051 L 845,1052 L 844,1053 L 844,1054 L 844,1055 L 843,1055 L 843,1057 L 842,1058 L 843,1059 L 843,1061 L 842,1062 L 842,1064 L 841,1065 L 840,1065 L 839,1066 L 839,1067 L 838,1068 L 837,1068 L 836,1068 L 835,1069 L 834,1069 L 833,1069 L 832,1069 L 831,1070 L 830,1071 L 829,1071 L 828,1072 L 828,1073 L 828,1074 L 827,1074 L 826,1075 L 825,1076 L 824,1077 L 824,1078 L 823,1079 L 822,1080 L 821,1081 L 820,1081 L 819,1082 L 818,1083 L 817,1084 L 815,1085 L 814,1086 L 813,1086 L 812,1086 L 811,1087 L 811,1086 L 809,1084 L 808,1080 L 807,1073 L 806,1069 L 805,1065 L 803,1060 L 801,1053 L 800,1052 L 797,1048 L 799,1034 L 799,1033 L 799,1031 L 797,1028 L 795,1021 L 794,1019 L 788,1009 L 784,1000 L 782,996 L 782,994 L 782,992 L 792,974 L 793,972 L 794,969 L 794,966 L 795,964 L 796,963 L 797,961 L 801,960 L 802,959 L 807,956 L 810,954 L 821,946 L 823,945 L 825,937 L 826,930 L 828,926 L 828,923 L 825,916 L 823,912 L 822,911 L 817,907 L 815,906 L 809,896 L 809,895 L 809,892 L 808,888 L 807,885 L 802,880 L 799,876 L 796,871 L 794,868 L 794,866 L 790,852 L 789,849 L 789,847 L 787,839 L 785,835 L 783,832 L 777,828 L 773,826 L 770,825 L 770,824 L 772,822 L 774,819 L 776,814 L 778,812 L 782,812 L 793,811 L 799,811 L 801,810 L 805,808 L 806,806 L 808,802 L 808,801 L 809,799 L 809,798 L 811,797 L 817,794 L 819,793 L 819,792 L 820,790 L 818,785 L 818,780 L 818,778 L 824,777 L 826,776 L 836,769 L 841,766 L 848,762 L 856,760 L 859,759 L 864,759 L 868,759 L 881,758 L 883,758 L 886,757 L 887,755 L 898,735 L 899,733 L 902,727 L 904,722 L 906,720 L 906,719 L 911,717 L 913,715 L 915,711 L 916,706 L 919,701 L 919,699 L 918,698 L 914,695 L 913,695 L 910,692 L 909,691 L 908,682 L 908,678 L 909,674 L 910,668 L 911,664 L 911,662 L 911,661 L 909,658 L 904,654 L 903,653 L 902,652 L 900,653 L 897,656 L 896,656 L 894,657 L 889,658 L 888,659 L 879,660 L 876,660 L 879,656 L 887,649 L 888,647 L 888,645 L 887,641 L 885,638 L 884,636 L 883,635 L 881,635 L 880,634 L 881,626 L 881,623 L 876,613 L 875,612 L 871,612 L 870,610 L 870,608 L 870,607 L 872,606 L 872,604 L 871,604 L 863,601 L 857,601 L 854,599 L 852,598 L 849,599 L 848,600 L 843,603 L 841,604 L 836,605 L 827,606 L 824,606 L 822,606 L 817,605 L 807,603 L 802,601 L 798,600 L 797,600 L 794,599 L 794,596 L 794,593 L 795,588 L 796,587 L 795,581 L 795,579 L 801,579 L 810,582 L 815,585 L 817,586 L 818,583 L 816,579 L 816,574 L 816,573 L 819,570 L 820,569 L 822,568 L 824,565 L 824,564 L 825,562 L 826,561 L 828,560 L 829,561 L 831,564 L 832,567 L 835,573 L 835,575 L 842,576 L 846,578 L 848,579 L 851,578 L 852,577 L 854,576 L 858,572 L 862,570 L 866,569 L 869,568 L 870,567 L 870,566 L 870,564 L 869,563 L 865,562 L 863,560 L 863,559 L 863,557 L 864,555 L 862,553 L 861,549 L 861,548 L 860,548 L 856,548 L 854,550 L 853,550 L 853,551 L 853,550 L 850,548 L 848,547 L 847,547 L 847,542 L 850,537 L 852,533 L 853,528 L 853,527 L 854,522 L 853,517 L 853,515 L 855,514 L 857,513 L 860,512 L 861,511 L 863,509 L 870,500 L 874,496 L 874,495 L 875,493 L 878,493 L 880,494 L 882,495 L 885,500 L 887,504 L 888,507 L 889,509 L 896,509 L 897,509 L 898,509 L 900,514 L 901,514 L 905,520 L 907,521 L 912,522 L 921,530 L 927,536 L 931,542 L 932,544 L 934,546 L 939,543 L 949,539 L 953,537 L 956,536 L 966,535 L 968,535 L 978,535 L 980,535 " />
</g>
</g>
</g>
<!-- QGIS extent for clipping, eg in Inkscape -->
<g id="qgisviewbox" inkscape:groupmode="layer" inkscape:label="qgisviewbox" stroke="rgb(255,0,0)" stroke-width="1" fill="none" >
<path d="M 0,1114 L 2010,1114 L 2010,0 L 0,0 L 0,1114 " />
</g></svg>