<?xml version="1.0" standalone="no"?>
<!DOCTYPE svg PUBLIC "-//W3C//DTD SVG 1.1//EN" "http://www.w3.org/Graphics/SVG/1.1/DTD/svg11.dtd">
<svg xmlns="http://www.w3.org/2000/svg" xmlns:inkscape="http://www.inkscape.org/namespaces/inkscape" xmlns:xlink="http://www.w3.org/1999/xlink" viewBox = "0 0 2013 1116" version = "1.1">
<!-- svg generated using QGIS www.qgis.org -->
<g id="union_lektiko_δημοσ_αργιθεασ" inkscape:groupmode="layer" inkscape:label="union_lektiko_δημοσ_αργιθεασ">
<g stroke="none" fill="rgb(105,146,105)" stroke-linejoin="round" stroke-width="0.26">
<g id="union_lektiko_δημοσ_αργιθεασ_1" >
<path d="M 972,855 L 970,857 L 969,859 L 965,862 L 961,864 L 955,865 L 950,868 L 946,870 L 943,872 L 938,874 L 934,879 L 932,880 L 928,881 L 927,881 L 923,881 L 916,884 L 909,889 L 904,895 L 903,898 L 902,899 L 896,905 L 892,913 L 890,918 L 890,919 L 886,929 L 885,935 L 880,934 L 873,930 L 864,926 L 864,925 L 860,923 L 853,918 L 852,919 L 851,918 L 849,918 L 849,919 L 846,920 L 844,921 L 841,922 L 834,920 L 831,920 L 831,922 L 830,925 L 829,931 L 830,937 L 830,941 L 831,946 L 833,950 L 836,957 L 840,962 L 842,964 L 843,968 L 843,971 L 844,975 L 844,979 L 838,987 L 829,994 L 829,995 L 825,999 L 814,1005 L 803,1010 L 791,1013 L 789,1014 L 785,1016 L 778,1021 L 776,1024 L 775,1026 L 775,1027 L 774,1029 L 773,1030 L 771,1031 L 767,1035 L 764,1036 L 762,1036 L 747,1036 L 745,1036 L 744,1036 L 742,1038 L 740,1038 L 740,1037 L 738,1037 L 737,1038 L 735,1039 L 733,1042 L 732,1044 L 726,1049 L 721,1053 L 718,1055 L 717,1057 L 712,1062 L 709,1063 L 706,1064 L 706,1063 L 705,1062 L 704,1062 L 700,1064 L 697,1064 L 695,1067 L 693,1070 L 671,1077 L 669,1080 L 668,1082 L 666,1087 L 665,1087 L 657,1085 L 650,1082 L 647,1080 L 647,1079 L 644,1078 L 642,1078 L 638,1078 L 636,1077 L 633,1076 L 631,1074 L 628,1073 L 628,1072 L 625,1073 L 618,1077 L 616,1078 L 613,1077 L 612,1076 L 609,1073 L 604,1063 L 604,1062 L 601,1059 L 593,1054 L 592,1052 L 591,1051 L 590,1048 L 590,1043 L 592,1035 L 591,1029 L 589,1024 L 586,1020 L 582,1017 L 580,1016 L 579,1017 L 576,1018 L 573,1019 L 569,1019 L 566,1019 L 564,1018 L 563,1018 L 562,1017 L 561,1016 L 561,1015 L 560,1004 L 560,998 L 559,993 L 558,991 L 557,990 L 555,987 L 552,985 L 549,983 L 545,983 L 539,982 L 533,979 L 531,976 L 530,976 L 529,974 L 528,972 L 528,970 L 528,967 L 530,964 L 535,959 L 536,957 L 536,956 L 536,954 L 535,954 L 532,950 L 531,950 L 528,948 L 523,944 L 521,940 L 520,937 L 520,933 L 521,916 L 520,908 L 519,906 L 517,901 L 517,900 L 517,897 L 517,895 L 518,892 L 521,883 L 522,878 L 528,866 L 530,863 L 533,860 L 535,858 L 540,853 L 550,844 L 550,843 L 551,843 L 553,842 L 556,840 L 558,839 L 559,838 L 563,837 L 567,834 L 569,832 L 570,830 L 572,827 L 572,824 L 573,819 L 573,818 L 573,812 L 573,810 L 573,808 L 574,804 L 575,799 L 576,793 L 579,788 L 582,786 L 584,784 L 589,782 L 613,774 L 617,772 L 621,765 L 623,755 L 626,747 L 628,746 L 628,745 L 631,744 L 633,743 L 638,743 L 640,742 L 640,743 L 649,743 L 656,743 L 660,742 L 664,741 L 668,739 L 670,737 L 673,731 L 674,731 L 674,728 L 674,726 L 674,725 L 673,724 L 673,723 L 676,719 L 678,715 L 682,709 L 689,701 L 700,694 L 703,692 L 706,691 L 720,683 L 727,677 L 730,674 L 734,669 L 735,667 L 738,663 L 741,655 L 745,647 L 746,643 L 749,636 L 749,635 L 754,626 L 756,623 L 767,609 L 769,606 L 769,605 L 774,596 L 777,590 L 779,582 L 780,579 L 781,577 L 784,565 L 785,563 L 787,562 L 790,561 L 793,559 L 800,554 L 803,552 L 809,548 L 815,542 L 818,540 L 819,539 L 825,532 L 829,528 L 832,526 L 834,528 L 835,529 L 836,532 L 838,534 L 841,536 L 849,543 L 850,544 L 855,548 L 856,549 L 857,551 L 858,553 L 860,559 L 861,564 L 863,574 L 863,575 L 863,578 L 862,580 L 862,581 L 862,582 L 861,583 L 860,584 L 859,585 L 858,585 L 856,586 L 854,586 L 843,587 L 831,588 L 828,588 L 825,589 L 822,590 L 820,591 L 816,594 L 813,597 L 811,600 L 808,603 L 807,604 L 807,605 L 806,606 L 806,607 L 807,608 L 808,609 L 809,609 L 810,610 L 811,611 L 813,612 L 817,612 L 818,613 L 820,614 L 823,617 L 824,617 L 828,620 L 830,621 L 831,622 L 834,623 L 838,624 L 842,625 L 844,625 L 846,625 L 850,624 L 858,622 L 861,622 L 862,622 L 868,621 L 869,621 L 871,622 L 876,623 L 878,624 L 879,624 L 880,624 L 882,624 L 884,624 L 886,625 L 887,626 L 889,627 L 890,629 L 889,632 L 886,638 L 885,640 L 885,641 L 885,642 L 885,644 L 886,646 L 887,648 L 888,650 L 892,655 L 895,659 L 896,661 L 897,665 L 897,669 L 897,673 L 896,675 L 896,678 L 896,679 L 896,682 L 896,685 L 897,689 L 898,692 L 899,695 L 901,702 L 903,705 L 904,708 L 905,711 L 908,716 L 908,719 L 909,722 L 910,725 L 910,729 L 911,733 L 911,737 L 913,742 L 914,747 L 914,752 L 914,757 L 914,769 L 914,771 L 914,773 L 915,775 L 917,780 L 918,783 L 918,784 L 919,790 L 920,794 L 920,798 L 921,804 L 922,806 L 922,808 L 923,809 L 923,811 L 925,813 L 927,816 L 930,819 L 932,820 L 933,821 L 937,823 L 940,825 L 943,826 L 951,829 L 954,829 L 956,829 L 958,829 L 964,828 L 965,828 L 967,828 L 968,828 L 969,829 L 970,830 L 971,831 L 971,832 L 971,833 L 971,835 L 971,838 L 970,840 L 970,842 L 970,843 L 971,843 L 972,845 L 972,846 L 972,847 L 972,851 L 972,853 L 972,855 " />
</g>
<g id="union_lektiko_δημοσ_αργιθεασ_2" >
<path d="M 1246,386 L 1249,392 L 1252,395 L 1255,400 L 1256,401 L 1257,402 L 1259,404 L 1260,405 L 1261,406 L 1264,408 L 1269,410 L 1270,411 L 1271,412 L 1271,413 L 1272,414 L 1273,416 L 1278,427 L 1279,429 L 1281,432 L 1282,435 L 1284,437 L 1286,437 L 1287,438 L 1288,438 L 1290,438 L 1293,438 L 1297,437 L 1299,437 L 1302,436 L 1306,436 L 1309,437 L 1310,437 L 1311,438 L 1314,441 L 1316,442 L 1319,443 L 1323,443 L 1325,444 L 1326,445 L 1329,447 L 1330,448 L 1331,449 L 1333,449 L 1334,449 L 1335,449 L 1336,448 L 1338,445 L 1340,444 L 1344,442 L 1347,441 L 1350,440 L 1354,440 L 1357,440 L 1362,440 L 1364,440 L 1366,440 L 1370,438 L 1372,437 L 1381,436 L 1383,436 L 1390,435 L 1393,435 L 1395,434 L 1397,434 L 1406,432 L 1408,432 L 1411,433 L 1416,432 L 1423,431 L 1429,430 L 1432,431 L 1434,431 L 1436,432 L 1442,435 L 1444,436 L 1447,436 L 1448,436 L 1452,436 L 1453,437 L 1454,437 L 1455,438 L 1456,439 L 1457,440 L 1457,443 L 1458,446 L 1458,449 L 1458,455 L 1460,458 L 1463,464 L 1465,466 L 1466,467 L 1467,468 L 1469,471 L 1471,472 L 1474,475 L 1479,478 L 1484,480 L 1486,482 L 1488,483 L 1491,484 L 1491,486 L 1492,490 L 1493,492 L 1493,493 L 1493,496 L 1493,498 L 1493,501 L 1490,512 L 1490,514 L 1490,515 L 1489,515 L 1489,516 L 1489,518 L 1489,519 L 1490,526 L 1490,530 L 1489,530 L 1489,533 L 1489,534 L 1486,539 L 1466,561 L 1462,565 L 1461,566 L 1461,567 L 1461,568 L 1461,569 L 1462,571 L 1465,574 L 1469,577 L 1469,578 L 1474,584 L 1477,589 L 1479,593 L 1481,596 L 1482,598 L 1483,599 L 1482,599 L 1480,599 L 1479,599 L 1478,599 L 1475,599 L 1472,599 L 1470,599 L 1468,600 L 1467,600 L 1466,601 L 1465,602 L 1464,603 L 1463,604 L 1461,610 L 1460,613 L 1459,614 L 1458,614 L 1457,615 L 1455,617 L 1454,618 L 1453,620 L 1453,625 L 1452,628 L 1451,630 L 1450,632 L 1449,635 L 1448,636 L 1448,637 L 1446,639 L 1443,642 L 1442,643 L 1440,645 L 1435,647 L 1433,649 L 1431,650 L 1425,653 L 1424,654 L 1423,655 L 1422,656 L 1422,657 L 1421,658 L 1421,661 L 1422,664 L 1423,669 L 1423,670 L 1425,674 L 1429,683 L 1434,695 L 1438,703 L 1439,708 L 1442,714 L 1443,719 L 1444,727 L 1442,727 L 1441,727 L 1438,730 L 1432,737 L 1432,738 L 1430,741 L 1428,746 L 1426,747 L 1424,748 L 1422,748 L 1420,749 L 1417,750 L 1416,750 L 1415,751 L 1409,755 L 1403,759 L 1403,758 L 1399,761 L 1388,769 L 1384,774 L 1384,775 L 1385,775 L 1384,776 L 1381,779 L 1379,780 L 1376,780 L 1367,777 L 1363,776 L 1356,777 L 1344,780 L 1338,780 L 1334,779 L 1324,772 L 1323,771 L 1320,771 L 1308,773 L 1307,773 L 1292,774 L 1286,776 L 1286,777 L 1285,778 L 1282,779 L 1281,780 L 1271,789 L 1267,792 L 1264,794 L 1262,796 L 1246,804 L 1240,809 L 1235,818 L 1234,820 L 1227,830 L 1225,836 L 1224,844 L 1220,849 L 1218,853 L 1216,858 L 1216,866 L 1215,869 L 1214,871 L 1214,872 L 1213,874 L 1212,875 L 1209,875 L 1204,874 L 1197,875 L 1196,875 L 1186,881 L 1182,881 L 1169,882 L 1167,882 L 1155,882 L 1153,882 L 1151,882 L 1145,882 L 1144,881 L 1143,879 L 1142,879 L 1137,870 L 1131,862 L 1129,859 L 1124,855 L 1115,850 L 1109,847 L 1104,844 L 1102,843 L 1101,843 L 1098,842 L 1096,842 L 1091,843 L 1085,841 L 1081,837 L 1071,824 L 1068,820 L 1051,802 L 1044,796 L 1043,795 L 1040,795 L 1037,796 L 1036,799 L 1032,812 L 1029,817 L 1026,823 L 1025,824 L 1021,829 L 1019,831 L 1015,833 L 1013,835 L 1008,836 L 1004,839 L 1002,843 L 999,846 L 993,851 L 976,854 L 972,855 L 972,853 L 972,851 L 972,847 L 972,846 L 972,845 L 971,843 L 970,843 L 970,842 L 970,840 L 971,838 L 971,835 L 971,833 L 971,832 L 971,831 L 970,830 L 969,829 L 968,828 L 967,828 L 965,828 L 964,828 L 958,829 L 956,829 L 954,829 L 951,829 L 943,826 L 940,825 L 937,823 L 933,821 L 932,820 L 930,819 L 927,816 L 925,813 L 923,811 L 923,809 L 922,808 L 922,806 L 921,804 L 920,798 L 920,794 L 919,790 L 918,784 L 918,783 L 917,780 L 915,775 L 914,773 L 914,771 L 914,769 L 914,757 L 914,752 L 914,747 L 913,742 L 911,737 L 911,733 L 910,729 L 910,725 L 909,722 L 908,719 L 908,716 L 905,711 L 904,708 L 903,705 L 901,702 L 899,695 L 898,692 L 897,689 L 896,685 L 896,682 L 896,679 L 896,678 L 896,675 L 897,673 L 897,669 L 897,665 L 896,661 L 895,659 L 892,655 L 888,650 L 887,648 L 886,646 L 885,644 L 885,642 L 885,641 L 885,640 L 886,638 L 889,632 L 890,629 L 889,627 L 887,626 L 886,625 L 884,624 L 882,624 L 880,624 L 879,624 L 878,624 L 876,623 L 871,622 L 869,621 L 868,621 L 862,622 L 861,622 L 858,622 L 850,624 L 846,625 L 844,625 L 842,625 L 838,624 L 834,623 L 831,622 L 830,621 L 828,620 L 824,617 L 823,617 L 820,614 L 818,613 L 817,612 L 813,612 L 811,611 L 810,610 L 809,609 L 808,609 L 807,608 L 806,607 L 806,606 L 807,605 L 807,604 L 808,603 L 811,600 L 813,597 L 816,594 L 820,591 L 822,590 L 825,589 L 828,588 L 831,588 L 843,587 L 854,586 L 856,586 L 858,585 L 859,585 L 860,584 L 861,583 L 862,582 L 862,581 L 862,580 L 863,578 L 863,575 L 863,574 L 861,564 L 860,559 L 858,553 L 857,551 L 856,549 L 855,548 L 850,544 L 849,543 L 841,536 L 838,534 L 836,532 L 835,529 L 834,528 L 832,526 L 833,523 L 836,519 L 844,508 L 844,506 L 846,503 L 846,500 L 847,498 L 847,495 L 847,491 L 847,489 L 848,487 L 849,484 L 851,483 L 854,482 L 858,483 L 859,483 L 862,484 L 863,484 L 865,485 L 867,485 L 869,485 L 871,484 L 873,484 L 875,483 L 876,483 L 879,482 L 880,481 L 882,481 L 883,482 L 884,482 L 885,482 L 887,483 L 889,484 L 889,485 L 890,486 L 890,487 L 890,488 L 890,489 L 890,490 L 889,492 L 888,493 L 888,494 L 889,495 L 890,496 L 891,496 L 894,497 L 896,498 L 897,499 L 900,501 L 904,503 L 905,504 L 906,505 L 907,506 L 908,509 L 908,512 L 909,514 L 911,518 L 912,519 L 914,520 L 915,523 L 916,527 L 916,531 L 918,534 L 919,535 L 924,534 L 933,534 L 935,533 L 940,534 L 946,534 L 959,535 L 973,536 L 986,536 L 1001,536 L 1006,535 L 1007,535 L 1012,534 L 1016,534 L 1020,533 L 1024,533 L 1026,533 L 1031,532 L 1038,531 L 1041,530 L 1044,529 L 1047,529 L 1054,528 L 1056,528 L 1063,528 L 1068,527 L 1077,527 L 1083,526 L 1086,526 L 1088,525 L 1091,524 L 1094,522 L 1096,521 L 1098,518 L 1101,513 L 1104,508 L 1108,500 L 1110,497 L 1113,490 L 1118,480 L 1119,477 L 1120,474 L 1121,469 L 1122,465 L 1123,463 L 1123,461 L 1124,461 L 1124,460 L 1125,460 L 1126,459 L 1128,459 L 1133,459 L 1140,459 L 1154,459 L 1161,459 L 1165,459 L 1174,457 L 1184,453 L 1191,450 L 1197,447 L 1200,445 L 1207,445 L 1208,445 L 1213,445 L 1219,445 L 1221,445 L 1228,446 L 1231,446 L 1235,445 L 1237,444 L 1241,441 L 1244,439 L 1246,436 L 1247,435 L 1247,432 L 1248,427 L 1247,423 L 1246,413 L 1245,402 L 1245,397 L 1246,386 " />
</g>
<g id="union_lektiko_δημοσ_αργιθεασ_3" >
<path d="M 834,30 L 837,31 L 838,32 L 840,33 L 841,34 L 843,36 L 843,37 L 844,38 L 844,39 L 845,40 L 845,41 L 846,42 L 847,43 L 848,45 L 849,47 L 851,49 L 852,50 L 852,51 L 853,51 L 854,52 L 855,53 L 856,54 L 857,56 L 859,58 L 860,59 L 860,60 L 861,61 L 862,62 L 863,62 L 864,63 L 867,64 L 870,66 L 872,67 L 873,67 L 875,68 L 880,70 L 883,72 L 885,74 L 886,75 L 887,76 L 888,76 L 889,77 L 890,78 L 891,78 L 892,79 L 893,78 L 894,77 L 895,77 L 896,76 L 898,75 L 900,74 L 901,73 L 902,72 L 904,71 L 905,70 L 906,70 L 907,70 L 909,69 L 910,69 L 911,69 L 912,70 L 913,70 L 916,70 L 917,71 L 921,72 L 923,74 L 926,75 L 927,75 L 928,76 L 930,77 L 933,78 L 934,79 L 935,79 L 937,80 L 938,81 L 940,82 L 941,82 L 942,83 L 943,83 L 947,85 L 949,86 L 950,86 L 951,86 L 952,87 L 953,87 L 956,88 L 960,90 L 961,90 L 963,91 L 964,92 L 966,94 L 967,95 L 967,96 L 968,97 L 969,98 L 970,99 L 970,100 L 970,101 L 971,102 L 972,103 L 972,104 L 973,105 L 973,106 L 975,109 L 976,112 L 977,114 L 977,116 L 978,118 L 978,120 L 979,121 L 980,123 L 981,125 L 982,127 L 983,128 L 983,129 L 984,130 L 984,132 L 985,133 L 986,134 L 987,136 L 987,137 L 988,138 L 988,139 L 990,141 L 990,142 L 991,144 L 992,146 L 993,146 L 993,147 L 994,149 L 995,150 L 996,151 L 997,152 L 999,154 L 1000,155 L 1001,155 L 1002,156 L 1005,157 L 1006,157 L 1007,158 L 1009,158 L 1010,159 L 1011,159 L 1012,159 L 1014,159 L 1015,159 L 1018,159 L 1020,159 L 1022,160 L 1024,161 L 1025,161 L 1027,163 L 1028,164 L 1029,165 L 1030,166 L 1031,167 L 1034,171 L 1035,172 L 1039,174 L 1045,178 L 1047,180 L 1050,182 L 1051,183 L 1054,185 L 1057,187 L 1058,188 L 1059,189 L 1062,191 L 1065,193 L 1068,195 L 1071,197 L 1073,198 L 1076,199 L 1078,200 L 1082,201 L 1085,201 L 1086,199 L 1087,198 L 1087,197 L 1087,196 L 1087,195 L 1088,194 L 1089,193 L 1090,192 L 1091,191 L 1093,190 L 1095,189 L 1099,188 L 1102,186 L 1106,184 L 1107,182 L 1109,180 L 1109,179 L 1109,178 L 1110,175 L 1111,175 L 1114,174 L 1116,173 L 1118,172 L 1121,170 L 1121,169 L 1122,168 L 1123,166 L 1123,163 L 1124,161 L 1125,156 L 1126,155 L 1127,150 L 1129,147 L 1130,144 L 1135,138 L 1137,136 L 1139,134 L 1142,137 L 1158,142 L 1163,145 L 1168,148 L 1172,150 L 1177,153 L 1180,155 L 1183,156 L 1187,157 L 1196,157 L 1202,157 L 1208,158 L 1215,158 L 1221,157 L 1227,157 L 1235,157 L 1240,158 L 1247,159 L 1247,161 L 1245,163 L 1244,164 L 1241,165 L 1238,166 L 1233,167 L 1225,169 L 1223,170 L 1221,171 L 1220,173 L 1219,175 L 1218,180 L 1217,187 L 1216,189 L 1216,191 L 1215,193 L 1213,196 L 1209,201 L 1207,204 L 1204,212 L 1205,220 L 1208,230 L 1210,235 L 1211,238 L 1213,241 L 1214,243 L 1216,245 L 1218,246 L 1221,247 L 1223,247 L 1226,247 L 1231,246 L 1233,246 L 1235,245 L 1240,242 L 1243,241 L 1247,239 L 1251,238 L 1255,238 L 1257,239 L 1260,240 L 1262,241 L 1264,243 L 1266,245 L 1267,247 L 1267,249 L 1268,251 L 1266,252 L 1264,253 L 1264,254 L 1264,255 L 1264,256 L 1264,259 L 1267,266 L 1268,273 L 1270,280 L 1270,282 L 1272,288 L 1272,293 L 1272,294 L 1272,296 L 1272,298 L 1272,299 L 1271,302 L 1271,303 L 1270,304 L 1268,307 L 1263,311 L 1260,314 L 1259,315 L 1258,317 L 1256,321 L 1255,325 L 1254,332 L 1253,338 L 1252,346 L 1251,355 L 1250,358 L 1250,360 L 1250,364 L 1249,369 L 1247,380 L 1246,386 L 1245,397 L 1245,402 L 1246,413 L 1247,423 L 1248,427 L 1247,432 L 1247,435 L 1246,436 L 1244,439 L 1241,441 L 1237,444 L 1235,445 L 1231,446 L 1228,446 L 1221,445 L 1219,445 L 1213,445 L 1208,445 L 1207,445 L 1200,445 L 1197,447 L 1191,450 L 1184,453 L 1174,457 L 1165,459 L 1161,459 L 1154,459 L 1140,459 L 1133,459 L 1128,459 L 1126,459 L 1125,460 L 1124,460 L 1124,461 L 1123,461 L 1123,463 L 1122,465 L 1121,469 L 1120,474 L 1119,477 L 1118,480 L 1113,490 L 1110,497 L 1108,500 L 1104,508 L 1101,513 L 1098,518 L 1096,521 L 1094,522 L 1091,524 L 1088,525 L 1086,526 L 1083,526 L 1077,527 L 1068,527 L 1063,528 L 1056,528 L 1054,528 L 1047,529 L 1044,529 L 1041,530 L 1038,531 L 1031,532 L 1026,533 L 1024,533 L 1020,533 L 1016,534 L 1012,534 L 1007,535 L 1006,535 L 1001,536 L 986,536 L 973,536 L 959,535 L 946,534 L 940,534 L 935,533 L 933,534 L 924,534 L 919,535 L 918,534 L 916,531 L 916,527 L 915,523 L 914,520 L 912,519 L 911,518 L 909,514 L 908,512 L 908,509 L 907,506 L 906,505 L 905,504 L 904,503 L 900,501 L 897,499 L 896,498 L 894,497 L 891,496 L 890,496 L 889,495 L 888,494 L 888,493 L 889,492 L 890,490 L 890,489 L 890,488 L 890,487 L 890,486 L 889,485 L 889,484 L 887,483 L 885,482 L 884,482 L 883,482 L 882,481 L 880,481 L 879,482 L 876,483 L 875,483 L 873,484 L 871,484 L 869,485 L 867,485 L 865,485 L 863,484 L 862,484 L 859,483 L 858,483 L 854,482 L 851,483 L 849,484 L 848,487 L 847,489 L 847,491 L 847,495 L 847,498 L 846,500 L 846,503 L 844,506 L 844,508 L 836,519 L 833,523 L 832,526 L 829,528 L 825,532 L 819,539 L 818,540 L 815,542 L 809,548 L 803,552 L 800,554 L 793,559 L 790,561 L 787,562 L 785,563 L 785,562 L 785,560 L 786,555 L 786,552 L 788,547 L 789,543 L 789,539 L 788,534 L 787,531 L 786,527 L 784,526 L 779,525 L 773,524 L 773,525 L 770,525 L 761,523 L 760,523 L 756,522 L 750,521 L 747,520 L 745,519 L 744,519 L 742,517 L 742,516 L 740,506 L 736,501 L 735,497 L 734,497 L 734,495 L 734,493 L 736,491 L 737,488 L 736,480 L 736,476 L 737,473 L 739,472 L 739,471 L 742,468 L 742,467 L 743,466 L 742,465 L 741,464 L 739,462 L 739,461 L 739,459 L 740,454 L 742,450 L 744,447 L 746,445 L 747,444 L 748,442 L 748,440 L 747,439 L 747,438 L 745,436 L 742,433 L 742,432 L 737,427 L 737,426 L 736,424 L 735,424 L 734,422 L 734,418 L 733,416 L 733,414 L 732,414 L 731,412 L 729,409 L 728,408 L 728,407 L 729,405 L 730,404 L 732,401 L 732,398 L 732,396 L 732,395 L 731,394 L 730,393 L 724,392 L 719,392 L 713,391 L 709,391 L 706,391 L 705,391 L 703,390 L 702,390 L 702,389 L 701,388 L 700,388 L 700,384 L 702,380 L 703,380 L 705,377 L 706,377 L 706,374 L 706,371 L 703,368 L 700,367 L 695,365 L 692,362 L 691,361 L 691,360 L 691,356 L 690,354 L 689,352 L 686,348 L 685,345 L 685,342 L 688,336 L 688,333 L 689,330 L 690,330 L 692,326 L 693,324 L 693,322 L 693,319 L 691,316 L 688,314 L 684,313 L 680,313 L 675,312 L 673,310 L 672,308 L 672,307 L 671,305 L 671,303 L 670,300 L 670,299 L 669,297 L 668,297 L 668,295 L 669,294 L 672,290 L 672,289 L 669,282 L 669,281 L 667,279 L 665,278 L 661,277 L 655,278 L 654,278 L 649,279 L 647,280 L 645,279 L 644,278 L 642,277 L 641,275 L 641,274 L 640,273 L 639,271 L 640,269 L 641,267 L 641,266 L 641,265 L 641,264 L 641,262 L 640,260 L 639,259 L 639,257 L 639,255 L 639,254 L 639,252 L 639,251 L 638,249 L 638,248 L 638,247 L 637,246 L 637,245 L 637,244 L 637,243 L 639,242 L 640,241 L 642,240 L 642,239 L 642,238 L 642,237 L 641,236 L 640,234 L 640,232 L 639,231 L 639,229 L 639,227 L 639,226 L 639,225 L 639,224 L 640,224 L 640,223 L 640,222 L 639,221 L 639,220 L 638,218 L 639,217 L 640,216 L 640,214 L 641,211 L 640,211 L 640,210 L 640,209 L 640,208 L 638,207 L 637,206 L 636,205 L 635,204 L 635,203 L 635,201 L 635,200 L 634,199 L 634,198 L 633,198 L 633,197 L 632,196 L 631,195 L 630,194 L 629,193 L 628,193 L 627,192 L 626,192 L 627,191 L 628,191 L 629,190 L 630,190 L 631,189 L 633,188 L 634,187 L 636,187 L 637,186 L 638,185 L 642,182 L 645,181 L 645,180 L 646,180 L 647,180 L 648,179 L 649,178 L 650,177 L 651,176 L 651,175 L 651,174 L 651,172 L 650,172 L 650,171 L 650,170 L 649,167 L 648,166 L 647,165 L 647,164 L 646,162 L 645,161 L 645,159 L 645,158 L 644,157 L 645,156 L 645,155 L 645,153 L 646,152 L 646,151 L 647,151 L 648,150 L 651,149 L 652,149 L 655,149 L 656,148 L 657,148 L 658,147 L 659,147 L 659,146 L 661,145 L 662,144 L 663,142 L 664,141 L 665,140 L 666,139 L 667,138 L 668,137 L 669,136 L 670,136 L 672,132 L 673,131 L 674,129 L 675,128 L 675,124 L 676,123 L 676,122 L 677,121 L 679,120 L 680,119 L 681,119 L 683,118 L 684,118 L 685,118 L 686,117 L 687,117 L 688,117 L 691,116 L 692,115 L 694,115 L 696,114 L 697,113 L 698,112 L 699,112 L 699,111 L 700,111 L 700,110 L 701,108 L 701,107 L 701,106 L 701,102 L 702,99 L 703,97 L 703,95 L 704,93 L 705,92 L 705,91 L 706,90 L 706,89 L 708,88 L 708,87 L 710,86 L 710,85 L 711,84 L 714,82 L 714,81 L 716,80 L 718,79 L 719,78 L 721,78 L 722,77 L 725,76 L 727,76 L 728,75 L 729,75 L 732,74 L 733,74 L 735,73 L 737,73 L 739,72 L 739,71 L 740,71 L 741,70 L 742,69 L 743,68 L 743,67 L 744,66 L 744,64 L 744,61 L 744,60 L 744,59 L 745,58 L 748,56 L 749,56 L 750,56 L 751,55 L 753,55 L 755,54 L 756,54 L 759,52 L 762,50 L 763,49 L 768,45 L 769,44 L 770,43 L 772,41 L 776,39 L 778,38 L 780,37 L 783,35 L 785,34 L 786,33 L 787,33 L 788,32 L 789,32 L 792,31 L 794,30 L 796,29 L 799,29 L 800,28 L 802,28 L 804,28 L 807,27 L 808,27 L 810,27 L 811,27 L 812,27 L 814,28 L 815,29 L 817,30 L 818,30 L 820,30 L 821,29 L 822,29 L 822,28 L 823,27 L 824,27 L 825,26 L 826,26 L 827,27 L 828,27 L 829,28 L 831,28 L 832,28 L 833,29 L 834,30 " />
</g>
</g>
</g>
<!-- QGIS extent for clipping, eg in Inkscape -->
<g id="qgisviewbox" inkscape:groupmode="layer" inkscape:label="qgisviewbox" stroke="rgb(255,0,0)" stroke-width="1" fill="none" >
<path d="M 0,1114 L 2011,1114 L 2011,0 L 0,0 L 0,1114 " />
</g></svg>