<?xml version="1.0" standalone="no"?>
<!DOCTYPE svg PUBLIC "-//W3C//DTD SVG 1.1//EN" "http://www.w3.org/Graphics/SVG/1.1/DTD/svg11.dtd">
<svg xmlns="http://www.w3.org/2000/svg" xmlns:inkscape="http://www.inkscape.org/namespaces/inkscape" xmlns:xlink="http://www.w3.org/1999/xlink" viewBox = "0 0 2013 1116" version = "1.1">
<!-- svg generated using QGIS www.qgis.org -->
<g id="union_lektiko_δημοσ_αρριανων" inkscape:groupmode="layer" inkscape:label="union_lektiko_δημοσ_αρριανων">
<g stroke="none" fill="rgb(227,145,29)" stroke-linejoin="round" stroke-width="0.26">
<g id="union_lektiko_δημοσ_αρριανων_1" >
<path d="M 1506,762 L 1508,764 L 1508,765 L 1509,766 L 1510,767 L 1511,767 L 1511,768 L 1512,770 L 1513,770 L 1516,774 L 1517,775 L 1518,775 L 1519,777 L 1520,777 L 1521,778 L 1523,779 L 1525,780 L 1527,781 L 1529,783 L 1530,784 L 1532,785 L 1534,786 L 1536,788 L 1538,790 L 1540,792 L 1541,793 L 1542,794 L 1543,794 L 1544,795 L 1547,798 L 1549,799 L 1550,799 L 1551,799 L 1552,799 L 1553,799 L 1554,799 L 1555,799 L 1557,799 L 1557,798 L 1559,798 L 1560,798 L 1562,798 L 1564,798 L 1565,798 L 1567,799 L 1568,800 L 1570,800 L 1574,801 L 1576,802 L 1577,803 L 1578,803 L 1578,804 L 1578,805 L 1580,806 L 1581,806 L 1582,806 L 1583,806 L 1584,807 L 1586,809 L 1587,810 L 1588,813 L 1588,814 L 1588,816 L 1588,817 L 1588,818 L 1586,821 L 1585,823 L 1583,824 L 1583,825 L 1581,825 L 1579,826 L 1578,825 L 1576,824 L 1575,824 L 1573,823 L 1572,823 L 1571,823 L 1570,823 L 1569,822 L 1567,821 L 1566,821 L 1565,820 L 1564,820 L 1563,819 L 1561,819 L 1560,819 L 1559,819 L 1556,819 L 1555,819 L 1551,820 L 1550,820 L 1548,820 L 1545,820 L 1544,820 L 1543,820 L 1542,820 L 1540,820 L 1539,820 L 1537,820 L 1536,820 L 1534,820 L 1532,821 L 1531,821 L 1528,822 L 1527,822 L 1526,822 L 1525,822 L 1522,823 L 1520,823 L 1519,823 L 1516,823 L 1511,824 L 1508,825 L 1506,825 L 1504,826 L 1503,826 L 1502,827 L 1500,828 L 1498,829 L 1497,830 L 1494,832 L 1493,832 L 1491,832 L 1489,832 L 1488,832 L 1487,832 L 1487,831 L 1486,831 L 1486,830 L 1486,829 L 1485,827 L 1484,826 L 1483,825 L 1481,824 L 1478,823 L 1474,822 L 1472,821 L 1469,821 L 1468,821 L 1466,821 L 1465,821 L 1463,820 L 1461,820 L 1460,820 L 1459,820 L 1457,820 L 1455,819 L 1453,819 L 1452,818 L 1451,818 L 1448,817 L 1447,817 L 1445,818 L 1444,818 L 1441,818 L 1439,817 L 1438,817 L 1437,817 L 1435,818 L 1434,818 L 1433,818 L 1432,818 L 1430,818 L 1429,817 L 1429,816 L 1428,816 L 1428,815 L 1427,815 L 1427,814 L 1425,815 L 1424,816 L 1422,817 L 1421,817 L 1417,816 L 1416,816 L 1414,816 L 1413,816 L 1412,817 L 1411,818 L 1410,818 L 1409,818 L 1408,818 L 1407,818 L 1406,818 L 1405,818 L 1404,819 L 1403,820 L 1402,821 L 1401,823 L 1399,824 L 1397,826 L 1396,827 L 1394,828 L 1393,829 L 1393,830 L 1392,830 L 1391,830 L 1391,831 L 1389,830 L 1388,830 L 1387,829 L 1386,829 L 1386,830 L 1385,830 L 1384,831 L 1383,832 L 1382,833 L 1381,836 L 1380,839 L 1380,840 L 1380,841 L 1380,843 L 1380,846 L 1379,848 L 1379,850 L 1379,851 L 1379,852 L 1379,853 L 1379,854 L 1379,855 L 1378,859 L 1378,860 L 1377,862 L 1377,866 L 1376,869 L 1375,872 L 1375,873 L 1374,875 L 1374,877 L 1373,878 L 1372,881 L 1372,882 L 1371,883 L 1370,885 L 1369,887 L 1368,888 L 1367,889 L 1366,890 L 1366,891 L 1365,893 L 1365,894 L 1365,895 L 1365,896 L 1365,897 L 1365,898 L 1365,900 L 1365,901 L 1366,903 L 1366,905 L 1367,907 L 1367,908 L 1366,910 L 1366,912 L 1366,915 L 1366,916 L 1366,917 L 1366,918 L 1366,919 L 1366,920 L 1365,921 L 1365,923 L 1364,926 L 1364,929 L 1364,931 L 1363,932 L 1363,933 L 1363,934 L 1362,935 L 1362,936 L 1362,937 L 1361,941 L 1361,943 L 1361,945 L 1361,948 L 1360,949 L 1360,950 L 1359,953 L 1359,955 L 1358,957 L 1358,959 L 1357,963 L 1356,964 L 1355,966 L 1353,969 L 1352,970 L 1351,972 L 1350,973 L 1349,973 L 1349,974 L 1348,975 L 1347,976 L 1346,977 L 1346,978 L 1345,979 L 1344,980 L 1343,981 L 1342,982 L 1341,983 L 1340,984 L 1339,985 L 1338,986 L 1337,987 L 1337,988 L 1335,990 L 1334,990 L 1334,991 L 1332,992 L 1330,993 L 1329,994 L 1328,994 L 1328,995 L 1328,998 L 1328,999 L 1328,1000 L 1329,1002 L 1329,1004 L 1329,1008 L 1329,1010 L 1329,1011 L 1328,1012 L 1328,1013 L 1328,1014 L 1329,1017 L 1329,1019 L 1329,1022 L 1329,1023 L 1329,1024 L 1330,1026 L 1330,1027 L 1330,1029 L 1331,1030 L 1332,1031 L 1333,1032 L 1334,1032 L 1335,1032 L 1337,1033 L 1338,1034 L 1339,1035 L 1339,1036 L 1340,1037 L 1340,1039 L 1340,1040 L 1339,1042 L 1338,1043 L 1338,1044 L 1337,1045 L 1336,1046 L 1335,1047 L 1335,1048 L 1334,1050 L 1334,1051 L 1333,1054 L 1332,1056 L 1331,1057 L 1331,1058 L 1329,1061 L 1329,1062 L 1328,1063 L 1326,1066 L 1325,1067 L 1324,1068 L 1323,1069 L 1322,1071 L 1320,1072 L 1319,1073 L 1314,1075 L 1313,1075 L 1311,1076 L 1310,1077 L 1309,1077 L 1306,1078 L 1305,1078 L 1304,1079 L 1303,1079 L 1302,1079 L 1300,1079 L 1299,1080 L 1298,1080 L 1295,1081 L 1294,1082 L 1293,1082 L 1289,1083 L 1287,1084 L 1286,1084 L 1284,1084 L 1281,1085 L 1280,1086 L 1279,1086 L 1276,1086 L 1274,1087 L 1273,1087 L 1272,1087 L 1270,1087 L 1269,1087 L 1268,1087 L 1266,1086 L 1264,1086 L 1263,1086 L 1261,1086 L 1260,1086 L 1260,1085 L 1259,1085 L 1258,1085 L 1257,1084 L 1255,1084 L 1257,1081 L 1259,1079 L 1261,1076 L 1263,1075 L 1266,1071 L 1268,1069 L 1271,1066 L 1273,1063 L 1274,1062 L 1276,1061 L 1280,1057 L 1282,1056 L 1283,1054 L 1283,1053 L 1283,1052 L 1281,1050 L 1278,1050 L 1277,1050 L 1274,1049 L 1272,1049 L 1269,1049 L 1265,1049 L 1263,1049 L 1261,1049 L 1257,1049 L 1256,1049 L 1252,1049 L 1251,1049 L 1248,1047 L 1246,1047 L 1242,1046 L 1241,1045 L 1238,1044 L 1237,1043 L 1235,1042 L 1234,1042 L 1232,1042 L 1229,1041 L 1227,1040 L 1224,1040 L 1222,1039 L 1219,1039 L 1218,1039 L 1216,1039 L 1214,1038 L 1213,1038 L 1209,1038 L 1205,1036 L 1203,1036 L 1200,1034 L 1197,1033 L 1195,1031 L 1194,1030 L 1192,1028 L 1190,1025 L 1189,1023 L 1187,1019 L 1185,1018 L 1184,1016 L 1180,1013 L 1180,1012 L 1175,1009 L 1173,1007 L 1172,1006 L 1171,1006 L 1170,1006 L 1166,1008 L 1164,1008 L 1163,1008 L 1162,1008 L 1161,1007 L 1160,1006 L 1157,1001 L 1155,998 L 1153,995 L 1151,990 L 1151,989 L 1150,988 L 1149,988 L 1148,987 L 1146,988 L 1144,988 L 1143,988 L 1142,987 L 1137,984 L 1130,979 L 1125,976 L 1124,975 L 1123,974 L 1122,972 L 1122,971 L 1121,969 L 1121,968 L 1120,967 L 1120,966 L 1116,961 L 1115,959 L 1108,951 L 1107,948 L 1106,948 L 1105,947 L 1104,946 L 1100,946 L 1092,947 L 1088,949 L 1087,950 L 1085,950 L 1083,951 L 1082,951 L 1081,951 L 1078,950 L 1076,950 L 1075,951 L 1074,951 L 1072,953 L 1070,953 L 1068,953 L 1064,952 L 1061,952 L 1058,952 L 1056,952 L 1051,954 L 1050,954 L 1048,955 L 1045,957 L 1044,958 L 1041,959 L 1038,961 L 1036,962 L 1035,960 L 1034,958 L 1032,949 L 1031,947 L 1030,944 L 1028,936 L 1027,934 L 1022,930 L 1020,929 L 1019,928 L 1015,926 L 1014,925 L 1012,925 L 1011,926 L 1010,925 L 1009,922 L 1010,920 L 1010,919 L 1009,915 L 1009,912 L 1009,907 L 1009,904 L 1009,899 L 1009,897 L 1009,896 L 1009,891 L 1008,889 L 1008,888 L 1008,887 L 1009,887 L 1009,886 L 1010,886 L 1012,885 L 1014,885 L 1018,885 L 1021,884 L 1024,884 L 1027,884 L 1031,884 L 1033,884 L 1036,884 L 1037,884 L 1039,884 L 1043,884 L 1046,883 L 1048,881 L 1049,880 L 1051,879 L 1053,878 L 1056,876 L 1058,875 L 1060,873 L 1062,872 L 1064,871 L 1072,867 L 1075,867 L 1079,867 L 1081,865 L 1082,862 L 1083,861 L 1085,859 L 1086,858 L 1088,856 L 1090,854 L 1092,852 L 1093,851 L 1095,849 L 1097,847 L 1099,846 L 1101,846 L 1103,845 L 1105,846 L 1107,846 L 1109,846 L 1111,846 L 1113,846 L 1114,847 L 1115,848 L 1118,850 L 1119,851 L 1121,852 L 1123,853 L 1124,853 L 1126,853 L 1128,853 L 1130,852 L 1132,852 L 1134,850 L 1136,850 L 1138,850 L 1139,849 L 1141,849 L 1142,848 L 1143,848 L 1147,847 L 1148,847 L 1150,846 L 1152,845 L 1154,844 L 1154,842 L 1157,838 L 1157,835 L 1158,833 L 1160,831 L 1162,828 L 1163,827 L 1165,826 L 1166,826 L 1168,824 L 1171,823 L 1174,821 L 1175,820 L 1176,818 L 1178,817 L 1180,815 L 1183,812 L 1185,810 L 1187,808 L 1189,806 L 1192,803 L 1195,800 L 1198,799 L 1200,799 L 1201,799 L 1202,798 L 1202,797 L 1202,796 L 1202,795 L 1203,792 L 1204,791 L 1206,790 L 1207,790 L 1209,789 L 1211,789 L 1217,789 L 1220,788 L 1221,787 L 1224,785 L 1226,785 L 1228,784 L 1230,784 L 1234,782 L 1237,781 L 1240,780 L 1241,779 L 1242,778 L 1244,777 L 1245,777 L 1246,777 L 1247,777 L 1247,778 L 1248,778 L 1248,781 L 1246,785 L 1244,787 L 1242,788 L 1241,790 L 1240,791 L 1240,793 L 1241,796 L 1241,797 L 1242,798 L 1244,800 L 1246,801 L 1250,801 L 1251,801 L 1252,801 L 1253,800 L 1254,801 L 1255,801 L 1257,804 L 1261,802 L 1262,802 L 1264,802 L 1265,803 L 1266,803 L 1267,804 L 1267,805 L 1267,806 L 1266,808 L 1268,811 L 1270,814 L 1273,815 L 1275,817 L 1276,818 L 1278,818 L 1282,820 L 1285,821 L 1286,821 L 1288,821 L 1289,822 L 1292,823 L 1293,823 L 1295,824 L 1297,825 L 1298,825 L 1298,826 L 1299,827 L 1301,830 L 1303,831 L 1308,831 L 1310,830 L 1312,830 L 1314,830 L 1321,828 L 1325,829 L 1326,829 L 1328,829 L 1330,828 L 1331,828 L 1333,828 L 1335,829 L 1336,829 L 1337,829 L 1339,829 L 1340,828 L 1342,829 L 1343,829 L 1344,829 L 1347,827 L 1349,827 L 1350,827 L 1351,828 L 1353,829 L 1354,830 L 1355,830 L 1357,830 L 1360,827 L 1364,824 L 1365,822 L 1368,819 L 1374,814 L 1377,812 L 1378,810 L 1381,808 L 1384,806 L 1384,805 L 1385,804 L 1387,803 L 1388,802 L 1390,800 L 1392,798 L 1394,795 L 1397,793 L 1398,791 L 1402,788 L 1405,786 L 1406,785 L 1409,782 L 1411,780 L 1412,779 L 1413,779 L 1415,777 L 1416,775 L 1418,773 L 1424,767 L 1426,765 L 1427,764 L 1429,763 L 1432,760 L 1433,759 L 1438,755 L 1439,753 L 1441,752 L 1443,750 L 1446,747 L 1448,746 L 1450,744 L 1454,740 L 1455,739 L 1461,734 L 1462,732 L 1466,728 L 1467,727 L 1476,725 L 1476,726 L 1477,727 L 1477,728 L 1478,729 L 1479,729 L 1479,730 L 1480,731 L 1481,732 L 1482,733 L 1486,737 L 1487,738 L 1489,740 L 1492,742 L 1493,744 L 1494,745 L 1495,746 L 1496,747 L 1497,748 L 1499,752 L 1500,753 L 1500,754 L 1500,755 L 1501,755 L 1502,757 L 1503,758 L 1504,759 L 1504,760 L 1505,761 L 1506,762 " />
<path d="M 1302,685 L 1301,689 L 1298,689 L 1294,690 L 1290,690 L 1286,691 L 1283,692 L 1276,692 L 1273,692 L 1271,691 L 1270,691 L 1266,691 L 1262,690 L 1260,689 L 1256,689 L 1252,688 L 1250,688 L 1246,686 L 1243,686 L 1240,685 L 1239,684 L 1237,683 L 1233,681 L 1230,680 L 1228,679 L 1224,678 L 1223,677 L 1222,677 L 1217,675 L 1216,675 L 1215,675 L 1214,675 L 1212,675 L 1209,675 L 1207,674 L 1205,674 L 1200,673 L 1198,673 L 1196,672 L 1194,672 L 1192,671 L 1189,670 L 1188,670 L 1186,669 L 1183,668 L 1182,667 L 1180,666 L 1179,665 L 1178,665 L 1174,665 L 1173,665 L 1171,667 L 1170,668 L 1167,670 L 1162,673 L 1157,675 L 1155,677 L 1153,678 L 1145,682 L 1144,683 L 1139,685 L 1137,686 L 1136,687 L 1134,687 L 1133,688 L 1131,688 L 1129,689 L 1123,690 L 1121,690 L 1120,690 L 1118,690 L 1110,690 L 1108,690 L 1106,689 L 1098,688 L 1097,688 L 1096,687 L 1089,686 L 1086,685 L 1086,684 L 1082,683 L 1080,682 L 1077,681 L 1073,679 L 1071,679 L 1068,678 L 1066,678 L 1065,678 L 1063,678 L 1062,679 L 1058,680 L 1057,682 L 1057,683 L 1056,685 L 1056,689 L 1055,690 L 1056,695 L 1053,702 L 1052,705 L 1051,706 L 1049,709 L 1048,712 L 1045,715 L 1045,716 L 1045,718 L 1044,721 L 1044,723 L 1044,726 L 1043,729 L 1042,731 L 1042,732 L 1042,734 L 1042,735 L 1042,738 L 1042,740 L 1042,742 L 1041,743 L 1041,744 L 1040,746 L 1040,747 L 1040,749 L 1040,750 L 1039,750 L 1039,751 L 1038,752 L 1037,753 L 1035,754 L 1034,756 L 1032,757 L 1031,759 L 1030,760 L 1029,762 L 1025,762 L 1022,762 L 1021,764 L 1021,767 L 1019,767 L 1017,768 L 1014,769 L 1013,769 L 1013,770 L 1010,772 L 1009,773 L 1008,774 L 1007,775 L 1007,779 L 1007,780 L 1007,782 L 1007,786 L 1007,788 L 1007,791 L 1011,791 L 1012,792 L 1015,794 L 1017,795 L 1018,795 L 1020,797 L 1021,799 L 1020,802 L 1019,805 L 1017,810 L 1017,811 L 1016,815 L 1015,816 L 1015,817 L 1013,822 L 1012,824 L 1012,826 L 1010,832 L 1009,833 L 1008,835 L 1006,839 L 1004,841 L 1003,845 L 1002,846 L 1001,848 L 998,851 L 997,852 L 993,855 L 988,858 L 983,861 L 982,862 L 979,866 L 976,868 L 975,870 L 973,871 L 970,873 L 968,874 L 966,875 L 964,875 L 963,875 L 959,876 L 956,876 L 953,876 L 949,875 L 950,878 L 951,879 L 952,881 L 952,883 L 953,885 L 954,887 L 956,890 L 956,892 L 956,893 L 956,895 L 955,896 L 955,898 L 953,901 L 952,904 L 950,907 L 948,913 L 947,915 L 946,916 L 946,917 L 943,921 L 942,923 L 939,929 L 939,931 L 938,936 L 937,937 L 936,944 L 936,945 L 935,947 L 935,950 L 933,956 L 932,959 L 931,965 L 930,969 L 930,971 L 929,972 L 928,974 L 926,977 L 925,981 L 925,984 L 924,988 L 924,993 L 923,996 L 922,1000 L 922,1004 L 922,1007 L 923,1011 L 923,1014 L 923,1017 L 923,1020 L 923,1022 L 922,1026 L 922,1028 L 922,1035 L 920,1035 L 919,1033 L 918,1033 L 915,1028 L 912,1025 L 907,1021 L 905,1019 L 903,1017 L 902,1016 L 901,1016 L 900,1016 L 898,1016 L 891,1016 L 887,1017 L 886,1017 L 884,1017 L 883,1018 L 880,1019 L 878,1020 L 877,1020 L 874,1021 L 872,1021 L 871,1022 L 868,1024 L 858,1028 L 854,1030 L 849,1033 L 846,1034 L 840,1037 L 839,1038 L 831,1041 L 830,1041 L 829,1041 L 826,1041 L 826,1040 L 824,1040 L 822,1041 L 819,1042 L 818,1042 L 817,1041 L 816,1041 L 814,1040 L 814,1039 L 813,1039 L 811,1038 L 810,1038 L 809,1038 L 807,1038 L 806,1038 L 805,1038 L 802,1037 L 800,1037 L 798,1037 L 795,1038 L 794,1038 L 793,1038 L 791,1035 L 789,1035 L 787,1034 L 786,1034 L 785,1034 L 782,1035 L 780,1035 L 774,1038 L 772,1040 L 770,1042 L 769,1042 L 768,1043 L 767,1042 L 766,1041 L 767,1039 L 767,1038 L 769,1035 L 769,1034 L 770,1033 L 771,1032 L 774,1027 L 775,1025 L 775,1024 L 775,1022 L 774,1020 L 772,1018 L 769,1013 L 768,1012 L 767,1010 L 767,1009 L 768,1008 L 769,1006 L 769,1005 L 769,1004 L 769,1003 L 769,1002 L 768,1000 L 768,998 L 768,995 L 768,993 L 768,992 L 768,990 L 767,988 L 767,984 L 767,982 L 767,980 L 766,979 L 765,978 L 764,978 L 762,977 L 761,977 L 761,976 L 760,974 L 760,971 L 760,969 L 761,965 L 761,961 L 762,955 L 762,951 L 762,946 L 761,945 L 761,943 L 761,941 L 761,938 L 761,934 L 761,932 L 761,928 L 762,926 L 762,924 L 761,918 L 762,913 L 762,908 L 763,905 L 764,902 L 766,898 L 768,895 L 769,895 L 771,894 L 774,893 L 776,892 L 780,891 L 783,890 L 784,890 L 785,889 L 787,888 L 788,887 L 789,886 L 792,883 L 793,882 L 793,881 L 794,878 L 795,877 L 795,876 L 796,872 L 796,870 L 797,868 L 798,863 L 797,862 L 796,859 L 795,858 L 793,857 L 791,855 L 790,852 L 788,850 L 785,846 L 784,845 L 784,843 L 783,842 L 782,841 L 779,837 L 778,835 L 777,834 L 776,833 L 775,832 L 774,831 L 773,830 L 771,828 L 769,825 L 768,823 L 767,820 L 767,817 L 770,817 L 774,819 L 780,822 L 783,823 L 785,824 L 787,824 L 788,823 L 789,822 L 789,819 L 789,815 L 789,814 L 789,812 L 789,810 L 789,808 L 788,805 L 788,803 L 787,801 L 788,801 L 788,799 L 789,798 L 791,798 L 796,798 L 799,799 L 806,799 L 809,800 L 810,800 L 813,800 L 816,799 L 818,800 L 820,800 L 824,800 L 826,800 L 827,800 L 827,798 L 826,795 L 825,794 L 823,791 L 823,790 L 823,786 L 824,782 L 824,781 L 825,779 L 825,777 L 825,776 L 826,774 L 826,772 L 826,769 L 825,767 L 825,762 L 824,760 L 825,758 L 826,758 L 826,757 L 827,757 L 828,756 L 831,756 L 833,756 L 834,756 L 840,757 L 842,758 L 846,759 L 848,759 L 849,759 L 852,759 L 854,759 L 858,760 L 861,760 L 866,761 L 867,760 L 868,760 L 870,761 L 875,760 L 877,760 L 880,759 L 882,759 L 884,758 L 886,757 L 885,755 L 884,754 L 884,752 L 883,751 L 882,749 L 881,748 L 880,747 L 877,743 L 877,742 L 876,740 L 874,737 L 872,734 L 871,732 L 871,730 L 869,728 L 868,725 L 867,724 L 867,722 L 866,720 L 865,717 L 865,715 L 864,710 L 864,708 L 864,704 L 864,701 L 864,700 L 864,698 L 864,696 L 865,695 L 866,695 L 867,695 L 868,695 L 869,696 L 870,696 L 873,695 L 875,695 L 878,694 L 885,698 L 886,698 L 889,698 L 891,699 L 893,699 L 897,699 L 899,699 L 903,698 L 907,698 L 910,698 L 914,698 L 918,698 L 920,698 L 924,697 L 926,697 L 929,699 L 930,701 L 932,702 L 939,706 L 942,706 L 944,705 L 944,704 L 943,697 L 941,695 L 938,688 L 937,687 L 936,684 L 935,682 L 934,680 L 934,679 L 934,677 L 934,676 L 935,675 L 936,674 L 937,675 L 938,675 L 941,678 L 943,679 L 945,680 L 947,680 L 948,680 L 951,681 L 953,680 L 955,679 L 957,678 L 958,674 L 958,672 L 958,665 L 959,660 L 960,657 L 961,655 L 963,653 L 964,653 L 965,651 L 966,651 L 966,650 L 968,649 L 969,648 L 970,647 L 971,647 L 975,645 L 976,645 L 977,645 L 977,644 L 978,643 L 979,642 L 980,640 L 980,639 L 980,638 L 979,636 L 978,634 L 977,633 L 976,632 L 976,631 L 975,631 L 972,630 L 971,629 L 971,628 L 971,627 L 972,623 L 972,622 L 972,621 L 973,621 L 974,620 L 975,621 L 976,621 L 984,626 L 985,626 L 986,626 L 987,626 L 988,625 L 988,624 L 988,623 L 988,621 L 988,619 L 988,618 L 988,617 L 988,616 L 989,616 L 991,615 L 991,614 L 992,613 L 994,612 L 991,608 L 991,607 L 990,607 L 991,606 L 991,605 L 991,604 L 992,603 L 995,603 L 997,603 L 999,604 L 1000,604 L 1004,606 L 1007,608 L 1009,608 L 1010,609 L 1013,610 L 1014,611 L 1016,612 L 1017,612 L 1018,612 L 1020,612 L 1022,611 L 1027,609 L 1032,606 L 1033,605 L 1040,602 L 1042,597 L 1043,596 L 1045,595 L 1047,594 L 1048,594 L 1053,593 L 1055,593 L 1056,592 L 1057,591 L 1058,590 L 1062,582 L 1065,578 L 1067,576 L 1068,575 L 1069,574 L 1070,573 L 1073,571 L 1075,569 L 1077,571 L 1079,572 L 1083,574 L 1084,575 L 1088,577 L 1094,580 L 1096,582 L 1099,583 L 1100,585 L 1101,587 L 1102,588 L 1103,588 L 1104,588 L 1105,586 L 1106,586 L 1107,585 L 1108,585 L 1109,586 L 1110,587 L 1111,588 L 1112,589 L 1113,589 L 1114,589 L 1115,589 L 1116,588 L 1117,588 L 1118,588 L 1120,589 L 1123,590 L 1123,591 L 1126,592 L 1131,595 L 1134,596 L 1140,599 L 1143,600 L 1145,601 L 1146,601 L 1150,601 L 1155,602 L 1157,602 L 1161,603 L 1162,603 L 1163,603 L 1167,601 L 1169,600 L 1170,600 L 1170,599 L 1171,598 L 1172,596 L 1173,595 L 1174,595 L 1176,595 L 1178,594 L 1180,593 L 1181,593 L 1186,590 L 1191,586 L 1195,584 L 1197,583 L 1198,582 L 1201,580 L 1202,580 L 1203,579 L 1206,579 L 1208,579 L 1210,579 L 1212,578 L 1213,577 L 1215,577 L 1218,576 L 1219,576 L 1220,575 L 1223,574 L 1224,574 L 1225,573 L 1227,572 L 1230,568 L 1231,567 L 1232,567 L 1232,566 L 1233,566 L 1235,566 L 1238,565 L 1239,565 L 1241,566 L 1242,567 L 1244,569 L 1246,573 L 1249,576 L 1253,584 L 1255,588 L 1258,592 L 1260,595 L 1263,600 L 1264,603 L 1266,605 L 1267,607 L 1270,613 L 1272,617 L 1274,622 L 1276,631 L 1278,640 L 1280,647 L 1281,650 L 1282,656 L 1283,659 L 1284,665 L 1285,666 L 1286,668 L 1286,669 L 1287,670 L 1290,673 L 1291,675 L 1294,677 L 1295,678 L 1297,681 L 1300,683 L 1301,685 L 1302,685 " />
</g>
<g id="union_lektiko_δημοσ_αρριανων_2" >
<path d="M 761,943 L 759,944 L 757,945 L 756,944 L 755,944 L 754,944 L 752,943 L 751,942 L 748,942 L 748,941 L 748,938 L 748,935 L 749,933 L 749,931 L 748,929 L 748,926 L 747,922 L 747,920 L 747,917 L 747,915 L 747,913 L 747,911 L 746,908 L 745,902 L 745,900 L 743,899 L 739,896 L 738,895 L 737,895 L 735,894 L 732,892 L 730,888 L 728,887 L 727,886 L 723,883 L 720,882 L 718,881 L 716,879 L 715,879 L 715,878 L 714,878 L 713,878 L 710,878 L 707,877 L 705,878 L 703,878 L 701,877 L 699,877 L 697,876 L 695,876 L 690,873 L 687,872 L 684,872 L 683,873 L 681,874 L 678,876 L 677,878 L 675,881 L 674,883 L 674,884 L 674,887 L 677,889 L 681,891 L 682,892 L 683,893 L 684,894 L 684,895 L 684,896 L 684,897 L 682,899 L 681,901 L 680,903 L 679,906 L 676,909 L 675,910 L 675,911 L 672,914 L 670,918 L 668,919 L 667,921 L 663,925 L 662,925 L 660,926 L 657,928 L 655,928 L 653,927 L 652,927 L 650,926 L 648,925 L 647,926 L 641,929 L 637,930 L 634,930 L 633,930 L 631,930 L 629,928 L 628,927 L 626,927 L 623,926 L 621,926 L 618,924 L 616,926 L 616,928 L 616,934 L 616,935 L 615,939 L 615,941 L 614,942 L 614,944 L 614,946 L 613,946 L 614,948 L 614,949 L 614,950 L 613,952 L 613,954 L 612,956 L 612,957 L 611,958 L 610,960 L 610,961 L 609,962 L 608,963 L 609,966 L 609,967 L 610,969 L 610,971 L 610,972 L 609,975 L 608,977 L 608,980 L 607,982 L 606,984 L 605,985 L 604,987 L 603,989 L 602,992 L 601,993 L 601,994 L 601,995 L 601,997 L 601,1000 L 601,1001 L 600,1004 L 598,1006 L 598,1008 L 595,1012 L 594,1013 L 593,1014 L 592,1016 L 591,1019 L 589,1023 L 588,1025 L 586,1027 L 585,1031 L 583,1034 L 582,1036 L 580,1039 L 577,1041 L 575,1043 L 574,1044 L 574,1041 L 573,1038 L 574,1030 L 573,1023 L 573,1021 L 572,1017 L 572,1014 L 571,1007 L 571,1006 L 570,1004 L 570,1003 L 569,1002 L 568,1001 L 567,1000 L 562,997 L 560,996 L 559,995 L 555,995 L 549,994 L 545,994 L 535,994 L 532,994 L 526,994 L 524,994 L 523,993 L 522,991 L 520,988 L 518,986 L 517,983 L 516,980 L 516,977 L 516,975 L 516,974 L 518,967 L 518,965 L 518,964 L 518,963 L 516,958 L 515,956 L 514,955 L 514,954 L 513,951 L 515,951 L 517,951 L 518,951 L 519,949 L 520,947 L 521,945 L 521,943 L 522,941 L 522,940 L 523,938 L 528,936 L 530,935 L 531,935 L 534,933 L 535,932 L 536,930 L 537,929 L 538,927 L 534,927 L 532,925 L 531,923 L 530,921 L 529,919 L 528,916 L 528,914 L 527,911 L 526,908 L 525,904 L 525,900 L 526,897 L 526,894 L 526,893 L 527,890 L 527,888 L 529,883 L 530,879 L 532,872 L 533,869 L 535,865 L 536,864 L 537,860 L 539,855 L 541,853 L 541,851 L 543,849 L 543,848 L 545,844 L 546,843 L 547,841 L 548,840 L 549,836 L 548,835 L 547,835 L 546,835 L 544,835 L 541,835 L 537,836 L 533,838 L 527,840 L 526,841 L 525,842 L 522,844 L 519,846 L 519,844 L 519,841 L 519,839 L 519,837 L 518,835 L 516,833 L 515,831 L 515,830 L 514,829 L 514,828 L 513,827 L 512,824 L 511,821 L 510,819 L 509,816 L 508,813 L 507,810 L 506,808 L 505,804 L 504,797 L 503,793 L 503,792 L 503,791 L 503,789 L 502,786 L 502,783 L 501,779 L 503,775 L 503,774 L 504,772 L 506,768 L 509,766 L 513,762 L 516,759 L 517,759 L 519,757 L 520,756 L 523,754 L 526,752 L 526,751 L 527,750 L 527,749 L 526,747 L 526,746 L 525,743 L 523,740 L 523,739 L 522,738 L 521,735 L 520,733 L 518,730 L 517,727 L 516,724 L 516,722 L 516,718 L 516,716 L 516,712 L 516,708 L 515,705 L 515,703 L 515,700 L 514,696 L 514,695 L 514,693 L 513,691 L 513,688 L 512,685 L 512,683 L 512,680 L 512,679 L 512,673 L 512,671 L 513,667 L 514,664 L 514,661 L 515,658 L 515,654 L 516,652 L 516,649 L 517,645 L 518,643 L 519,641 L 520,636 L 520,634 L 520,632 L 519,630 L 517,628 L 514,626 L 512,624 L 508,621 L 504,620 L 501,618 L 492,618 L 490,617 L 488,617 L 483,615 L 479,613 L 477,613 L 476,613 L 475,612 L 472,611 L 470,609 L 467,608 L 465,608 L 464,607 L 462,607 L 460,607 L 457,607 L 452,607 L 449,607 L 446,607 L 443,607 L 442,607 L 440,606 L 438,604 L 437,602 L 437,601 L 434,595 L 432,592 L 432,590 L 430,585 L 429,582 L 428,577 L 427,575 L 427,573 L 426,569 L 426,567 L 425,565 L 425,561 L 425,559 L 424,556 L 423,549 L 422,540 L 422,538 L 422,536 L 423,534 L 423,533 L 425,530 L 425,529 L 425,528 L 426,524 L 428,521 L 429,520 L 431,516 L 433,513 L 434,511 L 435,511 L 437,507 L 439,505 L 441,503 L 443,501 L 444,500 L 445,499 L 447,497 L 450,495 L 453,493 L 455,491 L 457,489 L 460,486 L 462,485 L 464,483 L 468,481 L 470,480 L 471,479 L 473,478 L 476,476 L 477,475 L 484,470 L 485,469 L 489,468 L 493,466 L 496,465 L 500,464 L 501,463 L 504,462 L 505,462 L 506,461 L 509,461 L 516,459 L 517,458 L 518,457 L 520,457 L 522,457 L 527,456 L 529,456 L 532,455 L 533,455 L 533,454 L 537,454 L 539,454 L 541,453 L 544,453 L 547,452 L 564,449 L 565,448 L 566,448 L 568,447 L 570,447 L 575,446 L 578,445 L 580,445 L 584,443 L 585,442 L 588,442 L 589,441 L 592,440 L 594,440 L 596,439 L 597,439 L 603,437 L 606,436 L 607,435 L 610,434 L 611,434 L 613,433 L 614,433 L 615,432 L 617,431 L 620,430 L 623,429 L 624,428 L 628,426 L 632,424 L 635,422 L 639,419 L 640,417 L 642,416 L 644,414 L 645,413 L 652,408 L 654,407 L 655,405 L 658,404 L 659,404 L 662,403 L 664,404 L 670,407 L 672,408 L 674,409 L 678,412 L 679,413 L 681,413 L 685,415 L 686,416 L 686,417 L 688,418 L 695,422 L 695,425 L 696,432 L 696,439 L 695,440 L 696,445 L 696,447 L 696,451 L 697,452 L 698,452 L 699,452 L 701,452 L 702,453 L 704,454 L 710,457 L 712,458 L 714,459 L 715,460 L 717,461 L 722,465 L 726,468 L 730,471 L 733,472 L 734,473 L 741,474 L 743,475 L 744,475 L 748,477 L 749,479 L 751,481 L 753,482 L 755,483 L 757,483 L 758,483 L 759,483 L 761,485 L 762,485 L 763,485 L 764,485 L 767,485 L 770,486 L 771,486 L 772,487 L 773,488 L 773,491 L 774,496 L 774,497 L 774,503 L 774,509 L 773,515 L 773,518 L 772,520 L 772,521 L 772,526 L 771,529 L 771,533 L 770,536 L 770,537 L 769,542 L 769,546 L 769,550 L 769,552 L 769,553 L 768,555 L 764,563 L 762,567 L 758,573 L 757,575 L 756,576 L 755,577 L 753,579 L 756,580 L 758,583 L 759,584 L 760,585 L 762,585 L 765,586 L 769,586 L 773,586 L 777,587 L 782,587 L 785,587 L 789,587 L 793,587 L 794,587 L 796,587 L 797,588 L 798,589 L 803,593 L 807,596 L 810,598 L 812,600 L 814,602 L 815,603 L 816,604 L 817,606 L 817,607 L 818,609 L 819,610 L 820,612 L 823,614 L 824,615 L 825,616 L 826,617 L 826,618 L 827,619 L 828,616 L 829,615 L 829,614 L 831,612 L 832,611 L 833,610 L 834,610 L 835,609 L 838,607 L 839,605 L 841,602 L 845,598 L 847,594 L 852,590 L 855,587 L 859,583 L 860,581 L 862,580 L 865,578 L 867,577 L 868,576 L 869,574 L 871,571 L 872,569 L 876,563 L 877,562 L 878,561 L 879,560 L 880,559 L 881,559 L 883,559 L 886,559 L 888,560 L 894,562 L 898,564 L 899,565 L 901,565 L 902,565 L 903,565 L 905,565 L 907,564 L 909,563 L 910,562 L 910,561 L 911,560 L 912,559 L 913,555 L 916,549 L 916,547 L 916,546 L 916,544 L 915,543 L 915,542 L 915,541 L 916,539 L 917,536 L 917,535 L 917,532 L 918,532 L 918,531 L 919,530 L 919,527 L 919,524 L 919,523 L 919,522 L 920,522 L 922,521 L 924,519 L 926,518 L 927,517 L 927,516 L 928,514 L 928,513 L 928,512 L 927,509 L 926,508 L 926,507 L 926,505 L 927,504 L 927,502 L 927,501 L 928,498 L 928,497 L 928,496 L 927,494 L 926,490 L 926,488 L 925,486 L 925,485 L 923,482 L 922,481 L 922,480 L 921,480 L 920,479 L 919,479 L 919,478 L 918,477 L 917,473 L 917,472 L 916,471 L 915,470 L 910,467 L 909,465 L 909,464 L 908,464 L 908,463 L 909,457 L 909,455 L 909,454 L 907,449 L 906,446 L 906,444 L 906,441 L 906,439 L 905,436 L 905,434 L 905,433 L 905,432 L 905,429 L 905,428 L 905,427 L 904,426 L 904,424 L 902,422 L 902,421 L 901,420 L 901,419 L 902,418 L 903,416 L 904,416 L 905,415 L 908,412 L 909,411 L 910,410 L 910,409 L 911,409 L 915,406 L 917,405 L 918,404 L 920,402 L 922,400 L 923,399 L 925,399 L 926,398 L 927,397 L 928,395 L 930,393 L 931,392 L 933,390 L 934,389 L 937,386 L 940,381 L 941,380 L 942,380 L 943,378 L 944,378 L 946,375 L 947,374 L 948,373 L 949,373 L 952,371 L 953,369 L 954,367 L 957,367 L 957,366 L 958,366 L 958,365 L 959,364 L 959,363 L 959,362 L 961,360 L 962,359 L 968,352 L 969,351 L 973,347 L 976,344 L 977,344 L 978,343 L 979,342 L 981,341 L 983,340 L 984,340 L 985,340 L 987,341 L 989,341 L 990,342 L 992,343 L 998,346 L 1002,349 L 1003,349 L 1004,350 L 1005,351 L 1005,352 L 1006,353 L 1006,354 L 1007,355 L 1007,359 L 1006,361 L 1006,362 L 1007,363 L 1009,365 L 1011,366 L 1013,367 L 1015,367 L 1018,368 L 1023,368 L 1028,368 L 1033,369 L 1043,365 L 1047,365 L 1048,365 L 1049,366 L 1058,370 L 1062,372 L 1066,374 L 1071,377 L 1078,381 L 1084,386 L 1086,387 L 1088,388 L 1092,389 L 1093,390 L 1096,391 L 1099,391 L 1104,392 L 1105,392 L 1106,393 L 1107,394 L 1108,397 L 1109,399 L 1110,400 L 1112,405 L 1113,408 L 1113,409 L 1114,410 L 1114,411 L 1114,412 L 1114,414 L 1114,416 L 1114,417 L 1115,418 L 1115,422 L 1116,426 L 1116,427 L 1117,428 L 1117,429 L 1118,429 L 1119,430 L 1122,431 L 1126,433 L 1129,433 L 1129,434 L 1130,434 L 1132,436 L 1133,436 L 1135,436 L 1136,437 L 1137,437 L 1139,439 L 1141,441 L 1142,441 L 1144,442 L 1145,444 L 1147,446 L 1147,447 L 1148,450 L 1149,452 L 1150,454 L 1153,456 L 1155,459 L 1156,460 L 1157,461 L 1159,462 L 1161,463 L 1162,463 L 1163,464 L 1164,471 L 1165,473 L 1166,475 L 1166,476 L 1166,477 L 1166,480 L 1165,483 L 1164,490 L 1164,494 L 1164,496 L 1164,497 L 1164,498 L 1164,499 L 1164,500 L 1163,501 L 1162,501 L 1159,502 L 1157,502 L 1154,502 L 1152,502 L 1151,502 L 1150,502 L 1148,503 L 1146,503 L 1144,503 L 1140,503 L 1140,504 L 1134,504 L 1131,504 L 1130,504 L 1128,504 L 1127,504 L 1126,505 L 1123,507 L 1120,509 L 1119,510 L 1118,511 L 1115,512 L 1113,514 L 1111,515 L 1106,518 L 1104,519 L 1104,520 L 1103,521 L 1103,523 L 1103,525 L 1103,528 L 1103,529 L 1102,531 L 1102,532 L 1100,535 L 1096,541 L 1094,544 L 1088,552 L 1086,554 L 1084,557 L 1082,561 L 1080,563 L 1078,565 L 1076,568 L 1075,569 L 1073,571 L 1070,573 L 1069,574 L 1068,575 L 1067,576 L 1065,578 L 1062,582 L 1058,590 L 1057,591 L 1056,592 L 1055,593 L 1053,593 L 1048,594 L 1047,594 L 1045,595 L 1043,596 L 1042,597 L 1040,602 L 1033,605 L 1032,606 L 1027,609 L 1022,611 L 1020,612 L 1018,612 L 1017,612 L 1016,612 L 1014,611 L 1013,610 L 1010,609 L 1009,608 L 1007,608 L 1004,606 L 1000,604 L 999,604 L 997,603 L 995,603 L 992,603 L 991,604 L 991,605 L 991,606 L 990,607 L 991,607 L 991,608 L 994,612 L 992,613 L 991,614 L 991,615 L 989,616 L 988,616 L 988,617 L 988,618 L 988,619 L 988,621 L 988,623 L 988,624 L 988,625 L 987,626 L 986,626 L 985,626 L 984,626 L 976,621 L 975,621 L 974,620 L 973,621 L 972,621 L 972,622 L 972,623 L 971,627 L 971,628 L 971,629 L 972,630 L 975,631 L 976,631 L 976,632 L 977,633 L 978,634 L 979,636 L 980,638 L 980,639 L 980,640 L 979,642 L 978,643 L 977,644 L 977,645 L 976,645 L 975,645 L 971,647 L 970,647 L 969,648 L 968,649 L 966,650 L 966,651 L 965,651 L 964,653 L 963,653 L 961,655 L 960,657 L 959,660 L 958,665 L 958,672 L 958,674 L 957,678 L 955,679 L 953,680 L 951,681 L 948,680 L 947,680 L 945,680 L 943,679 L 941,678 L 938,675 L 937,675 L 936,674 L 935,675 L 934,676 L 934,677 L 934,679 L 934,680 L 935,682 L 936,684 L 937,687 L 938,688 L 941,695 L 943,697 L 944,704 L 944,705 L 942,706 L 939,706 L 932,702 L 930,701 L 929,699 L 926,697 L 924,697 L 920,698 L 918,698 L 914,698 L 910,698 L 907,698 L 903,698 L 899,699 L 897,699 L 893,699 L 891,699 L 889,698 L 886,698 L 885,698 L 878,694 L 875,695 L 873,695 L 870,696 L 869,696 L 868,695 L 867,695 L 866,695 L 865,695 L 864,696 L 864,698 L 864,700 L 864,701 L 864,704 L 864,708 L 864,710 L 865,715 L 865,717 L 866,720 L 867,722 L 867,724 L 868,725 L 869,728 L 871,730 L 871,732 L 872,734 L 874,737 L 876,740 L 877,742 L 877,743 L 880,747 L 881,748 L 882,749 L 883,751 L 884,752 L 884,754 L 885,755 L 886,757 L 884,758 L 882,759 L 880,759 L 877,760 L 875,760 L 870,761 L 868,760 L 867,760 L 866,761 L 861,760 L 858,760 L 854,759 L 852,759 L 849,759 L 848,759 L 846,759 L 842,758 L 840,757 L 834,756 L 833,756 L 831,756 L 828,756 L 827,757 L 826,757 L 826,758 L 825,758 L 824,760 L 825,762 L 825,767 L 826,769 L 826,772 L 826,774 L 825,776 L 825,777 L 825,779 L 824,781 L 824,782 L 823,786 L 823,790 L 823,791 L 825,794 L 826,795 L 827,798 L 827,800 L 826,800 L 824,800 L 820,800 L 818,800 L 816,799 L 813,800 L 810,800 L 809,800 L 806,799 L 799,799 L 796,798 L 791,798 L 789,798 L 788,799 L 788,801 L 787,801 L 788,803 L 788,805 L 789,808 L 789,810 L 789,812 L 789,814 L 789,815 L 789,819 L 789,822 L 788,823 L 787,824 L 785,824 L 783,823 L 780,822 L 774,819 L 770,817 L 767,817 L 767,820 L 768,823 L 769,825 L 771,828 L 773,830 L 774,831 L 775,832 L 776,833 L 777,834 L 778,835 L 779,837 L 782,841 L 783,842 L 784,843 L 784,845 L 785,846 L 788,850 L 790,852 L 791,855 L 793,857 L 795,858 L 796,859 L 797,862 L 798,863 L 797,868 L 796,870 L 796,872 L 795,876 L 795,877 L 794,878 L 793,881 L 793,882 L 792,883 L 789,886 L 788,887 L 787,888 L 785,889 L 784,890 L 783,890 L 780,891 L 776,892 L 774,893 L 771,894 L 769,895 L 768,895 L 766,898 L 764,902 L 763,905 L 762,908 L 762,913 L 761,918 L 762,924 L 762,926 L 761,928 L 761,932 L 761,934 L 761,938 L 761,941 L 761,943 " />
</g>
<g id="union_lektiko_δημοσ_αρριανων_3" >
<path d="M 1333,137 L 1335,139 L 1336,140 L 1336,141 L 1337,142 L 1338,142 L 1339,143 L 1345,145 L 1347,146 L 1348,146 L 1349,147 L 1350,148 L 1351,150 L 1353,153 L 1354,153 L 1357,157 L 1361,159 L 1361,160 L 1362,161 L 1362,162 L 1364,163 L 1365,163 L 1365,164 L 1366,164 L 1367,165 L 1368,165 L 1370,165 L 1371,166 L 1373,166 L 1375,166 L 1379,165 L 1381,164 L 1385,163 L 1388,161 L 1390,160 L 1391,160 L 1392,159 L 1393,158 L 1394,158 L 1395,158 L 1396,158 L 1397,158 L 1398,158 L 1399,158 L 1400,159 L 1401,160 L 1404,161 L 1407,162 L 1408,162 L 1409,162 L 1411,161 L 1412,161 L 1414,160 L 1415,160 L 1416,160 L 1417,160 L 1420,160 L 1422,159 L 1423,159 L 1426,157 L 1429,156 L 1430,155 L 1431,157 L 1432,157 L 1432,158 L 1437,163 L 1438,165 L 1440,167 L 1441,169 L 1442,170 L 1443,172 L 1445,175 L 1446,179 L 1447,181 L 1448,182 L 1448,183 L 1448,184 L 1448,185 L 1449,186 L 1449,188 L 1449,189 L 1450,190 L 1451,193 L 1452,195 L 1453,196 L 1453,198 L 1454,199 L 1455,200 L 1457,203 L 1459,207 L 1460,208 L 1461,209 L 1461,210 L 1462,213 L 1463,216 L 1464,219 L 1465,221 L 1466,223 L 1468,226 L 1470,230 L 1471,232 L 1472,234 L 1473,236 L 1474,239 L 1477,242 L 1478,245 L 1478,247 L 1479,247 L 1479,248 L 1479,249 L 1479,250 L 1480,251 L 1480,252 L 1481,253 L 1481,254 L 1481,257 L 1481,258 L 1480,261 L 1480,262 L 1479,264 L 1478,265 L 1477,267 L 1477,268 L 1477,269 L 1477,270 L 1477,271 L 1477,272 L 1477,273 L 1477,274 L 1477,276 L 1477,278 L 1476,280 L 1475,282 L 1474,285 L 1473,286 L 1473,287 L 1472,288 L 1471,289 L 1471,291 L 1471,294 L 1471,295 L 1471,296 L 1471,297 L 1470,300 L 1469,302 L 1469,303 L 1468,305 L 1468,307 L 1468,309 L 1468,311 L 1468,313 L 1468,316 L 1468,318 L 1468,320 L 1467,322 L 1466,326 L 1465,329 L 1464,331 L 1463,331 L 1462,332 L 1461,333 L 1459,335 L 1458,337 L 1457,338 L 1457,340 L 1456,340 L 1455,341 L 1455,342 L 1454,343 L 1453,343 L 1453,344 L 1452,345 L 1451,346 L 1450,347 L 1449,348 L 1449,349 L 1449,350 L 1448,353 L 1447,355 L 1447,356 L 1445,360 L 1443,362 L 1443,363 L 1441,365 L 1440,367 L 1439,369 L 1438,370 L 1438,372 L 1437,374 L 1436,376 L 1436,379 L 1436,382 L 1436,383 L 1436,387 L 1436,389 L 1436,390 L 1435,392 L 1435,395 L 1435,397 L 1435,401 L 1435,404 L 1435,406 L 1434,407 L 1433,409 L 1432,410 L 1431,411 L 1429,412 L 1428,413 L 1427,414 L 1426,415 L 1425,416 L 1425,417 L 1425,418 L 1426,418 L 1426,419 L 1427,419 L 1429,420 L 1430,421 L 1431,422 L 1434,424 L 1431,427 L 1431,428 L 1432,428 L 1432,429 L 1433,429 L 1435,430 L 1435,431 L 1436,431 L 1437,432 L 1438,432 L 1438,433 L 1439,434 L 1439,435 L 1440,436 L 1441,437 L 1442,438 L 1444,441 L 1445,442 L 1445,443 L 1446,445 L 1446,446 L 1448,449 L 1449,451 L 1451,453 L 1452,454 L 1453,455 L 1452,457 L 1451,458 L 1449,460 L 1448,461 L 1447,461 L 1445,463 L 1442,464 L 1441,465 L 1437,468 L 1436,469 L 1433,472 L 1432,472 L 1431,473 L 1431,474 L 1429,476 L 1428,477 L 1427,479 L 1426,480 L 1424,481 L 1423,482 L 1419,484 L 1417,484 L 1416,484 L 1416,485 L 1415,485 L 1415,486 L 1415,487 L 1415,488 L 1415,489 L 1415,490 L 1415,492 L 1415,494 L 1414,495 L 1413,501 L 1413,505 L 1411,510 L 1410,513 L 1409,515 L 1409,516 L 1409,517 L 1409,518 L 1410,519 L 1410,520 L 1411,520 L 1413,522 L 1414,525 L 1414,526 L 1414,527 L 1414,528 L 1414,529 L 1413,530 L 1412,531 L 1410,531 L 1409,531 L 1408,532 L 1408,533 L 1407,533 L 1407,534 L 1407,535 L 1408,537 L 1408,538 L 1409,540 L 1409,541 L 1410,542 L 1411,544 L 1411,545 L 1412,548 L 1413,550 L 1414,554 L 1415,556 L 1417,557 L 1418,559 L 1419,560 L 1421,562 L 1422,563 L 1422,564 L 1423,564 L 1423,565 L 1424,565 L 1424,566 L 1423,567 L 1423,568 L 1423,569 L 1423,570 L 1422,572 L 1422,573 L 1421,574 L 1421,575 L 1422,575 L 1422,576 L 1423,576 L 1425,577 L 1425,578 L 1426,579 L 1426,581 L 1425,583 L 1425,586 L 1424,587 L 1424,588 L 1425,589 L 1427,592 L 1428,593 L 1428,594 L 1429,597 L 1430,598 L 1431,599 L 1433,601 L 1434,602 L 1435,603 L 1436,604 L 1437,606 L 1438,607 L 1440,609 L 1445,614 L 1445,615 L 1445,616 L 1446,618 L 1448,619 L 1449,622 L 1450,623 L 1452,625 L 1453,627 L 1454,628 L 1455,630 L 1456,631 L 1458,634 L 1460,638 L 1461,639 L 1462,640 L 1464,641 L 1464,642 L 1465,643 L 1466,644 L 1467,644 L 1471,648 L 1472,649 L 1474,651 L 1477,654 L 1479,658 L 1479,659 L 1480,662 L 1481,664 L 1481,666 L 1481,668 L 1481,670 L 1481,672 L 1481,674 L 1482,678 L 1482,681 L 1482,683 L 1482,684 L 1481,684 L 1480,684 L 1479,684 L 1478,684 L 1476,684 L 1474,685 L 1471,685 L 1469,685 L 1467,685 L 1466,685 L 1464,685 L 1463,685 L 1458,685 L 1455,685 L 1453,685 L 1452,686 L 1451,687 L 1451,688 L 1450,690 L 1450,694 L 1449,696 L 1449,698 L 1449,700 L 1449,701 L 1449,702 L 1448,702 L 1448,703 L 1447,703 L 1446,703 L 1441,702 L 1438,701 L 1436,701 L 1434,700 L 1432,700 L 1429,700 L 1426,699 L 1423,699 L 1422,699 L 1421,699 L 1420,700 L 1420,701 L 1420,703 L 1420,704 L 1420,706 L 1420,707 L 1419,708 L 1418,707 L 1416,707 L 1414,705 L 1412,705 L 1410,704 L 1408,703 L 1405,702 L 1404,702 L 1399,700 L 1397,700 L 1395,700 L 1394,700 L 1392,700 L 1390,699 L 1387,699 L 1386,699 L 1385,699 L 1382,699 L 1381,699 L 1379,699 L 1377,699 L 1373,700 L 1369,700 L 1367,701 L 1365,701 L 1363,702 L 1361,702 L 1359,702 L 1356,703 L 1352,705 L 1350,705 L 1349,706 L 1348,706 L 1347,706 L 1346,706 L 1346,705 L 1346,704 L 1345,702 L 1343,697 L 1342,695 L 1341,693 L 1341,692 L 1340,690 L 1339,689 L 1339,688 L 1338,687 L 1338,686 L 1337,685 L 1336,684 L 1335,681 L 1334,681 L 1334,680 L 1333,680 L 1332,680 L 1331,680 L 1324,681 L 1321,682 L 1317,682 L 1315,683 L 1309,684 L 1306,684 L 1303,685 L 1302,685 L 1301,685 L 1300,683 L 1297,681 L 1295,678 L 1294,677 L 1291,675 L 1290,673 L 1287,670 L 1286,669 L 1286,668 L 1285,666 L 1284,665 L 1283,659 L 1282,656 L 1281,650 L 1280,647 L 1278,640 L 1276,631 L 1274,622 L 1272,617 L 1270,613 L 1267,607 L 1266,605 L 1264,603 L 1263,600 L 1260,595 L 1258,592 L 1255,588 L 1253,584 L 1249,576 L 1246,573 L 1244,569 L 1242,567 L 1241,566 L 1239,565 L 1238,565 L 1235,566 L 1233,566 L 1232,566 L 1232,567 L 1231,567 L 1230,568 L 1227,572 L 1225,573 L 1224,574 L 1223,574 L 1220,575 L 1219,576 L 1218,576 L 1215,577 L 1213,577 L 1212,578 L 1210,579 L 1208,579 L 1206,579 L 1203,579 L 1202,580 L 1201,580 L 1198,582 L 1197,583 L 1195,584 L 1191,586 L 1186,590 L 1181,593 L 1180,593 L 1178,594 L 1176,595 L 1174,595 L 1173,595 L 1172,596 L 1171,598 L 1170,599 L 1170,600 L 1169,600 L 1167,601 L 1163,603 L 1162,603 L 1161,603 L 1157,602 L 1155,602 L 1150,601 L 1146,601 L 1145,601 L 1143,600 L 1140,599 L 1134,596 L 1131,595 L 1126,592 L 1123,591 L 1123,590 L 1120,589 L 1118,588 L 1117,588 L 1116,588 L 1115,589 L 1114,589 L 1113,589 L 1112,589 L 1111,588 L 1110,587 L 1109,586 L 1108,585 L 1107,585 L 1106,586 L 1105,586 L 1104,588 L 1103,588 L 1102,588 L 1101,587 L 1100,585 L 1099,583 L 1096,582 L 1094,580 L 1088,577 L 1084,575 L 1083,574 L 1079,572 L 1077,571 L 1075,569 L 1076,568 L 1078,565 L 1080,563 L 1082,561 L 1084,557 L 1086,554 L 1088,552 L 1094,544 L 1096,541 L 1100,535 L 1102,532 L 1102,531 L 1103,529 L 1103,528 L 1103,525 L 1103,523 L 1103,521 L 1104,520 L 1104,519 L 1106,518 L 1111,515 L 1113,514 L 1115,512 L 1118,511 L 1119,510 L 1120,509 L 1123,507 L 1126,505 L 1127,504 L 1128,504 L 1130,504 L 1131,504 L 1134,504 L 1140,504 L 1140,503 L 1144,503 L 1146,503 L 1148,503 L 1150,502 L 1151,502 L 1152,502 L 1154,502 L 1157,502 L 1159,502 L 1162,501 L 1163,501 L 1164,500 L 1164,499 L 1164,498 L 1164,497 L 1164,496 L 1164,494 L 1164,490 L 1165,483 L 1166,480 L 1166,477 L 1166,476 L 1166,475 L 1165,473 L 1164,471 L 1163,464 L 1162,463 L 1161,463 L 1159,462 L 1157,461 L 1156,460 L 1155,459 L 1153,456 L 1150,454 L 1149,452 L 1148,450 L 1147,447 L 1147,446 L 1145,444 L 1144,442 L 1146,442 L 1147,441 L 1148,442 L 1149,443 L 1150,443 L 1151,443 L 1152,442 L 1154,439 L 1155,438 L 1157,437 L 1158,436 L 1158,435 L 1158,433 L 1158,432 L 1157,431 L 1156,430 L 1155,429 L 1154,427 L 1155,427 L 1155,426 L 1155,425 L 1156,425 L 1157,424 L 1158,424 L 1159,423 L 1160,421 L 1161,419 L 1163,418 L 1165,416 L 1166,415 L 1167,414 L 1168,414 L 1168,413 L 1168,412 L 1168,411 L 1167,410 L 1167,408 L 1166,408 L 1166,407 L 1167,406 L 1171,402 L 1172,401 L 1173,401 L 1174,400 L 1178,399 L 1180,398 L 1182,397 L 1183,396 L 1184,395 L 1185,394 L 1185,393 L 1184,392 L 1182,390 L 1181,389 L 1180,388 L 1178,385 L 1178,384 L 1177,383 L 1177,381 L 1178,380 L 1179,379 L 1180,378 L 1180,377 L 1181,377 L 1183,377 L 1184,377 L 1185,377 L 1186,376 L 1191,373 L 1195,370 L 1198,368 L 1199,367 L 1200,365 L 1200,364 L 1201,362 L 1201,361 L 1202,360 L 1203,359 L 1203,358 L 1205,357 L 1207,354 L 1209,353 L 1212,352 L 1214,351 L 1216,350 L 1218,349 L 1221,349 L 1224,348 L 1227,347 L 1229,347 L 1230,347 L 1230,346 L 1230,344 L 1230,343 L 1232,342 L 1232,341 L 1236,336 L 1236,335 L 1237,333 L 1238,332 L 1238,331 L 1238,328 L 1238,325 L 1238,324 L 1238,323 L 1237,322 L 1237,321 L 1236,319 L 1235,315 L 1234,312 L 1234,311 L 1234,310 L 1234,309 L 1235,307 L 1235,305 L 1235,304 L 1235,302 L 1235,301 L 1232,296 L 1232,295 L 1231,294 L 1231,292 L 1232,287 L 1233,286 L 1232,284 L 1232,283 L 1231,282 L 1231,281 L 1229,280 L 1228,278 L 1227,276 L 1226,274 L 1225,271 L 1227,267 L 1227,264 L 1229,261 L 1230,257 L 1230,256 L 1231,255 L 1233,253 L 1233,252 L 1235,251 L 1235,250 L 1236,249 L 1236,246 L 1237,245 L 1237,244 L 1239,244 L 1240,243 L 1241,241 L 1242,240 L 1244,236 L 1245,235 L 1248,231 L 1249,230 L 1250,229 L 1254,227 L 1254,226 L 1255,226 L 1255,225 L 1255,224 L 1255,218 L 1255,217 L 1255,216 L 1256,215 L 1256,214 L 1256,212 L 1256,208 L 1257,202 L 1257,198 L 1257,197 L 1257,196 L 1258,194 L 1259,193 L 1260,192 L 1261,191 L 1262,190 L 1263,189 L 1265,186 L 1266,184 L 1267,183 L 1269,182 L 1269,181 L 1271,179 L 1272,178 L 1273,175 L 1273,174 L 1273,173 L 1274,172 L 1275,170 L 1276,169 L 1277,168 L 1279,167 L 1282,166 L 1285,164 L 1290,162 L 1292,162 L 1296,161 L 1299,161 L 1302,160 L 1306,159 L 1308,158 L 1309,157 L 1311,157 L 1317,152 L 1321,149 L 1323,147 L 1324,145 L 1326,142 L 1329,139 L 1333,137 " />
</g>
<g id="union_lektiko_δημοσ_αρριανων_4" >
<path d="M 1278,61 L 1280,64 L 1281,65 L 1282,66 L 1286,70 L 1289,72 L 1289,73 L 1290,73 L 1290,74 L 1289,75 L 1289,76 L 1288,78 L 1288,79 L 1288,80 L 1288,82 L 1288,83 L 1288,84 L 1289,84 L 1291,87 L 1291,88 L 1292,88 L 1292,89 L 1294,90 L 1295,91 L 1296,91 L 1297,91 L 1301,91 L 1302,91 L 1302,92 L 1303,92 L 1304,92 L 1305,92 L 1307,92 L 1308,92 L 1310,91 L 1311,91 L 1314,89 L 1315,88 L 1317,86 L 1318,86 L 1319,85 L 1320,85 L 1321,85 L 1322,85 L 1330,84 L 1332,84 L 1333,84 L 1336,85 L 1338,85 L 1339,85 L 1340,86 L 1341,86 L 1341,87 L 1342,87 L 1342,88 L 1343,89 L 1343,90 L 1344,91 L 1344,92 L 1343,94 L 1343,96 L 1342,98 L 1342,100 L 1341,100 L 1341,105 L 1341,106 L 1341,108 L 1341,109 L 1342,111 L 1342,112 L 1342,113 L 1342,114 L 1342,115 L 1341,117 L 1341,119 L 1340,121 L 1339,122 L 1338,125 L 1338,127 L 1337,130 L 1335,134 L 1333,137 L 1329,139 L 1326,142 L 1324,145 L 1323,147 L 1321,149 L 1317,152 L 1311,157 L 1309,157 L 1308,158 L 1306,159 L 1302,160 L 1299,161 L 1296,161 L 1292,162 L 1290,162 L 1285,164 L 1282,166 L 1279,167 L 1277,168 L 1276,169 L 1275,170 L 1274,172 L 1273,173 L 1273,174 L 1273,175 L 1272,178 L 1271,179 L 1269,181 L 1269,182 L 1267,183 L 1266,184 L 1265,186 L 1263,189 L 1262,190 L 1261,191 L 1260,192 L 1259,193 L 1258,194 L 1257,196 L 1257,197 L 1257,198 L 1257,202 L 1256,208 L 1256,212 L 1256,214 L 1256,215 L 1255,216 L 1255,217 L 1255,218 L 1255,224 L 1255,225 L 1255,226 L 1254,226 L 1254,227 L 1250,229 L 1249,230 L 1248,231 L 1245,235 L 1244,236 L 1242,240 L 1241,241 L 1240,243 L 1239,244 L 1237,244 L 1237,245 L 1236,246 L 1236,249 L 1235,250 L 1235,251 L 1233,252 L 1233,253 L 1231,255 L 1230,256 L 1230,257 L 1229,261 L 1227,264 L 1227,267 L 1225,271 L 1226,274 L 1227,276 L 1228,278 L 1229,280 L 1231,281 L 1231,282 L 1232,283 L 1232,284 L 1233,286 L 1232,287 L 1231,292 L 1231,294 L 1232,295 L 1232,296 L 1235,301 L 1235,302 L 1235,304 L 1235,305 L 1235,307 L 1234,309 L 1234,310 L 1234,311 L 1234,312 L 1235,315 L 1236,319 L 1237,321 L 1237,322 L 1238,323 L 1238,324 L 1238,325 L 1238,328 L 1238,331 L 1238,332 L 1237,333 L 1236,335 L 1236,336 L 1232,341 L 1232,342 L 1230,343 L 1230,344 L 1230,346 L 1230,347 L 1229,347 L 1227,347 L 1224,348 L 1221,349 L 1218,349 L 1216,350 L 1214,351 L 1212,352 L 1209,353 L 1207,354 L 1205,357 L 1203,358 L 1203,359 L 1202,360 L 1201,361 L 1201,362 L 1200,364 L 1200,365 L 1199,367 L 1198,368 L 1195,370 L 1191,373 L 1186,376 L 1185,377 L 1184,377 L 1183,377 L 1181,377 L 1180,377 L 1180,378 L 1179,379 L 1178,380 L 1177,381 L 1177,383 L 1178,384 L 1178,385 L 1180,388 L 1181,389 L 1182,390 L 1184,392 L 1185,393 L 1185,394 L 1184,395 L 1183,396 L 1182,397 L 1180,398 L 1178,399 L 1174,400 L 1173,401 L 1172,401 L 1171,402 L 1167,406 L 1166,407 L 1166,408 L 1167,408 L 1167,410 L 1168,411 L 1168,412 L 1168,413 L 1168,414 L 1167,414 L 1166,415 L 1165,416 L 1163,418 L 1161,419 L 1160,421 L 1159,423 L 1158,424 L 1157,424 L 1156,425 L 1155,425 L 1155,426 L 1155,427 L 1154,427 L 1155,429 L 1156,430 L 1157,431 L 1158,432 L 1158,433 L 1158,435 L 1158,436 L 1157,437 L 1155,438 L 1154,439 L 1152,442 L 1151,443 L 1150,443 L 1149,443 L 1148,442 L 1147,441 L 1146,442 L 1144,442 L 1142,441 L 1141,441 L 1139,439 L 1137,437 L 1136,437 L 1135,436 L 1133,436 L 1132,436 L 1130,434 L 1129,434 L 1129,433 L 1126,433 L 1122,431 L 1119,430 L 1118,429 L 1117,429 L 1117,428 L 1116,427 L 1116,426 L 1115,422 L 1115,418 L 1114,417 L 1114,416 L 1114,414 L 1114,412 L 1114,411 L 1114,410 L 1113,409 L 1113,408 L 1112,405 L 1110,400 L 1109,399 L 1108,397 L 1107,394 L 1106,393 L 1105,392 L 1104,392 L 1099,391 L 1096,391 L 1093,390 L 1092,389 L 1088,388 L 1086,387 L 1084,386 L 1078,381 L 1071,377 L 1066,374 L 1062,372 L 1058,370 L 1049,366 L 1048,365 L 1047,365 L 1043,365 L 1033,369 L 1028,368 L 1023,368 L 1018,368 L 1015,367 L 1013,367 L 1011,366 L 1009,365 L 1007,363 L 1006,362 L 1006,361 L 1007,359 L 1007,355 L 1006,354 L 1006,353 L 1005,352 L 1005,351 L 1004,350 L 1003,349 L 1002,349 L 998,346 L 992,343 L 990,342 L 989,341 L 987,341 L 985,340 L 984,340 L 983,340 L 981,341 L 979,342 L 978,343 L 977,344 L 976,344 L 973,347 L 969,351 L 968,352 L 962,359 L 961,360 L 959,362 L 959,363 L 959,364 L 958,365 L 958,366 L 957,366 L 957,367 L 954,367 L 953,369 L 952,371 L 949,373 L 948,373 L 947,374 L 946,375 L 944,378 L 943,378 L 942,380 L 941,380 L 940,381 L 937,386 L 934,389 L 933,390 L 931,392 L 930,393 L 928,395 L 927,397 L 926,398 L 925,399 L 923,399 L 922,400 L 920,402 L 918,404 L 917,405 L 915,406 L 911,409 L 910,409 L 910,410 L 909,411 L 908,412 L 905,415 L 904,416 L 903,416 L 902,418 L 901,419 L 901,420 L 902,421 L 902,422 L 904,424 L 904,426 L 905,427 L 905,428 L 905,429 L 905,432 L 905,433 L 905,434 L 905,436 L 906,439 L 906,441 L 906,444 L 906,446 L 907,449 L 909,454 L 909,455 L 909,457 L 908,463 L 908,464 L 909,464 L 909,465 L 910,467 L 915,470 L 916,471 L 917,472 L 917,473 L 918,477 L 919,478 L 919,479 L 920,479 L 921,480 L 922,480 L 922,481 L 923,482 L 925,485 L 925,486 L 926,488 L 926,490 L 927,494 L 928,496 L 928,497 L 928,498 L 927,501 L 927,502 L 927,504 L 926,505 L 926,507 L 926,508 L 927,509 L 928,512 L 928,513 L 928,514 L 927,516 L 927,517 L 926,518 L 924,519 L 922,521 L 920,522 L 919,522 L 919,523 L 919,524 L 919,527 L 919,530 L 918,531 L 918,532 L 917,532 L 917,535 L 917,536 L 916,539 L 915,541 L 915,542 L 915,543 L 916,544 L 916,546 L 916,547 L 916,549 L 913,555 L 912,559 L 911,560 L 910,561 L 910,562 L 909,563 L 907,564 L 905,565 L 903,565 L 902,565 L 901,565 L 899,565 L 898,564 L 894,562 L 888,560 L 886,559 L 883,559 L 881,559 L 880,559 L 879,560 L 878,561 L 877,562 L 876,563 L 872,569 L 871,571 L 869,574 L 868,576 L 867,577 L 865,578 L 862,580 L 860,581 L 859,583 L 855,587 L 852,590 L 847,594 L 845,598 L 841,602 L 839,605 L 838,607 L 835,609 L 834,610 L 833,610 L 832,611 L 831,612 L 829,614 L 829,615 L 828,616 L 827,619 L 826,618 L 826,617 L 825,616 L 824,615 L 823,614 L 820,612 L 819,610 L 818,609 L 817,607 L 817,606 L 816,604 L 815,603 L 814,602 L 812,600 L 810,598 L 807,596 L 803,593 L 798,589 L 797,588 L 796,587 L 794,587 L 793,587 L 789,587 L 785,587 L 782,587 L 777,587 L 773,586 L 769,586 L 765,586 L 762,585 L 760,585 L 759,584 L 758,583 L 756,580 L 753,579 L 755,577 L 756,576 L 757,575 L 758,573 L 762,567 L 764,563 L 768,555 L 769,553 L 769,552 L 769,550 L 769,546 L 769,542 L 770,537 L 770,536 L 771,533 L 771,529 L 772,526 L 772,521 L 772,520 L 773,518 L 773,515 L 774,509 L 774,503 L 774,497 L 774,496 L 773,491 L 773,488 L 772,487 L 771,486 L 770,486 L 767,485 L 764,485 L 763,485 L 762,485 L 761,485 L 759,483 L 758,483 L 757,483 L 755,483 L 753,482 L 751,481 L 749,479 L 748,477 L 744,475 L 743,475 L 741,474 L 734,473 L 733,472 L 730,471 L 726,468 L 722,465 L 717,461 L 715,460 L 714,459 L 712,458 L 710,457 L 704,454 L 702,453 L 701,452 L 699,452 L 698,452 L 697,452 L 696,451 L 696,447 L 696,445 L 695,440 L 696,439 L 696,432 L 695,425 L 695,422 L 695,420 L 695,418 L 694,414 L 693,411 L 693,409 L 692,408 L 691,405 L 690,403 L 690,401 L 689,397 L 688,394 L 688,392 L 687,390 L 686,387 L 683,377 L 683,376 L 682,375 L 676,367 L 670,364 L 667,360 L 666,359 L 663,355 L 656,346 L 652,343 L 651,341 L 650,341 L 647,339 L 646,338 L 645,336 L 644,335 L 643,333 L 642,332 L 642,329 L 641,328 L 641,327 L 640,326 L 639,326 L 638,325 L 637,325 L 635,325 L 634,324 L 633,324 L 632,324 L 631,323 L 629,322 L 628,322 L 627,321 L 626,321 L 625,322 L 623,322 L 621,323 L 618,325 L 614,327 L 607,330 L 600,333 L 597,334 L 593,336 L 591,337 L 589,338 L 588,339 L 587,339 L 586,339 L 585,337 L 584,335 L 584,334 L 584,333 L 584,332 L 585,331 L 586,330 L 587,329 L 588,326 L 589,325 L 589,323 L 589,322 L 590,321 L 591,318 L 593,314 L 595,308 L 596,307 L 597,302 L 597,301 L 597,300 L 597,299 L 597,298 L 596,297 L 596,296 L 596,295 L 597,293 L 598,292 L 598,290 L 599,289 L 599,287 L 600,283 L 600,281 L 600,279 L 600,274 L 600,270 L 600,269 L 601,265 L 603,255 L 605,248 L 605,247 L 605,241 L 605,240 L 604,228 L 604,226 L 604,222 L 604,221 L 605,207 L 604,202 L 604,201 L 604,199 L 602,194 L 602,193 L 602,192 L 602,190 L 603,189 L 605,188 L 608,186 L 609,185 L 610,185 L 611,184 L 612,183 L 613,181 L 614,178 L 614,177 L 615,176 L 616,174 L 619,172 L 620,171 L 620,170 L 621,169 L 621,168 L 621,166 L 622,159 L 623,161 L 624,162 L 625,163 L 626,163 L 627,164 L 628,165 L 629,166 L 630,166 L 631,166 L 632,167 L 634,167 L 635,167 L 636,167 L 640,167 L 642,167 L 643,167 L 646,167 L 649,166 L 650,166 L 655,168 L 658,171 L 659,171 L 659,172 L 660,172 L 662,172 L 665,172 L 666,172 L 667,173 L 668,173 L 669,174 L 671,175 L 672,176 L 673,176 L 674,177 L 675,177 L 678,177 L 679,178 L 680,178 L 683,178 L 684,178 L 685,178 L 686,178 L 687,178 L 688,179 L 689,180 L 690,180 L 691,181 L 692,181 L 694,181 L 696,180 L 698,179 L 704,178 L 705,178 L 708,178 L 710,178 L 711,179 L 712,179 L 714,180 L 715,180 L 716,180 L 717,180 L 718,180 L 718,179 L 719,178 L 719,177 L 720,177 L 720,176 L 721,174 L 722,174 L 725,172 L 727,171 L 729,170 L 730,169 L 736,166 L 738,164 L 739,164 L 740,163 L 741,163 L 742,163 L 742,162 L 743,161 L 744,160 L 744,159 L 745,158 L 746,157 L 747,155 L 748,155 L 749,154 L 750,153 L 751,152 L 752,152 L 753,152 L 756,153 L 757,154 L 758,154 L 760,154 L 761,154 L 762,154 L 764,154 L 765,154 L 766,153 L 767,153 L 768,152 L 769,151 L 772,148 L 772,147 L 773,146 L 774,144 L 775,144 L 776,144 L 778,146 L 779,147 L 781,148 L 782,148 L 783,148 L 784,149 L 785,149 L 786,149 L 787,149 L 788,148 L 789,148 L 790,147 L 793,146 L 794,145 L 795,145 L 797,144 L 798,144 L 799,144 L 800,144 L 801,144 L 802,144 L 802,145 L 804,147 L 805,147 L 806,148 L 807,148 L 807,149 L 808,150 L 808,152 L 809,153 L 812,156 L 812,157 L 814,159 L 816,160 L 817,161 L 818,162 L 819,162 L 820,163 L 821,163 L 823,164 L 824,164 L 826,164 L 827,164 L 828,164 L 829,164 L 831,164 L 833,165 L 837,165 L 838,166 L 839,166 L 841,165 L 842,165 L 843,165 L 843,166 L 847,167 L 850,168 L 851,169 L 852,169 L 853,169 L 856,168 L 859,168 L 862,167 L 865,166 L 866,166 L 867,166 L 867,167 L 868,167 L 868,168 L 868,170 L 868,171 L 869,172 L 871,175 L 876,177 L 879,178 L 883,179 L 883,180 L 885,181 L 886,181 L 887,181 L 889,182 L 890,182 L 891,183 L 892,183 L 893,184 L 893,185 L 894,186 L 895,187 L 895,188 L 895,189 L 896,193 L 897,196 L 898,197 L 898,198 L 899,199 L 900,200 L 901,201 L 901,202 L 903,204 L 904,204 L 905,204 L 905,205 L 907,207 L 909,208 L 909,209 L 910,210 L 911,211 L 912,212 L 913,212 L 915,213 L 916,214 L 917,214 L 918,214 L 921,214 L 922,214 L 924,214 L 925,215 L 926,215 L 929,216 L 931,217 L 936,217 L 940,217 L 941,216 L 942,215 L 943,214 L 944,214 L 944,213 L 945,213 L 945,212 L 945,211 L 945,210 L 945,209 L 944,207 L 944,205 L 943,203 L 942,201 L 941,199 L 941,198 L 940,198 L 940,196 L 940,194 L 940,193 L 940,191 L 941,189 L 941,183 L 942,179 L 942,178 L 943,177 L 944,175 L 945,174 L 945,173 L 946,171 L 946,170 L 947,168 L 948,166 L 950,161 L 950,160 L 950,158 L 950,157 L 951,156 L 952,154 L 952,150 L 953,144 L 953,142 L 954,140 L 955,138 L 955,136 L 955,135 L 956,134 L 957,133 L 958,132 L 958,131 L 960,130 L 961,130 L 962,129 L 962,128 L 963,128 L 963,127 L 964,127 L 964,126 L 965,125 L 966,125 L 967,125 L 968,126 L 969,126 L 970,126 L 970,127 L 971,129 L 972,129 L 972,130 L 973,130 L 974,130 L 975,130 L 976,130 L 977,129 L 978,129 L 979,127 L 984,126 L 985,126 L 988,127 L 989,127 L 990,127 L 991,127 L 993,128 L 994,129 L 995,128 L 996,128 L 997,127 L 999,126 L 1000,125 L 1001,125 L 1002,125 L 1003,125 L 1004,125 L 1005,126 L 1006,126 L 1007,126 L 1010,127 L 1011,127 L 1012,127 L 1013,127 L 1014,128 L 1015,129 L 1016,130 L 1018,132 L 1019,133 L 1019,134 L 1019,135 L 1020,135 L 1020,136 L 1021,136 L 1022,135 L 1023,134 L 1024,133 L 1025,133 L 1026,133 L 1027,133 L 1028,133 L 1029,132 L 1030,131 L 1030,130 L 1030,129 L 1030,128 L 1030,127 L 1030,126 L 1031,126 L 1032,124 L 1033,124 L 1033,123 L 1034,123 L 1035,122 L 1036,122 L 1038,122 L 1039,122 L 1040,122 L 1040,123 L 1042,123 L 1044,124 L 1045,124 L 1046,124 L 1048,124 L 1049,123 L 1050,122 L 1051,121 L 1052,119 L 1052,118 L 1053,117 L 1055,116 L 1057,112 L 1058,111 L 1059,109 L 1059,108 L 1060,107 L 1061,106 L 1062,105 L 1063,105 L 1064,104 L 1065,104 L 1066,104 L 1069,105 L 1069,106 L 1070,106 L 1070,107 L 1071,107 L 1072,108 L 1073,109 L 1073,111 L 1074,111 L 1074,112 L 1076,113 L 1079,117 L 1080,118 L 1081,118 L 1082,118 L 1083,118 L 1084,118 L 1084,117 L 1086,116 L 1087,116 L 1088,116 L 1089,115 L 1091,114 L 1092,114 L 1093,113 L 1094,114 L 1095,114 L 1096,115 L 1096,116 L 1097,116 L 1098,116 L 1100,116 L 1104,116 L 1106,116 L 1107,116 L 1108,116 L 1109,116 L 1110,116 L 1110,115 L 1110,113 L 1110,112 L 1110,111 L 1110,110 L 1110,109 L 1111,108 L 1111,107 L 1111,106 L 1111,105 L 1112,103 L 1112,102 L 1113,102 L 1114,101 L 1115,100 L 1116,100 L 1117,99 L 1117,98 L 1117,97 L 1118,96 L 1118,95 L 1118,94 L 1119,93 L 1121,90 L 1122,87 L 1123,87 L 1124,86 L 1125,85 L 1126,85 L 1127,84 L 1128,81 L 1129,80 L 1130,79 L 1131,78 L 1132,77 L 1133,76 L 1134,76 L 1135,76 L 1135,75 L 1136,75 L 1137,75 L 1139,75 L 1141,74 L 1144,74 L 1145,73 L 1146,73 L 1147,72 L 1148,72 L 1150,72 L 1151,72 L 1152,72 L 1153,73 L 1154,73 L 1155,74 L 1156,76 L 1157,76 L 1157,77 L 1158,77 L 1159,77 L 1160,77 L 1161,77 L 1161,76 L 1161,75 L 1161,74 L 1162,73 L 1162,72 L 1162,71 L 1163,71 L 1163,70 L 1164,69 L 1165,68 L 1168,67 L 1169,66 L 1170,65 L 1171,64 L 1172,63 L 1173,63 L 1175,62 L 1176,61 L 1177,61 L 1179,60 L 1180,60 L 1181,60 L 1182,60 L 1183,60 L 1185,61 L 1186,61 L 1189,63 L 1193,63 L 1194,63 L 1195,63 L 1199,61 L 1200,60 L 1201,60 L 1201,59 L 1202,58 L 1203,57 L 1203,56 L 1204,53 L 1207,50 L 1207,48 L 1207,47 L 1207,46 L 1208,43 L 1208,41 L 1208,40 L 1208,38 L 1208,37 L 1208,34 L 1208,33 L 1208,32 L 1209,31 L 1210,30 L 1213,30 L 1213,29 L 1213,27 L 1214,27 L 1215,26 L 1216,26 L 1217,26 L 1218,26 L 1219,26 L 1220,27 L 1222,28 L 1224,29 L 1226,30 L 1227,30 L 1229,31 L 1230,31 L 1231,31 L 1232,32 L 1233,32 L 1238,36 L 1239,36 L 1241,37 L 1242,38 L 1242,39 L 1243,42 L 1243,43 L 1244,44 L 1244,45 L 1245,46 L 1246,46 L 1246,47 L 1248,48 L 1249,49 L 1250,49 L 1250,50 L 1251,50 L 1252,50 L 1253,50 L 1254,50 L 1255,50 L 1256,51 L 1258,52 L 1261,53 L 1261,54 L 1265,55 L 1266,55 L 1268,56 L 1270,56 L 1272,57 L 1274,58 L 1275,59 L 1276,60 L 1278,61 " />
</g>
</g>
</g>
<!-- QGIS extent for clipping, eg in Inkscape -->
<g id="qgisviewbox" inkscape:groupmode="layer" inkscape:label="qgisviewbox" stroke="rgb(255,0,0)" stroke-width="1" fill="none" >
<path d="M 0,1114 L 2011,1114 L 2011,0 L 0,0 L 0,1114 " />
</g></svg>