<?xml version="1.0" standalone="no"?>
<!DOCTYPE svg PUBLIC "-//W3C//DTD SVG 1.1//EN" "http://www.w3.org/Graphics/SVG/1.1/DTD/svg11.dtd">
<svg xmlns="http://www.w3.org/2000/svg" xmlns:inkscape="http://www.inkscape.org/namespaces/inkscape" xmlns:xlink="http://www.w3.org/1999/xlink" viewBox = "0 0 2013 1116" version = "1.1">
<!-- svg generated using QGIS www.qgis.org -->
<g id="union_lektiko_δημοσ_ασπροπυργου" inkscape:groupmode="layer" inkscape:label="union_lektiko_δημοσ_ασπροπυργου">
<g stroke="none" fill="rgb(57,84,158)" stroke-linejoin="round" stroke-width="0.26">
<g id="union_lektiko_δημοσ_ασπροπυργου_1" >
<path d="M 1276,928 L 1274,932 L 1272,942 L 1273,955 L 1275,970 L 1274,972 L 1270,978 L 1269,980 L 1268,985 L 1266,992 L 1264,997 L 1260,1003 L 1250,1012 L 1241,1018 L 1236,1019 L 1225,1020 L 1212,1023 L 1206,1023 L 1201,1023 L 1195,1027 L 1190,1030 L 1187,1032 L 1186,1033 L 1182,1034 L 1172,1034 L 1165,1032 L 1163,1033 L 1159,1036 L 1151,1049 L 1149,1052 L 1146,1054 L 1132,1058 L 1128,1059 L 1118,1061 L 1105,1063 L 1097,1065 L 1088,1068 L 1073,1072 L 1051,1076 L 1035,1080 L 1023,1084 L 1018,1087 L 1018,1086 L 1018,1085 L 1017,1084 L 1017,1082 L 1016,1081 L 1017,1079 L 1019,1078 L 1020,1077 L 1020,1075 L 1021,1073 L 1021,1071 L 1021,1068 L 1022,1065 L 1022,1064 L 1022,1062 L 1023,1060 L 1023,1057 L 1022,1055 L 1022,1052 L 1022,1049 L 1022,1046 L 1022,1044 L 1021,1041 L 1021,1038 L 1021,1034 L 1020,1033 L 1020,1031 L 1020,1029 L 1020,1027 L 1019,1024 L 1019,1022 L 1019,1020 L 1018,1018 L 1018,1016 L 1017,1014 L 1016,1013 L 1016,1012 L 1012,1014 L 1012,1012 L 1015,1011 L 1015,1010 L 1014,1010 L 1013,1010 L 1012,1010 L 1011,1009 L 1011,1007 L 1012,1006 L 1012,1004 L 1012,1003 L 1011,1002 L 1011,1001 L 1009,999 L 1009,998 L 1009,996 L 1009,995 L 1008,994 L 1007,994 L 1006,994 L 1005,994 L 1004,995 L 1003,995 L 1002,995 L 1002,993 L 1001,992 L 1000,991 L 999,990 L 999,989 L 999,988 L 998,987 L 997,987 L 996,987 L 995,987 L 995,986 L 995,985 L 994,984 L 994,983 L 994,982 L 993,983 L 993,982 L 993,981 L 993,980 L 993,981 L 993,980 L 992,979 L 992,978 L 992,977 L 992,976 L 989,976 L 988,979 L 988,976 L 988,975 L 987,975 L 986,974 L 985,972 L 984,971 L 983,970 L 981,969 L 980,968 L 979,968 L 977,968 L 975,969 L 974,970 L 972,970 L 971,969 L 970,969 L 968,968 L 966,966 L 965,964 L 964,961 L 962,958 L 961,955 L 960,953 L 959,952 L 958,950 L 957,949 L 956,947 L 955,946 L 954,944 L 950,945 L 950,944 L 954,944 L 953,943 L 952,942 L 951,940 L 950,938 L 949,937 L 948,936 L 947,936 L 946,936 L 945,936 L 943,939 L 942,938 L 944,935 L 943,934 L 942,933 L 942,932 L 942,931 L 940,930 L 939,929 L 938,928 L 936,928 L 935,926 L 933,926 L 932,925 L 930,924 L 929,924 L 928,923 L 925,922 L 923,921 L 921,919 L 919,918 L 916,917 L 915,917 L 913,916 L 911,916 L 910,916 L 909,915 L 907,915 L 905,914 L 904,914 L 902,913 L 901,913 L 899,913 L 898,913 L 896,913 L 894,913 L 892,913 L 890,913 L 888,914 L 887,914 L 886,914 L 884,915 L 889,871 L 883,872 L 875,872 L 882,854 L 884,854 L 884,853 L 885,853 L 885,852 L 887,838 L 888,833 L 890,805 L 893,778 L 893,766 L 892,765 L 879,763 L 863,760 L 861,759 L 859,758 L 850,728 L 847,717 L 846,717 L 842,717 L 836,717 L 831,717 L 825,717 L 825,714 L 825,710 L 825,707 L 824,704 L 824,699 L 824,697 L 823,693 L 823,690 L 824,682 L 826,675 L 827,671 L 829,665 L 830,662 L 823,641 L 818,623 L 817,617 L 816,616 L 805,615 L 803,610 L 801,600 L 800,598 L 797,596 L 796,594 L 797,593 L 797,592 L 800,589 L 803,586 L 804,585 L 803,582 L 803,581 L 799,577 L 799,573 L 797,570 L 791,568 L 790,567 L 790,564 L 794,551 L 795,540 L 797,538 L 799,536 L 801,535 L 803,530 L 800,527 L 799,526 L 793,524 L 792,524 L 790,522 L 789,521 L 783,512 L 782,510 L 775,506 L 774,505 L 771,504 L 764,501 L 756,500 L 748,499 L 745,497 L 745,496 L 743,495 L 742,492 L 744,481 L 744,467 L 744,464 L 742,463 L 736,465 L 735,464 L 734,461 L 735,458 L 740,455 L 744,450 L 745,442 L 743,434 L 745,431 L 747,430 L 749,431 L 750,432 L 757,435 L 761,437 L 764,436 L 764,430 L 760,426 L 758,420 L 763,420 L 768,420 L 778,416 L 786,415 L 791,413 L 826,410 L 850,406 L 853,405 L 858,403 L 862,400 L 868,396 L 873,388 L 875,386 L 905,379 L 911,377 L 917,372 L 921,367 L 926,355 L 935,345 L 938,340 L 943,326 L 940,316 L 941,309 L 943,305 L 948,302 L 957,299 L 965,299 L 971,299 L 972,299 L 976,300 L 994,301 L 1000,301 L 1008,299 L 1010,299 L 1015,298 L 1036,290 L 1042,287 L 1049,280 L 1051,277 L 1062,262 L 1063,261 L 1066,258 L 1071,255 L 1083,250 L 1096,245 L 1104,243 L 1131,232 L 1138,229 L 1155,223 L 1170,214 L 1171,214 L 1173,211 L 1174,210 L 1174,209 L 1171,209 L 1169,209 L 1167,209 L 1163,208 L 1155,198 L 1155,193 L 1156,187 L 1158,179 L 1156,163 L 1158,151 L 1157,149 L 1156,147 L 1153,147 L 1150,147 L 1148,145 L 1147,142 L 1147,135 L 1149,123 L 1154,112 L 1158,108 L 1159,105 L 1172,91 L 1180,86 L 1187,83 L 1193,76 L 1195,76 L 1196,76 L 1198,75 L 1201,69 L 1200,68 L 1202,66 L 1208,60 L 1209,58 L 1210,54 L 1209,47 L 1208,46 L 1203,45 L 1202,44 L 1202,42 L 1200,33 L 1199,31 L 1198,29 L 1199,29 L 1204,29 L 1209,29 L 1216,27 L 1224,26 L 1227,28 L 1229,31 L 1234,35 L 1237,40 L 1238,61 L 1240,85 L 1239,113 L 1238,116 L 1234,121 L 1233,126 L 1234,134 L 1236,138 L 1239,144 L 1240,150 L 1231,205 L 1228,214 L 1223,225 L 1224,242 L 1224,245 L 1225,250 L 1225,251 L 1222,262 L 1221,265 L 1217,279 L 1212,295 L 1210,296 L 1205,296 L 1191,300 L 1181,301 L 1175,305 L 1167,305 L 1165,307 L 1163,311 L 1162,317 L 1158,321 L 1157,325 L 1159,331 L 1166,340 L 1167,345 L 1165,347 L 1146,350 L 1146,353 L 1150,359 L 1154,362 L 1155,365 L 1154,367 L 1150,388 L 1149,398 L 1149,405 L 1151,413 L 1162,429 L 1163,439 L 1162,458 L 1163,476 L 1163,479 L 1156,487 L 1150,497 L 1126,545 L 1118,559 L 1111,572 L 1111,575 L 1115,579 L 1119,585 L 1126,594 L 1139,615 L 1141,617 L 1149,637 L 1156,659 L 1161,681 L 1166,712 L 1172,739 L 1183,778 L 1195,828 L 1204,860 L 1205,872 L 1207,875 L 1214,888 L 1223,902 L 1230,914 L 1256,918 L 1266,922 L 1273,927 L 1276,928 " />
</g>
</g>
</g>
<!-- QGIS extent for clipping, eg in Inkscape -->
<g id="qgisviewbox" inkscape:groupmode="layer" inkscape:label="qgisviewbox" stroke="rgb(255,0,0)" stroke-width="1" fill="none" >
<path d="M 0,1114 L 2011,1114 L 2011,0 L 0,0 L 0,1114 " />
</g></svg>