<?xml version="1.0" standalone="no"?>
<!DOCTYPE svg PUBLIC "-//W3C//DTD SVG 1.1//EN" "http://www.w3.org/Graphics/SVG/1.1/DTD/svg11.dtd">
<svg xmlns="http://www.w3.org/2000/svg" xmlns:inkscape="http://www.inkscape.org/namespaces/inkscape" xmlns:xlink="http://www.w3.org/1999/xlink" viewBox = "0 0 2013 1116" version = "1.1">
<!-- svg generated using QGIS www.qgis.org -->
<g id="union_lektiko_δημοσ_αστυπαλαιασ" inkscape:groupmode="layer" inkscape:label="union_lektiko_δημοσ_αστυπαλαιασ">
<g stroke="none" fill="rgb(243,178,202)" stroke-linejoin="round" stroke-width="0.26">
<g id="union_lektiko_δημοσ_αστυπαλαιασ_1" >
<path d="M 1098,1087 L 1097,1086 L 1097,1085 L 1097,1084 L 1098,1084 L 1099,1085 L 1098,1086 L 1098,1087 " />
<path d="M 1007,985 L 1007,984 L 1008,984 L 1008,985 L 1007,985 " />
<path d="M 1006,976 L 1005,976 L 1006,975 L 1006,974 L 1006,973 L 1007,973 L 1007,974 L 1008,975 L 1007,975 L 1007,976 L 1006,976 " />
<path d="M 976,911 L 975,912 L 975,911 L 974,911 L 974,910 L 973,910 L 972,910 L 972,909 L 972,908 L 972,907 L 972,906 L 973,906 L 973,905 L 973,904 L 973,903 L 973,902 L 974,902 L 974,903 L 974,904 L 974,905 L 975,906 L 974,906 L 974,907 L 974,908 L 975,908 L 975,909 L 976,910 L 976,911 " />
<path d="M 969,893 L 968,893 L 968,894 L 967,894 L 966,894 L 966,893 L 966,892 L 967,892 L 968,891 L 968,892 L 969,892 L 969,893 " />
<path d="M 969,876 L 969,875 L 969,874 L 970,874 L 970,875 L 969,875 L 969,876 " />
<path d="M 953,856 L 954,856 L 954,857 L 954,858 L 955,858 L 955,859 L 956,860 L 957,860 L 958,860 L 959,860 L 959,861 L 960,861 L 960,862 L 961,862 L 962,862 L 963,862 L 964,862 L 964,863 L 965,863 L 966,863 L 966,864 L 967,864 L 968,864 L 968,865 L 967,865 L 967,866 L 966,866 L 966,867 L 967,867 L 967,868 L 967,869 L 967,870 L 967,871 L 967,872 L 967,873 L 966,874 L 965,875 L 965,876 L 964,876 L 965,877 L 966,877 L 967,877 L 967,876 L 968,876 L 969,876 L 970,876 L 970,877 L 970,878 L 970,879 L 971,879 L 971,880 L 971,881 L 972,881 L 972,882 L 971,882 L 970,882 L 969,883 L 968,882 L 967,882 L 966,882 L 966,881 L 965,881 L 965,880 L 965,881 L 964,881 L 963,881 L 963,880 L 964,879 L 963,878 L 962,878 L 961,877 L 960,877 L 959,877 L 959,876 L 959,875 L 959,874 L 959,873 L 959,872 L 958,872 L 957,873 L 956,873 L 955,873 L 955,872 L 954,872 L 954,871 L 953,871 L 953,870 L 954,870 L 954,869 L 954,868 L 955,867 L 956,866 L 957,866 L 957,865 L 957,864 L 956,864 L 956,863 L 956,862 L 955,862 L 954,862 L 954,861 L 953,861 L 952,861 L 951,861 L 951,860 L 951,859 L 950,859 L 950,860 L 950,859 L 950,858 L 950,857 L 951,857 L 951,856 L 952,856 L 953,856 " />
<path d="M 1303,554 L 1303,553 L 1302,553 L 1302,552 L 1303,552 L 1303,553 L 1304,554 L 1303,554 " />
<path d="M 1366,540 L 1367,540 L 1367,541 L 1368,542 L 1369,542 L 1369,543 L 1370,543 L 1370,544 L 1370,545 L 1370,546 L 1370,547 L 1370,548 L 1371,548 L 1372,549 L 1373,549 L 1373,550 L 1374,550 L 1374,549 L 1375,549 L 1375,550 L 1374,550 L 1374,551 L 1374,550 L 1373,550 L 1372,550 L 1372,551 L 1371,551 L 1371,550 L 1370,550 L 1370,549 L 1369,549 L 1368,549 L 1368,550 L 1367,550 L 1366,550 L 1365,550 L 1364,550 L 1363,550 L 1362,551 L 1362,550 L 1361,550 L 1360,550 L 1360,549 L 1360,548 L 1359,548 L 1358,548 L 1358,547 L 1359,547 L 1359,546 L 1360,546 L 1360,545 L 1361,545 L 1362,545 L 1362,544 L 1363,544 L 1363,543 L 1363,542 L 1362,542 L 1362,541 L 1362,540 L 1363,540 L 1364,540 L 1365,540 L 1366,540 " />
<path d="M 1379,522 L 1380,522 L 1381,522 L 1381,523 L 1382,523 L 1383,523 L 1383,524 L 1384,524 L 1385,524 L 1385,525 L 1385,526 L 1385,527 L 1384,527 L 1383,527 L 1383,526 L 1382,526 L 1381,526 L 1380,525 L 1379,525 L 1378,524 L 1377,524 L 1377,523 L 1376,523 L 1376,522 L 1377,521 L 1378,521 L 1379,522 " />
<path d="M 1360,521 L 1361,521 L 1362,521 L 1362,522 L 1363,523 L 1363,524 L 1363,525 L 1363,526 L 1363,527 L 1363,528 L 1364,529 L 1363,529 L 1363,530 L 1363,531 L 1364,532 L 1364,533 L 1364,534 L 1364,535 L 1363,535 L 1362,535 L 1361,535 L 1361,534 L 1361,533 L 1361,532 L 1361,531 L 1361,530 L 1360,530 L 1359,530 L 1358,530 L 1357,529 L 1356,529 L 1356,528 L 1356,527 L 1356,526 L 1356,525 L 1356,524 L 1356,523 L 1356,522 L 1357,522 L 1357,521 L 1358,520 L 1359,520 L 1359,521 L 1360,521 " />
<path d="M 1342,490 L 1343,490 L 1343,491 L 1342,491 L 1342,490 " />
<path d="M 1346,488 L 1345,488 L 1346,487 L 1346,486 L 1347,486 L 1347,487 L 1347,488 L 1346,488 " />
<path d="M 1277,437 L 1278,437 L 1278,438 L 1279,438 L 1280,438 L 1280,439 L 1281,439 L 1282,439 L 1283,439 L 1283,438 L 1284,438 L 1285,438 L 1286,438 L 1286,439 L 1287,439 L 1287,440 L 1287,441 L 1288,441 L 1288,442 L 1289,442 L 1289,443 L 1290,443 L 1290,444 L 1290,445 L 1291,445 L 1291,446 L 1292,446 L 1292,447 L 1293,447 L 1293,448 L 1294,448 L 1294,449 L 1295,450 L 1295,451 L 1296,451 L 1296,452 L 1295,452 L 1294,452 L 1295,453 L 1295,454 L 1296,454 L 1297,454 L 1297,455 L 1297,456 L 1297,457 L 1297,458 L 1297,459 L 1297,458 L 1298,458 L 1299,458 L 1300,459 L 1300,460 L 1301,460 L 1301,461 L 1302,461 L 1302,462 L 1303,461 L 1304,461 L 1305,461 L 1305,462 L 1306,462 L 1306,463 L 1306,464 L 1306,465 L 1305,465 L 1306,466 L 1306,467 L 1305,467 L 1305,466 L 1304,466 L 1304,465 L 1303,465 L 1303,466 L 1302,466 L 1302,467 L 1303,467 L 1302,468 L 1302,469 L 1301,469 L 1301,470 L 1302,470 L 1302,471 L 1301,471 L 1301,472 L 1302,473 L 1302,474 L 1302,475 L 1301,475 L 1300,475 L 1299,475 L 1298,475 L 1297,475 L 1297,474 L 1296,474 L 1295,474 L 1294,473 L 1294,474 L 1294,475 L 1294,476 L 1294,477 L 1295,477 L 1295,478 L 1296,478 L 1296,479 L 1297,479 L 1297,480 L 1297,481 L 1297,482 L 1297,483 L 1296,483 L 1296,484 L 1295,484 L 1294,484 L 1294,485 L 1294,486 L 1293,486 L 1293,487 L 1292,487 L 1292,488 L 1291,488 L 1291,489 L 1290,489 L 1289,489 L 1289,488 L 1289,487 L 1288,486 L 1289,485 L 1290,485 L 1290,484 L 1289,484 L 1288,484 L 1288,483 L 1288,482 L 1288,481 L 1287,481 L 1287,482 L 1287,481 L 1286,481 L 1286,480 L 1285,480 L 1285,479 L 1285,478 L 1285,477 L 1286,476 L 1286,475 L 1287,475 L 1287,474 L 1286,474 L 1285,474 L 1284,474 L 1284,473 L 1284,472 L 1283,471 L 1283,472 L 1282,472 L 1282,473 L 1282,474 L 1282,475 L 1281,475 L 1280,475 L 1279,475 L 1278,476 L 1279,476 L 1279,477 L 1279,478 L 1279,479 L 1279,480 L 1279,481 L 1279,482 L 1279,483 L 1278,483 L 1278,482 L 1277,482 L 1276,482 L 1275,482 L 1274,482 L 1274,483 L 1273,483 L 1273,482 L 1272,482 L 1271,482 L 1271,481 L 1270,480 L 1270,479 L 1270,478 L 1270,477 L 1269,477 L 1268,477 L 1267,477 L 1267,476 L 1267,475 L 1266,475 L 1265,475 L 1264,475 L 1264,474 L 1263,474 L 1263,473 L 1263,472 L 1264,472 L 1264,471 L 1263,471 L 1263,470 L 1264,470 L 1264,469 L 1264,468 L 1265,468 L 1265,467 L 1265,466 L 1265,465 L 1265,464 L 1266,465 L 1267,465 L 1267,466 L 1268,466 L 1268,467 L 1268,468 L 1269,468 L 1269,469 L 1270,469 L 1270,470 L 1271,470 L 1271,469 L 1270,469 L 1271,468 L 1271,467 L 1270,467 L 1270,466 L 1270,465 L 1269,465 L 1269,464 L 1269,463 L 1268,462 L 1268,461 L 1267,461 L 1266,461 L 1266,460 L 1267,460 L 1266,459 L 1265,459 L 1265,458 L 1265,457 L 1264,457 L 1264,456 L 1264,455 L 1263,455 L 1262,456 L 1261,455 L 1261,454 L 1261,453 L 1260,453 L 1260,452 L 1260,451 L 1260,450 L 1259,450 L 1259,451 L 1258,451 L 1257,451 L 1256,450 L 1256,449 L 1256,448 L 1257,448 L 1257,447 L 1256,447 L 1255,447 L 1255,446 L 1255,445 L 1256,445 L 1257,445 L 1258,445 L 1259,444 L 1260,444 L 1261,443 L 1262,442 L 1263,442 L 1264,442 L 1264,443 L 1265,443 L 1266,443 L 1267,443 L 1267,442 L 1268,442 L 1269,442 L 1269,441 L 1270,441 L 1270,440 L 1270,439 L 1271,439 L 1271,438 L 1272,438 L 1273,437 L 1274,437 L 1275,437 L 1276,437 L 1277,437 " />
<path d="M 1190,353 L 1190,354 L 1189,354 L 1189,355 L 1188,355 L 1188,356 L 1187,356 L 1187,357 L 1186,357 L 1185,357 L 1184,357 L 1184,356 L 1183,356 L 1182,356 L 1182,355 L 1183,355 L 1183,354 L 1184,354 L 1185,353 L 1186,353 L 1187,353 L 1187,352 L 1188,352 L 1189,352 L 1190,353 " />
<path d="M 1213,347 L 1214,347 L 1215,347 L 1215,348 L 1215,349 L 1216,349 L 1216,350 L 1216,351 L 1217,351 L 1217,352 L 1216,352 L 1215,352 L 1214,352 L 1213,352 L 1212,352 L 1211,352 L 1211,351 L 1210,351 L 1209,351 L 1208,351 L 1207,351 L 1206,351 L 1206,350 L 1206,349 L 1207,349 L 1207,348 L 1208,348 L 1209,347 L 1210,347 L 1211,347 L 1212,347 L 1213,347 " />
<path d="M 742,201 L 741,201 L 741,200 L 741,199 L 742,199 L 742,200 L 742,201 " />
<path d="M 1005,185 L 1005,186 L 1005,185 L 1005,184 L 1006,184 L 1007,184 L 1006,184 L 1006,185 L 1005,185 " />
<path d="M 1003,179 L 1002,179 L 1002,178 L 1003,178 L 1003,177 L 1004,177 L 1004,176 L 1004,177 L 1005,177 L 1005,178 L 1004,178 L 1004,179 L 1003,179 " />
<path d="M 996,175 L 995,175 L 995,174 L 996,174 L 996,175 L 997,175 L 996,175 " />
<path d="M 1022,173 L 1023,173 L 1023,174 L 1024,174 L 1025,174 L 1025,175 L 1026,175 L 1026,176 L 1027,176 L 1027,177 L 1026,177 L 1026,178 L 1027,178 L 1027,179 L 1028,178 L 1028,179 L 1029,178 L 1029,179 L 1029,180 L 1029,181 L 1030,181 L 1030,182 L 1030,183 L 1031,183 L 1031,184 L 1031,185 L 1031,186 L 1031,187 L 1030,187 L 1030,188 L 1030,189 L 1029,189 L 1029,190 L 1028,190 L 1028,191 L 1027,191 L 1027,192 L 1026,192 L 1026,193 L 1027,193 L 1028,193 L 1029,193 L 1030,193 L 1031,193 L 1031,192 L 1032,191 L 1032,190 L 1033,190 L 1033,189 L 1034,189 L 1034,188 L 1035,189 L 1036,188 L 1037,188 L 1037,189 L 1037,190 L 1036,190 L 1036,191 L 1035,192 L 1034,192 L 1033,192 L 1032,192 L 1032,193 L 1031,193 L 1031,194 L 1030,194 L 1030,195 L 1029,195 L 1029,196 L 1028,196 L 1027,196 L 1027,197 L 1026,197 L 1026,198 L 1025,198 L 1025,199 L 1024,199 L 1023,199 L 1022,199 L 1022,200 L 1021,200 L 1020,200 L 1020,199 L 1019,199 L 1018,199 L 1018,198 L 1017,198 L 1017,197 L 1018,197 L 1018,196 L 1019,196 L 1020,195 L 1021,195 L 1022,195 L 1023,195 L 1023,194 L 1024,194 L 1025,194 L 1025,193 L 1025,192 L 1024,192 L 1023,192 L 1023,191 L 1022,191 L 1021,191 L 1020,191 L 1020,190 L 1019,190 L 1018,190 L 1018,189 L 1017,188 L 1018,187 L 1018,186 L 1018,185 L 1019,184 L 1020,184 L 1021,184 L 1021,183 L 1022,183 L 1022,182 L 1022,181 L 1021,181 L 1021,180 L 1020,180 L 1019,180 L 1018,180 L 1018,179 L 1017,179 L 1016,179 L 1015,179 L 1015,178 L 1014,178 L 1014,177 L 1015,177 L 1016,176 L 1016,175 L 1016,174 L 1016,173 L 1016,174 L 1017,174 L 1017,173 L 1018,173 L 1018,174 L 1019,174 L 1019,173 L 1020,173 L 1020,174 L 1020,173 L 1021,173 L 1022,173 " />
<path d="M 954,171 L 955,171 L 955,172 L 954,172 L 954,173 L 953,173 L 952,173 L 951,173 L 952,173 L 952,172 L 953,172 L 953,171 L 954,171 " />
<path d="M 1000,171 L 999,171 L 999,170 L 999,169 L 1000,169 L 1000,168 L 1001,168 L 1001,167 L 1002,167 L 1003,167 L 1003,168 L 1003,169 L 1003,170 L 1002,170 L 1002,171 L 1001,171 L 1000,171 " />
<path d="M 946,165 L 947,165 L 948,165 L 949,165 L 950,165 L 951,166 L 951,167 L 952,167 L 952,168 L 952,169 L 953,170 L 953,171 L 952,171 L 952,172 L 951,172 L 951,171 L 950,171 L 950,170 L 950,169 L 949,169 L 949,170 L 949,171 L 948,172 L 947,172 L 947,173 L 946,173 L 945,173 L 945,172 L 945,171 L 945,170 L 945,169 L 945,168 L 945,167 L 945,166 L 945,165 L 946,165 " />
<path d="M 1009,157 L 1009,158 L 1008,158 L 1008,159 L 1008,160 L 1007,160 L 1007,161 L 1006,161 L 1006,162 L 1005,162 L 1004,163 L 1004,164 L 1003,164 L 1002,165 L 1001,165 L 1000,166 L 1000,167 L 999,167 L 999,168 L 998,168 L 998,169 L 997,169 L 996,169 L 995,169 L 994,170 L 993,170 L 992,170 L 993,170 L 993,169 L 992,169 L 992,170 L 991,170 L 992,170 L 992,169 L 991,169 L 991,170 L 990,170 L 989,170 L 989,169 L 990,169 L 990,168 L 991,168 L 992,167 L 992,168 L 993,168 L 993,167 L 994,167 L 994,166 L 995,166 L 995,165 L 996,165 L 996,164 L 996,163 L 997,163 L 998,162 L 999,162 L 1000,162 L 1001,162 L 1001,161 L 1001,160 L 1001,159 L 1001,158 L 1002,158 L 1003,157 L 1004,157 L 1005,157 L 1006,157 L 1007,157 L 1008,157 L 1009,157 " />
<path d="M 1008,156 L 1009,156 L 1008,156 L 1008,157 L 1007,157 L 1007,156 L 1008,156 " />
<path d="M 643,158 L 643,159 L 643,160 L 642,161 L 643,161 L 643,162 L 643,163 L 644,163 L 644,164 L 644,165 L 644,166 L 644,167 L 643,168 L 643,169 L 644,169 L 644,170 L 643,171 L 644,171 L 644,172 L 644,173 L 644,174 L 644,175 L 644,176 L 644,177 L 643,177 L 643,178 L 643,179 L 643,180 L 643,181 L 643,182 L 643,183 L 643,182 L 643,183 L 643,184 L 643,185 L 643,186 L 643,187 L 643,188 L 643,189 L 643,190 L 643,191 L 643,192 L 643,193 L 643,194 L 643,195 L 643,196 L 644,196 L 644,197 L 644,198 L 644,199 L 643,199 L 643,200 L 643,201 L 642,202 L 642,203 L 642,204 L 642,205 L 643,205 L 643,206 L 643,207 L 642,208 L 641,209 L 641,208 L 640,208 L 640,207 L 640,206 L 639,207 L 639,206 L 639,205 L 639,204 L 639,203 L 639,202 L 638,202 L 638,201 L 638,200 L 638,199 L 638,198 L 638,197 L 638,196 L 638,195 L 638,194 L 639,194 L 639,192 L 640,192 L 640,191 L 640,190 L 640,189 L 641,189 L 641,188 L 641,187 L 641,186 L 641,185 L 641,184 L 641,183 L 641,182 L 640,181 L 640,180 L 640,179 L 640,178 L 640,177 L 640,176 L 639,175 L 638,174 L 638,175 L 637,175 L 637,174 L 637,173 L 636,173 L 635,174 L 634,174 L 633,174 L 633,173 L 632,173 L 631,173 L 630,173 L 629,173 L 629,172 L 628,172 L 628,171 L 627,171 L 627,170 L 626,170 L 625,169 L 625,168 L 625,167 L 626,167 L 626,166 L 627,165 L 628,165 L 629,165 L 630,164 L 630,163 L 631,163 L 632,163 L 633,163 L 633,162 L 633,161 L 634,161 L 635,161 L 636,161 L 636,160 L 637,160 L 637,161 L 637,160 L 637,159 L 638,159 L 639,159 L 639,160 L 640,160 L 640,159 L 640,158 L 641,158 L 641,157 L 641,156 L 642,156 L 642,155 L 643,155 L 644,155 L 644,156 L 644,157 L 644,158 L 643,158 " />
<path d="M 737,156 L 738,156 L 739,155 L 739,156 L 740,156 L 741,156 L 741,157 L 742,157 L 742,158 L 743,159 L 743,160 L 744,161 L 743,161 L 744,162 L 744,163 L 744,164 L 745,165 L 744,165 L 744,166 L 744,167 L 743,167 L 742,167 L 742,168 L 741,169 L 741,170 L 740,170 L 739,171 L 738,172 L 737,172 L 737,173 L 736,173 L 736,172 L 736,171 L 735,170 L 734,170 L 734,169 L 734,168 L 733,168 L 733,167 L 732,167 L 732,166 L 731,166 L 731,165 L 731,164 L 731,163 L 732,163 L 732,162 L 732,161 L 733,160 L 733,159 L 733,158 L 733,157 L 733,156 L 732,156 L 732,155 L 731,155 L 731,154 L 731,153 L 732,153 L 732,152 L 733,152 L 734,152 L 734,153 L 735,153 L 736,153 L 736,154 L 736,155 L 737,155 L 737,156 " />
<path d="M 941,140 L 942,140 L 943,140 L 944,140 L 945,141 L 946,142 L 947,142 L 948,142 L 948,143 L 949,143 L 950,143 L 950,144 L 951,144 L 951,145 L 951,146 L 950,146 L 949,147 L 950,147 L 950,148 L 949,148 L 949,149 L 948,149 L 947,149 L 946,149 L 945,149 L 944,149 L 943,149 L 943,148 L 942,148 L 942,147 L 941,146 L 941,145 L 941,144 L 940,144 L 940,143 L 940,142 L 940,141 L 940,140 L 941,140 " />
<path d="M 935,148 L 936,148 L 937,148 L 936,148 L 937,148 L 937,147 L 938,147 L 939,147 L 939,148 L 939,149 L 938,149 L 938,150 L 939,150 L 940,150 L 940,151 L 941,151 L 941,152 L 941,153 L 940,153 L 940,154 L 940,153 L 939,153 L 939,152 L 938,152 L 937,152 L 937,151 L 936,151 L 935,151 L 935,150 L 934,150 L 933,150 L 933,149 L 934,148 L 934,147 L 933,147 L 933,146 L 933,145 L 933,144 L 932,144 L 932,143 L 932,142 L 932,141 L 931,141 L 931,140 L 931,139 L 930,139 L 930,138 L 931,138 L 932,138 L 933,138 L 934,138 L 934,139 L 934,140 L 933,140 L 933,141 L 933,142 L 934,143 L 933,143 L 933,144 L 934,144 L 935,144 L 935,145 L 935,146 L 934,146 L 935,146 L 935,147 L 935,148 " />
<path d="M 772,133 L 771,133 L 772,132 L 773,132 L 773,131 L 773,130 L 772,130 L 772,129 L 773,129 L 773,128 L 774,128 L 775,128 L 775,129 L 776,129 L 776,130 L 775,131 L 775,132 L 774,132 L 773,132 L 773,133 L 772,133 " />
<path d="M 895,102 L 896,102 L 896,103 L 896,104 L 897,104 L 898,105 L 897,105 L 897,106 L 897,105 L 896,105 L 895,105 L 895,104 L 894,104 L 893,104 L 893,103 L 892,103 L 891,103 L 891,102 L 892,102 L 893,102 L 893,101 L 893,100 L 893,99 L 893,98 L 894,99 L 895,99 L 895,100 L 895,101 L 894,101 L 895,102 " />
<path d="M 891,92 L 892,92 L 892,93 L 893,93 L 893,94 L 893,95 L 893,96 L 894,96 L 894,97 L 893,97 L 892,97 L 892,96 L 893,96 L 893,95 L 892,94 L 891,94 L 891,93 L 891,94 L 891,93 L 890,93 L 890,92 L 890,91 L 891,91 L 891,92 " />
<path d="M 789,88 L 789,89 L 788,89 L 788,88 L 789,88 " />
<path d="M 931,87 L 930,88 L 930,87 L 929,87 L 929,86 L 930,86 L 931,86 L 931,87 " />
<path d="M 873,72 L 874,72 L 874,73 L 875,73 L 875,72 L 876,73 L 877,73 L 877,74 L 878,74 L 878,75 L 879,76 L 880,76 L 880,77 L 881,77 L 881,78 L 882,78 L 883,79 L 884,79 L 885,79 L 885,80 L 884,80 L 884,81 L 885,81 L 885,82 L 885,83 L 886,84 L 886,83 L 887,83 L 887,84 L 887,85 L 886,85 L 887,85 L 888,85 L 888,86 L 888,87 L 889,87 L 889,88 L 890,88 L 889,88 L 889,89 L 890,89 L 890,90 L 889,90 L 888,90 L 888,89 L 887,89 L 886,89 L 886,88 L 885,88 L 884,88 L 884,87 L 884,86 L 883,86 L 883,85 L 882,85 L 881,85 L 881,86 L 881,85 L 881,84 L 881,83 L 880,83 L 880,84 L 879,84 L 879,83 L 879,82 L 878,82 L 878,81 L 877,80 L 876,80 L 875,80 L 875,79 L 876,79 L 876,78 L 875,78 L 874,78 L 874,77 L 873,77 L 873,76 L 872,76 L 871,76 L 871,75 L 870,75 L 870,76 L 869,76 L 869,75 L 869,76 L 868,76 L 868,75 L 869,75 L 869,74 L 870,74 L 870,73 L 871,73 L 871,74 L 871,75 L 872,75 L 873,76 L 873,75 L 874,75 L 873,75 L 873,74 L 873,73 L 873,72 " />
<path d="M 919,29 L 920,29 L 920,28 L 921,28 L 922,29 L 922,30 L 922,31 L 923,31 L 924,31 L 923,30 L 923,29 L 924,29 L 924,28 L 924,29 L 924,28 L 925,28 L 926,28 L 926,27 L 927,27 L 928,27 L 928,28 L 929,28 L 930,28 L 931,28 L 932,28 L 932,29 L 933,29 L 934,29 L 935,30 L 935,31 L 935,32 L 936,32 L 936,33 L 936,34 L 936,35 L 937,35 L 937,36 L 937,37 L 938,37 L 938,38 L 938,39 L 938,40 L 939,40 L 939,41 L 940,41 L 941,41 L 940,41 L 940,40 L 940,39 L 940,38 L 940,37 L 940,36 L 940,35 L 940,34 L 940,33 L 939,33 L 939,32 L 939,31 L 940,31 L 941,31 L 941,32 L 942,32 L 943,32 L 943,33 L 943,34 L 944,34 L 944,35 L 943,35 L 943,36 L 943,37 L 943,38 L 944,38 L 945,38 L 946,38 L 947,39 L 948,40 L 949,40 L 949,41 L 950,41 L 950,42 L 951,42 L 952,42 L 952,43 L 953,43 L 953,44 L 954,44 L 955,44 L 956,44 L 956,45 L 957,45 L 958,45 L 958,46 L 959,46 L 959,47 L 960,47 L 960,48 L 961,48 L 961,49 L 961,48 L 962,48 L 962,49 L 963,49 L 963,48 L 964,48 L 964,49 L 965,49 L 966,48 L 966,49 L 967,49 L 967,50 L 967,51 L 967,52 L 968,53 L 969,53 L 970,53 L 970,54 L 970,55 L 971,55 L 972,56 L 972,57 L 973,57 L 973,58 L 974,58 L 974,59 L 975,59 L 975,60 L 976,60 L 977,60 L 977,61 L 978,61 L 979,61 L 979,62 L 980,62 L 980,63 L 981,63 L 981,64 L 982,64 L 983,65 L 984,66 L 984,67 L 983,67 L 983,68 L 983,69 L 982,69 L 982,70 L 982,71 L 981,72 L 981,73 L 982,73 L 982,72 L 983,72 L 983,71 L 983,70 L 984,70 L 985,70 L 985,69 L 986,68 L 986,67 L 987,67 L 987,68 L 987,69 L 988,70 L 988,71 L 988,72 L 989,72 L 989,71 L 990,71 L 990,72 L 989,72 L 988,72 L 988,73 L 989,73 L 989,74 L 990,74 L 991,75 L 992,75 L 993,75 L 993,76 L 994,76 L 994,77 L 994,78 L 994,79 L 993,79 L 993,80 L 994,80 L 994,79 L 995,79 L 996,79 L 997,80 L 998,80 L 999,81 L 1000,81 L 1000,82 L 1001,82 L 1001,83 L 1002,83 L 1002,84 L 1003,84 L 1003,83 L 1002,82 L 1002,81 L 1002,80 L 1003,80 L 1003,81 L 1004,81 L 1005,82 L 1006,82 L 1006,83 L 1007,84 L 1007,85 L 1007,86 L 1008,86 L 1009,86 L 1010,87 L 1010,88 L 1010,89 L 1011,89 L 1011,90 L 1010,91 L 1011,91 L 1012,91 L 1013,92 L 1014,92 L 1014,93 L 1015,94 L 1015,95 L 1014,95 L 1013,95 L 1013,96 L 1014,96 L 1015,96 L 1016,96 L 1017,96 L 1018,96 L 1019,96 L 1019,97 L 1019,98 L 1018,98 L 1018,99 L 1017,99 L 1017,100 L 1016,100 L 1015,100 L 1016,101 L 1017,102 L 1018,102 L 1018,103 L 1019,103 L 1020,104 L 1020,105 L 1020,106 L 1021,106 L 1021,107 L 1022,107 L 1022,108 L 1022,109 L 1023,109 L 1023,110 L 1024,110 L 1024,111 L 1024,112 L 1024,113 L 1024,114 L 1025,114 L 1026,114 L 1027,114 L 1027,115 L 1028,115 L 1028,116 L 1029,116 L 1029,117 L 1030,118 L 1030,119 L 1030,120 L 1030,121 L 1029,121 L 1028,121 L 1027,120 L 1026,120 L 1025,120 L 1024,120 L 1024,121 L 1024,120 L 1023,120 L 1023,119 L 1022,119 L 1021,118 L 1020,118 L 1020,117 L 1019,117 L 1018,117 L 1017,117 L 1017,118 L 1017,119 L 1016,119 L 1016,120 L 1015,120 L 1014,121 L 1013,121 L 1012,122 L 1011,122 L 1010,122 L 1010,123 L 1009,123 L 1008,123 L 1007,123 L 1008,123 L 1008,124 L 1009,124 L 1009,125 L 1008,125 L 1007,125 L 1006,125 L 1005,125 L 1005,124 L 1006,124 L 1006,123 L 1007,123 L 1006,123 L 1005,123 L 1004,123 L 1004,122 L 1003,122 L 1002,122 L 1001,122 L 1000,122 L 999,122 L 998,121 L 998,120 L 998,119 L 998,118 L 998,117 L 998,118 L 999,118 L 1000,118 L 1001,118 L 1001,119 L 1002,119 L 1002,120 L 1003,120 L 1004,120 L 1005,120 L 1006,120 L 1007,120 L 1007,119 L 1007,118 L 1007,117 L 1007,116 L 1007,115 L 1007,114 L 1006,114 L 1006,113 L 1005,113 L 1004,112 L 1004,111 L 1004,110 L 1004,109 L 1003,109 L 1002,108 L 1001,108 L 1001,107 L 1000,107 L 1000,106 L 999,106 L 998,106 L 997,106 L 996,107 L 995,107 L 994,107 L 993,107 L 993,108 L 992,108 L 991,108 L 991,109 L 990,109 L 989,108 L 988,109 L 988,108 L 988,109 L 987,109 L 987,110 L 986,110 L 985,110 L 984,111 L 983,111 L 983,112 L 982,112 L 981,112 L 981,113 L 980,113 L 979,114 L 978,114 L 978,115 L 977,115 L 976,115 L 976,116 L 977,117 L 977,118 L 978,118 L 978,119 L 979,119 L 979,120 L 978,120 L 978,121 L 978,122 L 977,122 L 977,123 L 977,124 L 978,124 L 978,125 L 978,126 L 977,127 L 976,127 L 975,127 L 974,128 L 973,128 L 972,128 L 971,127 L 970,126 L 970,125 L 971,124 L 971,123 L 970,123 L 971,122 L 971,121 L 971,120 L 972,120 L 972,119 L 973,119 L 972,118 L 971,118 L 971,117 L 971,116 L 971,115 L 971,114 L 971,113 L 970,113 L 969,113 L 968,113 L 968,114 L 968,115 L 968,116 L 968,117 L 967,117 L 966,117 L 966,118 L 967,118 L 967,119 L 968,119 L 968,120 L 968,121 L 968,122 L 968,123 L 967,124 L 967,125 L 966,125 L 965,125 L 965,126 L 966,126 L 966,127 L 965,128 L 964,128 L 964,129 L 964,130 L 964,131 L 965,132 L 965,133 L 964,134 L 963,134 L 962,134 L 962,135 L 961,135 L 960,134 L 959,133 L 958,133 L 957,133 L 956,133 L 956,132 L 955,132 L 954,131 L 954,130 L 953,130 L 953,129 L 953,128 L 952,128 L 952,127 L 951,127 L 951,126 L 950,126 L 950,127 L 950,128 L 950,129 L 950,130 L 949,130 L 949,131 L 949,132 L 949,133 L 950,133 L 950,134 L 950,135 L 950,136 L 950,137 L 950,138 L 949,138 L 949,137 L 949,136 L 948,136 L 948,135 L 948,134 L 947,134 L 946,134 L 946,133 L 946,132 L 945,132 L 944,132 L 944,131 L 944,130 L 943,130 L 942,129 L 942,128 L 941,128 L 940,128 L 939,127 L 938,127 L 937,128 L 936,128 L 936,129 L 935,129 L 935,128 L 934,128 L 933,128 L 932,128 L 931,128 L 931,129 L 931,130 L 930,130 L 930,129 L 929,129 L 929,128 L 929,127 L 928,127 L 928,128 L 927,128 L 926,128 L 925,128 L 924,129 L 924,130 L 923,130 L 923,131 L 923,132 L 924,132 L 924,133 L 924,134 L 924,135 L 925,135 L 925,136 L 926,136 L 926,137 L 925,137 L 925,136 L 924,136 L 924,135 L 923,135 L 923,134 L 923,135 L 922,135 L 921,134 L 920,134 L 919,134 L 919,133 L 918,132 L 917,132 L 917,131 L 916,131 L 915,131 L 914,131 L 914,132 L 914,133 L 914,134 L 913,134 L 913,135 L 912,135 L 911,135 L 911,134 L 910,134 L 910,133 L 909,132 L 909,131 L 908,131 L 907,131 L 906,131 L 905,131 L 905,130 L 905,129 L 905,128 L 905,127 L 904,127 L 903,126 L 902,126 L 901,127 L 900,128 L 900,129 L 901,129 L 901,130 L 901,131 L 901,132 L 902,132 L 902,133 L 902,134 L 902,135 L 901,135 L 902,136 L 901,136 L 901,137 L 902,138 L 903,138 L 903,139 L 902,139 L 903,140 L 902,140 L 903,140 L 903,141 L 903,142 L 903,143 L 904,143 L 904,144 L 905,144 L 905,145 L 906,145 L 906,146 L 906,147 L 906,148 L 906,149 L 907,149 L 906,149 L 905,149 L 904,149 L 904,148 L 904,147 L 903,147 L 903,146 L 902,146 L 902,145 L 901,144 L 901,143 L 901,142 L 900,142 L 900,141 L 899,141 L 899,142 L 898,142 L 898,143 L 898,144 L 897,144 L 897,145 L 897,146 L 897,147 L 897,148 L 896,148 L 896,147 L 895,147 L 895,146 L 895,145 L 894,145 L 893,145 L 893,144 L 894,144 L 893,144 L 892,144 L 891,144 L 891,143 L 890,143 L 889,143 L 889,144 L 888,144 L 888,145 L 887,145 L 887,146 L 887,147 L 888,148 L 888,149 L 889,149 L 890,149 L 890,150 L 890,151 L 889,151 L 889,152 L 889,153 L 889,154 L 890,154 L 890,155 L 891,155 L 892,156 L 892,155 L 893,155 L 894,155 L 894,156 L 895,156 L 895,157 L 895,158 L 896,158 L 897,159 L 896,159 L 896,160 L 895,160 L 894,160 L 894,161 L 894,162 L 895,162 L 895,163 L 896,163 L 896,164 L 895,164 L 895,165 L 894,165 L 893,165 L 894,166 L 895,166 L 895,167 L 896,167 L 896,168 L 895,168 L 894,168 L 893,168 L 892,168 L 892,169 L 891,169 L 890,169 L 889,169 L 888,169 L 888,170 L 888,171 L 889,171 L 889,172 L 890,172 L 891,172 L 891,173 L 892,173 L 892,174 L 893,174 L 893,175 L 894,175 L 894,176 L 895,176 L 895,177 L 895,178 L 894,178 L 893,178 L 893,179 L 892,179 L 891,179 L 891,180 L 891,181 L 890,181 L 889,181 L 889,180 L 888,179 L 887,179 L 887,180 L 886,180 L 885,180 L 884,180 L 884,179 L 883,179 L 882,179 L 881,179 L 880,179 L 879,179 L 879,178 L 878,178 L 877,178 L 877,179 L 876,179 L 876,180 L 875,180 L 875,181 L 876,182 L 876,183 L 875,183 L 874,183 L 873,183 L 873,184 L 874,184 L 874,185 L 875,186 L 875,187 L 875,188 L 876,188 L 876,189 L 877,189 L 877,190 L 877,191 L 877,192 L 878,192 L 878,193 L 878,194 L 879,194 L 879,195 L 880,195 L 881,196 L 882,196 L 882,197 L 883,197 L 884,197 L 885,197 L 885,198 L 886,198 L 887,198 L 888,198 L 888,199 L 888,200 L 889,200 L 890,200 L 891,200 L 892,200 L 893,200 L 893,201 L 894,201 L 894,202 L 893,202 L 893,203 L 893,204 L 894,204 L 894,205 L 895,206 L 895,207 L 895,208 L 896,208 L 896,209 L 895,210 L 896,210 L 897,210 L 897,211 L 898,211 L 898,212 L 898,213 L 899,213 L 899,214 L 900,214 L 901,214 L 901,215 L 901,216 L 902,216 L 902,217 L 903,217 L 903,218 L 904,218 L 904,219 L 903,219 L 903,220 L 903,221 L 904,221 L 904,222 L 904,223 L 903,224 L 902,224 L 902,225 L 903,225 L 904,225 L 905,225 L 905,226 L 906,226 L 907,226 L 907,227 L 907,228 L 906,228 L 905,228 L 905,227 L 904,227 L 903,227 L 902,227 L 901,227 L 900,227 L 900,226 L 900,227 L 899,227 L 899,226 L 899,225 L 899,224 L 898,224 L 897,224 L 897,223 L 896,223 L 895,224 L 895,225 L 894,225 L 894,224 L 893,224 L 893,225 L 893,226 L 892,226 L 892,227 L 892,228 L 891,228 L 890,228 L 889,229 L 888,229 L 887,229 L 886,229 L 886,228 L 885,228 L 885,227 L 884,227 L 883,227 L 882,227 L 882,228 L 881,227 L 881,226 L 881,225 L 881,224 L 881,225 L 880,225 L 879,224 L 878,224 L 878,223 L 877,223 L 876,223 L 875,222 L 874,221 L 873,221 L 872,221 L 871,221 L 871,222 L 870,222 L 870,223 L 870,224 L 870,225 L 869,226 L 868,226 L 867,227 L 867,228 L 866,228 L 866,229 L 865,229 L 864,230 L 863,231 L 862,232 L 861,233 L 860,233 L 859,233 L 858,233 L 857,233 L 856,233 L 855,232 L 854,232 L 853,232 L 852,232 L 851,232 L 851,231 L 850,231 L 849,231 L 849,230 L 848,230 L 847,230 L 847,229 L 846,229 L 845,229 L 845,228 L 844,228 L 844,227 L 844,226 L 845,226 L 845,225 L 846,225 L 847,225 L 848,225 L 847,225 L 847,224 L 846,224 L 846,223 L 846,222 L 845,222 L 844,222 L 844,223 L 843,223 L 842,223 L 841,223 L 840,223 L 839,223 L 839,222 L 838,222 L 837,222 L 836,222 L 836,221 L 835,221 L 835,220 L 835,219 L 835,218 L 835,217 L 836,217 L 836,216 L 835,216 L 835,215 L 834,215 L 833,214 L 832,214 L 832,213 L 831,213 L 830,213 L 830,214 L 830,215 L 831,215 L 831,216 L 831,217 L 831,218 L 830,219 L 830,220 L 829,220 L 829,221 L 828,221 L 828,222 L 827,222 L 826,222 L 826,221 L 825,221 L 824,220 L 823,219 L 823,218 L 822,218 L 822,217 L 821,217 L 820,216 L 819,216 L 819,215 L 819,214 L 818,214 L 818,213 L 818,214 L 817,214 L 817,215 L 816,215 L 816,216 L 815,216 L 815,217 L 815,218 L 814,218 L 814,217 L 814,216 L 814,215 L 814,214 L 814,213 L 814,212 L 813,212 L 813,211 L 812,211 L 812,210 L 813,210 L 814,209 L 814,208 L 814,207 L 813,207 L 813,206 L 813,205 L 812,205 L 812,204 L 811,204 L 811,203 L 812,203 L 811,203 L 811,202 L 810,201 L 810,200 L 809,200 L 809,199 L 809,198 L 809,197 L 809,196 L 808,196 L 808,195 L 808,194 L 808,193 L 807,193 L 807,192 L 807,191 L 806,191 L 806,190 L 807,189 L 808,189 L 808,188 L 808,187 L 807,187 L 807,186 L 806,185 L 805,185 L 805,184 L 804,184 L 803,184 L 803,185 L 802,184 L 802,183 L 802,182 L 801,182 L 801,181 L 801,180 L 801,179 L 801,178 L 801,177 L 801,176 L 801,175 L 801,174 L 800,173 L 800,172 L 800,171 L 799,171 L 799,170 L 798,170 L 798,171 L 797,171 L 797,172 L 796,172 L 795,172 L 794,172 L 793,172 L 792,171 L 792,170 L 793,170 L 793,169 L 792,169 L 792,168 L 791,167 L 790,167 L 790,166 L 789,166 L 789,165 L 788,165 L 787,164 L 786,164 L 785,164 L 784,163 L 784,162 L 783,162 L 782,162 L 781,162 L 781,161 L 782,161 L 783,161 L 784,161 L 785,160 L 786,160 L 787,160 L 788,160 L 789,160 L 790,160 L 790,159 L 791,159 L 792,159 L 793,159 L 793,158 L 793,157 L 793,156 L 793,155 L 793,154 L 793,153 L 793,152 L 793,151 L 792,151 L 792,150 L 792,151 L 791,151 L 790,151 L 789,151 L 789,150 L 789,149 L 790,149 L 791,148 L 792,147 L 793,147 L 793,146 L 793,145 L 792,145 L 792,144 L 793,144 L 793,143 L 792,143 L 791,143 L 791,142 L 792,141 L 792,140 L 792,139 L 791,139 L 790,139 L 789,139 L 788,139 L 788,138 L 788,137 L 787,137 L 787,136 L 788,136 L 788,135 L 787,135 L 786,135 L 785,135 L 785,134 L 786,134 L 786,133 L 785,132 L 784,132 L 784,131 L 785,131 L 785,130 L 784,130 L 783,130 L 783,129 L 783,128 L 783,127 L 782,127 L 783,127 L 782,127 L 781,127 L 780,127 L 779,127 L 779,126 L 778,126 L 779,126 L 779,125 L 778,124 L 778,125 L 778,124 L 777,124 L 777,125 L 777,124 L 778,124 L 778,123 L 779,122 L 778,122 L 778,121 L 779,121 L 780,121 L 781,121 L 781,120 L 781,119 L 782,119 L 782,118 L 783,118 L 783,117 L 782,117 L 782,116 L 782,115 L 781,115 L 781,114 L 781,113 L 781,112 L 780,112 L 780,111 L 779,111 L 779,110 L 778,110 L 778,109 L 777,109 L 777,110 L 776,110 L 776,109 L 776,108 L 777,108 L 777,109 L 778,109 L 779,109 L 779,108 L 779,107 L 780,107 L 781,107 L 782,106 L 781,105 L 782,105 L 783,105 L 784,105 L 784,106 L 785,106 L 785,105 L 785,104 L 785,103 L 785,102 L 785,101 L 785,100 L 784,100 L 784,99 L 784,98 L 783,97 L 783,96 L 784,97 L 785,97 L 785,98 L 786,98 L 786,99 L 786,100 L 786,101 L 787,101 L 787,100 L 788,100 L 788,101 L 789,101 L 789,100 L 788,100 L 788,99 L 789,99 L 790,99 L 791,99 L 792,99 L 793,99 L 793,100 L 794,100 L 794,101 L 794,100 L 795,100 L 795,99 L 796,99 L 796,100 L 797,100 L 797,101 L 798,101 L 798,102 L 799,103 L 799,104 L 799,105 L 799,106 L 800,106 L 800,107 L 799,107 L 798,108 L 797,108 L 797,107 L 796,107 L 796,108 L 795,108 L 794,108 L 793,108 L 793,109 L 794,109 L 794,110 L 795,110 L 796,110 L 797,110 L 797,111 L 797,112 L 796,112 L 796,113 L 796,114 L 796,115 L 796,116 L 797,116 L 798,116 L 799,116 L 799,117 L 800,117 L 800,116 L 801,115 L 802,115 L 802,114 L 803,114 L 804,114 L 804,115 L 804,114 L 804,113 L 804,112 L 805,111 L 805,110 L 806,110 L 806,109 L 807,109 L 807,108 L 806,108 L 806,107 L 805,107 L 805,106 L 804,106 L 804,105 L 804,104 L 803,104 L 803,103 L 804,103 L 804,102 L 805,102 L 805,101 L 805,100 L 806,100 L 807,101 L 808,100 L 808,99 L 809,99 L 810,99 L 811,99 L 811,100 L 811,101 L 811,102 L 811,103 L 812,103 L 811,103 L 811,104 L 811,105 L 811,106 L 810,107 L 811,107 L 812,107 L 812,108 L 813,108 L 814,107 L 814,106 L 814,105 L 815,105 L 815,104 L 816,105 L 816,104 L 816,103 L 815,103 L 815,102 L 814,102 L 814,101 L 814,100 L 815,100 L 815,99 L 814,99 L 814,98 L 815,98 L 815,99 L 816,99 L 817,99 L 818,99 L 818,100 L 819,100 L 820,100 L 821,101 L 822,101 L 823,101 L 823,102 L 824,102 L 825,102 L 826,102 L 827,102 L 827,103 L 828,103 L 828,104 L 829,104 L 829,103 L 830,103 L 831,103 L 832,103 L 833,103 L 833,104 L 833,105 L 834,105 L 834,106 L 835,106 L 835,107 L 836,107 L 836,108 L 837,108 L 838,109 L 839,109 L 839,110 L 840,110 L 840,111 L 840,112 L 840,113 L 841,113 L 841,112 L 841,111 L 842,111 L 843,111 L 844,111 L 845,111 L 845,112 L 846,112 L 846,113 L 847,114 L 847,115 L 847,116 L 846,116 L 846,117 L 847,117 L 847,118 L 848,118 L 848,119 L 849,119 L 850,119 L 851,119 L 852,119 L 853,120 L 854,120 L 854,121 L 854,122 L 854,123 L 855,123 L 855,122 L 855,121 L 856,121 L 856,120 L 857,120 L 858,120 L 859,121 L 860,121 L 861,121 L 862,121 L 862,122 L 863,122 L 864,122 L 865,122 L 865,123 L 866,123 L 867,123 L 868,123 L 869,123 L 869,124 L 869,125 L 869,126 L 870,126 L 871,125 L 871,126 L 872,127 L 871,127 L 871,128 L 871,129 L 871,130 L 872,131 L 872,132 L 872,133 L 872,134 L 871,134 L 871,135 L 871,136 L 871,137 L 872,138 L 873,138 L 873,139 L 874,139 L 875,139 L 876,139 L 876,138 L 877,138 L 877,139 L 878,139 L 878,138 L 879,138 L 880,138 L 881,138 L 881,137 L 882,137 L 883,137 L 883,138 L 884,138 L 885,138 L 886,138 L 887,138 L 888,138 L 888,137 L 889,137 L 889,138 L 889,137 L 890,137 L 891,137 L 891,138 L 892,138 L 892,137 L 893,136 L 893,135 L 892,135 L 893,135 L 893,134 L 893,133 L 894,133 L 895,133 L 896,133 L 895,132 L 895,131 L 896,131 L 896,130 L 897,130 L 898,129 L 898,128 L 897,128 L 896,128 L 896,127 L 896,126 L 896,125 L 895,125 L 895,124 L 895,123 L 896,123 L 897,123 L 897,122 L 898,122 L 898,121 L 898,120 L 899,120 L 899,119 L 899,118 L 898,118 L 898,117 L 897,116 L 898,116 L 898,115 L 898,114 L 898,113 L 899,112 L 899,113 L 900,113 L 900,114 L 901,113 L 901,114 L 901,115 L 902,116 L 902,117 L 903,117 L 904,116 L 905,115 L 906,115 L 906,116 L 907,116 L 908,116 L 909,116 L 909,115 L 910,115 L 910,114 L 910,113 L 911,113 L 911,112 L 912,112 L 913,112 L 913,111 L 914,111 L 915,111 L 916,112 L 916,111 L 916,110 L 916,109 L 916,108 L 917,108 L 918,108 L 918,107 L 918,106 L 918,105 L 919,105 L 919,104 L 920,104 L 920,103 L 920,102 L 920,101 L 921,101 L 921,102 L 921,103 L 921,104 L 921,105 L 921,106 L 922,106 L 923,107 L 924,107 L 925,107 L 926,107 L 927,106 L 927,107 L 928,107 L 929,107 L 930,107 L 931,107 L 931,108 L 932,108 L 932,109 L 933,109 L 933,110 L 933,111 L 934,112 L 935,112 L 935,113 L 935,114 L 936,114 L 937,114 L 937,115 L 938,115 L 939,115 L 939,116 L 940,116 L 941,116 L 942,117 L 943,117 L 943,118 L 944,118 L 945,118 L 946,118 L 946,117 L 946,116 L 946,115 L 947,114 L 947,113 L 947,112 L 947,111 L 946,111 L 945,111 L 944,111 L 944,110 L 943,109 L 943,108 L 942,108 L 942,107 L 942,106 L 941,106 L 941,105 L 941,104 L 941,103 L 940,103 L 940,102 L 940,101 L 940,100 L 940,99 L 939,99 L 939,98 L 938,98 L 938,97 L 937,97 L 937,96 L 938,96 L 938,95 L 937,94 L 937,93 L 936,93 L 935,93 L 934,93 L 933,93 L 933,92 L 933,91 L 933,90 L 933,89 L 934,89 L 935,89 L 935,88 L 936,88 L 936,87 L 936,86 L 937,86 L 938,86 L 938,85 L 939,85 L 938,84 L 937,84 L 936,84 L 935,84 L 934,83 L 933,82 L 933,81 L 932,81 L 932,80 L 931,80 L 930,79 L 929,78 L 930,78 L 930,77 L 931,77 L 931,76 L 932,75 L 932,74 L 933,73 L 933,72 L 934,72 L 934,71 L 935,71 L 936,70 L 937,69 L 938,68 L 939,67 L 940,67 L 941,67 L 942,67 L 943,67 L 944,68 L 945,67 L 946,67 L 947,67 L 948,67 L 949,67 L 950,67 L 951,67 L 952,67 L 953,67 L 954,66 L 954,65 L 954,64 L 954,63 L 955,63 L 955,62 L 956,62 L 957,62 L 957,61 L 957,60 L 956,60 L 955,60 L 954,60 L 953,60 L 953,61 L 952,61 L 951,61 L 950,61 L 949,61 L 948,61 L 947,61 L 946,61 L 945,61 L 944,61 L 943,61 L 942,61 L 941,61 L 941,62 L 940,62 L 939,63 L 938,63 L 937,63 L 936,63 L 935,63 L 934,63 L 933,63 L 933,64 L 932,64 L 931,64 L 931,65 L 932,66 L 933,66 L 934,66 L 935,66 L 936,66 L 936,67 L 937,67 L 936,67 L 936,68 L 935,68 L 935,69 L 934,69 L 933,70 L 932,70 L 932,71 L 931,71 L 930,71 L 930,72 L 929,72 L 928,73 L 927,73 L 926,73 L 925,73 L 924,74 L 923,74 L 922,74 L 921,74 L 920,74 L 920,73 L 919,73 L 919,72 L 920,72 L 920,71 L 921,70 L 922,70 L 923,69 L 924,69 L 924,68 L 925,68 L 925,67 L 924,67 L 923,67 L 922,67 L 922,68 L 921,68 L 920,68 L 919,68 L 919,67 L 919,68 L 918,68 L 918,67 L 917,67 L 916,67 L 916,66 L 916,65 L 916,64 L 917,64 L 917,63 L 918,62 L 919,62 L 919,61 L 920,61 L 920,60 L 919,60 L 919,59 L 918,59 L 917,59 L 916,59 L 915,59 L 915,60 L 914,60 L 913,60 L 912,60 L 911,60 L 911,59 L 911,58 L 910,57 L 910,56 L 911,56 L 911,55 L 911,54 L 912,54 L 912,53 L 912,52 L 913,52 L 913,51 L 914,51 L 915,51 L 916,51 L 916,50 L 915,50 L 914,50 L 913,49 L 913,50 L 913,49 L 912,49 L 911,49 L 910,48 L 909,48 L 909,47 L 908,47 L 908,46 L 908,45 L 908,44 L 908,43 L 907,43 L 907,42 L 907,41 L 906,40 L 906,39 L 907,39 L 908,39 L 908,38 L 909,37 L 910,37 L 911,37 L 912,37 L 913,37 L 914,37 L 914,36 L 915,35 L 914,35 L 914,34 L 913,34 L 913,33 L 912,32 L 912,31 L 911,31 L 911,30 L 912,30 L 912,29 L 913,29 L 914,29 L 914,28 L 915,28 L 916,28 L 916,29 L 917,29 L 917,28 L 917,27 L 917,26 L 916,26 L 917,26 L 918,26 L 918,27 L 918,28 L 918,29 L 919,29 " />
</g>
</g>
</g>
<!-- QGIS extent for clipping, eg in Inkscape -->
<g id="qgisviewbox" inkscape:groupmode="layer" inkscape:label="qgisviewbox" stroke="rgb(255,0,0)" stroke-width="1" fill="none" >
<path d="M 0,1114 L 2010,1114 L 2010,0 L 0,0 L 0,1114 " />
</g></svg>