<?xml version="1.0" standalone="no"?>
<!DOCTYPE svg PUBLIC "-//W3C//DTD SVG 1.1//EN" "http://www.w3.org/Graphics/SVG/1.1/DTD/svg11.dtd">
<svg xmlns="http://www.w3.org/2000/svg" xmlns:inkscape="http://www.inkscape.org/namespaces/inkscape" xmlns:xlink="http://www.w3.org/1999/xlink" viewBox = "0 0 2013 1116" version = "1.1">
<!-- svg generated using QGIS www.qgis.org -->
<g id="union_lektiko_δημοσ_αχαρνων" inkscape:groupmode="layer" inkscape:label="union_lektiko_δημοσ_αχαρνων">
<g stroke="none" fill="rgb(102,66,130)" stroke-linejoin="round" stroke-width="0.26">
<g id="union_lektiko_δημοσ_αχαρνων_1" >
<path d="M 1063,514 L 1066,514 L 1069,514 L 1076,514 L 1085,515 L 1089,517 L 1091,519 L 1092,520 L 1093,523 L 1094,530 L 1094,531 L 1090,546 L 1091,551 L 1096,558 L 1113,580 L 1131,597 L 1137,603 L 1137,605 L 1136,609 L 1133,620 L 1132,625 L 1131,628 L 1130,635 L 1124,646 L 1113,665 L 1111,670 L 1109,677 L 1109,678 L 1108,678 L 1104,678 L 1099,678 L 1098,677 L 1097,669 L 1094,667 L 1092,665 L 1091,665 L 1079,666 L 1065,665 L 1064,663 L 1057,651 L 1050,627 L 1050,620 L 1050,615 L 1047,606 L 1048,593 L 1049,591 L 1052,585 L 1052,581 L 1051,567 L 1050,563 L 1046,563 L 1040,557 L 1030,541 L 1021,534 L 1024,522 L 1034,523 L 1039,518 L 1046,515 L 1050,513 L 1054,513 L 1058,514 L 1062,514 L 1063,514 " />
</g>
<g id="union_lektiko_δημοσ_αχαρνων_2" >
<path d="M 803,57 L 813,57 L 848,51 L 865,51 L 887,54 L 902,54 L 914,55 L 924,58 L 927,59 L 934,63 L 937,64 L 944,66 L 985,73 L 994,76 L 995,77 L 999,80 L 1003,86 L 1006,100 L 1010,115 L 1018,135 L 1030,155 L 1049,187 L 1048,190 L 1043,195 L 1037,202 L 1035,207 L 1033,212 L 1033,218 L 1035,232 L 1036,242 L 1034,251 L 1036,256 L 1038,263 L 1040,288 L 1041,294 L 1046,298 L 1048,297 L 1050,292 L 1058,288 L 1064,284 L 1074,277 L 1096,270 L 1108,268 L 1111,267 L 1113,269 L 1111,284 L 1110,292 L 1115,314 L 1120,327 L 1120,333 L 1117,347 L 1116,355 L 1116,362 L 1114,375 L 1115,385 L 1121,399 L 1127,410 L 1132,417 L 1138,428 L 1143,435 L 1149,441 L 1158,447 L 1170,453 L 1184,458 L 1192,459 L 1205,464 L 1218,472 L 1233,490 L 1235,490 L 1243,488 L 1247,488 L 1250,490 L 1256,502 L 1259,514 L 1258,524 L 1256,532 L 1258,540 L 1257,545 L 1254,558 L 1248,568 L 1248,570 L 1249,574 L 1253,578 L 1263,585 L 1269,590 L 1270,594 L 1264,616 L 1263,626 L 1276,655 L 1280,668 L 1290,689 L 1296,706 L 1302,721 L 1305,726 L 1316,751 L 1317,753 L 1319,753 L 1319,747 L 1320,746 L 1321,745 L 1323,746 L 1326,749 L 1329,748 L 1327,752 L 1325,756 L 1322,760 L 1317,761 L 1312,761 L 1306,758 L 1305,758 L 1304,758 L 1302,758 L 1291,766 L 1286,769 L 1282,770 L 1278,770 L 1277,771 L 1271,776 L 1268,777 L 1267,777 L 1262,775 L 1259,774 L 1255,777 L 1252,780 L 1241,781 L 1240,781 L 1236,784 L 1236,785 L 1235,785 L 1230,786 L 1223,789 L 1220,792 L 1218,800 L 1214,806 L 1213,812 L 1210,816 L 1205,822 L 1201,833 L 1198,838 L 1190,843 L 1186,848 L 1186,849 L 1185,849 L 1177,851 L 1155,863 L 1154,867 L 1153,873 L 1152,876 L 1152,877 L 1146,885 L 1142,895 L 1136,900 L 1136,909 L 1134,913 L 1133,914 L 1125,914 L 1119,917 L 1113,926 L 1111,927 L 1109,929 L 1108,929 L 1104,931 L 1102,933 L 1098,938 L 1097,938 L 1092,941 L 1090,942 L 1090,943 L 1089,943 L 1086,951 L 1079,956 L 1076,961 L 1073,968 L 1068,972 L 1065,976 L 1062,981 L 1060,984 L 1055,988 L 1051,990 L 1047,992 L 1047,994 L 1044,998 L 1043,1002 L 1038,1008 L 1037,1015 L 1035,1020 L 1035,1025 L 1035,1030 L 1033,1035 L 1026,1039 L 1022,1044 L 1017,1057 L 1012,1057 L 1010,1064 L 1008,1070 L 1001,1073 L 995,1081 L 980,1087 L 955,1074 L 948,1071 L 927,1029 L 918,1020 L 907,1011 L 909,1003 L 910,989 L 920,969 L 921,956 L 922,932 L 924,923 L 922,922 L 915,926 L 910,928 L 909,929 L 905,930 L 903,929 L 900,928 L 895,925 L 891,920 L 888,913 L 888,904 L 892,896 L 895,886 L 895,882 L 897,875 L 896,871 L 895,848 L 893,842 L 892,838 L 889,831 L 884,821 L 880,815 L 873,801 L 870,786 L 877,768 L 878,761 L 877,756 L 876,755 L 872,752 L 871,751 L 870,747 L 874,739 L 877,736 L 880,734 L 889,731 L 903,721 L 906,718 L 912,711 L 914,708 L 926,697 L 938,688 L 945,685 L 954,684 L 955,683 L 957,664 L 956,644 L 953,619 L 952,616 L 951,614 L 949,612 L 948,611 L 947,611 L 943,609 L 929,604 L 911,599 L 906,597 L 897,590 L 894,587 L 888,581 L 886,578 L 869,572 L 857,557 L 855,555 L 851,555 L 841,557 L 836,557 L 834,556 L 828,542 L 818,518 L 816,516 L 814,515 L 803,512 L 800,511 L 796,509 L 794,507 L 793,506 L 785,498 L 778,486 L 785,484 L 791,483 L 794,480 L 794,478 L 794,477 L 792,474 L 791,472 L 792,469 L 801,464 L 811,455 L 811,451 L 808,443 L 808,435 L 811,428 L 811,425 L 811,424 L 810,420 L 808,417 L 808,408 L 806,402 L 796,381 L 780,352 L 780,351 L 775,347 L 769,341 L 761,336 L 754,327 L 753,324 L 754,317 L 751,310 L 748,291 L 746,279 L 748,262 L 749,248 L 749,232 L 746,224 L 746,223 L 741,218 L 734,215 L 724,212 L 715,208 L 714,207 L 716,197 L 716,185 L 713,165 L 711,154 L 713,137 L 713,132 L 713,130 L 700,116 L 693,105 L 686,93 L 681,83 L 682,81 L 694,72 L 722,48 L 732,40 L 746,32 L 747,31 L 751,27 L 752,26 L 755,28 L 765,39 L 771,44 L 772,45 L 780,50 L 791,54 L 799,56 L 803,57 " />
<path d="M 1039,518 L 1034,523 L 1024,522 L 1021,534 L 1030,541 L 1040,557 L 1046,563 L 1050,563 L 1051,567 L 1052,581 L 1052,585 L 1049,591 L 1048,593 L 1047,606 L 1050,615 L 1050,620 L 1050,627 L 1057,651 L 1064,663 L 1065,665 L 1079,666 L 1091,665 L 1092,665 L 1094,667 L 1097,669 L 1098,677 L 1099,678 L 1104,678 L 1108,678 L 1109,678 L 1109,677 L 1111,670 L 1113,665 L 1124,646 L 1130,635 L 1131,628 L 1132,625 L 1133,620 L 1136,609 L 1137,605 L 1137,603 L 1131,597 L 1113,580 L 1096,558 L 1091,551 L 1090,546 L 1094,531 L 1094,530 L 1093,523 L 1092,520 L 1091,519 L 1089,517 L 1085,515 L 1076,514 L 1069,514 L 1066,514 L 1063,514 L 1062,514 L 1058,514 L 1054,513 L 1050,513 L 1046,515 L 1039,518 " />
</g>
</g>
</g>
<!-- QGIS extent for clipping, eg in Inkscape -->
<g id="qgisviewbox" inkscape:groupmode="layer" inkscape:label="qgisviewbox" stroke="rgb(255,0,0)" stroke-width="1" fill="none" >
<path d="M 0,1114 L 2010,1114 L 2010,0 L 0,0 L 0,1114 " />
</g></svg>